<svg width="460" height="460" fill="none" xmlns="http://www.w3.org/2000/svg"><path d="M444.36 93.435s-6.035-5.115-15.971 9.605-14.076 23.497-14.076 23.497-2.521 3.045-4.527.616c-2.005-2.429-4.379-8.933-8.363-8.28-4.13.653-5.989 4.959-6.016 11.601-.028 6.643-.635 21.216-.7 22.531-.064 1.316-1.012 3.091-2.649 1.647-1.638-1.444-10.497-14.076-16.238-9.513-5.741 4.563-2.76 23.092-2.512 25.125.249 2.034-.202 2.825-1.196 3.202-.993.377-3.569-4.158-6.237-7.645-2.668-3.487-6.376-7.075-9.467-4.168s-5.585 16.247 4.6 39.625l5.409 10.524 11.868.773c25.484.101 36.754-7.452 38.208-11.445 1.454-3.992-3.303-5.98-7.562-7.056-4.26-1.076-9.44-1.656-9.495-2.714-.055-1.058.497-1.84 2.475-2.364 1.978-.525 20.176-5.134 22.08-12.218s-13.202-10.212-15.171-11.178c-1.969-.966-.69-2.521.469-3.082 1.16-.561 14.334-6.872 20.424-9.522 6.091-2.65 9.32-6.054 8.28-10.12-.993-3.91-7.893-3.524-10.92-4.407s-1.224-4.397-1.224-4.397 6.376-7.25 16.036-22.209c9.66-14.96 2.346-18.547 2.346-18.547" fill="#EBEBEB"/><path d="M364.246 213.707c7.139-10.957 20.166-30.222 31.28-46.828s21.114-31.621 28.308-42.541l8.51-12.944 2.319-3.524.607-.92c.138-.202.221-.304.221-.304s-.065.12-.193.322l-.58.92-2.318 3.579c-1.969 3.082-4.84 7.535-8.409 13.009-7.139 10.957-17.131 26.018-28.226 42.614-11.095 16.597-24.085 35.834-31.298 46.764" fill="#E0E0E0"/><path d="M404.368 128.11c.098.268.165.545.202.828.101.543.239 1.325.396 2.3.303 1.941.653 4.6.984 7.618.331 3.017.617 5.593.837 7.626.102.92.194 1.693.267 2.31.054.281.076.568.065.855a3.428 3.428 0 01-.212-.828 53.226 53.226 0 01-.377-2.3c-.285-1.95-.607-4.6-.92-7.627-.313-3.026-.653-5.584-.92-7.617-.111-.92-.212-1.693-.285-2.309a3.954 3.954 0 01-.037-.856zm3.799 21.85c0-.101 5.52-1.076 12.337-2.171 6.817-1.095 12.374-1.905 12.393-1.84.018.064-5.52 1.076-12.338 2.171-6.817 1.095-12.374 1.969-12.392 1.84zm-18.179 24.748c.308-.015.617.006.92.064l2.355.295c1.997.239 4.738.57 7.793.819 3.054.248 5.805.386 7.811.469l2.373.101c.294-.007.587.021.874.083a4.82 4.82 0 01-.874.064h-2.383c-2.005 0-4.783-.11-7.838-.368a124.759 124.759 0 01-7.792-.92 82.393 82.393 0 01-2.337-.414 5.346 5.346 0 01-.902-.193zm-7.793-19.035c.151.226.277.466.378.718l.92 1.996a409.92 409.92 0 012.888 6.643 268.4 268.4 0 012.76 6.688c.313.8.589 1.49.801 2.042.116.246.2.506.248.773a3.892 3.892 0 01-.377-.717l-.92-1.997a422.796 422.796 0 01-2.88-6.642c-1.104-2.604-2.088-4.968-2.76-6.689-.312-.809-.579-1.49-.8-2.042a3.097 3.097 0 01-.258-.773zm-18.795 19.78c.189.291.349.599.479.92.303.663.708 1.527 1.177 2.558.985 2.162 2.31 5.161 3.763 8.482a667.566 667.566 0 013.68 8.538l1.067 2.603c.147.314.264.64.35.976a5.354 5.354 0 01-.478-.92 324.78 324.78 0 01-1.178-2.558 648.403 648.403 0 01-3.763-8.492 754.774 754.774 0 01-3.68-8.528l-1.067-2.604a5.9 5.9 0 01-.35-.975zm10.377 23.423c.369-.006.738.012 1.104.056l3.009.266c2.53.221 6.035.506 9.908.727 3.873.221 7.36.322 9.927.377l3.018.074c.369-.011.738.01 1.104.064-.366.055-.735.08-1.104.074-.718 0-1.748.046-3.018.046-2.548 0-6.072-.055-9.945-.276-3.873-.221-7.36-.543-9.918-.828a115.573 115.573 0 01-2.99-.377 5.664 5.664 0 01-1.095-.203zM108.192 56.59H44.308v66.598h63.884V56.589z" fill="#E0E0E0"/><path d="M103.868 56.59H39.983v66.598h63.885V56.589z" fill="#FAFAFA"/><path d="M103.886 123.206H39.965V56.562h63.921v66.644zm-63.884 0h63.848V56.608H40.002v66.598z" fill="#E0E0E0"/><path d="M95.276 65.54H48.567v48.696h46.709V65.541z" fill="#FAFAFA"/><path d="M48.567 114.558c-.33.497-.716.954-1.15 1.362-.745.791-1.794 1.84-2.971 3.008a132.166 132.166 0 01-3.046 2.926 7.07 7.07 0 01-1.352 1.122c.334-.484.72-.932 1.15-1.334.745-.782 1.794-1.84 2.971-3.017a113.725 113.725 0 013.055-2.926c.4-.432.852-.815 1.343-1.141zm46.717-.119c.49.328.937.714 1.334 1.15.791.745 1.84 1.84 3.018 2.971 1.177 1.132 2.189 2.254 2.916 3.046a7.1 7.1 0 011.123 1.352 7.627 7.627 0 01-1.334-1.15c-.782-.745-1.84-1.84-3.018-2.972-1.178-1.131-2.19-2.263-2.926-3.054a7.4 7.4 0 01-1.113-1.343zm-.128-48.769c.33-.492.716-.942 1.15-1.344.746-.782 1.794-1.84 2.972-3.008a114.834 114.834 0 013.054-2.926 7.958 7.958 0 011.343-1.122 6.637 6.637 0 01-1.14 1.334c-.746.791-1.84 1.84-2.981 3.018a65.555 65.555 0 01-3.055 2.925c-.4.427-.851.804-1.343 1.123zm-46.709.12a7.207 7.207 0 01-1.343-1.15c-.79-.755-1.84-1.84-3.008-2.972s-2.19-2.254-2.926-3.055a7.355 7.355 0 01-1.122-1.352c.491.333.944.719 1.352 1.15.791.745 1.84 1.794 3.018 2.971a100.568 100.568 0 012.925 3.064c.42.403.79.853 1.104 1.343z" fill="#E0E0E0"/><path d="M95.156 114.227v-13.469c0-8.528-.055-20.672-.092-35.217l.184.175h-46.58l.212-.203V114.2l-.184-.175 33.737.092 9.476.046h3.421a.856.856 0 01-.202 0h-3.109l-9.43.046-33.847.092h-.35V65.32h46.976v.184c0 14.591-.074 26.781-.092 35.337 0 4.241 0 7.59-.055 9.881v3.257a1.543 1.543 0 01-.065.248z" fill="#E0E0E0"/><path d="M79.719 82.092H64.134v15.584h15.585V82.092z" fill="#EBEBEB"/><path d="M42.946 325.873a36.06 36.06 0 00-15.456-5.317c-2.52-.258-5.28-.184-7.305 1.343a1.497 1.497 0 00-.754 1.334c.117.385.372.713.718.92 6.283 4.802 15.796 5.409 22.797 1.729m-.396-.441a75.645 75.645 0 01-9.982-8.786 25.219 25.219 0 01-6.256-11.574c-.267-1.315-.35-2.824.497-3.873 7.958 6.21 14.205 14.251 15.741 24.233z" fill="#E0E0E0"/><path d="M42.863 325.818a36.275 36.275 0 01.184-13.11c1.003-4.278 3.33-8.372 6.983-10.81 1.38 3.211.782 6.909-.184 10.267a50.095 50.095 0 01-6.918 14.582m7.736 13.046c-4.738.57-8.86 3.073-12.392 6.274a23.499 23.499 0 00-7.093 12.163c4.6-.286 8.583-3.561 11.445-7.232 2.86-3.67 4.839-7.7 7.976-11.132m1.757 2.162a30.579 30.579 0 013.533-28.915c2.695 9.595 1.702 20.433-3.533 28.915zm10.305 12.273a22.083 22.083 0 00-21.16 12.163c-.258.524-.488 1.186-.139 1.656.182.177.405.307.648.38.244.072.502.083.75.034 4.168-.267 7.858-2.76 10.903-5.631 3.045-2.87 5.704-6.145 9.071-8.62m-.395-.653a39.376 39.376 0 01-.396-21.988c.773-2.834 2.08-5.815 4.692-7.14a.725.725 0 01.7-.131.719.719 0 01.469.536 13.186 13.186 0 011.113 6.293 39.57 39.57 0 01-.994 6.44c-.819 3.91-1.26 8.105-3.404 11.463a23.726 23.726 0 00-1.361 2.521c-.405.856-.405 1.159-.773 1.84m27.231 4.232c-2.024-7.691.12-17.011 4.968-23.313.359-.46.828-.92 1.417-.92.92.083 1.122 1.279 1.076 2.171a42.16 42.16 0 01-7.46 22.08m2.456 1.656c9.347 2.438 20.056.074 27.83-5.658a22.593 22.593 0 00-15.069-1.84c-5.024 1.16-9.624 3.414-12.76 7.508m2.078-5.125c5.226-8.528 15.254-14.094 25.254-14.6-1.159 4.066-4.499 7.222-8.28 9.126-3.781 1.905-7.976 2.76-12.125 3.551-1.61.313-3.828.654-4.867 1.923m-3.975-24.84c1.417-4.848 2.843-9.743 3.23-14.784.386-5.042-.322-10.304-2.944-14.628-4.885 9.448-5.382 20.497-.433 29.918m16.579-8.841c5.713-10.378 17.369-18.676 29.164-19.844-4.545 11.334-16.956 20.092-29.164 19.844zm-3.552 2.061c8.519 1.297 15.778 6.734 23.745 10.037a10.627 10.627 0 005.373 1.03 4.2 4.2 0 003.903-2.801 4.209 4.209 0 00-1.272-4.632 11.448 11.448 0 00-3.901-2.365c-8.675-3.615-17.976-3.68-27.112-1.518" fill="#E0E0E0"/><path d="M98.063 329.112c1.931.552 2.585 1.554 4.112 2.852a44.48 44.48 0 0018.014 9.255c.68.165 1.582.239 1.932-.387.349-.625-.083-1.196-.47-1.683a24.831 24.831 0 00-10.874-7.36c-4.158-1.546-7.756-3.413-12.715-3.018m-5.565-35.76a34.119 34.119 0 0026.128 8.896c.435.001.855-.153 1.187-.432.663-.718-.129-1.84-.92-2.42-7.682-5.989-16.992-8.464-26.422-6.044" fill="#E0E0E0"/><path d="M99.094 290.6a36.414 36.414 0 0132.605-5.4c-4.104 4.048-9.808 6.228-15.539 6.817a49.235 49.235 0 01-17.066-1.435m-2.622-16.569c-.755-7.673-.267-13.727-.8-21.427 0-.616-.175-1.352-.746-1.573-.8-.313-1.472.671-1.73 1.49a24.517 24.517 0 003.267 21.335" fill="#E0E0E0"/><path d="M95.92 274.859c5.198-3.22 9.098-7.415 12.705-12.346 2.502-3.432 4.6-7.544 4.048-11.758-3.524-.073-6.873 1.84-9.2 4.554a25.446 25.446 0 00-4.665 9.393c-1.02 3.377-1.73 6.836-2.925 10.12m12.512-3.422a102.29 102.29 0 0031.28-18.4c-3.735-1.509-8.013-.607-11.739.92-8.529 3.441-15.502 9.255-19.679 17.48m-8.832 7.654c5.777.626 11.638 1.04 17.36.083 5.723-.957 10.948-3.174 16.201-5.382a1.929 1.929 0 001.104-.837 1.287 1.287 0 00-.395-1.389 3.411 3.411 0 00-1.38-.644c-5.723-1.601-11.887-.856-17.48 1.049a81.45 81.45 0 00-15.373 7.12m-32.983 14.224c-3.938-7.949-3.68-17.223-.276-25.411 2.392 3.68 2.686 8.28 2.245 12.632-.442 4.351-1.757 8.813-1.84 13.174m-15.852-8.326a35.424 35.424 0 00-26.33 11.215c4.903.773 9.954-.497 14.416-2.677 4.462-2.181 8.427-5.235 12.356-8.28m-11.012-3.8c-4.812-.386-9.44-.984-14.058.433-4.618 1.416-8.832 4.6-10.718 9.089a25.419 25.419 0 0013.184-2.447 75.731 75.731 0 0011.592-7.029m15.649.12c-4.324-2.834-8.767-5.723-13.8-6.891-5.032-1.168-10.874-.313-14.388 3.487 4.075 2.392 9.025 2.677 13.8 2.668 4.774-.009 10.524-.055 14.977 1.518" fill="#E0E0E0"/><path d="M55.863 282.201c-7.36-7.268-10.194-20.305-7.222-30.241a46.058 46.058 0 017.222 30.241zm20.331-20.581c1.399-3.238 2.374-6.642 3.625-9.945a28.665 28.665 0 015.18-9.2 13.588 13.588 0 019.2-4.747 36.895 36.895 0 01-17.775 23.92m-3.91 4.232c-2.309-3.174-4.968-7.489-8.105-9.853-3.137-2.365-7.204-3.809-11.04-2.898a25.653 25.653 0 0019.145 12.751zm.736-3.993c-1.508-3.845-3.035-7.728-3.68-11.813-.643-4.084-.239-8.445 1.84-12.015 4.058 7.673 5.364 15.916 2.006 23.92m2.815-23.92c2.3-7.608 9.265-13.202 16.79-15.778a6.357 6.357 0 012.945-.441 2.554 2.554 0 012.162 1.84c.276 1.297-.792 2.456-1.84 3.312a56.978 56.978 0 01-20.102 11.095m.174-6.247c.294-4.904.598-9.881 2.199-14.527 1.6-4.646 4.664-9.007 9.136-11.04.763 4.959-1.417 9.881-4.058 14.15-2.64 4.269-5.814 8.28-7.36 13.036m-.083 1.757c-1.895-5.52-2.097-12.585-5.41-17.415-2.327-3.377-6.044-5.677-8.04-9.246a14.076 14.076 0 00.47 10.497 30.42 30.42 0 006.136 8.795c2.456 2.622 4.6 4.6 6.844 7.36" fill="#E0E0E0"/><path d="M76.231 398.47c-.147 0-.276-36.984-.285-82.588-.01-45.604.101-82.598.248-82.598s.276 36.975.285 82.598c.01 45.623-.12 82.588-.248 82.588z" fill="#E0E0E0"/><path d="M108.561 287.693a7.926 7.926 0 01-1.39.525l-3.827 1.288a228.754 228.754 0 00-12.466 4.664c-4.811 1.969-9.255 3.68-11.813 5.916a8.622 8.622 0 00-2.373 3.146c-.368.865-.433 1.398-.488 1.389a1.132 1.132 0 010-.386c.06-.367.152-.727.276-1.077a8.2 8.2 0 012.31-3.348 20.726 20.726 0 015.124-3.184c2.051-.92 4.324-1.959 6.743-2.953a155.38 155.38 0 0112.549-4.526c1.629-.506 2.963-.92 3.883-1.132a8.038 8.038 0 011.472-.322z" fill="#E0E0E0"/><path d="M119.14 261.676s-.119.156-.386.414l-1.187 1.113-4.407 4.029-14.72 13.129c-5.759 5.124-10.727 10.019-14.177 13.708a157.872 157.872 0 00-4.011 4.425l-1.132 1.224c-.118.147-.25.283-.395.404.08-.17.186-.328.312-.469.23-.303.552-.745.994-1.288.92-1.113 2.199-2.677 3.9-4.554a186.398 186.398 0 0114.095-13.846c5.778-5.115 11.04-9.706 14.849-13.018l4.545-3.901 1.251-1.039c.145-.126.302-.236.469-.331z" fill="#E0E0E0"/><path d="M92.175 285.568c-.147-.064 1.058-2.843 2.254-6.357 1.196-3.515 1.776-6.44 1.932-6.44a21.756 21.756 0 01-1.426 6.615 41.4 41.4 0 01-1.84 4.443 6.55 6.55 0 01-.92 1.739zm-15.907 22.384a6.228 6.228 0 01-.92-1.031l-2.272-2.907c-1.914-2.475-4.6-5.879-7.508-9.605-2.907-3.726-5.64-7.065-7.608-9.485l-2.328-2.88a6.348 6.348 0 01-.8-1.094c.338.29.646.614.92.966.589.634 1.426 1.582 2.447 2.76a298.324 298.324 0 017.774 9.402 294.482 294.482 0 017.36 9.706c.92 1.26 1.647 2.291 2.144 3.018.3.356.566.741.791 1.15z" fill="#E0E0E0"/><path d="M69.185 298.853a12.882 12.882 0 01-2.972-5.52 15.906 15.906 0 01-.672-5.603h.24c-.11.432-.184.653-.23.653-.046 0 0-.248 0-.69h.239a25.44 25.44 0 00.92 5.456 39.96 39.96 0 002.475 5.704zm-9.155-11.5a8.976 8.976 0 00-2.07-1.233 13.802 13.802 0 00-5.75-.46 35.27 35.27 0 00-5.796.92c-.78.243-1.577.434-2.383.57.71-.42 1.48-.73 2.282-.92a26.54 26.54 0 015.851-1.03 12.53 12.53 0 015.943.644c.8.26 1.48.794 1.923 1.509zm-2.162-2.797c0 .083-1.205-.478-3.174-1.15a32.658 32.658 0 00-7.93-1.638 33.17 33.17 0 00-8.078.414c-2.042.368-3.284.755-3.312.663a3.11 3.11 0 01.846-.359 19.82 19.82 0 012.392-.672 28.35 28.35 0 0116.21 1.233c.775.298 1.531.642 2.264 1.031.282.122.545.283.782.478zm18.326-11.785a67.502 67.502 0 01-2.31-8.05 66.94 66.94 0 01-1.84-8.17 65.316 65.316 0 012.32 8.041 65.293 65.293 0 011.83 8.179z" fill="#E0E0E0"/><path d="M76.36 272.771a37.047 37.047 0 00-2.567-4.821 21.663 21.663 0 00-3.772-3.901 3.517 3.517 0 011.454.755 11.653 11.653 0 012.76 2.842 10.685 10.685 0 012.125 5.125zm-.129 105.984c-.055 0-.165-.92-.58-2.457a34.814 34.814 0 00-2.474-6.44c-2.548-5.216-7.204-11.84-13.11-18.473-2.925-3.34-5.768-6.495-8.179-9.522a67.037 67.037 0 01-5.842-8.427 40.9 40.9 0 01-2.953-6.266c-.276-.772-.47-1.37-.58-1.784a2.938 2.938 0 01-.193-.626c.046 0 .322.846.92 2.355a46.038 46.038 0 003.082 6.146 70.533 70.533 0 005.907 8.28c2.42 2.99 5.262 6.127 8.197 9.476 5.925 6.651 10.561 13.349 13.046 18.657a31.792 31.792 0 012.382 6.606c.144.606.252 1.221.322 1.84.042.209.06.422.055.635zm29.211-32.982c-.495.315-1.008.601-1.537.855a33.972 33.972 0 00-3.965 2.632 44.1 44.1 0 00-5.18 4.756c-1.84 1.932-3.68 4.177-5.639 6.578-3.846 4.83-7.443 9.099-9.596 12.503a51.955 51.955 0 00-2.41 4.121 11.483 11.483 0 01-.846 1.537c.026-.151.076-.297.147-.433.11-.276.267-.69.515-1.196a38.55 38.55 0 012.272-4.232c2.089-3.486 5.658-7.82 9.504-12.631 1.923-2.411 3.836-4.665 5.695-6.597a42.32 42.32 0 015.345-4.71 28.942 28.942 0 014.103-2.512c.506-.248.92-.404 1.196-.524.124-.068.258-.117.396-.147z" fill="#E0E0E0"/><path d="M106.012 356.472a21.452 21.452 0 01-3.238.47 42.725 42.725 0 00-7.673 1.508 23.285 23.285 0 00-6.873 3.607c-1.582 1.223-2.327 2.235-2.4 2.18.111-.276.274-.528.477-.745a12.857 12.857 0 011.684-1.73c2.05-1.704 4.408-3 6.946-3.818a35.088 35.088 0 017.802-1.38 18.284 18.284 0 013.275-.092z" fill="#E0E0E0"/><path d="M86.774 363.06c-.175-.092 1.288-2.319 2.42-5.318 1.131-2.999 1.306-5.667 1.5-5.64.076.576.057 1.16-.056 1.73a18.254 18.254 0 01-.92 4.094 20.282 20.282 0 01-1.84 3.754 5.303 5.303 0 01-1.104 1.38zm28.125-46.019a2.213 2.213 0 01-.525.276l-1.518.69c-.662.285-1.472.653-2.382 1.132-.911.478-1.978.92-3.092 1.628l-1.766 1.003c-.607.35-1.214.764-1.84 1.168-1.306.792-2.604 1.767-4.002 2.76a76.067 76.067 0 00-8.335 7.36 74.858 74.858 0 00-7.047 8.584c-.92 1.426-1.84 2.76-2.613 4.085-.387.662-.782 1.279-1.113 1.904a31.421 31.421 0 00-.92 1.84c-.626 1.049-1.123 2.144-1.546 3.073a51.195 51.195 0 00-1.049 2.429l-.635 1.536a2.53 2.53 0 01-.257.525 2.49 2.49 0 01.156-.562c.138-.414.322-.92.543-1.582.22-.662.543-1.518.92-2.466.377-.947.846-2.042 1.454-3.192l.92-1.84c.322-.635.708-1.26 1.085-1.932.736-1.343 1.656-2.696 2.595-4.14a71.397 71.397 0 017.148-8.666 72.255 72.255 0 018.436-7.36c1.408-.985 2.76-1.951 4.048-2.76.654-.396 1.27-.81 1.84-1.15l1.84-.976c1.132-.653 2.218-1.122 3.147-1.564a32.77 32.77 0 012.429-1.048l1.564-.608c.167-.063.339-.112.515-.147z" fill="#E0E0E0"/><path d="M91.78 332.534a3.68 3.68 0 011.269-1.895 8.094 8.094 0 015.124-1.969 14.08 14.08 0 015.391 1.058 7.667 7.667 0 012.034.984 12.317 12.317 0 01-2.162-.625 16.19 16.19 0 00-5.244-.92 8.36 8.36 0 00-4.895 1.72 15.536 15.536 0 00-1.518 1.647zm-3.46 3.56c-.147-.082 1.16-1.996 1.454-4.728a18.915 18.915 0 00-.332-4.941c.065 0 .35.479.608 1.38a9.825 9.825 0 01-.81 7.075c-.46.828-.865 1.251-.92 1.214zm-37.628 47.96c.8 14.131 5.06 28.52 11.61 43.038h28.52c6.248-14.389 10.213-28.741 10.912-43.038H50.692z" fill="#E0E0E0"/><path d="M97.088 406.925c0 .147-9.384.267-20.949.267-11.564 0-20.939-.12-20.939-.267 0-.147 9.366-.285 20.94-.285 11.573 0 20.948.138 20.948.285zm-.645 5.125c0 .147-8.786.266-19.632.266-10.847 0-19.633-.119-19.633-.266 0-.148 8.786-.276 19.633-.276 10.846 0 19.632.128 19.632.276zm-33.68-18.713a80.754 80.754 0 010 13.119 80.776 80.776 0 010-13.119z" fill="#FAFAFA"/><path d="M78.025 393.337a86.645 86.645 0 010 13.588 83.713 83.713 0 010-13.588zm14.325-.12c.356 4.615.356 9.25 0 13.865a90.158 90.158 0 010-13.865z" fill="#FAFAFA"/><path d="M100.795 393.337c0 .147-11.04.267-24.564.267-13.524 0-24.573-.12-24.573-.267 0-.147 11.04-.267 24.573-.267 13.534 0 24.564.12 24.564.267z" fill="#FAFAFA"/><path d="M380.208 52.523H139.315c-5.868 0-10.626 4.757-10.626 10.626v354.954c0 5.869 4.758 10.626 10.626 10.626h240.893c5.869 0 10.626-4.757 10.626-10.626V63.149c0-5.869-4.757-10.626-10.626-10.626z" fill="#263238"/><path d="M382.572 78.264H136.96v314.18h245.612V78.264z" fill="#fff"/><path d="M269.827 409.823a10.063 10.063 0 01-17.182 7.126 10.064 10.064 0 017.126-17.181 10.056 10.056 0 0110.056 10.055zM298.116 63.36h-76.709c-.62 0-1.123.503-1.123 1.123v1.913c0 .62.503 1.123 1.123 1.123h76.709c.62 0 1.123-.503 1.123-1.123v-1.913c0-.62-.503-1.123-1.123-1.123z" fill="#455A64"/><path d="M382.572 77.804H136.96v84.383h245.612V77.804z" fill="#DC3001"/><path d="M373.511 172.923H229.163V384.56h144.348V172.923z" fill="#fff"/><path d="M373.52 384.56c0-1.95 0-86.885-.083-211.6l.083.092H229.163l.092-.101v211.6l-.074-.074 144.339.083-144.348.074h-.092V172.868h144.523v.092c-.083 124.715-.083 209.65-.083 211.6z" fill="#E0E0E0"/><path d="M266.662 199.934a.702.702 0 01-.48.649.699.699 0 01-.283.032c-.589 0-.92-.414-.92-1.113 0-.699.414-1.159 1.021-1.159a.912.912 0 01.524.129l-.092.184a.724.724 0 00-.432-.111c-.479 0-.791.313-.791.92a1.023 1.023 0 000 .175.718.718 0 01.68-.377.68.68 0 01.773.671zm-.23 0c0-.294-.211-.478-.561-.478a.505.505 0 00-.391.121.513.513 0 00-.179.367c0 .248.202.478.588.478a.486.486 0 00.543-.488zm4.25-.294v.92h-.202v-.92c0-.359-.175-.534-.479-.534a.535.535 0 00-.561.598v.92h-.23v-.92c0-.358-.175-.533-.478-.533a.526.526 0 00-.421.167.528.528 0 00-.141.431v.92h-.23v-1.675h.212v.304a.684.684 0 01.616-.322.608.608 0 01.598.359.73.73 0 01.663-.359.633.633 0 01.653.644zm.561-1.251c0-.044.018-.086.049-.117a.166.166 0 01.117-.049.166.166 0 11-.166.166zm.055.533h.221v1.638h-.221v-1.638zm2.402.718v.92h-.23v-.92a.464.464 0 00-.124-.389.47.47 0 00-.382-.145.545.545 0 00-.58.598v.92h-.23v-1.674h.212v.304a.73.73 0 01.644-.322.64.64 0 01.658.43.64.64 0 01.032.278zm2.125-.718v1.638h-.221v-.304a.657.657 0 01-.598.322.661.661 0 01-.528-.194.664.664 0 01-.181-.532v-.966h.221v.92a.473.473 0 00.299.505.471.471 0 00.207.028.544.544 0 00.548-.373.56.56 0 00.023-.234v-.874l.23.064zm1.518 1.574a.54.54 0 01-.358.119.444.444 0 01-.466-.293.441.441 0 01-.022-.194v-1.012h-.304v-.194h.304v-.368h.221v.368h.515v.194h-.515v.993a.28.28 0 00.072.227.277.277 0 00.222.086.398.398 0 00.249-.092l.082.166zm1.813-.672h-1.408a.63.63 0 00.42.556c.078.027.16.038.243.033a.68.68 0 00.515-.221l.119.147a.82.82 0 01-.644.276.836.836 0 01-.92-.855.809.809 0 01.053-.327.807.807 0 01.45-.466.825.825 0 01.325-.063.795.795 0 01.593.25.801.801 0 01.217.606l.037.064zm-1.408-.184h1.187a.595.595 0 00-.989-.374.592.592 0 00-.198.374zm1.638.764l.101-.175c.176.121.385.185.598.184.313 0 .451-.111.451-.276 0-.433-1.095-.092-1.095-.755 0-.266.239-.478.662-.478.21-.002.416.052.598.156l-.101.184a.929.929 0 00-.497-.147c-.294 0-.432.12-.432.285 0 .451 1.086.111 1.086.755 0 .285-.258.478-.69.478a1.114 1.114 0 01-.681-.211zm3.891-.847v1.003h-.221v-.258a.644.644 0 01-.248.215.64.64 0 01-.322.061c-.387 0-.617-.202-.617-.487s.166-.479.644-.479h.534v-.101c0-.285-.157-.441-.469-.441a.865.865 0 00-.562.193l-.101-.166c.192-.156.434-.237.681-.23a.601.601 0 01.681.69zm-.23.534v-.276h-.525c-.322 0-.432.129-.432.303 0 .175.156.313.423.313a.527.527 0 00.534-.34zm2.401-1.169v1.472a.726.726 0 01-.207.63.729.729 0 01-.63.208 1.179 1.179 0 01-.782-.258l.12-.175a.92.92 0 00.662.23c.423 0 .617-.193.617-.607v-.212a.766.766 0 01-.654.322.816.816 0 01-.834-1.147.83.83 0 01.495-.446.83.83 0 01.339-.035.77.77 0 01.663.34v-.322h.211zm-.22.792a.64.64 0 00-.747-.644.64.64 0 00-.509.494.633.633 0 00.621.766.602.602 0 00.607-.616h.028zm.689.046a.857.857 0 011.461-.605.86.86 0 01.186.932.859.859 0 01-.791.528.822.822 0 01-.798-.523.84.84 0 01-.058-.332zm1.472 0a.585.585 0 00-.033-.249.595.595 0 00-.337-.357.606.606 0 00-.246-.048.657.657 0 00-.682.757.652.652 0 001.298-.103z" fill="#E0E0E0"/><path d="M359.72 224.397c0 .138-26.855.239-59.975.239-33.12 0-59.993-.101-59.993-.239 0-.138 26.855-.239 59.993-.239 33.139 0 59.975.11 59.975.239zm0 6.817c0 .129-26.855.24-59.975.24-33.12 0-59.993-.111-59.993-.24 0-.128 26.855-.239 59.993-.239 33.139 0 59.975.101 59.975.239zm0 6.808c0 .138-26.855.24-59.975.24-33.12 0-59.993-.102-59.993-.24s26.855-.239 59.993-.239c33.139 0 59.975.111 59.975.239zm-57.628 6.818c-.216.034-.435.05-.654.046l-1.84.046-6.817.073-22.475.074-22.485-.074-6.817-.073-1.84-.046a3.553 3.553 0 01-.644-.046c.212-.042.427-.061.644-.056h1.84l6.817-.082 22.485-.065 22.475.065 6.817.082h1.84c.219-.004.438.014.654.056z" fill="#263238"/><path d="M237.858 255.699l-.54 96.561 128.467.718.539-96.562-128.466-.717z" fill="#DC3001"/><path d="M237.313 352.25l45.209-59.764 27.582 37.702 18.97-19.973 36.708 42.752-128.469-.717zm84.843-66.903a10.116 10.116 0 01-6.294 9.323 10.119 10.119 0 01-13.763-7.451 10.126 10.126 0 014.366-10.367 10.12 10.12 0 0115.691 8.495z" fill="#DC3001"/><path d="M237.313 352.25l45.209-59.764 27.582 37.702 18.97-19.973 36.708 42.752-128.469-.717zm84.843-66.903a10.116 10.116 0 01-6.294 9.323 10.119 10.119 0 01-13.763-7.451 10.126 10.126 0 014.366-10.367 10.12 10.12 0 0115.691 8.495z" fill="#000" opacity=".3"/><path d="M268.86 191.443v3.901h-.745l-1.941-2.365v2.365h-.92v-3.901h.745l1.941 2.364v-2.364h.92zm.755 0a.49.49 0 01.165-.363.502.502 0 01.378-.125.495.495 0 01.496.275.485.485 0 01.047.194.543.543 0 11-1.086 0v.019zm.111.92h.864v2.999h-.864v-2.999zm1.453 1.481a1.537 1.537 0 01.494-1.137 1.556 1.556 0 011.171-.409 1.374 1.374 0 011.343.764l-.672.368a.746.746 0 00-.671-.414.827.827 0 100 1.656.739.739 0 00.671-.405l.672.368a1.375 1.375 0 01-1.343.755 1.556 1.556 0 01-1.171-.409 1.532 1.532 0 01-.494-1.137zm4.821.322l-.414.414v.764h-.874v-4.131h.874v2.337l1.27-1.206h.984l-1.251 1.27 1.361 1.73h-1.03l-.92-1.178zm5.391-.543v1.721h-.874v-1.583c0-.487-.221-.708-.607-.708-.387 0-.718.257-.718.809v1.482h-.865v-3h.828v.35a1.294 1.294 0 01.994-.396 1.178 1.178 0 011.242 1.325zm3.431.009v1.712h-.809v-.378a.99.99 0 01-.92.424c-.7 0-1.114-.396-1.114-.92 0-.525.368-.92 1.288-.92h.69c0-.378-.23-.598-.69-.598a1.412 1.412 0 00-.864.285l-.313-.607c.382-.25.831-.379 1.288-.368.901.018 1.444.46 1.444 1.37zm-.865.764v-.276h-.598c-.404 0-.533.147-.533.35 0 .202.184.358.488.358a.628.628 0 00.643-.432zm6.763-.773v1.721h-.92v-1.583c0-.487-.221-.708-.571-.708-.349 0-.662.248-.662.782v1.509h-.874v-1.583c0-.487-.203-.708-.561-.708-.359 0-.663.248-.663.782v1.509h-.865v-3h.828v.35a1.219 1.219 0 01.92-.396 1.119 1.119 0 01.985.497 1.336 1.336 0 011.085-.497 1.162 1.162 0 011.298 1.325zm3.679.497h-2.272a.808.808 0 00.865.598 1.002 1.002 0 00.745-.285l.469.497a1.579 1.579 0 01-1.242.487 1.554 1.554 0 01-1.711-1.545 1.535 1.535 0 011.601-1.546 1.476 1.476 0 011.466.945c.075.194.108.402.098.61-.019.046-.019.138-.019.239zm-2.281-.506h1.481a.751.751 0 00-.741-.611.754.754 0 00-.74.611zm-47.03 20.35v4.702h-.368l-3.027-3.818v3.818h-.497v-4.702h.414l3.027 3.809v-3.809h.451zm4.498 3.082h-2.944a1.296 1.296 0 001.389 1.224 1.37 1.37 0 001.077-.46l.267.313a1.838 1.838 0 01-2.026.492 1.842 1.842 0 01-1.185-1.716 1.714 1.714 0 011.028-1.703 1.73 1.73 0 011.375 0 1.73 1.73 0 01.936 1.007c.078.223.11.46.092.696 0 0-.009.092-.009.147zm-2.944-.358h2.503a1.234 1.234 0 00-1.261-1.169 1.213 1.213 0 00-1.242 1.169zm9.044-1.555l-1.334 3.533h-.433l-1.113-2.898-1.113 2.898h-.451l-1.334-3.533h.46l1.104 2.999 1.141-2.999h.386l1.132 2.999 1.113-2.999h.442zm6.257.441c0 1.003-.727 1.601-1.923 1.601h-1.26v1.491h-.497v-4.702h1.757c1.196 0 1.923.608 1.923 1.61zm-.497 0c0-.754-.497-1.177-1.445-1.177h-1.241v2.346h1.241c.948 0 1.445-.433 1.445-1.169zm1.094 1.325a1.79 1.79 0 011.139-1.624 1.793 1.793 0 11.655 3.464 1.745 1.745 0 01-1.303-.524 1.735 1.735 0 01-.491-1.316zm3.101 0a1.32 1.32 0 00-.852-1.176 1.31 1.31 0 00-1.415.324 1.314 1.314 0 00.96 2.223 1.283 1.283 0 00.954-.399 1.291 1.291 0 00.353-.972zm.965 1.362l.221-.377c.365.261.803.4 1.251.395.672 0 .92-.23.92-.579 0-.92-2.29-.194-2.29-1.583 0-.579.496-1.012 1.398-1.012.439-.005.872.11 1.251.331l-.211.378c-.31-.2-.672-.303-1.04-.295-.635 0-.92.249-.92.58 0 .92 2.291.239 2.291 1.591 0 .608-.543 1.003-1.463 1.003a2.372 2.372 0 01-1.408-.432zm5.631.184c-.209.172-.475.26-.745.248a.915.915 0 01-1.012-1.021v-2.134h-.635v-.405h.635v-.773h.478v.773h1.067v.405h-1.085v2.106a.564.564 0 00.146.471.554.554 0 00.461.173.8.8 0 00.524-.184l.166.341zm.718-.101a.341.341 0 01.359-.341.355.355 0 01.133.023.355.355 0 01.19.185.354.354 0 01.026.133.337.337 0 01-.349.349.357.357 0 01-.253-.099.331.331 0 01-.078-.114.338.338 0 01-.028-.136zm.074-4.38h.57l-.101 3.285h-.368l-.101-3.285zm1.674 4.38a.358.358 0 01.587-.216.358.358 0 01.122.216.36.36 0 01-.709 0zm.074-4.38h.561l-.101 3.285h-.368l-.092-3.285z" fill="#263238"/><path d="M372.6 362.664c0 .129-31.685.239-70.757.239-39.073 0-70.767-.11-70.767-.239s31.676-.239 70.767-.239c39.09 0 70.757.11 70.757.239z" fill="#E0E0E0"/><path d="M256.192 376.492c.071.117.133.24.184.368.148.303.304.644.479 1.039v.055l-1.417-.598h.064a3.543 3.543 0 01-3.772.332 3.683 3.683 0 01-1.637-1.739 3.573 3.573 0 011.881-4.688 3.572 3.572 0 014.688 1.882c.334.81.35 1.717.046 2.539a2.638 2.638 0 01-.46.819c.155-.27.284-.553.386-.847a3.497 3.497 0 00-.101-2.465 3.408 3.408 0 00-3.366-2.064 3.407 3.407 0 00-2.96 4.575 3.4 3.4 0 003.261 2.225 3.402 3.402 0 001.961-.67.071.071 0 01.032-.007c.011 0 .022.002.032.007.506.239.975.451 1.399.635l-.065.064-.441-1.076a1.993 1.993 0 01-.194-.386z" fill="#263238"/><path d="M242.88 371.091a2.282 2.282 0 00-1.647.709 2.293 2.293 0 00-2.514-.538 2.302 2.302 0 00-1.442 2.129c0 2.052 3.956 4.527 3.956 4.527s3.947-2.475 3.947-4.527a2.293 2.293 0 00-1.418-2.127 2.3 2.3 0 00-.882-.173z" fill="#DC3001"/><path d="M366.546 378.635v-2.318c0-1.546 0-3.57-.046-5.943l.083.082h-6.44l.092-.092v8.262l-.129-.064 3.239-2.282a.055.055 0 01.073 0l3.193 2.346a.931.931 0 01-.212-.138l-.635-.432-2.419-1.675h.055l-3.22 2.319a.076.076 0 01-.025.018.077.077 0 01-.085-.018.068.068 0 01-.007-.028c0-.01.003-.019.007-.028v-8.261a.081.081 0 01.004-.038.078.078 0 01.019-.033.1.1 0 01.031-.023.099.099 0 01.038-.007h6.44a.083.083 0 01.062.027.09.09 0 01.017.03.069.069 0 01.003.035c0 2.401 0 4.452-.046 6.016v1.675c0 .469-.092.57-.092.57z" fill="#263238"/><path d="M216.742 197.533c0 .129-14.094.239-31.464.239-17.369 0-31.464-.11-31.464-.239s14.086-.248 31.464-.248c17.379 0 31.464.11 31.464.248zm0 8.657c0 .129-14.094.24-31.464.24-17.369 0-31.464-.111-31.464-.24 0-.128 14.086-.239 31.464-.239 17.379 0 31.464.129 31.464.239zm0 8.658c0 .128-14.094.239-31.464.239-17.369 0-31.464-.111-31.464-.239 0-.129 14.086-.24 31.464-.24 17.379 0 31.464.111 31.464.24zm0 8.657c0 .138-14.094.239-31.464.239-17.369 0-31.464-.101-31.464-.239 0-.138 14.086-.239 31.464-.239 17.379 0 31.464.11 31.464.239zm-30.047 8.666c-.429.069-.863.1-1.297.092l-3.524.074c-2.971.046-7.084.073-11.619.073-4.536 0-8.657 0-11.629-.073l-3.524-.074a7.218 7.218 0 01-1.288-.092 5.864 5.864 0 011.288-.101l3.524-.074c2.972 0 7.084-.073 11.629-.073s8.648 0 11.619.073l3.524.074c.435-.015.87.019 1.297.101zm30.047 125.626c0 .138-14.094.239-31.464.239-17.369 0-31.464-.101-31.464-.239 0-.138 14.086-.239 31.464-.239 17.379 0 31.464.11 31.464.239zm0 8.667c0 .128-14.094.239-31.464.239-17.369 0-31.464-.111-31.464-.239 0-.129 14.086-.249 31.464-.249 17.379 0 31.464.111 31.464.249z" fill="#E0E0E0"/><path d="M322.11 148.792l.349-.092 1.022-.212a25.8 25.8 0 001.665-.377c.653-.166 1.398-.35 2.235-.617a45.333 45.333 0 0013.202-6.44 44.004 44.004 0 0014.104-16.44 46.263 46.263 0 004.49-26.027l.266.203h-.193a41.315 41.315 0 00-30.893 20.71 51.558 51.558 0 00-4.159 9.3 46.167 46.167 0 00-2.447 14.545c-.016.777.009 1.554.074 2.328.016.569.066 1.138.147 1.702 0 .441.083.782.119 1.039.011.12.011.24 0 .359a2.962 2.962 0 01-.073-.349c0-.258-.092-.598-.166-1.04a15.687 15.687 0 01-.193-1.702 24.289 24.289 0 01-.12-2.328 45.569 45.569 0 012.3-14.646 51.105 51.105 0 014.14-9.412 41.193 41.193 0 017.158-9.384 41.946 41.946 0 0124.021-11.61h.433v.24a46.455 46.455 0 01-4.6 26.284 44.144 44.144 0 01-6.615 9.742 45.896 45.896 0 01-7.682 6.79 44.358 44.358 0 01-13.359 6.366c-1.71.497-3.457.854-5.225 1.068z" fill="#FAFAFA"/><path d="M348.873 113.16s-.064.138-.239.386l-.782 1.04-2.925 3.763a1597.895 1597.895 0 01-9.798 12.319c-3.846 4.793-7.278 9.2-9.587 12.456a124.03 124.03 0 00-2.695 3.929c-.301.504-.636.986-1.003 1.444.049-.146.117-.285.202-.414.138-.257.35-.644.644-1.131a81.402 81.402 0 012.567-4.021c2.254-3.349 5.64-7.783 9.494-12.567 3.855-4.784 7.36-9.117 9.909-12.227l3.045-3.68.856-.984c.091-.117.196-.222.312-.313zm-39.165 23.083a1.359 1.359 0 010-.221c0-.166.056-.368.102-.616.101-.552.22-1.362.322-2.411a28.513 28.513 0 00-.571-8.859 26.746 26.746 0 00-5.805-11.694 27.286 27.286 0 00-13.404-8.546l.294-.166v.11a25.77 25.77 0 00.837 15.88 29.087 29.087 0 0015.125 15.446c.488.212.92.368 1.316.497.319.124.644.232.975.322l.607.184c.138 0 .212.065.202.074a15.092 15.092 0 01-3.164-.92 26.45 26.45 0 01-7.655-4.701 27.73 27.73 0 01-7.82-10.746 26.021 26.021 0 01-.92-16.174v-.11l.055-.23.24.064a27.446 27.446 0 0113.606 8.722 26.852 26.852 0 015.806 11.905c.634 2.94.777 5.965.423 8.951a20.31 20.31 0 01-.414 2.411c-.055.248-.111.451-.147.616a.56.56 0 01-.01.212z" fill="#FAFAFA"/><path d="M296.139 112.976c.235.28.433.589.588.92.387.681.865 1.518 1.436 2.502a696.066 696.066 0 014.6 8.336c1.775 3.266 3.394 6.21 4.673 8.28.635 1.039 1.169 1.84 1.527 2.438.218.283.4.592.543.92a4.289 4.289 0 01-.69-.801 46.246 46.246 0 01-1.665-2.364c-1.362-2.033-3.045-4.959-4.812-8.28-1.766-3.321-3.339-6.238-4.462-8.409-.515-1.012-.92-1.84-1.306-2.567a4.62 4.62 0 01-.432-.975zm23.175 1.187s.478-.442 1.279-1.307a15.645 15.645 0 002.76-4.112 15.051 15.051 0 001.38-7.121 15.493 15.493 0 00-2.954-8.28l.332.055a14.176 14.176 0 00-5.024 7.25 15.657 15.657 0 00-.276 7.268c.294 1.636.84 3.215 1.62 4.683.57 1.03.993 1.536.92 1.564a1.932 1.932 0 01-.332-.35 8.215 8.215 0 01-.782-1.122 14.741 14.741 0 01-1.794-4.711 15.655 15.655 0 01.184-7.461 14.533 14.533 0 015.152-7.507h.056l.193-.147.138.193a15.695 15.695 0 013.017 8.584 15.193 15.193 0 01-4.416 11.38c-.321.328-.662.635-1.021.92-.285.138-.423.239-.432.221z" fill="#FAFAFA"/><path d="M321.273 99.231a9.973 9.973 0 01-.193 2.208 155.366 155.366 0 01-.792 5.253c-.34 2.043-.625 3.901-.791 5.254a14.084 14.084 0 01-.313 2.18 8.396 8.396 0 010-2.217c.083-1.362.322-3.239.663-5.29.34-2.052.671-3.901.92-5.235.092-.733.262-1.455.506-2.153zm21.427 50.471s.524.387 1.518 1.003a15.736 15.736 0 004.526 1.886c2.367.578 4.84.553 7.195-.073a15.075 15.075 0 007.442-4.6v.34h-.046a13.932 13.932 0 00-8.013-3.505 15.215 15.215 0 00-7.121 1.196 15.778 15.778 0 00-4.204 2.557c-.92.764-1.279 1.288-1.316 1.252-.036-.037.083-.138.267-.387.282-.356.59-.691.92-1.003a14.918 14.918 0 014.195-2.76 15.318 15.318 0 017.296-1.324 14.225 14.225 0 018.28 3.597h.046l.184.156-.166.184a15.325 15.325 0 01-7.691 4.72 14.88 14.88 0 01-11.932-2.061 9.594 9.594 0 01-1.077-.828c-.202-.221-.312-.331-.303-.35z" fill="#FAFAFA"/><path d="M357.558 148.635c-.713.162-1.441.249-2.171.258-1.344.092-3.202.193-5.263.276-2.061.083-3.901.156-5.235.267-.721.108-1.451.155-2.18.138a7.799 7.799 0 012.144-.47 49.633 49.633 0 015.253-.414c2.061-.082 3.919-.128 5.262-.138a10.22 10.22 0 012.19.083zm-36.644-70.509a12.316 12.316 0 00-2.19-.266 11.711 11.711 0 00-5.989 1.84 21.5 21.5 0 00-3.68 2.76c-1.223 1.15-2.447 2.511-3.772 3.956a37.662 37.662 0 01-4.554 4.37 15.902 15.902 0 01-6.329 3.054 21.818 21.818 0 01-7.784.12 48.664 48.664 0 01-8.178-2.07c-2.76-.92-5.566-2.024-8.529-2.89a35.024 35.024 0 00-9.329-1.628 16.052 16.052 0 00-9.42 2.595c-2.843 1.84-4.95 4.729-6.882 7.673-1.932 2.944-3.68 6.173-5.833 9.2-.515.763-1.141 1.453-1.729 2.18-.304.359-.654.672-.976 1.012a9.36 9.36 0 01-1.039.92l-1.104.92c-.396.267-.819.497-1.224.745l-.607.368-.672.276-1.334.534c-3.68 1.168-7.663.497-11.095-.819a50.175 50.175 0 01-9.476-5.336 50.894 50.894 0 00-9.062-5.143 36.445 36.445 0 00-9.632-2.475 43.722 43.722 0 00-18.262 1.84 48.585 48.585 0 00-7.737 3.193 56.118 56.118 0 00-6.578 4.057 64.4 64.4 0 00-9.918 8.86 78.27 78.27 0 00-6.33 7.82 92.065 92.065 0 00-3.532 5.29c-.378.607-.663 1.076-.92 1.407-.258.331-.304.479-.304.479s.083-.175.267-.497l.828-1.435c.745-1.252 1.84-3.092 3.459-5.355a78.881 78.881 0 016.284-7.893 64.264 64.264 0 019.917-8.952 58.812 58.812 0 016.606-4.112c2.5-1.3 5.107-2.384 7.792-3.239a44.007 44.007 0 0118.4-1.895 37.254 37.254 0 019.761 2.493 51.257 51.257 0 019.145 5.171 49.55 49.55 0 009.403 5.29c3.367 1.297 7.212 1.941 10.782.809a17.317 17.317 0 008.446-6.78c2.152-2.953 3.864-6.155 5.814-9.145 1.95-2.99 4.094-5.879 7.029-7.792a16.402 16.402 0 019.641-2.705c3.208.122 6.384.683 9.44 1.665 2.98.92 5.786 1.996 8.537 2.916a48.43 48.43 0 008.105 2.08c2.539.43 5.135.401 7.664-.083a15.633 15.633 0 006.274-2.926 37.885 37.885 0 004.545-4.315c1.334-1.435 2.567-2.76 3.809-3.937a21.83 21.83 0 013.68-2.76 11.547 11.547 0 016.081-1.757c.308 0 .616.024.92.073.233.026.464.069.69.129.497.046.681.11.681.11z" fill="#FAFAFA"/><path d="M223.772 95.413s.064 0 .202-.073c.2-.043.403-.064.607-.065.763.024 1.501.27 2.125.709a4.054 4.054 0 011.785 2.76 3.323 3.323 0 01-.377 1.987 4.019 4.019 0 01-1.546 1.518 3.29 3.29 0 01-3.965-.322 3.527 3.527 0 01-.819-3.211 3.128 3.128 0 011.196-1.895c.17-.114.356-.2.552-.258.138 0 .203-.055.212 0 .009.055-.267.129-.653.451a2.99 2.99 0 00-.975 1.84 3.258 3.258 0 00.791 2.834 2.9 2.9 0 003.431.22 3.67 3.67 0 001.362-1.334 2.842 2.842 0 00.35-1.71 3.784 3.784 0 00-1.537-2.568 4 4 0 00-1.941-.79c-.506-.102-.791-.047-.8-.093z" fill="#FAFAFA"/><path d="M219.19 246.505h-65.642v63.507h65.642v-63.507z" fill="#F5F5F5"/><path d="M158.636 304.575l18.161-32.678 14.848 20.884 9.026-11.095 13.432 22.889h-55.467zm39.338-39.035a4.727 4.727 0 01-5.651 4.638 4.728 4.728 0 115.651-4.638z" fill="#E0E0E0"/><path d="M214.093 304.75v-3.855c0-2.521-.046-6.164-.074-10.791 0-9.274-.083-22.485-.138-38.346l.267.276H158.7c-.083.074.579-.589.303-.304v52.983l-.276-.276 40.103.138 11.307.074h4.048-3.938l-11.242.073-40.278.138h-.276v-53.258l.322-.322 55.449.046h.276v.266c-.065 15.935-.111 29.201-.138 38.521 0 4.6-.056 8.215-.074 10.727v3.514a.618.618 0 01-.193.396z" fill="#E0E0E0"/><path d="M184.681 314.769h-30.673v29.679h30.673v-29.679z" fill="#F5F5F5"/><path d="M156.382 341.9l8.482-15.272 6.946 9.761 4.214-5.18 6.274 10.691h-25.916zm18.418-18.244a2.202 2.202 0 01-1.357 2.046 2.204 2.204 0 01-2.409-.472 2.209 2.209 0 113.766-1.574z" fill="#E0E0E0"/><path d="M182.297 341.982v-6.844c0-4.334 0-10.507-.064-17.913l.12.12-25.954.055s.276-.276.148-.147v24.739l-.129-.12 18.74.064h7.066-6.983l-18.823.065h-.129v-24.868l.147-.147h26.045v.129c0 7.443 0 13.643-.064 17.995v6.661c0 .092-.11.221-.12.211z" fill="#E0E0E0"/><path d="M218.73 315.072h-30.36v29.376h30.36v-29.376z" fill="#F5F5F5"/><path d="M190.725 341.927l8.399-15.115 6.873 9.66 4.167-5.125 6.21 10.58h-25.649zm18.197-18.087a2.19 2.19 0 11-4.38 0 2.19 2.19 0 014.38 0z" fill="#E0E0E0"/><path d="M216.374 342.01a.801.801 0 000-.12v-6.651c0-4.287 0-10.396-.064-17.738l.12.129h-25.65s.276-.276.147-.138v24.5l-.129-.129 18.548.064h6.614-6.532l-18.63.065h-.128v-24.629c-.129.12.174-.184.147-.156h25.778v.119c0 7.36-.055 13.506-.064 17.821v6.587a.458.458 0 01-.157.276z" fill="#E0E0E0"/><path d="M238.28 139.914v8.206h-1.555l-4.094-4.977v4.977h-1.84v-8.197h1.573l4.076 4.977v-4.977l1.84-.009zm1.545 0a1.05 1.05 0 011.141-1.022 1.027 1.027 0 011.034.578c.06.128.093.266.098.407a1.141 1.141 0 01-2.273 0v.037zm.221 1.895h1.84v6.311h-1.84v-6.311zm3.063 3.155a3.264 3.264 0 011.047-2.393 3.258 3.258 0 012.468-.854 2.881 2.881 0 012.824 1.601l-1.417.763a1.572 1.572 0 00-1.416-.865 1.75 1.75 0 00-1.236 2.984c.327.328.772.512 1.236.512a1.565 1.565 0 001.416-.874l1.417.773a2.914 2.914 0 01-2.824 1.601 3.254 3.254 0 01-3.515-3.248zm10.056.681l-.874.865v1.61h-1.84v-8.694h1.84v4.922l2.668-2.53h2.181l-2.622 2.668 2.861 3.68h-2.217l-1.997-2.521zm11.436-1.141v3.616h-1.84v-3.321c0-1.021-.469-1.491-1.278-1.491-.81 0-1.509.534-1.509 1.693v3.119h-1.84v-6.302h1.748v.736a2.75 2.75 0 012.079-.828 2.478 2.478 0 012.537 1.696c.114.349.149.718.103 1.082zm7.231.01v3.606h-1.711v-.782a2.095 2.095 0 01-1.923.92c-1.481 0-2.355-.828-2.355-1.914 0-1.085.782-1.886 2.705-1.886h1.453c0-.791-.469-1.242-1.453-1.242a3.072 3.072 0 00-1.84.58l-.654-1.27a4.815 4.815 0 012.76-.763c1.905-.083 3.018.837 3.018 2.751zm-1.84 1.61v-.644h-1.251c-.856 0-1.132.312-1.132.736 0 .423.387.763 1.031.763a1.35 1.35 0 001.361-.855h-.009zm14.15-1.62v3.616h-1.84v-3.321c0-1.021-.46-1.491-1.196-1.491s-1.399.525-1.399 1.647v3.165h-1.84v-3.321c0-1.021-.432-1.491-1.196-1.491-.763 0-1.38.525-1.38 1.647v3.165h-1.84v-6.302h1.748v.727a2.54 2.54 0 01.904-.628 2.545 2.545 0 011.083-.191 2.349 2.349 0 012.07 1.03c.27-.34.615-.614 1.007-.801.392-.186.822-.28 1.257-.275 1.536 0 2.622.92 2.622 2.824zm7.847.976h-4.766a1.673 1.673 0 001.84 1.26 2.129 2.129 0 001.583-.607l.975 1.058a3.332 3.332 0 01-2.604 1.021c-2.18 0-3.597-1.371-3.597-3.248a3.225 3.225 0 01.979-2.348 3.203 3.203 0 012.379-.899 3.128 3.128 0 012.369.902 3.118 3.118 0 01.916 2.364 4.922 4.922 0 01-.074.497zm-4.793-1.04h3.109a1.57 1.57 0 00-1.554-1.333 1.574 1.574 0 00-1.555 1.333z" fill="#fff"/><path d="M260.758 194.529c1.389-5.916-2.282-11.838-8.198-13.227-5.916-1.388-11.838 2.282-13.226 8.198-1.389 5.916 2.281 11.838 8.197 13.226 5.916 1.389 11.838-2.281 13.227-8.197z" fill="#EBEBEB"/><path d="M249.716 202.621a3.23 3.23 0 01-3.524-2.889l-.966-9.734a4.689 4.689 0 011.074-3.492 4.708 4.708 0 013.25-1.669h.074a4.903 4.903 0 014.968 4.435c.22 2.235.423 4.664.432 5.86a3.046 3.046 0 01-2.521 2.972s0 .423.092 1.002a3.22 3.22 0 01-2.879 3.515z" fill="#FFBE9D"/><path d="M252.503 198.104a6.148 6.148 0 01-3.321-.92 3.193 3.193 0 003.376 1.536l-.055-.616z" fill="#EB996E"/><path d="M253.589 190.974a.367.367 0 01-.596.294.353.353 0 01-.122-.239.367.367 0 01.477-.362.359.359 0 01.204.175.357.357 0 01.037.132zm.46-.617c0 .046-.322-.156-.709-.147-.386.009-.671.212-.717.156-.046-.055 0-.101.147-.193.167-.119.365-.186.57-.193a.922.922 0 01.571.175c.119.092.165.175.138.202zm-4.178.791a.34.34 0 01-.023.138.37.37 0 01-.19.2.354.354 0 01-.136.03.34.34 0 01-.377-.312.367.367 0 01.599-.296.361.361 0 01.127.24zm.369-.662c-.046.055-.322-.147-.708-.138-.387.009-.681.202-.718.156-.037-.046 0-.101.147-.202.168-.117.366-.181.571-.184a.97.97 0 01.57.175c.138.092.138.147.138.193zm1.444 2.87c.207-.062.42-.103.635-.119.092 0 .193 0 .202-.111.01-.11 0-.174-.064-.285l-.313-.754a12.942 12.942 0 01-.69-1.978c.331.615.614 1.255.846 1.913l.295.755c.068.12.091.26.064.395a.255.255 0 01-.165.148h-.166c-.212.038-.429.05-.644.036zm-1.14.286c.064 0 .064.423.432.717.368.295.819.239.828.295.009.055-.101.092-.294.101a1.033 1.033 0 01-.681-.23.914.914 0 01-.34-.598c-.019-.175.027-.285.055-.285zm-.249-4.683c0 .11-.423.064-.92.129-.497.064-.819.193-.92.101-.101-.092 0-.147.184-.258.196-.13.42-.212.653-.239.233-.032.47-.007.69.074.258.064.332.147.313.193zm3.625.267c-.073.092-.34 0-.662 0s-.598.064-.663 0c-.064-.065 0-.129.138-.221a.923.923 0 011.058.018c.129.074.129.157.129.203zm-5.98-2.052a2.024 2.024 0 00-.718 1.306v.046c-.083.727-.055 1.463-.147 2.19-.092.727 0 1.26-.708 1.49a.922.922 0 01-1.022-.303.592.592 0 01-.101-.331c-.165-1.739-.579-2.383-.607-4.214a1.536 1.536 0 01.616-1.26c.378-.286.847-.571 1.27-.378.423.194.994.976 1.325 1.307" fill="#263238"/><path d="M246.1 191.13s-1.748-.478-1.666 1.251a1.307 1.307 0 001.84 1.242c-.027-.046-.174-2.493-.174-2.493z" fill="#FFBE9D"/><path d="M245.64 192.988l-.074.056a.315.315 0 01-.23 0 .759.759 0 01-.377-.654 1.077 1.077 0 01.065-.432.372.372 0 01.22-.248.146.146 0 01.175.082v-.018a.198.198 0 00-.073-.11.237.237 0 00-.166 0 .434.434 0 00-.304.285 1.043 1.043 0 00-.082.487.765.765 0 00.478.727.322.322 0 00.276-.055c.092-.074.138-.11.092-.12z" fill="#EB996E"/><path d="M246.44 185.996c-.433-.69.717-1.702 1.573-1.987a5.058 5.058 0 012.843.387 4.89 4.89 0 001.637.377 3.687 3.687 0 001.095-.304c.352-.152.73-.233 1.113-.239a1.066 1.066 0 01.92.57.648.648 0 01.007.561.649.649 0 01-.43.359.855.855 0 011.279.605.866.866 0 01-.259.756.853.853 0 01-.771.213c.248-.194.625.11.607.423a.929.929 0 01-.589.662 3.214 3.214 0 01-2.309 0c-.755-.239-1.454-.616-2.199-.874-.745-.257-2.006-.727-2.76-.451-.543.203-.92.865-1.233.727a1.071 1.071 0 01-.561-.773 3.246 3.246 0 010-.984" fill="#263238"/><path d="M255.401 185.638s-.083.128-.267.34a2.398 2.398 0 01-.92.635c-.534.2-1.125.184-1.647-.046a7.59 7.59 0 01-1.702-1.261 3.547 3.547 0 00-1.96-.92 1.998 1.998 0 00-1.656.598 1.563 1.563 0 00-.377 1.132c.014.107.042.213.083.313l.055.101a3.788 3.788 0 01-.064-.423 1.477 1.477 0 01.395-1.04 1.918 1.918 0 011.546-.524 3.493 3.493 0 011.84.874c.52.506 1.108.937 1.748 1.279a2.284 2.284 0 001.757 0c.378-.15.71-.394.966-.709.064-.085.122-.174.175-.267.018-.046.037-.082.028-.082zm-9.761 5.428s.073-.046.138-.184c.082-.201.108-.421.073-.635-.046-.561-.552-1.15-.625-1.923a1.75 1.75 0 01.175-1.04c.146-.25.368-.447.634-.561.182-.082.382-.114.58-.092.138 0 .212.055.221 0 .009-.055-.065-.055-.212-.101a1.046 1.046 0 00-.635.046 1.368 1.368 0 00-.726.598 1.839 1.839 0 00-.203 1.132c.047.383.165.755.35 1.094.149.258.258.537.322.828.058.282.026.575-.092.838zm-1.84 9.991l2.401-1.629a7.723 7.723 0 006.44-.322l4.039 1.73a11.045 11.045 0 01-12.88.221z" fill="#455A64"/><path d="M187.873 173.954c17.149 0 31.05-13.902 31.05-31.05 0-17.149-13.901-31.05-31.05-31.05-17.148 0-31.05 13.901-31.05 31.05 0 17.148 13.902 31.05 31.05 31.05z" fill="#EBEBEB"/><path d="M186.916 172.776a9.072 9.072 0 01-9.927-8.096l-2.76-27.462a13.244 13.244 0 013.02-9.859 13.26 13.26 0 019.17-4.714h.203a13.864 13.864 0 0114.039 12.521c.607 6.312 1.187 13.156 1.196 16.56 0 7.158-7.112 8.391-7.112 8.391s.12 1.187.276 2.815a9.08 9.08 0 01-8.132 9.908l.027-.064z" fill="#FFBE9D"/><path d="M194.773 160.08a17.266 17.266 0 01-9.366-2.604s2.411 5.097 9.541 4.334l-.175-1.73z" fill="#EB996E"/><path d="M197.855 139.932a1.023 1.023 0 01-.966 1.049 1 1 0 01-.728-.235.991.991 0 01-.339-.685 1.022 1.022 0 01.966-1.049.961.961 0 01.73.232.98.98 0 01.337.688zm1.307-1.757c-.129.138-.92-.423-2.015-.405-1.095.018-1.895.58-2.015.451-.119-.129.065-.304.414-.561a2.838 2.838 0 011.61-.525 2.627 2.627 0 011.601.488c.34.248.46.487.405.552zm-11.813 2.245a1.022 1.022 0 01-.92 1.048.97.97 0 01-.966-.543.97.97 0 01-.101-.377 1.024 1.024 0 01.92-1.048.971.971 0 01.733.229.96.96 0 01.334.691zm1.002-1.859c-.129.129-.92-.432-2.015-.405-1.094.028-1.895.58-2.014.451-.12-.129.064-.303.414-.561a2.765 2.765 0 011.61-.534 2.683 2.683 0 011.6.488c.341.258.46.497.405.561zm4.123 8.087a7.095 7.095 0 011.784-.35c.276 0 .543-.092.589-.285a1.45 1.45 0 00-.202-.828c-.276-.681-.561-1.389-.865-2.125-.8-1.8-1.455-3.662-1.96-5.566a37.32 37.32 0 012.402 5.391c.294.745.57 1.463.828 2.144.183.333.242.722.165 1.095a.73.73 0 01-.451.423 2.033 2.033 0 01-.478.073 7.184 7.184 0 01-1.812.028zm-3.221.819c.175 0 .193 1.177 1.233 2.005 1.039.828 2.309.681 2.318.847.009.165-.285.239-.819.257a2.981 2.981 0 01-1.932-.634 2.551 2.551 0 01-.92-1.684c-.092-.506.037-.8.12-.791zm-.653-13.23c-.11.304-1.205.184-2.493.359-1.288.175-2.328.543-2.503.276-.082-.12.102-.405.516-.708a4.325 4.325 0 013.799-.479c.442.184.681.414.681.552zm10.12.764c-.193.248-.92 0-1.84 0s-1.675.202-1.84-.055c-.166-.258 0-.378.368-.626a2.715 2.715 0 013.008.046c.304.248.368.506.304.635zm-16.818-5.796a5.6 5.6 0 00-2.033 3.68v.138c-.249 2.051-.166 4.121-.433 6.173-.266 2.052 0 3.56-1.978 4.204a2.68 2.68 0 01-2.907-.855 1.771 1.771 0 01-.267-.92c-.46-4.922-1.637-6.735-1.72-11.896a4.357 4.357 0 011.748-3.56c1.067-.791 2.374-1.619 3.579-1.067s2.76 2.76 3.744 3.68" fill="#263238"/><path d="M176.723 140.383c-.12-.055-4.941-1.38-4.702 3.514.24 4.895 5.097 3.68 5.097 3.505 0-.174-.395-7.019-.395-7.019z" fill="#FFBE9D"/><path d="M175.535 145.618s-.082.064-.22.138a.84.84 0 01-.635 0 2.098 2.098 0 01-1.067-1.84 2.83 2.83 0 01.174-1.233.983.983 0 01.608-.681.43.43 0 01.515.212c.073.128 0 .23.073.239.074.009.102-.092.056-.285a.58.58 0 00-.212-.304.677.677 0 00-.478-.101 1.191 1.191 0 00-.847.8 2.761 2.761 0 00-.23 1.38 2.204 2.204 0 001.343 2.052.923.923 0 00.773-.166c.147-.092.166-.202.147-.211z" fill="#EB996E"/><path d="M177.688 125.874c-1.242-1.932 2.015-4.802 4.416-5.602 2.402-.801 5.603.322 8.023 1.085 1.527.479 3.045 1.15 4.646 1.058a11.171 11.171 0 003.091-.837 7.83 7.83 0 013.119-.672 2.963 2.963 0 012.603 1.592 1.847 1.847 0 01-.5 2.156c-.203.171-.44.295-.696.365a2.4 2.4 0 11.709 4.443c.69-.542 1.775.313 1.702 1.178a2.562 2.562 0 01-1.647 1.886 9.2 9.2 0 01-6.532 0c-2.125-.681-4.103-1.757-6.21-2.484-2.107-.727-5.64-2.042-7.728-1.27-1.536.571-2.585 2.457-3.468 2.061a3.002 3.002 0 01-1.583-2.18 8.636 8.636 0 01.055-2.76" fill="#263238"/><path d="M202.98 124.872s-.248.368-.764.92a6.731 6.731 0 01-2.695 1.84 6.186 6.186 0 01-4.665-.111c-1.683-.717-3.128-2.189-4.793-3.569a10.116 10.116 0 00-5.52-2.549 5.621 5.621 0 00-4.646 1.693 4.231 4.231 0 00-1.058 3.183c.03.316.104.625.221.92.092.184.147.285.166.276a8.224 8.224 0 01-.203-1.187 4.238 4.238 0 011.123-2.944 5.383 5.383 0 014.37-1.481 9.898 9.898 0 015.271 2.484c1.629 1.343 3.128 2.852 4.922 3.597a6.44 6.44 0 004.968 0 6.534 6.534 0 002.705-1.996c.195-.237.362-.497.497-.773a.882.882 0 00.101-.303zm-27.508 15.318s.211-.138.395-.534c.23-.562.304-1.175.212-1.776-.138-1.582-1.555-3.247-1.767-5.418a4.887 4.887 0 01.488-2.935 3.681 3.681 0 011.794-1.601 3.117 3.117 0 011.628-.248c.396.055.608.147.626.101.018-.046-.175-.166-.589-.285a3 3 0 00-1.785.11 3.938 3.938 0 00-2.06 1.702 5.247 5.247 0 00-.589 3.202 9.012 9.012 0 00.993 3.072c.412.737.722 1.526.92 2.346.153.764.06 1.556-.266 2.264zm-5.346 28.17l6.771-4.6c6.44 2.199 12.549 2.162 18.152-.92l11.445 4.885a28.81 28.81 0 01-18.621 6.201c-11.528-.156-17.747-5.566-17.747-5.566z" fill="#455A64"/><path d="M218.96 142.904s0-.175-.046-.506c-.046-.332-.064-.838-.101-1.472 0-.322-.046-.69-.065-1.086-.018-.396-.128-.828-.202-1.297a22.088 22.088 0 00-.644-3.202 29.633 29.633 0 00-3.45-8.225 30.991 30.991 0 00-20.847-14.517 27.19 27.19 0 00-3.91-.451c-.663 0-1.334-.092-2.006-.083l-2.042.111c-.341 0-.69 0-1.031.064l-1.03.156c-.681.12-1.38.194-2.07.341-1.396.31-2.77.712-4.112 1.205a33.118 33.118 0 00-4.021 1.766c-.653.359-1.279.764-1.923 1.15a16.78 16.78 0 00-1.84 1.279 36.675 36.675 0 00-3.496 2.972 34.239 34.239 0 00-3.017 3.579 29.556 29.556 0 00-4.407 8.491 30.505 30.505 0 000 19.449c1 3.05 2.488 5.918 4.407 8.492a35.05 35.05 0 003.017 3.569 34.255 34.255 0 003.496 2.972c.584.47 1.199.9 1.84 1.288.644.377 1.27.791 1.923 1.141a33.036 33.036 0 004.021 1.775c1.345.485 2.718.887 4.112 1.205.69.138 1.389.221 2.07.332l1.03.165c.341.046.69 0 1.031.065l2.042.101c.672 0 1.343-.046 2.015-.074a28.574 28.574 0 003.901-.451 30.997 30.997 0 0020.847-14.517 29.555 29.555 0 003.45-8.28c.293-1.05.509-2.12.644-3.202.074-.46.156-.92.202-1.288l.065-1.085c0-.635.073-1.123.101-1.482.028-.358.046-.496.046-.496v.506c0 .34 0 .837-.055 1.472v1.094c0 .405-.12.828-.184 1.307a20.982 20.982 0 01-.607 3.22 29.436 29.436 0 01-3.395 8.28 30.786 30.786 0 01-24.96 15.244c-.671 0-1.352.092-2.033.083l-2.07-.101c-.35 0-.699 0-1.049-.065l-1.039-.165c-.7-.111-1.408-.193-2.107-.331a34.738 34.738 0 01-4.168-1.215 32.103 32.103 0 01-4.085-1.794c-.662-.349-1.297-.773-1.95-1.159a15.292 15.292 0 01-1.895-1.297 28.298 28.298 0 01-6.615-6.633 30.26 30.26 0 01-4.48-8.621 30.927 30.927 0 010-19.752 30.065 30.065 0 014.48-8.611 28.363 28.363 0 016.532-6.56 16.608 16.608 0 011.84-1.297c.653-.387 1.288-.801 1.95-1.159a34.295 34.295 0 018.28-3c.7-.147 1.408-.22 2.107-.34l1.04-.156c.349-.046.699 0 1.049-.065l2.07-.101c.68 0 1.361.055 2.033.083 1.325.066 2.643.223 3.947.469a31.179 31.179 0 0121.049 14.766 29.295 29.295 0 013.395 8.28c.286 1.059.489 2.139.607 3.229.065.469.147.92.184 1.307.037.386 0 .763 0 1.085 0 .635 0 1.132.055 1.481.056.35.074.562.074.562z" fill="#263238"/><path d="M59.423 391.147l-11.96 17.903-5.29 16.91a2.216 2.216 0 01-2.907 1.389 2.185 2.185 0 01-1.334-1.518c-1.132-4.471-5.023-20.709-4.076-21.951 1.095-1.463 11.316-19.716 11.316-19.716l14.251 6.983z" fill="#DC3001"/><path d="M39.266 427.322l-4.6-24.684-.488.773a3.339 3.339 0 00-.478 2.235c.294 2.089 1.233 7.83 4.214 20.121a2.215 2.215 0 001.389 1.555h-.037zm2.806-28.189a1.324 1.324 0 01-.626 1.665 1.277 1.277 0 01-1.655-.598 1.418 1.418 0 01.671-1.766 1.33 1.33 0 011.656.818" fill="#fff" opacity=".6"/><path d="M40.131 416.76a6.6 6.6 0 012.493-.405c.833.158 1.628.47 2.346.92 0 0-.1-.322-.487-.644a3.373 3.373 0 00-1.84-.745 3.426 3.426 0 00-1.923.34c-.423.23-.626.479-.589.534zm-.239 3.238c.702.044 1.403.124 2.097.24 1.123.303 1.84.993 1.923.92.083-.074-.515-.994-1.794-1.344a2.45 2.45 0 00-2.226.184zm-.194-7.893a21.086 21.086 0 013.275.147 22.99 22.99 0 013.092 1.076 4.894 4.894 0 00-3.009-1.536 4.858 4.858 0 00-3.358.313zm3.165-5.75c0 .147 1.252.359 2.586 1.141 1.334.782 2.18 1.748 2.29 1.656a4.346 4.346 0 00-2.051-2.07 4.325 4.325 0 00-2.825-.727zm3.367-5.345c.966.245 1.895.619 2.76 1.113.77.614 1.452 1.333 2.024 2.134.056 0 0-.377-.266-.92a4.788 4.788 0 00-3.56-2.429c-.608-.027-.958.046-.958.102zm3.33.11c.2-.189.357-.418.46-.672.338-.68.535-1.422.58-2.18a2.529 2.529 0 00-.266-1.582.918.918 0 00-.92-.368 1.423 1.423 0 00-.8.634 3.112 3.112 0 00.763 3.901 3.678 3.678 0 003.983.267 1.293 1.293 0 00.608-.856.921.921 0 00-.525-.874 3.167 3.167 0 00-1.591-.138 6.532 6.532 0 00-2.135.626c-.469.239-.69.432-.671.46a9.501 9.501 0 012.833-.745 2.844 2.844 0 011.39.147.464.464 0 01.285.478.92.92 0 01-.433.534 3.22 3.22 0 01-3.468-.304 2.675 2.675 0 01-.7-3.293c.118-.218.311-.385.543-.469a.466.466 0 01.524.193c.22.408.31.873.258 1.334a8.436 8.436 0 01-.717 2.907z" fill="#263238"/><path d="M70.74 401.387l1.36 17.977s-17.82 6.108-17.911 9.457l34.96-.083-.92-28.087-17.49.736z" fill="#DC3001"/><path d="M82.846 417.422a1.422 1.422 0 011.049 1.583 1.37 1.37 0 01-1.564 1.058 1.51 1.51 0 01-1.104-1.684 1.43 1.43 0 011.748-.92m6.183 11.261l-.092-2.834-33.774 1.279a2.424 2.424 0 00-1.278 1.905l35.144-.35z" fill="#fff" opacity=".6"/><path d="M71.53 419.207c0 .175.866.212 1.73.727.865.515 1.334 1.214 1.49 1.141.157-.074-.137-1.049-1.195-1.656s-2.07-.368-2.024-.212zm-3.606 1.665c0 .166.717.424 1.325 1.123.607.699.81 1.453.975 1.444.165-.009.239-.984-.534-1.84-.773-.855-1.766-.892-1.766-.727zm-1.904 4.462c.156 0 .358-.828-.12-1.748-.479-.92-1.288-1.251-1.353-1.113-.064.138.451.626.829 1.389.377.764.469 1.463.643 1.472zm5.648-10.258c.083.157.856-.11 1.84-.082.985.027 1.73.294 1.84.147.11-.147-.662-.727-1.84-.745-1.177-.019-1.922.524-1.84.68z" fill="#263238"/><path d="M71.016 404.947l.239 3.202 17.167-.837-.092-2.889-17.314.524z" fill="#000" opacity=".3"/><path d="M71.466 411.442a3.17 3.17 0 001.748-.073 8.097 8.097 0 001.84-.635c.337-.169.662-.36.975-.57a2.16 2.16 0 00.515-.433.744.744 0 000-.92.92.92 0 00-.763-.368 2.505 2.505 0 00-.654.12 7.048 7.048 0 00-1.076.414 6.446 6.446 0 00-1.573 1.122c-.782.791-1.03 1.435-.92 1.463.11.028.45-.497 1.251-1.15a6.93 6.93 0 011.527-.92c.32-.145.653-.262.994-.35.359-.11.68-.128.782 0 .101.129 0 .083 0 .194-.11.124-.237.233-.377.322a8.661 8.661 0 01-.92.561 10.6 10.6 0 01-1.666.717c-.573.125-1.136.294-1.683.506z" fill="#263238"/><path d="M71.696 411.682c.065 0 .378-.598.396-1.712a5.658 5.658 0 00-.313-1.904 6.251 6.251 0 00-.487-1.04 1.47 1.47 0 00-1.16-.846.827.827 0 00-.708.524c-.078.208-.13.424-.156.644a4.151 4.151 0 000 1.178c.125.649.406 1.259.818 1.776.727.92 1.445 1.058 1.454 1.002.01-.055-.552-.395-1.113-1.242a4.018 4.018 0 01-.617-1.628 3.68 3.68 0 010-1.012c0-.368.166-.681.313-.644.147.037.479.258.635.552.18.294.336.602.47.92.213.555.35 1.137.404 1.73.129 1.03-.028 1.683.064 1.702z" fill="#263238"/><path d="M112.682 264.04c1.288 15.005 3.919 30.673 5.207 45.678.239 2.76.46 5.566-.414 8.17-1.638 4.83-12.227 8.188-17.121 6.762" fill="#455A64"/><path d="M57.96 253.414s-8.086 19.826-8.086 22.522c0 2.695 16.928 130.704 16.928 130.704l23.635-1.987L80.04 287.104l3.68-25.162-25.76-8.528z" fill="#263238"/><path d="M112.056 261.63s-5.52 46.128-8.114 63.912c-2.76 18.602-8.041 22.08-8.041 22.08l-42.725 54.712-16.735-15.078 37.656-60.251s10.037-66.857 9.688-65.063c-.35 1.794 28.271-.312 28.271-.312z" fill="#263238"/><path d="M80.629 289.312c.004.062.004.123 0 .184 0 .148 0 .322-.074.543-.073.506-.184 1.205-.322 2.098-.303 1.84-.745 4.508-1.288 7.829-1.14 6.725-2.76 16.137-4.6 27.076l-8.684 13.91-20.58 32.816-6.284 9.872-1.72 2.677-.46.681c-.111.156-.166.239-.176.23a1.98 1.98 0 01.13-.248l.422-.718 1.647-2.76 6.146-9.973 20.424-32.816c3.045-4.876 5.989-9.568 8.694-13.892v.073c1.923-10.92 3.588-20.322 4.765-27.038.608-3.312 1.086-5.962 1.426-7.811.166-.92.295-1.583.396-2.089.046-.211.083-.386.11-.533.028-.147.019-.111.028-.111zm14.435 59.12a3.87 3.87 0 01-.395.57l-1.224 1.573-4.48 5.778-14.656 19.173c-5.704 7.507-10.911 14.269-14.72 19.099a450.333 450.333 0 01-4.6 5.685c-.543.626-.92 1.132-1.288 1.509-.142.187-.302.36-.478.515.116-.203.251-.394.404-.57l1.169-1.564 4.49-5.778 14.646-19.172c5.704-7.498 10.911-14.27 14.72-19.1a291.603 291.603 0 014.6-5.676l1.279-1.518c.162-.19.34-.365.533-.524z" fill="#455A64"/><path d="M70.914 169.666s-8.28 4.959-10.736 9.366c-2.456 4.407-15.704 36.644-15.152 41.878.552 5.235 12.935 8.538 12.935 8.538l12.953-16.808-7.71-5.235 7.71-9.605v-28.134z" fill="#DC3001"/><path d="M84.263 165.388l-13.35 4.278s-6.053 57.574-9.089 65.854a80.545 80.545 0 00-3.864 17.894s1.72 16.1 20.452 18.299c18.73 2.199 33.635-8.906 33.635-8.906s11.215-28.4 14.517-52.642c3.303-24.242 1.022-38.079 1.022-38.079l-20.535-7.36-22.788.662z" fill="#DC3001"/><path d="M123.814 173.797c-.579.598-8.823 6.063-11.573 15.429-2.751 9.365-5.787 19.007-5.787 19.007l-10.773 1.38 6.062 24.794s12.954-1.38 20.112-13.23c7.157-11.849 11.573-26.441 11.573-26.441s-.892-30.056-9.614-20.939z" fill="#DC3001"/><path d="M57.96 229.448s30.02 5.998 40.912-6.918L95.68 211.6s-19.826 4.683-26.018 2.668l-11.702 15.18zm41.4-20.314s4.6-10.202 5.171-10.331c.57-.129 9.411-3.229 9.411-3.229a3.202 3.202 0 010 2.217l3.156.405s-.469 1.95-1.546 2.217l1.141 1.012a6.34 6.34 0 01-2.143 1.84 2.365 2.365 0 01-2.089 0s.405.727-1.407 1.84c-1.813 1.113-4.913 2.824-4.913 2.824l-6.78 1.205z" fill="#FFBE9D"/><path d="M99.36 209.171v-.046c.184-.414 4.6-10.212 5.18-10.35.58-.138 9.329-3.192 9.412-3.22a3.27 3.27 0 010 2.208l3.146.405c0 .074-.478 1.914-1.527 2.217l1.131.994a6.288 6.288 0 01-2.152 1.84 2.489 2.489 0 01-2.052 0c.055.202.101.874-1.444 1.84-1.84 1.131-4.876 2.806-4.904 2.824l-6.79 1.288zm14.601-13.57c-.479.175-8.805 3.091-9.384 3.22-.58.129-3.561 6.753-5.143 10.286l6.744-1.187c.11-.064 3.128-1.711 4.894-2.815 1.766-1.104 1.408-1.84 1.408-1.84v-.074l.073.046a2.376 2.376 0 002.061 0 6.25 6.25 0 002.125-1.84l-1.159-1.021c.984-.248 1.463-1.95 1.518-2.18l-3.165-.405c.272-.703.282-1.48.028-2.19z" fill="#EB996E"/><path d="M113.703 197.8a39.762 39.762 0 01-5.768 2.245c-.801.294-1.601.515-2.236.809a3.059 3.059 0 00-1.316 1.252c-.524.92-.717 1.637-.8 1.61.033-.62.206-1.224.506-1.767a3.232 3.232 0 011.408-1.49 20.562 20.562 0 012.281-.865 41.222 41.222 0 015.925-1.794zm2.051 2.622a4.695 4.695 0 01-1.591.58c-1.012.266-2.438.496-3.947.92-1.288.324-2.5.896-3.57 1.683-.8.626-1.15 1.169-1.223 1.123a2.997 2.997 0 011.012-1.38 8.87 8.87 0 013.68-1.84c1.555-.414 2.981-.589 4.002-.773a8.45 8.45 0 011.637-.313zm-8.113 4.646a5.102 5.102 0 014.655-1.665c0 .147-1.113.221-2.383.681-1.27.46-2.144 1.076-2.272.984z" fill="#EB996E"/><path d="M96.6 212.272l-25.116-7.038-7.489 8.206s25.585 20.047 37.288 19.725" fill="#FFBE9D"/><path d="M101.283 233.128c-1.051.074-2.107 0-3.138-.221a35.852 35.852 0 01-8.114-2.76c-6.596-3.008-15.134-8.28-23.984-14.895l-2.2-1.665-.202-.156.175-.193 7.498-8.152.102-.101h.128l18.06 5.143 5.18 1.509 1.38.423c.162.039.32.098.469.175a3.516 3.516 0 01-.488-.101l-1.398-.35-5.217-1.389-18.105-4.977.22-.065-7.48 8.17v-.35l2.19 1.665c8.833 6.569 17.315 11.896 23.847 14.96a37.336 37.336 0 008.004 2.888c.433.104.873.181 1.316.23.322.058.648.095.975.111.262.019.523.053.782.101z" fill="#EB996E"/><path d="M113.096 183.614a8.747 8.747 0 01-.368 1.996 133.685 133.685 0 01-1.214 4.747 170.479 170.479 0 01-1.344 4.711 8.626 8.626 0 01-.69 1.913 8.76 8.76 0 01.368-2.005c.286-1.224.709-2.898 1.206-4.748a140.07 140.07 0 011.343-4.701 8.157 8.157 0 01.699-1.913zm-1.168 33.644c-.083 0-.331-1.251-.92-3.192a10.12 10.12 0 00-1.629-3.128 5.804 5.804 0 00-3.505-2.218c-1.449-.067-2.9.101-4.296.497l-3.542.699a5.725 5.725 0 00-1.307.341 1.215 1.215 0 00-.737 1.081c0 .141.029.28.084.409 0 0-.377-.239-.22-.874a1.406 1.406 0 01.717-.855c.43-.203.885-.349 1.352-.433l3.524-.8a12.88 12.88 0 014.462-.534 6.06 6.06 0 013.781 2.42 9.806 9.806 0 011.601 3.293c.227.787.408 1.585.543 2.392.07.296.101.599.092.902zm3.689-5.446a11.875 11.875 0 00-2.935-3.377c-2.042-1.444-4.168-1.656-4.122-1.84.455-.08.922-.048 1.362.092a8.484 8.484 0 013.036 1.325 7.274 7.274 0 012.217 2.475c.255.398.407.853.442 1.325zm17.838-17.076a3.197 3.197 0 01-.147.525l-.497 1.481a398.257 398.257 0 00-1.84 5.446c-.745 2.254-1.748 5.042-3.091 7.977-1.343 2.935-2.916 6.081-4.83 9.292a31.61 31.61 0 01-6.753 8.013 28.757 28.757 0 01-7.259 4.536 22.442 22.442 0 01-5.52 1.564c-.68.082-1.205.128-1.564.138a2.125 2.125 0 01-.552 0c0-.056.755-.083 2.089-.322a24.207 24.207 0 005.446-1.693 30.93 30.93 0 0013.736-12.485c1.84-3.164 3.431-6.366 4.848-9.2 1.417-2.833 2.319-5.63 3.165-7.902.846-2.273 1.518-4.131 2.015-5.401.23-.589.423-1.067.579-1.444.033-.182.092-.359.175-.525zm-7.773-20.295c0 .138-2.07.92-4.425 2.3-2.356 1.38-4.058 2.871-4.15 2.76a12.76 12.76 0 013.901-3.183 13.163 13.163 0 014.674-1.877zM69.92 195.215c.09-1.579.34-3.145.745-4.674.245-1.57.648-3.111 1.205-4.6a23.495 23.495 0 01-.745 4.683 23.188 23.188 0 01-1.205 4.591zm35.208 45.052a9.501 9.501 0 01-1.389.699c-.451.221-1.012.47-1.674.727-.663.258-1.408.58-2.254.856a55.881 55.881 0 01-6.045 1.748 61.88 61.88 0 01-7.608 1.205c-2.564.211-5.14.26-7.71.147a55.402 55.402 0 01-6.256-.662c-.92-.12-1.674-.313-2.373-.451-.7-.138-1.288-.285-1.776-.414a9.226 9.226 0 01-1.49-.451c.518.05 1.032.139 1.536.267.488.101 1.086.23 1.785.34.7.111 1.481.276 2.374.378 2.062.287 4.138.472 6.219.552a59.822 59.822 0 0015.207-1.344 61.526 61.526 0 006.026-1.637c.856-.258 1.601-.552 2.273-.782.671-.23 1.233-.46 1.693-.653a9.988 9.988 0 011.462-.525zm-21.996 14.076a24.036 24.036 0 01-5.52-1.371 23.774 23.774 0 01-5.208-2.198 54.588 54.588 0 015.364 1.748 55.387 55.387 0 015.364 1.821z" fill="#263238"/><path d="M62.643 231.785a16.194 16.194 0 0010.12 3.376c3.303-.055 6.532-1.131 9.826-1.039 2.59.215 5.146.73 7.617 1.536 4.205 1.113 8.602 1.886 12.88 1.15 4.278-.736 8.455-3.238 10.249-7.194a21.1 21.1 0 01-19.807 2.051c-1.776-.754-3.478-1.757-5.383-2.051-2.318-.35-4.6.395-6.936.846-6.348 1.251-12.88.239-19.32-.782m11.288 22.016a17.404 17.404 0 0013.193 8.335 8.694 8.694 0 003.477-.285 4.35 4.35 0 002.622-2.19 12.12 12.12 0 00-4.094-1.693l-15.033-4.131" fill="#000" opacity=".3"/><path d="M91.292 207.92c-.13.046-2.034-4.848-4.25-10.92-2.218-6.072-3.93-11.04-3.81-11.096.12-.055 2.034 4.849 4.25 10.93 2.218 6.081 3.93 11.086 3.81 11.086z" fill="#FAFAFA"/><path d="M101.201 183.43c.092.101-5.162 4.866-11.73 10.635-6.57 5.768-11.96 10.377-12.043 10.276-.083-.101 5.16-4.857 11.73-10.635 6.569-5.778 11.951-10.378 12.043-10.276z" fill="#FAFAFA"/><path d="M95.487 175.941a10.42 10.42 0 007.371-3.053 10.425 10.425 0 003.053-7.371v-31.712a15.225 15.225 0 00-9.674-14.233 15.225 15.225 0 00-5.966-1.039h-.23a15.914 15.914 0 00-14.6 15.934c0 7.277.128 15.171.496 19.035.782 8.188 9.09 8.786 9.09 8.786v3.248a10.433 10.433 0 0010.433 10.405h.027z" fill="#FFBE9D"/><path d="M85.026 162.168a19.182 19.182 0 0010.442-3.928s-2.042 6.109-10.285 6.044l-.157-2.116z" fill="#EB996E"/><path d="M78.2 140.254a1.18 1.18 0 001.224 1.086 1.125 1.125 0 001.122-1.15 1.177 1.177 0 00-1.223-1.095 1.13 1.13 0 00-1.122 1.159zm-.643-2.484c.156.138.993-.589 2.254-.69 1.26-.101 2.235.451 2.355.285.12-.165-.11-.34-.534-.598a3.207 3.207 0 00-1.904-.414 3.094 3.094 0 00-1.776.736c-.368.331-.469.617-.395.681zm12.658 1.96a1.158 1.158 0 001.224 1.085 1.125 1.125 0 001.123-1.15 1.187 1.187 0 00-1.233-1.095 1.143 1.143 0 00-.801.345 1.123 1.123 0 00-.313.815zm-.257-2.751c.157.138.994-.589 2.254-.69 1.26-.101 2.236.451 2.355.285.12-.166-.1-.331-.533-.598a3.2 3.2 0 00-1.905-.414 3.118 3.118 0 00-1.775.736c-.36.331-.47.616-.396.681zm-3.799 9.724a8.006 8.006 0 00-2.07-.202c-.332 0-.635-.046-.709-.258a1.582 1.582 0 01.138-.975c.23-.8.478-1.647.745-2.53a44.002 44.002 0 001.61-6.578c-.147-.046-1.104 2.843-2.134 6.44-.249.92-.488 1.73-.709 2.539a1.841 1.841 0 00-.064 1.27.808.808 0 00.57.432c.184.022.37.022.552 0a8.213 8.213 0 002.07-.138zm3.781.561c-.203 0-.093 1.371-1.188 2.438-1.094 1.068-2.557 1.04-2.548 1.233.01.193.34.239.92.203a3.428 3.428 0 002.135-.92 2.973 2.973 0 00.92-2.043c.036-.598-.148-.929-.24-.911zm-.7-15.198c.157.331 1.399.064 2.898.12 1.5.055 2.76.368 2.889 0 .074-.148-.156-.46-.672-.746a4.786 4.786 0 00-2.19-.57 4.676 4.676 0 00-2.207.451c-.552.294-.8.589-.718.745zm-11.518 2.015c.239.267 1.085-.101 2.125-.203 1.04-.101 1.941 0 2.125-.276.074-.156-.083-.432-.497-.671a2.95 2.95 0 00-1.775-.322 2.889 2.889 0 00-1.647.717c-.35.322-.442.626-.331.755zm18.548-8.529a6.442 6.442 0 012.76 3.975v.165c.515 2.31.653 4.692 1.186 7.002.534 2.309.442 4.066 2.76 4.6a3.102 3.102 0 003.22-1.307c.169-.342.239-.724.203-1.104 0-5.676 1.113-7.884.616-13.8a5.009 5.009 0 00-2.401-3.882c-1.316-.782-2.898-1.573-4.214-.81-1.315.764-2.889 3.487-3.864 4.665" fill="#263238"/><path d="M103.454 137.742c.138-.073 5.52-2.134 5.778 3.487.257 5.621-5.41 4.747-5.428 4.6-.019-.147-.35-8.087-.35-8.087z" fill="#FFBE9D"/><path d="M105.414 143.594s.101.064.266.138c.236.096.5.096.736 0a2.434 2.434 0 001.012-2.227 3.32 3.32 0 00-.349-1.389 1.153 1.153 0 00-.773-.718.503.503 0 00-.336.05.503.503 0 00-.225.254c-.074.156 0 .267-.055.276-.056.009-.129-.083-.092-.322a.593.593 0 01.202-.359.742.742 0 01.534-.175c.232.035.453.128.64.271.186.143.333.332.427.548.26.478.402 1.011.414 1.555a2.535 2.535 0 01-1.307 2.502 1.047 1.047 0 01-.92-.11c-.156-.156-.193-.276-.174-.294z" fill="#EB996E"/><path d="M100.713 121.274c1.196-2.364-2.852-5.271-5.695-5.915-2.843-.644-6.367 1.012-9.044 2.153-1.693.717-3.358 1.665-5.189 1.738a12.305 12.305 0 01-3.68-.607 9.126 9.126 0 00-3.68-.414 3.407 3.407 0 00-2.76 2.116 2.126 2.126 0 001.656 2.76 2.766 2.766 0 00-2.554.164 2.752 2.752 0 00-1.322 2.191 2.762 2.762 0 002.248 2.88c.438.082.89.057 1.316-.074-.847-.533-1.988.562-1.84 1.555a2.906 2.906 0 002.088 1.96c2.429.837 5.124.285 7.48-.736 2.355-1.021 4.49-2.466 6.817-3.542 2.327-1.077 6.21-2.972 8.684-2.319 1.84.479 3.239 2.512 4.196 1.951.453-.29.831-.683 1.104-1.147.274-.463.434-.984.469-1.521a10.066 10.066 0 00-.377-3.174" fill="#263238"/><path d="M71.678 122.995s.322.386.984.993a7.79 7.79 0 003.276 1.748 7.148 7.148 0 005.326-.662c1.84-1.012 3.33-2.852 5.07-4.6a11.664 11.664 0 016.053-3.551 6.49 6.49 0 015.52 1.417 4.877 4.877 0 011.573 3.514 3.684 3.684 0 01-.156 1.049c-.083.23-.138.349-.156.34.068-.457.102-.918.1-1.38a4.875 4.875 0 00-1.618-3.238 6.175 6.175 0 00-5.162-1.196 11.393 11.393 0 00-5.75 3.441c-1.71 1.72-3.247 3.615-5.216 4.673a7.445 7.445 0 01-5.676.589 7.558 7.558 0 01-3.33-1.969 5.022 5.022 0 01-.654-.828c-.101-.221-.202-.331-.184-.34zm33.202 14.379s-.257-.128-.506-.561a3.79 3.79 0 01-.441-2.005c0-1.84 1.407-3.883 1.407-6.394a5.668 5.668 0 00-.92-3.303 4.226 4.226 0 00-2.226-1.619 3.62 3.62 0 00-1.895-.102 4.717 4.717 0 01-.7.194s.175-.221.635-.405a3.541 3.541 0 012.061-.074 4.555 4.555 0 012.549 1.711 5.972 5.972 0 011.03 3.598 10.02 10.02 0 01-.791 3.624c-.381.882-.644 1.81-.782 2.76-.08.898.123 1.799.579 2.576z" fill="#455A64"/><path d="M106.223 145.507c.074 0 .138.203.387.359a.598.598 0 00.92-.184.602.602 0 00.059-.484.61.61 0 00-.317-.372c-.257-.138-.478-.092-.506-.156-.027-.064.193-.258.626-.156a.964.964 0 01.589.469.926.926 0 010 .92.922.922 0 01-.801.497.993.993 0 01-.699-.295c-.386-.303-.313-.607-.258-.598z" fill="#263238"/><path d="M112.682 264.04c-1.113-1.628-3.588-1.233-5.52-.699-8.446 2.373-17.959 7.893-26.68 6.937-8.722-.957-16.036-13.276-22.255-19.468l-4.407 11.344c2.098 3.588 4.6 9.366 20.636 11.491a4.44 4.44 0 000 .782 4.142 4.142 0 001.242 2.659 20.818 20.818 0 00-4.6 10.074c-.396 2.511-.322 5.087-.819 7.571-.497 2.484-1.72 5.023-3.947 6.247a4.001 4.001 0 00-1.766 1.288 2.16 2.16 0 00.083 1.969c1.14 2.337 4.47 2.87 6.78 1.693 2.31-1.178 3.754-3.561 4.784-5.944 2.319-5.354 3.147-11.205 3.956-16.983v-.193a4.01 4.01 0 001.6.92c1.123.331 2.54.248 3.203 1.224.31.627.446 1.326.395 2.024a1.989 1.989 0 00.92 1.784 2.247 2.247 0 001.996-.46l4.692-2.861c.249-.147.525-.349.534-.635.01-.285-.322-.552-.635-.598-.313-.046-.644 0-.92 0a1.915 1.915 0 01-1.334-1.196 17.35 17.35 0 01-.552-1.784 7.355 7.355 0 00-5.17-4.343 12.909 12.909 0 00-2.852-.423 3.87 3.87 0 00.552-1.187c.07-.302.107-.61.11-.92 7.164.31 14.34-.24 21.372-1.637a54.89 54.89 0 017.627-.672c.221-2.254 1.996-6.532.975-8.004z" fill="#455A64"/><path d="M75.523 277.279s.295-.681 1.298-1.242a4.223 4.223 0 011.932-.506c.195-.018.393-.018.588 0 .25.03.482.147.654.331a1.5 1.5 0 01.257.662c0 .203.065.405.101.617.217 1.428.239 2.88.065 4.315a5.097 5.097 0 01-.414 1.738 33.4 33.4 0 00-.129-5.98 3.086 3.086 0 00-.248-1.058c-.12-.184-.543-.202-.92-.211a4.117 4.117 0 00-1.776.368c-.499.276-.97.6-1.408.966z" fill="#263238"/><path d="M81.78 276.616c-.083.102-.497-.092-1.012-.22-.516-.129-.976-.157-1.003-.295-.028-.138.478-.331 1.113-.175.635.157 1.003.598.902.69zm.745-1.444c-.083 0 .055-.718-.184-1.84a3.41 3.41 0 00-.856-1.665 3.15 3.15 0 00-2.06-.847 6.453 6.453 0 00-2.347.221 3.5 3.5 0 00-1.591.985c-.38.458-.654.995-.8 1.573a2.01 2.01 0 01.542-1.794 3.684 3.684 0 011.711-1.187 6.443 6.443 0 012.521-.276c.888.042 1.727.42 2.346 1.058a3.56 3.56 0 01.865 1.904 3.074 3.074 0 01-.147 1.868z" fill="#263238"/><path d="M80.178 271.124c.056 0 .295.184.525.653.283.629.363 1.33.23 2.006a3.238 3.238 0 01-1.003 1.757c-.387.34-.7.442-.727.396a4.214 4.214 0 00.975-4.812zm-14.784-6.67a52.617 52.617 0 004.508 3.993 53.58 53.58 0 005.188 3.036 4.974 4.974 0 01-1.71-.525 19.15 19.15 0 01-6.956-5.078 5.345 5.345 0 01-1.03-1.426zm9.292 7.774c-.8.201-1.638.201-2.438 0a5.023 5.023 0 01-2.337-.718 8.63 8.63 0 012.401.249 8.862 8.862 0 012.374.469zm17.388-.727a15.72 15.72 0 01-4.821 1.113 15.86 15.86 0 01-4.96 0c0-.138 2.209-.193 4.904-.515 2.696-.322 4.849-.699 4.877-.598zm-4.564 2.346a4.758 4.758 0 01-2.594.193 4.826 4.826 0 01-2.493-.754c.856.01 1.71.102 2.548.276.853.02 1.703.115 2.54.285zm-12.99 16.321a6.637 6.637 0 01-.174-2.134 18.493 18.493 0 013.082-9.808 6.829 6.829 0 011.361-1.656 32.383 32.383 0 00-3.137 6.486 31.786 31.786 0 00-1.132 7.112zm12.448-6.946c-.073 0-.239-.46-.699-1.132a11.433 11.433 0 00-2.18-2.318 23.504 23.504 0 01-3.45-3.036c1.35.75 2.612 1.647 3.763 2.677a8.904 8.904 0 012.162 2.503 2.3 2.3 0 01.404 1.306zm23.579-10.654a13.866 13.866 0 01.23-3.597c.075-1.201.313-2.387.709-3.523.08 1.201.003 2.407-.23 3.588a13.23 13.23 0 01-.709 3.532z" fill="#263238"/><path d="M62.11 213.026l-15.088-.754a3.68 3.68 0 01-3.303-2.484l-8.759-25.641a3.68 3.68 0 013.616-4.876l21.73.718a3.68 3.68 0 013.45 2.76l5.52 21.537a7 7 0 01-7.166 8.74z" fill="#455A64"/><path d="M58.237 202.768c-1.086 1.122-12.32-4.6-14.113-4.269-1.794.331-2.88 1.408-1.84 2.171 1.04.764 8.657 4.094 9.044 5.143 0 0-11.63-3.68-12.108-2.962-.478.717-1.279 1.84-.12 2.355 1.16.515 11.188 3.68 12.053 4.14a21.21 21.21 0 004.48 1.555 47.564 47.564 0 014.664 1.748 10.448 10.448 0 007.36.165l1.224-.423a4.684 4.684 0 003.128-4.471v-4.03l1.454-3.256-2.585-5.456-4.242-1.417 1.638 5.069c-1.665.801-4.499 1.371-5.934.571-1.435-.801-7.066-6.385-8.133-5.851-1.067.533-2.005 1.84-1.04 3.054.966 1.214 6.256 5.032 5.162 6.164" fill="#FFBE9D"/><path d="M51.373 188.701a1.617 1.617 0 01-1.933 1.598 1.619 1.619 0 111.933-1.598z" fill="#fff"/><path d="M66.24 199.502s-.083-.138-.184-.414a86.71 86.71 0 01-.423-1.205 155.939 155.939 0 01-1.435-4.499c-.58-1.904-1.27-4.177-1.923-6.734-.368-1.252-.423-2.76-1.288-3.754-.865-.994-2.466-1.168-3.947-1.214a1483.74 1483.74 0 01-15.548-.332l-4.692-.11-1.288-.074a1.433 1.433 0 01-.442-.055c.147-.015.295-.015.442 0h5.98c3.983 0 9.485.092 15.566.193.768.008 1.532.095 2.282.258a3.786 3.786 0 011.996 1.122 4.59 4.59 0 01.92 1.997c.157.671.304 1.325.451 1.969.626 2.548 1.27 4.83 1.84 6.743.57 1.914.966 3.395 1.288 4.536.138.487.249.92.34 1.233.03.111.052.225.065.34z" fill="#263238"/><path d="M140.41 303.186s-7.93-1.095-12.76 11.215c-5.64 14.343-9.476 25.521-8.897 42.145.479 13.69 7.489 53.71 9.955 67.436a5.696 5.696 0 005.602 4.683h15.594a5.698 5.698 0 005.649-4.977c1.84-14.325 6.707-55.587 4.959-70.84-2.125-18.538-5.41-48.503-20.102-49.662z" fill="#DC3001"/><path d="M158.322 333.96v.653c0 .433-.074 1.095-.12 1.84-.046.745-.239 1.785-.386 2.935-.147 1.15-.432 2.438-.846 3.827a45.448 45.448 0 01-3.68 9.513 46.847 46.847 0 01-7.213 10.175 43.7 43.7 0 01-9.743 7.857c-3.321 1.923-6.44 3.487-8.639 5.373a14.235 14.235 0 00-4.158 5.363 11.89 11.89 0 00-.552 1.776c-.074.423-.12.644-.12.644s0-.23.083-.653a9.81 9.81 0 01.524-1.794 14.173 14.173 0 014.14-5.447c2.218-1.904 5.327-3.486 8.639-5.418a43.776 43.776 0 009.651-7.82 47.035 47.035 0 007.194-10.12 45.629 45.629 0 003.68-9.467c.424-1.389.608-2.687.865-3.809.258-1.122.331-2.125.423-2.926.092-.8.12-1.389.157-1.84.037-.45.101-.662.101-.662zm-1.858-6.44s-.157.478-.47 1.371a88.061 88.061 0 01-1.49 3.873 83.03 83.03 0 01-22.025 30.516c-.791.709-1.637 1.371-2.475 2.08a17.309 17.309 0 01-2.76 1.895 6.204 6.204 0 01-3.266.865 4.604 4.604 0 01-3.1-1.454 7.012 7.012 0 01-1.711-3.073 13.492 13.492 0 01-.414-3.551c0-2.401.064-4.821.211-7.277a29.63 29.63 0 011.206-7.185 16.477 16.477 0 013.45-6.155 10.528 10.528 0 015.851-3.386 9.106 9.106 0 016.366 1.077 7.285 7.285 0 013.331 5.115 10.8 10.8 0 01-.69 5.796 18.156 18.156 0 01-2.88 4.673 34.963 34.963 0 01-3.478 3.68 8.727 8.727 0 01-4.011 2.208 4.125 4.125 0 01-3.79-1.214 5.796 5.796 0 01-1.491-3.202c-.135-1-.063-2.018.212-2.99a16.103 16.103 0 011.656-3.79c.469-.828.736-1.251.736-1.251s-.248.432-.699 1.269a15.892 15.892 0 00-1.619 3.791 7.184 7.184 0 00-.203 2.953 5.776 5.776 0 001.491 3.146 4.003 4.003 0 003.68 1.169 8.692 8.692 0 003.937-2.19 35.918 35.918 0 003.459-3.68 17.88 17.88 0 002.843-4.6c.746-1.806.979-3.783.672-5.713a7.057 7.057 0 00-3.257-4.986 8.85 8.85 0 00-6.238-1.049 10.296 10.296 0 00-5.75 3.33 16.366 16.366 0 00-3.404 6.081 30.132 30.132 0 00-1.205 7.14c-.138 2.447-.175 4.876-.202 7.268-.022 1.18.111 2.359.395 3.505a6.88 6.88 0 001.666 2.981 4.39 4.39 0 002.98 1.407 6.042 6.042 0 003.174-.846 17.673 17.673 0 002.696-1.84c.828-.699 1.684-1.353 2.475-2.07a83.977 83.977 0 0014.876-17.02 85.382 85.382 0 007.204-13.414c.681-1.665 1.205-2.962 1.518-3.864l.543-1.389z" fill="#FAFAFA"/><path d="M156.216 318.412s0 .156-.12.46c-.111.436-.246.866-.405 1.288a17.642 17.642 0 01-2.364 4.379 18.602 18.602 0 01-5.456 4.941 17.012 17.012 0 01-4.002 1.766c-1.5.426-3.043.682-4.6.764-3.211.184-6.265 0-9.034.193a15.873 15.873 0 00-6.974 2.097 10.531 10.531 0 00-2.199 1.739 8.132 8.132 0 00-1.242 1.721 11.57 11.57 0 00-.68 1.683s0-.156.119-.46a6.32 6.32 0 01.488-1.26 8.359 8.359 0 011.233-1.757 11.018 11.018 0 012.217-1.785 15.874 15.874 0 017.029-2.153c2.76-.248 5.842 0 9.034-.212a20.65 20.65 0 004.6-.745 17.508 17.508 0 003.956-1.739 18.707 18.707 0 005.437-4.876 17.501 17.501 0 002.401-4.324 12.7 12.7 0 00.442-1.269c.055-.295.12-.451.12-.451zm-32.385 13.257a4.78 4.78 0 01.368-1.389 9.104 9.104 0 012.3-3.1 21.471 21.471 0 014.848-3.073 34.483 34.483 0 005.971-3.634 29.84 29.84 0 004.941-4.941 28.859 28.859 0 003.072-4.811 29.706 29.706 0 001.528-3.542l.331-.994c.083-.23.129-.34.129-.34s0 .119-.092.349c-.092.23-.184.617-.295 1.012a28.36 28.36 0 01-1.472 3.579 28.968 28.968 0 01-8.022 9.835 33.453 33.453 0 01-6.008 3.68 21.572 21.572 0 00-4.839 3.018 9.083 9.083 0 00-2.318 3.026c-.146.32-.269.649-.368.985l-.074.34zm23.728 52.072h-.948a14.718 14.718 0 00-6.799 1.454 13.281 13.281 0 00-4.48 3.422 7.219 7.219 0 00-1.463 2.917 3.674 3.674 0 00.764 3.302 4.657 4.657 0 003.394 1.436 9.846 9.846 0 003.92-.92 26.315 26.315 0 007.36-4.683 18.398 18.398 0 005.372-7.553 9.196 9.196 0 00.387-4.674 8.113 8.113 0 00-2.024-4.048 5.973 5.973 0 00-3.91-1.84 10.111 10.111 0 00-4.168.69 44.187 44.187 0 00-12.613 7.636 45.916 45.916 0 00-6.799 7.36 33.723 33.723 0 00-1.564 2.236l-.524.782s.644-1.141 2.024-3.064a45.39 45.39 0 016.771-7.36 43.713 43.713 0 0112.632-7.774 10.21 10.21 0 014.241-.708 6.168 6.168 0 014.02 1.895 8.131 8.131 0 012.079 4.14 9.448 9.448 0 01-.386 4.765 18.596 18.596 0 01-5.428 7.636 26.274 26.274 0 01-7.36 4.702 9.77 9.77 0 01-3.984.92 4.829 4.829 0 01-3.514-1.491 3.867 3.867 0 01-.782-3.45 7.375 7.375 0 011.49-2.971 13.34 13.34 0 014.545-3.423 14.92 14.92 0 014.122-1.26 13.928 13.928 0 012.76-.138c.289.007.578.028.865.064z" fill="#FAFAFA"/><path d="M159.969 383.861l-.212.368c-.174.285-.386.616-.634 1.03a17.017 17.017 0 01-1.058 1.573c-.451.598-.92 1.307-1.546 2.006l-.92 1.122c-.331.387-.727.746-1.104 1.15-.745.81-1.638 1.574-2.558 2.411a42.846 42.846 0 01-6.624 4.6 41.912 41.912 0 01-7.36 3.137c-1.196.331-2.318.681-3.404.874-.542.101-1.058.23-1.564.304l-1.453.202c-.92.156-1.776.175-2.521.23-.633.054-1.269.07-1.904.046h-1.206a3.574 3.574 0 01-.414 0h1.62c.635.009 1.271-.018 1.904-.083.736-.064 1.582-.092 2.502-.257l1.445-.212c.506-.074 1.021-.202 1.555-.313 1.085-.202 2.198-.552 3.385-.92a43.002 43.002 0 007.36-3.137 43.47 43.47 0 006.606-4.536c.92-.818 1.84-1.582 2.557-2.382.378-.396.764-.764 1.104-1.141l.92-1.113c.626-.69 1.104-1.39 1.555-1.978.391-.5.756-1.019 1.095-1.555l.653-1.003c.129-.304.221-.423.221-.423zm-1.205 12.659s-.12.083-.359.221l-1.04.579c-.451.249-1.003.562-1.628.92-.626.359-1.353.792-2.116 1.316-1.564.994-3.358 2.282-5.281 3.79a73.473 73.473 0 00-5.906 5.318 68.834 68.834 0 00-5.226 5.989c-1.49 1.941-2.76 3.754-3.68 5.327-.506.773-.92 1.5-1.288 2.134a43.174 43.174 0 00-.92 1.647l-.57 1.049c-.129.23-.212.359-.212.359a52.322 52.322 0 012.87-5.263 63.909 63.909 0 013.68-5.363 70.957 70.957 0 015.235-6.017 72.353 72.353 0 015.943-5.318 62.3 62.3 0 015.309-3.762 52.242 52.242 0 015.189-2.926zm-4.582 22.503a23.85 23.85 0 00-2.373.405c-.842.231-1.661.539-2.447.92a15.78 15.78 0 00-2.696 1.702 15.133 15.133 0 00-2.226 2.272c-.531.69-.993 1.429-1.38 2.208a21.835 21.835 0 00-.92 2.236 9.527 9.527 0 01.782-2.291c.366-.801.823-1.557 1.361-2.254a14.315 14.315 0 012.245-2.318 14.653 14.653 0 012.76-1.711 12.705 12.705 0 012.493-.856 9.541 9.541 0 012.401-.313z" fill="#FAFAFA"/><path d="M144.412 312.772h-8.869v13.101h8.869v-13.101zm6.201 9.743c.884 0 1.6-2.467 1.6-5.511 0-3.043-.716-5.51-1.6-5.51-.885 0-1.601 2.467-1.601 5.51 0 3.044.716 5.511 1.601 5.511z" fill="#263238"/><path d="M150.612 311.494h5.346a2.014 2.014 0 011.922 1.352 13.069 13.069 0 01-.082 8.28 2.031 2.031 0 01-1.933 1.38h-5.253v-11.012z" fill="#263238"/><path d="M150.53 311.475s.193 0 .451.184c.322.31.549.706.653 1.141a20.26 20.26 0 01.607 4.149v2.309a7.442 7.442 0 01-.313 1.886 2.004 2.004 0 01-.8 1.04c-.276.166-.46.166-.469.138.452-.304.779-.762.92-1.288a8.892 8.892 0 00.193-1.84v-2.263a29.184 29.184 0 00-.46-4.085 2.53 2.53 0 00-.451-1.086c-.193-.184-.34-.248-.331-.285z" fill="#455A64"/><path d="M129.904 315.79h20.681c.525.497.442 1.049 0 1.628l-5.52 1.537s-1.076 4.499-4.839 4.094a5.951 5.951 0 01-4.904-3.726l-5.446-.92.028-2.613z" fill="#E0E0E0"/><path d="M141.192 321.908a2.473 2.473 0 01-1.75-4.225 2.47 2.47 0 012.697-.536 2.471 2.471 0 01.8 4.033 2.482 2.482 0 01-1.747.728zm0-4.03a1.56 1.56 0 00-1.437.96 1.554 1.554 0 001.133 2.12 1.55 1.55 0 001.858-1.525 1.551 1.551 0 00-1.554-1.555zm-17.765 4.738c.884 0 1.601-2.467 1.601-5.51 0-3.044-.717-5.511-1.601-5.511s-1.601 2.467-1.601 5.511c0 3.043.717 5.51 1.601 5.51z" fill="#263238"/><path d="M123.427 311.595h5.373a2.022 2.022 0 011.922 1.352 13.014 13.014 0 01-.092 8.28 2.02 2.02 0 01-1.932 1.38h-5.244l-.027-11.012z" fill="#263238"/><path d="M123.344 311.576s.193 0 .451.184c.32.311.543.707.644 1.141.535 2.102.727 4.277.57 6.44a7.488 7.488 0 01-.303 1.886 1.97 1.97 0 01-.81 1.04c-.267.165-.451.165-.46.138.45-.307.776-.763.92-1.288a8.25 8.25 0 00.184-1.84v-2.263a30.6 30.6 0 00-.451-4.085 2.405 2.405 0 00-.46-1.086c-.147-.165-.303-.23-.285-.267z" fill="#455A64"/><path d="M147.964 409.391h-8.869v13.101h8.869v-13.101zm7.801 4.241c0 3.045-.718 5.52-1.601 5.52s-1.601-2.466-1.601-5.52c0-3.054.709-5.52 1.601-5.52.893 0 1.601 2.475 1.601 5.52z" fill="#263238"/><path d="M154.164 408.112h5.345a2.045 2.045 0 011.923 1.352 13.11 13.11 0 01-.092 8.28 2.016 2.016 0 01-1.932 1.371h-5.244v-11.003z" fill="#263238"/><path d="M154.082 408.103s.193 0 .45.184c.322.309.546.706.644 1.141.536 2.101.729 4.276.571 6.44a7.468 7.468 0 01-.304 1.84 1.994 1.994 0 01-.809 1.048c-.276.166-.46.157-.46.129.448-.304.774-.757.92-1.279a8.357 8.357 0 00.184-1.84v-2.272a30.486 30.486 0 00-.451-4.076 2.44 2.44 0 00-.46-1.094c-.147-.12-.304-.184-.285-.221z" fill="#455A64"/><path d="M133.455 412.418h20.682c.524.487.441 1.039 0 1.628l-5.52 1.527s-1.077 4.499-4.83 4.103a5.98 5.98 0 01-4.913-3.735l-5.437-.966.018-2.557z" fill="#E0E0E0"/><path d="M144.743 418.536a2.474 2.474 0 01-.482-4.902 2.47 2.47 0 012.54 1.052 2.473 2.473 0 01-2.058 3.85zm0-4.03a1.55 1.55 0 00-1.436.96 1.552 1.552 0 001.133 2.12 1.55 1.55 0 001.596-.661 1.556 1.556 0 00-1.293-2.419zm-17.774 4.738c.884 0 1.601-2.467 1.601-5.511 0-3.043-.717-5.511-1.601-5.511s-1.601 2.468-1.601 5.511c0 3.044.717 5.511 1.601 5.511z" fill="#263238"/><path d="M126.96 408.213h5.345a2.02 2.02 0 011.923 1.353 13.09 13.09 0 01-.083 8.28 2.014 2.014 0 01-1.932 1.37h-5.253v-11.003z" fill="#263238"/><path d="M126.895 408.195s.193 0 .442.193c.33.304.558.702.653 1.141.536 2.102.729 4.276.57 6.44a7.064 7.064 0 01-.313 1.886 1.944 1.944 0 01-.8 1.049c-.276.156-.46.156-.46.128.451-.301.777-.755.92-1.278a8.258 8.258 0 00.193-1.84v-2.264a28.765 28.765 0 00-.46-4.075 2.454 2.454 0 00-.451-1.095c-.156-.175-.312-.248-.294-.285z" fill="#455A64"/><path d="M149.039 309.782a10.21 10.21 0 00-.579-1.306 6.438 6.438 0 00-3.082-2.548 8.46 8.46 0 00-6.256-.129 14.45 14.45 0 00-6.44 5.446 57.424 57.424 0 00-8.28 20.59c-1.758 8.28-2.098 17.581-1.472 27.278.294 4.857.782 9.586 1.306 14.149a514.247 514.247 0 001.684 13.138c1.168 8.363 2.382 15.87 3.413 22.172.515 3.146.984 5.998 1.398 8.501a49.392 49.392 0 001.251 6.366 6.446 6.446 0 003.193 4.297 3.859 3.859 0 01-1.224-.746 7.612 7.612 0 01-2.143-3.496 47.146 47.146 0 01-1.344-6.375l-1.462-8.492c-1.077-6.293-2.319-13.8-3.524-22.163a506.692 506.692 0 01-1.711-13.146c-.534-4.573-1.021-9.302-1.316-14.178-.625-9.724-.276-19.108 1.518-27.397a57.34 57.34 0 018.483-20.7 14.719 14.719 0 016.587-5.52 8.639 8.639 0 016.44.202 6.441 6.441 0 013.091 2.677c.174.314.31.648.405.994.039.125.061.255.064.386zm4.867 9.973c.039.089.066.181.083.276l.175.801c.156.736.368 1.766.644 3.082.276 1.315.607 2.99.92 4.912.312 1.923.745 4.094 1.067 6.523.175 1.215.359 2.484.543 3.809.184 1.325.331 2.705.506 4.131.368 2.861.616 5.934.92 9.154.487 6.44.818 13.579.828 21.059.009 7.479-.387 14.6-.92 21.058-.304 3.23-.562 6.302-.92 9.154-.175 1.436-.322 2.816-.516 4.14-.193 1.325-.377 2.595-.561 3.8-.331 2.429-.754 4.6-1.076 6.523-.322 1.923-.653 3.56-.92 4.903-.267 1.344-.497 2.346-.644 3.092-.083.322-.138.588-.184.791a1.219 1.219 0 01-.083.276 1.695 1.695 0 010-.285c0-.203.074-.47.129-.81.138-.736.322-1.776.57-3.1.249-1.325.561-2.99.856-4.913.294-1.923.699-4.094 1.012-6.523.165-1.214.34-2.484.524-3.8.184-1.315.322-2.714.488-4.14.359-2.852.607-5.915.92-9.135.497-6.44.837-13.561.865-21.031.027-7.471-.322-14.573-.792-21.022-.276-3.22-.515-6.284-.864-9.145-.166-1.426-.295-2.806-.47-4.131-.174-1.325-.358-2.594-.524-3.809-.304-2.429-.69-4.6-.984-6.532a129.603 129.603 0 00-.847-4.913c-.257-1.343-.423-2.355-.552-3.1-.055-.34-.101-.607-.129-.81-.027-.202-.064-.276-.064-.285zm244.095 81.807a2.514 2.514 0 00-.193-.46c-.147-.332-.359-.773-.616-1.334a31.968 31.968 0 01-1.84-5.309c-1.215-4.729-1.638-11.96.156-20.534a110.768 110.768 0 013.8-13.8c1.619-4.895 3.486-10.12 5.014-15.695a60.582 60.582 0 002.474-18.051c-.23-6.385-2.116-12.76-4.195-19.099s-4.223-12.567-4.867-18.814a28.64 28.64 0 013.45-17.37c2.76-5.069 6.21-9.402 8.805-13.901a48.038 48.038 0 005.29-13.358 49.76 49.76 0 00.34-20.691 38.19 38.19 0 00-2.162-7.305c.027.164.07.324.129.479.101.349.248.809.432 1.407a51.31 51.31 0 011.344 5.465 50.347 50.347 0 01-.534 20.544 48.2 48.2 0 01-5.308 13.183c-2.586 4.444-6.063 8.759-8.869 13.892a29.28 29.28 0 00-3.561 17.719c.654 6.358 2.816 12.604 4.886 18.952 2.07 6.348 3.937 12.641 4.176 18.925a60.554 60.554 0 01-2.41 17.866c-1.509 5.585-3.358 10.773-4.95 15.64a108.75 108.75 0 00-3.744 13.865c-1.748 8.648-1.251 15.943.055 20.681a30.598 30.598 0 001.951 5.309l.69 1.306c.068.171.154.335.257.488z" fill="#263238"/><path d="M406.474 261.639s5.262-16.818-4.168-26.68a.58.58 0 00-1.002.285c-.506 2.788-1.104 11.252 5.17 26.395z" fill="#DC3001"/><path d="M403.328 240.571c.013 1.045.13 2.087.35 3.109.349 2.135.754 4.646 1.205 7.416.451 2.769.837 5.28 1.178 7.415.091 1.039.275 2.067.552 3.073a12.315 12.315 0 00-.092-3.128c-.175-1.923-.516-4.6-.985-7.471-.469-2.87-.984-5.52-1.398-7.36a13.67 13.67 0 00-.81-3.054z" fill="#263238"/><path d="M400.301 301.318s-3.22-17.332-16.164-21.629a.584.584 0 00-.318-.017.584.584 0 00-.442.425.586.586 0 00.005.319c.856 2.686 4.26 10.46 16.919 20.902z" fill="#DC3001"/><path d="M387.66 284.17a15.41 15.41 0 001.767 2.576l4.526 5.998 4.517 6.008a16.225 16.225 0 001.923 2.447 13.058 13.058 0 00-1.546-2.714c-1.048-1.619-2.585-3.8-4.37-6.146-1.784-2.346-3.44-4.416-4.682-5.888a14.066 14.066 0 00-2.135-2.281z" fill="#263238"/><path d="M403.797 344.788s1.959-17.48-9.2-25.382a.578.578 0 00-.92.469c.083 2.824 1.003 11.251 10.12 24.913z" fill="#DC3001"/><path d="M396.686 324.76a15.47 15.47 0 00.92 2.972l2.594 7.056c.92 2.64 1.84 5.023 2.576 7.056.281 1.004.66 1.978 1.132 2.908a13.148 13.148 0 00-.69-3.046 116.54 116.54 0 00-2.402-7.148 170.744 170.744 0 00-2.76-6.992 13.94 13.94 0 00-1.37-2.806z" fill="#263238"/><path d="M394.045 388.516s1.325-17.572-10.12-25.042a.581.581 0 00-.615-.03.594.594 0 00-.305.536c.175 2.824 1.472 11.205 11.04 24.536z" fill="#DC3001"/><path d="M386.216 368.708c.25 1.014.602 2.001 1.049 2.944.818 1.997 1.784 4.352 2.842 6.956 1.058 2.603 2.006 4.949 2.825 6.955.321.993.734 1.954 1.233 2.87a12.688 12.688 0 00-.801-3.027c-.598-1.84-1.527-4.333-2.649-7.047-1.123-2.714-2.199-5.152-3.027-6.9a13.679 13.679 0 00-1.472-2.751z" fill="#263238"/><path d="M414 246.864s15.64-8.161 15.934-21.804a.57.57 0 00-.074-.313.572.572 0 00-.543-.294.576.576 0 00-.303.11c-2.281 1.601-8.712 7.13-15.014 22.301z" fill="#DC3001"/><path d="M426.724 229.752a15.376 15.376 0 00-1.951 2.438c-1.26 1.757-2.76 3.818-4.397 6.09l-4.426 6.072a16.475 16.475 0 00-1.775 2.567c.8-.672 1.52-1.434 2.143-2.273 1.242-1.481 2.871-3.588 4.6-5.98 1.73-2.392 3.211-4.6 4.251-6.21a13.967 13.967 0 001.555-2.704z" fill="#263238"/><path d="M397.265 282.983s16.09-7.195 17.222-20.783a.59.59 0 00-.92-.561c-2.328 1.481-9.136 6.596-16.302 21.344z" fill="#DC3001"/><path d="M410.964 266.68a15.38 15.38 0 00-2.089 2.319l-4.765 5.805-4.784 5.796a16.408 16.408 0 00-1.932 2.456 13.58 13.58 0 002.281-2.143c1.325-1.399 3.082-3.404 4.941-5.686 1.858-2.281 3.486-4.388 4.6-5.943a14.407 14.407 0 001.748-2.604z" fill="#263238"/><path d="M406.52 323.288s11.04-13.736 5.87-26.358a.59.59 0 00-.192-.257.581.581 0 00-.848.165c-1.481 2.401-5.161 10.046-4.83 26.45z" fill="#DC3001"/><path d="M411.286 302.524c-.362.978-.63 1.988-.8 3.017l-1.601 7.36c-.598 2.76-1.15 5.226-1.61 7.36-.3 1-.503 2.026-.607 3.064.471-.938.826-1.93 1.058-2.953.543-1.84 1.187-4.435 1.84-7.305.653-2.871 1.104-5.52 1.417-7.36.225-1.046.326-2.114.303-3.183z" fill="#263238"/><path d="M395.6 370.705s15.962-7.461 16.863-21.077a.582.582 0 00-.605-.657.58.58 0 00-.315.114c-2.373 1.499-9.043 6.743-15.943 21.62z" fill="#DC3001"/><path d="M409.004 354.2a15.911 15.911 0 00-2.052 2.355l-4.673 5.897-4.683 5.87c-.703.768-1.335 1.6-1.886 2.484a13.16 13.16 0 002.245-2.18c1.297-1.426 3.027-3.46 4.848-5.769a148.555 148.555 0 004.517-6.017 14.02 14.02 0 001.684-2.64zm-22.825-59.533c-.06.115-.1.239-.119.368-.074.303-.166.662-.276 1.095-.24 1.03-.552 2.428-.92 4.167l-3.248 14.941c-.598 6.44.653 14.122 3.036 21.905 1.739 5.723 3.754 11.04 5.41 15.935a99.51 99.51 0 013.68 13.174c.592 3.031.9 6.111.92 9.2 0 1.095 0 1.941-.056 2.512a5.652 5.652 0 000 .92c.07-.303.113-.611.129-.92.083-.571.138-1.417.184-2.512a45.212 45.212 0 00-.708-9.255 92.464 92.464 0 00-3.597-13.285c-1.629-4.913-3.616-10.24-5.346-15.934-2.373-7.738-3.634-15.309-3.1-21.676 1.242-6.145 2.282-11.288 3.018-14.977.34-1.757.607-3.165.809-4.205.074-.441.138-.809.184-1.113a1.21 1.21 0 000-.34z" fill="#263238"/><path d="M384.689 335.8s-2.199-17.48 8.841-25.502a.58.58 0 01.92.46c.019 2.861-.864 11.297-9.761 25.042z" fill="#DC3001"/><path d="M391.524 315.67a13.689 13.689 0 00-1.334 2.825 151.263 151.263 0 00-2.686 7.029c-.985 2.769-1.785 5.317-2.3 7.176a13.025 13.025 0 00-.644 3.1c.45-.941.816-1.92 1.094-2.926.709-2.042 1.546-4.443 2.475-7.093.929-2.649 1.776-5.041 2.493-7.084.405-.975.708-1.989.902-3.027z" fill="#263238"/><path d="M381.671 314.373s-11.233-13.588-6.219-26.275a.591.591 0 01.486-.371.582.582 0 01.553.261c1.509 2.382 5.309 9.982 5.18 26.385z" fill="#DC3001"/><path d="M376.62 293.682c.024 1.045.156 2.084.396 3.101.331 1.895.846 4.508 1.509 7.36.662 2.852 1.343 5.446 1.904 7.295a13.012 13.012 0 001.095 2.926 17.017 17.017 0 00-.644-3.054c-.497-2.107-1.077-4.6-1.711-7.314-.635-2.714-1.215-5.208-1.702-7.36a14.582 14.582 0 00-.847-2.954z" fill="#263238"/><path d="M393.254 361.643s-16.054-7.25-17.158-20.847a.588.588 0 01.92-.552c2.373 1.462 9.117 6.596 16.238 21.399z" fill="#DC3001"/><path d="M379.61 345.285c.47.933 1.044 1.81 1.712 2.613 1.131 1.564 2.76 3.68 4.6 5.962a107.927 107.927 0 004.922 5.704 12.73 12.73 0 002.281 2.143 17.876 17.876 0 00-1.932-2.456l-4.793-5.805-4.747-5.833a16.155 16.155 0 00-2.043-2.328z" fill="#263238"/><path d="M409.004 396.143l-4.987 32.761-19.954-.037-6.716-32.724h31.657z" fill="#455A64"/><path d="M380.264 408.784l.174.119c.169.109.344.207.525.295.7.345 1.452.572 2.226.671a8.287 8.287 0 003.68-.349 7.706 7.706 0 003.947-2.862 5.515 5.515 0 00.92-2.76 2.996 2.996 0 00-1.352-2.815 3.204 3.204 0 00-3.34.276 4.851 4.851 0 00-1.914 3.009 12.703 12.703 0 00-.248 3.68c.068 1.295.341 2.571.81 3.781a8.361 8.361 0 002.309 3.303 6.44 6.44 0 003.845 1.6 7.013 7.013 0 003.993-1.159 11.745 11.745 0 002.972-2.695 6.44 6.44 0 001.509-3.598 4.167 4.167 0 00-1.417-3.468 3.251 3.251 0 00-3.533-.221 3.796 3.796 0 00-2.033 2.677 5.124 5.124 0 002.521 5.189 7.023 7.023 0 004.811.69 10.805 10.805 0 003.432-1.343c.669-.39 1.311-.823 1.923-1.297.22-.157.426-.332.616-.525a5.09 5.09 0 00-.681.433c-.441.294-1.085.727-1.959 1.205a11.054 11.054 0 01-3.386 1.224 6.746 6.746 0 01-4.6-.727 4.735 4.735 0 01-2.254-4.729 3.312 3.312 0 011.84-2.328 2.761 2.761 0 012.999.184 3.682 3.682 0 011.215 3.046 6.004 6.004 0 01-1.417 3.293 11.33 11.33 0 01-2.843 2.567 6.542 6.542 0 01-3.68 1.076 5.965 5.965 0 01-3.505-1.472 7.756 7.756 0 01-2.171-3.082 11.865 11.865 0 01-.782-3.624 12.207 12.207 0 01.211-3.542 4.426 4.426 0 011.693-2.76 2.764 2.764 0 012.843-.276 2.523 2.523 0 011.159 2.401 5.146 5.146 0 01-.828 2.548 7.417 7.417 0 01-3.68 2.76 8.276 8.276 0 01-3.542.423 9.587 9.587 0 01-3.008-.818zm41.198 19.936c0 .055-86.793.092-193.844.092-107.052 0-193.872 0-193.872-.092s86.784-.101 193.872-.101c107.088 0 193.844.101 193.844.101z" fill="#263238"/></svg>