<svg width="263" height="272" fill="none" xmlns="http://www.w3.org/2000/svg"><path d="M35 85.223h-2.467a1.951 1.951 0 00-.752.08 1.203 1.203 0 00-.734.925 2.113 2.113 0 000 .444v.457a2.07 2.07 0 01-.031.474 1.233 1.233 0 01-.555.802c-.15.095-.318.154-.493.173h-9.64c-.12.003-.241-.01-.358-.037a1.16 1.16 0 01-.617-.382 1.234 1.234 0 01-.302-.673v-.752a1.96 1.96 0 00-.074-.734 1.16 1.16 0 00-1.166-.777h-5.785a3.942 3.942 0 00-1.678.314 3.983 3.983 0 00-1.406 1.061 3.83 3.83 0 00-.79 1.591c-.036.148-.048.303-.073.45-.025.149 0 .254 0 .383v61.379a3.792 3.792 0 001.634 3.251 3.97 3.97 0 002.467.672h25.078a3.782 3.782 0 002.164-.839c.303-.246.568-.537.784-.863a3.926 3.926 0 00.622-2.19V89.158a3.948 3.948 0 00-.277-1.542 3.7 3.7 0 00-.728-1.141 3.606 3.606 0 00-.87-.71 3.658 3.658 0 00-1.43-.505c-.173 0-.303 0-.389-.037H35zm216.892.001h-2.497a1.976 1.976 0 00-.753.08 1.232 1.232 0 00-.734.925 3.656 3.656 0 000 .445v.456c.015.158.015.317 0 .475a1.228 1.228 0 01-.561.802 1.132 1.132 0 01-.487.172h-9.634a1.495 1.495 0 01-.364-.037 1.168 1.168 0 01-.617-.382 1.292 1.292 0 01-.308-.672v-.753a1.958 1.958 0 00-.074-.734 1.162 1.162 0 00-1.166-.777h-5.76a3.826 3.826 0 00-3.084 1.357 3.822 3.822 0 00-.789 1.591c-.044.148-.05.303-.081.45-.03.149 0 .253 0 .383v61.398a4.01 4.01 0 00.148 1.233c.249.83.773 1.55 1.487 2.042a3.95 3.95 0 002.467.672h25.083a3.796 3.796 0 002.948-1.702 3.926 3.926 0 00.623-2.19V89.19a3.84 3.84 0 00-1.875-3.392 3.694 3.694 0 00-1.437-.506c-.166 0-.296 0-.388-.037h-2.19l.043-.03z" fill="#FAFAFA"/><path fill-rule="evenodd" clip-rule="evenodd" d="M110.281 36.198c.174 1.096.201 2.21.08 3.312l2.553 1.727-1.85 4.743-3.022-.426a12.37 12.37 0 01-2.282 2.406l.617 3.01-4.651 2.066-1.85-2.468c-1.095.178-2.21.205-3.312.08l-1.714 2.554-4.743-1.85.444-3.04a12.562 12.562 0 01-2.4-2.289l-3.015.617-2.06-4.65 2.467-1.85a12.425 12.425 0 01-.08-3.313l-2.554-1.708 1.85-4.75 3.041.445a12.34 12.34 0 012.282-2.4l-.617-3.015 4.638-2.048 1.85 2.467a12.701 12.701 0 013.313-.08l1.714-2.553 4.743 1.85-.444 3.04a12.31 12.31 0 012.399 2.282l3.016-.616 2.06 4.644-2.467 1.85-.006-.037zm-7.296-.037a5.465 5.465 0 00-5.129-3.243 5.458 5.458 0 102.365 10.44 5.44 5.44 0 003.235-5.122 5.461 5.461 0 00-.471-2.075z" fill="#E0E0E0"/><path fill-rule="evenodd" clip-rule="evenodd" d="M106.581 8.622c.114.725.133 1.46.056 2.19l1.684 1.135-1.234 3.133-2.01-.29a8.205 8.205 0 01-1.511 1.585l.394 1.992-3.084 1.363-1.233-1.628a8.418 8.418 0 01-2.19.055l-1.128 1.684-3.14-1.233.297-2.011a8.376 8.376 0 01-1.592-1.511l-1.992.394-1.363-3.083 1.629-1.234a8.15 8.15 0 01-.05-2.19l-1.61-1.042 1.234-3.139 2.01.296a8.167 8.167 0 011.512-1.585l-.438-2.023L95.906.117l1.233 1.628a8.153 8.153 0 012.19-.055L100.462 0l3.133 1.234-.296 2.01c.596.43 1.131.938 1.592 1.511l1.992-.395 1.363 3.084-1.629 1.234-.037-.056zm-4.823 0a3.606 3.606 0 00-6.663.151 3.607 3.607 0 004.813 4.61 3.608 3.608 0 002.168-3.403 3.589 3.589 0 00-.318-1.382v.024z" fill="#F5F5F5"/><path fill-rule="evenodd" clip-rule="evenodd" d="M194.424 212.737a14.74 14.74 0 01.099 3.891l2.991 2.005-2.146 5.551-3.565-.518a14.474 14.474 0 01-2.677 2.812l.697 3.54-5.452 2.412-2.122-2.874a14.652 14.652 0 01-3.885.098l-2.011 2.992-5.551-2.147.525-3.565a14.625 14.625 0 01-2.819-2.676l-3.534.697-2.461-5.477 2.886-2.153a14.404 14.404 0 01-.092-3.885l-2.997-1.98 2.146-5.551 3.565.524a14.655 14.655 0 012.683-2.818l-.697-3.534 5.458-2.436 2.152 2.886a14.456 14.456 0 013.892-.092l2.005-2.998 5.55 2.146-.518 3.565c1.054.764 2 1.666 2.813 2.683l3.54-.697 2.418 5.446-2.893 2.153zm-8.554-.043a6.392 6.392 0 00-6.006-3.802 6.39 6.39 0 00-5.809 4.095 6.39 6.39 0 001.561 6.934 6.393 6.393 0 007.003 1.21 6.399 6.399 0 003.251-8.437z" fill="#E0E0E0"/><path fill-rule="evenodd" clip-rule="evenodd" d="M180.03 245.765c.117.748.135 1.509.055 2.263l1.746 1.166-1.234 3.244-2.078-.302a8.543 8.543 0 01-1.561 1.64l.407 2.06-3.176 1.406-1.233-1.683a8.499 8.499 0 01-2.264.055l-1.172 1.746-3.244-1.234.308-2.072a8.4 8.4 0 01-1.64-1.567l-2.06.407-1.449-3.195 1.683-1.233a8.457 8.457 0 01-.055-2.264l-1.746-1.171 1.234-3.238 2.078.302a8.53 8.53 0 011.585-1.647l-.407-2.06 3.177-1.406 1.233 1.684a8.216 8.216 0 012.264-.056l1.171-1.745 3.238 1.233-.302 2.079a8.515 8.515 0 011.641 1.56l2.06-.407 1.412 3.176-1.684 1.234.013.025zm-4.984 0a3.7 3.7 0 00-6.978 2.34 3.704 3.704 0 002.953 2.838 3.715 3.715 0 002.126-.244 3.725 3.725 0 001.983-2.084 3.736 3.736 0 00-.084-2.875v.025z" fill="#F5F5F5"/><path fill-rule="evenodd" clip-rule="evenodd" d="M127.015 23.887a7.33 7.33 0 01.049 1.974l1.53 1.023-1.092 2.831-1.813-.265a7.726 7.726 0 01-1.363 1.437l.351 1.801-2.775 1.234-1.092-1.468a7.67 7.67 0 01-1.979.05l-1.03 1.516-2.831-1.091.265-1.85a7.315 7.315 0 01-1.443-1.333l-1.801.358-1.234-2.776 1.468-1.097a7.587 7.587 0 01-.049-1.98l-1.524-1.018 1.092-2.837 1.85.265a7.32 7.32 0 011.363-1.43l-.357-1.801 2.775-1.234 1.098 1.474a7.355 7.355 0 011.98-.05l1.023-1.523 2.8 1.086-.252 1.85c.533.39 1.014.85 1.43 1.363l1.801-.351 1.234 2.775-1.474 1.098v-.031zm-4.354 0a3.263 3.263 0 00-3.061-1.919 3.253 3.253 0 00-2.949 2.087 3.261 3.261 0 00.792 3.525 3.262 3.262 0 005.218-3.718v.025z" fill="#EBEBEB"/><path d="M236.47 228.914a11.91 11.91 0 017.401-.9c1.344.222 2.744.617 3.657 1.634.913 1.018 1.092 2.782.043 3.652a3.562 3.562 0 01-2.307.586c-1.961 0-4.132-.371-5.692.807-.895.673-1.487 1.789-2.554 2.122a2.527 2.527 0 01-2.775-1.233 4.323 4.323 0 01-.315-3.183 4.869 4.869 0 012.542-3.485zm-5.161-9.96c1.375 1.967 4.052 1.314 5.298.111 1.245-1.203 1.764-2.942 2.238-4.601 1.092-3.787 2.196-7.765 1.382-11.626a6.414 6.414 0 00-1.486-3.164 3.372 3.372 0 00-3.195-1.067c-1.351.358-2.19 1.678-2.8 2.936a27.724 27.724 0 00-2.739 11.897c0 1.918.222 3.929 1.302 5.514zm-3.783 2.819a7.16 7.16 0 001.111-6.587 12.688 12.688 0 00-3.898-5.656 21.115 21.115 0 00-6.988-4.126 7.44 7.44 0 00-3.139-.53 3.309 3.309 0 00-2.64 1.591c-.734 1.406-.031 3.084.734 4.496a53.444 53.444 0 004.588 6.982c1.376 1.776 2.948 3.528 5.045 4.317 2.097.79 4.275.709 5.385-.746" fill="#EBEBEB"/><path d="M231.213 248.627c.072-.293.113-.593.124-.895.061-.653.142-1.476.24-2.467a33.76 33.76 0 01.549-3.577c.321-1.44.754-2.853 1.295-4.225a15.57 15.57 0 012.159-3.817 8.102 8.102 0 012.726-2.27 7.576 7.576 0 012.294-.709c.302-.014.602-.058.895-.13a3.822 3.822 0 00-.907 0 7.043 7.043 0 00-2.393.617 8.107 8.107 0 00-2.88 2.288 15.485 15.485 0 00-2.233 3.898 26 26 0 00-1.289 4.317 31.536 31.536 0 00-.481 3.621 47.534 47.534 0 00-.117 2.467c-.024.294-.018.589.018.882z" fill="#E0E0E0"/><path d="M231.381 246.745a1.9 1.9 0 000-.413v-1.185c0-1.03 0-2.522.049-4.36.093-3.701.407-7.636 1.018-13.217.58-5.249 1.357-11.355 2.177-15.327.179-.906.358-1.72.524-2.43.167-.709.296-1.326.426-1.85s.204-.851.278-1.153c.037-.133.062-.269.074-.407a1.688 1.688 0 00-.148.388c-.087.296-.204.673-.346 1.135a41.426 41.426 0 00-.487 1.813c-.179.71-.382 1.524-.574 2.424a134.017 134.017 0 00-2.288 14.223c-.617 5.594-.888 10.688-.913 14.37 0 1.85 0 3.337.062 4.367.031.487.056.875.074 1.19.004.147.029.292.074.432z" fill="#E0E0E0"/><path d="M231.405 236.926a7.69 7.69 0 000-1.233 34.264 34.264 0 00-.382-3.355 42.749 42.749 0 00-1.092-4.891 40.007 40.007 0 00-2.041-5.792 30.903 30.903 0 00-6.007-9.35 14.741 14.741 0 00-1.413-1.313c-.216-.179-.407-.364-.617-.512l-.548-.376a7.585 7.585 0 00-1.043-.666c1.2.944 2.341 1.962 3.417 3.046a32.513 32.513 0 015.859 9.319 45.593 45.593 0 012.054 5.736c.537 1.795.894 3.448 1.166 4.842.271 1.394.401 2.535.493 3.324.018.411.07.819.154 1.221zm-9.491 17.325l.98 13.489h17.325l.987-13.489h-19.292zm21.351-5.317h-23.029v5.317h23.029v-5.317z" fill="#E0E0E0"/><path d="M220.244 267.221v1.474h22.647v-1.474h-22.647z" fill="#EBEBEB"/><path d="M222.382 271.285l-1.061-2.59h20.742l-1.234 2.59h-18.447z" fill="#E0E0E0"/><path d="M240.886 258.661a1.185 1.185 0 01-.087.123l-.259.345-1.005 1.289-.043.056-.043-.062-2.467-3.423h.16l-2.467 3.454-.08.105-.08-.099-2.899-3.441h.166l-.16.203-2.584 3.244-.087.105-.08-.111-2.467-3.454h.142l-2.973 3.423-.049.062-.043-.068-.944-1.579-.24-.425a.64.64 0 01-.074-.148c.041.04.076.086.105.136.067.104.154.24.265.4l.987 1.555h-.093l2.96-3.467.074-.092.068.099 2.467 3.435h-.166l2.584-3.25.16-.204.081-.099.086.099 2.886 3.454h-.16c.888-1.234 1.721-2.399 2.467-3.442l.068-.098.074.098 2.424 3.467h-.087l1.049-1.234.283-.327c.037-.098.074-.135.081-.129zm.573-4.496c0 .055-4.318.105-9.696.105s-9.695-.05-9.695-.105c0-.056 4.317-.111 9.695-.111s9.696.049 9.696.111zm.863 14.654c0 .061-4.718.111-10.534.111-5.816 0-10.54-.05-10.54-.111 0-.062 4.718-.105 10.54-.105 5.822 0 10.534.068 10.534.105z" fill="#F5F5F5"/><path d="M262.121 271.57c0 .093-58.684.16-131.054.16S0 271.663 0 271.57s58.672-.16 131.067-.16c72.394 0 131.054.074 131.054.16z" fill="#455A64"/><path d="M66.017 242.347H31.214v4.78h34.803v-4.78z" fill="#263238"/><path d="M66.073 247.189H31.146v-4.89h34.92l.007 4.89zm-34.797-.117h34.68v-4.662h-34.68v4.662z" fill="#263238"/><path d="M34.44 245.536l5.008 24.714h18.533l4.848-23.122-28.39-1.592z" fill="#263238"/><path d="M34.44 267.912l2.67 3.676h22.53l3.19-3.676H34.44z" fill="#455A64"/><path d="M47.305 246.264c-.068 0-.154-11.453-.191-25.57-.037-14.118 0-25.571.049-25.571.05 0 .154 11.447.197 25.571.044 14.123.019 25.564-.055 25.57zm7.752-28.636a.898.898 0 01-.092.266l-.309.74c-.067.166-.148.345-.228.536-.08.191-.148.42-.234.617-.087.197-.173.487-.265.746-.093.259-.167.555-.26.851a36.14 36.14 0 00-.974 4.262 52.893 52.893 0 00-.536 5.329 71.456 71.456 0 00.277 9.732c.111 1.234.222 2.245.302 2.942l.093.796c.01.094.01.189 0 .284a1.28 1.28 0 01-.062-.278c-.037-.203-.08-.469-.136-.789a60.19 60.19 0 01-.388-2.936 64.244 64.244 0 01-.345-9.763 48.31 48.31 0 01.56-5.354c.246-1.446.59-2.874 1.03-4.274.1-.302.18-.586.278-.851.099-.265.198-.512.284-.746.086-.235.179-.444.253-.617.074-.173.173-.37.253-.53l.351-.722a1.3 1.3 0 01.148-.241z" fill="#263238"/><path d="M54.17 208.377a2.942 2.942 0 01-.111.376c-.087.265-.21.617-.364 1.067-.08.228-.167.487-.265.765l-.278.925c-.203.66-.438 1.412-.647 2.264-.111.419-.229.863-.352 1.319-.123.457-.216.95-.327 1.45-.24.999-.42 2.078-.617 3.207a96.308 96.308 0 00-.956 7.444c-.234 2.652-.314 5.187-.351 7.494-.037 2.306 0 4.385.117 6.13 0 .87.093 1.659.136 2.35.043.691.08 1.289.123 1.776.043.488.068.839.087 1.117.014.131.014.263 0 .394a3.828 3.828 0 01-.062-.388c-.031-.278-.074-.648-.13-1.116a48.563 48.563 0 01-.172-1.771c-.056-.69-.124-1.48-.167-2.356-.117-1.745-.167-3.823-.173-6.136-.006-2.313.111-4.854.333-7.519.222-2.664.58-5.18.975-7.456.234-1.135.42-2.22.672-3.213.117-.5.228-.987.34-1.45.11-.462.246-.9.363-1.326.222-.845.469-1.597.685-2.257.11-.327.21-.617.302-.919.093-.302.204-.53.29-.765.166-.438.302-.789.407-1.048a2.06 2.06 0 01.142-.358zm-9.061 39.909a.45.45 0 010-.135v-.395c0-.364-.062-.87-.105-1.511-.08-1.339-.198-3.238-.346-5.551-.302-4.706-.74-11.213-1.53-18.361a234.04 234.04 0 00-1.362-10.053c-.26-1.536-.5-2.997-.765-4.36-.265-1.363-.506-2.628-.752-3.781a215.81 215.81 0 00-.685-3.084c-.204-.888-.4-1.696-.561-2.337a214.01 214.01 0 01-.364-1.474c0-.161-.062-.284-.087-.389-.024-.105 0-.129 0-.129s0 .043.044.123c.043.08.068.228.11.382l.408 1.462c.179.617.388 1.419.617 2.331.228.913.48 1.943.721 3.084.24 1.141.53 2.412.783 3.781.253 1.369.518 2.825.784 4.36.5 3.084.98 6.482 1.387 10.06.79 7.16 1.197 13.673 1.456 18.385.13 2.356.216 4.262.271 5.582l.056 1.517v.53l-.08-.037z" fill="#263238"/><path d="M47.023 200.625c-.148-1.622-1.789-2.843-3.417-2.862a5.396 5.396 0 00-4.145 2.251 13.034 13.034 0 00-1.992 4.429 30.048 30.048 0 00-1.233 11.78 17.81 17.81 0 004.91 10.657 2.008 2.008 0 001.72.74 2.03 2.03 0 00.888-.549 26.394 26.394 0 008.56-20.056 8.124 8.124 0 00-1.072-4.318c-.833-1.233-2.77-2.578-4.188-2.078m-12.209-12.983l-2.282 4.151c-.049.098-.123.209-.234.216-.111.006-.21-.105-.278-.204-2.018-3.104-4.04-6.207-6.062-9.307l1.4-.795 7.456 5.939z" fill="#DC3001"/><path d="M34.848 187.635l-2.282 4.151c-.05.099-.123.21-.235.216-.11.006-.21-.105-.277-.204a7429.22 7429.22 0 00-6.063-9.306l1.4-.796 7.457 5.939z" fill="#000" opacity=".2"/><path d="M47.18 195.123l-20.692-12.212a.948.948 0 01-.5-.506c-.086-.308.148-.616.364-.832a14.255 14.255 0 0111.058-4.318 12.64 12.64 0 019.998 6.217c1.998 3.565 2.06 8.289-.228 11.675" fill="#DC3001"/><path d="M29.456 179.013a1.37 1.37 0 01.27-.03 7.32 7.32 0 01.784-.037 14.98 14.98 0 012.868.228 16.76 16.76 0 0113.39 12.113c.258.928.431 1.877.518 2.837.037.339 0 .425 0 .617-.02.16-.074.313-.16.45a3.75 3.75 0 00.03-1.042 17.266 17.266 0 00-16.627-15.111 9.852 9.852 0 01-1.073-.025z" fill="#263238"/><path d="M44.364 186.691a4.98 4.98 0 01-1.049.475 29.4 29.4 0 01-2.609.925c-1.03.309-1.974.586-2.664.753a5.223 5.223 0 01-1.129.216 5.424 5.424 0 011.086-.383l2.633-.826 2.628-.845a6.222 6.222 0 011.104-.315zm-3.258-8.752c.182.757.263 1.535.24 2.313a8.588 8.588 0 01-.123 2.313 14.133 14.133 0 01-.123-2.307 13.793 13.793 0 01.006-2.319zm-14.813 4.743a8.44 8.44 0 011.504-.53 62.71 62.71 0 013.7-1.011 64.985 64.985 0 013.763-.79 9.336 9.336 0 011.579-.216c-.506.168-1.023.298-1.548.389-.956.216-2.276.512-3.738.857-1.461.345-2.763.691-3.7.938a11.96 11.96 0 01-1.56.363z" fill="#263238"/><path d="M38.436 197.109c-1.782-1.35-3.663-1.616-5.89-1.529a18.018 18.018 0 00-6.451 1.696c-3.491 1.529-6.784 3.78-8.857 6.969-2.072 3.189-2.806 7.401-1.233 10.88.12.362.371.667.703.857.388.113.804.082 1.172-.086 3.965-1.296 7.962-2.603 11.613-4.632 3.651-2.029 6.97-4.842 8.924-8.53.504-.87.825-1.833.944-2.831a3.529 3.529 0 00-.913-2.763" fill="#DC3001"/><path d="M38.473 196.689l-.29.111-.826.29-.617.198-.703.277c-.5.204-1.086.407-1.696.703l-.975.444c-.34.155-.678.346-1.03.531-.721.351-1.45.802-2.226 1.233a39.072 39.072 0 00-4.694 3.485 38.35 38.35 0 00-4.058 4.219c-.555.709-1.092 1.375-1.536 2.041-.222.333-.456.617-.653.956l-.568.907c-.37.573-.648 1.122-.913 1.597-.13.241-.253.456-.357.66-.105.204-.198.401-.278.574l-.389.789a1.3 1.3 0 01-.154.265 2.01 2.01 0 01.105-.283l.352-.815.253-.579.345-.673c.259-.481.524-1.042.888-1.622l.555-.925c.191-.314.42-.617.617-.968.438-.679.974-1.351 1.523-2.066a36.615 36.615 0 014.07-4.262 37.018 37.018 0 014.744-3.491c.783-.456 1.517-.906 2.245-1.233.364-.179.703-.37 1.042-.518l.987-.432c.617-.29 1.233-.481 1.72-.672.26-.093.494-.185.716-.259l.617-.179.845-.241c.108-.04.223-.061.339-.062zm-13.902 7.525a41.356 41.356 0 01-4.317 1.393 40.437 40.437 0 01-4.398 1.16 41.089 41.089 0 014.318-1.394 41.692 41.692 0 014.397-1.159z" fill="#263238"/><path d="M24.392 213.767a6.632 6.632 0 01-.099-1.351v-3.256c0-1.271.105-2.424.173-3.257.013-.45.069-.898.167-1.338.041.449.041.901 0 1.351 0 .912-.062 2.023-.1 3.25a326.053 326.053 0 00-.08 3.25 8.69 8.69 0 01-.06 1.351zm8.178-4.157c-.067 0-.283-2.338-.48-5.23-.198-2.893-.327-5.255-.241-5.255.086 0 .284 2.338.487 5.23.204 2.893.309 5.255.235 5.255z" fill="#263238"/><path d="M22.388 198.891c.46-.055.924-.07 1.387-.043.858 0 2.036.03 3.343.074 1.308.043 2.467.098 3.337.148.464 0 .926.045 1.381.135-.46.051-.924.066-1.387.043-.858 0-2.036-.03-3.343-.074a139.49 139.49 0 01-3.337-.148 7.717 7.717 0 01-1.381-.135zm19.642 28.501a.969.969 0 01-.031-.278c0-.209 0-.468-.037-.795a41.88 41.88 0 010-2.93c.037-1.239.105-2.707.253-4.317.148-1.61.395-3.417.728-5.273a65.69 65.69 0 011.178-5.2 51.43 51.43 0 011.295-4.163 56.48 56.48 0 011.042-2.744l.315-.734a1.15 1.15 0 01.123-.247.989.989 0 01-.074.265c-.074.198-.16.444-.271.753-.247.647-.58 1.591-.969 2.763a72.66 72.66 0 00-1.233 4.163 67.83 67.83 0 00-1.153 5.187 71.048 71.048 0 00-.747 5.255 65.133 65.133 0 00-.308 4.317 63.318 63.318 0 00-.062 2.923v.796a1.69 1.69 0 01-.05.259z" fill="#263238"/><path d="M43.124 213.841c-.242.331-.52.635-.827.906a56.68 56.68 0 01-2.164 2.011 38.576 38.576 0 01-2.276 1.881c-.31.269-.647.504-1.005.703.27-.308.57-.589.894-.838l2.226-1.931 2.202-1.949c.292-.289.61-.551.95-.783zm6.524 5.279a9.946 9.946 0 01-.876-1.233l-2.047-2.979c-.79-1.123-1.505-2.14-2.085-2.954-.309-.391-.59-.803-.839-1.234.363.35.692.734.98 1.147a70.035 70.035 0 014.138 5.946c.284.412.528.85.73 1.307zm-3.411-16.591c.037.056-2.14 1.524-4.86 3.269-2.72 1.746-4.934 3.121-4.99 3.084-.055-.037 2.14-1.523 4.86-3.275s4.953-3.139 4.99-3.078zm6.138 6.619a40.344 40.344 0 01-3.294-3.041 39.247 39.247 0 01-3.083-3.22 41.91 41.91 0 013.287 3.047 40.693 40.693 0 013.09 3.214z" fill="#263238"/><path d="M53.918 208.993l1.85-.154a9.323 9.323 0 003.769-1.153 14.631 14.631 0 011.757-.888c2.313-.925 4.885-.759 7.401-.882a30.608 30.608 0 0011.719-2.998c.215-.099.394-.263.512-.468.382-.697-.327-1.32-.944-1.696-3.145-1.937-6.346-3.905-9.917-4.867-3.571-.962-7.617-.795-10.664 1.295-3.571 2.468-4.872 7.513-5.477 11.811" fill="#DC3001"/><path d="M80.96 202.246a1.355 1.355 0 01-.32-.148l-.882-.462c-.77-.401-1.85-1-3.269-1.666a30.487 30.487 0 00-5.063-1.955 16.8 16.8 0 00-6.556-.53 11.234 11.234 0 00-5.983 2.566 13.41 13.41 0 00-3.084 4.378 36.027 36.027 0 00-1.35 3.405c-.142.389-.253.703-.333.937a2.89 2.89 0 01-.13.327c.013-.116.04-.23.08-.339.074-.24.167-.561.29-.956.36-1.174.79-2.325 1.29-3.448a13.14 13.14 0 013.12-4.471 11.363 11.363 0 016.094-2.646 16.666 16.666 0 016.654.561 29.304 29.304 0 015.076 2.011c1.394.691 2.467 1.314 3.238 1.739l.864.506c.093.057.181.121.265.191z" fill="#263238"/><path d="M76.477 204.676c-.043.056-2.467-1.523-5.458-3.528-2.991-2.004-5.353-3.7-5.316-3.737.037-.037 2.467 1.523 5.458 3.534 2.991 2.01 5.353 3.657 5.316 3.731zm-2.609-7.401a5.813 5.813 0 01-1.776.321 5.87 5.87 0 01-1.814 0 12.195 12.195 0 011.789-.179c.596-.09 1.198-.138 1.8-.142zm-10.692-1.4a4.597 4.597 0 01-.796 1.234c-.28.432-.623.821-1.018 1.153.201-.45.472-.867.802-1.233.28-.432.62-.821 1.012-1.154zm2.187 10.22a6.48 6.48 0 01-1.172-.617 38.494 38.494 0 01-2.676-1.795 79.93 79.93 0 01-2.566-1.955 6.36 6.36 0 01-1.011-.87 7.5 7.5 0 011.116.734l2.602 1.888c1.018.74 1.95 1.387 2.628 1.85.38.224.742.48 1.08.765z" fill="#263238"/><path d="M56.667 216.95c-1.782-.469-3.904 1.264-4.274 3.084-.37 1.819.308 3.651 1.104 5.31a27.08 27.08 0 007.364 9.64 18.195 18.195 0 0011.262 4.144c-.753-3.497.203-7.148-.216-10.7a13.927 13.927 0 00-12.335-12.212c-1.135-.123-2.467-.302-2.905.746" fill="#DC3001"/><path d="M72.126 239.116a.95.95 0 01-.253-.117 4.834 4.834 0 01-.666-.444 7.058 7.058 0 01-1.758-2.356c-.284-.549-.617-1.147-.913-1.813-.296-.666-.617-1.369-.956-2.116a21.021 21.021 0 00-1.178-2.263 17.717 17.717 0 00-1.622-2.208c-1.233-1.431-2.529-2.671-3.663-3.855a25.198 25.198 0 01-2.788-3.349 12.138 12.138 0 01-1.37-2.609 7.531 7.531 0 01-.234-.758 1.017 1.017 0 01-.055-.278s.123.364.382 1.006c.38.896.855 1.748 1.419 2.541a26.293 26.293 0 002.812 3.287c1.141 1.172 2.467 2.411 3.7 3.855a18.152 18.152 0 011.641 2.238c.44.742.834 1.51 1.178 2.301.327.746.617 1.455.938 2.122.32.666.617 1.264.876 1.85.39.891.956 1.695 1.665 2.362.512.413.863.58.845.604z" fill="#263238"/><path d="M62.914 236.21c.01-.403.064-.804.16-1.196.142-.734.37-1.746.679-2.837.308-1.092.617-2.079.906-2.776.12-.387.283-.76.488-1.11a7.282 7.282 0 01-.321 1.166c-.222.709-.524 1.69-.833 2.781-.308 1.092-.56 2.091-.746 2.813a5.934 5.934 0 01-.333 1.159zm8.876-8.585a6.783 6.783 0 01-1.233-.29 117.86 117.86 0 00-3.003-.74c-1.154-.265-2.258-.469-3.035-.617a7.888 7.888 0 01-1.233-.277c.43-.014.86.021 1.282.105a36.9 36.9 0 013.084.549 29.61 29.61 0 012.998.814c.394.115.776.268 1.14.456zm-15.487 2.492c.02-.467.085-.932.19-1.387a48.542 48.542 0 011.708-6.532c.13-.451.3-.889.513-1.307-.08.46-.196.914-.345 1.356-.234.833-.561 1.98-.894 3.251-.334 1.27-.617 2.43-.808 3.269a7.7 7.7 0 01-.364 1.35zm11.4-9.973c0 .068-2.233-.111-4.965-.401-2.733-.29-4.934-.579-4.934-.647 1.65.048 3.297.182 4.934.401 2.763.289 4.97.598 4.965.647z" fill="#263238"/><path d="M66.073 247.11c0 .068-7.814.123-17.46.123s-17.454-.055-17.454-.123 7.814-.124 17.454-.124 17.46.056 17.46.124zm-5.44 10.058c0 .068-5.267.124-11.762.124-6.494 0-11.761-.056-11.761-.124s5.267-.123 11.761-.123c6.495 0 11.762.055 11.762.123zm-.204 1.438c0 .074-5.175.129-11.558.129s-11.558-.055-11.558-.129c0-.074 5.175-.124 11.558-.124s11.558.056 11.558.124zm.407-2.622c0 .068-5.446.123-12.163.123-6.716 0-12.168-.055-12.168-.123s5.446-.124 12.168-.124c6.723 0 12.163.056 12.163.124z" fill="#455A64"/><path d="M68.873 59.313h-3.984a3.083 3.083 0 00-1.234.13 1.877 1.877 0 00-.943.838c-.108.192-.185.4-.229.617a4.39 4.39 0 000 .703v.728c.012.254-.005.508-.049.758a2.017 2.017 0 01-.888 1.283 1.91 1.91 0 01-.796.302H45.473A1.906 1.906 0 0143.906 64a2.06 2.06 0 01-.486-1.08 4.92 4.92 0 010-.616v-.617a3.085 3.085 0 00-.124-1.172 1.9 1.9 0 00-.71-.931 1.85 1.85 0 00-1.146-.315h-9.208a6.118 6.118 0 00-4.934 2.172 6.092 6.092 0 00-1.234 2.534 7.225 7.225 0 00-.123.716v98.557a6.364 6.364 0 00.246 1.931 6.068 6.068 0 002.369 3.256 6.314 6.314 0 003.898 1.067H72.53a6.067 6.067 0 003.454-1.338 6.308 6.308 0 001.234-1.376 5.96 5.96 0 00.764-1.677 6.495 6.495 0 00.229-1.851v-9.066c0-19.273 0-36.623.03-51.19.031-14.568 0-26.367.037-34.539V65.58a6.271 6.271 0 00-.444-2.467 6.133 6.133 0 00-2.54-2.948 5.82 5.82 0 00-2.289-.808 5.02 5.02 0 00-.617-.056h-3.49l-.025.013z" fill="#FAFAFA"/><path d="M72.222 59.38h.21a6.118 6.118 0 014.317 1.974 6.068 6.068 0 011.166 1.85c.316.784.471 1.623.456 2.468v97.78c.01.625-.07 1.248-.234 1.85a6.233 6.233 0 01-.734 1.752 6.59 6.59 0 01-1.277 1.412 6.166 6.166 0 01-3.534 1.369c-1.283.037-2.553 0-3.842 0H32.614a6.468 6.468 0 01-3.935-1.11 6.3 6.3 0 01-2.467-3.349 6.777 6.777 0 01-.253-2.072V65.592c0-.247 0-.494.037-.74.037-.247.062-.494.124-.734.22-.953.661-1.84 1.289-2.59a6.2 6.2 0 014.99-2.209h9.232c.437-.025.87.094 1.233.34.345.24.606.584.747.98.117.4.158.818.123 1.234v.616a4.487 4.487 0 000 .58c.048.38.207.739.456 1.03.247.284.574.486.938.58.18.041.365.058.549.05h15.197c.264-.032.519-.12.746-.26a1.955 1.955 0 00.857-1.233c.044-.247.06-.497.05-.747v-.727a4.585 4.585 0 01.03-.716c.042-.23.121-.45.235-.654.212-.394.558-.7.974-.863a2.96 2.96 0 011.234-.13h7.24-7.259a2.94 2.94 0 00-1.196.13c-.4.165-.733.46-.944.839-.106.192-.18.4-.222.616-.03.234-.04.469-.03.703v.728c.013.254-.002.508-.044.759a1.992 1.992 0 01-.888 1.277c-.234.15-.5.246-.777.277H45.64a2.263 2.263 0 01-.574-.055 1.917 1.917 0 01-.993-.617 2.078 2.078 0 01-.48-1.073 4.88 4.88 0 010-.617v-.617a3.115 3.115 0 00-.124-1.172 1.912 1.912 0 00-.71-.925 1.801 1.801 0 00-1.14-.314h-9.172a6.093 6.093 0 00-4.89 2.25 6.08 6.08 0 00-1.234 2.542c-.061.234-.08.475-.123.715s0 .481 0 .728v97.731c-.024.683.06 1.366.247 2.023a6.104 6.104 0 002.355 3.256 6.296 6.296 0 003.892 1.067h39.954a6.005 6.005 0 003.435-1.332 6.45 6.45 0 001.233-1.375 6.044 6.044 0 00.759-1.678 6.277 6.277 0 00.228-1.85v-60.356c0-14.561 0-26.366.031-34.538v-2.886a6.219 6.219 0 00-.45-2.467 6.13 6.13 0 00-4.81-3.75 3.912 3.912 0 00-.618-.056l-.234.019z" fill="#263238"/><path d="M73.405 69.293s-1.011.056-2.257.068c-1.246.012-2.257 0-2.257 0s1.005-.056 2.257-.068c1.252-.012 2.257-.025 2.257 0zm.015 1.159s-1.012.055-2.264.062c-1.252.006-2.258 0-2.258 0s1.012-.056 2.258-.068c1.246-.013 2.263-.025 2.263.006zm.004 1.154s-1.011.055-2.257.067c-1.246.013-2.257 0-2.257 0s1.011-.055 2.257-.067c1.246-.013 2.257-.025 2.257 0zm-41.106 1.319h1.32v-1.104a.376.376 0 01.327-.296h.456a.37.37 0 01.321.37v1.024l-.05-.043h1.234l-.049.043V71.02a.388.388 0 00-.166-.29l-.537-.525-.512-.505-.247-.247c-.086-.08-.154-.166-.252-.185a.332.332 0 00-.278.05c-.074.061-.154.154-.228.221l-.438.444c-.272.284-.561.543-.765.79a.82.82 0 00-.062.456v1.561a.693.693 0 010 .16 1.305 1.305 0 010-.148v-1.807a.537.537 0 01.068-.253c.228-.278.494-.524.771-.814l.432-.444c.08-.074.142-.154.234-.234a.431.431 0 01.358-.068.68.68 0 01.29.21l.253.24.512.506.53.524a.785.785 0 01.136.148.4.4 0 01.068.203v1.956h-1.419v-1.067a.296.296 0 00-.247-.296h-.438a.309.309 0 00-.265.24v1.086h-1.357v-.007zm30.678 40.471c0 .173-4.841.315-10.812.315-5.97 0-10.805-.142-10.805-.315 0-.173 4.835-.314 10.806-.314 5.97 0 10.811.154 10.811.314z" fill="#263238"/><path d="M38.322 85.098l-.117 20.982 27.92.156.117-20.982-27.92-.156z" fill="#DC3001"/><path d="M38.2 106.082l9.825-12.99 5.995 8.197 4.12-4.341 7.98 9.288-27.92-.154zm18.436-14.537a2.195 2.195 0 11-4.39-.036 2.195 2.195 0 014.39.036z" fill="#DC3001"/><path d="M38.202 106.082l9.825-12.99 5.995 8.197 4.12-4.341 7.98 9.288-27.92-.154zm18.436-14.538a2.196 2.196 0 11-4.393-.037 2.196 2.196 0 014.393.037z" fill="#000" opacity=".2"/><path d="M71.407 121.13c0 .179-8.585.321-19.163.321-10.577 0-19.168-.142-19.168-.321 0-.178 8.554-.333 19.168-.333 10.615 0 19.163.161 19.163.333zm0 5.342c0 .178-8.585.32-19.163.32-10.577 0-19.168-.142-19.168-.32 0-.179 8.579-.315 19.168-.315 10.59 0 19.163.142 19.163.315zm0 5.347c0 .172-8.585.314-19.163.314-10.577 0-19.168-.142-19.168-.314 0-.173 8.579-.321 19.168-.321 10.59 0 19.163.142 19.163.321zm0 5.341c0 .173-8.585.315-19.163.315-10.577 0-19.168-.142-19.168-.315 0-.173 8.554-.327 19.168-.327 10.615 0 19.163.154 19.163.327zm0 5.341c0 .179-8.585.321-19.163.321-10.577 0-19.168-.142-19.168-.321 0-.179 8.579-.314 19.168-.314 10.59 0 19.163.142 19.163.314zm-8.244 4.878c0 .086-1.234.167-3.22.222-1.986.056-4.743.093-7.783.093s-5.785-.031-7.777-.093c-1.993-.062-3.22-.136-3.22-.222s1.234-.167 3.22-.222c1.985-.056 4.742-.093 7.777-.093 3.034 0 5.791.031 7.783.093s3.22.16 3.22.222z" fill="#263238"/><path d="M107.186 50.345h-4.428a3.27 3.27 0 00-1.301.142c-.451.18-.824.512-1.055.938-.123.22-.207.46-.247.709a4.77 4.77 0 00-.037.783v.82a4.44 4.44 0 01-.055.846 2.248 2.248 0 01-.987 1.424c-.264.165-.56.27-.87.309H81.233a2.538 2.538 0 01-.617-.062 2.151 2.151 0 01-1.103-.685 2.275 2.275 0 01-.537-1.233 4.808 4.808 0 010-.666v-.66a3.56 3.56 0 00-.13-1.308 2.104 2.104 0 00-.795-1.036 1.999 1.999 0 00-1.27-.351H66.467a6.747 6.747 0 00-5.452 2.417 6.877 6.877 0 00-1.406 2.831c-.068.26-.087.53-.136.796-.05.265 0 .456-.03.684v109.289a7.18 7.18 0 00.27 2.147 6.784 6.784 0 002.634 3.632 7.014 7.014 0 004.317 1.197h44.53a6.72 6.72 0 003.836-1.487 7.263 7.263 0 001.388-1.535 6.787 6.787 0 00.845-1.851 7.281 7.281 0 00.259-2.035v-10.238c0-21.494 0-40.848.037-57.105.037-16.258 0-29.407.037-38.498v-3.22a7 7 0 00-.5-2.75 6.781 6.781 0 00-1.282-2.023 6.579 6.579 0 00-1.542-1.265 6.395 6.395 0 00-2.541-.894 5.498 5.498 0 00-.691-.068h-1.159l-2.695.006z" fill="#FAFAFA"/><path d="M110.879 50.277h.234c.231 0 .462.017.691.05a6.877 6.877 0 014.12 2.146 6.818 6.818 0 011.295 2.035c.357.881.531 1.825.512 2.776v109.048a7.18 7.18 0 01-.259 2.078 6.925 6.925 0 01-.876 1.925 7.375 7.375 0 01-1.418 1.579 6.94 6.94 0 01-3.941 1.529c-1.431.043-2.85 0-4.318 0H66.725a7.263 7.263 0 01-4.44-1.233 7.017 7.017 0 01-2.708-3.738 7.519 7.519 0 01-.283-2.307V57.185c0-.278 0-.555.037-.827.037-.27.067-.548.141-.814a6.914 6.914 0 011.438-2.892 7.092 7.092 0 012.528-1.894 7.204 7.204 0 013.035-.573h10.213c.476-.027.946.106 1.338.376.387.27.68.654.84 1.098a3.7 3.7 0 01.135 1.344v.666a4.47 4.47 0 000 .617c.05.425.226.824.506 1.147a2.066 2.066 0 001.659.673h16.979c.298-.033.584-.132.839-.29a2.19 2.19 0 00.956-1.376 3.8 3.8 0 00.05-.832v-.814a4.81 4.81 0 01.03-.796c.048-.255.135-.5.259-.728.242-.438.628-.78 1.092-.968a3.424 3.424 0 011.356-.142h8.074-7.993c-.45-.04-.903.01-1.333.148-.451.178-.825.51-1.054.938-.125.22-.211.46-.253.709-.019.26-.019.522 0 .783v.814c.014.283-.002.566-.049.845a2.247 2.247 0 01-.993 1.431c-.262.165-.557.27-.864.308H81.287a2.526 2.526 0 01-.617-.067 2.116 2.116 0 01-1.104-.679 2.277 2.277 0 01-.536-1.203 4.903 4.903 0 010-.666v-.505c.036-.44-.01-.884-.136-1.308a2.147 2.147 0 00-.876-1.036 2.079 2.079 0 00-1.27-.351H66.516a6.783 6.783 0 00-5.459 2.423 6.901 6.901 0 00-1.4 2.831c-.067.26-.086.53-.135.796-.05.265 0 .536-.037.814v109.017c-.026.761.068 1.52.277 2.252a6.784 6.784 0 002.634 3.632 6.99 6.99 0 004.317 1.191h44.573a6.744 6.744 0 003.836-1.487 7.108 7.108 0 001.382-1.535 6.59 6.59 0 00.851-1.851c.182-.66.268-1.344.253-2.029v-10.263c0-21.487 0-40.841.031-57.099.03-16.257 0-29.407.043-38.504v-3.238a7.11 7.11 0 00-.494-2.75 6.842 6.842 0 00-1.282-2.03 6.71 6.71 0 00-1.542-1.233 6.788 6.788 0 00-3.232-.962l-.253-.019z" fill="#263238"/><path d="M112.2 61.33s-1.129.068-2.516.074c-1.388.006-2.523 0-2.523 0s1.129-.062 2.516-.074c1.388-.012 2.523-.024 2.523 0zm.013 1.29s-1.129.068-2.523.074c-1.394.006-2.516 0-2.516-.031 0-.03 1.122-.062 2.516-.074 1.394-.012 2.523.006 2.523.03zm.005 1.287s-1.123.068-2.517.074c-1.394.006-2.522 0-2.522 0s1.128-.061 2.522-.074c1.394-.012 2.517-.024 2.517 0zm-45.843 1.475h1.474v-1.227a.42.42 0 01.364-.334 4.7 4.7 0 01.512 0 .413.413 0 01.351.414v1.134l-.049-.049h1.357l-.05.056v-2.122a.426.426 0 00-.19-.32l-.617-.617-.574-.568-.278-.271a.679.679 0 00-.283-.21.345.345 0 00-.309.062c-.08.068-.172.166-.252.246l-.488.494c-.308.314-.616.617-.857.882a.938.938 0 00-.068.506v-.26c0-.099.025-.197.074-.283.253-.309.555-.58.864-.907l.48-.5c.087-.086.161-.166.266-.259a.456.456 0 01.388-.074.709.709 0 01.327.229l.278.277c.191.18.382.37.573.562l.617.616a.926.926 0 01.148.16.388.388 0 01.074.229v2.177h-1.462v-1.19a.32.32 0 00-.27-.327h-.494a.34.34 0 00-.296.265v1.246H66.48l-.105-.037z" fill="#263238"/><path d="M93.808 72.437a4.552 4.552 0 11-9.105.012 4.552 4.552 0 019.105-.012z" fill="#DC3001"/><path d="M90.823 74.275h-3.12v-.351a1.56 1.56 0 013.12 0v.351z" fill="#fff"/><path d="M90.175 71.525a.918.918 0 11-.562-.849.913.913 0 01.562.849z" fill="#fff"/><path d="M100.587 84.464c0 .192-5.396.352-12.05.352-6.656 0-12.059-.16-12.059-.352 0-.19 5.397-.357 12.058-.357s12.051.16 12.051.357z" fill="#263238"/><path d="M63.945 96.44l-.087 15.641 20.815.117.087-15.641-20.815-.116z" fill="#DC3001"/><path d="M63.853 112.082l7.327-9.683 4.465 6.106 3.072-3.232 5.951 6.926-20.815-.117zM77.6 101.246a1.64 1.64 0 11-3.279-.012 1.64 1.64 0 013.279.012z" fill="#DC3001"/><path d="M63.853 112.082l7.328-9.683 4.465 6.106 3.071-3.232 5.952 6.926-20.816-.117zM77.6 101.246a1.64 1.64 0 11-3.278-.012 1.64 1.64 0 013.278.012z" fill="#000" opacity=".2"/><path d="M63.869 116.914l-.202 36.16 48.112.269.202-36.16-48.112-.269z" fill="#DC3001"/><path d="M63.669 153.072l16.93-22.388 10.33 14.123 7.1-7.475 13.753 16.005-48.113-.265zm31.769-25.059a3.787 3.787 0 11-7.574-.038 3.787 3.787 0 017.574.038z" fill="#DC3001"/><path d="M63.667 153.072l16.93-22.388 10.33 14.123 7.1-7.475 13.753 16.005-48.113-.265zm31.772-25.058a3.788 3.788 0 11-7.576-.037 3.788 3.788 0 017.576.037z" fill="#000" opacity=".2"/><path d="M91.422 96.44l-.087 15.641 20.815.117.087-15.641-20.815-.116z" fill="#DC3001"/><path d="M91.329 112.082l7.327-9.683 4.465 6.106 3.078-3.232 5.945 6.926-20.815-.117zm12.107-9.207a1.64 1.64 0 100-3.281 1.64 1.64 0 000 3.281z" fill="#DC3001"/><path d="M91.328 112.082l7.327-9.683 4.465 6.106 3.078-3.232 5.946 6.926-20.816-.117zm12.107-9.207a1.64 1.64 0 10-.001-3.281 1.64 1.64 0 00.001 3.281z" fill="#000" opacity=".2"/><path d="M236.427 56.44h-3.965c-.404-.034-.81.01-1.197.13a1.948 1.948 0 00-1.166 1.48 3.757 3.757 0 00-.03.702v.734c.013.252-.003.505-.05.753a2.036 2.036 0 01-.894 1.289 1.92 1.92 0 01-.777.271H213.12c-.195.009-.39-.01-.58-.055a1.92 1.92 0 01-.986-.617 2.023 2.023 0 01-.481-1.08 4.882 4.882 0 010-.616v-.617a3.095 3.095 0 00-.118-1.172 1.893 1.893 0 00-.709-.931 1.85 1.85 0 00-1.141-.315h-9.183a6.07 6.07 0 00-4.891 2.171 6.17 6.17 0 00-1.351 3.25c0 .204 0 .408-.031.617v98.009c-.017.65.066 1.299.247 1.924a6.075 6.075 0 002.356 3.257 6.292 6.292 0 003.885 1.073h39.96a6.028 6.028 0 003.435-1.332 6.272 6.272 0 001.234-1.382 5.99 5.99 0 00.765-1.677 6.248 6.248 0 00.228-1.82V100.13c0-14.567 0-26.372.037-34.538v-2.88a6.406 6.406 0 00-.45-2.467 6.113 6.113 0 00-2.529-2.948 5.873 5.873 0 00-2.282-.808c-.271-.05-.481-.037-.617-.056h-3.485l-.006.007z" fill="#FAFAFA"/><path d="M236.637 97.94h-34.44v7.038h34.44V97.94z" fill="#EBEBEB"/><path d="M239.82 56.383h.21a6.168 6.168 0 014.317 1.974 6.32 6.32 0 011.166 1.85 6.41 6.41 0 01.456 2.467v97.787a6.391 6.391 0 01-.234 1.85 5.97 5.97 0 01-.784 1.721 6.448 6.448 0 01-1.27 1.418 6.214 6.214 0 01-3.534 1.369c-1.283.037-2.56 0-3.849 0H200.23a6.498 6.498 0 01-3.984-1.097 6.274 6.274 0 01-2.424-3.356 6.74 6.74 0 01-.259-2.066V61.854c0-.247.062-.494.124-.734a6.163 6.163 0 016.278-4.798h9.159c.427-.02.849.099 1.203.339.344.241.605.584.746.98.123.4.165.819.123 1.234v.617a4.672 4.672 0 000 .58c.047.38.208.737.463 1.023.24.288.567.491.931.58.181.046.368.065.555.056h15.228c.266-.03.521-.122.746-.266a1.9 1.9 0 00.857-1.233c.048-.244.064-.492.05-.74v-.734a4.545 4.545 0 01.037-.71 1.964 1.964 0 011.209-1.523 3.172 3.172 0 011.233-.13h7.266-7.192a2.934 2.934 0 00-1.196.13 1.85 1.85 0 00-.944.839c-.108.192-.183.4-.222.617a3.752 3.752 0 000 .703v.734a3.57 3.57 0 01-.049.758 2 2 0 01-.882 1.277 1.85 1.85 0 01-.784.277h-15.264a2.647 2.647 0 01-.58-.055 2.012 2.012 0 01-1.468-1.69 3.969 3.969 0 010-.617v-.616a3.244 3.244 0 00-.117-1.172 1.854 1.854 0 00-1.85-1.234h-9.184a6.336 6.336 0 00-2.67.512 6.029 6.029 0 00-3.479 4.2c-.062.235-.08.475-.123.716-.043.24-.031.48-.031.727v97.713c-.024.681.06 1.361.247 2.017a6.092 6.092 0 002.362 3.256 6.292 6.292 0 003.885 1.073h39.954a6.022 6.022 0 003.441-1.332 6.591 6.591 0 001.234-1.375 6.2 6.2 0 00.765-1.678 6.755 6.755 0 00.228-1.85v-9.048c0-19.267 0-36.623.031-51.191.03-14.567 0-26.372.03-34.538v-2.886a6.291 6.291 0 00-.444-2.467 6.091 6.091 0 00-1.153-1.813 5.699 5.699 0 00-1.382-1.135 5.846 5.846 0 00-2.275-.802 4.036 4.036 0 00-.617-.056l-.222-.006z" fill="#263238"/><path d="M240.997 66.296s-1.011.055-2.257.067c-1.246.013-2.258 0-2.258-.03 0-.031 1.012-.056 2.258-.068 1.246-.013 2.257.006 2.257.03zm.013 1.152c0 .031-1.012.056-2.258.068-1.246.012-2.257 0-2.263-.03-.006-.032 1.011-.056 2.263-.062 1.252-.007 2.258 0 2.258.024zm.005 1.16s-1.006.055-2.258.068c-1.252.012-2.257 0-2.257-.031 0-.03 1.011-.055 2.257-.068 1.246-.012 2.258.006 2.258.031zm-41.1 1.319h1.32v-1.104a.366.366 0 01.321-.296h.462a.372.372 0 01.315.37v1.017l-.043-.043h1.233l-.049.05v-1.9a.386.386 0 00-.173-.29l-.53-.524-.512-.506-.253-.247c-.087-.08-.148-.166-.253-.185a.322.322 0 00-.278.05c-.074.061-.154.154-.228.222l-.432.444c-.277.284-.561.543-.77.79a.87.87 0 00-.062.456v1.719a.61.61 0 010-.148v-1.805a.452.452 0 01.068-.254c.222-.277.493-.524.771-.814.135-.148.283-.296.431-.444.074-.082.152-.16.235-.234a.42.42 0 01.351-.068c.116.04.216.113.29.21l.253.24.512.506.537.524c.049.045.095.095.135.148a.4.4 0 01.062.204v1.949h-1.326v-1.067a.292.292 0 00-.069-.194.294.294 0 00-.178-.102h-.444a.3.3 0 00-.168.075.3.3 0 00-.091.159v1.116h-1.344l-.093-.024z" fill="#263238"/><path d="M236.709 108.432H202.27v7.037h34.439v-7.037zm0 10.207H202.27v7.037h34.439v-7.037z" fill="#EBEBEB"/><path d="M228.434 139.658h-17.269a3.519 3.519 0 010-7.037h17.269a3.513 3.513 0 013.516 3.516 3.524 3.524 0 01-3.516 3.521z" fill="#DC3001"/><path d="M230.512 90.668c0 .173-4.835.315-10.805.315s-10.806-.142-10.806-.315c0-.172 4.836-.314 10.806-.314 5.97 0 10.805.142 10.805.314z" fill="#263238"/><path d="M208.198 49.162h-4.428a3.275 3.275 0 00-1.332.141c-.45.18-.823.512-1.055.938-.12.221-.203.46-.246.71a4.086 4.086 0 00-.031.789v.814a4.35 4.35 0 01-.056.845 2.237 2.237 0 01-.987 1.424 2.12 2.12 0 01-.869.309h-16.973a2.54 2.54 0 01-.617-.062 2.153 2.153 0 01-1.104-.684 2.326 2.326 0 01-.537-1.234 6.167 6.167 0 010-.666v-.66a3.544 3.544 0 00-.129-1.308 2.127 2.127 0 00-.79-1.036 2.053 2.053 0 00-1.276-.351H167.48a6.744 6.744 0 00-5.452 2.417 6.885 6.885 0 00-1.406 2.831c-.068.266-.086.53-.136.796-.049.265 0 .456 0 .684v109.289a6.99 6.99 0 00.278 2.147 6.745 6.745 0 002.627 3.632 7.007 7.007 0 004.317 1.197h44.53a6.72 6.72 0 003.836-1.486 7.14 7.14 0 001.388-1.536 6.794 6.794 0 001.104-3.886v-10.225c0-21.494 0-40.848.031-57.106.031-16.257 0-29.407.037-38.498v-3.22a7 7 0 00-.5-2.75 6.781 6.781 0 00-1.282-2.023 6.787 6.787 0 00-4.083-2.158 5.256 5.256 0 00-.691-.062h-1.16l-2.72-.012z" fill="#FAFAFA"/><path d="M211.893 49.254h.235c.231.005.461.024.69.055.906.11 1.779.41 2.56.882.579.33 1.105.746 1.56 1.234.55.596.988 1.285 1.295 2.035.357.879.531 1.82.512 2.77v109.047a7.194 7.194 0 01-.259 2.085 6.846 6.846 0 01-.875 1.924 7.306 7.306 0 01-1.419 1.579 6.939 6.939 0 01-3.941 1.53c-1.431.037-2.849 0-4.286 0H167.74a7.188 7.188 0 01-4.441-1.234 6.98 6.98 0 01-2.707-3.731 7.533 7.533 0 01-.284-2.313V56.143c0-.278 0-.555.037-.833.037-.277.074-.543.142-.808a6.972 6.972 0 011.437-2.892 7.096 7.096 0 012.528-1.894 7.21 7.21 0 013.035-.573H177.7c.478-.026.95.106 1.345.376.383.272.674.655.832 1.098.131.435.177.891.136 1.344v.666a4.665 4.665 0 000 .648c.054.421.23.818.506 1.14.276.308.64.523 1.042.618.202.05.409.072.617.061h17.035c.298-.032.584-.132.839-.29a2.19 2.19 0 00.956-1.375 4.22 4.22 0 00.055-.833v-.814a4.32 4.32 0 01.037-.795 2.36 2.36 0 01.253-.734 2.199 2.199 0 011.092-.962 3.437 3.437 0 011.356-.142h8.074-8.037c-.449-.04-.902.01-1.332.148-.451.177-.825.51-1.054.937-.126.22-.21.46-.247.71-.034.26-.047.521-.037.783v.814c.014.283-.002.566-.049.845a2.237 2.237 0 01-.987 1.425 2.076 2.076 0 01-.87.308h-17.01a2.159 2.159 0 01-1.721-.74 2.272 2.272 0 01-.536-1.234 4.936 4.936 0 010-.666v-.666a3.566 3.566 0 00-.13-1.307 2.168 2.168 0 00-.795-1.037 2.037 2.037 0 00-1.271-.351H167.53a7.01 7.01 0 00-2.979.567 6.778 6.778 0 00-3.879 4.688c-.068.259-.087.53-.136.795-.049.266-.031.537-.037.814v108.993a7.3 7.3 0 00.278 2.258 6.783 6.783 0 002.633 3.632 7.004 7.004 0 004.317 1.191h44.536a6.73 6.73 0 003.849-1.302c.533-.441 1-.956 1.388-1.529a6.814 6.814 0 00.844-1.851c.182-.662.27-1.348.26-2.035V155.07c0-21.488 0-40.847.03-57.099.031-16.251.031-29.413.044-38.504v-3.22a6.984 6.984 0 00-.494-2.744 6.846 6.846 0 00-1.283-2.03c-.45-.484-.969-.9-1.542-1.233a6.555 6.555 0 00-2.541-.9 5.209 5.209 0 00-.69-.062l-.235-.024z" fill="#263238"/><path d="M213.212 60.288s-1.128.062-2.516.074c-1.388.012-2.541-.006-2.541-.006s1.128-.062 2.522-.074c1.394-.013 2.535-.025 2.535.006zm.012 1.302s-1.129.061-2.523.073c-1.393.013-2.516 0-2.516 0s1.129-.061 2.516-.074c1.388-.012 2.523-.043 2.523 0zm.008 1.275c0 .031-1.123.062-2.516.075-1.394.012-2.517 0-2.517 0s1.123-.062 2.517-.075c1.393-.012 2.516-.043 2.516 0zm-45.846 1.475h1.474l-.031.03v-1.227a.425.425 0 01.364-.333h.512a.422.422 0 01.352.42v1.135l-.05-.05h1.357l-.049.056v-2.165a.424.424 0 00-.191-.32l-.617-.617-.574-.568-.277-.271c-.093-.093-.173-.191-.284-.21a.362.362 0 00-.308.056c-.08.073-.173.172-.253.252l-.487.488c-.309.32-.617.616-.858.888a.933.933 0 00-.067.505v1.74c.006.06.006.12 0 .179V62.15a.549.549 0 01.08-.29c.246-.302.549-.58.857-.906l.481-.493c.084-.091.172-.178.265-.26a.467.467 0 01.395-.08.79.79 0 01.321.235l.277.271.58.567.617.58c.056.051.107.107.154.167a.43.43 0 01.068.228v2.177h-1.462v-1.184a.324.324 0 00-.271-.333h-.494a.326.326 0 00-.29.265 3.455 3.455 0 000 .432v.814h-1.591z" fill="#263238"/><path d="M201.584 91.509c.963-6.22-3.3-12.044-9.52-13.007-6.221-.963-12.044 3.299-13.007 9.52-.963 6.22 3.299 12.044 9.519 13.007 6.221.963 12.045-3.3 13.008-9.52z" fill="#DC3001"/><path d="M194.242 94.37h-7.821v-.963a3.908 3.908 0 013.911-3.91 3.911 3.911 0 013.91 3.91v.962z" fill="#fff"/><path d="M190.332 89.774a2.3 2.3 0 100-4.6 2.3 2.3 0 000 4.6z" fill="#fff"/><path d="M208.433 114.217h-38.412v7.845h38.412v-7.845zm0 11.385h-38.412v7.845h38.412v-7.845z" fill="#EBEBEB"/><path d="M199.2 149.038h-19.279a3.924 3.924 0 01-2.776-1.147 3.922 3.922 0 011.275-6.399 3.922 3.922 0 011.501-.299H199.2a3.922 3.922 0 013.624 5.424 3.932 3.932 0 01-2.123 2.123 3.92 3.92 0 01-1.501.298z" fill="#DC3001"/><path d="M201.599 109.492c0 .192-5.397.352-12.052.352-6.654 0-12.057-.16-12.057-.352 0-.191 5.396-.357 12.057-.357 6.661 0 12.052.16 12.052.357z" fill="#263238"/><path d="M175.326 119.867h-1.708a.288.288 0 01-.214-.085.286.286 0 01-.065-.096.29.29 0 01-.024-.115 1.134 1.134 0 011.129-1.135h.037c.301 0 .59.12.803.332.212.213.332.502.332.803a.299.299 0 01-.29.296z" fill="#E0E0E0"/><path d="M175.153 117.844a.677.677 0 01-.811.665.678.678 0 01.132-1.343.666.666 0 01.482.196.67.67 0 01.197.482zm.332 11.804h-2.023v1.431h2.023v-1.431z" fill="#E0E0E0"/><path d="M175.713 129.956h-.678v-.444a.574.574 0 10-1.147 0v.444h-.679v-.444a1.251 1.251 0 012.504 0v.444z" fill="#E0E0E0"/><path d="M167.517 25.084h-6.593a4.97 4.97 0 00-1.986.216 3.087 3.087 0 00-1.567 1.393 3.268 3.268 0 00-.37 1.055 6.09 6.09 0 00-.037 1.153v1.234a5.36 5.36 0 01-.08 1.233 3.326 3.326 0 01-1.468 2.122 3.114 3.114 0 01-1.295.463c-.469.037-.925 0-1.4 0h-23.924a3.626 3.626 0 01-.956-.093 3.14 3.14 0 01-1.641-1.017 3.3 3.3 0 01-.801-1.79 6.638 6.638 0 01-.037-.986v-.937a5.25 5.25 0 00-.198-1.943 3.172 3.172 0 00-1.178-1.542 3.083 3.083 0 00-1.899-.524h-15.209a10.095 10.095 0 00-8.123 3.602 10.212 10.212 0 00-2.09 4.218c-.1.383-.13.79-.205 1.184-.073.395-.03.673-.043 1.012v162.576a10.564 10.564 0 00.407 3.201 10.119 10.119 0 003.917 5.403 10.44 10.44 0 006.457 1.776h59.961c2.128 0 4.268.037 6.371 0a9.989 9.989 0 005.711-2.214 10.777 10.777 0 002.06-2.282 9.963 9.963 0 001.265-2.788c.272-.985.401-2.005.382-3.028V182.56c0-31.991.031-60.794.043-84.99.013-24.194.05-43.789.062-57.302v-4.792a10.496 10.496 0 00-.74-4.089 10.076 10.076 0 00-1.912-3.016 9.6 9.6 0 00-2.294-1.85 9.733 9.733 0 00-3.781-1.32 8.263 8.263 0 00-1.03-.093h-1.727l-4.052-.024z" fill="#FAFAFA"/><path d="M173.049 25.12h.352c.342.002.684.026 1.023.074a9.666 9.666 0 013.806 1.314 9.82 9.82 0 012.313 1.85 10.092 10.092 0 011.93 3.029c.525 1.306.783 2.705.759 4.113v162.003a10.925 10.925 0 01-.389 3.084 10.36 10.36 0 01-1.295 2.856 10.91 10.91 0 01-2.109 2.343 10.26 10.26 0 01-5.859 2.276c-2.122.062-4.238 0-6.372 0h-59.745a10.74 10.74 0 01-6.605-1.85 10.364 10.364 0 01-4.015-5.551 11.156 11.156 0 01-.426-3.429V35.34c0-.407.031-.82.056-1.234.025-.413.099-.814.203-1.233a10.485 10.485 0 012.134-4.317 10.29 10.29 0 018.271-3.664h15.166a3.237 3.237 0 011.998.555 3.354 3.354 0 011.234 1.634c.192.648.261 1.326.203 1.999v.987a7.111 7.111 0 000 .968c.079.628.343 1.219.759 1.696a3 3 0 001.548.962c.299.068.606.1.913.093h25.237c.438-.052.859-.2 1.234-.432a3.179 3.179 0 001.418-2.041c.073-.407.1-.821.081-1.234v-1.234a6.821 6.821 0 01.049-1.178 3.41 3.41 0 01.382-1.085 3.205 3.205 0 011.622-1.43 5.042 5.042 0 012.011-.217h11.996-11.996a5.048 5.048 0 00-1.98.21 3.147 3.147 0 00-1.566 1.394c-.18.328-.303.685-.364 1.054a6.14 6.14 0 00-.05 1.166v1.234c.021.413-.006.826-.08 1.233a3.31 3.31 0 01-1.468 2.122c-.39.245-.831.4-1.289.456-.468.043-.925 0-1.393 0h-23.739c-.32.01-.639-.023-.95-.099a3.167 3.167 0 01-1.641-1.011 3.39 3.39 0 01-.801-1.782 7.478 7.478 0 010-.993v-.987a5.403 5.403 0 00-.198-1.943 3.153 3.153 0 00-1.178-1.536 3.083 3.083 0 00-1.893-.524h-15.172a10.063 10.063 0 00-8.099 3.596 10.078 10.078 0 00-2.084 4.206c-.105.389-.136.79-.204 1.184-.068.395-.049.802-.055 1.234v162.126c-.033 1.131.106 2.26.413 3.349a10.095 10.095 0 003.91 5.397 10.406 10.406 0 006.439 1.77h59.77c2.128 0 4.262.037 6.359 0a9.94 9.94 0 005.692-2.208 10.623 10.623 0 002.06-2.282 9.868 9.868 0 001.234-2.782 10.38 10.38 0 00.382-3.016V182.3c0-31.923.031-60.676.05-84.828.018-24.152.043-43.691.055-57.198v-4.78a10.41 10.41 0 00-.74-4.083 10.012 10.012 0 00-1.906-3.01 9.754 9.754 0 00-2.288-1.85 9.623 9.623 0 00-3.775-1.332 8.266 8.266 0 00-1.023-.093l-.315-.006z" fill="#263238"/><path d="M175.011 41.538c0 .044-1.672.093-3.738.112-2.066.018-3.744 0-3.744-.05s1.672-.092 3.738-.11c2.066-.02 3.744.005 3.744.048zm.017 1.918c0 .043-1.678.093-3.744.105-2.066.013-3.743 0-3.743-.043s1.677-.093 3.743-.111c2.066-.019 3.744 0 3.744.05zm.012 1.912c0 .044-1.671.093-3.737.112-2.066.018-3.744 0-3.744-.05s1.671-.092 3.738-.11c2.066-.02 3.743.005 3.743.048zm-68.106 2.183h.592l1.598-.037-.044.05v-1.832a.617.617 0 01.537-.488h.765a.615.615 0 01.524.617v1.69l-.074-.074h2.017l-.08.08v-3.133a.67.67 0 00-.284-.481l-.882-.87-.894-.906-.414-.407c-.141-.136-.252-.278-.413-.309a.556.556 0 00-.462.087c-.124.105-.253.253-.377.37l-.721.727c-.457.475-.932.907-1.277 1.314-.1.238-.134.498-.099.753v2.59c.009.086.009.173 0 .259v-3.232a.758.758 0 01.111-.425c.37-.457.815-.864 1.277-1.345l.716-.74c.129-.123.234-.253.388-.382a.706.706 0 01.586-.117c.189.067.356.187.481.345l.413.407c.284.271.568.555.858.839l.783.863c.081.075.156.158.222.247.068.1.106.218.111.34v3.206h-2.171v-1.764a.492.492 0 00-.407-.487h-.734a.503.503 0 00-.432.395v1.85h-2.091a.617.617 0 01-.123 0z" fill="#263238"/><path d="M169.2 57.672h-59.85a5.421 5.421 0 00-5.421 5.422v2.016a5.421 5.421 0 005.421 5.422h59.85a5.421 5.421 0 005.421-5.422v-2.016a5.421 5.421 0 00-5.421-5.422z" fill="#F5F5F5"/><path d="M169.195 70.532l.407-.03a5.377 5.377 0 002.868-1.123 5.357 5.357 0 001.61-2.041 5.08 5.08 0 00.425-1.5c.055-.575.071-1.154.05-1.732.025-.63-.002-1.262-.08-1.888a5.425 5.425 0 00-.704-1.85 5.346 5.346 0 00-3.564-2.467c-.819-.1-1.644-.131-2.467-.092h-2.609l-55.786.037a5.298 5.298 0 00-5.267 4.847c-.049.617 0 1.32 0 1.974a6.163 6.163 0 00.198 1.912 5.371 5.371 0 002.195 2.997c.52.345 1.099.592 1.709.728a8.14 8.14 0 001.85.142h36.068l16.905.043h5.791-5.791l-16.905.037h-36.074a8.089 8.089 0 01-1.918-.142 5.553 5.553 0 01-4.096-3.91 6.354 6.354 0 01-.209-1.98v-1.992a5.55 5.55 0 015.55-5.094l55.786.037h2.609c.824-.032 1.649.003 2.467.105a5.516 5.516 0 014.373 4.508c.076.632.1 1.27.074 1.906a14.74 14.74 0 01-.062 1.745 5.436 5.436 0 01-2.103 3.59 5.558 5.558 0 01-1.733.882 5.43 5.43 0 01-1.178.203c-.247.154-.389.148-.389.148z" fill="#263238"/><path d="M170.286 63.797s0-.204-.124-.555a2.304 2.304 0 00-.851-1.234 2.213 2.213 0 00-3.536 1.776 2.21 2.21 0 001.221 1.98 2.211 2.211 0 002.315-.203 2.29 2.29 0 00.851-1.234c.105-.345.099-.555.124-.555.024 0 0 .05 0 .148.006.145-.007.29-.037.432a2.301 2.301 0 01-.845 1.344 2.404 2.404 0 01-2.301.377 2.466 2.466 0 010-4.601 2.419 2.419 0 012.301.376c.431.335.73.81.845 1.344.03.142.043.287.037.432.012.115.012.173 0 .173z" fill="#263238"/><path d="M171.569 67.812a4.7 4.7 0 01-1.141-1.036 4.555 4.555 0 01-.944-1.233 4.66 4.66 0 011.141 1.042c.382.352.702.767.944 1.227z" fill="#263238"/><path d="M113.47 62.822h-1.233v-.326h2.899v.326h-1.234v3.263h-.382l-.05-3.262zm4.238 2.023h-2.258a1.013 1.013 0 00.336.69 1 1 0 00.725.248 1.05 1.05 0 00.827-.358l.203.24a1.423 1.423 0 01-2.467-.937 1.309 1.309 0 011.32-1.37 1.279 1.279 0 011.228.848c.06.167.085.345.073.522l.013.117zm-2.258-.27h1.912a.957.957 0 00-1.912 0zm4.645 1.504l-.857-1.129-.864 1.129h-.407l1.067-1.406-1.017-1.314h.413l.808 1.054.808-1.054h.401l-1.012 1.314 1.073 1.381-.413.025zm2.441-.173a.878.878 0 01-.573.191.716.716 0 01-.79-.783v-1.628h-.481v-.309h.5v-.617h.364v.617h.82v.309h-.82v1.603a.43.43 0 00.469.487.614.614 0 00.4-.135l.111.265z" fill="#E0E0E0"/><path d="M152.148 82.78c0 .075-5.175.13-11.552.13s-11.558-.055-11.558-.13c0-.073 5.175-.135 11.558-.135s11.552.062 11.552.136z" fill="#DC3001"/><path d="M170.577 87.523c0 .074-9.301.13-20.767.13-11.465 0-20.772-.056-20.772-.13 0-.074 9.301-.135 20.772-.135 11.472 0 20.767.061 20.767.135zm-.488 3.387c0 .074-9.189.13-20.525.13-11.336 0-20.526-.056-20.526-.13 0-.075 9.19-.13 20.526-.13s20.525.055 20.525.13zm-16.825 3.231c0 .074-5.427.13-12.119.13s-12.119-.056-12.119-.13c0-.074 5.427-.13 12.119-.13s12.119.056 12.119.13z" fill="#263238"/><path d="M152.148 108.561c0 .068-5.175.129-11.552.129s-11.558-.061-11.558-.129 5.175-.136 11.558-.136 11.552.037 11.552.136z" fill="#DC3001"/><path d="M170.577 113.304c0 .068-9.301.129-20.767.129-11.465 0-20.772-.061-20.772-.129s9.301-.136 20.772-.136c11.472 0 20.767.062 20.767.136zm-.488 3.386c0 .074-9.189.129-20.525.129-11.336 0-20.526-.055-20.526-.129 0-.074 9.19-.136 20.526-.136s20.525.062 20.525.136zm-16.825 3.232c0 .067-5.427.129-12.119.129s-12.119-.062-12.119-.129c0-.068 5.427-.136 12.119-.136s12.119.062 12.119.136z" fill="#263238"/><path d="M152.148 134.367c0 .074-5.175.136-11.552.136s-11.558-.062-11.558-.136c0-.074 5.175-.13 11.558-.13s11.552.031 11.552.13z" fill="#DC3001"/><path d="M170.577 139.078c0 .074-9.301.136-20.767.136-11.465 0-20.772-.062-20.772-.136 0-.074 9.301-.129 20.772-.129 11.472 0 20.767.061 20.767.129zm-.488 3.393c0 .067-9.189.129-20.525.129-11.336 0-20.526-.062-20.526-.129 0-.068 9.19-.136 20.526-.136s20.525.049 20.525.136zm-16.825 3.225c0 .074-5.427.136-12.119.136s-12.119-.062-12.119-.136c0-.074 5.427-.13 12.119-.13s12.119.062 12.119.13z" fill="#263238"/><path d="M152.148 160.116c0 .074-5.175.129-11.552.129s-11.558-.055-11.558-.129c0-.074 5.175-.13 11.558-.13s11.552.056 11.552.13z" fill="#DC3001"/><path d="M170.577 164.859c0 .074-9.301.129-20.767.129-11.465 0-20.772-.055-20.772-.129 0-.074 9.301-.13 20.772-.13 11.472 0 20.767.056 20.767.13zm-.488 3.386c0 .074-9.189.135-20.525.135-11.336 0-20.526-.061-20.526-.135 0-.074 9.19-.13 20.526-.13s20.525.062 20.525.13zm-16.825 3.231c0 .074-5.427.136-12.119.136s-12.119-.062-12.119-.136c0-.074 5.427-.129 12.119-.129s12.119.055 12.119.129z" fill="#263238"/><path d="M152.148 185.716c0 .068-5.175.13-11.552.13s-11.558-.062-11.558-.13 5.175-.135 11.558-.135 11.552.061 11.552.135z" fill="#DC3001"/><path d="M170.577 190.491c0 .068-9.301.129-20.767.129-11.465 0-20.772-.061-20.772-.129s9.301-.136 20.772-.136c11.472 0 20.767.031 20.767.136zm-.488 3.355c0 .074-9.189.129-20.525.129-11.336 0-20.526-.055-20.526-.129 0-.074 9.19-.13 20.526-.13s20.525.056 20.525.13zm-16.825 3.232c0 .074-5.427.129-12.119.129s-12.119-.055-12.119-.129c0-.074 5.427-.136 12.119-.136s12.119.062 12.119.136z" fill="#263238"/><path d="M104.287 82.587l-.079 14.148 18.823.105.079-14.148-18.823-.105z" fill="#DC3001"/><path d="M104.206 96.738l6.624-8.758 4.046 5.526 2.775-2.93 5.385 6.267-18.83-.105zm12.435-9.807a1.485 1.485 0 01-2.542 1.047 1.49 1.49 0 01.239-2.288 1.486 1.486 0 011.395-.13 1.485 1.485 0 01.908 1.371z" fill="#DC3001"/><path d="M104.208 96.738l6.624-8.757 4.046 5.526 2.775-2.93 5.385 6.266-18.83-.105zm12.433-9.808a1.485 1.485 0 01-2.542 1.047 1.489 1.489 0 01.239-2.288 1.486 1.486 0 011.395-.13 1.487 1.487 0 01.798.805c.074.18.111.372.11.567z" fill="#000" opacity=".2"/><path d="M104.293 108.041l-.079 14.148 18.823.105.079-14.148-18.823-.105z" fill="#DC3001"/><path d="M104.206 122.185l6.624-8.758 4.046 5.527 2.775-2.924 5.385 6.266-18.83-.111zm12.435-9.8a1.489 1.489 0 01-1.784 1.45 1.49 1.49 0 01-1.162-1.176 1.487 1.487 0 112.946-.274z" fill="#DC3001"/><path d="M104.208 122.184l6.623-8.757 4.046 5.526 2.776-2.924 5.384 6.266-18.829-.111zm12.433-9.8c-.001.294-.09.582-.254.826a1.49 1.49 0 01-2.29.212 1.487 1.487 0 112.544-1.038z" fill="#000" opacity=".2"/><path d="M104.287 133.494l-.079 14.149 18.823.105.079-14.148-18.823-.106z" fill="#DC3001"/><path d="M104.206 147.639l6.624-8.758 4.046 5.526 2.775-2.929 5.385 6.266-18.83-.105zm12.435-9.801a1.49 1.49 0 01-.925 1.37 1.485 1.485 0 01-1.377-2.618c.246-.162.534-.247.828-.244a1.494 1.494 0 011.474 1.492z" fill="#DC3001"/><path d="M104.208 147.639l6.623-8.758 4.046 5.526 2.776-2.929 5.384 6.266-18.829-.105zm12.433-9.8a1.489 1.489 0 01-1.784 1.45 1.49 1.49 0 01-1.162-1.176 1.487 1.487 0 011.472-1.767 1.496 1.496 0 011.474 1.493z" fill="#000" opacity=".2"/><path d="M104.293 158.942l-.079 14.148 18.823.105.079-14.148-18.823-.105z" fill="#DC3001"/><path d="M104.206 173.092l6.624-8.758 4.046 5.526 2.775-2.93 5.385 6.267-18.83-.105zm12.435-9.806a1.487 1.487 0 11-1.474-1.487 1.483 1.483 0 011.474 1.487z" fill="#DC3001"/><path d="M104.208 173.092l6.623-8.758 4.046 5.526 2.776-2.93 5.384 6.267-18.829-.105zm12.433-9.806a1.488 1.488 0 01-1.781 1.457 1.49 1.49 0 01-1.164-1.174 1.49 1.49 0 01.642-1.524 1.49 1.49 0 012.193.675c.074.179.111.372.11.566z" fill="#000" opacity=".2"/><path d="M104.285 184.272l-.079 14.148 18.823.105.079-14.148-18.823-.105z" fill="#DC3001"/><path d="M104.206 198.416l6.624-8.758 4.046 5.526 2.775-2.923 5.385 6.26-18.83-.105zm12.435-9.775a1.489 1.489 0 01-.925 1.37 1.488 1.488 0 01-2.021-1.097 1.485 1.485 0 012.516-1.322c.276.279.43.656.43 1.049z" fill="#DC3001"/><path d="M104.208 198.416l6.623-8.758 4.046 5.527 2.776-2.924 5.384 6.26-18.829-.105zm12.433-9.774a1.489 1.489 0 01-.925 1.369 1.488 1.488 0 01-2.021-1.096 1.484 1.484 0 01.644-1.522 1.486 1.486 0 012.302 1.249z" fill="#000" opacity=".2"/><path d="M252.327 59.873a6.711 6.711 0 10-13.068-3.067 6.711 6.711 0 0013.068 3.067z" fill="#DC3001"/><path d="M245.382 60.528a.288.288 0 01-.191-.075l-2.264-1.85a.31.31 0 01-.043-.438.31.31 0 01.438-.043l2.017 1.665 2.868-3.509a.32.32 0 01.438-.043.31.31 0 01.043.432l-3.084 3.75a.292.292 0 01-.21.11h-.012z" fill="#fff"/><path d="M216.832 58.345a9.202 9.202 0 100-18.404 9.202 9.202 0 000 18.404z" fill="#DC3001"/><path d="M216.279 52.338a.616.616 0 01-.388-.135l-3.084-2.554a.617.617 0 01.1-1.017.614.614 0 01.683.068l2.615 2.152 3.799-4.681a.62.62 0 01.864-.087.608.608 0 01.224.417.61.61 0 01-.138.453l-4.194 5.138a.654.654 0 01-.419.222l-.062.024z" fill="#fff"/><path d="M177.805 174.097a19.168 19.168 0 01-13.568-22.203c-.173.468-.34.949-.481 1.443a19.182 19.182 0 0036.894 10.485c.142-.494.253-.993.351-1.487a19.166 19.166 0 01-23.196 11.762z" fill="#263238"/><path d="M187.26 140.2a19.184 19.184 0 0113.568 22.203c.173-.475.339-.956.475-1.449a19.174 19.174 0 00-13.173-23.788 19.176 19.176 0 00-14.623 1.721 19.16 19.16 0 00-9.092 11.582c-.142.493-.253.987-.352 1.486a19.176 19.176 0 019.3-10.413 19.173 19.173 0 0113.897-1.342z" fill="#455A64"/><path d="M201.513 160.83s0-.105.056-.308c.055-.204.105-.512.185-.888.043-.198.092-.42.148-.66.055-.241.061-.512.098-.802.099-.666.15-1.338.155-2.01a18.373 18.373 0 00-.66-5.471 19.128 19.128 0 00-9.93-12.138 18.52 18.52 0 00-2.245-.925c-.389-.123-.777-.278-1.178-.382l-1.233-.284c-.204-.043-.408-.099-.617-.13l-.617-.08c-.426-.049-.851-.117-1.289-.148a20.14 20.14 0 00-2.646 0 20.22 20.22 0 00-2.683.37c-.444.105-.882.241-1.332.358-.449.12-.89.271-1.32.45-.884.333-1.745.725-2.578 1.172a21.21 21.21 0 00-2.393 1.616 18.385 18.385 0 00-4.046 4.317 18.89 18.89 0 00-3.287 11.546 18.427 18.427 0 001.184 5.785 20.34 20.34 0 001.19 2.627 20.9 20.9 0 001.573 2.356c.271.381.567.741.888 1.08.321.333.617.684.944 1.005a20.458 20.458 0 002.091 1.727 20.71 20.71 0 002.239 1.412c.382.198.783.364 1.171.549l.586.265c.198.087.401.142.617.216l1.197.407c.394.118.808.198 1.202.296.788.186 1.587.316 2.393.389a19.164 19.164 0 0014.833-5.101 18.18 18.18 0 003.436-4.317c.351-.575.66-1.175.925-1.795.123-.265.246-.505.339-.734l.222-.616c.136-.364.234-.654.308-.858.074-.203.117-.289.117-.289s0 .104-.086.302c-.086.197-.16.493-.277.869a15.2 15.2 0 01-.21.617c-.08.216-.21.481-.327.746a13.264 13.264 0 01-.9 1.82 18.445 18.445 0 01-3.423 4.373 19.263 19.263 0 01-14.981 5.23 17.58 17.58 0 01-2.424-.389c-.407-.099-.821-.173-1.234-.296l-1.233-.407c-.198-.074-.407-.13-.617-.216l-.617-.271c-.395-.185-.802-.352-1.19-.555a21.597 21.597 0 01-2.27-1.413 20.385 20.385 0 01-2.128-1.751c-.333-.327-.616-.679-.962-1.018a10.02 10.02 0 01-.9-1.092 21.246 21.246 0 01-1.604-2.393 22.398 22.398 0 01-1.233-2.67 18.637 18.637 0 01-1.234-5.884 19.04 19.04 0 013.337-11.718 18.643 18.643 0 014.12-4.367c.773-.6 1.587-1.146 2.436-1.634a22.973 22.973 0 012.615-1.191c.438-.179.887-.33 1.345-.45.456-.117.9-.259 1.356-.358a19.877 19.877 0 015.409-.376c.444.031.876.105 1.314.154l.617.081c.216.03.425.092.617.141l1.233.284c.407.111.802.265 1.197.395a18.46 18.46 0 012.269.95 19.265 19.265 0 019.985 12.335c.489 1.795.697 3.655.617 5.514a13.3 13.3 0 01-.185 2.022c-.043.29-.068.562-.117.808-.049.247-.111.457-.154.654-.099.378-.173.674-.222.888.049.161.018.259.018.259zm-7.29 10.936c.247.166 18.404 16.911 25.09 23.177a2.904 2.904 0 004.015-.037 2.91 2.91 0 00.642-3.263 2.904 2.904 0 00-.679-.955l-24.923-23.018-4.145 4.096z" fill="#263238"/><path d="M100.934 110.997l.37-1.456a5.56 5.56 0 00-.062-2.905l-1.523-5.082a1.912 1.912 0 00-.876-1.104c-1.16-.666-3.448-1.949-3.645-1.788-1.4 1.165 1.733 3.219 1.733 3.219s1.233 1.351.253 2.35c-1.092 1.135-3.133-1.357-3.133-1.357s.104-.259.203-.21a4.051 4.051 0 001.968.845v-1.653l-1.85-1.159a1.853 1.853 0 00-1.376-.247l-.617.142a1.616 1.616 0 00-1.011.685l-.617.913-.26.351a1.162 1.162 0 00-.123 1.172l.297.617-.408.567a1.747 1.747 0 00-.203 1.628l3.127 4.318 4.626 7.555 5.008-5.378-1.881-2.023z" fill="#FFBE9D"/><path d="M91.238 106.532a.976.976 0 01-.166-.315.87.87 0 01.148-.802v-.037l-.05-.111a7.482 7.482 0 00-.672-1.233c.15.44.338.868.561 1.276l.056.111v-.067a.904.904 0 00-.136.906c.105.21.253.29.26.272zm.382-5.607a1.408 1.408 0 00-.098.864c.17.706.456 1.379.845 1.992.121.18.218.375.29.58.054.201.067.411.037.616-.06.313-.021.636.111.926.153.251.365.463.617.616a1.019 1.019 0 01-.722-.567 1.511 1.511 0 01-.166-.999c.016-.184.002-.37-.044-.549a2.633 2.633 0 00-.277-.537 5.84 5.84 0 01-.814-2.066c-.093-.592.191-.906.222-.876zm2.468 1.874a3.904 3.904 0 00-.234-.69c-.192-.358-.395-.617-.352-.666.043-.05.315.185.524.579.21.395.124.802.062.777z" fill="#EB996E"/><path d="M102.648 136.839l1.906 2.393 9.905-11.897-12.97-17.059-6.408 5.026 7.567 21.537z" fill="#455A64"/><path d="M146.709 251.956l.82 19.329 10.442-.234-.783-19.366-10.479.271z" fill="#DC3001"/><path d="M152.648 270.44c.086 0-.074-4.238-.358-9.455-.283-5.218-.617-9.443-.678-9.437-.062.007.074 4.237.364 9.455s.592 9.443.672 9.437z" fill="#263238"/><path d="M147.473 269.952l10.442-.265.055 1.363-10.441.235-.056-1.333zm10.245-5.087s-.08-.167-.284-.413a7.426 7.426 0 00-2.713-2.005 5.556 5.556 0 00-6.439 1.511 4.738 4.738 0 00-.716 1.166c-.076.15-.124.313-.142.481.301-.528.643-1.031 1.024-1.505a5.548 5.548 0 013.836-1.782 6.322 6.322 0 014.034 1.363c.907.666 1.357 1.221 1.4 1.184z" fill="#263238"/><path d="M157.409 257.192l.087 2.134-10.467.185-.068-1.603 10.448-.716z" fill="#000" opacity=".3"/><path d="M122.138 253.109l.512 11.768s-11.786 4.471-11.903 6.655l22.82-.167-.037-18.367-11.392.111z" fill="#DC3001"/><path d="M129.555 263.884c.222.065.412.21.533.407.121.198.164.433.121.66a.905.905 0 01-1.048.666.986.986 0 01-.691-1.116.93.93 0 011.172-.568" fill="#E0E0E0"/><path d="M133.591 271.36v-1.851l-22.11.839s-1.024.45-.901 1.172l23.011-.16zm-11.163-6.403c0 .111.568.154 1.123.512.555.357.857.826.956.783.098-.043-.068-.691-.747-1.11-.678-.42-1.332-.29-1.332-.185zm-2.394 1.011c0 .111.463.296.851.771.389.475.5.975.617.968.117-.006.179-.616-.314-1.233-.494-.617-1.148-.611-1.154-.506zm-1.351 2.899c.105 0 .259-.537-.037-1.154-.296-.616-.821-.851-.864-.758-.043.092.278.419.512.931.235.512.278.975.389.981zm3.942-6.624c.049.099.561-.061 1.196 0 .635.062 1.135.235 1.191.136.055-.099-.42-.493-1.172-.53-.753-.037-1.271.302-1.215.394zm-.427-2.534c.375.105.772.105 1.147 0a5.286 5.286 0 001.203-.383c.229-.101.45-.221.66-.358.13-.07.246-.162.345-.271a.472.472 0 00.05-.617.625.625 0 00-.494-.253 1.464 1.464 0 00-.431.062 4.647 4.647 0 00-.716.253 3.954 3.954 0 00-1.054.703c-.531.5-.71.919-.673.944.037.024.309-.321.845-.728a4.68 4.68 0 011.024-.617c.215-.084.435-.152.66-.203.247-.068.456-.074.518.037.062.111 0 .055 0 .129a1.308 1.308 0 01-.253.198 5.136 5.136 0 01-.617.351 6.233 6.233 0 01-1.11.438 7.718 7.718 0 00-1.104.315z" fill="#263238"/><path d="M122.342 259.868c.043 0 .265-.388.296-1.116a3.562 3.562 0 00-.167-1.234 3.217 3.217 0 00-.296-.697.958.958 0 00-.74-.579.545.545 0 00-.481.327 1.517 1.517 0 00-.111.419c-.043.257-.043.52 0 .777.065.432.237.841.5 1.19.45.617.925.722.931.685.006-.037-.358-.271-.703-.839a2.525 2.525 0 01-.358-1.751c.037-.241.123-.438.216-.414.093.025.308.179.407.37.113.198.21.404.29.617.132.37.211.756.234 1.147.068.66-.074 1.08-.018 1.098z" fill="#263238"/><path d="M133.598 260.054l-.024 2.609h-11.022v-2.369l11.046-.24z" fill="#000" opacity=".3"/><path d="M170.535 64.234l1.634 6.34s.617 3.504-1.024 3.498c-1.443 0-1.585-1.882-1.585-1.882s.722-3.836-1.166-3.62c-.265.031-.956 2.677-1.289 4.021a2.001 2.001 0 00.198 1.456l2.72 4.817a5.777 5.777 0 002.134 2.14l1.363.77.179 2.863 7.653.123-2.331-8.93-.974-5.447a1.847 1.847 0 00-1.37-1.017l-.721-.105-.272-.69a1.23 1.23 0 00-.974-.753l-.444-.056-.617-1.548c-.21-.512-1.708-3.885-2.263-3.88-.006 0-1.252.34-.851 1.9z" fill="#FFBE9D"/><path d="M175.999 71.913a5.167 5.167 0 00-.142-.697 2.665 2.665 0 00-1.042-1.326 7.386 7.386 0 01-.574-1.66 2.047 2.047 0 01-.08-.72s.049.27.166.696c.16.551.366 1.088.617 1.604.111.099.247.197.376.308.309.294.534.665.654 1.073.049.17.074.347.074.525a.561.561 0 01-.049.197zm1.165-.647a1.028 1.028 0 00-.111-.346.896.896 0 00-.709-.462h-.043v-.037l-.043-.117a8.224 8.224 0 01-.438-1.388c.227.428.413.876.555 1.338l.049.124-.055-.043a.953.953 0 01.777.549c.086.228.037.394.018.382z" fill="#EB996E"/><path d="M132.104 101.937l13.883-.179-1.548-11.798s.95-.204 1.012-5.348c.061-5.143.302-13.877.302-13.877a17.888 17.888 0 00-17.96 2.258l-.765.586 5.076 28.358z" fill="#FFBE9D"/><path d="M128.644 79.887c-.086-.037-3.534-1.048-3.423 2.467.111 3.516 3.62 2.677 3.62 2.578 0-.098-.197-5.045-.197-5.045zm16.51-.733c.086-.043 3.219-.888 3.084 2.627-.136 3.516-3.621 2.683-3.621 2.578 0-.105.537-5.205.537-5.205z" fill="#FFBE9D"/><path d="M127.504 79.475c.524 2.948.419 4.496.907 6.463.77 3.084 2.312 5.502 5.119 7.056 2.806 1.554 6.599 1.523 9.01-.617 1.672-1.468 2.856-3.127 3.084-5.341.228-2.214.5-6.13.512-8.35 0-4.016.302-7.852.302-7.852l-11.471-2.079-6.507 3.935-.956 6.785zm11.828 15.313a5.165 5.165 0 01-3.935-.438c.037-.086.882.18 1.962.297.66.012 1.318.06 1.973.141z" fill="#263238"/><path d="M128.059 84.501c-.339-3.016-.555-6.47-1.03-9.652-.172-1.197-.616-2.917-.493-4.12a9.957 9.957 0 01.752-3.534 4.979 4.979 0 013.484-2.696 4.966 4.966 0 014.257 1.136 3.699 3.699 0 016.784 1.572 2.584 2.584 0 014.268 2.59 2.524 2.524 0 012.104 2.695 2.534 2.534 0 01-.402 1.173c-.53.82-1.486 1.27-2.072 2.047a2.947 2.947 0 00-.179 3.177" fill="#263238"/><path d="M144.014 73.591a.89.89 0 01-.129.333c-.165.294-.392.55-.666.746-.43.322-.956.489-1.493.475a2.538 2.538 0 01-1.85-.863l.24-.062a2.38 2.38 0 01-1.529 1.758 2.733 2.733 0 01-2.584-.327 3.867 3.867 0 01-1.456-1.906h.278a3.25 3.25 0 01-2.597 1.425 2.98 2.98 0 01-2.183-.894 3.093 3.093 0 01-.796-1.345 1.14 1.14 0 01-.061-.555s.043.191.166.524c.175.47.458.893.827 1.234a2.81 2.81 0 002.035.764 2.966 2.966 0 002.343-1.32l.173-.265.105.296a3.66 3.66 0 001.345 1.746 2.463 2.463 0 002.294.302 2.135 2.135 0 001.369-1.517l.056-.29.185.222a2.344 2.344 0 001.64.814c.491.028.978-.104 1.388-.376.358-.244.664-.556.9-.919zm-.056-1.394a3.131 3.131 0 00-.487-1.277 2.102 2.102 0 00-1.233-.814 2.161 2.161 0 00-1.746.34l-.277.197v-.346c.03-.341-.01-.686-.118-1.011a2.752 2.752 0 00-1.406-1.64 2.7 2.7 0 00-1.788-.155 3.867 3.867 0 00-1.493.839c.064-.15.161-.283.284-.389a2.795 2.795 0 011.147-.672c.65-.2 1.35-.16 1.974.111a2.968 2.968 0 011.714 2.948l-.246-.142a2.464 2.464 0 012.004-.345 2.254 2.254 0 011.653 1.974c.074.259.037.388.018.382zm-7.309.104c-.043 0 0-.197 0-.48a2.258 2.258 0 00-.357-1.043 11.92 11.92 0 00-.66-.931.336.336 0 00-.37-.068s0-.08.074-.142a.389.389 0 01.431 0c.146.12.28.255.401.4.146.173.28.354.401.543.239.365.348.8.309 1.234-.056.345-.198.506-.229.487zm-6.821-4.422c-.038 0 0-.272.215-.617.13-.22.307-.407.518-.549a1.36 1.36 0 01.932-.203 2.229 2.229 0 011.394.87c.259.326.376.548.345.579-.031.03-.222-.148-.512-.42a2.378 2.378 0 00-1.264-.709 1.323 1.323 0 00-1.234.568c-.222.271-.333.5-.394.48zm1.801 14.914a7.853 7.853 0 01-1.635-4.762c.093 0 .278 1.104.728 2.412.45 1.307.993 2.3.907 2.35zm1.542.838a4.15 4.15 0 01-.851-1.597 4.334 4.334 0 01-.42-1.758c.314.514.557 1.068.722 1.647.259.542.444 1.116.549 1.708zm9.658.239a6.717 6.717 0 01-2.141 5.669 19.373 19.373 0 001.475-2.665c.303-.981.526-1.986.666-3.003zm1.542-2.545a4.5 4.5 0 01.222 2.788 4.447 4.447 0 01-1.19 2.522c.367-.834.66-1.698.876-2.584.111-.904.142-1.816.092-2.726z" fill="#455A64"/><path d="M139.93 178.217l3.373 32.54 2.424 49.007h12.933l.352-104.306-37.03 2.646-7.672 54.725 6.648 47.891h14.186l-3.319-45.541 8.105-36.962z" fill="#263238"/><path d="M139.929 178.217a39.264 39.264 0 01-5.248 4.724 19.747 19.747 0 012.516-2.467c.84-.835 1.754-1.59 2.732-2.257zm-.036-.678a37.062 37.062 0 01.068-4.176c0-1.393.08-2.785.24-4.169.158 1.388.185 2.788.08 4.181a21.878 21.878 0 01-.388 4.164zm4.274-12.121c.069-.007.14-.007.209 0l.617-.037 2.467-.117 8.77-.37h.148v9.541l-.104.037-5.705 2.288h-.105l-5.039-1.751h-.08v-.08c-.37-2.844-.679-5.212-.895-6.908-.098-.789-.172-1.425-.234-1.9a5.31 5.31 0 01-.062-.616c.019.06.033.122.043.185 0 .142.05.308.087.512.074.481.172 1.122.302 1.924.253 1.671.617 3.996 1.024 6.784l-.087-.105 5.052 1.715h-.105l5.699-2.301-.099.148v-9.276l.148.142-8.672.216-2.467.043h-.912v-.074zm-18.656.162a.679.679 0 01.191 0l.574-.031 2.22-.068 8.018-.185h.098v.148l-.289 9.128v.086l-.068.043-.925.617-4.688 3.084-.086.055-.08-.055-5.28-3.213-.068-.044v-.074c.099-2.837.185-5.199.241-6.895.037-.789.062-1.425.086-1.899a6.03 6.03 0 01.043-.617c.01.061.01.123 0 .185v2.442c0 1.672-.061 4.009-.104 6.815l-.062-.117 5.304 3.176h-.191l4.681-3.083.931-.617-.074.123c.117-3.312.235-6.426.333-9.128l.142.148-7.913.043h-2.849l-.185-.067zm29.505 14.74a9.082 9.082 0 01-1.752-.055 82.295 82.295 0 01-4.206-.438c-1.634-.21-3.114-.45-4.175-.617a8.633 8.633 0 01-1.709-.395 9.676 9.676 0 011.74.167l4.187.555 4.182.53c.584.036 1.163.121 1.733.253zm-.302 36.272s-.049.191-.302.413c-.376.3-.845.459-1.326.45a3.132 3.132 0 01-1.931-.74 13.44 13.44 0 01-1.764-1.782 24.455 24.455 0 01-2.615-3.701 7.927 7.927 0 01-.82-1.684c.364.505.701 1.028 1.012 1.567a32.719 32.719 0 002.67 3.596c.517.632 1.086 1.22 1.702 1.757a2.996 2.996 0 001.752.747c.435.026.866-.086 1.233-.321.266-.167.364-.315.389-.302zm-25.539 1.146a.886.886 0 01-.173.413c-.23.347-.536.638-.894.851a3.427 3.427 0 01-1.776.463 4.162 4.162 0 01-2.134-.679 7.523 7.523 0 01-2.572-3.084 6.692 6.692 0 01-.617-1.523c.315.451.596.925.839 1.418a8.124 8.124 0 002.541 2.899c.589.388 1.27.613 1.974.654a3.384 3.384 0 001.659-.364 3.764 3.764 0 001.153-1.048zm.827-4.909a3.195 3.195 0 01-1.067.617 8.452 8.452 0 01-5.84.24 3.33 3.33 0 01-1.111-.53c1.307.414 2.67.622 4.04.616a13.533 13.533 0 003.978-.943zm42.085-114.852h-18.823s-2.566-1.474-3.806-1.233a4.885 4.885 0 00-2.312 1.573l2.497 20.772 6.106-4.521 22.734-2.362a7.248 7.248 0 005.193-2.276 7.233 7.233 0 001.918-5.816l-4.206-22.345-8.635.29-.339 5.668-.327 10.25zm-51.905 5.236a11.578 11.578 0 00-4.551 5.292c-1.104 2.64-8.635 15.826-12.57 22.721a6.525 6.525 0 00.944 7.753c2.405 2.51 5.279 1.529 8.789.388 1.572-.512 8.634-11.373 8.634-11.373l-1.246-24.781z" fill="#455A64"/><path d="M123.463 150.328l-4.324-37.197 1.042-9.917 11.003-4.688 14.26-.937 13.568 1.499-3.17 38.152 3.473 21.519-38.017 1.714 2.165-10.145z" fill="#455A64"/><path d="M123.446 150.166c-.093 0-1.123-8.271-2.313-18.503-1.191-10.232-2.079-18.502-1.992-18.539.086-.037 1.122 8.277 2.312 18.502 1.191 10.226 2.079 18.528 1.993 18.54zm35.29-42.734c.013.113.013.227 0 .339 0 .253-.056.568-.087.95-.092.876-.209 2.066-.357 3.509-.303 3.004-.71 7.075-1.16 11.577-.45 4.502-.783 8.635-1.005 11.583-.105 1.449-.191 2.639-.253 3.515-.031.389-.056.703-.074.956a2.073 2.073 0 01-.049.333 1.161 1.161 0 010-.333v-.962c0-.833.074-2.035.148-3.522.166-2.972.481-7.08.912-11.601.432-4.521.895-8.634 1.234-11.57.185-1.48.339-2.671.462-3.497.056-.383.105-.697.142-.95.014-.112.043-.222.087-.327zm-6.538 37.035a6.986 6.986 0 01-.617.734 8.778 8.778 0 01-.771.808c-.32.296-.666.654-1.098.987-.456.388-.934.751-1.43 1.085-.563.396-1.145.763-1.746 1.098a21.741 21.741 0 01-8.992 2.683c-.728.031-1.419.08-2.06.043a17.38 17.38 0 01-1.795-.123c-.543-.043-1.03-.154-1.462-.228a8.799 8.799 0 01-1.085-.253 5.357 5.357 0 01-.907-.284c0-.074 1.314.333 3.479.537.588.059 1.179.086 1.77.08.617.031 1.32-.031 2.035-.068a22.563 22.563 0 008.875-2.646c.617-.364 1.234-.684 1.74-1.054.505-.37 1.005-.71 1.43-1.043 1.715-1.357 2.578-2.405 2.634-2.356z" fill="#263238"/><path d="M132.097 151.412c-1.85-.53-1.955-2.276-1.233-3.022s1.85-.845 2.905-.697c1.01.248 2.044.387 3.084.413 1.69-.111 3.083-1.289 4.28-2.51 1.196-1.221 2.288-2.59 3.83-3.293 1.542-.703 3.7-.45 4.502 1.036a3.225 3.225 0 01-.185 3.084 7.111 7.111 0 01-2.288 2.245 18.715 18.715 0 01-14.876 2.744" fill="#000" opacity=".3"/><path d="M154.581 98.735a4.936 4.936 0 012.467 1.968 5.026 5.026 0 011.091 2.966 12.677 12.677 0 00-1.35-2.775 12.85 12.85 0 00-2.208-2.159z" fill="#263238"/><path d="M153.267 98.317a1.851 1.851 0 00-.309-.185 1.61 1.61 0 00-1.024-.068c-.54.138-1.028.43-1.406.84-.479.562-.999 1.09-1.554 1.578a4.565 4.565 0 01-2.553.783c-.969.05-1.999-.049-3.084-.08a61.3 61.3 0 00-7.043.154 45.165 45.165 0 00-12.459 2.751 37.623 37.623 0 00-3.546 1.573l-.932.493c-.215.111-.333.16-.333.16s.105-.067.321-.185l.919-.511a37.27 37.27 0 013.534-1.616 44.401 44.401 0 0112.483-2.794 59.761 59.761 0 017.056-.148c1.085.031 2.115.135 3.084.092a4.502 4.502 0 002.51-.752 17.576 17.576 0 001.554-1.554 2.817 2.817 0 011.443-.833 1.563 1.563 0 011.043.086.975.975 0 01.296.216zm4.266 7.623s-.13-.044-.383-.087a4.09 4.09 0 00-1.116-.037 6.173 6.173 0 00-1.702.457c-.717.316-1.416.674-2.091 1.073-.825.48-1.705.859-2.621 1.128-1.062.28-2.148.456-3.244.525-2.307.142-4.842.179-7.494.382a153.212 153.212 0 00-13.568 1.573c-1.727.277-3.084.536-4.071.715l-1.104.204-.389.068.383-.093 1.098-.228c.956-.191 2.343-.469 4.064-.753 3.442-.616 8.228-1.233 13.569-1.609 2.658-.21 5.199-.241 7.499-.377a17.022 17.022 0 003.22-.511 11.659 11.659 0 002.609-1.104 19.163 19.163 0 012.109-1.061 6.134 6.134 0 011.727-.438 3.675 3.675 0 011.122.062 1.6 1.6 0 01.383.111zm.091 10.485s-.481.228-1.369.573a39.342 39.342 0 01-3.83 1.277 57.428 57.428 0 01-13.168 1.967c-4.443.138-8.89.033-13.322-.314l-4.033-.315-1.092-.099c-.247 0-.382-.043-.382-.043h.382l1.098.074 4.034.272c4.428.323 8.871.416 13.309.277a58.896 58.896 0 0013.149-1.924c1.641-.456 2.948-.9 3.843-1.234.444-.16.789-.308 1.023-.394l.358-.117zm-1.442 12.106s-.45.197-1.282.481a25.858 25.858 0 01-3.615.925 36.21 36.21 0 01-5.507.561c-2.085.074-4.379 0-6.784-.136-4.799-.32-9.141-.66-12.286-.549a43.846 43.846 0 00-3.701.247c-.438.043-.777.099-1.005.123l-.352.044a31.362 31.362 0 015.07-.5c3.158-.136 7.506.191 12.304.506 2.393.142 4.682.216 6.785.148a38.074 38.074 0 005.495-.531 26.812 26.812 0 003.62-.888c.42-.123.734-.253.956-.32l.302-.111zm-1.172 9.369s-1.745.573-4.626 1.233c-1.443.34-3.176.673-5.113.969-1.936.296-4.07.524-6.327.672-2.258.148-4.41.142-6.365.099a60.644 60.644 0 01-5.187-.346c-2.942-.308-4.743-.672-4.743-.672l.333.037.944.136c.814.123 2.004.265 3.472.407 1.468.142 3.232.259 5.187.314 1.955.056 4.101 0 6.352-.105 2.252-.104 4.386-.382 6.322-.659a67.256 67.256 0 005.101-.938 94.263 94.263 0 003.404-.826l.919-.241.327-.08zm1.302 3.422l-.32.124-.925.333c-.808.296-1.956.764-3.356 1.381s-3.083 1.394-4.934 2.165a32.129 32.129 0 01-6.303 1.93c-3.945.682-7.956.91-11.953.679-1.529-.062-2.769-.142-3.626-.197l-.981-.074h-.345.345l.987.049 3.627.154c3.987.213 7.986-.02 11.921-.697a32.666 32.666 0 006.285-1.906c1.85-.764 3.528-1.535 4.934-2.14 1.406-.604 2.566-1.067 3.374-1.351.808-.283 1.27-.45 1.27-.45zm1.93 10.214s-.42.284-1.234.746a25.234 25.234 0 01-3.559 1.629 39.286 39.286 0 01-12.699 2.146c-5.051.092-9.615-.308-12.914-.45-1.653-.08-2.986-.124-3.911-.148h-1.437 1.437c.925 0 2.264.037 3.917.111 3.299.111 7.863.499 12.902.407 4.311-.01 8.592-.72 12.675-2.103a25.66 25.66 0 003.546-1.622c.413-.204.715-.407.931-.519.216-.111.346-.197.346-.197zm5.747-37.659a.57.57 0 01.031-.154c.037-.136.074-.284.117-.438.105-.383.241-.931.389-1.622.747-3.595.69-7.31-.167-10.88a23.152 23.152 0 00-.432-1.61l-.135-.431-.043-.148a.44.44 0 01.061.148c.05.13.099.271.154.425.136.37.303.913.475 1.598.915 3.577.972 7.319.167 10.922a18.366 18.366 0 01-.426 1.616c-.055.155-.098.296-.142.432a1.036 1.036 0 01-.049.142zm9.136-2.233a.483.483 0 010-.142v-1.881a23.006 23.006 0 00-2.819-10.762l-.191-.358c-.045-.078-.064-.121-.055-.13.029.038.055.077.08.118l.209.345c.185.296.426.746.703 1.308a21.478 21.478 0 012.159 9.479c.004.494-.016.988-.062 1.48l-.043.407c.01.045.016.091.019.136zm12.342-4.286s-.044-.037-.118-.124l-.314-.363a24.585 24.585 0 00-1.178-1.326 29.853 29.853 0 00-9.461-6.785 25.954 25.954 0 00-1.641-.69l-.45-.173a.832.832 0 01-.154-.074.61.61 0 01.166.05l.457.153c.401.13.968.352 1.659.654a28.128 28.128 0 019.492 6.784c.499.555.894 1.018 1.147 1.357.111.136.21.265.296.383a.8.8 0 01.099.154zm-2.801-17.473a2.48 2.48 0 01-.395 0h-4.595c-1.381 0-2.621.074-3.521.124l-1.067.055a2.77 2.77 0 01-.395 0c.13-.03.262-.048.395-.055.246 0 .616-.062 1.06-.099a63.655 63.655 0 017.056-.123l1.073.061c.131.002.26.015.389.037zm-69.874 24.479c.087.072.166.152.235.241.136.166.351.395.617.672.707.71 1.479 1.352 2.306 1.918.832.567 1.692 1.09 2.578 1.567l.802.438a1.8 1.8 0 01.29.172 1.366 1.366 0 01-.308-.129 15.158 15.158 0 01-.827-.401 24.033 24.033 0 01-2.609-1.536 14.534 14.534 0 01-2.3-1.967 7.758 7.758 0 01-.617-.703 1.945 1.945 0 01-.167-.272zm2.604-4.94s.142.216.432.5c.385.359.797.687 1.234.981.44.298.895.574 1.363.826.357.197.617.296.586.315a7.022 7.022 0 01-2.017-1.03 7.247 7.247 0 01-1.234-1.03 1.5 1.5 0 01-.364-.562zm4.385 21.044s-.05 0-.136-.056l-.376-.197a18.81 18.81 0 01-1.332-.796 27.904 27.904 0 01-4.022-3.188 25.637 25.637 0 01-3.349-3.88 14.49 14.49 0 01-.826-1.319l-.204-.37c-.049-.087-.067-.13-.061-.136l.08.123.228.358c.185.314.475.759.857 1.289a28.096 28.096 0 003.368 3.842 29.78 29.78 0 003.978 3.201c.543.37.993.648 1.308.833l.363.216.124.08z" fill="#FAFAFA"/><path d="M102.648 136.833a3.045 3.045 0 01-.117-.709 11.639 11.639 0 01-.044-1.949 12.632 12.632 0 012.048-6.063 390.32 390.32 0 013.435-5.409l1.074-1.615a3.5 3.5 0 01.431-.574 3.09 3.09 0 01-.327.617l-.986 1.671a442.886 442.886 0 01-3.349 5.452 13.066 13.066 0 00-2.097 5.915c-.142 1.653-.025 2.664-.068 2.664z" fill="#263238"/><path d="M113.442 139.337a7.905 7.905 0 01-2.134-.321 10.004 10.004 0 01-4.474-2.588 10.004 10.004 0 01-2.588-4.474 7.985 7.985 0 01-.314-2.128.61.61 0 010 .148c0 .093 0 .241.055.426.071.517.18 1.028.327 1.529a10.11 10.11 0 007.013 7c.503.147 1.016.256 1.535.327.185 0 .327.037.426.056l.154.025zm-6.193-21.057a.44.44 0 01-.111.074l-.32.198c-.396.232-.779.486-1.148.758a16.351 16.351 0 00-5.6 7.038c-.222.536-.388.974-.48 1.289-.044.123-.087.24-.124.357-.037.117-.043.117-.05.117a.535.535 0 010-.129c.031-.111.062-.234.1-.364a11.2 11.2 0 01.45-1.307 15.954 15.954 0 012.288-3.942 15.759 15.759 0 013.336-3.083c.377-.267.771-.51 1.178-.728l.333-.173c.105-.092.142-.111.148-.105zm-3.461-4.563l-.351.123a11.053 11.053 0 00-3.78 2.06 16.034 16.034 0 00-2.295 2.405c-.265.334-.475.617-.617.802-.07.102-.15.199-.234.29.055-.112.119-.219.19-.321.13-.197.328-.487.58-.826a14.082 14.082 0 012.289-2.467 10.134 10.134 0 012.88-1.702 9.15 9.15 0 01.968-.309c.122-.029.246-.047.37-.055z" fill="#FAFAFA"/></svg>