<svg width="219" height="63" fill="none" xmlns="http://www.w3.org/2000/svg"><path fill-rule="evenodd" clip-rule="evenodd" d="M155.167 55.15l-.008-.006c-3.742-2.366-6.653-5.763-8.749-10.117-2.112-4.386-3.131-9.616-3.131-15.627 0-6.011 1.019-11.24 3.131-15.627 2.096-4.354 5.008-7.729 8.757-10.046 3.732-2.358 7.947-3.524 12.597-3.524 4.694 0 8.914 1.163 12.602 3.527 3.746 2.317 6.657 5.691 8.752 10.043 2.112 4.387 3.131 9.616 3.131 15.627 0 6.011-1.019 11.24-3.131 15.627-2.096 4.354-5.007 7.75-8.749 10.117l-.006.004c-3.689 2.313-7.907 3.45-12.599 3.45-4.645 0-8.858-1.14-12.59-3.444l-.007-.005zm16.978-11.743l.011-.008c1.211-.899 2.266-2.412 3.057-4.737l.004-.015.005-.014c.823-2.284 1.269-5.34 1.269-9.233 0-3.893-.446-6.949-1.269-9.233l-.005-.014-.004-.014c-.791-2.326-1.846-3.839-3.057-4.738l-.011-.008-.01-.008c-1.201-.92-2.631-1.4-4.371-1.4-1.674 0-3.115.472-4.381 1.409-1.173.903-2.231 2.426-3.072 4.759-.777 2.293-1.198 5.355-1.198 9.247 0 3.892.42 6.954 1.198 9.248.842 2.332 1.899 3.855 3.072 4.759 1.266.936 2.707 1.408 4.381 1.408 1.74 0 3.17-.48 4.371-1.4l.01-.008zm-13.425-4.203c-.861-2.533-1.292-5.801-1.292-9.804s.431-7.27 1.292-9.804c.912-2.533 2.128-4.383 3.648-5.548 1.571-1.165 3.369-1.748 5.396-1.748 2.077 0 3.876.583 5.396 1.748 1.571 1.165 2.787 3.015 3.648 5.548.912 2.533 1.368 5.801 1.368 9.804s-.456 7.27-1.368 9.804c-.861 2.533-2.077 4.383-3.648 5.548-1.52 1.165-3.319 1.748-5.396 1.748-2.027 0-3.825-.583-5.396-1.748-1.52-1.165-2.736-3.015-3.648-5.548zm44.052 18.481v-43.32h-10.64V1.115h26.322v56.57h-15.682zm1.685-45.005V56h12.312V2.8h-22.952v9.88h10.64zM156.06 53.72c3.445 2.128 7.347 3.192 11.704 3.192 4.408 0 8.309-1.064 11.704-3.192 3.445-2.179 6.156-5.32 8.132-9.424 1.976-4.104 2.964-9.07 2.964-14.896 0-5.827-.988-10.792-2.964-14.896-1.976-4.104-4.687-7.22-8.132-9.348-3.395-2.179-7.296-3.268-11.704-3.268-4.357 0-8.259 1.09-11.704 3.268-3.445 2.128-6.156 5.244-8.132 9.348-1.976 4.104-2.964 9.07-2.964 14.896 0 5.827.988 10.792 2.964 14.896 1.976 4.104 4.687 7.245 8.132 9.424z" fill="#112242"/><path d="M3.735 52V20.5H17.37c2.82 0 5.25.465 7.29 1.395 2.04.9 3.615 2.205 4.725 3.915 1.11 1.71 1.665 3.75 1.665 6.12 0 2.34-.555 4.365-1.665 6.075-1.11 1.71-2.685 3.03-4.725 3.96-2.04.9-4.47 1.35-7.29 1.35H7.785l3.24-3.285V52h-7.29zm7.29-11.16l-3.24-3.465h9.18c2.25 0 3.93-.48 5.04-1.44 1.11-.96 1.665-2.295 1.665-4.005 0-1.74-.555-3.09-1.665-4.05-1.11-.96-2.79-1.44-5.04-1.44h-9.18l3.24-3.465V40.84zm40.969 11.7c-2.49 0-4.8-.405-6.93-1.215-2.1-.81-3.93-1.95-5.49-3.42a16.058 16.058 0 01-3.6-5.175c-.84-1.98-1.26-4.14-1.26-6.48 0-2.34.42-4.5 1.26-6.48a15.73 15.73 0 013.645-5.175c1.56-1.47 3.39-2.61 5.49-3.42s4.38-1.215 6.84-1.215c2.49 0 4.77.405 6.84 1.215 2.1.81 3.915 1.95 5.445 3.42a15.73 15.73 0 013.645 5.175c.87 1.95 1.305 4.11 1.305 6.48 0 2.34-.435 4.515-1.305 6.525a15.73 15.73 0 01-3.645 5.175c-1.53 1.44-3.345 2.565-5.445 3.375-2.07.81-4.335 1.215-6.795 1.215zm-.045-6.21c1.41 0 2.7-.24 3.87-.72 1.2-.48 2.25-1.17 3.15-2.07.9-.9 1.59-1.965 2.07-3.195.51-1.23.765-2.595.765-4.095 0-1.5-.255-2.865-.765-4.095a9.181 9.181 0 00-2.07-3.195 8.816 8.816 0 00-3.105-2.07c-1.2-.48-2.505-.72-3.915-.72-1.41 0-2.715.24-3.915.72a9.392 9.392 0 00-3.105 2.07 9.74 9.74 0 00-2.115 3.195c-.48 1.23-.72 2.595-.72 4.095 0 1.47.24 2.835.72 4.095a10.12 10.12 0 002.07 3.195c.9.9 1.95 1.59 3.15 2.07 1.2.48 2.505.72 3.915.72zM74.663 52V20.5h7.29V52h-7.29zm14.765 0V20.5h6.03l18.585 22.68h-2.925V20.5h7.2V52h-5.985l-18.63-22.68h2.925V52h-7.2zm42.868 0V26.44h-10.08V20.5h27.45v5.94h-10.08V52h-7.29z" fill="#112242"/><circle cx="51.999" cy="36.599" r="13.472" fill="#000"/><ellipse cx="55.449" cy="24.836" rx="3.119" ry="2.955" fill="#fff"/><circle cx="55.743" cy="34.817" r="2.1" fill="#fff"/><circle cx="43.019" cy="38.7" r="2.1" fill="#fff"/><circle cx="51.016" cy="48.15" r="3.284" fill="#fff"/><circle cx="63.952" cy="34.16" r="2.1" fill="#fff"/><path d="M47.35 19.248c-9.582 2.567-15.269 12.417-12.7 22 2.567 9.582 12.417 15.269 22 12.701 9.582-2.567 15.268-12.417 12.7-22-2.567-9.582-12.416-15.269-22-12.701zm11.314 5.809c5.806 3.352 8 10.265 5.864 16.098L41.79 28.028c3.986-4.77 11.071-6.321 16.874-2.971zM45.336 48.14c-5.806-3.352-8-10.265-5.864-16.098L62.21 45.17c-3.986 4.77-11.071 6.322-16.874 2.971z" fill="#DC3001"/><circle cx="45.555" cy="23.634" r="5.215" fill="#000"/><circle cx="45.626" cy="15.304" r="1.304" fill="#000"/><circle cx="38.529" cy="19.143" r="1.304" fill="#000"/><path fill="#000" d="M45.119 16.028h1.014v3.115h-1.014zm-6.375 3.958l.563-.844 2.592 1.728-.563.844z"/></svg>