<svg width="269" height="270" fill="none" xmlns="http://www.w3.org/2000/svg"><path d="M148.295 25.39h-112.4a3.88 3.88 0 00-3.873 3.889v157.345a3.881 3.881 0 003.874 3.888h112.399a3.88 3.88 0 003.873-3.888V29.279a3.88 3.88 0 00-3.873-3.888z" fill="#F5F5F5"/><path d="M239.539 35.23l.221 1.145-2.26 12.285a7.271 7.271 0 01-5.622 1.3l-12.804-2.375s-2.039-.46-1.469-3.11c0 0 .097-1.4 1.291-1.49 0 0-2.48-1.016-2.206-2.933.275-1.917 1.684-1.895 1.684-1.895s-2.324-.59-2.082-2.75 1.496-2.16 1.496-2.16-2.69-.658-2.028-3.05a2.458 2.458 0 013.002-1.81l9.108 1.691 7.984 1.48a4.638 4.638 0 012.402 1.27 4.67 4.67 0 011.283 2.402z" fill="#EBEBEB"/><path d="M237.258 32.087s-2.803-2.549-3.766-5.32a13.735 13.735 0 01-.667-4.276c0-.108.183-1.08.317-1.868a1.233 1.233 0 00-.952-1.404c-.966-.14-1.95.08-2.765.618a4.014 4.014 0 00-1.663 2.303c-1.076 3.683-.156 6.194-.123 7.312l.027 1.123 9.592 1.512zm-1.736 18.419l8.941 1.658 3.358-18.24-8.941-1.658-3.358 18.24z" fill="#EBEBEB"/><path d="M235.526 50.495s.715-4.087 1.641-9.12c.925-5.033 1.705-9.12 1.705-9.115 0 .005-.715 4.087-1.646 9.126-.931 5.038-1.684 9.115-1.7 9.11zm8.941 1.664s.716-4.093 1.647-9.126c.93-5.033 1.694-9.116 1.71-9.116.017 0-.715 4.094-1.64 9.127-.926 5.032-1.695 9.115-1.717 9.115z" fill="#E0E0E0"/><path d="M241.271 37.023a1.715 1.715 0 00.759 1.733 1.696 1.696 0 002.498-.813 1.713 1.713 0 00-.4-1.85 1.695 1.695 0 00-2.615.307c-.12.19-.203.4-.242.623z" fill="#fff"/><path d="M225.75 29.7s.985.146 2.185.367c1.2.222 2.179.421 2.152.438-.027.016-.985-.146-2.185-.368-1.199-.221-2.152-.437-2.152-.437zm-7.596 8.51s.629.081 1.399.222c.467.075.93.175 1.388.297 0 0-.63-.081-1.399-.227-.468-.072-.931-.17-1.388-.292zm-.554-5.043s.887.13 1.979.33c1.093.199 1.975.383 1.97.404-.006.022-.888-.13-1.98-.335-1.092-.205-1.975-.378-1.969-.4zm.715 9.736s.888.13 1.98.33 1.974.383 1.969.4c-.005.015-.888-.125-1.98-.33-1.092-.206-1.974-.384-1.969-.4z" fill="#E0E0E0"/><path d="M240.895 33.167s1.259.2 2.798.486c1.538.286 2.786.54 2.786.54s-1.258-.195-2.797-.48c-1.539-.287-2.787-.525-2.787-.546zm-23.769 3.164a.345.345 0 01-.043-.102 1.998 1.998 0 01-.059-.297c-.014-.15-.014-.3 0-.449.02-.183.06-.364.118-.54a2.53 2.53 0 01.242-.496 1.957 1.957 0 01.512-.54l.091-.06s-.118.103-.285.286a2.359 2.359 0 00-.49.832c-.06.175-.101.356-.123.54a2.283 2.283 0 000 .437c.005.238.048.384.037.39zm-.473-4.865a.595.595 0 01-.178-.232 1.413 1.413 0 01-.167-.686c.008-.239.073-.472.189-.68a.624.624 0 01.188-.222s-.065.092-.14.248a1.54 1.54 0 00-.027 1.318c.049.082.094.167.135.254zm1.14 10.114a.718.718 0 01-.252-.227 1.22 1.22 0 01-.253-.767 1.26 1.26 0 01.274-.756c.135-.162.253-.226.258-.216a2.56 2.56 0 00-.215.243 1.256 1.256 0 000 1.47c.092.15.194.253.188.253zm1.023 4.65a.681.681 0 01-.173-.244 1.633 1.633 0 010-1.414.762.762 0 01.173-.243s-.06.102-.13.264a1.792 1.792 0 000 1.372c.07.167.14.259.13.264zm9.043-19.802a1.064 1.064 0 01-.059-.2 1.85 1.85 0 01-.059-.243c0-.097-.043-.205-.059-.33a6.094 6.094 0 01-.07-.853 7.223 7.223 0 01.064-1.08 7.21 7.21 0 01.237-1.026c.084-.275.189-.544.312-.804.048-.108.102-.206.145-.292l.124-.216a1.58 1.58 0 01.118-.178.83.83 0 01-.091.189l-.113.221c-.043.087-.092.184-.14.297a8.573 8.573 0 00-.296.8c-.094.335-.17.676-.226 1.02a8.071 8.071 0 00-.07 1.042c.002.284.02.567.054.848 0 .124.032.232.048.324.017.092.033.178.049.243.02.078.031.157.032.238z" fill="#fff"/><path d="M225.691 147.577l.608.696 3.293 9.326a5.79 5.79 0 01-3.357 3.127l-9.717 3.434s-1.576.497-2.232-1.544c0 0-.485-.999.301-1.539 0 0-2.104.291-2.69-1.134-.586-1.426.409-1.966.409-1.966s-1.829.54-2.513-1.08c-.683-1.62.173-2.079.173-2.079s-2.115.621-2.594-1.285a1.954 1.954 0 011.345-2.436l6.908-2.457 6.058-2.16a3.65 3.65 0 014.008 1.097z" fill="#EBEBEB"/><path d="M222.91 146.34s-2.927-.632-4.697-2.16a10.808 10.808 0 01-2.152-2.668l-.538-1.409a.965.965 0 00-1.205-.589 3.186 3.186 0 00-1.651 1.534 3.204 3.204 0 00-.227 2.246c.727 2.949 2.335 4.32 2.798 5.065l.463.756 7.209-2.775zm6.049 13.317l6.785-2.415-4.888-13.838-6.784 2.414 4.887 13.839z" fill="#EBEBEB"/><path d="M228.962 159.64s-1.119-3.089-2.469-6.912c-1.35-3.823-2.432-6.928-2.416-6.928.016 0 1.119 3.089 2.47 6.912 1.35 3.823 2.431 6.923 2.415 6.928zm6.785-2.414s-1.119-3.088-2.47-6.912c-1.35-3.823-2.432-6.922-2.415-6.928.016-.005 1.119 3.089 2.469 6.912 1.35 3.823 2.432 6.923 2.416 6.928z" fill="#E0E0E0"/><path d="M227.574 148.117a1.349 1.349 0 001.2.893 1.343 1.343 0 001.281-.769 1.351 1.351 0 00-.883-1.888 1.339 1.339 0 00-1.544.73 1.359 1.359 0 00-.054 1.034z" fill="#fff"/><path d="M214.054 149.251s.732-.292 1.646-.616c.915-.324 1.658-.578 1.663-.54.005.038-.732.292-1.646.616-.915.324-1.657.55-1.663.54zm-1.845 8.861s.463-.194 1.049-.4a10.16 10.16 0 011.076-.351c-.343.153-.693.288-1.049.405-.352.135-.711.25-1.076.346zm-2.389-3.235s.662-.264 1.491-.54c.828-.275 1.501-.54 1.506-.507.005.032-.662.264-1.49.54-.829.275-1.48.524-1.507.507zm4.347 6.389s.662-.265 1.49-.54c.829-.276 1.501-.54 1.507-.503.005.038-.662.265-1.491.54-.828.276-1.501.519-1.506.503z" fill="#E0E0E0"/><path d="M225.815 145.627s.936-.367 2.109-.783c1.173-.416 2.12-.74 2.152-.723.032.016-.936.361-2.109.777-1.173.416-2.147.74-2.152.729zm-15.053 11.605l-.07-.054a1.462 1.462 0 01-.156-.178 1.853 1.853 0 01-.344-1.156 1.813 1.813 0 01.139-.578c0-.048.038-.075.043-.075.006 0-.043.118-.086.307-.024.114-.038.23-.043.346-.002.141.009.282.033.421.029.139.07.274.123.405.049.106.105.209.167.308.113.162.199.248.194.254zm-2.244-3.148a.487.487 0 01-.21-.087 1.124 1.124 0 01-.522-.945.48.48 0 01.038-.227v.227c.014.18.065.355.151.513.088.158.209.294.355.4.113.081.193.113.188.119zm4.767 6.474a.573.573 0 01-.264-.059.99.99 0 01-.479-.422 1.009 1.009 0 01-.107-.631.545.545 0 01.091-.249s-.032.097-.048.254a.991.991 0 00.559 1.015c.146.065.248.081.248.092zm2.539 2.792a.615.615 0 01-.215-.097 1.257 1.257 0 01-.393-.421 1.244 1.244 0 01-.166-.54.504.504 0 010-.238v.232c.022.19.083.374.177.54.095.16.22.301.366.416.079.031.157.067.231.108zm-1.603-17.167l-.124-.118a1.978 1.978 0 01-.134-.141 5.005 5.005 0 01-.555-.74 6.154 6.154 0 01-.371-.745 5.41 5.41 0 01-.242-.799 4.527 4.527 0 01-.102-.675v-.454a.931.931 0 010-.167.584.584 0 010 .167v.454c0 .189.059.416.113.664a5.65 5.65 0 00.979 2.09c.059.081.113.146.161.205l.129.151a.861.861 0 01.146.108z" fill="#fff"/><path d="M141.693 213.969h-26.195c-3.955 0-7.161 3.218-7.161 7.188v26.292c0 3.97 3.206 7.188 7.161 7.188h26.195c3.955 0 7.161-3.218 7.161-7.188v-26.292c0-3.97-3.206-7.188-7.161-7.188z" fill="#E0E0E0"/><path d="M134.414 213.969h-26.195c-3.955 0-7.161 3.218-7.161 7.188v26.292c0 3.97 3.206 7.188 7.161 7.188h26.195c3.955 0 7.161-3.218 7.161-7.188v-26.292c0-3.97-3.206-7.188-7.161-7.188z" fill="#EBEBEB"/><path d="M107.331 234.889l4.078-4.098 7.871 7.025 13.149-13.246 3.787 4.093-17.517 17.053-11.368-10.827z" fill="#fff"/><path d="M48.135 222.696H31.02c-3.955 0-7.16 3.218-7.16 7.187v17.178c0 3.969 3.205 7.187 7.16 7.187h17.114c3.955 0 7.16-3.218 7.16-7.187v-17.178c0-3.969-3.205-7.187-7.16-7.187z" fill="#E0E0E0"/><path d="M42.491 222.696H25.378c-3.955 0-7.161 3.218-7.161 7.187v17.178c0 3.969 3.206 7.187 7.16 7.187h17.114c3.955 0 7.161-3.218 7.161-7.187v-17.178c0-3.969-3.206-7.187-7.16-7.187z" fill="#EBEBEB"/><path d="M23.08 238.928l3.169-3.18 6.106 5.448L42.55 230.92l2.943 3.181-13.59 13.224-8.823-8.397z" fill="#fff"/><path d="M240.437 253.319c0 .076-48.42.141-108.084.141s-108.095-.065-108.095-.141c0-.075 48.388-.14 108.095-.14 59.708 0 108.084.081 108.084.14zm-21.665-15.471s-2.243-15.471-2.055-24.478c.189-9.007 0-19.132 0-19.132h1.033s-.699 17.874.065 28.652c.764 10.779 2.765 14.958 2.765 14.958h-1.797" fill="#263238"/><path d="M225.454 176.828a2.726 2.726 0 00-.941-1.382c-.657-.416-1.518-.243-2.249 0-3.121 1.107-5.891 6.95-7.15 10.022l4.142 14.04c7.484-6.971 8.781-16.108 6.198-22.68z" fill="#455A64"/><path d="M224.271 176.04a.99.99 0 01-.06.184l-.204.507a74.524 74.524 0 00-2.824 8.208 71.977 71.977 0 00-1.792 8.473c-.038.221-.065.399-.091.54a.824.824 0 01-.044.189 1.058 1.058 0 010-.195c0-.145.033-.324.054-.54a48.22 48.22 0 01.28-2.008 60.298 60.298 0 011.415-6.524 61.037 61.037 0 012.152-6.323 40.25 40.25 0 011.028-2.36.754.754 0 01.086-.151z" fill="#263238"/><path d="M217.416 202.867a12.674 12.674 0 01-4.584-4.491 12.736 12.736 0 01-1.807-6.168c-.145-3.111.807-6.162 1.883-9.083.066-.265.222-.498.441-.659a1.11 1.11 0 011.076.162c2.819 1.62 4.53 4.693 5.445 7.825a15.9 15.9 0 01.635 6.426 10.722 10.722 0 01-3.072 5.988" fill="#455A64"/><path d="M217.417 202.867a.853.853 0 010-.189v-.54c0-.464 0-1.139-.06-1.976a53.984 53.984 0 00-.72-6.48c-.431-2.511-.953-4.758-1.34-6.383l-.457-1.928c-.049-.21-.092-.383-.119-.54a.815.815 0 01-.059-.151.949.949 0 01.065.178c.037.135.086.308.15.513.129.454.302 1.08.538 1.912.415 1.62.958 3.866 1.394 6.388.37 2.142.595 4.307.672 6.48v1.976l-.027.54a.85.85 0 01-.037.2z" fill="#263238"/><path d="M217.416 202.867a12.674 12.674 0 01-4.584-4.491 12.736 12.736 0 01-1.807-6.168c-.145-3.111.807-6.162 1.883-9.083.066-.265.222-.498.441-.659a1.11 1.11 0 011.076.162c2.819 1.62 4.53 4.693 5.445 7.825a15.9 15.9 0 01.635 6.426 10.722 10.722 0 01-3.072 5.988" fill="#000" opacity=".3"/><path d="M221.801 226.541c3.82.847 6.994 3.553 10.658 4.86 2.443.869 5.203 1.177 7.15 2.889-.468-1.183-1.576-1.971-2.652-2.646a47.314 47.314 0 00-9.684-4.633c-1.738-.6-3.621-1.081-5.38-.611m-5.617 3.564c-4.788-.081-9.829-4.174-14.596-4.417 4.987-1.62 12.127-.297 14.596 4.417zm1.867-11.534a15.508 15.508 0 017.656-.54 46.16 46.16 0 017.473 2.036c-.248-1.669-1.614-2.922-2.857-4.029a19.644 19.644 0 00-2.997-2.316 6.652 6.652 0 00-3.599-1.021 5.687 5.687 0 00-3.976 2.009 6.637 6.637 0 00-1.7 3.839m-9.829-5.281c-3.013-2.587-7.581-2.333-11.546-2.241a93.776 93.776 0 0117.894 11.194c.172-2.813-2.539-5.691-6.348-8.953z" fill="#455A64"/><path d="M208.314 213.127c-3.013-2.587-7.581-2.333-11.546-2.241a93.776 93.776 0 0117.894 11.194c.172-2.813-2.539-5.691-6.348-8.953z" fill="#000" opacity=".3"/><path d="M219.504 209.558a33.42 33.42 0 014.637-2.7c1.582-.724 3.067-1.874 4.595-2.7 1.99-1.08 3.712-2.581 5.536-3.92 1.824-1.34 3.825-2.549 6.058-2.906a11.877 11.877 0 00-5.515.324 35.55 35.55 0 00-5.191 2.025c-2.352 1.08-4.74 2.16-6.666 3.878-1.926 1.717-3.659 3.429-3.454 6.01" fill="#455A64"/><path d="M232.373 229.964l-.151-.064-.42-.222c-.36-.189-.877-.475-1.528-.804a41.333 41.333 0 00-2.318-1.113 18.534 18.534 0 00-2.949-1.031 6.338 6.338 0 00-3.072-.076 9.05 9.05 0 00-1.301.389 6.714 6.714 0 00-2.373 1.62c-.274.297-.409.481-.425.47.025-.049.053-.096.086-.141a6.123 6.123 0 011.598-1.522c.339-.226.7-.417 1.076-.573a8.805 8.805 0 011.318-.416 6.376 6.376 0 013.147.065c1.021.262 2.017.615 2.975 1.053.442.2.861.394 1.243.594.382.2.743.373 1.076.54.646.346 1.157.643 1.507.859l.403.243c.065.092.113.124.108.129zm-19.675-2.381a.96.96 0 01.302.086c.267.097.527.211.78.341a9.584 9.584 0 014.003 3.855c.138.249.261.507.365.772.048.094.082.194.103.297-.027 0-.205-.394-.576-1.004a10.905 10.905 0 00-1.727-2.16 10.673 10.673 0 00-2.227-1.62c-.619-.378-1.033-.54-1.023-.567zm-10.593-14.699l.204.06.571.205.909.335c.355.135.737.329 1.167.54a27.748 27.748 0 016.236 3.99c1.04.881 2.02 1.832 2.932 2.846.732.838 1.42 1.714 2.06 2.624.538.778.963 1.426 1.249 1.869l.328.54c.038.058.073.12.102.183a.995.995 0 01-.134-.162c-.081-.113-.205-.28-.356-.502-.301-.437-.726-1.08-1.285-1.836a40.84 40.84 0 00-2.082-2.592 31.287 31.287 0 00-2.9-2.846 29.456 29.456 0 00-6.177-4.012c-.43-.194-.807-.399-1.156-.54l-.893-.362-.592-.248a.848.848 0 01-.183-.092zm23.22 2.846a1.694 1.694 0 01-.382-.049l-.436-.081c-.172-.032-.371-.038-.592-.059a6.034 6.034 0 00-3.287.653 5.934 5.934 0 00-1.501 1.118c-.366.359-.689.76-.963 1.193a9.96 9.96 0 00-.656 1.259 1.3 1.3 0 01.097-.373c.121-.331.274-.649.457-.95a6.46 6.46 0 01.952-1.242 5.874 5.874 0 011.534-1.156 5.793 5.793 0 013.378-.621c.221.032.425.038.597.081l.436.113c.126.024.249.062.366.114zm4.815-14.985a.801.801 0 01-.183.108l-.538.291c-.462.254-1.135.627-1.947 1.107a36.762 36.762 0 00-2.771 1.809 23.346 23.346 0 00-3.099 2.603 7.902 7.902 0 00-1.264 1.647 89.918 89.918 0 00-.893 1.75c-.494.99-.938 2.005-1.329 3.04a18.676 18.676 0 00-.646 2.16c-.123.513-.166.805-.183.799-.016-.005 0-.07 0-.21 0-.141.049-.346.103-.605a15.35 15.35 0 01.597-2.16 28.406 28.406 0 011.302-3.067c.274-.567.57-1.156.882-1.761a8.045 8.045 0 011.291-1.69 22.877 22.877 0 013.131-2.614 37.28 37.28 0 012.803-1.787c.818-.475 1.501-.821 1.975-1.08l.538-.259c.074-.036.151-.064.231-.081zm-13.428 14.553a2.461 2.461 0 01-.097-.405c-.054-.297-.124-.67-.21-1.113a29.863 29.863 0 00-.904-3.607 31.687 31.687 0 00-1.366-3.456l-.468-1.031a1.892 1.892 0 01-.151-.384c.084.11.155.23.21.357.129.232.307.578.538 1.004a23.931 23.931 0 012.286 7.096c.076.475.13.858.156 1.123.016.138.017.277.006.416z" fill="#263238"/><path d="M216.367 204.363a13.08 13.08 0 00-1.56-5.189 17.111 17.111 0 00-4.83-5.607 17.028 17.028 0 00-6.737-3.033l10.712 16.022 1.382 2.861a8.258 8.258 0 001.033-5.054z" fill="#455A64"/><path d="M231.727 235.937h-24.904v4.428h24.904v-4.428z" fill="#DC3001"/><path d="M208.685 239.49l2.119 13.743h16.533l2.529-13.743h-21.181z" fill="#DC3001"/><path d="M231.716 240.37c0 .049-5.622.092-12.546.092-6.924 0-12.546-.043-12.546-.092s5.617-.086 12.546-.086c6.93 0 12.546.016 12.546.086z" fill="#263238"/><path d="M77.01 216.767H54.92c-3.956 0-7.162 3.218-7.162 7.187v22.173c0 3.969 3.206 7.187 7.161 7.187h22.09c3.955 0 7.161-3.218 7.161-7.187v-22.173c0-3.969-3.206-7.187-7.16-7.187z" fill="#DC3001"/><path d="M77.01 216.767H54.92c-3.956 0-7.162 3.218-7.162 7.187v22.173c0 3.969 3.206 7.187 7.161 7.187h22.09c3.955 0 7.161-3.218 7.161-7.187v-22.173c0-3.969-3.206-7.187-7.16-7.187z" fill="#000" opacity=".3"/><path d="M70.473 216.767h-22.09c-3.955 0-7.161 3.218-7.161 7.187v22.173c0 3.969 3.206 7.187 7.16 7.187h22.09c3.956 0 7.162-3.218 7.162-7.187v-22.173c0-3.969-3.207-7.187-7.161-7.187z" fill="#DC3001"/><path d="M46.855 235.57l3.669-3.683 7.074 6.312 11.81-11.901 3.405 3.677L57.071 245.3l-10.216-9.73z" fill="#fff"/><path d="M96.13 229.938H81.695a4.435 4.435 0 00-4.427 4.444v14.488c0 2.454 1.982 4.444 4.427 4.444H96.13a4.436 4.436 0 004.428-4.444v-14.488a4.436 4.436 0 00-4.428-4.444z" fill="#263238"/><path d="M91.95 229.938H77.515a4.435 4.435 0 00-4.428 4.444v14.488c0 2.454 1.983 4.444 4.428 4.444H91.95c2.445 0 4.427-1.99 4.427-4.444v-14.488a4.435 4.435 0 00-4.427-4.444z" fill="#455A64"/><path d="M76.692 241.963l2.346-2.354 4.524 4.039 7.56-7.614 2.178 2.354-10.071 9.801-6.537-6.226zm77.009-223.787H41.302a3.88 3.88 0 00-3.873 3.888V179.41a3.881 3.881 0 003.873 3.888h112.399a3.88 3.88 0 003.874-3.888V22.064a3.88 3.88 0 00-3.874-3.888z" fill="#fff"/><path d="M153.701 183.298a3.992 3.992 0 001.415-.287 3.75 3.75 0 001.442-1.031 3.918 3.918 0 00.969-2.219c.026-3.78 0-9.31 0-16.454 0-14.289-.027-34.965-.043-60.513v-80.33a3.902 3.902 0 00-.926-2.813 3.716 3.716 0 00-2.625-1.329H41.302a3.755 3.755 0 00-3.012 1.528 3.642 3.642 0 00-.678 1.62 13.183 13.183 0 00-.054 1.793v156.163c.008.9.334 1.769.92 2.451a3.7 3.7 0 002.26 1.253 8.94 8.94 0 001.328.054h29.241l60.288.043 16.393.027h5.713-22.106l-60.288.049H42.05a9.5 9.5 0 01-1.36-.049 3.982 3.982 0 01-2.408-1.342 4.01 4.01 0 01-.966-2.589V23.22a13.227 13.227 0 01.059-1.836c.1-.625.349-1.216.726-1.723a4.017 4.017 0 013.228-1.62h112.647a4.002 4.002 0 012.803 1.42 4.167 4.167 0 01.941 2.981v80.347c0 25.547-.037 46.224-.048 60.512 0 7.15 0 12.69-.043 16.46a3.92 3.92 0 01-.996 2.246c-.4.449-.902.795-1.463 1.01-.344.137-.707.22-1.076.248l-.393.033z" fill="#263238"/><path d="M135.603 67.29H82.341a3.396 3.396 0 00-3.39 3.401v.33a3.396 3.396 0 003.39 3.402h53.262a3.395 3.395 0 003.389-3.402v-.33a3.395 3.395 0 00-3.389-3.402z" fill="#E0E0E0"/><path d="M69.709 63.034H58.777a2.77 2.77 0 00-2.766 2.776v10.973a2.77 2.77 0 002.766 2.775h10.932a2.77 2.77 0 002.765-2.775V65.81a2.77 2.77 0 00-2.765-2.776z" fill="#DC3001"/><path d="M58.556 71.534l1.663-1.663 3.195 2.856 5.343-5.383 1.538 1.663-7.117 6.928-4.622-4.401z" fill="#fff"/><path d="M135.603 92.923H82.341a3.396 3.396 0 00-3.39 3.402v.33a3.395 3.395 0 003.39 3.401h53.262a3.395 3.395 0 003.389-3.401v-.33a3.395 3.395 0 00-3.389-3.402z" fill="#E0E0E0"/><path d="M69.709 88.673H58.777a2.77 2.77 0 00-2.766 2.776v10.973a2.77 2.77 0 002.766 2.775h10.932a2.77 2.77 0 002.765-2.775V91.449a2.77 2.77 0 00-2.765-2.776z" fill="#DC3001"/><path d="M58.556 97.173l1.663-1.663 3.195 2.851 5.343-5.378 1.538 1.663-7.117 6.928-4.622-4.4z" fill="#fff"/><path d="M135.603 118.562H82.341a3.396 3.396 0 00-3.39 3.403v.329a3.396 3.396 0 003.39 3.402h53.262a3.395 3.395 0 003.389-3.402v-.329a3.396 3.396 0 00-3.389-3.403z" fill="#E0E0E0"/><path d="M69.709 114.307H58.777a2.77 2.77 0 00-2.766 2.776v10.973a2.77 2.77 0 002.766 2.775h10.932a2.77 2.77 0 002.765-2.775v-10.973a2.77 2.77 0 00-2.765-2.776z" fill="#DC3001"/><path d="M58.556 122.807l1.663-1.663L63.414 124l5.343-5.384 1.538 1.664-7.117 6.928-4.622-4.401z" fill="#fff"/><path d="M135.603 144.196H82.341a3.396 3.396 0 00-3.39 3.402v.33a3.396 3.396 0 003.39 3.402h53.262a3.395 3.395 0 003.389-3.402v-.33a3.395 3.395 0 00-3.389-3.402z" fill="#E0E0E0"/><path d="M69.709 139.946H58.777a2.77 2.77 0 00-2.766 2.776v10.973a2.77 2.77 0 002.766 2.775h10.932a2.77 2.77 0 002.765-2.775v-10.973a2.77 2.77 0 00-2.765-2.776z" fill="#DC3001"/><path d="M58.556 148.446l1.663-1.663 3.195 2.851 5.343-5.384 1.538 1.669-7.117 6.928-4.622-4.401z" fill="#fff"/><path d="M71.075 45.554h-2.593l-.484 1.2h-1.77l2.69-6.162h1.71l2.718 6.161h-1.792l-.479-1.199zm-.505-1.274l-.791-1.976-.791 1.976h1.582zm3.287-3.688h2.9c2.033 0 3.427 1.188 3.427 3.083 0 1.896-1.394 3.078-3.427 3.078h-2.9v-6.161zm2.83 4.768c.446 0 .875-.178 1.19-.495a1.694 1.694 0 000-2.39 1.681 1.681 0 00-1.19-.495H75.61v3.38h1.076zm10.426-4.768l-2.647 6.161h-1.71l-2.594-6.161h1.872l1.668 4.012 1.7-4.012h1.711zm4.261 4.962H88.77l-.478 1.2h-1.776l2.69-6.162h1.716l2.717 6.161h-1.807l-.458-1.199zm-.538-1.28l-.79-1.976-.738 1.982 1.528-.005zm9.152-3.682v6.161h-1.426l-2.69-3.283v3.283H94.15v-6.161h1.431l2.69 3.283v-3.283h1.717zm2.534 1.382h-1.883v-1.382h5.498v1.382h-1.878v4.78h-1.737v-4.78zm8.064 3.58h-2.593l-.484 1.2h-1.77l2.69-6.162h1.711l2.717 6.161h-1.808l-.463-1.199zm-.506-1.274l-.79-1.976-.786 1.976h1.576zm7.312-.74h1.533v2.554a4.588 4.588 0 01-2.577.783c-1.953 0-3.384-1.328-3.384-3.202 0-1.874 1.431-3.175 3.416-3.175a3.34 3.34 0 012.69 1.123l-1.103 1.005a1.92 1.92 0 00-1.49-.686 1.75 1.75 0 00-1.24.515 1.764 1.764 0 000 2.49c.329.33.775.516 1.24.516.325.001.646-.069.942-.206l-.027-1.717zm7.564 1.869v1.344h-4.928v-6.161h4.842v1.35h-3.121v1.037h2.723v1.301h-2.723v1.129h3.207zm.533.788l.57-1.28c.608.385 1.31.594 2.028.605.716 0 1.001-.205 1.001-.502 0-.978-3.492-.265-3.492-2.555 0-1.08.893-1.992 2.717-1.992a4.596 4.596 0 012.228.54l-.538 1.29a3.682 3.682 0 00-1.706-.475c-.726 0-.99.249-.99.54 0 .945 3.481.238 3.481 2.511 0 1.08-.893 1.988-2.717 1.988a4.826 4.826 0 01-2.582-.67zm53.24 188.05l-.463 12.187s12.186 4.569 12.326 6.826l-23.586-.049-.054-19.024 11.777.06z" fill="#263238"/><path d="M170.977 245.392a.965.965 0 00-.667 1.08.922.922 0 001.076.675 1.015 1.015 0 00.699-1.166.962.962 0 00-1.2-.578" fill="#E0E0E0"/><path d="M167.006 253.211l.07-1.917 22.596.767s1.076.459.931 1.199l-23.597-.049z" fill="#455A64"/><path d="M178.648 246.316c0 .113-.581.167-1.146.54-.565.372-.871.853-.979.804-.107-.048.07-.713.764-1.145.694-.432 1.388-.307 1.361-.199zm2.47 1.031c.027.113-.468.308-.861.794-.393.486-.506 1.01-.624 1.004-.119-.005-.183-.659.312-1.258s1.173-.648 1.173-.54zm1.399 2.975c-.103 0-.264-.54.037-1.188.302-.648.834-.88.883-.783.048.098-.285.432-.538.956-.253.524-.264 1.005-.382 1.015zm-4.068-6.782c-.048.108-.581-.054-1.232 0s-1.156.248-1.216.151c-.059-.097.431-.54 1.195-.54s1.307.286 1.253.389z" fill="#fff"/><path d="M149.86 232.583l-1.275 14.737 2.33 11.88a1.522 1.522 0 01-.711 1.594 1.516 1.516 0 01-1.287.12 1.487 1.487 0 01-.59-.396c-2.098-2.301-9.792-10.8-9.636-11.88.178-1.242.323-15.601.323-15.601l10.846-.454z" fill="#263238"/><path d="M149.623 261.004l-10.867-13.338-.043.626a2.315 2.315 0 00.441 1.507c.866 1.155 3.314 4.32 9.146 10.729a1.503 1.503 0 001.34.476h-.017z" fill="#455A64"/><path d="M142.07 243.108a.921.921 0 01.172 1.21.884.884 0 01-1.195.183.974.974 0 01-.172-1.285.909.909 0 011.259-.049" fill="#fff" opacity=".6"/><path d="M146.68 254.34a4.673 4.673 0 011.361-1.08 4.434 4.434 0 011.711-.216c0-.038-.166-.162-.505-.232a2.382 2.382 0 00-2.373.988c-.194.324-.226.54-.194.54zm.92 2.052a13.25 13.25 0 011.34-.54c.48-.057.963-.087 1.447-.092a1.669 1.669 0 00-1.517-.221c-.882.189-1.345.81-1.27.853zm-2.701-4.693c.06.076.829-.621 2.007-.988 1.178-.367 2.201-.27 2.211-.367.011-.097-1.049-.357-2.308.059-.77.19-1.447.649-1.91 1.296zm.017-4.503c.032.091.861-.195 1.921-.168 1.06.027 1.877.34 1.915.249a3.725 3.725 0 00-3.836-.081zm.263-4.326a7.225 7.225 0 011.996-.226c1.114.097 1.862.696 1.916.615.053-.081-.124-.227-.447-.443a3.25 3.25 0 00-1.436-.496 3.164 3.164 0 00-1.501.205c-.366.151-.549.313-.528.345zm2.023-1.053c.06-.173.08-.357.06-.54a3.91 3.91 0 00-.35-1.485 1.718 1.718 0 00-.683-.869.611.611 0 00-.689.092 1.001 1.001 0 00-.274.653 2.16 2.16 0 001.737 2.09 2.46 2.46 0 002.502-1.134.862.862 0 00.086-.713.592.592 0 00-.597-.356 2.092 2.092 0 00-1.001.443 4.28 4.28 0 00-1.076 1.08 1.34 1.34 0 00-.258.491 7 7 0 011.463-1.382c.258-.193.559-.318.877-.362a.313.313 0 01.329.189.604.604 0 01-.081.464 2.207 2.207 0 01-2.184.961 1.856 1.856 0 01-1.501-1.755.712.712 0 01.172-.459.32.32 0 01.382-.059c.266.175.472.427.591.724.278.608.445 1.26.495 1.927z" fill="#fff"/><path d="M190.086 131.474a52.44 52.44 0 011.141 15.406c-.237 3.283-11.266 93.906-11.266 93.906h-14.87l4.18-85.174-1.216.264s-8.118 36.326-8.78 42.207c-.592 5.286-7.441 43.697-7.441 43.697l-13.568.14 4.304-50.76 5.052-48.746 1.942-14.213 40.522 3.273z" fill="#263238"/><path d="M168.733 149.834s.027.043.097.102c.107.08.23.137.36.168a1.694 1.694 0 001.41-.335 2.77 2.77 0 00.963-1.928c.107-.81.124-1.679.183-2.603.102-1.846.177-3.515.215-4.725.046-.652.046-1.307 0-1.96a12.517 12.517 0 00-.21 1.95 248.94 248.94 0 00-.301 4.719c-.059.918-.07 1.809-.156 2.581a2.66 2.66 0 01-.823 1.804 1.643 1.643 0 01-1.259.389 2.674 2.674 0 01-.479-.162zm-21.859-8.764c.128.074.268.125.414.151.39.102.788.168 1.189.2a8.539 8.539 0 007.156-2.884c.266-.304.507-.629.721-.972.089-.123.158-.26.204-.405-.043 0-.377.508-1.076 1.231a9.134 9.134 0 01-6.994 2.819c-1.011-.032-1.614-.189-1.614-.14zm37.289-3.791a4.798 4.798 0 00.226 1.495 11.184 11.184 0 003.981 6.016c.387.33.823.597 1.291.794.065-.081-1.985-1.253-3.535-3.629-1.549-2.376-1.866-4.709-1.963-4.676z" fill="#455A64"/><path d="M229.586 111.64l3.411 1.08 6.198-3.44 3.519 9.833-8.436 2.014-6.392-.707 1.7-8.78z" fill="#AE7461"/><path d="M189.914 72.165s3.486 2.101 6.375 9.24c5.671 14.04 9.238 21.6 9.238 21.6l26.018 8.235-2.083 10.476s-26.394-3.694-29.928-5.022c-4.842-1.82-8.426-11.394-8.426-11.394l-1.194-33.135z" fill="#E0E0E0"/><path d="M182.737 40.71a2.743 2.743 0 001.84-.62 2.764 2.764 0 00-.947-4.78 2.878 2.878 0 00.327-3.343 2.86 2.86 0 00-3.06-1.36 3.435 3.435 0 00-1.927-2.78 3.411 3.411 0 00-3.367.231 3.84 3.84 0 00-4.734.146 2.723 2.723 0 00-1.674.33 2.743 2.743 0 00-1.337 2.964 2.75 2.75 0 00.859 1.48" fill="#263238"/><path d="M170.417 30.936h.603a11.622 11.622 0 018.049 2.7 11.703 11.703 0 014.088 7.463c.732 5.627 1.469 11.848 1.582 14.877.236 6.275-5.967 7.56-5.967 7.56l.904 7.506-15.188.287-2.69-27.26c-.887-6.507 2.136-12.425 8.619-13.133z" fill="#AE7461"/><path d="M178.826 63.504a15.148 15.148 0 01-8.28-1.998s2.152 4.417 8.355 3.542l-.075-1.544z" fill="#6F4439"/><path d="M180.908 46.861a.893.893 0 01-1.44.76.856.856 0 01-.314-.576.902.902 0 011.149-.915.85.85 0 01.605.731zm1.06-2.651c-.108.124-.807-.346-1.77-.297-.963.048-1.614.567-1.749.459-.134-.108.049-.27.345-.508.401-.31.887-.487 1.393-.508.5-.026.995.106 1.415.378.307.216.414.422.366.476zm-9.808 2.894a.89.89 0 01-.828.956.85.85 0 01-.958-.761.893.893 0 01.812-.945.85.85 0 01.974.75zm.377-2.241c-.108.119-.807-.35-1.765-.297-.958.054-1.641.54-1.754.454-.113-.087.049-.265.344-.508a2.45 2.45 0 011.394-.508c.5-.026.996.108 1.415.384.306.21.414.432.366.475zm3.835 6.977a6.45 6.45 0 011.55-.362c.242-.038.473-.097.506-.264a1.301 1.301 0 00-.199-.724c-.264-.583-.538-1.199-.818-1.836-1.141-2.62-1.98-4.78-1.872-4.822.107-.044 1.113 2.04 2.254 4.66.274.643.538 1.258.785 1.847.17.29.233.63.178.96a.612.612 0 01-.388.379 1.637 1.637 0 01-.414.08 6.192 6.192 0 01-1.582.082zm-3.185-10.73c-.118.254-.952.027-1.969.043-1.016.017-1.856.233-1.963 0-.043-.118.123-.35.479-.54a3.04 3.04 0 011.506-.4 2.931 2.931 0 011.485.379c.349.172.511.4.462.518zm8.657-.875c-.194.227-.995.038-1.953.076-.957.038-1.748.237-1.947 0-.086-.108.027-.335.371-.54a3.068 3.068 0 011.565-.438c.549-.025 1.094.1 1.577.362.323.206.441.427.387.54z" fill="#263238"/><path d="M182.415 38.227s-1.846-3.845-3.766-4.666c-2.341-.994-3.196 1.571-5.38 1.08-2.185-.491-4.444-1.458-6.586.34-2.34 1.971-1.135 3.208-1.151 6-.048 11.313-1.942 14.607-2.792 9.32-.092-.578-1.727-.961-2.087-3.407-.463-3.176-.781-7.02-.183-9.342.505-1.939 1.522-3.31 3.394-4.86 2.954-2.447 7.167-2.7 10.045-2.56 2.878.14 8.522 3.164 8.506 8.095z" fill="#263238"/><path d="M163.1 50.101a1.71 1.71 0 00-1.234-1.5 1.694 1.694 0 00-.681-.05c-1.162.168-2.421.897-2.228 3.31.35 4.283 4.557 3.046 4.557 2.927 0-.118-.253-2.9-.414-4.687z" fill="#AE7461"/><path d="M162.476 53.25s-.07.059-.188.129a.756.756 0 01-.538.054c-.468-.13-.904-.815-.99-1.582a2.476 2.476 0 01.124-1.08.87.87 0 01.511-.621.386.386 0 01.457.167c.065.119.043.205.07.21.027.006.086-.08.038-.253a.54.54 0 00-.194-.254.538.538 0 00-.42-.075 1.043 1.043 0 00-.721.729 2.57 2.57 0 00-.161 1.215c.097.858.603 1.62 1.237 1.76a.778.778 0 00.668-.173c.107-.119.107-.216.107-.227z" fill="#6F4439"/><path d="M162.772 41.79c.547.4 1.185.657 1.856.746a1.398 1.398 0 001.496-1.08c.038-.303-.054-.643.129-.886s.656-.221 1.017-.2c1.248.07 2.631-1.382 2.884-2.608a1.117 1.117 0 001.506.232 3.99 3.99 0 00.985-.966 1.766 1.766 0 011.431-.81c.305.088.619.14.936.156.538-.075.801-.75.861-1.312.059-.561.091-1.22.538-1.544.446-.324 1.006-.173 1.527-.119.522.054 1.179-.103 1.286-.621a1.003 1.003 0 00-.231-.767 2.77 2.77 0 00-3.314-.885 3.777 3.777 0 00-3.348-2.473 3.757 3.757 0 00-3.576 2.127 3.815 3.815 0 00-3.447-.723 3.813 3.813 0 00-2.568 2.419 2.755 2.755 0 00-2.831 1.128 2.781 2.781 0 00-.08 3.057 2.615 2.615 0 00-1.334 2.16c0 .885.931 1.728 1.776 1.452a1.543 1.543 0 00.683 2.068 1.528 1.528 0 002.06-.685" fill="#263238"/><path d="M176.061 32.4v.313a2.831 2.831 0 01-.269.837c-.213.425-.52.795-.899 1.08a2.826 2.826 0 01-1.727.589l.07-.12c.147.385.137.812-.027 1.189-.175.39-.403.753-.678 1.08a3.279 3.279 0 01-.457.54c-.193.15-.421.248-.662.286a1.553 1.553 0 01-1.398-.427l.156-.053a3.198 3.198 0 01-1.238 2.273 2.352 2.352 0 01-1.383.54 4.21 4.21 0 01-1.393-.232l.108-.06a3.376 3.376 0 01-.963 1.345 1.804 1.804 0 01-1.469.48 2.36 2.36 0 01-1.894-1.738l.097.043a2.18 2.18 0 01-1.453.286 2.375 2.375 0 01-1.049-.405 2.08 2.08 0 01-.505-.502.856.856 0 01-.119-.216c.182.258.408.48.667.659.306.2.654.324 1.017.361.478.065.963-.04 1.372-.297l.081-.048v.092a2.23 2.23 0 001.797 1.62 1.608 1.608 0 001.334-.454c.398-.354.703-.8.888-1.301l.026-.081h.087c.428.15.879.228 1.334.227a2.149 2.149 0 001.275-.497 3.024 3.024 0 001.178-2.16v-.2l.145.146a1.377 1.377 0 001.232.378c.215-.033.418-.118.592-.249.158-.146.301-.31.425-.486.272-.313.497-.664.667-1.042a1.383 1.383 0 00.038-1.08l-.038-.102h.108a2.727 2.727 0 001.657-.54 3.06 3.06 0 00.92-.994c.178-.337.296-.702.35-1.08z" fill="#455A64"/><path d="M176.329 55.145c-.032-.162-1.076.113-2.044-.583-.968-.697-1.151-1.842-1.297-1.81-.145.033-.139.298-.027.773.154.612.515 1.15 1.023 1.523.488.357 1.096.51 1.694.426.447-.075.673-.259.651-.33z" fill="#263238"/><path d="M201.686 94.791c-.097-.34-5.66-15.535-7.43-18.862-2.125-3.98-6.591-5.74-9.361-5.94-2.771-.2-32.415 2.203-32.415 2.203s-8.855 1.988-9.985 9.634c-1.302 8.802-2.437 28.95-2.437 28.95l13.493-6.945 1.748-4.417 27.922 6.253 6.817-10.087 11.648-.788z" fill="#E0E0E0"/><path d="M150.522 73.084l11.577-5.125 1.297-5.011 13.52 6.415 2.83-3.143 1.189 3.543 2.959.972 6.924 12.22v26.039l1.399 22.464-1.523 3.542-12.401 1.836c-1.355.2-2.733.2-4.089 0l-25.178-4.12-.646-7.436 2.69-20.461-.548-31.735z" fill="#E0E0E0"/><path d="M163.396 62.948s1.512.437 5.38 2.516c3.804 2.036 8.124 3.899 8.124 3.899l-.328 6.124-14.386-7.247m17.56-2.02l-2.83 3.143 1.512 6.566 2.523-5.934" fill="#E0E0E0"/><path d="M176.97 70.038c.123.097.909 7.56.909 7.56L163.46 68.85l13.128 6.615.382-5.427z" fill="#000" opacity=".3"/><path d="M176.873 97.972c-.221-5.724.678-20.325.678-20.325l1.883-.308a214.545 214.545 0 014.842 31.595c.538 7.02.538 15.201.538 15.201l-3.766 8.133-4.175-8.1s.263-19.235 0-26.196z" fill="#455A64"/><path d="M149.661 73.98c-.027.027.387.351.974.956a11.955 11.955 0 013.056 5.708c.177.82.22 1.344.252 1.339a1.13 1.13 0 000-.367 7.803 7.803 0 00-.123-1 10.599 10.599 0 00-1.076-3.137 10.682 10.682 0 00-2.002-2.646 7.028 7.028 0 00-.764-.648 1.64 1.64 0 00-.317-.205z" fill="#263238"/><path d="M176.873 72.29l1.286-.502 1.221 2.1.221 3.45-1.722.282-1.291-2.133.285-3.197z" fill="#455A64"/><path d="M190.797 82.56c-.054 0-.103 7.474-.103 16.686 0 9.213.049 16.692.103 16.692.053 0 .102-7.468.102-16.692 0-9.223-.049-16.685-.102-16.685zm-14.015-13.251c.223.428.467.844.731 1.247.59.998 1.128 2.026 1.614 3.078.049.103.097.2.14.297l.092.195.091-.195c.47-.991.871-2.014 1.2-3.061.124-.395.215-.719.269-.946.043-.113.065-.234.065-.356-.027 0-.178.48-.463 1.258a32.546 32.546 0 01-1.254 3.019h.183l-.14-.297a25.745 25.745 0 00-1.694-3.067 24.65 24.65 0 00-.608-.875c-.151-.205-.216-.308-.226-.297z" fill="#263238"/><path d="M162.1 67.959a.999.999 0 00.199.119l.581.308 2.152 1.117c1.813.945 4.304 2.295 7.048 3.78 1.673.897 3.26 1.728 4.642 2.42l.13.064V75.6c0-1.798.032-3.31.043-4.406v-1.242c.01-.148.01-.296 0-.443a2.528 2.528 0 00-.038.443c0 .307-.027.723-.048 1.236-.027 1.08-.065 2.614-.113 4.407l.129-.076a377.955 377.955 0 01-4.633-2.44c-2.749-1.475-5.245-2.803-7.074-3.721-.915-.454-1.663-.816-2.179-1.08l-.603-.27a.82.82 0 00-.236-.049zm26.959 4.725c-.033 0 .193.4.489 1.08.375.853.651 1.746.823 2.662.166.92.223 1.854.173 2.787-.038.718-.113 1.155-.081 1.16.045-.095.076-.197.091-.302.059-.28.102-.563.129-.848a10.055 10.055 0 00-1.011-5.518 6.056 6.056 0 00-.425-.746c-.113-.194-.178-.286-.188-.275zm-10.863 5.157c0 .049.355-.108.727-.346.371-.237.656-.464.624-.513a1.775 1.775 0 00-.732.346c-.371.238-.651.464-.619.513zm-.618-.842c.348-.553.64-1.14.871-1.75.292-.579.528-1.185.705-1.81a9.085 9.085 0 00-.877 1.745 9.424 9.424 0 00-.699 1.815z" fill="#263238"/><path d="M148.149 74.369s-4.46 3.24-5.019 5.005c-.56 1.766-2.927 30.721-3.347 34.166-.419 3.445-.839 9.877 1.813 11.977 2.653 2.101 8.366 3.678 8.366 3.678l5.278-10.935-2.798-5.881 2.798-21.978-7.091-16.032z" fill="#E0E0E0"/><path d="M148.687 128.806c.095-.009.19-.009.285 0 .275-.001.55-.019.823-.054a5.965 5.965 0 002.852-1.037 7.799 7.799 0 002.722-3.736 17.032 17.032 0 001.033-5.892l.027.076-4.1-5.697-.032-.043v-.054c0-.146.038-.308.059-.465a20859.2 20859.2 0 012.023-15.811c.258-2.004.468-3.634.619-4.79.07-.54.123-.983.167-1.307.043-.324.059-.453.064-.453a.261.261 0 010 .118v.34c-.032.325-.07.762-.118 1.313a263.31 263.31 0 01-.538 4.8c-.474 4.056-1.157 9.65-1.942 15.828 0 .157-.038.313-.06.459v-.097l4.084 5.702v.076a17.205 17.205 0 01-1.076 5.978 7.942 7.942 0 01-2.841 3.78 5.364 5.364 0 01-1.614.75l-.366.103-.344.059c-.199.04-.4.064-.603.07a4.77 4.77 0 01-.828 0c-.099.005-.198 0-.296-.016z" fill="#263238"/><path d="M143.296 114.394c.345-.34.74-.623 1.173-.837a10.911 10.911 0 016.709-1.313c.481.039.953.152 1.399.335a13.35 13.35 0 00-9.302 1.815h.021z" fill="#263238"/><path d="M178.304 85.58s.258.96.662 2.656a12.035 12.035 0 013.443-3.305s6.886-6.869 9.087-14.088c1.614-5.244 1.199-11.054 1.199-11.054-.064-.276-.602-2.738-1.038-4.752a3.16 3.16 0 01.391-2.316 3.138 3.138 0 011.88-1.4c3.405-.923 12.664-2.721 14.816 3.51 3.169 9.316-1.958 19.376-1.899 22.254v1.345c2.717-.632 4.842-1.08 4.842-1.037l17.829-4.174s5.891-1.793 7.914 4.27c2.023 6.065-4.842 8.1-4.842 8.1s3.228-.145 4.1 5.368c.871 5.514-5.02 7.301-5.02 7.301s3.61-.232 4.546 4.655c.91 4.757-4.982 7.625-5.299 7.776.468-.118.942-.208 1.42-.27-.351.129-.71.234-1.076.313 2.75.351 3.148 3.634 3.148 3.634 1.77 6.734-3.395 8.149-3.395 8.149l-32.571 7.625a18.662 18.662 0 01-9.813-.357c.312 1.394.479 2.16.468 2.16l-22.741 5.33c-.048 0-2.502-10.362-5.482-23.16-2.981-12.798-5.353-23.22-5.305-23.22l22.736-5.314z" fill="#DC3001"/><path d="M178.304 85.58s.258.96.662 2.656a12.035 12.035 0 013.443-3.305s6.886-6.869 9.087-14.088c1.614-5.244 1.199-11.054 1.199-11.054-.064-.276-.602-2.738-1.038-4.752a3.16 3.16 0 01.391-2.316 3.138 3.138 0 011.88-1.4c3.405-.923 12.664-2.721 14.816 3.51 3.169 9.316-1.958 19.376-1.899 22.254v1.345c2.717-.632 4.842-1.08 4.842-1.037l17.829-4.174s5.891-1.793 7.914 4.27c2.023 6.065-4.842 8.1-4.842 8.1s3.228-.145 4.1 5.368c.871 5.514-5.02 7.301-5.02 7.301s3.61-.232 4.546 4.655c.91 4.757-4.982 7.625-5.299 7.776.468-.118.942-.208 1.42-.27-.351.129-.71.234-1.076.313 2.75.351 3.148 3.634 3.148 3.634 1.77 6.734-3.395 8.149-3.395 8.149l-32.571 7.625a18.662 18.662 0 01-9.813-.357c.312 1.394.479 2.16.468 2.16l-22.741 5.33c-.048 0-2.502-10.362-5.482-23.16-2.981-12.798-5.353-23.22-5.305-23.22l22.736-5.314z" fill="#000" opacity=".3"/><path d="M182.699 92.08l-.441 2.97 7.274 31.24a18.698 18.698 0 0014.628 2.646l32.56-7.63s5.165-1.415 3.395-8.149c0 0-.425-3.575-3.497-3.672 0 0 6.241-2.894 5.31-7.781s-4.541-4.65-4.541-4.65 5.891-1.793 5.014-7.306c-.877-5.513-4.099-5.368-4.099-5.368s6.859-2.014 4.842-8.1c-2.018-6.085-7.914-4.271-7.914-4.271l-23.134 5.4-20.294 4.757a11.895 11.895 0 00-6.077 3.546 11.971 11.971 0 00-3.026 6.369z" fill="#DC3001"/><path d="M188.112 83.748s6.886-6.868 9.087-14.088c1.614-5.244 1.199-11.049 1.199-11.049-.064-.28-.602-2.743-1.038-4.757a3.16 3.16 0 01.391-2.316 3.14 3.14 0 011.879-1.4c3.422-.928 9.593.778 11.718 7.02 3.169 9.31 1.135 15.86 1.189 18.739l.054 2.878-24.479 4.973zm-4.086.624l-22.736 5.332 10.792 46.368 22.737-5.331-10.793-46.369z" fill="#DC3001"/><path d="M194.815 130.761c.049 0-2.324-10.4-5.304-23.22-2.981-12.82-5.434-23.177-5.482-23.166-.049.01 2.324 10.4 5.304 23.22 2.981 12.82 5.423 23.177 5.482 23.166zm-22.735 5.319c.048 0-2.33-10.401-5.31-23.22-2.981-12.82-5.434-23.177-5.483-23.166-.048.01 2.325 10.4 5.305 23.22 2.981 12.819 5.434 23.166 5.488 23.166z" fill="#263238"/><path d="M178.471 96.887a4.404 4.404 0 01-.165 2.54 4.38 4.38 0 01-1.543 2.019 4.354 4.354 0 01-4.851.163 4.38 4.38 0 01-1.673-1.913 4.4 4.4 0 01.786-4.807 4.367 4.367 0 012.195-1.275 4.361 4.361 0 013.3.546 4.392 4.392 0 011.951 2.727z" fill="#fff"/><path d="M217.395 76.205c0-.049-2.501.491-5.557 1.21-3.056.717-5.531 1.333-5.52 1.382.011.048 2.502-.492 5.557-1.204 3.056-.713 5.531-1.34 5.52-1.388zm20.498 20.957c0-.048-1.614.286-3.561.74-1.192.243-2.37.55-3.53.918 0 .049 1.614-.286 3.562-.74a36.065 36.065 0 003.529-.918zm.828-13.003c0-.049-2.27.443-5.046 1.08-2.776.637-5.014 1.215-5.004 1.269.011.054 2.271-.443 5.047-1.08s5.014-1.188 5.003-1.27zm-.672 25.051c0-.049-2.27.437-5.047 1.08-2.776.642-5.014 1.215-5.003 1.263.011.049 2.27-.437 5.047-1.08 2.776-.642 5.014-1.215 5.003-1.263z" fill="#263238"/><path d="M199.824 52.434a2.705 2.705 0 00-.538 2.7c.341.91.756 1.79 1.243 2.63a9.911 9.911 0 01.764 6.28c-.135.642-.312 1.382.097 1.895.581.724 1.748.324 2.485-.243a9.34 9.34 0 002.975-4.248 9.37 9.37 0 00.253-5.186 6.565 6.565 0 00-2.292-3.71c-1.189-.885-3.012-1.684-5.03-.134m37.568 20.417a5.556 5.556 0 00-2.404.254l-13.741 3.5c-1.496.383-4.304.723-4.336 2.256-.302.837.333 1.788 1.151 2.128.851.276 1.762.31 2.631.097 1.834-.291 3.647-.723 5.461-1.155 3.636-.875 7.284-1.772 10.76-3.24a5 5 0 001.441-.816 1.871 1.871 0 00.684-1.463 1.918 1.918 0 00-1.647-1.56z" fill="#fff" opacity=".3"/><path d="M178.971 86.94c0-.049-3.228.659-7.117 1.577-3.89.918-7.086 1.7-7.075 1.75.011.048 3.196-.654 7.118-1.572s7.085-1.68 7.074-1.755zm61.343 5.276a.885.885 0 00.086-.27c.066-.251.106-.508.118-.767.026-.384.014-.77-.038-1.15a6.587 6.587 0 00-.365-1.367 6.304 6.304 0 00-.678-1.242 5.37 5.37 0 00-.764-.864 3.934 3.934 0 00-.614-.47.808.808 0 00-.247-.134c0 .032.317.248.775.702.263.264.501.554.71.864.256.38.472.785.645 1.21.166.427.29.87.372 1.322a6.7 6.7 0 01.075 1.124c-.016.626-.113 1.03-.075 1.042zm.629-12.534c.188-.17.335-.38.431-.615a3.533 3.533 0 00.333-1.777 3.64 3.64 0 00-.538-1.722 1.678 1.678 0 00-.505-.54c-.027 0 .172.226.392.62a3.955 3.955 0 01.221 3.375c-.188.406-.361.638-.334.66zm-1.716 26.034c.247-.151.456-.358.608-.605a3.125 3.125 0 00-.237-3.91 1.85 1.85 0 00-.678-.54s.259.211.581.611c.421.526.672 1.168.721 1.841a3.302 3.302 0 01-.495 1.917c-.269.448-.527.664-.5.686zm-2.066 12.096c.179-.186.318-.407.409-.648a4.098 4.098 0 00-.156-3.624 1.906 1.906 0 00-.463-.61c-.026 0 .151.249.35.67.255.546.401 1.136.431 1.739a4.587 4.587 0 01-.28 1.771c-.162.437-.318.686-.291.702zm-25.56-49.702c.06-.175.105-.356.134-.54.038-.167.081-.378.119-.626.037-.249.086-.54.107-.843.08-.731.107-1.467.081-2.203a16.904 16.904 0 00-1.017-5.297 15.759 15.759 0 00-.898-2.014 8.714 8.714 0 00-.414-.74c-.124-.2-.243-.394-.345-.54a2.66 2.66 0 00-.323-.438c.075.166.163.325.264.476.091.15.199.334.312.54.113.205.264.464.393.75.323.654.607 1.327.85 2.014.292.844.527 1.706.705 2.582.159.88.262 1.769.306 2.662.03.72.016 1.441-.043 2.16 0 .313-.054.594-.08.837-.027.243-.06.459-.087.632-.043.193-.065.39-.064.588z" fill="#fff"/><path d="M159.684 122.823s1.786-1.393 3.115-1.447c1.329-.054 3.056.459 3.4.286.345-.173 1.157-.934 1.673-.292.517.643 1.157 2.954-1.614 3.591h-1.904s.231 1.912.694 2.663c.463.75 6.924 8.915 6.924 8.915s.807.815.403 1.62c-.403.805-2.152.346-2.152.346s-1.21 1.08-2.593.577a9.558 9.558 0 01-1.963-.923 2.562 2.562 0 01-3.115 0c-1.614-1.215-6.994-7.992-6.994-7.992l1.926-7.56 2.2.216z" fill="#AE7461"/><path d="M154.078 118.341l5.606 4.482-4.116 7.349-8.21-2.991s.237-8.683 6.72-8.84zm87.441-10.012s-.178-2.014-1.302-1.62c-1.124.395-1.614 2.787-1.614 2.787l2.916-1.167z" fill="#AE7461"/><path d="M237.5 110.316s1.953-2.192 4.665-2.014c2.711.178 1.006 2.49 1.006 2.49s2.012 1.242.538 3.024l-.237.475s1.711.648-.059 2.484a1.817 1.817 0 01-.237 2.079c-.888.886-3.099-.297-3.099-.297s-2.039.475-2.216-.357a1.569 1.569 0 01.473-1.56c.178-.119 1.243-.54 1.243-.54s-2.362.297-2.421-.297c-.059-.594-.296-1.248 1.474-1.836l.947-.254s-2.453.076-2.47-.54c-.016-.616-.129-.832.754-1.242.557-.26 1.096-.558 1.614-.891 0 0-2.324.524-1.975-.724z" fill="#AE7461"/><path d="M237.07 112.633a10.017 10.017 0 012.921-1.501 10.145 10.145 0 013.271-.259 2.676 2.676 0 00-.963-.205 6.627 6.627 0 00-4.519 1.279c-.28.18-.521.413-.71.686zm.269 3.386s-.054-.076-.113-.211a.94.94 0 010-.615c.09-.302.28-.565.538-.745a3.082 3.082 0 011.076-.449 26.454 26.454 0 013.099-.378 2.894 2.894 0 00-.926-.102 9.596 9.596 0 00-2.227.243c-.416.087-.81.26-1.157.507a1.503 1.503 0 00-.57.881.928.928 0 00.081.702c.118.145.193.178.199.167zm.995 2.608s-.086-.054-.204-.167a.996.996 0 01-.202-1.158.992.992 0 01.255-.327 4.008 4.008 0 011.157-.54 7.806 7.806 0 012.367-.125c.336.044.677.026 1.006-.054a7.545 7.545 0 00-.995-.118 6.546 6.546 0 00-2.448.064c-.442.127-.859.33-1.232.6-.168.14-.29.328-.35.54a1.363 1.363 0 000 .54 1.007 1.007 0 00.404.653c.134.103.242.103.242.092zm-.866-8.213s.048-.076.172-.189c.171-.156.351-.302.538-.438a7.716 7.716 0 012.001-1.08 5.177 5.177 0 012.228-.324c.307.07.611.157.909.26a1.61 1.61 0 00-.877-.427 4.606 4.606 0 00-2.33.259c-1.775.637-2.786 1.858-2.641 1.939z" fill="#6F4439"/></svg>