<svg width="224" height="93" fill="none" xmlns="http://www.w3.org/2000/svg"><path d="M3.735 70V38.5H17.37c2.82 0 5.25.465 7.29 1.395 2.04.9 3.615 2.205 4.725 3.915 1.11 1.71 1.665 3.75 1.665 6.12 0 2.34-.555 4.365-1.665 6.075-1.11 1.71-2.685 3.03-4.725 3.96-2.04.9-4.47 1.35-7.29 1.35H7.785l3.24-3.285V70h-7.29zm7.29-11.16l-3.24-3.465h9.18c2.25 0 3.93-.48 5.04-1.44 1.11-.96 1.665-2.295 1.665-4.005 0-1.74-.555-3.09-1.665-4.05-1.11-.96-2.79-1.44-5.04-1.44h-9.18l3.24-3.465V58.84zm40.969 11.7c-2.49 0-4.8-.405-6.93-1.215-2.1-.81-3.93-1.95-5.49-3.42a16.058 16.058 0 01-3.6-5.175c-.84-1.98-1.26-4.14-1.26-6.48 0-2.34.42-4.5 1.26-6.48a15.73 15.73 0 013.645-5.175c1.56-1.47 3.39-2.61 5.49-3.42s4.38-1.215 6.84-1.215c2.49 0 4.77.405 6.84 1.215 2.1.81 3.915 1.95 5.445 3.42a15.73 15.73 0 013.645 5.175c.87 1.95 1.305 4.11 1.305 6.48 0 2.34-.435 4.515-1.305 6.525a15.73 15.73 0 01-3.645 5.175c-1.53 1.44-3.345 2.565-5.445 3.375-2.07.81-4.335 1.215-6.795 1.215zm-.045-6.21c1.41 0 2.7-.24 3.87-.72 1.2-.48 2.25-1.17 3.15-2.07.9-.9 1.59-1.965 2.07-3.195.51-1.23.765-2.595.765-4.095 0-1.5-.255-2.865-.765-4.095a9.181 9.181 0 00-2.07-3.195 8.816 8.816 0 00-3.105-2.07c-1.2-.48-2.505-.72-3.915-.72-1.41 0-2.715.24-3.915.72a9.392 9.392 0 00-3.105 2.07 9.74 9.74 0 00-2.115 3.195c-.48 1.23-.72 2.595-.72 4.095 0 1.47.24 2.835.72 4.095a10.12 10.12 0 002.07 3.195c.9.9 1.95 1.59 3.15 2.07 1.2.48 2.505.72 3.915.72zM74.663 70V38.5h7.29V70h-7.29zm14.765 0V38.5h6.03l18.585 22.68h-2.925V38.5h7.2V70h-5.985l-18.63-22.68h2.925V70h-7.2zm42.868 0V44.44h-10.08V38.5h27.45v5.94h-10.08V70h-7.29z" fill="#112242"/><path d="M156.06 71.72l-.901 1.424.008.005.007.005.886-1.434zm-8.132-9.424l-1.518.731 1.518-.731zm0-29.792l1.518.731-1.518-.731zm8.132-9.348l.886 1.434.007-.005.008-.005-.901-1.424zm23.408 0l-.91 1.418.012.008.012.008.886-1.434zm8.132 9.348l-1.518.731 1.518-.731zm0 29.792l-1.518-.731 1.518.731zm-8.132 9.424l.895 1.428.006-.004-.901-1.424zm-6.308-8.968l-1.004-1.353-.011.008-.01.008 1.025 1.337zm3.648-5.548l-1.586-.57-.005.013-.004.014 1.595.543zm0-19.608l-1.595.543.004.014.005.014 1.586-.571zm-3.648-5.548l-1.025 1.337.01.009.011.007 1.004-1.353zm-10.792 0l-1.004-1.353-.011.008-.01.008 1.025 1.337zm-3.648 5.548l-1.586-.57-.005.013-.004.014 1.595.543zm0 19.608l-1.595.542.004.015.005.014 1.586-.571zm3.648 5.548l-1.025 1.337.01.008.011.008 1.004-1.353zm5.396 10.475c-4.069 0-7.66-.99-10.818-2.94l-1.772 2.867c3.732 2.305 7.945 3.443 12.59 3.443v-3.37zm-10.803-2.931c-3.148-1.991-5.659-4.877-7.515-8.731l-3.036 1.462c2.096 4.354 5.007 7.75 8.749 10.117l1.802-2.848zm-7.515-8.731c-1.84-3.822-2.797-8.523-2.797-14.165h-3.37c0 6.011 1.019 11.24 3.131 15.627l3.036-1.462zM146.649 47.4c0-5.642.957-10.343 2.797-14.165l-3.036-1.462c-2.112 4.387-3.131 9.616-3.131 15.627h3.37zm2.797-14.165c1.855-3.851 4.361-6.707 7.5-8.645l-1.772-2.868c-3.752 2.318-6.667 5.694-8.764 10.05l3.036 1.463zm7.515-8.655c3.157-1.996 6.742-3.007 10.803-3.007v-3.37c-4.653 0-8.871 1.168-12.605 3.529l1.802 2.848zm10.803-3.007c4.116 0 7.696 1.013 10.794 3.001l1.82-2.836c-3.691-2.37-7.914-3.535-12.614-3.535v3.37zm10.818 3.017c3.139 1.938 5.645 4.794 7.5 8.645l3.036-1.462c-2.097-4.357-5.012-7.733-8.764-10.05l-1.772 2.867zm7.5 8.645c1.84 3.822 2.797 8.523 2.797 14.165h3.37c0-6.011-1.019-11.24-3.131-15.627l-3.036 1.462zm2.797 14.165c0 5.642-.957 10.343-2.797 14.165l3.036 1.462c2.112-4.386 3.131-9.616 3.131-15.627h-3.37zm-2.797 14.165c-1.856 3.854-4.367 6.74-7.515 8.73l1.802 2.85c3.742-2.367 6.653-5.764 8.749-10.118l-3.036-1.462zm-7.509 8.727c-3.1 1.943-6.685 2.935-10.809 2.935v3.37c4.692 0 8.91-1.136 12.599-3.45l-1.79-2.855zm-10.809-4.107c2.415 0 4.582-.685 6.421-2.096l-2.05-2.674c-1.201.92-2.631 1.4-4.371 1.4v3.37zm6.4-2.08c1.93-1.432 3.308-3.617 4.239-6.359l-3.19-1.085c-.791 2.326-1.846 3.839-3.057 4.738l2.008 2.706zm4.23-6.33c1.001-2.783 1.467-6.263 1.467-10.375h-3.37c0 3.894-.446 6.949-1.269 9.233l3.172 1.142zm1.467-10.375c0-4.112-.466-7.592-1.467-10.375l-3.172 1.142c.823 2.284 1.269 5.34 1.269 9.233h3.37zm-1.458-10.346c-.931-2.742-2.309-4.927-4.239-6.36l-2.008 2.707c1.211.9 2.266 2.412 3.057 4.737l3.19-1.084zm-4.218-6.343c-1.839-1.41-4.006-2.096-6.421-2.096v3.37c1.74 0 3.17.48 4.371 1.4l2.05-2.674zm-6.421-2.096c-2.374 0-4.528.69-6.4 2.08l2.008 2.706c1.269-.941 2.713-1.416 4.392-1.416v-3.37zm-6.421 2.096c-1.861 1.426-3.23 3.595-4.209 6.314l3.172 1.142c.845-2.348 1.908-3.877 3.087-4.782l-2.05-2.674zm-4.218 6.343c-.943 2.771-1.382 6.241-1.382 10.346h3.37c0-3.9.422-6.967 1.202-9.261l-3.19-1.086zM155.743 47.4c0 4.105.439 7.575 1.382 10.346l3.19-1.085c-.78-2.294-1.202-5.36-1.202-9.261h-3.37zm1.391 10.375c.979 2.719 2.348 4.888 4.209 6.314l2.05-2.674c-1.179-.905-2.242-2.434-3.087-4.782l-3.172 1.142zm4.23 6.33c1.872 1.39 4.026 2.08 6.4 2.08v-3.37c-1.679 0-3.123-.475-4.392-1.416l-2.008 2.706zM204.457 74h-1.685v1.685h1.685V74zm0-48.64l1.192-1.192-2.877-2.876v4.068h1.685zm5.32 5.32v1.685h4.069l-2.877-2.877-1.192 1.192zm-15.96 0h-1.685v1.685h1.685V30.68zm0-9.88v-1.685h-1.685V20.8h1.685zm22.952 0h1.685v-1.685h-1.685V20.8zm0 53.2v1.685h1.685V74h-1.685zm-10.627 0V25.36h-3.37V74h3.37zm-2.876-47.448l5.32 5.32 2.383-2.384-5.32-5.32-2.383 2.384zm6.511 2.443h-15.96v3.37h15.96v-3.37zm-14.275 1.685V20.8h-3.37v9.88h3.37zm-1.685-8.195h22.952v-3.37h-22.952v3.37zm21.267-1.685V74h3.37V20.8h-3.37zm1.685 51.515h-12.312v3.37h12.312v-3.37z" fill="#112242"/><circle cx="51.999" cy="54.599" r="13.472" fill="#000"/><ellipse cx="55.449" cy="42.836" rx="3.119" ry="2.955" fill="#fff"/><circle cx="55.743" cy="52.817" r="2.1" fill="#fff"/><circle cx="43.019" cy="56.7" r="2.1" fill="#fff"/><circle cx="51.016" cy="66.15" r="3.284" fill="#fff"/><circle cx="63.952" cy="52.16" r="2.1" fill="#fff"/><path d="M47.35 37.248c-9.582 2.567-15.269 12.417-12.7 22 2.567 9.582 12.417 15.269 22 12.701 9.582-2.567 15.268-12.417 12.7-22-2.567-9.582-12.416-15.27-22-12.701zm11.314 5.809c5.806 3.352 8 10.265 5.864 16.098L41.79 46.027c3.986-4.769 11.071-6.32 16.874-2.97zM45.336 66.14c-5.806-3.352-8-10.265-5.864-16.098L62.21 63.169c-3.986 4.77-11.071 6.322-16.874 2.971z" fill="#DC3001"/><circle cx="45.555" cy="41.633" r="5.215" fill="#000"/><circle cx="45.626" cy="33.304" r="1.304" fill="#000"/><circle cx="38.529" cy="37.143" r="1.304" fill="#000"/><path fill="#000" d="M45.119 34.028h1.014v3.115h-1.014zm-6.374 3.958l.562-.844 2.592 1.728-.562.843z"/></svg>