<svg width="150" height="55" fill="none" xmlns="http://www.w3.org/2000/svg"><path d="M3.735 44V12.5H17.37c2.82 0 5.25.465 7.29 1.395 2.04.9 3.615 2.205 4.725 3.915 1.11 1.71 1.665 3.75 1.665 6.12 0 2.34-.555 4.365-1.665 6.075-1.11 1.71-2.685 3.03-4.725 3.96-2.04.9-4.47 1.35-7.29 1.35H7.785l3.24-3.285V44h-7.29zm7.29-11.16l-3.24-3.465h9.18c2.25 0 3.93-.48 5.04-1.44 1.11-.96 1.665-2.295 1.665-4.005 0-1.74-.555-3.09-1.665-4.05-1.11-.96-2.79-1.44-5.04-1.44h-9.18l3.24-3.465V32.84zm40.969 11.7c-2.49 0-4.8-.405-6.93-1.215-2.1-.81-3.93-1.95-5.49-3.42a16.058 16.058 0 01-3.6-5.175c-.84-1.98-1.26-4.14-1.26-6.48 0-2.34.42-4.5 1.26-6.48a15.73 15.73 0 013.645-5.175c1.56-1.47 3.39-2.61 5.49-3.42s4.38-1.215 6.84-1.215c2.49 0 4.77.405 6.84 1.215 2.1.81 3.915 1.95 5.445 3.42a15.73 15.73 0 013.645 5.175c.87 1.95 1.305 4.11 1.305 6.48 0 2.34-.435 4.515-1.305 6.525a15.73 15.73 0 01-3.645 5.175c-1.53 1.44-3.345 2.565-5.445 3.375-2.07.81-4.335 1.215-6.795 1.215zm-.045-6.21c1.41 0 2.7-.24 3.87-.72 1.2-.48 2.25-1.17 3.15-2.07.9-.9 1.59-1.965 2.07-3.195.51-1.23.765-2.595.765-4.095 0-1.5-.255-2.865-.765-4.095a9.181 9.181 0 00-2.07-3.195 8.816 8.816 0 00-3.105-2.07c-1.2-.48-2.505-.72-3.915-.72-1.41 0-2.715.24-3.915.72a9.392 9.392 0 00-3.105 2.07 9.74 9.74 0 00-2.115 3.195c-.48 1.23-.72 2.595-.72 4.095 0 1.47.24 2.835.72 4.095a10.12 10.12 0 002.07 3.195c.9.9 1.95 1.59 3.15 2.07 1.2.48 2.505.72 3.915.72zM74.663 44V12.5h7.29V44h-7.29zm14.765 0V12.5h6.03l18.585 22.68h-2.925V12.5h7.2V44h-5.985l-18.63-22.68h2.925V44h-7.2zm42.868 0V18.44h-10.08V12.5h27.45v5.94h-10.08V44h-7.29z" fill="#112242"/><circle cx="51.999" cy="28.599" r="13.472" fill="#000"/><ellipse cx="55.449" cy="16.836" rx="3.119" ry="2.955" fill="#fff"/><circle cx="55.743" cy="26.817" r="2.1" fill="#fff"/><circle cx="43.019" cy="30.7" r="2.1" fill="#fff"/><circle cx="51.016" cy="40.15" r="3.284" fill="#fff"/><circle cx="63.952" cy="26.16" r="2.1" fill="#fff"/><path d="M47.35 11.248c-9.582 2.567-15.269 12.417-12.7 22 2.567 9.582 12.417 15.269 22 12.701 9.582-2.567 15.268-12.417 12.7-22-2.567-9.582-12.416-15.27-22-12.701zm11.314 5.809c5.806 3.352 8 10.265 5.864 16.098L41.79 20.027c3.986-4.769 11.071-6.32 16.874-2.97zM45.336 40.14c-5.806-3.352-8-10.265-5.864-16.098L62.21 37.169c-3.986 4.77-11.071 6.321-16.874 2.971z" fill="#DC3001"/><circle cx="45.555" cy="15.633" r="5.215" fill="#000"/><circle cx="45.626" cy="7.304" r="1.304" fill="#000"/><circle cx="38.529" cy="11.143" r="1.304" fill="#000"/><path fill="#000" d="M45.119 8.028h1.014v3.115h-1.014zm-6.374 3.958l.562-.844 2.592 1.728-.562.843z"/></svg>