<svg width="238" height="93" fill="none" xmlns="http://www.w3.org/2000/svg"><path d="M3.735 74V42.5H17.37c2.82 0 5.25.465 7.29 1.395 2.04.9 3.615 2.205 4.725 3.915 1.11 1.71 1.665 3.75 1.665 6.12 0 2.34-.555 4.365-1.665 6.075-1.11 1.71-2.685 3.03-4.725 3.96-2.04.9-4.47 1.35-7.29 1.35H7.785l3.24-3.285V74h-7.29zm7.29-11.16l-3.24-3.465h9.18c2.25 0 3.93-.48 5.04-1.44 1.11-.96 1.665-2.295 1.665-4.005 0-1.74-.555-3.09-1.665-4.05-1.11-.96-2.79-1.44-5.04-1.44h-9.18l3.24-3.465V62.84zm40.969 11.7c-2.49 0-4.8-.405-6.93-1.215-2.1-.81-3.93-1.95-5.49-3.42a16.058 16.058 0 01-3.6-5.175c-.84-1.98-1.26-4.14-1.26-6.48 0-2.34.42-4.5 1.26-6.48a15.73 15.73 0 013.645-5.175c1.56-1.47 3.39-2.61 5.49-3.42s4.38-1.215 6.84-1.215c2.49 0 4.77.405 6.84 1.215 2.1.81 3.915 1.95 5.445 3.42a15.73 15.73 0 013.645 5.175c.87 1.95 1.305 4.11 1.305 6.48 0 2.34-.435 4.515-1.305 6.525a15.73 15.73 0 01-3.645 5.175c-1.53 1.44-3.345 2.565-5.445 3.375-2.07.81-4.335 1.215-6.795 1.215zm-.045-6.21c1.41 0 2.7-.24 3.87-.72 1.2-.48 2.25-1.17 3.15-2.07.9-.9 1.59-1.965 2.07-3.195.51-1.23.765-2.595.765-4.095 0-1.5-.255-2.865-.765-4.095a9.181 9.181 0 00-2.07-3.195 8.816 8.816 0 00-3.105-2.07c-1.2-.48-2.505-.72-3.915-.72-1.41 0-2.715.24-3.915.72a9.392 9.392 0 00-3.105 2.07 9.74 9.74 0 00-2.115 3.195c-.48 1.23-.72 2.595-.72 4.095 0 1.47.24 2.835.72 4.095a10.12 10.12 0 002.07 3.195c.9.9 1.95 1.59 3.15 2.07 1.2.48 2.505.72 3.915.72zM74.663 74V42.5h7.29V74h-7.29zm14.765 0V42.5h6.03l18.585 22.68h-2.925V42.5h7.2V74h-5.985l-18.63-22.68h2.925V74h-7.2zm42.868 0V48.44h-10.08V42.5h27.45v5.94h-10.08V74h-7.29z" fill="#112242"/><path d="M155.06 71.72l-.901 1.424.008.005.007.005.886-1.434zm-8.132-9.424l-1.518.731 1.518-.731zm0-29.792l1.518.731-1.518-.731zm8.132-9.348l.886 1.434.007-.005.008-.005-.901-1.424zm23.408 0l-.91 1.418.012.008.012.008.886-1.434zm8.132 9.348l-1.518.731 1.518-.731zm0 29.792l-1.518-.731 1.518.731zm-8.132 9.424l.895 1.428.006-.004-.901-1.424zm-6.308-8.968l-1.004-1.353-.011.008-.01.008 1.025 1.337zm3.648-5.548l-1.586-.57-.005.013-.004.014 1.595.543zm0-19.608l-1.595.543.004.014.005.014 1.586-.571zm-3.648-5.548l-1.025 1.337.01.009.011.007 1.004-1.353zm-10.792 0l-1.004-1.353-.011.008-.01.008 1.025 1.337zm-3.648 5.548l-1.586-.57-.005.013-.004.014 1.595.543zm0 19.608l-1.595.542.004.015.005.014 1.586-.571zm3.648 5.548l-1.025 1.337.01.008.011.008 1.004-1.353zm5.396 10.475c-4.069 0-7.66-.99-10.818-2.94l-1.772 2.867c3.732 2.305 7.945 3.443 12.59 3.443v-3.37zm-10.803-2.931c-3.148-1.991-5.659-4.877-7.515-8.731l-3.036 1.462c2.096 4.354 5.007 7.75 8.749 10.117l1.802-2.848zm-7.515-8.731c-1.84-3.822-2.797-8.523-2.797-14.165h-3.37c0 6.011 1.019 11.24 3.131 15.627l3.036-1.462zM145.649 47.4c0-5.642.957-10.343 2.797-14.165l-3.036-1.462c-2.112 4.387-3.131 9.616-3.131 15.627h3.37zm2.797-14.165c1.855-3.851 4.361-6.707 7.5-8.645l-1.772-2.868c-3.752 2.318-6.667 5.694-8.764 10.05l3.036 1.463zm7.515-8.655c3.157-1.996 6.742-3.007 10.803-3.007v-3.37c-4.653 0-8.871 1.168-12.605 3.529l1.802 2.848zm10.803-3.007c4.116 0 7.696 1.013 10.794 3.001l1.82-2.836c-3.691-2.37-7.914-3.535-12.614-3.535v3.37zm10.818 3.017c3.139 1.938 5.645 4.794 7.5 8.645l3.036-1.462c-2.097-4.357-5.012-7.733-8.764-10.05l-1.772 2.867zm7.5 8.645c1.84 3.822 2.797 8.523 2.797 14.165h3.37c0-6.011-1.019-11.24-3.131-15.627l-3.036 1.462zm2.797 14.165c0 5.642-.957 10.343-2.797 14.165l3.036 1.462c2.112-4.386 3.131-9.616 3.131-15.627h-3.37zm-2.797 14.165c-1.856 3.854-4.367 6.74-7.515 8.73l1.802 2.85c3.742-2.367 6.653-5.764 8.749-10.118l-3.036-1.462zm-7.509 8.727c-3.1 1.943-6.685 2.935-10.809 2.935v3.37c4.692 0 8.91-1.136 12.599-3.45l-1.79-2.855zm-10.809-4.107c2.415 0 4.582-.685 6.421-2.096l-2.05-2.674c-1.201.92-2.631 1.4-4.371 1.4v3.37zm6.4-2.08c1.93-1.432 3.308-3.617 4.239-6.359l-3.19-1.085c-.791 2.326-1.846 3.839-3.057 4.738l2.008 2.706zm4.23-6.33c1.001-2.783 1.467-6.263 1.467-10.375h-3.37c0 3.894-.446 6.949-1.269 9.233l3.172 1.142zm1.467-10.375c0-4.112-.466-7.592-1.467-10.375l-3.172 1.142c.823 2.284 1.269 5.34 1.269 9.233h3.37zm-1.458-10.346c-.931-2.742-2.309-4.927-4.239-6.36l-2.008 2.707c1.211.9 2.266 2.412 3.057 4.737l3.19-1.084zm-4.218-6.343c-1.839-1.41-4.006-2.096-6.421-2.096v3.37c1.74 0 3.17.48 4.371 1.4l2.05-2.674zm-6.421-2.096c-2.374 0-4.528.69-6.4 2.08l2.008 2.706c1.269-.941 2.713-1.416 4.392-1.416v-3.37zm-6.421 2.096c-1.861 1.426-3.23 3.595-4.209 6.314l3.172 1.142c.845-2.348 1.908-3.877 3.087-4.782l-2.05-2.674zm-4.218 6.343c-.943 2.771-1.382 6.241-1.382 10.346h3.37c0-3.9.422-6.967 1.202-9.261l-3.19-1.086zM154.743 47.4c0 4.105.439 7.575 1.382 10.346l3.19-1.085c-.78-2.294-1.202-5.36-1.202-9.261h-3.37zm1.391 10.375c.979 2.719 2.348 4.888 4.209 6.314l2.05-2.674c-1.179-.905-2.242-2.434-3.087-4.782l-3.172 1.142zm4.23 6.33c1.872 1.39 4.026 2.08 6.4 2.08v-3.37c-1.679 0-3.123-.475-4.392-1.416l-2.008 2.706zM194.793 74h-1.685v1.685h1.685V74zm0-7.98l-1.157-1.225-.528.499v.726h1.685zm20.52-19.38l-1.131-1.249-.013.012-.013.012 1.157 1.225zm3.572-3.952l1.412.92-1.412-.92zm1.52-3.192l-1.607-.508-.012.04-.011.04 1.63.428zm-1.748-7.524l-1.069 1.302.025.02.026.02 1.018-1.342zm-12.54-.456l-.688-1.538-.008.003-.007.004.703 1.531zm-4.788 4.028l-.912 1.417 1.343.865.935-1.295-1.366-.987zm-8.968-5.776l-1.402-.935-.95 1.425 1.44.927.912-1.417zm8.512-7.22l-.737-1.516.737 1.516zm22.952-.684l-.689 1.538.016.007.016.007.657-1.552zm6.916 5.396l-1.383.962.007.01.007.01 1.369-.982zm1.824 13.528l-1.629-.431-.004.017-.005.017 1.638.397zm-2.584 5.32l-1.379-.969-.009.013-.008.012 1.396.944zm-5.624 6.308l-1.153-1.229-.002.002 1.155 1.227zm-17.024 16.036l-1.492.784 1.032 1.964 1.616-1.521-1.156-1.227zm-2.356-4.484v-1.685h-2.789l1.297 2.469 1.492-.784zm30.02 0h1.685v-1.685h-1.685v1.685zm0 10.032v1.685h1.685V74h-1.685zm-38.519 0v-7.98h-3.37V74h3.37zm-.528-6.755l20.52-19.38-2.314-2.45-20.52 19.38 2.314 2.45zm20.495-19.356c1.675-1.518 2.981-2.946 3.852-4.28l-2.823-1.842c-.65.996-1.725 2.203-3.292 3.624l2.263 2.498zm3.852-4.28c.822-1.262 1.424-2.493 1.738-3.684l-3.26-.858c-.193.734-.604 1.63-1.301 2.7l2.823 1.842zm1.715-3.605c.344-1.089.534-2.149.534-3.168h-3.37c0 .602-.113 1.316-.378 2.153l3.214 1.015zm.534-3.168c0-2.563-.913-4.721-2.87-6.207l-2.037 2.686c.981.744 1.537 1.828 1.537 3.521h3.37zm-2.819-6.166c-1.842-1.513-4.394-2.131-7.378-2.131v3.37c2.59 0 4.243.547 5.239 1.365l2.139-2.604zm-7.378-2.131c-2.453 0-4.766.475-6.92 1.439l1.376 3.076c1.697-.759 3.538-1.145 5.544-1.145v-3.37zm-6.935 1.446c-2.163.993-3.979 2.535-5.451 4.572l2.732 1.974c1.163-1.61 2.539-2.755 4.126-3.484l-1.407-3.062zm-3.172 4.142l-8.968-5.776-1.825 2.834 8.968 5.776 1.825-2.834zm-8.479-3.424c1.843-2.764 4.438-4.982 7.847-6.64l-1.474-3.03c-3.887 1.889-6.966 4.484-9.177 7.8l2.804 1.87zm7.847-6.64c3.382-1.643 7.328-2.49 11.879-2.49v-3.37c-4.974 0-9.438.927-13.353 2.83l1.474 3.03zm11.879-2.49c3.767 0 6.968.628 9.647 1.829l1.378-3.076c-3.198-1.434-6.888-2.123-11.025-2.123v3.37zm9.679 1.843c2.739 1.16 4.775 2.773 6.19 4.806l2.767-1.924c-1.828-2.628-4.403-4.613-7.642-5.986l-1.315 3.104zm6.204 4.826c1.44 2.008 2.192 4.44 2.192 7.378h3.37c0-3.547-.92-6.689-2.824-9.342l-2.738 1.964zm2.192 7.378c0 1.572-.208 3.15-.628 4.737l3.258.862c.492-1.858.74-3.726.74-5.599h-3.37zm-.637 4.771c-.342 1.411-1.091 2.992-2.325 4.748l2.758 1.938c1.401-1.993 2.374-3.96 2.843-5.892l-3.276-.794zm-2.342 4.773c-1.171 1.733-2.949 3.74-5.381 6.023l2.307 2.458c2.533-2.378 4.504-4.577 5.866-6.594l-2.792-1.887zm-5.383 6.025l-17.024 16.036 2.311 2.454 17.024-16.036-2.311-2.454zm-14.377 16.48l-2.356-4.485-2.984 1.568 2.356 4.484 2.984-1.568zm-3.848-2.016h30.02v-3.37h-30.02v3.37zm28.335-1.685V74h3.37V63.968h-3.37zm1.685 8.347h-40.204v3.37h40.204v-3.37z" fill="#112242"/><circle cx="51.999" cy="57.599" r="13.472" fill="#000"/><ellipse cx="55.449" cy="45.836" rx="3.119" ry="2.955" fill="#fff"/><circle cx="55.743" cy="55.817" r="2.1" fill="#fff"/><circle cx="43.019" cy="59.699" r="2.1" fill="#fff"/><circle cx="51.016" cy="69.15" r="3.284" fill="#fff"/><circle cx="63.952" cy="55.16" r="2.1" fill="#fff"/><path d="M47.35 40.248c-9.582 2.567-15.269 12.417-12.7 22 2.567 9.582 12.417 15.269 22 12.701 9.582-2.567 15.268-12.417 12.7-22-2.567-9.582-12.416-15.27-22-12.701zm11.314 5.809c5.806 3.352 8 10.265 5.864 16.098L41.79 49.027c3.986-4.769 11.071-6.32 16.874-2.97zM45.336 69.14c-5.806-3.352-8-10.265-5.864-16.098L62.21 66.169c-3.986 4.77-11.071 6.322-16.874 2.971z" fill="#DC3001"/><circle cx="45.555" cy="44.633" r="5.215" fill="#000"/><circle cx="45.626" cy="36.304" r="1.304" fill="#000"/><circle cx="38.529" cy="40.143" r="1.304" fill="#000"/><path fill="#000" d="M45.119 37.028h1.014v3.115h-1.014zm-6.374 3.958l.562-.844 2.592 1.728-.562.843z"/></svg>