<svg width="500" height="501" fill="none" xmlns="http://www.w3.org/2000/svg"><path d="M451.32 208.22c-7-12.46-19.15-23.14-33.82-25.09-15.09-2-29.89 5.38-41.73 14.55a126.216 126.216 0 00-30 33.13c-4.63 7.46-9.36 16.12-18.07 18.55-8.2 2.28-16.82-2-23.43-7.18-6.61-5.18-12.55-11.5-20.52-14.45-20.76-7.69-43.92 10.75-65.48 5.43-18.57-4.58-27.46-24-39-38.65-19.06-24.12-52.18-38.06-83.36-33-31.18 5.06-54.91 57.47-59.2 87.4l427.09-.14c-2.68-13.92-5.45-28.1-12.48-40.55z" fill="#EBEBEB"/><path d="M117.35 100.11c.38-2.79-3.55-5.08-6.51-5.32a16.841 16.841 0 01-4.21-.36c-2.89-1-4-4.75-6.87-5.94-2.11-.89-4.54-.1-6.58.93s-4.07 2.33-6.36 2.47c-2 .13-4.15-.61-5.89.36-1.29.73-2 2.22-3.17 3.1a7.5 7.5 0 01-4.14 1.15 11.78 11.78 0 00-4.27.69 3.38 3.38 0 00-2.14 3.43l50.14-.51zm132.88 26.53c.38-2.79-3.55-5.08-6.51-5.32a16.865 16.865 0 01-4.21-.36c-2.89-1-4-4.75-6.87-5.94-2.11-.89-4.54-.1-6.58.93s-4.07 2.33-6.36 2.48c-2 .12-4.15-.61-5.88.36-1.3.72-2 2.21-3.17 3.1a7.616 7.616 0 01-4.15 1.12c-1.455-.037-2.903.2-4.27.7a3.377 3.377 0 00-2.14 3.42l50.14-.49z" fill="#F5F5F5"/><path d="M468.1 125c.69-5-6.39-9.15-11.72-9.58-2.54-.2-5.17.19-7.58-.65-5.21-1.82-7.29-8.55-12.38-10.7-3.8-1.6-8.17-.17-11.86 1.68-3.69 1.85-7.33 4.19-11.44 4.46-3.58.22-7.47-1.1-10.61.65-2.33 1.3-3.55 4-5.71 5.58s-4.85 1.88-7.46 2c-2.61.12-5.32.17-7.7 1.26s-4.34 3.6-3.85 6.17l90.31-.87zM262.54 75.22c.87-6.35-8.08-11.57-14.82-12.11-3.21-.26-6.54.23-9.58-.83-6.59-2.3-9.22-10.81-15.65-13.52-4.81-2-10.34-.22-15 2.12-4.66 2.34-9.26 5.3-14.49 5.62-4.53.29-9.45-1.39-13.41.83-3 1.64-4.5 5-7.22 7-2.72 2-6.13 2.38-9.44 2.56-3.31.18-6.72.21-9.73 1.59-3.01 1.38-5.49 4.56-4.87 7.81l114.21-1.07z" fill="#EBEBEB"/><path d="M18.63 364.88l3.18-29.17 181.43 11.87a15.59 15.59 0 0016.47-13.42l11.83-85.66h41.13l17.79 87.61a15.578 15.578 0 0016 12.47l170.44-7.8v30.62l-149.65 25.5a26.094 26.094 0 00-9.974 3.089 26.09 26.09 0 00-12.637 16.09A26.059 26.059 0 00304 426.5l7 49.9H205.51l4.27-45.69a33.403 33.403 0 00-27.95-36.09l-163.2-29.74z" fill="#E0E0E0"/><path d="M259.95 327.45H250l2.36-42.72 4.32.01 3.27 42.71zm3.58 98.6H250l2.41-52.9 7.4.02 3.72 52.88zm60.99-50.73l-.96-8.27 52.72-4.61 1.43 5.49-53.19 7.39zm106.86-11.37l-.95-8.27 46.46-4.07v6.01l-45.51 6.33zm-242.751 6.44l.96-8.27-52.72-4.62-1.43 5.5 53.19 7.39zM71.82 357.5l.76-6.6-51.71-6.6-.66 6.03 51.61 7.17z" fill="#F5F5F5"/><path d="M320.719 329.69h-8.6V68.89a4.298 4.298 0 017.338-3.038 4.306 4.306 0 011.262 3.038v260.8z" fill="#263238"/><path d="M275.64 174.4l23.83-2.21 58.91 31.71-3.94 7.31-7.43-.03 4.95 4.65-5.39 10.01-58.53-31.5-12.4-19.94z" fill="#DC3001"/><path opacity=".3" d="M275.64 174.4l23.83-2.21 58.91 31.71-3.94 7.31-7.43-.03 4.95 4.65-5.39 10.01-58.53-31.5-12.4-19.94z" fill="#000"/><path d="M274.91 171.37l16.82-1.56a9.638 9.638 0 015.47 1.11l56.34 30.32-3.94 7.32h-7.43l4.95 4.65-5.39 10-56.26-30.28a9.695 9.695 0 01-3.62-3.4L273 175.25a2.531 2.531 0 01-.128-2.473 2.533 2.533 0 012.038-1.407z" fill="#DC3001"/><g opacity=".2" fill="#000"><path d="M339.309 221.97a8.437 8.437 0 00-1-2.43 17.906 17.906 0 00-5.26-4.83 119.054 119.054 0 00-20.77-11.64c-4.27-1.87-8.47-3.33-12.25-4.77a93.195 93.195 0 01-9.89-4.25 40.397 40.397 0 01-6.16-3.84c-.69-.51-1.18-1-1.53-1.25a3.07 3.07 0 01-.5-.48s.76.58 2.15 1.56a43.466 43.466 0 006.21 3.68 98.252 98.252 0 009.89 4.13c3.78 1.41 8 2.86 12.29 4.74a112.437 112.437 0 0120.78 11.82 17.362 17.362 0 015.22 5c.342.572.586 1.197.72 1.85.044.167.071.338.08.51.02.14.03.2.02.2zM276.91 171.5a7.643 7.643 0 00-.08 3.26 9.237 9.237 0 001.52 3.5 18.036 18.036 0 003.56 3.63c3.506 2.755 7.18 5.29 11 7.59 4.31 2.62 9.2 5.24 14.39 7.89l26.58 13.58c3.35 1.75 6.09 3.16 8 4.17l2.17 1.16c.255.128.502.272.74.43a4.524 4.524 0 01-.79-.34l-2.21-1.07-8.11-4-26.6-13.5c-5.19-2.66-10.09-5.3-14.4-8a101.649 101.649 0 01-11-7.72 17.739 17.739 0 01-3.57-3.75 9.199 9.199 0 01-1.48-3.62 6.845 6.845 0 010-2.48c.071-.251.165-.495.28-.73z"/><path d="M300.07 182.39a4.804 4.804 0 01-.5-.71 21.843 21.843 0 00-1.49-2 20.901 20.901 0 00-7.14-5.41 14.284 14.284 0 00-2.8-1 5.345 5.345 0 00-3.09.14 3.274 3.274 0 00-2.12 2.31 4.569 4.569 0 001 3.29c2.88 4.15 7.45 7.53 12.51 10.4 1.27.72 2.54 1.43 3.8 2.07a9.004 9.004 0 003.9 1.12 4.19 4.19 0 003.4-1.47 4.776 4.776 0 00.82-3.51 9.582 9.582 0 00-1.24-3.38c-.59-1-1.24-2-1.87-2.93a33.837 33.837 0 00-4-4.77 28.748 28.748 0 00-7.35-5.21c-1-.47-1.72-.8-2.25-1a7.084 7.084 0 01-.78-.35c.28.06.554.143.82.25.782.269 1.55.58 2.3.93a27.5 27.5 0 017.51 5.13 33.214 33.214 0 014.12 4.78c.64.93 1.3 1.9 1.91 3a10.077 10.077 0 011.32 3.53 5.27 5.27 0 01-.91 3.89 4.698 4.698 0 01-3.79 1.67A9.365 9.365 0 01300 192c-1.29-.65-2.55-1.36-3.83-2.08-5.09-2.88-9.72-6.31-12.64-10.58a4.998 4.998 0 01-1-3.65 3.702 3.702 0 012.41-2.62 5.787 5.787 0 013.34-.13c.986.229 1.945.564 2.86 1a19.74 19.74 0 018.57 7.64c.135.263.256.533.36.81zm51.769 22.18c0 .05-.81-.34-2.34-.65a20.989 20.989 0 00-6.59 0c-2.77.31-6 1.17-9.81 1.21-1.98.01-3.947-.328-5.81-1a21.742 21.742 0 01-5.56-3 32.899 32.899 0 01-8.1-9 81.961 81.961 0 01-4.64-8.74c-1.21-2.54-2.2-4.58-2.94-6l-.84-1.6a2.61 2.61 0 01-.27-.57c.138.161.258.335.36.52.23.35.54.87.93 1.55.79 1.37 1.84 3.39 3.09 5.91a88.029 88.029 0 004.71 8.64 33.14 33.14 0 008 8.84 18.686 18.686 0 0011.06 3.91c3.68 0 7-.82 9.77-1.09a19.768 19.768 0 016.67.22c.591.135 1.17.319 1.73.55.206.073.402.174.58.3z"/><path d="M331.21 194.5a3.564 3.564 0 01-.6-.22c-.38-.16-.93-.41-1.64-.77-.71-.36-1.54-.82-2.49-1.42-.48-.293-.98-.627-1.5-1a4.43 4.43 0 01-1.5-1.41.995.995 0 01.12-1.22 1.348 1.348 0 011.24-.22c.78.21 1.51.47 2.3.74 1.56.55 3.21 1.21 4.9 2a53.032 53.032 0 015.16 2.74 6.596 6.596 0 012.41 2.07 2.005 2.005 0 01-.202 2.504c-.209.22-.465.39-.748.496a7.31 7.31 0 01-3.25.36 19.472 19.472 0 01-3.09-.4 21.104 21.104 0 01-5.54-1.95 20.817 20.817 0 01-10.38-12.47 14.2 14.2 0 01-.43-1.76 2.628 2.628 0 01-.08-.63c.05 0 .21.85.71 2.33a21.979 21.979 0 003 5.84 20.74 20.74 0 007.37 6.26 20.982 20.982 0 005.42 1.88 20.04 20.04 0 003 .38 6.69 6.69 0 003-.32 1.606 1.606 0 00.93-1 1.538 1.538 0 00-.21-1.29 6.168 6.168 0 00-2.22-1.91 57.057 57.057 0 00-5.1-2.74c-1.67-.79-3.3-1.46-4.84-2-.77-.28-1.54-.56-2.24-.75a1.007 1.007 0 00-.9.1.62.62 0 00-.06.77c.351.538.824.987 1.38 1.31.5.38 1 .71 1.45 1 .93.61 1.76 1.1 2.44 1.48.68.38 1.22.67 1.59.86.215.093.417.214.6.36z"/></g><path d="M368.999 150l-.13-.11-16.85-10-66.74-4.67-.58 8.28 6.3 4-6.66 1.29-.8 11.34 62.52 4.37a14.113 14.113 0 007.12-1.37l12.37-6c2.6-1.25 3.45-4.15 3.45-7.13z" fill="#DC3001"/><path opacity=".3" d="M368.999 150l-.13-.11-16.85-10-66.74-4.67-.58 8.28 6.3 4-6.66 1.29-.8 11.34 62.52 4.37a14.113 14.113 0 007.12-1.37l12.37-6a7.91 7.91 0 003.45-7.13z" fill="#000"/><path d="M367.999 148.66l-13.38-10.31a9.633 9.633 0 00-5.22-2l-63.83-4.47-.58 8.29 6.3 3.94-6.66 1.29-.8 11.34 63.74 4.47a9.672 9.672 0 004.88-.94l15.11-7.31a2.547 2.547 0 00.44-4.3z" fill="#DC3001"/><g opacity=".2" fill="#000"><path d="M286.49 157.03s0-.06.1-.15c.102-.14.216-.27.34-.39a6.223 6.223 0 011.6-1.17 17.149 17.149 0 017.1-1.46c7.977-.49 15.983-.118 23.88 1.11 4.63.7 9 1.73 12.92 2.56a97.943 97.943 0 0010.57 1.79c2.394.264 4.805.334 7.21.21 1.7-.09 2.64-.23 2.65-.17-.222.066-.449.11-.68.13-.661.117-1.329.197-2 .24-2.415.22-4.845.22-7.26 0a93.55 93.55 0 01-10.63-1.69c-4-.81-8.3-1.82-12.9-2.52a119.91 119.91 0 00-23.78-1.25 17.877 17.877 0 00-7 1.27 8.342 8.342 0 00-2.12 1.49zm79.73-9.36a3.97 3.97 0 01-.22.83 6.812 6.812 0 01-1.3 2.11 9.54 9.54 0 01-3.19 2.27 17.918 17.918 0 01-5 1.26 100.26 100.26 0 01-13.43.64c-5.05-.06-10.6-.44-16.41-1l-29.71-2.87-9-.94-2.45-.28a4.974 4.974 0 01-.84-.13 4.47 4.47 0 01.85 0l2.46.18 9 .77 29.73 2.72c5.8.53 11.33.92 16.37 1a104.54 104.54 0 0013.37-.52 18.227 18.227 0 005-1.17 9.2 9.2 0 003.15-2.14 7.666 7.666 0 001.62-2.73z"/><path d="M340.809 144.5c.241-.159.491-.303.75-.43a21.36 21.36 0 012.29-.95 20.511 20.511 0 019-.93c1.021.11 2.026.328 3 .65a5.774 5.774 0 012.76 1.89 3.704 3.704 0 01.63 3.51 4.996 4.996 0 01-2.82 2.53c-4.76 2-10.5 2.47-16.35 2.18-1.47-.07-2.91-.14-4.34-.28a9.452 9.452 0 01-4.12-1.22 4.692 4.692 0 01-2.31-3.44 5.282 5.282 0 011.31-3.77 9.926 9.926 0 013-2.28c1.07-.56 2.14-1 3.19-1.48a33.302 33.302 0 016-1.84 27.212 27.212 0 019.09-.32c.822.1 1.636.247 2.44.44.287.052.568.129.84.23a7.344 7.344 0 01-.86-.13c-.55-.1-1.38-.23-2.44-.34a28.582 28.582 0 00-9 .48 34.25 34.25 0 00-5.94 1.88c-1 .45-2.1.93-3.15 1.48a9.607 9.607 0 00-2.85 2.19 4.795 4.795 0 00-1.19 3.41 4.19 4.19 0 002.1 3.06 9 9 0 003.89 1.14c1.41.13 2.86.2 4.32.27 5.81.29 11.48-.13 16.12-2.1a4.547 4.547 0 002.59-2.25 3.25 3.25 0 00-.55-3.09 5.342 5.342 0 00-2.54-1.77 13.312 13.312 0 00-2.89-.66 20.86 20.86 0 00-8.93.75c-1 .32-1.78.65-2.3.86a5.214 5.214 0 01-.74.33zm-55.609-8.88c.212-.007.424.013.63.06.6.1 1.189.253 1.76.46a19.7 19.7 0 015.75 3.37c2.23 1.73 4.57 4.17 7.68 6.15a18.674 18.674 0 0011.44 2.6 33.006 33.006 0 0011.54-3.19 87.955 87.955 0 008.6-4.79c2.4-1.46 4.37-2.61 5.76-3.34.7-.37 1.25-.64 1.62-.81.186-.107.384-.191.59-.25a2.886 2.886 0 01-.54.34l-1.57.9c-1.36.78-3.29 2-5.66 3.48a82.31 82.31 0 01-8.59 4.9 32.848 32.848 0 01-11.67 3.28c-2.107.16-4.227.009-6.29-.45a16.79 16.79 0 01-5.43-2.26c-3.17-2-5.48-4.52-7.66-6.27a20.636 20.636 0 00-5.59-3.47 22.416 22.416 0 00-2.37-.71z"/><path d="M308 138.12c.21-.02.421-.02.63 0 .41 0 1 .09 1.8.13.8.04 1.74.07 2.85.05.56 0 1.15 0 1.78-.08a4.33 4.33 0 001.86-.38.613.613 0 00.36-.68c-.06-.26-.36-.45-.7-.57-.7-.21-1.5-.38-2.29-.56-1.61-.35-3.34-.65-5.18-.88-1.84-.23-3.77-.36-5.78-.4a6 6 0 00-2.89.42 1.586 1.586 0 00-.87 1 1.598 1.598 0 00.27 1.31 6.752 6.752 0 002.37 1.87c.884.503 1.807.934 2.76 1.29a21.34 21.34 0 005.58 1.32 20.855 20.855 0 009.58-1.36 21.773 21.773 0 005.68-3.32c1.22-1 1.81-1.62 1.84-1.59.03.03-.12.18-.4.49-.39.464-.807.905-1.25 1.32a20.742 20.742 0 01-15.43 5 21.658 21.658 0 01-5.73-1.31 19.399 19.399 0 01-2.82-1.32 6.998 6.998 0 01-2.55-2 2.115 2.115 0 01-.34-1.73 2.067 2.067 0 011.14-1.31 6.498 6.498 0 013.13-.47c1.95.04 3.896.187 5.83.44 1.85.24 3.6.56 5.21.93.82.19 1.57.36 2.34.6a1.362 1.362 0 01.93.85.996.996 0 01-.54 1.1 4.525 4.525 0 01-2 .39h-1.8c-1.12 0-2.08-.07-2.86-.14-.78-.07-1.39-.15-1.8-.22a2.496 2.496 0 01-.71-.19z"/></g><path d="M273.6 105.37l20.4 12.52 66.85-2.4-.29-8.3-6.68-3.27 6.49-1.98-.41-11.36-66.42 2.38-19.94 12.41z" fill="#DC3001"/><path opacity=".3" d="M273.6 105.37l20.4 12.52 66.85-2.4-.29-8.3-6.68-3.27 6.49-1.98-.41-11.36-66.42 2.38-19.94 12.41z" fill="#000"/><path d="M271.6 107.77l14.4 8.83a9.6 9.6 0 005.4 1.42l63.94-2.29-.3-8.3-6.68-3.26 6.49-2-.4-11.36-63.85 2.3a9.647 9.647 0 00-4.76 1.45l-14.25 8.87a2.541 2.541 0 00-1.206 2.173 2.544 2.544 0 001.216 2.167z" fill="#DC3001"/><g opacity=".2" fill="#000"><path d="M351.739 90.84a.523.523 0 01-.09.16 2.905 2.905 0 01-.29.42c-.418.52-.913.972-1.47 1.34a17.38 17.38 0 01-6.9 2.2 111.7 111.7 0 01-23.87 1.42c-4.68-.21-9.1-.78-13.12-1.19-3.552-.42-7.123-.65-10.7-.69a44.372 44.372 0 00-7.19.55c-1.68.27-2.6.51-2.62.45.216-.079.437-.145.66-.2.44-.11 1.08-.3 1.92-.45a40.55 40.55 0 017.23-.72c3.591-.023 7.18.16 10.75.55 4 .39 8.44.94 13.09 1.15 7.953.371 15.922-.054 23.79-1.27a18.001 18.001 0 006.85-2 8.81 8.81 0 001.96-1.72zm-78.3 17.73c.008-.288.051-.573.13-.85a6.742 6.742 0 011.07-2.23 9.396 9.396 0 012.93-2.6 18.15 18.15 0 014.87-1.79 102.519 102.519 0 0113.27-2c5-.47 10.6-.68 16.43-.77l29.86-.33h11.51c.287-.024.574-.024.86 0a5.34 5.34 0 01-.86.07l-2.46.07-9 .19-29.85.43c-5.83.09-11.37.28-16.39.73a107.381 107.381 0 00-13.29 2.01 18.149 18.149 0 00-4.81 1.69 9.29 9.29 0 00-2.91 2.46 7.672 7.672 0 00-1.36 2.92z"/><path d="M298.999 109a4.727 4.727 0 01-.7.51c-.699.445-1.428.842-2.18 1.19a20.455 20.455 0 01-8.88 1.88 14.9 14.9 0 01-3-.33 5.748 5.748 0 01-2.93-1.59 3.727 3.727 0 01-1-3.43 4.998 4.998 0 012.54-2.81c4.51-2.53 10.18-3.56 16-3.9 1.47-.08 2.91-.16 4.35-.18a9.387 9.387 0 014.22.79 4.681 4.681 0 012.67 3.17 5.28 5.28 0 01-.91 3.89 10 10 0 01-2.75 2.58c-1 .68-2 1.26-3 1.81a33.294 33.294 0 01-5.8 2.47 27.569 27.569 0 01-9 1.28 22.683 22.683 0 01-2.47-.18 4.298 4.298 0 01-.85-.14c.286-.02.574-.02.86 0 .56 0 1.39.09 2.46.09 3.02-.007 6.02-.49 8.89-1.43a32.94 32.94 0 005.71-2.5c1-.55 2-1.14 3-1.81a9.433 9.433 0 002.61-2.47 4.826 4.826 0 00.82-3.52 4.202 4.202 0 00-2.41-2.82 9 9 0 00-4-.72c-1.41 0-2.86.1-4.32.18-5.81.34-11.4 1.35-15.81 3.8a4.5 4.5 0 00-2.34 2.51 3.26 3.26 0 00.88 3 5.383 5.383 0 002.71 1.5c.965.222 1.95.34 2.94.35 3.021.076 6.022-.5 8.8-1.69a23.381 23.381 0 002.2-1.1c.222-.141.452-.268.69-.38zm56.28 3c-.209.02-.42.02-.63 0a10.135 10.135 0 01-1.8-.27 19.743 19.743 0 01-6.08-2.75c-2.4-1.48-5-3.66-8.28-5.3a18.68 18.68 0 00-11.65-1.38 33.106 33.106 0 00-11.09 4.39 88.517 88.517 0 00-8.05 5.67c-2.23 1.71-4.07 3.06-5.38 3.93-.65.44-1.17.77-1.52 1a3.285 3.285 0 01-.56.31c.153-.15.321-.284.5-.4l1.47-1.06c1.27-.92 3.06-2.31 5.26-4.05a82.443 82.443 0 018-5.79 33.006 33.006 0 0111.25-4.49 21.333 21.333 0 016.31-.22c1.963.229 3.872.797 5.64 1.68 3.36 1.7 5.92 3.92 8.27 5.42a21.016 21.016 0 005.96 2.81c1.51.44 2.39.44 2.38.5z"/><path d="M332.319 111.92c-.21.013-.42.013-.63 0-.41 0-1 0-1.8.06s-1.74.12-2.84.26c-.55.07-1.14.16-1.76.27a4.189 4.189 0 00-1.81.57.607.607 0 00-.29.71 1.005 1.005 0 00.76.49c.71.14 1.53.23 2.34.32 1.63.18 3.39.3 5.23.32a55.03 55.03 0 005.8-.2 6.166 6.166 0 002.83-.72 1.6 1.6 0 00.76-1.08 1.627 1.627 0 00-.41-1.27 6.724 6.724 0 00-2.55-1.61 19.504 19.504 0 00-2.88-1 21.424 21.424 0 00-5.69-.72c-3.27.037-6.484.849-9.38 2.37a21.64 21.64 0 00-5.3 3.89c-1.1 1.11-1.63 1.81-1.67 1.78.104-.187.224-.365.36-.53.359-.486.746-.95 1.16-1.39a20.858 20.858 0 0114.82-6.6 21.589 21.589 0 015.83.7c1.008.258 1.994.593 2.95 1a7.148 7.148 0 012.75 1.76 2.08 2.08 0 01.52 1.68 2 2 0 01-1 1.43 6.667 6.667 0 01-3.07.8 52.934 52.934 0 01-5.84.17c-1.87 0-3.64-.17-5.28-.37-.83-.11-1.6-.2-2.39-.36a1.344 1.344 0 01-1-.74 1.002 1.002 0 01.43-1.15 4.413 4.413 0 012-.6 33.556 33.556 0 014.64-.4c.79-.01 1.4 0 1.81 0 .207.025.409.079.6.16z"/></g><path d="M446.7 248.5c0 .14-87.28.26-194.92.26-107.64 0-194.93-.17-194.93-.26s87.26-.26 194.93-.26 194.92.06 194.92.26zM67.17 411.89c-.09 0-.45-1.48-1.18-3.85a65.878 65.878 0 00-3.54-9 65.486 65.486 0 00-4.84-8.38c-1.4-2.05-2.35-3.27-2.28-3.32.279.23.53.492.75.78.46.53 1.09 1.32 1.83 2.33a54.251 54.251 0 015 8.37 52.924 52.924 0 013.42 9.13c.33 1.21.56 2.19.68 2.88.093.346.147.702.16 1.06zm6.58 4.31c-.13 0-2.66-8.36-5.63-18.76-2.97-10.4-5.27-18.87-5.12-18.94.15-.07 2.66 8.36 5.63 18.76 2.97 10.4 5.26 18.9 5.12 18.94zm5.38-22.54c-.06 1.14-.19 2.276-.39 3.4-.27 2.09-.58 5-.75 8.2-.17 3.2-.18 6.12-.13 8.23a31.465 31.465 0 010 3.42 2.828 2.828 0 01-.17-.91c-.08-.59-.15-1.44-.22-2.5a69.993 69.993 0 010-8.27c.145-2.755.448-5.5.91-8.22.18-1.05.35-1.89.49-2.46.049-.306.136-.605.26-.89z" fill="#263238"/><path d="M364.47 222.11c.14 0 1.95 5.83 4 13.11 2.05 7.28 3.68 13.22 3.55 13.26-.13.04-1.95-5.83-4.05-13.11-2.1-7.28-3.64-13.22-3.5-13.26zm11.88 1.86c.08 0-.3 1.36-.73 3.56a53.634 53.634 0 00-1 8.66 53.058 53.058 0 00.47 8.7c.3 2.22.6 3.57.51 3.59a3.663 3.663 0 01-.3-.93 25.633 25.633 0 01-.57-2.6 43.234 43.234 0 01.53-17.5 26.05 26.05 0 01.72-2.57c.074-.321.199-.629.37-.91zm7.39 4.67c.07.05-.62 1-1.57 2.72a37.292 37.292 0 00-3 6.89 36.357 36.357 0 00-1.46 7.37c-.18 1.93-.17 3.13-.26 3.13a2.68 2.68 0 01-.11-.84 21.707 21.707 0 010-2.31 30.433 30.433 0 014.5-14.43c.406-.656.847-1.291 1.32-1.9.35-.42.55-.65.58-.63z" fill="#263238"/><path d="M318.43 317.75c-.53-2 .81-4.1 2.32-5.58 1.51-1.48 3.3-2.82 4.08-4.78 1.27-3.19-.43-7.31 1.73-10 1.27-1.56 3.56-2.08 4.69-3.75a8.547 8.547 0 001-3 30.324 30.324 0 017.53-14.1 26.286 26.286 0 01-3 13.59 17.176 17.176 0 00-2.24 5.15c-.48 3 1.21 6.15.47 9.11-.85 3.4-4.67 5.67-4.85 9.17-.15 3 2.43 5.55 2.24 8.5a8.087 8.087 0 01-1.32 3.51c-2.29 3.8-5.64 6.42-10.73 6.33l-6.23.22 4.31-14.37z" fill="#DC3001"/><path d="M318.43 317.75c-.53-2 .81-4.1 2.32-5.58 1.51-1.48 3.3-2.82 4.08-4.78 1.27-3.19-.43-7.31 1.73-10 1.27-1.56 3.56-2.08 4.69-3.75a8.547 8.547 0 001-3 30.324 30.324 0 017.53-14.1 26.286 26.286 0 01-3 13.59 17.176 17.176 0 00-2.24 5.15c-.48 3 1.21 6.15.47 9.11-.85 3.4-4.67 5.67-4.85 9.17-.15 3 2.43 5.55 2.24 8.5a8.087 8.087 0 01-1.32 3.51c-2.29 3.8-5.64 6.42-10.73 6.33l-6.23.22 4.31-14.37z" fill="#000" opacity=".3"/><path d="M312.91 332.34a5.01 5.01 0 01-1.71 0 11.113 11.113 0 01-2-.51 8.959 8.959 0 01-2.5-1.37 3.52 3.52 0 01-1-1.38 6.59 6.59 0 01-.29-1.86 20.27 20.27 0 00-.15-2 5.458 5.458 0 00-.76-2c-.73-1.29-1.95-2.51-2.35-4.26a14.07 14.07 0 01.17-5.47 11.62 11.62 0 00-.14-5.85c-.67-1.95-2-3.71-2.72-5.91-.72-2.2-.37-4.61-.51-7a9.253 9.253 0 00-.81-3.46c-.51-1.11-1.21-2.15-1.75-3.31-1.11-2.35-1.3-5-1.61-7.61-.14-1.32-.29-2.65-.44-4a19.192 19.192 0 00-.7-4 34.634 34.634 0 00-1.49-3.86 13.032 13.032 0 01-.72-2 19.431 19.431 0 01-.2-2.14 25.863 25.863 0 01.16-4.31c.17-1.44.43-2.87.59-4.31v-.54l.25.13a9.707 9.707 0 013.36 2.83 15.404 15.404 0 012.06 3.8 46.571 46.571 0 011.94 8.17 22.141 22.141 0 002.56 7.53c.68 1.11 1.51 2.13 2.23 3.21a8.694 8.694 0 011.55 3.55c.37 2.64-1.08 4.95-.78 7.29a8.06 8.06 0 001.14 3.23c.56 1 1.23 1.92 1.86 2.85a18.123 18.123 0 011.67 2.88c.439.986.7 2.043.77 3.12.15 2.1-.15 4.1 0 6a13.546 13.546 0 001.53 5.12c.76 1.54 1.6 2.92 2.3 4.27.35.67.68 1.33.94 2 .252.646.436 1.316.55 2a12.24 12.24 0 01.05 3.56 8.899 8.899 0 01-1.79 4.54c-.152.196-.319.38-.5.55-.125.127-.263.24-.41.34-.23.17-.36.25-.36.25a6.815 6.815 0 001.21-1.19 9.004 9.004 0 001.69-4.51 12.255 12.255 0 00-.08-3.5 9.515 9.515 0 00-.55-1.93 20.774 20.774 0 00-.95-2c-.71-1.33-1.55-2.71-2.32-4.25a13.924 13.924 0 01-1.6-5.22c-.16-1.92.13-3.92 0-6a8.704 8.704 0 00-.75-3 16.946 16.946 0 00-1.66-2.82c-.63-.92-1.3-1.85-1.88-2.87a8.5 8.5 0 01-1.19-3.36c-.3-2.49 1.14-4.82.77-7.27a8.423 8.423 0 00-1.5-3.4c-.71-1.06-1.54-2.08-2.24-3.22a22.23 22.23 0 01-2.62-7.66 46.807 46.807 0 00-1.93-8.09 14.932 14.932 0 00-2-3.7 9.26 9.26 0 00-3.21-2.72l.28-.16v.25c-.16 1.46-.42 2.89-.59 4.31a25.15 25.15 0 00-.16 4.25c.026.696.09 1.39.19 2.08.176.666.411 1.315.7 1.94a37.698 37.698 0 011.5 3.9c.373 1.325.608 2.686.7 4.06.15 1.34.3 2.67.44 4 .3 2.62.5 5.24 1.56 7.51.53 1.12 1.23 2.17 1.75 3.31a9.593 9.593 0 01.83 3.59c.14 2.4-.18 4.75.47 6.88.65 2.13 2 3.89 2.7 5.91a11.88 11.88 0 01.13 6 13.978 13.978 0 00-.2 5.36c.36 1.67 1.54 2.88 2.29 4.21.389.638.653 1.344.78 2.08.079.664.123 1.331.13 2 0 .616.087 1.229.26 1.82.223.511.566.96 1 1.31a8.681 8.681 0 002.44 1.37c.648.244 1.318.428 2 .55.419.073.844.113 1.27.12l.35-.01z" fill="#263238"/><path d="M293.22 258.91c.03.06.05.124.06.19 0 .15.08.34.14.56.12.49.27 1.24.5 2.16.23.92.81 2 1.29 3.26a43.797 43.797 0 011.49 4.42c.47 1.66.89 3.51 1.33 5.48a23.222 23.222 0 002 6.09c.51 1 1.08 2 1.54 3.16.448 1.151.75 2.354.9 3.58a73.222 73.222 0 001.34 7.54c1.25 5.1 2.44 10 3.53 14.4l3 11.74c.82 3.33 1.49 6 2 7.93.22.92.39 1.64.51 2.16l.12.57v.19a1.457 1.457 0 01-.07-.18l-.16-.56c-.14-.52-.33-1.23-.58-2.14l-2.08-7.9c-.87-3.34-1.9-7.31-3-11.72-1.1-4.41-2.3-9.3-3.56-14.41a70.579 70.579 0 01-1.34-7.57 14.319 14.319 0 00-.86-3.49c-.44-1.09-1-2.11-1.52-3.13a23.313 23.313 0 01-2-6.18c-.43-2-.83-3.83-1.29-5.49-.46-1.66-.93-3.13-1.41-4.41-.48-1.28-1-2.34-1.24-3.3s-.33-1.68-.43-2.18c0-.23-.07-.42-.1-.57a.594.594 0 01-.11-.2z" fill="#263238"/><path d="M311.81 332.36c-4.07-2.42-5.24-9.76-3.54-14.18 1.7-4.42 4.67-8.47 5.13-13.18.35-3.62-.83-7.34 0-10.88 1.14-4.78 5.81-8.49 5.75-13.4 0-2.76-1.6-5.35-1.47-8.1.15-3.38 2.74-6.06 4.35-9 2.46-4.55 2.62-9.94 3.46-15 .84-5.06 2.79-10.58 7.31-13.09.67 4.33 1.81 7.3 1.46 13.18-.13 2.11-2.58 6.15-2.92 10.77-.2 2.76-.33 5.53-.5 8.3a26.515 26.515 0 01-1.31 7.94c-.74 1.93-1.92 3.69-2.47 5.68-1 3.75.32 7.8-.51 11.6-.71 3.22-2.93 6-3.39 9.25-.64 4.58 2.33 9.34.81 13.71-.75 2.17-2.54 3.91-3 6.15-.4 1.74 0 3.58-.33 5.33-.57 2.81-5.93 5-8.8 4.82" fill="#DC3001"/><path d="M331.689 239.75a.873.873 0 010 .25c0 .18-.05.41-.09.71-.09.63-.2 1.55-.41 2.73-.21 1.18-.84 2.55-1.33 4.17-.49 1.62-1 3.48-1.5 5.57-.5 2.09-.85 4.41-1.26 6.89a28.978 28.978 0 01-2.08 7.79c-.58 1.3-1.22 2.61-1.7 4a18.289 18.289 0 00-.86 4.4 89.589 89.589 0 01-1.19 9.49c-1.25 6.42-2.43 12.54-3.52 18.11-1.09 5.57-2.16 10.55-3 14.76-.84 4.21-1.58 7.56-2.07 9.94-.25 1.15-.45 2.05-.59 2.69-.06.29-.12.52-.16.7a.958.958 0 01-.07.24 1.602 1.602 0 010-.24c0-.19.07-.42.12-.71.13-.65.3-1.56.51-2.72.47-2.38 1.14-5.77 2-10 .86-4.23 1.83-9.22 2.94-14.77 1.11-5.55 2.25-11.69 3.49-18.11a88.847 88.847 0 001.19-9.45c.111-1.528.41-3.036.89-4.49.5-1.42 1.15-2.73 1.72-4a28.554 28.554 0 002.09-7.69c.43-2.49.83-4.8 1.32-6.9a57.922 57.922 0 011.55-5.58c.52-1.63 1.16-3 1.4-4.13s.36-2.09.48-2.71l.13-.71v-.23z" fill="#263238"/><path d="M399.48 426.11a8.005 8.005 0 014.15 4.7 14.18 14.18 0 01.55 6.37c-.47 4.13-2.81 8.3-5.34 11.61-3.48-3-4.28-8.34-4.52-11.05-.38-4.29 1.55-12.27 5.16-11.63zm3.4 29.5a6.86 6.86 0 012.21-6.5 9.062 9.062 0 016.69-2.09 3.867 3.867 0 012.94 1.32 2.935 2.935 0 010 3 5.902 5.902 0 01-2.19 2.16c-3 1.89-6.28 3.17-9.69 2.15" fill="#DC3001"/><path d="M398.42 468.28a5.54 5.54 0 01.12-.85l.42-2.3a24.222 24.222 0 012.37-7.33 14.676 14.676 0 015.26-5.59 10.241 10.241 0 012.15-.95c.203-.065.41-.115.62-.15a.581.581 0 01.22 0c-1.005.33-1.971.769-2.88 1.31a15.174 15.174 0 00-5.1 5.56 25.994 25.994 0 00-2.43 7.23c-.21 1-.38 1.74-.51 2.27a4.36 4.36 0 01-.24.8z" fill="#263238"/><path d="M398.55 432.32c.018.123.018.247 0 .37 0 .27 0 .63.07 1.06 0 .93.1 2.27.15 3.92.11 3.31.19 7.89.17 12.95-.02 5.06-.14 9.63-.28 12.94-.07 1.65-.13 3-.19 3.92 0 .43-.05.79-.07 1.06a1.593 1.593 0 01-.05.37 2.078 2.078 0 010-.37v-1.07c0-1 .06-2.29.1-3.92.08-3.31.17-7.88.19-12.94.02-5.06 0-9.62-.08-12.93 0-1.63-.05-3-.06-3.92v-1.07c.001-.125.018-.249.05-.37z" fill="#263238"/><path d="M396.86 458.12a16.003 16.003 0 00-8.72-11.7c-1.17-.56-2.69-.93-3.64-.06-.95.87-.74 2.42-.28 3.62a13.664 13.664 0 0012.56 8.52" fill="#DC3001"/><path d="M388.7 450.33c.255.091.502.201.74.33.284.132.561.279.83.44.31.2.69.39 1.06.67.422.281.83.585 1.22.91.45.371.88.765 1.29 1.18.935.955 1.76 2.012 2.46 3.15a17.547 17.547 0 011.62 3.66c.16.6.32 1.16.41 1.7.099.499.169 1.003.21 1.51.023.416.023.834 0 1.25a7.17 7.17 0 010 .95 4.3 4.3 0 01-.09.8c-.07 0 0-1.15-.16-3a13.222 13.222 0 00-.24-1.48 15.32 15.32 0 00-.43-1.66 16.85 16.85 0 00-4-6.71 14.983 14.983 0 00-1.25-1.18c-.4-.36-.81-.65-1.18-.93-1.47-1.05-2.52-1.53-2.49-1.59zm-19.701-55.07a2.17 2.17 0 01-.25.48c-.2.36-.46.8-.78 1.33s-.77 1.27-1.22 2.11c-.45.84-1 1.76-1.55 2.83-1.12 2.1-2.34 4.68-3.57 7.58a102.32 102.32 0 00-3.43 9.68c-1 3.5-1.76 6.89-2.33 10-.57 3.11-.89 5.94-1.08 8.32-.12 1.19-.16 2.27-.22 3.21s-.09 1.77-.11 2.44c-.02.67 0 1.13 0 1.54.006.179-.014.357-.06.53a2.247 2.247 0 01-.05-.53v-3.99c0-.95 0-2 .15-3.23a83.733 83.733 0 011-8.37 95.65 95.65 0 012.3-10.06 94.111 94.111 0 013.49-9.71c1.26-2.92 2.52-5.48 3.69-7.58.56-1.06 1.13-2 1.62-2.8.49-.8.92-1.51 1.3-2.07.38-.56.63-.93.87-1.27.24-.34.23-.45.23-.44zm-15.789 14.42c.027.447.007.897-.06 1.34-.09 1-.21 2.2-.34 3.66-.3 3.08-.68 7.35-1 12.06-.32 4.71-.51 9-.64 12.09l-.17 3.67c.01.453-.03.906-.12 1.35a6.563 6.563 0 01-.08-1.35v-3.68c0-3.1.17-7.39.49-12.11.32-4.72.76-9 1.15-12.07.2-1.54.37-2.78.51-3.64.048-.447.135-.889.26-1.32zm-15.33 13.08c.265.179.507.391.72.63.622.613 1.21 1.261 1.76 1.94a32.03 32.03 0 014.49 7.37 31.62 31.62 0 012.34 8.3c.126.865.202 1.736.23 2.61a4.08 4.08 0 010 1c-.09 0-.18-1.35-.56-3.51a36.142 36.142 0 00-6.76-15.5c-1.35-1.79-2.29-2.78-2.22-2.84zm61.25-164.72c.172.137.329.291.47.46l1.28 1.38.91 1c.33.38.66.81 1 1.26.72.92 1.58 1.93 2.4 3.15l1.32 1.88c.45.66.86 1.38 1.32 2.11.95 1.45 1.79 3.09 2.71 4.79a71.906 71.906 0 017.41 24c.19 1.93.42 3.76.46 5.48 0 .87.09 1.7.09 2.5v2.3c0 1.46-.13 2.78-.21 3.94 0 .58-.08 1.13-.13 1.62-.05.49-.13.94-.19 1.35-.11.77-.2 1.39-.28 1.86-.014.222-.058.44-.13.65a5.191 5.191 0 010-.66c.05-.48.11-1.1.18-1.87 0-.41.09-.86.14-1.35.05-.49.06-1 .09-1.62.05-1.15.17-2.47.13-3.93v-2.29c0-.79-.09-1.62-.13-2.47-.05-1.72-.29-3.53-.5-5.45a74.526 74.526 0 00-7.35-23.84c-.91-1.7-1.73-3.34-2.65-4.78-.45-.73-.86-1.46-1.3-2.12-.44-.66-.87-1.29-1.28-1.89-.79-1.23-1.63-2.25-2.33-3.18-.35-.46-.67-.9-1-1.28l-.88-1-1.2-1.44a2.873 2.873 0 01-.35-.56zM429 277.78a9.954 9.954 0 01-.39 1.49c-.29 1-.69 2.32-1.16 4a120.91 120.91 0 00-4.24 27.26c-.07 1.77-.11 3.2-.13 4.19a8.62 8.62 0 01-.08 1.54 7.768 7.768 0 01-.12-1.53c0-1-.07-2.43 0-4.21a101.13 101.13 0 014.26-27.35c.52-1.7 1-3.06 1.32-4 .137-.479.318-.944.54-1.39zm2.16 19.58a57.835 57.835 0 00-3.29 7.14 58.224 58.224 0 00-1.76 7.65 8.12 8.12 0 010-2.33 26.01 26.01 0 011.23-5.49 25.332 25.332 0 012.39-5.1 7.865 7.865 0 011.43-1.87z" fill="#263238"/><path d="M145.63 442.38l-1.37 32.47-17.54-.4 1.32-32.53 17.59.46z" fill="#DC3001"/><path d="M135.65 473.43c-.15 0 .12-7.12.6-15.88.48-8.76 1-15.86 1.14-15.85.14.01-.12 7.12-.61 15.88-.49 8.76-.99 15.86-1.13 15.85z" fill="#263238"/><path d="M144.35 472.61l-17.53-.45-.1 2.29 17.54.4.09-2.24zm-17.21-8.55c.122-.256.288-.49.49-.69a12.24 12.24 0 014.55-3.36A9.325 9.325 0 01143 462.5a7.728 7.728 0 011.19 2c.129.253.211.527.24.81a16.337 16.337 0 00-1.72-2.53 9.318 9.318 0 00-6.43-3 10.742 10.742 0 00-6.79 2.29c-1.49 1.13-2.28 2.05-2.35 1.99z" fill="#263238"/><path d="M127.66 451.18l-.14 3.58 17.57.31.12-2.69-17.55-1.2z" fill="#000" opacity=".3"/><path d="M186.9 444.32l-.85 19.77s19.8 7.5 20 11.17l-38.37-.28.07-30.85 19.15.19z" fill="#DC3001"/><path d="M174.45 462.41a1.57 1.57 0 00-1.11 1.79 1.518 1.518 0 001.77 1.11 1.663 1.663 0 001.16-1.9 1.558 1.558 0 00-2-1" fill="#E0E0E0"/><path d="M167.67 474.97v-3.08l37.14 1.4s1.71.76 1.51 2l-38.65-.32zm18.72-10.76c0 .19-.95.27-1.88.87-.93.6-1.43 1.39-1.61 1.31-.18-.08.12-1.16 1.26-1.87 1.14-.71 2.28-.48 2.23-.31zm4.049 1.71c0 .18-.78.5-1.43 1.29-.65.79-.84 1.64-1 1.63-.16-.01-.3-1.08.53-2 .83-.92 1.89-1.1 1.9-.92zm2.261 4.87c-.17 0-.43-.91.07-1.94.5-1.03 1.37-1.43 1.45-1.27.08.16-.47.7-.86 1.55-.39.85-.47 1.64-.66 1.66zm-6.61-11.13c-.08.17-1-.1-2 0s-1.91.39-2 .23c-.09-.16.7-.83 2-.89 1.3-.06 2.09.5 2 .66zm.719-4.26a3.63 3.63 0 01-1.94 0 8.952 8.952 0 01-2-.64 8.082 8.082 0 01-1.11-.6 2.411 2.411 0 01-.58-.46.823.823 0 01-.08-1 .999.999 0 01.83-.43c.247.007.492.043.73.11.412.104.814.244 1.2.42a6.903 6.903 0 011.78 1.19c.89.83 1.19 1.54 1.12 1.58-.07.04-.52-.54-1.42-1.23a8.12 8.12 0 00-1.72-1 7.566 7.566 0 00-1.11-.36c-.41-.11-.76-.11-.86.07-.1.18 0 .1 0 .22.122.131.264.243.42.33.322.216.656.413 1 .59.599.304 1.225.551 1.87.74.634.112 1.259.269 1.87.47z" fill="#263238"/><path d="M186.56 455.67a2.996 2.996 0 01-.5-1.87 6.212 6.212 0 01.28-2.12c.128-.405.295-.797.5-1.17a1.607 1.607 0 011.25-1 .916.916 0 01.8.55c.101.225.165.465.19.71a4.342 4.342 0 01-.85 3.29c-.76 1-1.55 1.22-1.56 1.16-.01-.06.59-.46 1.18-1.42.34-.55.555-1.168.63-1.81a4.285 4.285 0 000-1.12c-.06-.41-.21-.74-.37-.7-.16.04-.52.3-.68.63a5.638 5.638 0 00-.48 1 6.843 6.843 0 00-.39 1.93c-.09 1.21.1 1.91 0 1.94z" fill="#263238"/><path d="M167.659 455.98l.04 4.39h18.51v-3.98l-18.55-.41z" fill="#000" opacity=".3"/><path d="M157.02 318.53l-5.67 54.66-4.07 82.31h-21.72l-.59-175.18 62.19 4.43 12.89 91.91-11.16 80.45h-23.83l5.57-76.49-13.61-62.09z" fill="#263238"/><path d="M157 318.5a32.3 32.3 0 004.23 4.17 33.15 33.15 0 004.58 3.77 31.915 31.915 0 00-4.22-4.17 32.777 32.777 0 00-4.59-3.77zm.089-1.06a63.363 63.363 0 00-.12-7 64.199 64.199 0 00-.4-7 36.148 36.148 0 00-.14 7 36.626 36.626 0 00.66 7zm-7.189-20.4a1.575 1.575 0 00-.35 0l-1.07-.06-4.12-.2-14.72-.62h-.26v16.02l.17.07 9.58 3.83h.18l8.47-2.94.13-.05v-.14c.62-4.77 1.14-8.74 1.51-11.59.16-1.33.29-2.4.39-3.19.054-.361.088-.725.1-1.09-.03.101-.05.205-.06.31 0 .24-.09.52-.15.86-.13.8-.3 1.88-.51 3.23-.42 2.8-1 6.72-1.72 11.41l.15-.18-8.49 2.88h.18l-9.57-3.86.17.25v-15.59l-.25.25 14.56.36 4.19.07h1.53l-.04-.03zm31.359.26h-1.32l-3.73-.11-13.43-.32h-.25v.25c.15 4.54.31 9.76.49 15.33v.05l.11.08 1.56 1 7.87 5.13.14.09.14-.08 8.87-5.41.11-.07v-.13c-.17-4.76-.31-8.73-.41-11.58-.05-1.32-.1-2.39-.13-3.18s-.07-1.1-.08-1.09a1.318 1.318 0 000 .32v4.16c0 2.81.1 6.74.17 11.44l.11-.19-8.91 5.34h.28l-7.85-5.17-1.55-1 .12.22c-.2-5.57-.39-10.8-.56-15.34l-.24.25 13.29.07h4.79l.41-.06zm-49.579 24.76c.983.074 1.972.044 2.95-.09 1.81-.13 4.31-.38 7.06-.74s5.23-.75 7-1.08a14.882 14.882 0 002.87-.67c-.983.013-1.964.11-2.93.29l-7 .93-7 .89c-.995.074-1.982.231-2.95.47zm.509 60.93s.09.31.51.69a3.47 3.47 0 002.22.75 5.212 5.212 0 003.25-1.24 23.232 23.232 0 003-3 40.881 40.881 0 004.39-6.19 13.147 13.147 0 001.38-2.83 30.012 30.012 0 00-1.7 2.63 55.59 55.59 0 01-4.48 6 25.222 25.222 0 01-2.86 2.95 4.996 4.996 0 01-2.94 1.25 3.438 3.438 0 01-2.09-.54c-.47-.24-.64-.5-.68-.47zm42.901 1.92s0 .28.29.7c.383.583.896 1.07 1.5 1.42a5.716 5.716 0 003 .79 7.18 7.18 0 003.59-1.14 12.744 12.744 0 004.32-5.15 11.01 11.01 0 001.07-2.56 19.442 19.442 0 00-1.41 2.38 13.637 13.637 0 01-4.27 4.87 6.827 6.827 0 01-3.31 1.1 5.602 5.602 0 01-2.78-.62 6.077 6.077 0 01-2-1.79zm-1.391-8.25a5.4 5.4 0 001.79 1 13.926 13.926 0 004.86 1.08 14.102 14.102 0 005-.67 5.559 5.559 0 001.86-.89 22.736 22.736 0 01-6.78 1 22.441 22.441 0 01-6.73-1.52z" fill="#455A64"/><path d="M156.22 185.67l-23.43-.29 2.62-19.26s-1.6-.33-1.71-8.71c-.11-8.38-.51-22.62-.51-22.62a31.005 31.005 0 0130.31 3.71l1.29 1-8.57 46.17z" fill="#FFBE9D"/><path d="M162.07 149.73c.15-.06 5.999-1.7 5.769 4-.23 5.7-6.11 4.36-6.11 4.19 0-.17.341-8.19.341-8.19zm-27.87-1.23c-.15-.06-5.43-1.43-5.25 4.29.18 5.72 6.11 4.37 6.12 4.2.01-.17-.87-8.49-.87-8.49z" fill="#FFBE9D"/><path d="M164 149.09c-.88 4.8-.71 7.32-1.53 10.53-1.3 5.07-3.91 9-8.64 11.5s-11.14 2.49-15.2-1c-2.83-2.4-4.83-5.1-5.25-8.71-.42-3.61-.83-10-.86-13.61 0-6.54-.5-12.79-.5-12.79l19.35-3.38 11 6.32 1.63 11.14zm-20 24.92a6.458 6.458 0 003.39.29 6.323 6.323 0 003.24-1c0-.14-1.48.29-3.3.48-1.82.19-3.28.08-3.33.23z" fill="#263238"/><path d="M163.06 157.25c.56-4.92.93-10.54 1.73-15.73.3-2 1-4.75.84-6.71a15.7 15.7 0 00-1.28-5.76 8.466 8.466 0 00-5.88-4.39 8.79 8.79 0 00-7.18 1.85 6.559 6.559 0 00-6.64-2.54 6.306 6.306 0 00-4.81 5.1 4.642 4.642 0 00-5.28-.55 4.274 4.274 0 00-1.92 4.77 4.337 4.337 0 00-3.2 2.4 4.084 4.084 0 00.32 3.91c.9 1.33 2.52 2.06 3.5 3.33a4.63 4.63 0 01.3 5.17" fill="#263238"/><path d="M136.18 139.5c.031.191.106.373.22.53.276.489.659.909 1.12 1.23a4.145 4.145 0 002.52.77 4.413 4.413 0 003.1-1.41l-.41-.11a3.94 3.94 0 002.59 2.87 4.765 4.765 0 004.36-.53 6.366 6.366 0 002.46-3.11l-.47.06a5.469 5.469 0 004.38 2.31 5.129 5.129 0 003.69-1.45 4.89 4.89 0 001.33-2.19c.106-.291.147-.601.12-.91 0 0-.09.32-.29.86a5.274 5.274 0 01-1.39 2 4.903 4.903 0 01-3.44 1.25 5.107 5.107 0 01-4-2.16l-.28-.43-.19.48a6.003 6.003 0 01-2.26 2.85 4.242 4.242 0 01-3.87.49 3.515 3.515 0 01-2.32-2.47l-.08-.48-.33.37a4.003 4.003 0 01-5.1.71 5.456 5.456 0 01-1.46-1.53zm.039-2.29c.112-.75.392-1.465.82-2.09a3.54 3.54 0 012-1.32 3.814 3.814 0 012.95.54l.47.33-.05-.56a4.124 4.124 0 01.2-1.65 4.515 4.515 0 012.38-2.67 4.74 4.74 0 013-.26 6.47 6.47 0 012.51 1.37s-.11-.27-.48-.64a4.776 4.776 0 00-1.93-1.08 4.817 4.817 0 00-6 3.12 4.581 4.581 0 00-.21 1.86l.42-.24a4.246 4.246 0 00-3.38-.56 3.765 3.765 0 00-2.2 1.57 3.551 3.551 0 00-.6 1.65c.01.41.07.63.1.63zm12.34.16c.07 0 0-.32 0-.78a3.682 3.682 0 01.61-1.7c.39-.59.85-1.19 1.12-1.52.27-.33.57-.08.62-.11.05-.03 0-.13-.13-.23a.685.685 0 00-.73.05 4.182 4.182 0 00-.67.66c-.248.276-.475.57-.68.88a3.136 3.136 0 00-.52 2c.08.52.32.78.38.75zm11.441-7.2c.06 0 0-.45-.36-1a2.725 2.725 0 00-.89-.9 2.347 2.347 0 00-1.57-.33 3.755 3.755 0 00-2.35 1.42c-.43.53-.63.89-.58.93.05.04.38-.24.86-.68a4.144 4.144 0 012.14-1.16 2.286 2.286 0 012.07.93c.45.45.68.82.68.79zm-3 24.33a12.411 12.411 0 002.77-7.75c-.16 0-.471 1.8-1.23 3.93-.76 2.13-1.65 3.7-1.54 3.82zm-2.57 1.34a6.931 6.931 0 001.43-2.61 6.785 6.785 0 00.71-2.87 10.76 10.76 0 00-1.21 2.69c-.445.88-.758 1.82-.93 2.79zm-16.31.39a8.706 8.706 0 00.67 5 8.993 8.993 0 003 4.2 30.59 30.59 0 01-2.44-4.38 30.69 30.69 0 01-1.23-4.82zm-2.6-4.18a7.079 7.079 0 00-.38 4.53c.202 1.554.904 3 2 4.12a25.89 25.89 0 01-1.47-4.21 24.58 24.58 0 01-.15-4.44z" fill="#455A64"/><path d="M104.19 232.23v24s18 39.78 18 39.17c0-.61 6.43-25.11 6.43-25.11l-7.24-19.11-.68-12.48-14.86-29.72s-3.69 20-3.09 21.2a7.97 7.97 0 001.44 2.05z" fill="#DC3001"/><path d="M126.61 184.57s-16.36 8.49-18.38 11.11c-2.02 2.62-2.42 13.33-2.42 13.33l20.8 41.6 1 16.76s-6.26 13.05-6.26 22.17v1l-1 12.52 25 2.22s1.42-6.87 1.42-6.26c0 .61 1.82 6.26 1.82 6.26H190l-1.53-27.57-7.05-42.56s3-24.41 3.15-25.3c.26-1.58 26.48-13.21 26.48-13.21l12.35-6.67a10 10 0 005.22-8.76 10.01 10.01 0 00-1.505-5.246 10.01 10.01 0 00-4.035-3.674l-34.85-17.25-8.11 13.64 10.62 6.82 7.61 5.27-21.11 2s-3.75-4.9-5.36-4.9c-1.61 0-14.54 3-14.54 3l.2-3.23s-3.43-3.84-7.27-3.64c-3.84.2-20 4.85-20 4.85l-3.66 5.72z" fill="#DC3001"/><path d="M185.32 159.93l-9.091-5.29-13.83-7.5s-4.56-3.46-6.36-3.36a5.51 5.51 0 00-3.719 2.55c-.08.41.669 1.17 1.829.85.38-.1 1.44-.87 2-.75a4.163 4.163 0 012.581 1.86.625.625 0 01-.169.91.616.616 0 01-.331.09s-7.83-2-10.75-.4a1.556 1.556 0 00-.79 1.92c.21.51.77 1 2.14.7 2.75-.53 7.29 1.58 7.29 1.58s-10.16-.33-11.9.54c-.69.34-1.44 2.56.63 2.79 2.44.26 7.25.16 7.25.16s4.54.63 3.81 1.48-7.701.92-8.231 1c-.53.08-2.889 0-2.759 1.92.07 1.09 2.11 1.78 4.75 1.69 2.24-.07 9.19-.21 10 1.06.81 1.27.259 2.19-.381 2.51-2.032.5-4.103.834-6.189 1-.92 0-2.13 1.7.11 2.24 2.44.6 4.5.11 6.61.11 2.11 0 4.81.17 10.73-2.15 0 0 4-1.81 9.44 1.31l5.33-8.82z" fill="#FFBE9D"/><path d="M156.32 181.07c0 .15-6.37 1-14.27 2-7.9 1-14.33 1.62-14.34 1.47-.01-.15 6.37-1 14.28-2 7.91-1 14.32-1.61 14.33-1.47zm-1.421 88.43a4.68 4.68 0 01.35-.57l1.1-1.59c1-1.37 2.33-3.38 4-5.9 1.67-2.52 3.52-5.54 5.51-9 1.99-3.46 4-7.27 6.07-11.38 2.07-4.11 3.76-8.1 5.27-11.77 1.51-3.67 2.73-7 3.7-9.86.97-2.86 1.73-5.14 2.22-6.75.24-.75.43-1.36.58-1.84.063-.216.143-.427.24-.63-.02.224-.064.445-.13.66-.13.48-.29 1.1-.5 1.87-.43 1.63-1.12 4-2.06 6.81-.94 2.81-2.14 6.23-3.61 9.92-1.47 3.69-3.23 7.7-5.24 11.82-2.01 4.12-4.12 8-6.12 11.39-2 3.39-3.93 6.45-5.62 8.94-1.69 2.49-3.1 4.47-4.12 5.8l-1.17 1.54a2.983 2.983 0 01-.47.54zM121 295.44a4.025 4.025 0 010-.56c0-.4.09-.94.15-1.6.15-1.39.44-3.42.89-5.95a137.91 137.91 0 015.35-20.05v.1c-.22-3.48-.45-7.23-.68-11.12-.12-1.93-.23-3.83-.34-5.64v.1c-4.45-8.67-8.13-16.44-10.64-22.08-1.26-2.81-2.22-5.1-2.86-6.68-.29-.76-.53-1.37-.71-1.83a3.403 3.403 0 01-.16-.63c.119.193.22.398.3.61l.79 1.79c.7 1.55 1.7 3.82 3 6.61 2.59 5.59 6.33 13.34 10.78 22v.05c.11 1.81.23 3.71.34 5.64.24 3.89.46 7.64.66 11.12v.05a149.015 149.015 0 00-5.51 19.93c-.5 2.52-.83 4.54-1 5.92l-.24 1.59a1.858 1.858 0 01-.12.63zm27.16-8.16a84.724 84.724 0 01-1.11 9.19c-.369 3.061-.91 6.1-1.62 9.1a81.635 81.635 0 011.11-9.18c.369-3.065.91-6.106 1.62-9.11zm29.629-84.89a3.28 3.28 0 01-.53-.72c-.31-.48-.73-1.2-1.21-2.11a38.426 38.426 0 01-2.93-7.49 38.962 38.962 0 01-1.34-7.93c-.06-1-.07-1.86-.05-2.43a3.29 3.29 0 01.08-.89c.09 0 .12 1.26.34 3.29a47.285 47.285 0 004.23 15.28c.521.975.992 1.976 1.41 3z" fill="#263238"/><path d="M156 267.59a7.18 7.18 0 006.42-.42 17.552 17.552 0 004.94-4.44 64.83 64.83 0 0014.64-45.5 187.484 187.484 0 01-25.17 49.27m-44.011-44.92a8.2 8.2 0 00-3.26-2.36 2.436 2.436 0 00-3.13 1.3 3.555 3.555 0 00.26 2c1.93 5.69 3.92 11.51 7.7 16.18a9.279 9.279 0 002.37 1.89c.9.57 3.35 1.07 3.69.1a5.985 5.985 0 000-2.5s-5.39-11-8-16.65m85.681-40.78c2.406.567 4.916.523 7.3-.13-3.75-2.84-8.64-3.46-13.3-4.09l6 4.22z" fill="#000" opacity=".3"/><path d="M213.57 181.18a11.78 11.78 0 01-2.33 0l-5.58-.16-5.58-.09c-.776.033-1.553-.01-2.32-.13a9.545 9.545 0 012.31-.24 85.175 85.175 0 0111.2.25c.778.033 1.55.157 2.3.37zM110 248.5c0-.06.53.3 1.29.88a14.627 14.627 0 003.1 1.95 6.452 6.452 0 003.53.46c.91-.17 1.41-.51 1.46-.43.05.08-.41.51-1.38.79a5.928 5.928 0 01-3.81-.34 11.302 11.302 0 01-3.14-2.15c-.68-.71-1.05-1.16-1.05-1.16z" fill="#263238"/><path opacity=".3" d="M148.16 289.17l4.92 16.16h-4.46l-2.07-7.27 1.61-8.89z" fill="#000"/></svg>