<svg width="390" height="395" fill="none" xmlns="http://www.w3.org/2000/svg"><ellipse cx="195" cy="200.151" rx="119.413" ry="119.32" fill="#112242"/><ellipse cx="225.559" cy="95.97" rx="27.649" ry="26.174" fill="#fff"/><ellipse cx="228.169" cy="184.37" rx="18.618" ry="18.604" fill="#fff"/><ellipse cx="115.392" cy="218.755" rx="18.618" ry="18.604" fill="#fff"/><ellipse cx="186.27" cy="302.452" rx="29.105" ry="29.082" fill="#fff"/><ellipse cx="300.932" cy="178.555" rx="18.618" ry="18.604" fill="#fff"/><mask id="a" fill="#fff"><path d="M153.792 46.479C68.855 69.219 18.449 156.457 41.208 241.328c22.76 84.871 110.064 135.237 195 112.496 84.937-22.741 135.342-109.978 112.584-194.849-22.759-84.87-110.063-135.237-195-112.496zm100.272 51.449c51.462 29.688 70.906 90.918 51.977 142.579L104.503 124.24C139.838 82 202.632 68.257 254.064 97.928zM135.936 302.375c-51.462-29.688-70.906-90.918-51.977-142.579l201.538 116.267c-35.334 42.239-98.129 55.984-149.561 26.312z"/><path d="M254.064 97.928c51.462 29.688 70.906 90.918 51.977 142.579L104.503 124.24C139.838 82 202.632 68.257 254.064 97.928zM135.936 302.375c-51.462-29.688-70.906-90.918-51.977-142.579l201.538 116.267c-35.334 42.239-98.129 55.984-149.561 26.312z"/></mask><path d="M153.792 46.479C68.855 69.219 18.449 156.457 41.208 241.328c22.76 84.871 110.064 135.237 195 112.496 84.937-22.741 135.342-109.978 112.584-194.849-22.759-84.87-110.063-135.237-195-112.496zm100.272 51.449c51.462 29.688 70.906 90.918 51.977 142.579L104.503 124.24C139.838 82 202.632 68.257 254.064 97.928zM135.936 302.375c-51.462-29.688-70.906-90.918-51.977-142.579l201.538 116.267c-35.334 42.239-98.129 55.984-149.561 26.312z" fill="#DC3001"/><path d="M254.064 97.928l.75-1.3-.75 1.3zm51.977 142.579l-.749 1.299 1.544.891.614-1.674-1.409-.516zM104.503 124.24l-1.151-.962-1.145 1.369 1.547.892.749-1.299zm-20.544 35.556l.75-1.299-1.545-.891-.614 1.674 1.41.516zm201.538 116.267l1.151.962 1.145-1.369-1.547-.892-.749 1.299zM253.315 99.227c50.804 29.309 70.006 89.759 51.317 140.763l2.818 1.033c19.169-52.318-.518-114.327-52.636-144.394l-1.499 2.598zm53.475 139.981L105.253 122.941l-1.499 2.598 201.538 116.267 1.498-2.598zM105.654 125.203c34.886-41.704 96.885-55.269 147.661-25.976l1.499-2.598c-52.089-30.05-115.679-16.127-151.462 26.649l2.302 1.925zm31.031 175.873c-50.804-29.309-70.006-89.759-51.317-140.764l-2.818-1.032c-19.17 52.318.518 114.327 52.636 144.394l1.499-2.598zM83.21 161.095l201.537 116.267 1.499-2.598L84.709 158.497l-1.5 2.598zM284.346 275.1c-34.885 41.703-96.885 55.269-147.661 25.976l-1.499 2.598c52.089 30.05 115.679 16.127 151.462-26.649l-2.302-1.925zM153.015 43.581C66.48 66.751 15.122 155.63 38.31 242.104l5.796-1.552C21.777 157.283 71.231 71.689 154.57 49.377l-1.554-5.796zM38.31 242.104c23.19 86.473 112.14 137.787 198.675 114.618l-1.554-5.796c-83.337 22.313-168.995-27.105-191.325-110.374l-5.796 1.552zm198.675 114.618c86.535-23.169 137.893-112.05 114.705-198.523l-5.796 1.552c22.329 83.268-27.125 168.862-110.463 191.175l1.554 5.796zM351.69 158.199C328.501 71.726 239.55 20.412 153.015 43.581l1.554 5.795c83.338-22.313 168.996 27.106 191.325 110.375l5.796-1.552z" fill="#fff" mask="url(#a)"/><ellipse cx="137.865" cy="85.322" rx="46.224" ry="46.188" fill="#112242"/><ellipse cx="138.504" cy="11.549" rx="11.556" ry="11.549" fill="#112242"/><ellipse cx="75.586" cy="45.548" rx="11.556" ry="11.549" fill="#112242"/><path fill="#112242" d="M134.012 17.96H143v27.589h-8.988zM77.513 53.02l4.985-7.473 22.972 15.3-4.985 7.474z"/></svg>