<svg width="500" height="500" fill="none" xmlns="http://www.w3.org/2000/svg"><path d="M366.709 175.42l-40.6 19.26 74 17.18-28.11-35.23a4.36 4.36 0 00-5.29-1.21zm-40.247 19.35l73.573 17.08a.371.371 0 01.277.444l-9.756 42.023a.89.89 0 01-1.068.665l-72.55-16.843a.887.887 0 01-.666-1.068l9.756-42.022a.367.367 0 01.434-.279z" fill="#DC3001"/><path d="M395.31 211.81l-34.73 11.68L330 198.11l5.39-20.32a4.143 4.143 0 015-3l56.26 13.05a4.162 4.162 0 013.1 5l-4.44 18.97z" fill="#fff"/><path d="M358.381 220.05l-41.57 14.5a3.388 3.388 0 002.54 4.07l67.729 15.72a3.393 3.393 0 004.071-2.54l.06-.25-29.07-30.55a3.58 3.58 0 00-3.76-.95z" fill="#DC3001"/><path d="M362.961 189.664l-22.006-5.105-.522 2.25 22.006 5.105.522-2.25z" fill="#E0E0E0"/><path d="M388.472 201.592l-48.833-11.327-.59 2.542 48.833 11.328.59-2.543zm-1.443 6.195l-48.834-11.328-.589 2.542 48.833 11.328.59-2.542zm-2.819 7.773l-2.05.67-41.23-9.05-4.18-3.54.08-.6 48.67 11.29-.19.84-1.1.39zm-14.14 4.73l-18.47-4.28-4.42-3.7 27.6 6.4-4.71 1.58z" fill="#F5F5F5"/><path d="M356.86 220.58a9.147 9.147 0 01-1.55.64l-4.31 1.55c-3.64 1.29-8.67 3-14.24 4.93-5.57 1.93-10.63 3.59-14.3 4.79l-4.34 1.4a8.982 8.982 0 01-1.62.44c.5-.252 1.018-.466 1.55-.64l4.3-1.55c3.64-1.29 8.67-3 14.24-4.93 5.57-1.93 10.62-3.59 14.29-4.79l4.35-1.39c.531-.19 1.076-.34 1.63-.45zm34.35 30.97c-.1.1-6.38-6.33-14-14.35s-13.76-14.61-13.65-14.71c.11-.1 6.38 6.32 14 14.35s13.76 14.61 13.65 14.71zm5.789-40.31a8.2 8.2 0 01-1.26.57c-.82.33-2 .8-3.5 1.36-3 1.12-7.08 2.61-11.65 4.18-4.57 1.57-8.75 2.91-11.78 3.84-1.52.46-2.75.83-3.6 1.06a6.365 6.365 0 01-1.34.32 7.674 7.674 0 011.28-.51l3.55-1.22 11.72-4 11.7-4 3.55-1.2c.43-.175.875-.309 1.33-.4zm-40.139 9.34a9.714 9.714 0 01-1.25-1l-3.3-2.76-11-9c-4.3-3.51-8.16-6.73-10.89-9.14-1.37-1.2-2.47-2.18-3.21-2.88a8.01 8.01 0 01-1.11-1.13c.44.303.857.637 1.25 1l3.3 2.76 11 9c4.3 3.51 8.16 6.74 10.89 9.14 1.37 1.2 2.47 2.19 3.21 2.89.404.338.775.713 1.11 1.12z" fill="#EBEBEB"/><path d="M395.309 211.81a1.56 1.56 0 010-.29c0-.21.1-.49.17-.83.16-.76.39-1.82.68-3.16l2.62-11.63c.14-.62.28-1.25.42-1.89.175-.636.302-1.285.38-1.94a3.896 3.896 0 00-1.74-3.47 5.137 5.137 0 00-2-.74l-2.27-.52-4.74-1.09-21.09-4.87-21.09-4.92-4.74-1.11a20.114 20.114 0 00-2.24-.47 3.932 3.932 0 00-3.57 1.81 6.149 6.149 0 00-.7 1.91c-.36 1.32-.7 2.59-1 3.81l-3.14 11.5c-.37 1.33-.66 2.37-.88 3.12-.093.333-.173.603-.24.81a.87.87 0 01-.1.27s0-.1.05-.29l.19-.82c.19-.75.45-1.8.79-3.14.71-2.76 1.72-6.7 3-11.54.32-1.22.65-2.5 1-3.82a6.5 6.5 0 01.74-2 4.335 4.335 0 011.66-1.54 4.278 4.278 0 012.29-.49c.781.111 1.556.264 2.32.46l4.74 1.09 21.09 4.88 21.09 4.89 4.73 1.11 2.27.53a5.607 5.607 0 012.17.81 4.33 4.33 0 011.9 3.85 13.487 13.487 0 01-.4 2c-.15.64-.3 1.27-.45 1.88-1.16 4.87-2.11 8.82-2.77 11.59l-.78 3.15c-.09.33-.16.6-.22.81a1.08 1.08 0 01-.14.29z" fill="#E0E0E0"/><path d="M299.51 92.66l69.25-12.88 10.35 46.8-71.92 12.15-7.68-46.07z" fill="#EBEBEB"/><path d="M368.76 79.78s0 .07-.12.2l-.39.54-1.54 2.06-5.71 7.54c-5 6.37-11.78 15.14-19.32 24.88l-.13.17-.2-.1-1.34-.71-28.69-15.25-8.67-4.67-2.34-1.3-.6-.35a.814.814 0 01-.2-.13.677.677 0 01.22.09l.63.3 2.39 1.21 8.74 4.53c7.4 3.88 17.55 9.22 28.76 15.12l1.35.71-.33.07 19.39-24.79 5.89-7.44 1.62-2 .43-.51a.835.835 0 01.16-.17z" fill="#E0E0E0"/><path d="M307.19 138.73c-.12-.08 4.33-7.14 9.94-15.77 5.61-8.63 10.27-15.57 10.39-15.49.12.08-4.33 7.14-9.95 15.77-5.62 8.63-10.26 15.57-10.38 15.49zm71.919-12.15c-.09.11-6.57-4.85-14.47-11.07-7.9-6.22-14.23-11.38-14.15-11.51.08-.13 6.57 4.85 14.47 11.08s14.23 11.39 14.15 11.5z" fill="#E0E0E0"/><path d="M410.569 125.02l45.93 11.13-6.51 31.48-47.36-12.3 7.94-30.31z" fill="#F5F5F5"/><path d="M456.5 136.15a3.045 3.045 0 01-.51.33l-1.5.85-5.58 3-18.62 10-.19.1-.13-.17-.63-.8L416 132.25c-1.66-2.18-3-4-4-5.26l-1.07-1.44a3.885 3.885 0 01-.35-.53c.163.134.308.288.43.46l1.15 1.39c1 1.27 2.41 3 4.13 5.15 3.48 4.44 8.23 10.47 13.47 17.14l.63.8-.33-.07 18.69-9.83 5.66-2.91 1.54-.76c.171-.107.356-.187.55-.24z" fill="#E0E0E0"/><path d="M402.63 155.33c-.08-.12 4.56-3.26 10.37-7s10.58-6.68 10.65-6.56c.07.12-4.56 3.26-10.37 7s-10.57 6.68-10.65 6.56zm47.37 12.3c-.12.07-2.76-4.73-5.89-10.71S438.54 146 438.66 146c.12 0 2.77 4.73 5.9 10.71 3.13 5.98 5.55 10.86 5.44 10.92z" fill="#E0E0E0"/><path d="M362.801 405.65l1.11.4c.72.28 1.82.65 3.28 1.06a38.72 38.72 0 0013.11 1.33 52.814 52.814 0 009.44-1.52 59.903 59.903 0 0010.73-3.74 65.82 65.82 0 0021.88-16.72 20.436 20.436 0 004-6.68 10.443 10.443 0 00-.38-7.89 7.77 7.77 0 00-2.79-3 9.898 9.898 0 00-4-1.38 15.727 15.727 0 00-8.59 1.4 31.92 31.92 0 01-4.35 1.54 8.487 8.487 0 01-4.71-.12 5.003 5.003 0 01-3.4-3.32 5.856 5.856 0 01.93-4.75 8.995 8.995 0 013.82-3.13 35.593 35.593 0 014.67-1.69 63.104 63.104 0 0018.05-9.23 20.847 20.847 0 003.86-3.46 7.356 7.356 0 002-4.63 4.577 4.577 0 00-.73-2.4 5.621 5.621 0 00-1.87-1.75 11.74 11.74 0 00-5.07-1.42 30.278 30.278 0 01-5.47-.75 6.109 6.109 0 01-4.24-3.6 3.29 3.29 0 01.35-2.89 7.25 7.25 0 012.16-1.91c1.56-1 3.1-2.09 4.59-3.23a73.722 73.722 0 008.46-7.56c2.6-2.77 5.24-5.65 6.87-9.13a11.47 11.47 0 001.18-5.53 8.467 8.467 0 00-2.17-5.16 11.237 11.237 0 00-10.41-3.42 18.365 18.365 0 00-9.72 5.62c-5.27 5.55-7.87 12.87-12.19 18.94a30.648 30.648 0 01-3.59 4.27 9.942 9.942 0 01-2.2 1.75 2.913 2.913 0 01-2.86.1 3.593 3.593 0 01-1.5-2.42 10.277 10.277 0 010-2.77 7.523 7.523 0 00-.1-2.6 4.728 4.728 0 00-1.26-2.18 6.474 6.474 0 00-4.64-1.83 7.32 7.32 0 00-4.58 2 11.574 11.574 0 00-2.9 4.13 18.964 18.964 0 00-1.24 4.91c-.21 1.68-.27 3.36-.33 5-.06 1.64-.11 3.35-.16 5-.114 3.333-.224 6.607-.33 9.82-.06 1.61-.09 3.2-.17 4.81a15.615 15.615 0 01-.91 4.69 5.518 5.518 0 01-3.27 3.37 6.792 6.792 0 01-4.62-.3 18.373 18.373 0 01-7.14-5.4 19.72 19.72 0 01-2.38-3.68 39.38 39.38 0 00-2-3.75 5.863 5.863 0 00-3-2.54 5.445 5.445 0 00-3.85.27 7.832 7.832 0 00-3.05 2.37 8.974 8.974 0 00-1.56 3.47 54.195 54.195 0 00-.66 7.47c-.17 2.44-.25 4.83-.28 7.14a91.25 91.25 0 00.79 13.06 64.022 64.022 0 002.43 11.1c.46 1.69 1.14 3.23 1.69 4.73.31.73.65 1.43 1 2.12.35.69.61 1.37 1 2a41.98 41.98 0 007.9 10.56c.457.484.948.935 1.47 1.35l1.11.94.88.77-.92-.73-1.12-.92a13.929 13.929 0 01-1.49-1.33 41.668 41.668 0 01-8-10.54 21.433 21.433 0 01-1-2c-.32-.69-.68-1.39-1-2.13-.56-1.5-1.25-3-1.72-4.73a63.579 63.579 0 01-2.47-11.15 88.586 88.586 0 01-.84-13.09c0-2.32.1-4.71.26-7.16.048-2.525.265-5.044.65-7.54a9.373 9.373 0 011.62-3.61 8.151 8.151 0 013.19-2.49 5.818 5.818 0 014.13-.3 6.387 6.387 0 013.25 2.7 39.239 39.239 0 012 3.79 18.907 18.907 0 002.33 3.59 18.134 18.134 0 007 5.27 6.47 6.47 0 004.33.29 5.105 5.105 0 003-3.12c1.1-2.89.86-6.15 1-9.36.14-3.21.21-6.5.32-9.81.05-1.66.1-3.33.16-5s.11-3.39.33-5.09a19.1 19.1 0 011.26-5 11.992 11.992 0 013-4.31 7.853 7.853 0 014.89-2.09 6.936 6.936 0 015 2 5.187 5.187 0 011.39 2.41c.203.906.244 1.84.12 2.76a9.573 9.573 0 000 2.63 2.995 2.995 0 001.26 2.08 2.348 2.348 0 002.36-.11 9.688 9.688 0 002.09-1.66 31.686 31.686 0 003.52-4.2 109.149 109.149 0 005.71-9.62 45.506 45.506 0 016.53-9.39 18.825 18.825 0 0110-5.77 11.768 11.768 0 0110.9 3.59 9.004 9.004 0 012.3 5.47 12.007 12.007 0 01-1.23 5.78c-1.68 3.58-4.35 6.48-7 9.27a73.753 73.753 0 01-13.14 10.86 6.72 6.72 0 00-2 1.76 2.755 2.755 0 00-.3 2.45 5.618 5.618 0 003.9 3.27c1.766.411 3.567.655 5.38.73a12.31 12.31 0 015.28 1.5 6.177 6.177 0 012 1.91c.509.795.79 1.716.81 2.66a7.874 7.874 0 01-2.09 5 21.27 21.27 0 01-4 3.53 63.714 63.714 0 01-18.19 9.29 34.224 34.224 0 00-4.62 1.66 8.447 8.447 0 00-3.63 3 5.416 5.416 0 00-.89 4.38 4.562 4.562 0 003.11 3 7.997 7.997 0 004.47.11 31.232 31.232 0 004.29-1.51 16.318 16.318 0 018.81-1.42c1.47.189 2.885.686 4.15 1.46a8.092 8.092 0 012.93 3.16 10.826 10.826 0 01.38 8.2 20.68 20.68 0 01-4.08 6.8 65.85 65.85 0 01-22 16.74 59.73 59.73 0 01-10.79 3.72 53.883 53.883 0 01-9.48 1.49 38.617 38.617 0 01-13.16-1.44 33.54 33.54 0 01-3.27-1.11l-1.07-.59z" fill="#263238"/><path d="M368.391 393.45a295.083 295.083 0 0112.91-31.24c1.28-2.7 2.55-5.38 3.81-8 1.26-2.62 2.49-5.23 3.87-7.71a148.108 148.108 0 018.71-13.76c3-4.24 6-8.16 8.79-11.8 2.79-3.64 5.52-7 8.11-9.92a117.176 117.176 0 0113.24-12.95c1.68-1.4 3-2.45 3.93-3.14l1.05-.79a2.45 2.45 0 01.37-.25l-.33.3-1 .83c-.89.73-2.2 1.8-3.86 3.23a124.157 124.157 0 00-13.07 13.06c-2.56 2.95-5.23 6.3-8 9.94-2.77 3.64-5.76 7.58-8.73 11.82a148.956 148.956 0 00-8.64 13.72c-1.37 2.46-2.6 5.05-3.85 7.68l-3.8 8a299.467 299.467 0 00-12.93 31.16" fill="#263238"/><path d="M389.15 346.48a6.923 6.923 0 01-.26-1.42c-.14-.91-.3-2.24-.46-3.89-.34-3.29-.65-7.84-1-12.87-.35-5.03-.7-9.57-1.08-12.84-.19-1.64-.36-3-.49-3.88a5.63 5.63 0 01-.12-1.43c.165.45.286.916.36 1.39.19.91.42 2.23.67 3.86.5 3.27.94 7.83 1.26 12.86.32 5.03.59 9.45.8 12.88.11 1.54.2 2.85.27 3.9.069.477.085.96.05 1.44z" fill="#263238"/><path d="M431.691 340.22a8.863 8.863 0 01-1.69.13c-1.09.06-2.66.13-4.61.28-3.88.27-9.23.82-15.11 1.7-5.21.78-10.28 1.71-15 2.76-1.9.42-3.43.79-4.49 1a9.608 9.608 0 01-1.67.35 7.876 7.876 0 011.61-.58c1-.32 2.56-.76 4.46-1.23 3.78-1 9.08-2.06 15-2.95a148.552 148.552 0 0115.18-1.52c1.95-.1 3.53-.1 4.62-.08.57-.015 1.14.032 1.7.14zm-62.751 52.47a2.09 2.09 0 01-.27-.52l-.66-1.56c-.57-1.35-1.35-3.33-2.27-5.79-1.85-4.92-4.19-11.79-6.67-19.41-2.48-7.62-4.76-14.51-6.51-19.45-.85-2.41-1.56-4.39-2.08-5.86-.22-.64-.41-1.16-.56-1.6a2.26 2.26 0 01-.16-.57c.117.162.208.34.27.53l.67 1.55c.57 1.36 1.34 3.34 2.26 5.8 1.85 4.91 4.2 11.79 6.68 19.41 2.48 7.62 5.75 15.6 7.5 20.55.85 2.41.56 3.28 1.08 4.75.23.64.41 1.17.56 1.6.077.183.13.374.16.57zm56.821-15.91a2.535 2.535 0 01-.57.21l-1.65.48-6.08 1.71c-5.14 1.45-12.21 3.54-20 5.85-7.31 2.16-14.11 4.12-20.08 5.67-2.58.68-4.68 1.2-6.14 1.53l-1.68.37c-.192.057-.39.087-.59.09.179-.095.371-.166.57-.21l1.65-.48 6.08-1.71c5.14-1.45 12.21-3.54 20-5.85 7.79-2.31 14.91-4.33 20.08-5.67 2.58-.68 4.68-1.2 6.13-1.53l1.68-.37c.195-.057.397-.087.6-.09z" fill="#263238"/><path d="M260.781 162.41s-.58-2.78-1.55-10.82l-8.84-17.33s2-3.63 6.51 4.05c2.08 3.5 9 2 7.88-3.46s-8.28-8-12.66-2.56c0 0-2.83.29-3.16-1.92-.33-2.21 6.06-7.67 11.5-6.08a16.495 16.495 0 016 3.4s-1.18-18.22.3-18.38c1.48-.16 3.53 1 4.65 20.93 0 0 .62-15.77.93-17.78.31-2.01 3-3.37 3.36 1.68 0 .56 1 16.06 1 16.06s1.77-10.25 2-11.07c.5-2.16 2.63-1.93 2.84.93.15 2.17.85 11.43.85 11.43l1.34 28.51h.18" fill="#FFBE9D"/><path d="M289.06 153l-33.2-.86-3.3 80.34L215 216l-.06.13c-2.26-1-4.23-1.9-5.28-2.48-20.75-11.31-34.37-12.69-56.64-4.74l-42.66 17.08c-8.26 3.89-29.75 7.48-37.12 41.46l-1 4.06L106.38 296l23.41 61.7 28 61.76 64.45-2.09 33.68-42-28.58-54.59-17.76-61.14c12.55 8.33 35.84 19.67 63.73 13.76C303.56 267 289.06 153 289.06 153z" fill="#DC3001"/><path d="M129.57 357.07A65.36 65.36 0 00146 364.2c3.14.94 6.74 1.63 9.53-.09 2.79-1.72 3.22-6.81.1-7.83l27.05-6.11c-3.67-10.56 2.38-22.61 11.53-29 9.15-6.39 19.55-8.25 30.69-9.22l13.49 41.85-45.09 61.5-36.92 1.07-26.81-59.3z" fill="#000" opacity=".3"/><path d="M115.421 299.26s-16.91 37-13 55.44c2.16 10.32 35.93 19.13 57.45 21.76l-6.45 36.12s-80-7.61-94.95-39.28c-8.5-18 .11-62 16.3-111.8l40.65 37.76z" fill="#DC3001"/><path d="M192.441 342.59a2.91 2.91 0 01-.57.31l-1.69.78c-1.47.68-3.62 1.61-6.29 2.73-5.34 2.22-12.82 5.08-21.23 7.78s-16.16 4.72-21.8 6c-2.82.65-5.11 1.14-6.7 1.44l-1.83.34a2.554 2.554 0 01-.64.09c.199-.087.407-.15.62-.19l1.81-.44c1.58-.36 3.85-.91 6.66-1.6a343.7 343.7 0 0021.72-6.16c8.4-2.69 15.88-5.49 21.25-7.63 2.69-1.06 4.85-1.94 6.35-2.56l1.72-.7c.2-.085.408-.149.62-.19zm22.269-127.78c0 .13-31.47 11.56-70.39 25.52-38.92 13.96-70.53 25.17-70.58 25-.05-.17 31.47-11.56 70.4-25.52 38.93-13.96 70.52-25.14 70.57-25z" fill="#fff"/><path d="M107.202 318a.921.921 0 01.08-.22l.26-.62 1-2.39c.88-2.08 2.13-5.11 3.4-8.94a68.412 68.412 0 003.06-13.83 46.25 46.25 0 00-1.24-17.15 33.742 33.742 0 00-8.34-14.91 29.008 29.008 0 00-11.95-7.21 25.002 25.002 0 00-9.41-1l-1.49.19c-.43.06-.78.15-1.08.2l-.66.13h-.23s.07 0 .21-.07l.66-.18c.29-.07.65-.18 1.08-.26l1.49-.23a24.265 24.265 0 019.53.85 28.955 28.955 0 0112.19 7.22 34.003 34.003 0 018.5 15.11 46.207 46.207 0 011.22 17.34 67.264 67.264 0 01-3.2 13.87 98.67 98.67 0 01-3.56 8.9c-.48 1-.86 1.82-1.13 2.35l-.31.61c-.03.15-.07.24-.08.24zm80.35-111.52c.199.06.391.144.57.25.537.267 1.055.571 1.55.91a21.166 21.166 0 014.83 4.51c2 2.607 3.598 5.499 4.74 8.58a112.915 112.915 0 013.47 11.47l5.57 21 1.62 6.39.42 1.74c.062.201.099.41.11.62a2.693 2.693 0 01-.21-.59c-.13-.45-.3-1-.51-1.72l-1.79-6.34-5.71-21c-1.1-4.1-2.11-8-3.42-11.44a33.562 33.562 0 00-4.58-8.52 22.334 22.334 0 00-4.65-4.57c-1.26-.86-2.04-1.25-2.01-1.29z" fill="#263238"/><path d="M242.85 228l-.44.21-1.33.58-5.08 2.14c-4.44 1.88-10.89 4.54-18.87 7.8-16 6.51-38.1 15.3-62.71 24.58-24.61 9.28-47 17.31-63.33 23-8.14 2.83-14.74 5.08-19.31 6.61l-5.27 1.75-1.37.44-.48.14.46-.19 1.36-.49 5.23-1.84 19.26-6.77a3292.18 3292.18 0 0063.27-23.1c24.62-9.28 46.76-18 62.75-24.44l18.93-7.64 5.15-2.08 1.35-.53.43-.17zm-29.279 39.87l-.38.18-1.14.49-4.41 1.83c-3.83 1.59-9.39 3.82-16.29 6.53-13.8 5.41-33 12.6-54.37 19.92-21.37 7.32-41 13.37-55.19 17.54-7.11 2.08-12.88 3.72-16.88 4.81l-4.6 1.25-1.2.31c-.133.043-.27.073-.41.09a2.59 2.59 0 01.39-.14l1.19-.36 4.58-1.32c4-1.15 9.73-2.85 16.83-5a1544.08 1544.08 0 0055.12-17.67c21.39-7.31 40.58-14.45 54.41-19.78 6.91-2.66 12.49-4.84 16.34-6.37l4.45-1.74 1.16-.44.4-.13zm78.181-34.62a4.447 4.447 0 01-.58.5l-1.75 1.36c-.76.59-1.7 1.3-2.81 2.09-1.11.79-2.36 1.72-3.79 2.67-2.83 1.95-6.28 4.16-10.19 6.48-3.91 2.32-8.31 4.71-13 7-4.69 2.29-9.31 4.28-13.53 6-4.22 1.72-8.1 3-11.38 4.05-1.63.54-3.13 1-4.44 1.35-1.31.35-2.44.7-3.37.93l-2.15.55c-.246.07-.497.121-.75.15.231-.108.472-.195.72-.26l2.12-.63c.92-.27 2-.6 3.35-1s2.78-.85 4.4-1.42c3.26-1.08 7.1-2.48 11.32-4.15 4.22-1.67 8.78-3.69 13.48-6 4.7-2.31 9.08-4.69 13-7 3.92-2.31 7.37-4.47 10.22-6.38 1.44-.93 2.7-1.83 3.83-2.6s2.08-1.45 2.86-2l1.8-1.28c.2-.157.414-.294.64-.41zm1.559-26.68c.05.14-9.13 3.83-20.5 8.25s-20.64 7.89-20.69 7.75c-.05-.14 9.12-3.82 20.5-8.24s20.64-7.89 20.69-7.76zm-2.02-24.88c0 .14-8 2.55-18 5.38s-18.11 5-18.15 4.87c-.04-.13 8-2.54 18-5.37s18.11-5.02 18.15-4.88zm-1.761-24.34c0 .14-7.77 2-17.42 4.09-9.65 2.09-17.49 3.73-17.52 3.59-.03-.14 7.76-2 17.41-4.09s17.49-3.73 17.53-3.59zM219.871 295.4c0 .13-22.2 9-49.69 19.86s-49.83 19.52-49.88 19.39c-.05-.13 22.19-9 49.69-19.87 27.5-10.87 49.83-19.52 49.88-19.38zm-117.64 44.03c-.141.09-.292.164-.45.22l-1.34.55c-1.17.46-2.87 1.11-5 1.89-4.22 1.56-10.09 3.61-16.63 5.69-6.54 2.08-12.52 3.81-16.86 5-2.17.58-3.94 1-5.16 1.34l-1.41.33c-.162.052-.33.079-.5.08.147-.081.306-.142.47-.18l1.39-.43 5.11-1.5c4.31-1.26 10.26-3 16.8-5.12 6.54-2.12 12.41-4.08 16.66-5.55l5-1.73 1.37-.46c.174-.076.36-.12.55-.13zm11.869 25.34c.06.13-10.72 4.63-24.07 10.05-13.35 5.42-24.23 9.71-24.28 9.58-.05-.13 10.72-4.64 24.08-10.06 13.36-5.42 24.22-9.71 24.27-9.57zm19.632 7c.11.1-5.94 7.26-13.5 16s-13.79 15.75-13.9 15.66c-.11-.09 5.94-7.26 13.5-16s13.79-15.75 13.9-15.66zm20.07 5.1c.14.05-2.29 7.67-5.42 17s-5.78 16.91-5.91 16.86c-.13-.05 2.29-7.66 5.42-17s5.77-16.91 5.91-16.86zM285 264.35c.06.13-5.69 2.51-12.84 5.31-7.15 2.8-13 4.95-13 4.82 0-.13 5.7-2.51 12.85-5.31 7.15-2.8 12.93-4.96 12.99-4.82z" fill="#fff"/><path d="M199.65 222.57c9.28 25.13 26 39.18 49.61 51.78a87.064 87.064 0 01-39-14.29" fill="#000" opacity=".3"/><path d="M191.24 423h178.13v-76.1a25.798 25.798 0 00-15.93-23.854 25.809 25.809 0 00-9.88-1.966h-126.5a25.82 25.82 0 00-25.82 25.82V423z" fill="#455A64"/><path d="M214.33 321.08h28.3a10.457 10.457 0 0110.46 10.46v90.13c0 .353-.14.691-.39.94-.249.25-.587.39-.94.39h-59.18c-.353 0-.691-.14-.94-.39a1.326 1.326 0 01-.39-.94v-77.5a23.091 23.091 0 0123.08-23.09z" fill="#455A64"/><path d="M204.38 423v-76.21a25.707 25.707 0 0125.7-25.71h-18.32s-21.51 2.86-21.51 29.78.69 72.14.69 72.14h13.44z" fill="#263238"/><path d="M253.091 415.76h-149.45v8.48h149.45v-8.48z" fill="#263238"/><path d="M375.192 415.76h-122.1v8.48h122.1v-8.48z" fill="#455A64"/><path d="M253.091 420c-.013-.1-.013-.2 0-.3v-16.94c.05-10.69.13-25.38.22-41.62 0-4.06.13-8-.12-11.84a42.533 42.533 0 00-1.92-10.78 24.943 24.943 0 00-23.45-17.21 17.341 17.341 0 00-2 .05c-.482.018-.963.065-1.44.14l-.88.12h-.31l.3-.07.88-.17c.475-.096.957-.16 1.44-.19a14.692 14.692 0 012-.1 25.001 25.001 0 0112.16 3.09 24.164 24.164 0 0111.75 14.16 43.278 43.278 0 012 10.91c.25 3.84.17 7.82.13 11.88-.15 16.23-.28 30.93-.38 41.61-.07 5.3-.13 9.6-.17 12.62 0 1.46-.06 2.61-.07 3.43v.89a1.652 1.652 0 01-.14.32z" fill="#263238"/><path d="M374.351 415.55c0 .14-27.82.31-62.12.37s-62.12 0-62.12-.16 27.8-.31 62.12-.37c34.32-.06 62.12.02 62.12.16zm.001 9.03c0 .14-27.62.18-61.67.09s-61.68-.28-61.67-.43c.01-.15 27.6-.18 61.67-.09s61.67.28 61.67.43zm-16.082-18.5v-5.41c0-3.51-.05-8.62-.08-15.08l.15.16-79.93.1c.11-.11-.27.26.25-.26v20.5l-.26-.25 57 .11 16.81.07h6.13a2.41 2.41 0 01-.38 0h-5.63l-16.75.07-57.18.12h-.25v-20.76c.52-.52.15-.14.27-.26l79.93.1h.16v.16c0 6.5-.07 11.64-.09 15.18v5a1.875 1.875 0 01-.15.45z" fill="#263238"/><path d="M313.13 390.85V400h-.93v-7.3l-3.58 6.14h-.46l-3.58-6.1V400h-.92v-9.12h.79l4 6.76 3.92-6.76.76-.03zm8.691 6.68h-5.08l-1.1 2.44h-1l4.17-9.12h.95l4.17 9.12h-1l-1.11-2.44zm-.35-.78l-2.19-4.9-2.19 4.9h4.38zm3.97-5.9h1V400h-1v-9.15zm3.94 0h1v8.28h5.11v.87h-6.07l-.04-9.15z" fill="#263238"/><path d="M348 300.22v-15h-28v60.14a11.883 11.883 0 00-5.371 13.519 11.876 11.876 0 0011.745 8.584 11.882 11.882 0 0010.45-16.868 11.886 11.886 0 00-5.314-5.555v-44.82H348z" fill="#DC3001"/><path d="M326.342 359.98a4.58 4.58 0 10-.001-9.161 4.58 4.58 0 00.001 9.161zm-172.051-150.7c.103.196.19.4.26.61.233.598.43 1.209.59 1.83a22.68 22.68 0 01.68 7 23.151 23.151 0 01-2.91 10 20.891 20.891 0 01-9.35 8.63 19.682 19.682 0 01-12.62 1.5 20.992 20.992 0 01-9.25-4.8 21.4 21.4 0 01-4.41-5.51 15.892 15.892 0 01-.84-1.72 2.765 2.765 0 01-.23-.63c.06 0 .39.84 1.25 2.25a22.2 22.2 0 004.47 5.33 20.845 20.845 0 009.11 4.61c4.155.86 8.477.33 12.3-1.51a20.62 20.62 0 009.16-8.39 23.197 23.197 0 002.95-9.81 23.526 23.526 0 00-.51-6.94c-.36-1.58-.71-2.43-.65-2.45z" fill="#263238"/><path d="M239.41 364.08l13.65-.18-.53 46.37-12.67.5-.45-46.69z" fill="#EBEBEB"/><path d="M239.861 410.77a81.432 81.432 0 016-6.91 80.058 80.058 0 016.44-6.56 84.591 84.591 0 01-6.06 6.91 82.64 82.64 0 01-6.38 6.56zm13.201-31.25a101.995 101.995 0 01-7-7.42 98.18 98.18 0 01-6.63-7.76 99.725 99.725 0 017 7.42 101.026 101.026 0 016.63 7.76zM137.151 160.7a3.597 3.597 0 002.18 3.309 3.608 3.608 0 003.9-.699c1.93-1.83 1.27-5.05.07-7.43s-2.86-4.79-2.51-7.42c.27-2 1.67-3.67 2.61-5.48a11.468 11.468 0 00.25-10.24 9.675 9.675 0 00-8.55-5.35c-3.61.07-7.42 2.33-10.63.67-2.33-1.21-3.3-4-5.33-5.72-3.13-2.59-7.86-1.73-11.57 0s-7.26 4.12-11.33 4.32c-3.39.16-6.65-1.26-10-1.72a17.816 17.816 0 00-18.289 9.627A17.82 17.82 0 0071.061 155a11.368 11.368 0 006.87 3.64" fill="#263238"/><path d="M141.681 237.12a20.237 20.237 0 01-25.54-12.83c-2-6.06-3.71-11.16-3.71-11.16s-16.1 2.46-21.14-12.83c-5.04-15.29-13-49.31-13-49.31l-.49-2.06c15.36-13.25 37.2-15.46 56.25-8.51l1 3.17 20 69.31a20.241 20.241 0 01-13.37 24.22z" fill="#FFBE9D"/><path d="M91.762 173.54a2.36 2.36 0 00-1.16-4.25 2.163 2.163 0 00-1.59.44 2.361 2.361 0 001.996 4.2c.274-.079.53-.212.754-.39z" fill="#263238"/><path d="M85.371 171.62c.33.19 1.47-1.45 3.58-2.13 2.11-.68 4-.07 4.13-.41.08-.16-.31-.56-1.14-.86a5.456 5.456 0 00-6.16 2c-.49.78-.56 1.32-.41 1.4zm25.801-6.62c-.303.35-.495.782-.553 1.241a2.345 2.345 0 001.167 2.324 2.336 2.336 0 003.377-1.298 2.348 2.348 0 00-.691-2.507 2.352 2.352 0 00-3.3.24z" fill="#263238"/><path d="M108.371 166.47c.32.19 1.46-1.44 3.57-2.12 2.11-.68 4-.07 4.14-.42.08-.15-.31-.56-1.14-.85a5.455 5.455 0 00-6.16 2c-.49.76-.57 1.31-.41 1.39zm-2.971 20.12c0-.16-1.43 0-3.64.38-.57.12-1.06.14-1.21-.17a3.004 3.004 0 01-.11-1.72c.1-1.56.2-3.16.31-4.83.37-6.85.41-12.41.09-12.43-.32-.02-.9 5.52-1.28 12.37-.08 1.67-.15 3.26-.22 4.83a3.65 3.65 0 00.42 2.37 1.466 1.466 0 001.2.57c.34-.009.676-.067 1-.17 2.15-.59 3.47-1.04 3.44-1.2z" fill="#263238"/><path d="M113.002 186.76c1.79-2-5 5.13-9.41 6.28a6.115 6.115 0 007.63.15c4.06-3.13 1.78-6.43 1.78-6.43z" fill="#fff"/><path d="M112.342 212.92a37.45 37.45 0 0018.21-12s-1.24 12.54-17 16l-1.21-4z" fill="#EB996E"/><path d="M137.271 154.07c.31-.22 11.17-4.48 13.42 9.05 2.25 13.53-12.16 11.31-12.25 10.93-.09-.38-1.17-19.98-1.17-19.98z" fill="#FFBE9D"/><path d="M141.802 168.62c0-.06.26.12.69.24.601.143 1.234.05 1.77-.26 1.34-.76 2.16-3.23 1.83-5.67a8.002 8.002 0 00-1.22-3.27 2.767 2.767 0 00-2.08-1.51 1.209 1.209 0 00-1.28.88c-.12.4 0 .66 0 .69 0 .03-.33-.17-.32-.75.025-.349.166-.68.4-.94.325-.34.769-.541 1.24-.56a3.366 3.366 0 012.81 1.69 8.175 8.175 0 011.36 3.64c.37 2.73-.6 5.52-2.46 6.4a2.53 2.53 0 01-2.22 0c-.44-.26-.56-.55-.52-.58z" fill="#EB996E"/><path d="M76.531 158.41s10.61 1.91 21.08-7.57c6.86-6.22 15.62-10.78 18.13-9.75 2.51 1.03 5.23 9.14 13.82 9.32 0 0 3.85 15.85 9.95 13.54 6.1-2.31-4.62-25.53-4.62-25.53l-17.21-6.31-17.59 1.53-17.86 7.21-8.7 9.28 3 8.28zM132.332 125a16.497 16.497 0 00-3.26 1.65 16.015 16.015 0 00-2.47 2.7 6.047 6.047 0 015.73-4.35zm-8.171-4.39c.321.391.565.838.72 1.32.478 1.12.814 2.296 1 3.5a10.17 10.17 0 01-.1 3.64 3.187 3.187 0 01-.52 1.42 20.86 20.86 0 00.1-5c-.42-2.72-1.36-4.82-1.2-4.88z" fill="#263238"/><path d="M165.262 363.38l69.25-12.88 10.35 46.8-71.92 12.14-7.68-46.06z" fill="#DC3001"/><path d="M234.512 350.5s0 .07-.12.19l-.39.55-1.54 2.06-5.76 7.53c-4.94 6.38-11.72 15.15-19.27 24.89l-.13.17-.19-.1-1.35-.71-28.69-15.25-8.66-4.68-2.35-1.29-.6-.35a.933.933 0 01-.2-.14l.22.09.63.3 2.39 1.24c2.11 1.09 5.08 2.64 8.75 4.53l28.75 15.09 1.34.71-.33.07 19.39-24.79 5.89-7.44c.69-.84 1.23-1.51 1.62-2 .18-.2.32-.37.43-.51l.17-.16z" fill="#263238"/><path d="M172.942 409.44c-.12-.08 4.33-7.14 9.95-15.77 5.62-8.63 10.26-15.57 10.38-15.49.12.08-4.33 7.14-10 15.77-5.67 8.63-10.21 15.57-10.33 15.49zm71.919-12.14c-.09.11-6.57-4.85-14.47-11.08s-14.23-11.37-14.14-11.48c.09-.11 6.56 4.84 14.47 11.07 7.91 6.23 14.28 11.37 14.14 11.49z" fill="#263238"/><path d="M167.081 373.82s.49 9.07 4.86 9c4.37-.07 19.79-8.49 21.58-5.57 1.79 2.92-2.94 7-2.94 7s5.43-.08 3.41 3.17c-2.02 3.25-8.07 18.47-13.66 19.9-8 2.05-26.53 2.85-26.53 2.85l5.71-31.87 7.57-4.48z" fill="#FFBE9D"/><path d="M192.26 382.28a3.696 3.696 0 01-.58.65c-.4.39-1 .94-1.76 1.58a49.559 49.559 0 01-13.35 8c-.93.37-1.69.64-2.22.81a3.01 3.01 0 01-.85.21 26.556 26.556 0 012.93-1.36 66.374 66.374 0 0013.26-8 25.645 25.645 0 012.57-1.89zm-.259 8.98a9.926 9.926 0 01-1.59 2.28 25.538 25.538 0 01-11 7.58c-.864.352-1.773.584-2.7.69a23.925 23.925 0 012.57-1 30.004 30.004 0 0010.81-7.48c.6-.723 1.238-1.414 1.91-2.07z" fill="#EB996E"/></svg>