<svg width="615" height="410" fill="none" xmlns="http://www.w3.org/2000/svg"><path d="M364.416 358.529a839.496 839.496 0 00-98.4-.73l-1.5.631c13.792 8.356 31.16 6.134 47.174 8.266 9.635 1.287 19.016 4.239 28.7 5.018 9.684.779 20.205-.967 27.183-7.724a3.826 3.826 0 001.452-2.624c-.025-1.993-2.616-2.706-4.609-2.837zm176.318 9.331c-3.075-1.787-6.765-2.074-10.315-2.32l-19.467-1.337c-5.314-.369-10.759-.722-15.867.754-5.109 1.476-9.93 5.199-11.177 10.373v.173c9.225 1.886 18.491 3.788 27.88 4.28 9.389.492 19.032-.476 27.708-4.1 1.829-.771 3.862-2.017 3.944-4.002.041-1.656-1.295-3.009-2.706-3.821zm-375.093-10.438c-3.083-1.788-6.773-2.075-10.324-2.321l-19.467-1.337c-5.305-.369-10.75-.721-15.867.763-5.117 1.484-9.922 5.191-11.176 10.365v.172c9.225 1.894 18.491 3.788 27.88 4.28 9.389.492 19.024-.475 27.699-4.1 1.829-.77 3.862-2.025 3.944-4.001.058-1.657-1.287-3.001-2.689-3.821z" fill="#F5F5F5"/><path d="M580.183 348.426c0 .123-123.394.213-275.578.213-152.183 0-275.593-.09-275.593-.213s123.361-.213 275.593-.213c152.233 0 275.578.098 275.578.213z" fill="#263238"/><path d="M227.066 226.213v23.206h-52.619v99.032h-25.494v-228.78h90.864v23.198h-65.37v83.344h52.619zm37.662 76.154l-8.823 46.084h-23.526l43.788-228.78h36.9l43.796 228.78h-25.461l-8.823-46.084h-57.851zm3.28-21.894h50.971L293.165 148.42l-25.157 132.053zm204.795-105.567v118.31c0 14.054-2.936 26.469-8.823 35.62 2.616 5.56 6.863 7.192 14.055 7.192h3.28v22.55h-4.248c-14.383 0-23.862-5.224-29.094-14.703-7.191 4.248-16.662 6.864-27.781 6.864-34.965 0-52.292-22.878-52.292-57.523v-118.31c0-34.973 17.327-57.523 52.292-57.523 35.293 0 52.611 22.55 52.611 57.523zm-79.745-1.312v120.925c0 20.919 8.823 33.014 27.126 33.014 18.63 0 27.133-12.095 27.133-33.014V173.594c0-20.59-8.503-33.005-27.133-33.005-18.303 0-27.126 12.415-27.126 33.005z" fill="#DC3001"/><path d="M227.066 226.213v23.206h-52.619v99.032h-25.494v-228.78h90.864v23.198h-65.37v83.344h52.619zm37.664 76.154l-8.823 46.084h-23.526l43.788-228.78h36.9l43.796 228.78h-25.461l-8.823-46.084H264.73zm3.28-21.894h50.971L293.167 148.42 268.01 280.473zm204.793-105.567v118.31c0 14.054-2.936 26.469-8.823 35.62 2.616 5.56 6.863 7.192 14.055 7.192h3.28v22.55h-4.248c-14.383 0-23.862-5.224-29.094-14.703-7.191 4.248-16.662 6.864-27.781 6.864-34.965 0-52.292-22.878-52.292-57.523v-118.31c0-34.973 17.327-57.523 52.292-57.523 35.293 0 52.611 22.55 52.611 57.523zm-79.745-1.312v120.925c0 20.919 8.823 33.014 27.126 33.014 18.63 0 27.133-12.095 27.133-33.014V173.594c0-20.59-8.503-33.005-27.133-33.005-18.303 0-27.126 12.415-27.126 33.005z" opacity=".3" fill="#000"/><path d="M248.894 302.367l-8.823 46.084h-23.534l43.796-228.78h36.9l43.797 228.78h-25.462l-8.823-46.084h-57.851zm3.28-21.894h50.988l-25.83-132.053-25.158 132.053zM216.75 226.32v23.206h-52.619v99.056h-25.494v-228.78h90.856v23.206h-65.362v83.312h52.619zm240.219-51.66v118.334c0 14.055-2.944 26.478-8.824 35.629 2.616 5.552 6.864 7.192 14.055 7.192h3.28v22.525h-4.247c-14.383 0-23.862-5.232-29.086-14.711-7.191 4.248-16.67 6.864-27.781 6.864-34.973 0-52.292-22.878-52.292-57.523V174.66c0-34.973 17.319-57.523 52.292-57.523 35.276.025 52.603 22.575 52.603 57.523zm-79.77-1.279v120.925c0 20.918 8.823 33.005 27.126 33.005 18.63 0 27.125-12.087 27.125-33.005V173.381c0-20.59-8.495-33.013-27.125-33.013-18.278 0-27.126 12.423-27.126 33.013z" fill="#DC3001"/><path d="M372.099 94.53H245.253a13.006 13.006 0 01-13.005-13.006 13.003 13.003 0 0113.005-12.997h126.846a13.003 13.003 0 0113.005 12.997 13.005 13.005 0 01-13.005 13.006z" fill="#F5F5F5"/><path d="M245.253 68.527a13.005 13.005 0 00-13.005 12.997 13.005 13.005 0 0013.005 13.006h22.394V68.527h-22.394z" fill="#DC3001"/><path d="M248.213 86.666a5.738 5.738 0 01-5.63-6.86 5.735 5.735 0 014.51-4.51 5.74 5.74 0 111.12 11.37zm0-10.873a5.132 5.132 0 00-3.583 8.777 5.136 5.136 0 007.89-.802 5.14 5.14 0 00.859-2.85 5.137 5.137 0 00-1.521-3.634 5.137 5.137 0 00-3.645-1.491z" fill="#fff"/><path d="M252.901 83.73l-.381.483 4.415 3.486.381-.483-4.415-3.485z" fill="#fff"/><path d="M372.099 94.53l.869-.066a5.518 5.518 0 001.05-.123l.681-.107.762-.196a12.616 12.616 0 003.731-1.69 12.828 12.828 0 003.871-3.993 13.145 13.145 0 001.377-3.026c.346-1.178.533-2.397.558-3.624a13.61 13.61 0 00-.566-3.944 13.126 13.126 0 00-1.943-3.838 12.91 12.91 0 00-7.881-5.043 27.297 27.297 0 00-5.223-.238h-5.56l-118.563.066a12.783 12.783 0 00-6.601 23.78 12.44 12.44 0 003.69 1.5c1.302.284 2.636.4 3.968.345h23.362l53.3.049 35.933.066h13.136-13.136l-35.933.065h-76.662a17.034 17.034 0 01-4.059-.352 12.606 12.606 0 01-3.821-1.558 13.214 13.214 0 01-5.897-14.85 13.214 13.214 0 0112.72-9.669l118.563.058h5.56a27.48 27.48 0 015.281.262 13.12 13.12 0 018.011 5.396 13.492 13.492 0 011.968 3.911 13.8 13.8 0 01.558 4.018 14.25 14.25 0 01-.582 3.674 13.637 13.637 0 01-1.419 3.059 12.879 12.879 0 01-3.944 4.01 12.304 12.304 0 01-3.78 1.64l-.738.188-.681.098a6.366 6.366 0 01-1.066.107l-.894.025z" fill="#263238"/><path d="M101.5 52.406H54.219V98.22h16.22l8.175 9.102 6.748-9.102H101.5V52.406z" fill="#fff"/><path d="M101.5 52.406v3.28c0 2.14 0 5.265.041 9.25 0 8.02.049 19.491.082 33.325v.164h-16.26l.139-.066-6.74 9.061-.132.18-.156-.164c-2.6-2.902-5.362-5.969-8.2-9.102l.14.066h-16.4V52.234h.164l34.35.082h12.897-3.427l-9.537.164-34.243.082.164-.164v45.813l-.189-.188H70.52l.05.065 8.2 9.102h-.287l6.756-9.102.05-.065h16.227l-.164.164c0-13.793.066-25.223.082-33.218V53.218c0-.574.066-.812.066-.812z" fill="#263238"/><path d="M70.085 69.577h4.206a3.574 3.574 0 013.666-3.592 3.395 3.395 0 013.28 2.173 3.765 3.765 0 01-.295 3.403c-.714 1.173-2.28 2.239-5.109 1.747v9.512h4.157v-5.592a8.117 8.117 0 005.822-7.93c0-6.142-5.51-7.568-7.863-7.568-1.796 0-7.946.434-7.864 7.847zm9.964 15.153h-4.215v3.937h4.215V84.73z" fill="#DC3001"/><path d="M522.125 204.59c7.519 3.895 13.284 10.594 17.425 17.983 4.141 7.388 6.822 15.481 9.463 23.525l2.32 41.476c-8.749-14.883-15.768-32.374-17.671-49.536l5.822-.517c-3.903-.598-7.175-3.427-9.266-6.773-2.091-3.346-3.157-7.224-4.198-11.029l7.101 1.058a26.348 26.348 0 01-10.996-16.187z" fill="#455A64"/><path d="M522.125 204.59c7.519 3.895 13.284 10.594 17.425 17.983 4.141 7.388 6.822 15.481 9.463 23.525l2.32 41.476c-8.749-14.883-15.768-32.374-17.671-49.536l5.822-.517c-3.903-.598-7.175-3.427-9.266-6.773-2.091-3.346-3.157-7.224-4.198-11.029l7.101 1.058a26.348 26.348 0 01-10.996-16.187z" fill="#000" opacity=".3"/><path d="M552.631 297.291s18.983-22.722 18.761-44.419h-7.667s8.331-5.478 7.675-8.545c-.656-3.067-.885-14.686-.885-14.686l-7.011 1.755s5.264-2.632 5.92-6.79c.656-4.157-1.533-23.452-1.533-23.452s-8.545 9.02-11.177 18.188c-2.632 9.167-9.536 19.942-7.503 47.994 2.034 28.053 3.42 29.955 3.42 29.955zm-9.627 2.148s-20.574-13.702-25.142-31.16l6.167-1.681s-7.897-2.583-8.036-5.19c-.14-2.608-2.509-11.997-2.509-11.997l6.018-.123s-4.805-.967-6.24-4.174c-1.435-3.206-3.895-19.188-3.895-19.188s8.873 5.314 12.973 12.153c4.1 6.839 12.021 13.94 16.531 36.941 4.51 23.001 4.133 24.419 4.133 24.419z" fill="#455A64"/><path d="M562.699 220.965a.921.921 0 010 .246c0 .181-.074.419-.131.706l-.533 2.714a209.698 209.698 0 00-.82 4.288c-.304 1.673-.697 3.584-1.066 5.691a425.897 425.897 0 00-2.46 14.859c-.82 5.6-1.64 11.783-2.46 18.286-.82 6.502-1.337 12.71-1.796 18.359-.459 5.65-.82 10.751-.992 15.031-.123 2.148-.189 4.1-.263 5.789a293.046 293.046 0 00-.164 4.363c-.032 1.197-.082 2.099-.106 2.763v.713c.009.082.009.165 0 .246a1.443 1.443 0 010-.246v-3.476c0-1.173 0-2.674.098-4.371.099-1.697.099-3.649.205-5.789.164-4.289.476-9.389.894-15.055.418-5.667 1.017-11.866 1.763-18.377.746-6.51 1.64-12.685 2.46-18.294.82-5.609 1.747-10.66 2.558-14.858.386-2.108.82-4.01 1.124-5.675.303-1.664.639-3.107.91-4.28s.459-2.05.607-2.698l.164-.697a1.054 1.054 0 01.008-.238z" fill="#263238"/><path d="M555.262 311.206s17.375-19.68 22.771-31.627l-4.1-1.747c2.952.492 5.978-.779 8.266-2.706 2.288-1.927 3.968-4.46 5.617-6.953l-5.363-.91a19.979 19.979 0 0011.726-9.078c-6.339 1.042-12.062 4.518-16.785 8.864A83.543 83.543 0 00567.25 278.8a40.35 40.35 0 00-3.911 6.56c-2.952 5.994-8.085 18.606-8.077 25.846z" fill="#455A64"/><path d="M517.584 237.374s.049.057.123.18l.295.558c.279.524.648 1.238 1.124 2.156.975 1.87 2.337 4.609 3.968 8.012 3.28 6.806 7.512 16.334 11.677 27.06 4.166 10.725 7.38 20.664 9.578 27.88 1.082 3.616 1.919 6.56 2.46 8.593l.623 2.345c.057.255.107.451.148.615a.862.862 0 01.041.214.912.912 0 01-.082-.197c-.05-.164-.115-.361-.189-.607-.172-.566-.402-1.345-.697-2.329-.59-2.025-1.468-4.92-2.591-8.544a439.07 439.07 0 00-9.684-27.831 442.342 442.342 0 00-11.554-27.101 470.923 470.923 0 00-3.838-8.069l-1.049-2.189-.263-.574c-.065-.099-.09-.172-.09-.172zm36.202 82.287a8.936 8.936 0 01.098-1.435c.091-.919.279-2.239.558-3.863a69.964 69.964 0 019.061-24.001 43.52 43.52 0 012.14-3.28c.257-.404.547-.786.869-1.14a9.565 9.565 0 01-.729 1.23 79.16 79.16 0 00-2.018 3.329 77.819 77.819 0 00-9.02 23.903c-.319 1.64-.549 2.92-.68 3.83a9.134 9.134 0 01-.279 1.427z" fill="#263238"/><path d="M568.891 315.019h-38.032v7.758h38.032v-7.758zm-3.625 7.758l-4.116 26.092h-22.976l-3.838-26.092h30.93z" fill="#DC3001"/><path d="M533.188 322.777c0-.115 7.199-.214 16.072-.214 8.872 0 16.063.099 16.063.214 0 .114-7.191.213-16.063.213-8.873 0-16.072-.099-16.072-.213z" fill="#263238"/><path d="M63.689 281.26a35.784 35.784 0 0134.112-9.364 62.1 62.1 0 01-34.514 10.783M75.26 240.26c-1.419-10.053 2.46-21.32 10.012-28.7.254 9.963-3.953 21.172-10.012 28.7zm-6.02 19.016a53.695 53.695 0 0124.658-23.559 33.899 33.899 0 01-24.748 23.665m-1.156 3.559c6.076.164 12.218-.049 18.09-1.64 5.87-1.591 11.48-4.543 15.399-9.192a60.488 60.488 0 00-33.423 10.242m3.016-11.48c-3.083-11.554-8.2-19.541-17.22-26.011a24.02 24.02 0 0017.22 26.011zm-22.918 19.918a17.106 17.106 0 0110.39-15.835c-.509 5.962-5.19 12.866-10.39 15.835zm-2.903-9.734a25.48 25.48 0 00-16.687-21.738c2.1 9.651 7.684 17.687 16.687 21.738zm4.378 17.278c-2.148-3.059-5.641-4.97-9.258-5.913-3.616-.943-7.38-1.033-11.127-1.107a26.026 26.026 0 0020.098 8.373m4.625 23.271a28.514 28.514 0 00-34.817 16.49c12.653-2.402 25.125-8.019 34.817-16.49zm13.875-8.577c-2.1 6.207-1.697 13.719 2.977 19.065a22.749 22.749 0 00-2.977-19.065zm8.209-3.428a23.333 23.333 0 0012.898 18.951 1.456 1.456 0 001.14.188c.574-.229.623-1.008.55-1.64-.91-7.962-6.806-15.654-14.588-17.523m5.353-.787a19.172 19.172 0 0027.987.147c-8.897-.976-19.164-1.64-27.987-.147z" fill="#455A64"/><path d="M82.745 219.03s0 .09-.082.254-.164.435-.27.755l-1.075 2.878a121.08 121.08 0 00-1.64 4.567c-.32.894-.664 1.854-1.033 2.862l-1.107 3.215c-1.574 4.501-3.329 9.913-5.215 15.932-1.886 6.019-3.805 12.686-5.74 19.68-1.935 6.995-3.567 13.768-4.994 19.91a366.157 366.157 0 00-3.435 16.4c-.222 1.172-.435 2.288-.632 3.345-.197 1.058-.352 2.059-.508 2.993-.328 1.87-.599 3.477-.82 4.797-.222 1.321-.353 2.329-.468 3.043-.049.328-.098.59-.13.82a2.37 2.37 0 01-.05.262c-.01-.09-.01-.181 0-.271l.098-.82c.099-.713.23-1.738.402-3.042.172-1.304.426-2.944.73-4.813.147-.935.311-1.935.484-3.001.172-1.066.393-2.173.607-3.346.82-4.707 2-10.275 3.37-16.4 1.37-6.125 3.075-12.899 4.969-19.934 1.894-7.036 3.879-13.686 5.74-19.68a408.04 408.04 0 015.289-15.925c.402-1.123.82-2.189 1.132-3.206.311-1.017.73-1.96 1.057-2.853a220.04 220.04 0 011.73-4.543c.5-1.263.82-2.19 1.132-2.862.123-.312.23-.558.303-.738a.891.891 0 01.156-.279z" fill="#263238"/><path d="M33.882 244.475s.057.041.148.139l.426.451c.377.394.91.984 1.582 1.771a62.197 62.197 0 015.24 6.979 47 47 0 015.462 11.717 113.908 113.908 0 013.28 15.507c1.812 11.094 4.034 21.024 5.641 28.216.82 3.575 1.46 6.47 1.919 8.503l.517 2.321.122.598a.597.597 0 010 .214 1.05 1.05 0 01-.065-.205l-.156-.599c-.14-.541-.328-1.312-.574-2.296l-1.984-8.487c-1.64-7.167-3.928-17.105-5.74-28.208a116.78 116.78 0 00-3.28-15.473 47.39 47.39 0 00-5.38-11.677 65.883 65.883 0 00-5.133-7.028c-.656-.82-1.18-1.394-1.533-1.804l-.402-.475c-.057-.107-.098-.164-.09-.164zm50.183 45.288a1.244 1.244 0 01-.32.058l-.918.106-.664.066-.82.115c-.566.082-1.214.164-1.91.32l-1.108.221-1.18.303c-.82.181-1.64.484-2.583.755a38.292 38.292 0 00-5.634 2.46 32.41 32.41 0 00-5.051 3.509 25.014 25.014 0 00-1.935 1.862 20.085 20.085 0 00-1.534 1.763 17.19 17.19 0 00-1.131 1.566c-.303.393-.577.806-.82 1.238l-.476.82a1.206 1.206 0 01-.18.271s0-.107.123-.304l.418-.82c.213-.44.457-.864.73-1.271a15.86 15.86 0 011.107-1.64 20 20 0 011.517-1.82 24.878 24.878 0 011.935-1.902 30.776 30.776 0 015.092-3.567 36.368 36.368 0 015.7-2.46c.918-.271 1.779-.558 2.607-.738l1.197-.279 1.123-.205c.706-.14 1.353-.205 1.927-.271l.82-.09h.665l.934-.041a1.18 1.18 0 01.37-.025zm2.535-45.075a4.367 4.367 0 01-.64.615l-1.828 1.591a614 614 0 01-6.126 5.141 578.777 578.777 0 01-6.19 5.068l-1.895 1.5a4.54 4.54 0 01-.73.517 4.38 4.38 0 01.64-.615l1.837-1.591a600.645 600.645 0 016.117-5.141 578.777 578.777 0 016.191-5.068l1.894-1.5a4.54 4.54 0 01.73-.517zm2.19 11.767c0 .09-4.65 1.55-10.431 3.28-5.781 1.73-10.504 3.026-10.529 2.936-.024-.091 4.641-1.55 10.43-3.28 5.79-1.731 10.505-3.026 10.53-2.936zm-17.245-4.715a3 3 0 01-.484-.664l-1.23-1.878a115.812 115.812 0 00-4.28-6.035c-1.747-2.296-3.444-4.289-4.69-5.74l-1.485-1.689a5.202 5.202 0 01-.517-.64c.227.157.434.342.615.549.386.369.919.927 1.567 1.64a81.667 81.667 0 014.78 5.675 74.23 74.23 0 014.207 6.109c.5.82.894 1.468 1.148 1.935.144.235.267.482.369.738zm-16.229 6.56a15.36 15.36 0 01-1.09 1.804 100.507 100.507 0 00-2.625 4.346c-.984 1.73-1.812 3.28-2.394 4.477-.289.642-.62 1.264-.992 1.862.193-.68.451-1.339.77-1.968a55.234 55.234 0 012.321-4.543c.984-1.73 1.968-3.28 2.714-4.313.381-.593.815-1.151 1.296-1.665z" fill="#263238"/><path d="M49.774 278.652a25.121 25.121 0 01-2.378-1.041 72.927 72.927 0 00-5.798-2.321 77.555 77.555 0 00-5.977-1.804 23.892 23.892 0 01-2.51-.664c.235.002.468.027.697.074a30.55 30.55 0 011.87.361 51.15 51.15 0 016.035 1.714 52.95 52.95 0 015.79 2.419c.713.36 1.287.664 1.64.885.221.106.432.232.63.377zm4.346 24.338s-.09.049-.287.098l-.82.214-3.108.721c-3.424.713-6.81 1.6-10.143 2.657a44.572 44.572 0 00-9.471 4.453 34.52 34.52 0 00-2.608 1.812 8.711 8.711 0 01-.943.697s.066-.09.213-.222c.148-.131.353-.344.648-.582a28.122 28.122 0 012.559-1.91 41.532 41.532 0 019.487-4.568 84.814 84.814 0 0110.209-2.591l3.124-.615a8.942 8.942 0 011.14-.164zm15.816 6.002c-.09 0-.648-3.28-1.238-7.322-.59-4.043-1-7.38-.91-7.38.09 0 .648 3.28 1.246 7.314.599 4.035 1 7.372.902 7.388zm16.449-5.977a17.468 17.468 0 01-1.484-1.755 224.407 224.407 0 00-3.51-4.289 327.61 327.61 0 00-3.624-4.231 17.673 17.673 0 01-1.476-1.763c.178.113.338.251.476.41.287.271.688.681 1.18 1.197a80.924 80.924 0 013.707 4.141 94.868 94.868 0 013.444 4.363c.418.574.754 1.041.976 1.369.13.17.234.358.311.558z" fill="#263238"/><path d="M42.861 318.275v8.126h2.026l7.224 22.804h16.023l7.002-22.583 2.707-.221v-8.126H42.86z" fill="#DC3001"/><path d="M76.49 326.622c0 .099-7.077.173-15.802.173s-15.801-.074-15.801-.173c0-.098 7.076-.164 15.801-.164 8.725 0 15.802.074 15.802.164zm11.52-52.275c-.335.12-.677.213-1.026.279l-2.812.673a119.08 119.08 0 00-9.151 2.665 125.976 125.976 0 00-8.906 3.411l-2.656 1.156a6.015 6.015 0 01-.984.402c.292-.2.603-.373.926-.517.607-.32 1.5-.754 2.616-1.263a90.802 90.802 0 018.889-3.509 91.796 91.796 0 019.208-2.575 54.27 54.27 0 012.846-.574 5.468 5.468 0 011.05-.148z" fill="#263238"/><path d="M71.167 339.291c0 .091-4.961.164-11.079.164-6.117 0-11.086-.073-11.086-.164 0-.09 4.961-.172 11.086-.172 6.126 0 11.079.074 11.079.172zm.623-1.886c0 .091-5.256.173-11.743.173-6.486 0-11.75-.082-11.75-.173 0-.09 5.256-.172 11.75-.172 6.495 0 11.743.074 11.743.172z" fill="#FAFAFA"/><path d="M503.225 356.807l.352-9.07 15.793-.59-.237 11.086-5.74 3.469-10.168-4.895z" fill="#B36B60"/><path d="M519.478 356.175v1.033s17.532 7.241 17.688 10.587l-34.957-.517.648-11.619a20.035 20.035 0 0016.621.516z" fill="#455A64"/><path d="M506.341 359.422a1.437 1.437 0 00-1.008 1.64 1.368 1.368 0 001.591 1.017 1.5 1.5 0 001.057-1.714 1.428 1.428 0 00-1.771-.877m-4.001 7.79l.156-2.796 33.448 1.517s1.541.697 1.353 1.796l-34.957-.517z" fill="#fff" opacity=".6"/><path d="M519.593 357.315c0 .164-.82.23-1.706.771-.885.541-1.311 1.246-1.467 1.172-.156-.073.114-1.049 1.156-1.681 1.041-.631 2.058-.418 2.017-.262zm3.648 1.566c0 .164-.714.443-1.304 1.156-.59.714-.763 1.476-.935 1.468-.172-.008-.262-.976.484-1.853s1.747-.935 1.755-.771zm2.018 4.42c-.156 0-.385-.82.066-1.755.451-.935 1.263-1.287 1.328-1.14.066.148-.434.632-.82 1.403-.385.77-.41 1.451-.574 1.492z" fill="#263238"/><path d="M482.102 336.569l.246 27.126 12.505-.902 2.747-26.421-15.498.197z" fill="#B36B60"/><path d="M495.28 357.471s-8.791 6.101-13.063.82l-1.107 2.55-4.961 18.196a2.461 2.461 0 001.411 2.919 2.454 2.454 0 002.558-.484c3.616-3.362 16.843-15.793 16.712-17.474l-.058-4.469a2.272 2.272 0 00-1.492-2.083v.025z" fill="#455A64"/><path d="M477.994 382.12l18.86-19.68v.976c.099 1.058-.369 1.476-.885 2.156-1.526 2.009-5.74 6.511-15.753 15.9a2.46 2.46 0 01-2.197.607l-.025.041zm16.072-22.55a1.395 1.395 0 00-.41 1.861 1.443 1.443 0 001.895.41 1.364 1.364 0 00.274-1.914 1.367 1.367 0 00-1.914-.275" fill="#fff" opacity=".6"/><path d="M483.414 372.059a7.114 7.114 0 00-2.066-1.796c-1.386-.697-2.69-.369-2.723-.517-.032-.147.279-.229.82-.303a3.85 3.85 0 013.699 1.779c.295.476.328.812.27.837zm-1.69 3.075a20.491 20.491 0 00-2.091-.993c-1.214-.369-2.271-.147-2.304-.295-.033-.147 1.066-.607 2.46-.188 1.394.418 2.058 1.418 1.935 1.476zm4.831-7.028c-.106.115-1.271-1.049-3.116-1.738a22.943 22.943 0 00-3.509-.82c0-.123 1.722-.443 3.698.328s3.042 2.173 2.927 2.23zm.41-5.535c-.065.14-1.369-.393-3.067-.459-1.697-.066-3.05.336-3.099.189a4.816 4.816 0 013.124-.689c1.82.074 3.157.828 3.042.959z" fill="#263238"/><path d="M482.931 362.071a1.91 1.91 0 01.131-.869 6.144 6.144 0 011.124-2.116 2.76 2.76 0 011.402-1.049.997.997 0 011.042.401c.188.331.249.719.172 1.091a3.42 3.42 0 01-3.526 2.501 3.953 3.953 0 01-3.461-2.681 1.308 1.308 0 01.148-1.107.954.954 0 011.074-.304 3.355 3.355 0 011.386 1.05 6.612 6.612 0 011.246 2.042c.128.255.2.534.213.82a11.034 11.034 0 00-1.738-2.649 3.113 3.113 0 00-1.222-.886.522.522 0 00-.59.164.875.875 0 00-.049.73 3.502 3.502 0 003.026 2.288 2.94 2.94 0 003.017-2.075 1.132 1.132 0 00-.082-.77.548.548 0 00-.574-.23 2.53 2.53 0 00-1.205.869 8.936 8.936 0 00-1.534 2.78zm40.762-163.746l.271 2.993 7.298 13.079s3.28 19.68 1.533 32.8c-2.148 16.253-4.92 39.77-5.896 51.037-.582 6.658-6.461 55.85-6.461 55.85l-17.778-.213s.943-53.513 1.173-63.566c.18-7.897-.459-41.919-.459-41.919l-.755-45.165 22.362-5.601" fill="#263238"/><path d="M497.649 354.732l5.642-109.552 3.329-42.263-25.133-6.65-.902 5.223s-9.184 22.649-8.872 29.291c.869 18.622 3.181 66.42 3.181 66.42l5.781 57.236 16.974.295z" fill="#263238"/><path d="M504.301 206.64c-.045.132-.07.27-.074.41 0 .328-.058.722-.107 1.197a167.378 167.378 0 00-.246 4.395c-.156 3.715-.271 8.856-.353 14.523-.082 5.666-.172 10.742-.229 14.522 0 1.804-.082 3.28-.107 4.395v1.197c-.02.142-.02.285 0 .427.039-.137.061-.277.066-.419 0-.319.065-.713.106-1.189.082-1.041.165-2.542.247-4.403.164-3.715.27-8.848.36-14.522.091-5.675.164-10.742.23-14.522 0-1.804.074-3.28.098-4.396v-1.197c.016-.139.018-.279.009-.418zM475.6 216.849c.207.117.431.203.664.254.266.094.541.163.82.205.362.087.729.15 1.099.189.957.117 1.925.134 2.886.049a14.757 14.757 0 006.658-2.23 13.923 13.923 0 002.28-1.78c.27-.258.525-.532.763-.82.187-.203.36-.419.516-.648.271-.377.402-.59.377-.606-.024-.017-.664.762-1.869 1.828a15.513 15.513 0 01-2.28 1.64 17.172 17.172 0 01-3.124 1.435c-1.094.355-2.22.602-3.362.738-.937.098-1.881.112-2.821.041-1.648-.082-2.607-.377-2.607-.295zm45.92-8.471a4.9 4.9 0 00.82 1.64 13.284 13.284 0 006.797 5.281 4.974 4.974 0 001.772.377 21.581 21.581 0 01-5.339-2.804 21.25 21.25 0 01-4.05-4.494zm-11.35 97.22a11.96 11.96 0 002.198-.984 51.93 51.93 0 005.026-2.895 70.401 70.401 0 004.723-3.37c.661-.46 1.266-.993 1.804-1.591-.698.396-1.364.845-1.992 1.345-1.206.82-2.878 2.017-4.773 3.239-1.894 1.222-3.657 2.255-4.92 3.001-.721.363-1.412.782-2.066 1.255z" fill="#455A64"/><path d="M491.154 130.56l20.074-1.566 7.749 5.584-4.846 46.207 6.412 22.649h-35.924l-4.625-41.64 11.16-31.234z" fill="#FAFAFA"/><path d="M468.22 207.173c-5.158-3.616-13.94-10.717-14.76-14.76-1.099-5.273 14.497-47.232 17.572-50.742 3.075-3.509 17.597-10.315 17.597-10.315l.82-1.32c.878-1.427 2.198-4.305 3.871-4.305l.238 2.009.311 4.362c.386 2.263 2.083 12.669 3.994 18.04a47.414 47.414 0 012.697 15.498c.156 16.269.427 51.75-.082 56.473-.656 6.15-3.394 18.04-3.394 18.04s-21.64-7.125-26.642-18.335c-2.173-4.92-2.206-14.67-2.206-14.67m84.247-24.288s-10.021-28.151-13.12-36.949c-2.723-7.725-8.52-9.553-8.52-9.553l-13.686-5.158c-.549-2.099-3.149-3.862-5.166-4.428l-1.295-.574-1.493 1.968s3.108 2.821 3.551 5.674c.246 1.64 1.164 8.004-.189 12.202a50.978 50.978 0 00-2.386 13.44c-.394 9.405-.82 24.993.369 30.52 1.755 8.135 7.109 47.486 7.109 47.486s12.3-8.15 15.326-12.3c3.641-4.92 2.395-14.259-1.058-23.739-.328-.902.164.927 0 0 .346.16.705.286 1.075.378 7.199 1.64 9.635 3.394 16.949-2.846 7.314-6.24 2.534-16.121 2.534-16.121z" fill="#455A64"/><path d="M488.531 137.67c0 .057-.976.328-2.542.82a47.04 47.04 0 00-11.545 5.617c-1.378.91-2.198 1.525-2.239 1.476.153-.188.33-.356.525-.5.352-.304.886-.714 1.558-1.198a37.524 37.524 0 015.568-3.329 38.527 38.527 0 016.051-2.329c.82-.229 1.452-.385 1.911-.475.233-.058.473-.085.713-.082zm43.296 5.994a12.271 12.271 0 01-1.64-1.074 46.6 46.6 0 00-4.002-2.46 53.033 53.033 0 00-4.231-2.05c-.62-.225-1.22-.499-1.796-.82.652.106 1.288.29 1.894.549a31.28 31.28 0 014.322 1.96 30.972 30.972 0 013.969 2.591 8.222 8.222 0 011.484 1.304zm-41.542 59.188c.033.272.033.547 0 .82a5.45 5.45 0 01-.131.926c-.066.408-.159.81-.279 1.206a9.894 9.894 0 01-.508 1.418c-.221.533-.476 1.05-.763 1.55a15.708 15.708 0 01-2.46 3.124 15.953 15.953 0 01-3.173 2.354c-.503.282-1.027.526-1.566.729-.851.342-1.736.589-2.641.738a5.246 5.246 0 01-.926.107 3.309 3.309 0 01-.82 0c0-.082 1.131-.107 2.861-.631a9.484 9.484 0 001.378-.509c.521-.214 1.027-.46 1.517-.738a15.274 15.274 0 005.469-5.354c.287-.486.547-.987.779-1.501.209-.441.387-.896.533-1.361.599-1.755.648-2.895.73-2.878zm-17.146-49.971a31.336 31.336 0 01-1.214-4.748 30.869 30.869 0 01-.82-4.83c.524 1.55.93 3.137 1.214 4.748.396 1.587.671 3.201.82 4.83zm62.141-10.627a40.722 40.722 0 00-2.698 3.886 42.855 42.855 0 00-1.902 4.338c.001-.473.087-.943.254-1.386a14.583 14.583 0 011.312-3.132 14.768 14.768 0 011.984-2.763 4.16 4.16 0 011.05-.943zm11.561 40.778a5.984 5.984 0 01-.771-.82c-.238-.27-.533-.598-.886-.959-.352-.361-.746-.82-1.213-1.222a40.962 40.962 0 00-3.378-2.936 42.747 42.747 0 00-4.535-3.058 43.658 43.658 0 00-4.92-2.411 40.941 40.941 0 00-4.223-1.468c-.607-.188-1.173-.311-1.64-.434a25.839 25.839 0 00-1.271-.296 5.927 5.927 0 01-1.074-.27c.372.007.742.048 1.107.123.352.049.82.115 1.287.229.468.115 1.066.214 1.64.394a35.59 35.59 0 014.297 1.394 39.467 39.467 0 014.969 2.403 40.384 40.384 0 014.568 3.116 36.031 36.031 0 013.345 3.025c.459.443.82.894 1.181 1.271.361.378.623.714.82 1.001.258.285.492.593.697.918z" fill="#263238"/><path d="M529.637 156.366a75.633 75.633 0 011.082 7.552c.361 2.518.594 5.052.697 7.593a75.055 75.055 0 01-1.082-7.552 74.581 74.581 0 01-.697-7.593zm2.428 45.206a7.106 7.106 0 01-.918-.541 24.774 24.774 0 01-2.321-1.746 17.89 17.89 0 01-2.943-3.149 18.73 18.73 0 01-2.46-4.699 26.135 26.135 0 01-.82-2.624c-.205-.869-.312-1.714-.476-2.46a7.29 7.29 0 00-1.697-3.78 7.83 7.83 0 00-2.305-1.64 5.912 5.912 0 01-.959-.435c.349.065.69.166 1.017.304.923.35 1.761.892 2.46 1.591a7.475 7.475 0 011.853 3.895c.172.82.287 1.64.484 2.46.197.82.475 1.713.82 2.583a18.091 18.091 0 005.19 7.781c.902.82 1.69 1.403 2.231 1.821.304.182.587.396.844.639z" fill="#263238"/><path d="M481.34 201.4s-7.995 3.436-5.388 7.651c1.788 2.903 5.494 5.51 5.494 5.51 3.731-2.148 6.364-4.395 8.2-8.536l-8.306-4.625z" fill="#B36B60"/><path d="M468.219 207.173s.516.361 1.558.82a13.126 13.126 0 004.772 1.173l-.115.098a9.017 9.017 0 012.075-4.444 13.994 13.994 0 014.764-3.617c.47-.306.868-.712 1.165-1.189a2.58 2.58 0 00.475-1.599 3.457 3.457 0 00-.869-1.549 9.17 9.17 0 00-1.419-1.28 20.378 20.378 0 01-2.091-2.878 27.294 27.294 0 00-1.959-3.083c-.32-.418-.648-.82-.984-1.222-.337-.402-.64-.82-.935-1.271-.591-.82-1.148-1.714-1.689-2.558v-.074a46.328 46.328 0 01-.164-5.412c.098-1.722.196-3.378.287-4.92.188-3.124.36-5.912.508-8.249.148-2.337.271-4.158.361-5.47.049-.615.082-1.107.115-1.467a3.11 3.11 0 01.057-.509c.02.169.02.34 0 .509 0 .371-.016.863-.049 1.476-.058 1.312-.148 3.173-.246 5.469-.099 2.296-.263 5.133-.427 8.266-.082 1.566-.172 3.222-.262 4.92-.037 1.789.026 3.58.189 5.362v-.082c.533.82 1.09 1.69 1.681 2.534.295.427.59.82.918 1.247.328.426.672.82 1 1.238a25.935 25.935 0 011.968 3.116 20.687 20.687 0 002.059 2.829 9.123 9.123 0 011.467 1.345c.466.481.795 1.078.952 1.73a1.87 1.87 0 01-.123 1 4.519 4.519 0 01-.41.82c-.326.527-.77.97-1.296 1.296a14.028 14.028 0 00-4.674 3.493 9.022 9.022 0 00-2.066 4.289v.106h-.099a12.738 12.738 0 01-4.83-1.287 9.148 9.148 0 01-1.139-.689 2.269 2.269 0 01-.525-.287z" fill="#263238"/><path d="M473.074 184.902c0 .057-.525-.049-1.345-.066a8.698 8.698 0 00-3.124.541 8.612 8.612 0 00-2.706 1.64c-.607.558-.91.976-.967.943.183-.434.464-.822.82-1.131a7.478 7.478 0 012.757-1.83 7.49 7.49 0 013.278-.458c.451.022.891.145 1.287.361zm23.082 30.627a2.024 2.024 0 00-.959.869 1.573 1.573 0 00-.074 1.328 1.475 1.475 0 002.616-.123 1.593 1.593 0 00-.189-1.312 2.06 2.06 0 00-1.041-.779s.139-.057.394 0c.35.103.655.319.869.615a1.855 1.855 0 01.303 1.575 1.803 1.803 0 01-3.28.156 1.828 1.828 0 01.164-1.599c.187-.318.476-.564.82-.697.23-.074.377-.05.377-.033zm1.246-10.644c-.405.182-.741.49-.959.878a1.59 1.59 0 00-.074 1.32 1.472 1.472 0 001.346.742 1.466 1.466 0 001.27-.865 1.597 1.597 0 00-.189-1.312 2.025 2.025 0 00-1.041-.779s.139-.049.394 0c.351.105.657.324.869.623a1.79 1.79 0 01.303 1.574 1.806 1.806 0 01-2.58.887 1.812 1.812 0 01-.7-.739 1.806 1.806 0 01.156-1.591c.186-.321.475-.569.82-.705.238-.074.385-.049.385-.033z" fill="#263238"/><path d="M472.459 184.164l.303.18a7.382 7.382 0 00-10.963 2.526c-.369.705-.583 1.64 0 2.222a1.511 1.511 0 001.713.156 5.63 5.63 0 001.427-1.148 12.201 12.201 0 018.2-3.28m36.744-4.502a4.031 4.031 0 003.534 3.28c1.558 0 3.28-.295 4.6.492 1.804 1.05 2.083 3.477 2.378 5.543.689 4.805 2.739 9.693 6.749 12.423.745.573 1.645.91 2.583.968a2.152 2.152 0 002.115-1.501 42.648 42.648 0 00-3.353-2.64c-2.641-1.722-3.822-5.076-4.715-8.11-.64-2.14-1.05-4.436-2.059-6.437-1.968-3.92-4.87-4.403-11.832-4.01" fill="#000" opacity=".3"/><path d="M510.949 188.6c.047-.196.116-.385.205-.566l.673-1.574c.319-.673.59-1.542.967-2.526.377-.984.722-2.132 1.124-3.403a119.163 119.163 0 004.149-20.295c.91-8.052 1.025-15.432.402-20.697-.164-1.32-.263-2.517-.501-3.542-.237-1.025-.319-1.943-.557-2.649l-.459-1.64a3.985 3.985 0 01-.132-.582c.093.177.164.364.214.558.139.41.311.959.533 1.64.262.867.476 1.749.639 2.64.254 1.033.377 2.231.566 3.551.697 5.297.631 12.702-.287 20.787a109.701 109.701 0 01-4.28 20.336 85.404 85.404 0 01-1.189 3.395c-.369.975-.697 1.845-1.034 2.509l-.746 1.55c-.08.177-.176.347-.287.508z" fill="#263238"/><path d="M521.29 171.503a12.188 12.188 0 01-.82-4.395 8.05 8.05 0 00-.328-2.69 2.068 2.068 0 00-2.149-1.435l-.311 6.642 3.608 1.878z" fill="#B36B60"/><path d="M518.298 156.218l-1.091 22.96a1.001 1.001 0 01-.886.943l-11.619 1.206a.988.988 0 01-1.009-.594 1 1 0 01-.082-.407l.394-22.14a.992.992 0 01.82-.967l12.3-1.968a.988.988 0 011.173.967z" fill="#263238"/><path d="M510.22 160.876a.763.763 0 011.217-.428.743.743 0 01.242.354.872.872 0 01-.295.82.825.825 0 01-.886.049.726.726 0 01-.278-.795z" fill="#FAFAFA"/><path d="M513.229 165.304c.27 0 6.666 2.14 6.666 2.14l3.608 2.763a6.366 6.366 0 01.968 4.789c-.435 3.083-1.747 4.354-5.01 5.74h-6.56l-3.682-2.156a2.048 2.048 0 01-.992-2.075v-.148l-.459-.549a1.12 1.12 0 01-.14-1.246 1.132 1.132 0 011.517-.492l4.1 2.099 2.567-.066.246-.885-3.994-1.329-5.305-2.894a1.407 1.407 0 01-.712-1.424c.026-.187.09-.366.187-.528a1.402 1.402 0 011.706-.574l4.772 1.878 4.871 1.287-.984-1.697-5.986-3.116s-.713-1.829 2.616-1.517z" fill="#B36B60"/><path d="M523.503 170.207a27.678 27.678 0 01-3.723-2.615h.058l-.246-.082a29.263 29.263 0 01-4.502-1.64c1.573.317 3.119.756 4.625 1.312l.246.082a29.15 29.15 0 013.542 2.943zm-5.951 8.233a4.394 4.394 0 01-1.362.533 5.537 5.537 0 01-3.534 0 13.74 13.74 0 01-1.746-.82l-1.37-.771a5.707 5.707 0 01-1.222-.82c.472.12.925.305 1.345.55l1.411.697c.556.302 1.128.576 1.713.82a5.838 5.838 0 003.338.098 8.332 8.332 0 011.427-.287z" fill="#83483F"/><path d="M500.274 187.985a2.813 2.813 0 01-.271-.533c-.172-.402-.402-.918-.697-1.574a143.263 143.263 0 01-2.345-5.855 159.377 159.377 0 01-6.117-19.893 111.895 111.895 0 01-2.067-11.284c-.189-1.754-.41-3.419-.467-4.985-.05-.82-.09-1.542-.14-2.272-.049-.729 0-1.426 0-2.091a35.143 35.143 0 01.115-3.599c0-.525.058-1.017.09-1.476.033-.46.115-.861.164-1.23l.255-1.698c.014-.198.053-.393.114-.582.013.199.013.399 0 .599 0 .426-.098.992-.172 1.705a67.71 67.71 0 00-.123 1.222c-.041.443-.041.951-.057 1.476-.05 1.05-.107 2.255-.05 3.583v2.083c0 .722.107 1.476.164 2.255.074 1.558.312 3.215.509 4.961.492 3.477 1.131 7.29 2.091 11.234a179.483 179.483 0 005.978 19.893c.902 2.501 1.689 4.51 2.222 5.896.254.664.467 1.189.623 1.599.081.182.142.371.181.566zm35.299 29.586a3.921 3.921 0 01-.508.82c-.344.508-.886 1.221-1.583 2.074a47.079 47.079 0 01-13.152 11.054c-.968.533-1.763.943-2.321 1.197a3.987 3.987 0 01-.894.361c.255-.198.53-.368.82-.509a62.622 62.622 0 002.247-1.312 56.052 56.052 0 006.97-4.985 57.048 57.048 0 006.109-6.003c.722-.82 1.296-1.5 1.681-1.984.184-.26.396-.499.631-.713zm-37.834 19.138a8.043 8.043 0 01-1.263-.377c-.82-.27-1.96-.705-3.37-1.279a75.961 75.961 0 01-20.254-12.3c-1.165-.984-2.075-1.812-2.682-2.411a7.644 7.644 0 01-.918-.943 7.49 7.49 0 011.025.82c.64.558 1.583 1.353 2.763 2.304a87.942 87.942 0 0020.181 12.3c1.394.615 2.525 1.083 3.28 1.403.425.126.839.288 1.238.483zM514.5 77.834a3.615 3.615 0 001.731-2.615 3.58 3.58 0 00-1.017-2.96c-.591-.6-1.394-.976-1.952-1.64a11.96 11.96 0 01-1.082-1.739 7.184 7.184 0 00-5.568-3.33 9.306 9.306 0 00-6.281 2.002 6.903 6.903 0 01-2.239 1.443 9.695 9.695 0 01-2.583.065 5.876 5.876 0 00-5.051 2.977 5.878 5.878 0 00.033 5.863 5.058 5.058 0 001.845 9.84 10.82 10.82 0 004.157-1.255 77.237 77.237 0 0116.876-5.305" fill="#263238"/><path d="M491.181 114.054a18.035 18.035 0 01-4.617-11.48c-.131-4.199.566-9.447 3.19-12.735-1.804-1.976-1.034-4.157.278-6.486 1.312-2.329 3.609-3.911 6.069-5.076a28.599 28.599 0 0111.48-2.837c3.28-.123 7.568.451 7.995 2.796a3.434 3.434 0 01-1.149 3.518 16.067 16.067 0 016.019 3.649c4.035 3.911 5.593 7.847 5.027 12.226-.566 4.379-1.525 7.782-4.166 10.537" fill="#DC3001"/><path d="M518.675 113.275a4.082 4.082 0 011.64-.992h-.115c.113-.025.228-.042.344-.05a1.643 1.643 0 011.247.205 2.994 2.994 0 011.566 1.476 3.536 3.536 0 01-.558 3.6 2.686 2.686 0 01-2.851 1.153 2.688 2.688 0 01-2.069-2.276 3.325 3.325 0 01.796-3.116z" fill="#455A64"/><path d="M493.836 132.135l-2.6-37.515a3.284 3.284 0 012.969-3.28l17.417-4.182c5.559-.517 9.175 6.371 9.462 11.955.312 6.208.451 13.793-.336 18.409-1.591 9.283-8.651 10.398-8.651 10.398l.058 5.601-6.421 17.449-11.898-18.835z" fill="#B36B60"/><path d="M517.814 106.854a1.198 1.198 0 01-1.164 1.189 1.139 1.139 0 01-.84-.289 1.15 1.15 0 01-.382-.801 1.188 1.188 0 011.172-1.173 1.132 1.132 0 01.831.284 1.142 1.142 0 01.383.79zm1.574-3.813c-.148.156-1.041-.525-2.329-.541-1.287-.016-2.23.623-2.37.459-.139-.164.091-.344.501-.639a3.27 3.27 0 011.902-.566 3.195 3.195 0 011.853.623c.386.312.517.59.443.664zm-13.596 3.813a1.197 1.197 0 01-1.164 1.189 1.141 1.141 0 01-.84-.289 1.147 1.147 0 01-.382-.801 1.19 1.19 0 011.165-1.189 1.129 1.129 0 01.842.286 1.13 1.13 0 01.379.804zm.967-3.731c-.148.156-1.041-.525-2.329-.533-1.287-.008-2.23.615-2.37.459-.139-.155.091-.352.501-.647a3.275 3.275 0 011.902-.558 3.195 3.195 0 011.853.623c.394.304.525.591.443.656zm4.551 9.578a8.383 8.383 0 012.091-.353c.328 0 .64-.09.697-.311a1.637 1.637 0 00-.205-.976c-.303-.82-.615-1.64-.943-2.509-1.304-3.567-2.239-6.503-2.091-6.56.148-.058 1.312 2.804 2.616 6.371l.902 2.517c.2.399.252.855.147 1.288a.813.813 0 01-.541.475c-.181.05-.369.075-.557.074a8.562 8.562 0 01-2.116-.016z" fill="#263238"/><path d="M512.147 127.92a23.685 23.685 0 01-12.415-3.469s3.108 6.642 12.423 5.88l-.008-2.411zm-1.057-12.169a3.19 3.19 0 00-1.118-1.023 3.182 3.182 0 00-1.465-.387 2.069 2.069 0 00-1.706.894 1.886 1.886 0 002.083 2.853 4.696 4.696 0 001.902-1.148c.17-.126.31-.289.41-.475a.628.628 0 000-.648" fill="#83483F"/><path d="M507.523 113.545c.213 0 .196 1.378 1.377 2.387 1.181 1.008 2.665.869 2.673 1.057.009.189-.336.271-.959.279a3.443 3.443 0 01-2.23-.82 3.012 3.012 0 01-1.066-2.001c-.05-.574.114-.91.205-.902zm-.198-13.89c-.131.344-1.41.164-2.911.328-1.5.164-2.73.557-2.927.246-.09-.156.123-.484.623-.82a4.92 4.92 0 012.173-.73 4.92 4.92 0 012.28.295c.549.246.82.517.762.68zm11.636-.337c-.23.287-1.107 0-2.173-.049s-1.968.172-2.165-.14c-.09-.147.058-.434.451-.704a2.994 2.994 0 011.771-.46c.626.02 1.23.231 1.731.607.369.304.483.648.385.746z" fill="#263238"/><path d="M512.836 89.831s-8.725-.295-15.522 9.43c-4.478 6.412-5.544 14.547-5.544 14.547l-3.075-15.58 2.657-7.028 6.093-3.28 11.48-.426 4.28 2.214" fill="#DC3001"/><path d="M495.714 90.315c13.94-3.083 24.985 1.73 26.822 12.669l2.96-7.118-7.068-8.848-7.872-2.205-15.982 2.107 1.14 3.395z" fill="#DC3001"/><path d="M489.662 112.758a4.341 4.341 0 011.771-1.066h-.131c.121-.028.244-.045.369-.049a1.704 1.704 0 011.344.221 3.175 3.175 0 011.64 1.583 3.76 3.76 0 01-.598 3.87 2.887 2.887 0 01-5.256-1.205 3.597 3.597 0 01.861-3.354z" fill="#455A64"/><path d="M493.042 107.855a1.387 1.387 0 01-.607-.238 3.595 3.595 0 01-1.64-3.944c.123-.501.32-.984.41-1.485a1.515 1.515 0 00-.345-1.385 5.205 5.205 0 00-1.336-.87 4.014 4.014 0 01-1.255-1.008 4.428 4.428 0 01-.951-2.51 3.777 3.777 0 01.303-1.77c.07-.21.188-.402.345-.558a5.172 5.172 0 00-.386 2.312c.087.843.421 1.642.96 2.296.323.379.719.688 1.164.91a5.299 5.299 0 011.435.935 1.896 1.896 0 01.435 1.714c-.115.558-.32 1.041-.443 1.501a3.34 3.34 0 00.262 2.46c.258.512.632.959 1.091 1.303.336.214.574.304.558.337zm-2.068-18.967a6.006 6.006 0 00-.451 2.165 4.37 4.37 0 00.664 2.255 8.29 8.29 0 002.173 1.976c.442.326.808.742 1.074 1.222.235.466.329.99.271 1.509a19.07 19.07 0 00-.361 2.46c-.012.532.175 1.05.525 1.451.271.271.5.303.484.344-.016.041-.058 0-.164 0a1.099 1.099 0 01-.418-.213 2.22 2.22 0 01-.697-1.55 16.81 16.81 0 01.278-2.46 2.356 2.356 0 00-.246-1.312 3.532 3.532 0 00-.984-1.098 8.208 8.208 0 01-2.238-2.091 4.531 4.531 0 01-.632-2.46 4.066 4.066 0 01.386-1.64 1.53 1.53 0 01.336-.558zm9.66 6.798s-.115.14-.386.082a.816.816 0 01-.393-.263.946.946 0 01-.197-.598c0-.476.254-.96.287-1.443.032-.484-.377-.927-.919-1.206a3.944 3.944 0 01-1.484-1.131 3.14 3.14 0 01-.598-1.41 1.943 1.943 0 01.163-1.378c-.007.445.026.89.099 1.328.111.454.318.879.607 1.246.386.434.861.778 1.394 1.009.31.154.588.366.82.623.214.263.319.597.295.935-.074.623-.361 1.041-.361 1.427a.701.701 0 00.369.721c.164.09.287.025.304.058zm2.788-7.511s.099 0 .197.073a.65.65 0 01.164.542c-.058.247-.141.49-.246.721a1.503 1.503 0 000 .82c.141.493.396.946.746 1.32.271.32.435.525.394.566-.041.041-.254-.098-.582-.377a2.747 2.747 0 01-.935-1.427 1.75 1.75 0 01.066-.992c.114-.21.215-.426.303-.648a.685.685 0 00-.107-.598zm13.997-4.814s0 .148-.156.37a8.724 8.724 0 00-.557.91 1.922 1.922 0 00-.107 1.459c.219.63.356 1.286.41 1.952a3.54 3.54 0 01-.607 1.951 3.37 3.37 0 01-1.254 1.083 2.15 2.15 0 01-1.476.287 7.104 7.104 0 001.345-.525 3.234 3.234 0 001.64-2.796 8.175 8.175 0 00-.369-1.878 2.15 2.15 0 01.254-1.64 8.07 8.07 0 01.664-.82c.107-.263.213-.37.213-.353zm6.502 6.626c.05.065-.418.27-.606.951-.091.353-.271.779-.41 1.222a8.067 8.067 0 01-.533 1.517 3.034 3.034 0 01-2.46 1.541 1.704 1.704 0 01-1.189-.278c.387.028.776.028 1.164 0a2.896 2.896 0 002.165-1.452c.215-.467.395-.95.541-1.443.164-.484.361-.82.484-1.205a1.5 1.5 0 01.549-.73c.164-.107.279-.14.295-.123zm1.083 9.331s0 .238-.197.525a2.008 2.008 0 01-2.46.607c-.312-.164-.443-.344-.418-.377.53.162 1.089.212 1.64.147.926-.18 1.344-.959 1.435-.902zM509.219 81.82c0 .057-.393.27-.82.877a2.862 2.862 0 00-.287 2.624c.299.498.47 1.06.501 1.64a2.298 2.298 0 01-.542 1.28c-.508.598-.943.82-.959.77-.017-.05.328-.336.746-.935.243-.329.383-.723.402-1.131-.06-.51-.231-1-.5-1.435a2.826 2.826 0 01-.156-1.69 3.13 3.13 0 01.582-1.246c.492-.656 1.033-.795 1.033-.754zm-8.913 6.535c-.107-.05.197-.87.221-1.919.025-1.05-.213-1.894-.106-1.927a3.696 3.696 0 01-.115 3.846zm-6.445-1.017s.082-.09.164-.279c.115-.257.147-.544.09-.82-.123-.73-.82-1.55-1.426-2.599a4.54 4.54 0 01-.542-1.64 2.465 2.465 0 01.246-1.41c.143-.302.383-.547.681-.697.213-.09.344-.066.353 0 .008.065-.115.057-.287.172a1.696 1.696 0 00-.501.68 3.291 3.291 0 00.386 2.756c.557.992 1.279 1.877 1.353 2.738.047.334-.032.673-.222.952-.147.139-.287.172-.295.147zm8.93-4.018s.057-.123.205-.287c.212-.187.358-.437.418-.713a1.922 1.922 0 00-.598-1.066c-.337-.37-.82-.714-1.23-1.132a2.635 2.635 0 01-.96-1.492 2.393 2.393 0 01.369-1.402c.197-.395.476-.742.82-1.017a6.796 6.796 0 01-.549 1.14c-.2.38-.291.809-.263 1.238.145.493.437.931.837 1.254.82.771 1.837 1.526 1.845 2.51-.082.34-.294.634-.591.82-.18.106-.287.164-.303.147zm8.643-1.37c.248-.217.428-.502.517-.82a1.81 1.81 0 00-.107-1.032 7.82 7.82 0 00-.664-1.198 3.504 3.504 0 01-.549-1.353c-.048-.42.054-.844.287-1.197.344-.615.82-.721.82-.656a2.243 2.243 0 00-.615.82c-.167.309-.23.662-.181 1.009.102.434.282.845.533 1.213.268.401.491.83.664 1.28.134.396.134.825 0 1.221a1.214 1.214 0 01-.492.665c-.098.098-.205.098-.213.049z" fill="#fff"/><path d="M514.419 81.721a6.23 6.23 0 01-1.058 0c-.681 0-1.64 0-2.887.05a31.51 31.51 0 00-9.249 1.943 46.833 46.833 0 00-8.446 4.338l-2.46 1.558a5.053 5.053 0 01-.919.549 5.39 5.39 0 01.82-.664 35.36 35.36 0 012.37-1.64 42.531 42.531 0 018.454-4.47 29.7 29.7 0 019.381-1.852c1.222 0 2.214 0 2.903.065.367.008.732.049 1.091.123zm-22.099 8.167h.099l.262-.098.418-.18.591-.214a17.3 17.3 0 013.87-.82 23.963 23.963 0 015.871.14c1.099.147 2.247.377 3.428.648 1.181.27 2.386.582 3.6.984 4.92 1.525 8.651 4.698 10.315 7.601a13.445 13.445 0 011.46 3.674c.115.451.18.82.221 1.057 0 .107.041.197.058.279.016.082 0 .09 0 .09a.801.801 0 000-.098v-.279a10.404 10.404 0 00-.181-1.066 13.052 13.052 0 00-1.41-3.739c-1.64-2.952-5.429-6.191-10.373-7.724a35.82 35.82 0 00-3.633-.984 37.84 37.84 0 00-3.435-.64 22.964 22.964 0 00-5.921-.09 15.984 15.984 0 00-3.887.926l-.582.23-.418.197-.246.123-.107-.017z" fill="#263238"/><path d="M510.507 90.257h-.303a8.56 8.56 0 00-.861.099 12.454 12.454 0 00-3.043.951 22.083 22.083 0 00-8.036 6.683 33.754 33.754 0 00-3.034 4.92 43.14 43.14 0 00-1.968 4.297 22.265 22.265 0 00-.943 3.05c-.082.361-.139.656-.164.82-.024.164 0 .295 0 .295.041-.094.069-.193.082-.295 0-.188.107-.475.197-.82.273-1.023.61-2.028 1.009-3.009a41.571 41.571 0 012.001-4.264 34.693 34.693 0 013.025-4.92 22.46 22.46 0 017.93-6.675 12.98 12.98 0 012.993-1.009c.369-.065.656-.114.82-.13l.295.007zM377.912 261.031c-3.329-1.681-5.002-5.601-5.248-9.332-.246-3.731.656-7.38 1.14-11.119.484-3.739.484-7.675-1.369-10.923-1.854-3.247-6.093-5.354-9.471-3.763l-9.48 6.74a46.09 46.09 0 012.633 12.997c.188 3.321.049 6.814 1.533 9.791 2.099 4.198 6.929 6.306 11.562 7.068l-1.747-2.419a11.276 11.276 0 0010.447.96z" fill="#263238"/><path d="M346.434 214.602c4.1-.426 7.585 1.37 10.865 3.887a21.01 21.01 0 016.781 22.919 16.159 16.159 0 01-8.585 9.356c-5.469 2.337-12.169.96-16.662-2.927-4.494-3.887-6.823-9.98-6.659-15.925a19.687 19.687 0 013.862-11.48 14.983 14.983 0 0110.398-5.863" fill="#263238"/><path d="M357.092 229.182c-.492-1.599-.147-3.28-.279-4.978-.278-3.665-3.017-6.773-6.305-8.405-3.059-1.525-6.921-1.492-10.792-.508a14.417 14.417 0 00-7.068 3.969 11.401 11.401 0 00-2.763 10.102l18.745-1.484a20.722 20.722 0 005.387 4.1c.59.311 1.252.461 1.919.435a1.728 1.728 0 001.525-1.099 3.673 3.673 0 00-.369-2.132z" fill="#263238"/><path d="M338.979 220.391l15.99 4.494a3.052 3.052 0 012.641 3.149l-2.46 35.088a10.93 10.93 0 01-2.723 6.461l-1.64 1.894a8.02 8.02 0 01-13.3-1.869 3.692 3.692 0 01-.312-.943c0-.32-.106-.533-.106-.82a25.46 25.46 0 01.074-5.33c.041-3.133.073-4.42.073-4.395 0 .024-6.56-1.271-7.724-9.931-.566-4.305-.164-11.332.353-17.072.401-5.15 3.993-11.406 9.134-10.726z" fill="#FFBE9D"/><path d="M331.813 237.882a1.107 1.107 0 001.041 1.14 1.053 1.053 0 001.049-.565c.065-.125.105-.262.116-.403a1.102 1.102 0 00-1.033-1.14 1.08 1.08 0 00-.789.238 1.052 1.052 0 00-.384.73zm-.608-3.05c.139.147.992-.451 2.181-.419 1.189.033 2.05.656 2.182.517.131-.139-.066-.328-.443-.615a3.028 3.028 0 00-1.739-.59 2.879 2.879 0 00-1.738.508c-.369.287-.509.533-.443.599zm11.268 3.476a1.118 1.118 0 001.042 1.148 1.05 1.05 0 001.049-.564c.064-.126.104-.263.115-.403a1.108 1.108 0 00-1.033-1.148 1.071 1.071 0 00-1.173.967zm.031-3.025c.132.147.984-.451 2.173-.419 1.189.033 2.05.656 2.182.509.131-.148-.066-.328-.443-.615a2.99 2.99 0 00-1.739-.582 2.917 2.917 0 00-1.738.508c-.369.271-.5.525-.435.599zm-4.155 8.79a7.934 7.934 0 00-1.927-.394c-.304-.041-.583-.114-.632-.319a1.546 1.546 0 01.23-.894l.959-2.296c1.337-3.28 2.313-5.945 2.181-5.994-.131-.05-1.328 2.55-2.656 5.805-.328.82-.632 1.575-.927 2.304a1.746 1.746 0 00-.189 1.189.777.777 0 00.189.286.775.775 0 00.295.174c.168.049.342.08.517.09a7.15 7.15 0 001.96.049z" fill="#263238"/><path d="M337.15 258.136c4.061.173 8.09-.787 11.636-2.772 0 0-3.067 5.896-11.677 4.855l.041-2.083zm1.624-11.177a2.16 2.16 0 011.944-.746 1.939 1.939 0 011.336.763 1.238 1.238 0 01.058 1.418 1.446 1.446 0 01-1.575.353 4.374 4.374 0 01-1.492-.951 1.17 1.17 0 01-.336-.361.39.39 0 010-.443" fill="#EB996E"/><path d="M341.834 244.991c-.197 0-.23 1.28-1.361 2.165-1.132.886-2.46.705-2.518.886-.057.18.295.262.878.295a3.23 3.23 0 002.099-.672 2.8 2.8 0 001.058-1.813c.065-.541-.05-.861-.156-.861zm.967-13.234c.107.328 1.304.205 2.69.41s2.517.615 2.706.336c.09-.14-.099-.451-.55-.771a4.489 4.489 0 00-1.992-.763 4.447 4.447 0 00-2.116.197c-.525.189-.779.435-.738.591zM331.69 229.6c.205.279 1.033 0 2.017 0s1.82.23 2.017-.049c.09-.131 0-.41-.394-.673a2.77 2.77 0 00-1.64-.492 2.85 2.85 0 00-1.64.501c-.328.336-.442.615-.36.713z" fill="#263238"/><path d="M360.226 226.869c-1.353-5.043-8.257-12.25-13.48-12.127l-8.545 4.608a8.048 8.048 0 001.703 3.909 8.046 8.046 0 003.463 2.487c1.452.508 3.215.713 4.035 2.017.82 1.304.221 3.19.992 4.559 1.074 1.903 4.223 1.96 4.994 3.994.344.885.098 1.919.451 2.804.467 1.181 3.321 2.772 4.551 2.46 1.23-.311 1.32-2.378 1.763-3.444a5.69 5.69 0 00.352-3.813c-.418-2.476.369-5.043-.279-7.454z" fill="#263238"/><path d="M354.781 242.425c0-.648.82-2.14 1.435-2.222 1.698-.222 4.748 0 4.666 4.305-.115 5.879-6.002 4.542-6.002 4.378 0-.164-.164-4.247-.099-6.461z" fill="#FFBE9D"/><path d="M356.699 246.689s.099.074.271.164c.247.098.523.098.771 0a2.528 2.528 0 001.213-2.247 3.435 3.435 0 00-.254-1.476 1.202 1.202 0 00-.754-.82.542.542 0 00-.615.271c-.082.164-.041.287-.074.295-.033.008-.123-.107-.074-.345a.684.684 0 01.238-.369.82.82 0 01.574-.131 1.409 1.409 0 011.049.927c.238.513.348 1.075.32 1.64-.057 1.189-.689 2.279-1.541 2.509a1.098 1.098 0 01-.487.019 1.097 1.097 0 01-.448-.191c-.189-.115-.189-.23-.189-.246z" fill="#EB996E"/><path d="M365.048 235.028c.206-.559.317-1.15.328-1.746.222-2.9-.544-5.791-2.173-8.2a5.156 5.156 0 00-1.156-1.345 19.53 19.53 0 012.558 5.363c.441 1.943.59 3.941.443 5.928z" fill="#DC3001"/><path d="M340.021 217.694c-.697 2.353-4.526 5.174-6.24 6.929-3.28 3.345-3.952 4.485-4.436 12.414-1.263-2.829-2.181-5.584-1.87-8.667a12.835 12.835 0 013.944-8.2 9.987 9.987 0 018.602-2.46" fill="#263238"/><path d="M363.259 226.992c-.33.089-.668.149-1.008.181-.328.049-.73.106-1.198.131-.467.025-1.008.09-1.599.082a28.709 28.709 0 01-4.165-.23 32.812 32.812 0 01-4.986-1.098 31.472 31.472 0 01-4.723-1.952 27.77 27.77 0 01-3.542-2.189 15.73 15.73 0 01-1.263-.976 11.717 11.717 0 01-.919-.82 5.718 5.718 0 01-.721-.722c.293.18.568.389.82.623.254.214.566.468.943.738.377.271.82.615 1.287.935a30.975 30.975 0 0013.153 5.117c1.358.191 2.728.29 4.1.295h1.591c.467 0 .869 0 1.197-.074a5.751 5.751 0 011.033-.041zm.305 4.248a3.162 3.162 0 01-.697.115c-.631.078-1.267.119-1.903.123a23.584 23.584 0 01-12.07-3.198 16.69 16.69 0 01-1.64-1.042 2.719 2.719 0 01-.541-.451c0-.049.82.517 2.255 1.28a27.828 27.828 0 005.789 2.287c2.028.533 4.111.83 6.207.886 1.599 0 2.592-.066 2.6 0zm-2.329 15.113c-.049-.05.59-.697 1.296-1.952a22.012 22.012 0 002.058-5.248c.479-1.827.77-3.698.869-5.584.066-1.443-.057-2.337 0-2.354.083.199.135.409.156.624.086.575.127 1.156.123 1.738a22.038 22.038 0 01-.755 5.683 18.838 18.838 0 01-2.205 5.297 8.732 8.732 0 01-1.066 1.386c-.279.287-.451.434-.476.41zm-7.136 77.867l-37.72 5.477c-14.177 4.018-29.11 5.191-44.731 3.838l56.81 26.502 22.812.353s6.946 0 8.2-6.06c1.255-6.06 2.559-24.51 2.559-24.51s-4.576-3.919-7.93-5.6z" fill="#455A64"/><path d="M353.994 340.111c.618 3.794.84 7.641.664 11.48a11.359 11.359 0 002.797-9.536c-.328-1.87-1.107-3.92-.132-5.543.656-1.091 2.387-2.337 2.132-3.584 0 0-1.517 0-2.894-.057l-3.395-.115a12.19 12.19 0 01.607 7.503" fill="#000" opacity=".3"/><path d="M336.512 264.532l18.843-1.591 2.723.279-12.022 9.881-6.15 2.14-5.395-2.525-1.304-3.625 3.305-4.559zm-22.296 21.279l-7.093 22.501-15.211 21.484 9.611 6.929 16.629-20.517 5.568-25.428-9.504-4.969z" fill="#FFBE9D"/><path d="M311.141 281.785s6.912-10.431 9.02-12.3c2.525-2.239 7.093-3.969 7.093-3.969l9.274-.992s-5.74 6.56.82 7.38c6.56.82 20.729-8.684 20.729-8.684s9.914 1.853 12.366 3.329c2.452 1.476 8.684 5.24 8.356 15.236v8.028H359.98l-3.936 30.143-9.504 5.74s-25.625 4.92-27.265 5.223c-1.64.304-.418-41.598-.418-41.598s-6.577-3.141-7.716-7.536z" fill="#263238"/><path d="M321.358 322.654l34.997-5.257 3.608-27.584h17.524s-4.158 19.434-5.076 24.411c-1.32 7.15-6.224 16.712-8.848 18.516-2.624 1.804-44.28-1.821-44.28-1.821l2.075-8.265z" fill="#FFBE9D"/><path d="M301.48 325.843a1.332 1.332 0 001.238.82c.113-.002.226-.015.336-.041.779-.196.82-1.754.82-1.754l3.69-.361s4.56 3.378 6.118 5.518c1.558 2.141 5.977.779 5.977.779l2.009-7.691-6.33-6.56s.385.385 0-.779c-.385-1.165-2.534-.878-2.534-.878-.295-.582-1.64-.877-1.64-.877l-5.953.295a4.044 4.044 0 00-3.075 1.64l-2.78 3.846s-1.509 2.755-1.336 3.436a1.176 1.176 0 001.32.861s.172 1.894.656 1.992a4.039 4.039 0 001.484-.254v.008z" fill="#FFBE9D"/><path d="M314.411 321.063c0 .065-.82-.058-2.058-.09a18.07 18.07 0 00-4.871.59c-.875.23-1.73.529-2.558.894-.738.361-1.501.639-1.763 1.148a.712.712 0 000 .705.966.966 0 00.418.402c.303.147.508.074.517.115.008.041-.197.147-.574 0a1.137 1.137 0 01-.542-.435.96.96 0 01-.082-.935 1.98 1.98 0 01.82-.779c.348-.205.707-.392 1.075-.557a15.007 15.007 0 012.599-.952 15.577 15.577 0 014.986-.483 6.945 6.945 0 012.033.377z" fill="#EB996E"/><path d="M314.576 324.859c0 .107-2.411-.147-5.371-.172-2.96-.024-5.363.189-5.371.074a5.895 5.895 0 011.558-.271c2.539-.262 5.1-.24 7.634.066.528.029 1.05.131 1.55.303zm-13.054.837a3.6 3.6 0 010-.64c.003-.578.041-1.156.114-1.73.05-.399.129-.794.238-1.181.141-.456.366-.882.664-1.254a8.364 8.364 0 012.362-2.116c.91-.551 1.892-.97 2.919-1.246a10.654 10.654 0 012.575-.222c.73 0 1.32.082 1.722.123.402.041.631.074.631.107-.783.061-1.568.074-2.353.041-.829.002-1.654.101-2.46.295-.985.282-1.928.693-2.804 1.222a8.044 8.044 0 00-2.28 2.017 4.404 4.404 0 00-.918 2.255c-.304 1.427-.328 2.329-.41 2.329z" fill="#EB996E"/><path d="M310.78 315.544c0 .049-.894 0-2.312.09-1.419.091-3.551.074-4.92 1.87a19.996 19.996 0 00-3.28 4.436 11.442 11.442 0 00-.705 2.173 1.492 1.492 0 010-.631 5.8 5.8 0 01.451-1.64 17.536 17.536 0 013.279-4.576c.359-.414.77-.781 1.222-1.09.44-.273.927-.462 1.435-.558a12.898 12.898 0 012.526-.238 8.864 8.864 0 012.304.164z" fill="#EB996E"/><path d="M312.468 328.697a2.096 2.096 0 01-.336-.295l-.935-.861a41.844 41.844 0 00-3.706-2.919h.082l-3.69.385.131-.148c-.009.299-.05.596-.123.886-.075.314-.24.599-.476.82a.914.914 0 01-.5.197 1.362 1.362 0 01-.517 0 1.53 1.53 0 01-.877-.558 1.271 1.271 0 01-.139-.229v-.058l.213.09-.115.041c-.159.055-.32.102-.484.14a3.51 3.51 0 01-.508.09h-.279a.687.687 0 01-.328-.09 1.086 1.086 0 01-.328-.509 3.073 3.073 0 01-.148-.516 8.87 8.87 0 01-.172-1.05l.205.164a1.386 1.386 0 01-1.328-.557 1.106 1.106 0 01-.205-.747 3.12 3.12 0 01.18-.697c.329-.882.72-1.74 1.173-2.566l1.468-2.017c.311-.438.623-.864.934-1.28a7.139 7.139 0 011.009-1.238 3.967 3.967 0 011.386-.82 5.244 5.244 0 011.525-.221l5.609-.254h.041c.329.076.65.183.959.319.337.121.625.349.82.648l-.197-.074a2.026 2.026 0 011.886.23c.464.394.758.952.82 1.558l-.041-.082 4.363 4.477 1.181 1.23c.14.14.269.291.385.451a4.027 4.027 0 01-.443-.393l-1.23-1.181-4.452-4.387v-.049a2.109 2.109 0 00-.738-1.353 1.757 1.757 0 00-1.64-.173l-.132.05-.065-.123a1.435 1.435 0 00-.664-.501 5.29 5.29 0 00-.894-.287h.049l-5.609.296a4.825 4.825 0 00-1.427.205 3.59 3.59 0 00-1.254.713 7.3 7.3 0 00-.951 1.181c-.312.418-.615.82-.935 1.279l-1.468 2.017a19.374 19.374 0 00-1.164 2.501 2.67 2.67 0 00-.156.615.762.762 0 00.139.517 1.035 1.035 0 00.927.336h.188v.18c.031.34.083.676.156 1.009.037.297.15.58.328.82.048.015.1.015.148 0 .076.008.153.008.229 0 .155-.016.309-.043.46-.082a4.09 4.09 0 00.459-.123h.115l.213.098v.05c.03.064.069.125.115.18.162.225.401.383.672.443a.977.977 0 00.41 0 .586.586 0 00.336-.123c.343-.423.521-.957.5-1.501v-.131h.123l3.699-.328h.049a36.002 36.002 0 013.657 3.026c.402.385.697.697.894.91.156.103.297.227.418.369z" fill="#EB996E"/><path d="M318.562 278.242c.059.641.059 1.286 0 1.927v4.633c0 1.813.164 3.444.254 4.625.094.638.121 1.284.082 1.927a8.155 8.155 0 01-.377-1.894 42.663 42.663 0 01-.386-4.641 45.115 45.115 0 01.09-4.666c.031-.649.144-1.29.337-1.911z" fill="#455A64"/><path d="M378.528 280.489c-.2.046-.403.071-.607.074l-1.739.131-6.412.418-21.156 1.206-21.164 1.074-6.421.279-1.746.057a4.392 4.392 0 01-.607 0c.199-.046.402-.074.607-.082l1.738-.131 6.412-.41 21.156-1.205 21.165-1.083 6.412-.279 1.747-.049c.204-.02.41-.02.615 0zm-19.852 17.991c0 .123-8.946.599-19.992 1.066-11.045.467-20.008.746-20.016.631-.008-.114 8.946-.598 20-1.066 11.053-.467 20.008-.713 20.008-.631zm-2.386 15.883a1.487 1.487 0 01-.386.066l-1.09.115-4.043.361c-3.403.295-8.11.713-13.309 1.238a766.814 766.814 0 00-13.284 1.476l-4.026.467-1.099.107a1.083 1.083 0 01-.385 0c.123-.041.249-.071.377-.09l1.083-.189c.951-.156 2.32-.369 4.009-.607a481.916 481.916 0 0113.284-1.64c5.199-.574 9.914-.902 13.325-1.115a128.84 128.84 0 014.051-.221h1.107c.13-.012.26-.001.386.032zm-38.319-34.694a4.7 4.7 0 01-1.902-.434c-1.009-.353-1.796-.722-1.755-.82a4.68 4.68 0 011.902.434 4.376 4.376 0 011.755.82zm15.415-10.93a87.856 87.856 0 01-12.095.418 41.6 41.6 0 016.035-.427 41.977 41.977 0 016.06.009zm38.074-1.468c0 .123-4.313.188-9.627.164-5.313-.025-9.618-.148-9.618-.271 0-.123 4.305-.188 9.618-.156 5.314.033 9.627.148 9.627.263z" fill="#fff"/><path d="M359.849 276.832c.033.33.033.662 0 .992 0 .64-.05 1.566-.132 2.731-.139 2.32-.508 5.568-.82 9.274l-.221-.221h3.526c4.576 0 8.717 0 11.718.065l3.55.066c.439-.012.879.015 1.312.082a7.105 7.105 0 01-1.295.082l-3.543.065c-2.993.041-7.134.066-11.709.066h-3.772v-.221c.311-3.723.738-6.954.943-9.266.106-1.099.188-2.009.262-2.715.029-.338.089-.673.181-1zm-67.011 59.22s-23.911-7.519-31.431-9.954c-12.931-4.191-21.393.049-24.067 4.674-3.468 6.002 4.847 17.712 8.045 20.401 9.479 7.979 25.739 9.02 25.739 9.02l58.45-.115-17.064-23.058-19.672-.968z" fill="#455A64"/><path d="M295.363 345.384a58.343 58.343 0 01-28.7-3.903 37.802 37.802 0 00-4.789-1.788 14.102 14.102 0 00-4.92-.344 4.913 4.913 0 00-3.485 1.574c-1.172 1.542-.565 3.723.082 5.543.755 2.132 1.542 4.314 3.026 6.019 1.739 2.001 4.256 3.141 6.782 3.936 4.92 1.558 10.143 2.001 15.317 2.206l17.761-.976-1.074-12.267z" fill="#E0E0E0"/><path d="M292.739 357.561a5.365 5.365 0 01-1.262-1.345 11.337 11.337 0 01-1.96-8.495 5.306 5.306 0 01.533-1.755c.065 0-.14.689-.271 1.796a12.507 12.507 0 001.919 8.307c.599.934 1.082 1.451 1.041 1.492zm-31.676-17.86s.123.156.271.484c.205.456.364.931.476 1.419a9.201 9.201 0 01-2.903 9.02 8.16 8.16 0 01-1.206.885c-.303.173-.492.246-.5.222-.008-.025.64-.443 1.525-1.296a9.637 9.637 0 002.854-8.782c-.254-1.214-.574-1.927-.517-1.952z" fill="#263238"/><path d="M292.543 348.336c0 .107-.623.221-1.402.254a2.88 2.88 0 01-1.411-.123c0-.106.624-.221 1.394-.254a2.91 2.91 0 011.419.123zm-.534 4.854c.041.091-.311.328-.82.32-.508-.008-.82-.229-.82-.32 0-.09.386-.049.82-.049.435 0 .779-.049.82.049z" fill="#263238"/><path d="M353.878 334.56c-1.385-3.936-1.639-9.717-10.184-12.497-8.544-2.78-15.039 2.55-19.434 4.395-4.395 1.845-28.462 15.047-28.462 15.047s-4.526 8.077-3.28 11.644 7.15 7.093 7.15 7.093h26.905c6.945 0 19.86-.229 19.86-.229a79.738 79.738 0 004.625-8.791l.238-1.156c.041-.902 3.968-11.545 2.582-15.506z" fill="#455A64"/><path d="M338.971 355.06a.776.776 0 01-.197.369c-.259.31-.557.585-.886.82a22.184 22.184 0 01-3.805 2.132 23.53 23.53 0 01-2.804 1.107 20.51 20.51 0 01-3.395.73 64.2 64.2 0 01-7.905.311c-5.592.091-10.66.304-14.341.263-1.837 0-3.33-.09-4.355-.197a11.274 11.274 0 01-1.172-.164 1.469 1.469 0 01-.402-.098c0-.041.566.065 1.591.114a69.26 69.26 0 004.338.074c3.665 0 8.733-.279 14.341-.369 2.625.061 5.25-.03 7.864-.27a21.707 21.707 0 003.338-.689 24.687 24.687 0 002.796-1.05 25.943 25.943 0 003.829-2.009c.329-.209.635-.454.91-.73.189-.254.23-.393.255-.344z" fill="#263238"/><path d="M299.71 360.267s-.123-.057-.352-.189c-.23-.131-.574-.336-1.001-.623a23.702 23.702 0 01-3.542-2.812 11.056 11.056 0 01-2.001-2.583 5.95 5.95 0 01-.394-3.83 32.066 32.066 0 013.28-8.774c4.404-2.46 9.455-5.182 14.982-8.151a757.126 757.126 0 018.634-4.559c1.501-.762 3.01-1.55 4.592-2.263 1.583-.713 3.092-1.55 4.674-2.353a26.278 26.278 0 016.954-2.616 16.885 16.885 0 013.616-.328 16.21 16.21 0 013.526.508 16.74 16.74 0 016.167 2.944c.85.704 1.602 1.517 2.238 2.419a14.014 14.014 0 011.443 2.845c.378.976.656 1.968.927 2.928.318.931.576 1.881.771 2.845a18.782 18.782 0 01-.459 5.502 61.677 61.677 0 01-1.198 4.814c-.213.746-.426 1.468-.631 2.165a18.53 18.53 0 00-.525 1.992l-.238 1.156a28.207 28.207 0 01-3.091 6.708 11.749 11.749 0 01-1.64 2.058l.098-.139.32-.386c.405-.508.78-1.039 1.124-1.59a28.867 28.867 0 002.984-6.708c.443-.361.353-.722.23-1.156.135-.696.311-1.383.525-2.058l.615-2.165c.41-1.501.82-3.092 1.156-4.797.408-1.773.554-3.597.435-5.412a23.256 23.256 0 00-.779-2.796c-.271-.96-.55-1.936-.919-2.895a14.02 14.02 0 00-1.418-2.772 11.785 11.785 0 00-2.182-2.345 16.397 16.397 0 00-6.035-2.862 15.032 15.032 0 00-6.978-.164 25.718 25.718 0 00-6.855 2.583c-1.575.82-3.092 1.681-4.699 2.362-1.607.681-3.075 1.484-4.575 2.247a761.717 761.717 0 00-8.635 4.543l-15.006 8.093.057-.057a32.395 32.395 0 00-3.28 8.675 5.737 5.737 0 00.345 3.698 11.034 11.034 0 001.935 2.559 25.984 25.984 0 003.469 2.853l.984.665c.246.139.352.221.352.221z" fill="#263238"/><path d="M343.498 350.288s8.02.959 7.306 4.879c-.713 3.919-3.329 5.248-3.329 5.248l-21.787.041s12.972-.902 17.81-10.168z" fill="#E0E0E0"/><path d="M344.276 348.385c0 .383-.084.76-.246 1.107a8.564 8.564 0 01-1.295 2.46 6.506 6.506 0 01-3.067 2.345 18.17 18.17 0 002.772-2.574 23.087 23.087 0 001.836-3.338z" fill="#263238"/><path d="M341.496 349.919a5.333 5.333 0 01-.779 2.796 5.958 5.958 0 01-1.746 2.304c-.082-.066.705-1.082 1.418-2.46.714-1.378 1.001-2.657 1.107-2.64zm10.225 9.397c-.057 0 .451-1.025 1.083-2.706a28.812 28.812 0 001.574-13.801c-.23-1.779-.508-2.862-.443-2.878.117.237.203.487.254.746.194.69.345 1.391.451 2.099a25.726 25.726 0 01-1.59 13.94c-.266.664-.573 1.31-.919 1.936a3.047 3.047 0 01-.41.664z" fill="#263238"/><path d="M347.188 348.172c-.057-.525-.27-1.148-.82-1.255-.549-.106-1.066.599-1.328 1.189-2.764 6.396-11.849 11.366-18.778 12.013a63.5 63.5 0 0010.061-.82 15.38 15.38 0 007.675-3.509 9.31 9.31 0 003.19-7.618z" fill="#000" opacity=".3"/><path d="M294.109 339.48a45.462 45.462 0 01-7.56-3.28c1.326.369 2.616.857 3.854 1.46a23.574 23.574 0 013.706 1.82z" fill="#263238"/><path d="M301.875 336.11a750.196 750.196 0 00-31.234-5.289l-7.782 2.46c2.182 4.059 6.487 6.642 10.972 7.716 4.485 1.074 9.159.82 13.751.394 5.052-.468 10.234-1.173 14.629-3.707.336-.197.714-.484.673-.869-.041-.385-.574-.615-1.009-.705z" fill="#000" opacity=".2"/><path d="M250.797 305.204l13.071 28.921a3.377 3.377 0 001.231 1.438 3.378 3.378 0 001.811.547l38.122.5 4.805-2.591-7.527-.55-11.71-28.117a2.463 2.463 0 00-2.222-1.493l-36.531-.27a1.143 1.143 0 00-.97.518 1.144 1.144 0 00-.08 1.097z" fill="#E0E0E0"/><path d="M250.796 305.204a.812.812 0 01-.115-.344 1.152 1.152 0 01.352-1.001c.205-.189.468-.302.747-.32h3.345l15.301.05 10.66.057h7.503a2.648 2.648 0 011.526.64c.405.389.707.874.877 1.41.205.492.41.992.623 1.492l10.923 26.158-.181-.131 7.274.533h.254l.73.058-.648.344-4.805 2.591h-.123l-28.922-.402-6.453-.09c-1.05 0-2.058 0-3.1-.065a3.542 3.542 0 01-2.583-1.599c-1.705-3.576-3.124-6.888-4.502-9.922-2.706-6.044-4.92-10.915-6.396-14.301l-1.713-3.879-.435-1.008c-.09-.23-.131-.353-.131-.353s.065.115.172.336c.107.222.271.566.467.992l1.788 3.846c1.542 3.37 3.756 8.2 6.511 14.252 1.386 3.001 2.862 6.371 4.526 9.84a3.206 3.206 0 002.337 1.427c.976.049 2.034 0 3.067.057l6.453.074 28.914.352h-.099l4.805-2.591.082.402h-.254l-7.273-.533h-.131l-.05-.123c-3.886-9.348-7.56-18.179-10.881-26.183-.205-.5-.418-.992-.623-1.484a2.851 2.851 0 00-.771-1.271 2.177 2.177 0 00-1.312-.557h-1.533l-5.937-.058-10.66-.098-15.293-.189h-3.346a1.12 1.12 0 00-.689.279 1.156 1.156 0 00-.369.935c.018.128.048.255.091.377z" fill="#263238"/><path d="M301.186 336.561a2.297 2.297 0 01-.173-.32l-.434-.935-1.534-3.46a943.092 943.092 0 01-4.87-11.48 428.692 428.692 0 01-4.642-11.603c-.565-1.501-1.025-2.706-1.312-3.559-.131-.385-.246-.705-.336-.976a1.363 1.363 0 01-.09-.344s.066.106.164.32l.394.951c.36.885.82 2.066 1.426 3.509l4.748 11.554c1.845 4.486 3.526 8.545 4.764 11.546l1.419 3.509c.148.386.271.706.377.968.107.262.115.312.099.32z" fill="#263238"/><path d="M277.536 319.226a1.875 1.875 0 01-1.154 1.727 1.867 1.867 0 01-2.549-1.362 1.873 1.873 0 01.795-1.92 1.872 1.872 0 012.36.233c.351.351.548.826.548 1.322z" fill="#fff"/><path d="M131.316 331.838l-4.387 16.506s15.31 10.004 14.76 13.12l-32.316-7.38 5.781-26.01 16.162 3.764z" fill="#455A64"/><path d="M117.26 344.671a1.345 1.345 0 00-1.254 1.295c.01.332.148.648.385.881.236.234.554.368.886.374a1.435 1.435 0 001.328-1.378 1.351 1.351 0 00-1.476-1.156" fill="#E0E0E0"/><path d="M109.406 354.125l.681-2.599 30.733 8.028s1.296.951.902 1.927l-32.316-7.356zm18.08-5.822c-.041.156-.82.049-1.739.377-.918.328-1.459.902-1.582.82-.123-.082.311-.951 1.394-1.336 1.082-.386 1.992 0 1.927.139zm3.074 2.173c0 .156-.746.271-1.435.82-.688.55-1 1.214-1.156 1.173-.156-.041-.057-.96.82-1.64.878-.681 1.796-.509 1.771-.353zm1.002 4.494c-.156 0-.197-.82.41-1.64.606-.82 1.418-.951 1.451-.82.033.131-.525.5-1.009 1.148-.483.648-.697 1.328-.852 1.312zm-3.493-10.57c-.098.131-.77-.254-1.681-.394-.91-.139-1.64 0-1.713-.172-.074-.172.746-.566 1.812-.385 1.066.18 1.689.869 1.582.951z" fill="#263238"/><path d="M131.316 331.838l-4.387 16.506s15.31 10.004 14.76 13.12l-32.316-7.38 5.781-26.01 16.162 3.764z" fill="#000" opacity=".3"/><path d="M120.025 335.044l-.304 17.08s17.261 6.044 17.507 9.209l-33.136.599-.623-26.634 16.556-.254z" fill="#455A64"/><path d="M109.447 350.878a1.357 1.357 0 00-.91 1.558 1.296 1.296 0 001.542.91 1.424 1.424 0 00.951-1.64 1.345 1.345 0 00-1.706-.771" fill="#E0E0E0"/><path d="M104.092 361.932v-2.682l31.758.418s1.485.615 1.337 1.64l-33.095.624zm16.161-9.988c0 .164-.82.254-1.64.82s-1.197 1.222-1.345 1.156c-.147-.065.074-1 1.033-1.64.96-.639 1.985-.5 1.952-.336zm3.503 1.378c.041.155-.656.442-1.197 1.139-.542.697-.681 1.419-.82 1.411-.14-.008-.287-.91.401-1.763.689-.853 1.608-.943 1.616-.787zm2.049 4.124c-.148 0-.386-.771 0-1.64.385-.869 1.148-1.263 1.213-1.123.066.139-.385.615-.705 1.353-.32.738-.344 1.386-.508 1.41zm-5.912-9.405c-.065.156-.82-.058-1.73 0-.91.057-1.64.377-1.705.238-.066-.14.59-.722 1.64-.82 1.049-.099 1.869.459 1.795.582zm-19.705-156.809l-3.805 23.657 2.771 19.541.123 4.256 2.813 20.852c-.156 3.961-.959 20.5-1.566 23.92-.746 4.231 1.328 64.337 1.328 64.337l19.114-.82s7.225-89.126 7.2-90.102c-.025-.976 9.938-66.674 9.938-66.674l-37.916 1.033z" fill="#263238"/><path d="M148.503 194.881s3.026 65.961 2.026 74.104c-.82 6.56-20.853 77.457-20.853 77.457l-17.531-3.01 6.896-76.514 2.46-76.26 27.002 4.223z" fill="#263238"/><path d="M135.171 221.023c.114 0-2.264 19.426-5.306 43.353-3.042 23.928-8.79 82.591-8.897 82.574-.106-.016 5.47-58.687 8.512-82.623 3.042-23.936 5.584-43.312 5.691-43.304z" fill="#455A64"/><path d="M129.906 81.656a30.411 30.411 0 01-2.591-6.216 10.113 10.113 0 01.345-6.56c.541-1.197 1.394-2.247 1.82-3.485.59-1.714.353-3.723 1.41-5.19 1.64-2.288 5.191-1.755 7.749-2.953 1.985-.934 3.379-2.952 5.47-3.624 1.837-.582 3.829 0 5.592.738 1.763.738 3.493 1.714 5.396 1.968 1.365.07 2.734.07 4.1 0a5.428 5.428 0 013.78 1.304c.968.976 1.173 2.771.123 3.657 2.403-.402 4.658 1.984 4.625 4.42-.033 2.435-1.862 4.567-4.1 5.576a14.474 14.474 0 01-7.118.869c-6.863-.533-13.751-3.14-18.417-8.2" fill="#263238"/><path d="M131.381 73.07l-4.674 33.965c-.82 5.74 6.396 16.4 12.201 16.875 5.42.476 7.274-3.427 8.003-8.815.353-2.558.648-9.987.706-10.25 0 0 8.757.377 10.553-8.093.869-4.1 1.976-12.67 2.895-20.443a16.142 16.142 0 00-12.874-17.687l-.82-.164c-8.93-1.247-14.99 5.641-15.99 14.612z" fill="#FFBE9D"/><path d="M147.601 104.845a20.898 20.898 0 01-10.406-5.477s1.64 7.117 10.259 8.044l.147-2.567z" fill="#EB996E"/><path d="M157.252 83.533a1.24 1.24 0 01-1.411.984 1.181 1.181 0 01-1.033-1.336 1.24 1.24 0 011.411-.992 1.175 1.175 0 01.801.453 1.172 1.172 0 01.232.891zm1.157-3.419c-.189.131-.968-.738-2.271-.992-1.304-.254-2.395.205-2.46 0-.066-.205.147-.336.631-.558a3.395 3.395 0 012.042-.213 3.284 3.284 0 011.763.992c.303.402.377.714.295.771zm-13.325 1.312a1.24 1.24 0 01-1.844.836 1.179 1.179 0 01-.559-1.189 1.24 1.24 0 011.411-.984 1.178 1.178 0 01.992 1.337zm.442-3.633c-.18.132-.959-.738-2.271-.992-1.312-.254-2.386.205-2.46 0-.074-.205.156-.336.631-.557a3.404 3.404 0 012.042-.214 3.277 3.277 0 011.73 1.05c.336.344.418.656.328.713zm2.804 10.627a8.674 8.674 0 012.198 0c.336 0 .664 0 .77-.188a1.766 1.766 0 000-1.033c-.155-.87-.311-1.78-.483-2.73-.64-3.888-1.042-7.061-.886-7.086.156-.024.82 3.108 1.46 6.995.147.96.295 1.87.434 2.739.129.445.097.92-.09 1.345a.824.824 0 01-.648.377 2.14 2.14 0 01-.582 0 8.97 8.97 0 01-2.173-.418zm-4.009.14c.213 0-.066 1.451.943 2.698 1.008 1.246 2.55 1.394 2.525 1.59-.024.197-.393.214-1.033.099a3.625 3.625 0 01-2.124-1.246 3.175 3.175 0 01-.705-2.247c.058-.607.287-.894.394-.894zm2.567-15.81c-.197.328-1.468-.098-3.034-.221-1.566-.123-2.895.05-3.034-.312-.058-.172.221-.459.82-.705a5.322 5.322 0 014.616.402c.525.344.722.68.632.836zm11.79 3.51c-.287.246-1.123-.238-2.206-.467-1.082-.23-2.033-.205-2.181-.558-.065-.164.14-.435.599-.631a3.042 3.042 0 011.886-.132 3.167 3.167 0 011.64.952c.328.36.393.697.262.836z" fill="#263238"/><path d="M130.824 79.54c-.139-.09-5.494-2.895-6.47 2.952-.976 5.847 5.092 5.617 5.133 5.445.041-.172 1.337-8.397 1.337-8.397z" fill="#FFBE9D"/><path d="M128.068 85.387s-.114.057-.295.106a1.03 1.03 0 01-.762-.115 2.541 2.541 0 01-.82-2.46 3.35 3.35 0 01.524-1.41 1.215 1.215 0 01.894-.656.543.543 0 01.558.385c.049.173 0 .287 0 .304 0 .016.139-.082.131-.328a.66.66 0 00-.164-.41.822.822 0 00-.541-.238 1.426 1.426 0 00-1.214.73c-.335.462-.549 1-.623 1.566-.164 1.18.254 2.386 1.058 2.772a1.13 1.13 0 00.959 0c.263-.107.312-.23.295-.246z" fill="#EB996E"/><path d="M162.746 68.42c-1.009 2.166-6.158 2.994-9.938 1.854-3.485-1.05-4.748-3.28-6.962-5.19-1.402-1.222-1.402-1.222-3.69-1.452-1.853-.197-3.338 1.64-4.74 2.87.779 4.65-1.279 9.241-3.28 13.497-.178.49-.516.906-.959 1.181-.82.394-1.739-.221-2.214-.968a7.305 7.305 0 01-.82-4.1 24.153 24.153 0 011.935-9.405 16.485 16.485 0 016.109-7.314 15.661 15.661 0 0111.619-1.927 19.295 19.295 0 0110.185 6.117 11.353 11.353 0 012.747 4.813M150.882 82.55c.049 0 0-.509.27-1.362a5.642 5.642 0 012.067-3.001 5.503 5.503 0 015.166-.746 5.364 5.364 0 012.517 1.902 5.415 5.415 0 010 6.404 5.364 5.364 0 01-2.517 1.903 5.48 5.48 0 01-5.166-.746 5.613 5.613 0 01-2.067-3.002c-.238-.82-.221-1.36-.27-1.353a.994.994 0 000 .361c-.004.35.034.7.114 1.042a5.617 5.617 0 002.042 3.222 5.842 5.842 0 008.266-1.148 5.911 5.911 0 001.148-3.477 5.998 5.998 0 00-1.148-3.485 5.878 5.878 0 00-2.747-2.033 5.8 5.8 0 00-5.568.869 5.616 5.616 0 00-2.042 3.28c-.08.338-.119.685-.115 1.033a1.06 1.06 0 00.05.336z" fill="#263238"/><path d="M136.998 80.13c.049 0 0-.508.27-1.36a5.624 5.624 0 012.067-3.002 5.502 5.502 0 015.166-.746 5.36 5.36 0 012.517 1.902 5.408 5.408 0 010 6.404 5.36 5.36 0 01-2.517 1.903 5.48 5.48 0 01-5.166-.746 5.624 5.624 0 01-2.067-3.002c-.237-.82-.221-1.36-.27-1.353a.994.994 0 000 .361c-.004.35.034.7.115 1.042a5.615 5.615 0 002.041 3.222 5.831 5.831 0 008.266-1.148 5.855 5.855 0 00-3.891-9.277 5.828 5.828 0 00-4.375 1.167 5.612 5.612 0 00-2.066 3.223 4.229 4.229 0 00-.115 1.033c-.013.126-.005.254.025.377z" fill="#263238"/><path d="M148.422 80.36c.057.115.82-.23 1.64 0s1.295.951 1.402.886c.107-.066 0-.246-.164-.542a2.047 2.047 0 00-1.107-.82 2.017 2.017 0 00-1.361.058c-.304.156-.41.328-.41.418zm-19.272-1.73a18.27 18.27 0 004.158.18 18.51 18.51 0 004.157-.295 18.36 18.36 0 00-4.165-.18 18.39 18.39 0 00-4.15.295z" fill="#263238"/><path d="M166.101 149.904l-14.572 9.627.222 3.813 3.796 8.02s1.755 1.64 6.921-3.559 11.685-15.58 11.685-15.58l-8.052-2.321z" fill="#FFBE9D"/><path d="M190.635 129.855a1.2 1.2 0 00-.951-.705l-7.134-.951a2.255 2.255 0 00-1.738.525l-20.443 17.556.927.894 7.667 1.853 21.812-18.86-.14-.312z" fill="#263238"/><path d="M184.968 131.315a.454.454 0 00.607.041.434.434 0 00.213-.566.45.45 0 00-.607-.041c-.229.148-.328.402-.213.566z" fill="#fff"/><path d="M190.773 130.175a8.038 8.038 0 01-1.402-.107l-3.797-.442-2.623-.328a1.493 1.493 0 00-1.239.319l-1.172 1.017-5.224 4.494c-3.714 3.19-7.093 6.051-9.553 8.11l-2.927 2.419c-.347.305-.72.58-1.115.82.305-.351.64-.674 1-.968l2.846-2.517a799.528 799.528 0 019.471-8.2l5.248-4.478 1.18-1a1.87 1.87 0 011.526-.385l2.615.377 3.789.582c.466.059.926.155 1.377.287z" fill="#455A64"/><path d="M183.354 133.849s-.648-.32-1.55 1.451c-.902 1.771-3.616 6.806-3.616 6.806l-3.059-2.911-4.649-.681s-1.239.632-.656 1.329c.582.697 3.28 1.992 3.28 1.992l1.246 3.6-5.191-4.584s-2.156-.041-1.91 1.345c.246 1.386 3.222 6.355 3.222 6.355l-2.952-1.074-2.968-3.157s-1.107-.262-.959.82c.147 1.082 2.919 5.478 2.919 5.478l3.895 3.46s2.525.492 2.96-.164a8.434 8.434 0 00.82-1.64s1.41 0 1.829-.549a4.058 4.058 0 00.549-1.64s1.952.934 2.526-.14a13.35 13.35 0 001.041-4.321c0-.943 3.411-8.823 3.403-9.094-.008-.271 1.263-2.87-.18-2.681z" fill="#FFBE9D"/><path d="M173.521 153.922c-.42.106-.859.106-1.279 0a8.257 8.257 0 01-5.314-2.952c-.492-.623-.697-1.074-.647-1.107.049-.033 1.205 1.55 3.28 2.665 2.074 1.115 3.977 1.238 3.96 1.394zm-.615-1.919c-.099.082-.82-.565-1.435-1.5-.615-.935-1.034-1.804-.919-1.87.115-.065.664.673 1.312 1.591.648.918 1.156 1.689 1.042 1.779zm3.469-3.23c-.098.082-.82-.55-1.369-1.517a3.53 3.53 0 01-.738-1.903c.131-.049.574.722 1.148 1.64.574.919 1.066 1.689.959 1.78zm3.378-2.436a12.15 12.15 0 01-.82-2.083 11.25 11.25 0 01-.82-2.058c.099-.082.82.689 1.296 1.878.353.698.474 1.491.344 2.263z" fill="#EB996E"/><path d="M159.901 152.184l9.602 8.634s-15.023 16.4-19.68 20.041c-4.658 3.641 1.484-24.764 1.484-24.764l8.594-3.911z" fill="#455A64"/><path d="M127.322 100.86l-3.994 5.527-15.531 5.74-7.043 52.824-5.74 47.24s10.832 1.927 13.513-2.009c3.133-4.583 27.601-.451 29.225.82l3.182-10.66 2.566 12.317s4.518 1.025 6.88-5.74l-1-23.436s3.181-42.263 3.001-48.634c-.181-6.371-4.486-24.075-4.486-24.075l-1.64 5.223-13.989-11.931-4.944-3.206z" fill="#455A64"/><path d="M112.284 110.536s-10.201 0-13.505 18.86c-3.305 18.86-8.045 39.188-5.601 46.74s12.029 29.438 12.029 29.438l13.12-4.74-5.395-34.317 6.24-33.62s.804-20.983-6.888-22.361z" fill="#455A64"/><path d="M123.755 208.214l-5.395-7.314-11.177 4.018a41.619 41.619 0 00.074 7.757c.393 3.715 1.033 7.7 1.033 7.7l13.218-7.052a23.712 23.712 0 001.296 4.289c.738 1.541 3.28-.091 3.28-.091l-2.329-9.307z" fill="#FFBE9D"/><path d="M119.204 132.979s0 .205-.09.599-.172.992-.303 1.755c-.279 1.558-.681 3.821-1.206 6.724-1.066 5.838-2.607 14.235-4.493 24.534v-.057c1.55 9.774 3.403 21.484 5.436 34.309v.155l-.155.058-13.12 4.748-.173.057-.073-.164c-1.329-3.1-2.747-6.371-4.174-9.692-2.51-5.945-4.92-11.751-7.06-17.466a51.667 51.667 0 01-.747-2.157c-.123-.361-.188-.738-.287-1.107a6.592 6.592 0 01-.205-1.115 18.778 18.778 0 01-.197-2.239c0-.738-.057-1.484 0-2.214a78.06 78.06 0 01.73-8.569c.722-5.551 1.706-10.775 2.6-15.662.894-4.887 1.763-9.438 2.534-13.595.352-2.083.77-4.1 1.18-5.921.27-.918.525-1.812.771-2.673s.623-1.64.91-2.46a20.509 20.509 0 014.715-7.175 12.056 12.056 0 014.642-2.804 7.888 7.888 0 011.385-.304h.484l-.475.058c-.465.077-.922.19-1.37.336a12.335 12.335 0 00-4.559 2.837 20.504 20.504 0 00-4.617 7.159c-.287.82-.598 1.59-.885 2.46-.287.869-.5 1.746-.755 2.656-.401 1.862-.82 3.822-1.148 5.913-.762 4.157-1.64 8.716-2.46 13.603-.82 4.888-1.845 10.111-2.558 15.654a77.51 77.51 0 00-.713 8.528v2.19c.024.735.09 1.469.196 2.197.036.369.105.734.205 1.091.09.352.156.713.27 1.074.247.713.485 1.427.747 2.14 2.107 5.691 4.551 11.48 7.06 17.442 1.427 3.28 2.838 6.56 4.174 9.684l-.246-.099 13.12-4.739-.123.213c-2.009-12.841-3.829-24.551-5.354-34.325v-.049c1.935-10.291 3.517-18.68 4.616-24.51.558-2.895.992-5.158 1.296-6.708l.344-1.746c.082-.427.131-.624.131-.624zm27.101-16.982c-.079.242-.18.475-.304.697-.254.5-.565 1.14-.959 1.911l-3.428 6.642-.139.262-.172-.238a100.866 100.866 0 00-4.166-5.338 104.89 104.89 0 00-8.265-8.848c-1.116-1.074-2.042-1.918-2.682-2.509a8.374 8.374 0 01-.967-.935c.376.245.733.519 1.066.82.672.55 1.64 1.37 2.779 2.419a89.438 89.438 0 018.373 8.84 87.048 87.048 0 014.157 5.379h-.303l3.558-6.56 1.042-1.861c.11-.242.248-.47.41-.681zm3.445 2.813c.131 0 .82 2.353.319 5.551l-.082.566-.278-.517c-.148-.27-.296-.565-.435-.869-.746-1.64-1.14-3.239-1.55-4.338-.41-1.098-.713-1.746-.664-1.779a5.94 5.94 0 01.927 1.681c.475 1.082.926 2.657 1.64 4.272.131.295.27.582.418.82l-.361.049c.201-1.282.261-2.583.18-3.878-.024-.968-.155-1.542-.114-1.558zm-2.773-.09v3.214c0 2.075-.123 5.068-.328 8.766-.385 7.38-1.287 17.589-2.214 28.847-.927 11.259-1.837 21.419-2.46 28.823-.328 3.666-.599 6.634-.82 8.725-.098 1.009-.172 1.804-.23 2.378 0 .254-.057.451-.073.615a.576.576 0 01-.041.205v-.836c0-.574.09-1.37.164-2.378.155-2.091.385-5.076.664-8.741.607-7.38 1.435-17.589 2.353-28.832.919-11.242 1.87-21.443 2.329-28.831a347.5 347.5 0 00.451-8.749c0-1.009.066-1.812.082-2.386v-.615a.736.736 0 01.123-.205zm5.543 18.368c.107 0-.476 10.455-1.312 23.329-.836 12.874-1.591 23.304-1.706 23.296-.114-.008.484-10.447 1.312-23.329.829-12.882 1.558-23.305 1.706-23.296z" fill="#263238"/><path d="M121.755 124.451c-.066 0-.066-.943-.443-2.394a11.731 11.731 0 00-7.568-8.2c-1.411-.5-2.354-.582-2.346-.648.22-.039.445-.039.665 0 .601.066 1.194.19 1.771.369a11.257 11.257 0 017.749 8.438c.127.591.202 1.192.221 1.796.017.214.001.43-.049.639z" fill="#263238"/><path d="M150.003 180.531a42.739 42.739 0 001.443-24.436c-.516 8.2-.951 16.4-1.467 24.6m-31.315-44.796c-3.37 17.498-6.109 34.103-5.74 31.807l5.437 33.194 3.198 4.74c-2.788-22.288-5.117-47.569-2.895-69.741z" fill="#000" opacity=".3"/><path d="M121.476 213.438c.057.09-3.379 2.017-7.659 4.297-4.281 2.279-7.79 4.05-7.848 3.952-.057-.098 3.379-2.025 7.667-4.297 4.289-2.271 7.79-4.051 7.84-3.952z" fill="#455A64"/><path d="M115.72 152.897c0 .066-1.099-.443-2.87-1.164a62.608 62.608 0 00-7.044-2.46 65.003 65.003 0 00-7.29-1.542c-1.894-.287-3.075-.402-3.067-.475.273-.029.548-.029.82 0 .533 0 1.312.082 2.263.18 2.493.29 4.961.769 7.38 1.435a48.317 48.317 0 017.052 2.558c.87.402 1.567.747 2.042 1.009.258.119.499.273.714.459zm-1.329 26.634c-.199.14-.417.25-.648.328-.426.188-1.066.434-1.853.713a45.683 45.683 0 01-6.314 1.722 47.106 47.106 0 01-6.503.82c-.82.041-1.509.058-1.984.041a2.191 2.191 0 01-.722-.057 24.03 24.03 0 012.69-.287 66.514 66.514 0 006.437-.935 66.207 66.207 0 006.306-1.591 21.21 21.21 0 012.591-.754zm6.97-51.964c-.074.05-.73-.984-2.091-2.386a20.597 20.597 0 00-2.575-2.255 23.16 23.16 0 00-3.608-2.132 22.183 22.183 0 00-3.952-1.361 21.025 21.025 0 00-3.354-.533c-1.952-.123-3.165 0-3.174-.041.266-.087.541-.14.82-.156a8.116 8.116 0 011.009-.09c.445-.025.891-.025 1.337 0 1.164.034 2.322.177 3.46.426a19.643 19.643 0 017.7 3.567c.928.702 1.787 1.49 2.566 2.354.291.331.564.675.82 1.033.217.259.414.533.591.82.181.232.332.485.451.754zm20.254 62.05a4.598 4.598 0 01-1.033-.099 96.253 96.253 0 01-2.796-.451 275.911 275.911 0 01-9.184-1.746 273.981 273.981 0 01-9.119-2.034 150.74 150.74 0 01-2.747-.697 4.577 4.577 0 01-.992-.32c.346.021.689.073 1.025.156l2.78.566 9.143 1.911 9.151 1.869 2.772.582c.341.053.677.141 1 .263zm2.222-29.389c0 .115-6.56-.279-14.695-.886-8.134-.606-14.678-1.197-14.669-1.312.008-.114 6.56.279 14.702.886 8.143.607 14.67 1.189 14.662 1.312zm2.124-25.879a4.603 4.603 0 01-1.058.139c-.681.058-1.64.123-2.895.181-2.46.131-5.83.221-9.561.205a165.977 165.977 0 01-9.561-.32 89.654 89.654 0 01-2.895-.213 5.549 5.549 0 01-1.057-.148 4.525 4.525 0 011.066 0l2.894.09c2.46.074 5.822.164 9.553.189 3.731.024 7.101 0 9.553-.074l2.895-.057a6.432 6.432 0 011.066.008zm-17.426-24.157a11.25 11.25 0 01-1.96.459 45.262 45.262 0 00-9.167 2.952c-.594.31-1.214.568-1.853.771a8.165 8.165 0 011.722-1.042 29.807 29.807 0 014.51-1.853 30.23 30.23 0 014.739-1.123 7.747 7.747 0 012.009-.164zm16.417 9.266a4.811 4.811 0 01-.755-.648l-1.968-1.853a235.157 235.157 0 00-6.56-6.011 200.669 200.669 0 00-6.789-5.74l-2.091-1.714a4.442 4.442 0 01-.738-.672c.29.153.565.334.82.541a44.31 44.31 0 012.173 1.64c1.82 1.386 4.28 3.378 6.896 5.683 2.616 2.304 4.92 4.485 6.503 6.117.82.82 1.443 1.476 1.869 1.951.239.211.454.447.64.706zm7.512 15.366a17.087 17.087 0 01-3.017-.09 17.709 17.709 0 01-3.009-.172 7.845 7.845 0 013.033-.254 7.981 7.981 0 012.993.516zm-1.936 27.347a10.915 10.915 0 01-3.067.14 11.198 11.198 0 01-3.059-.279 11.108 11.108 0 013.067-.148 11.322 11.322 0 013.059.287zm-.95 27.331a18.597 18.597 0 01-3.862.927 18.404 18.404 0 01-3.945.508 18.465 18.465 0 013.863-.927 18.99 18.99 0 013.944-.508zm12.783-21.402a12.098 12.098 0 01-1.14-1.878c-.664-1.172-1.64-2.796-2.69-4.543-1.049-1.746-2.14-3.28-2.903-4.419a12.775 12.775 0 01-1.189-1.845 9.825 9.825 0 011.435 1.64 58.762 58.762 0 013.018 4.362 55.075 55.075 0 012.599 4.633c.364.65.655 1.337.87 2.05z" fill="#fff"/><path d="M545.008 74.061l2.015.54a1.775 1.775 0 01.84-1.092 1.768 1.768 0 011.368-.157 1.68 1.68 0 011.294 1.459 1.855 1.855 0 01-.576 1.584c-.494.472-1.375.781-2.662.183l-1.215 4.534 1.98.53.71-2.65a4.006 4.006 0 003.788-3.034c.785-2.932-1.662-4.317-2.79-4.619-.856-.25-3.843-.83-4.752 2.722zm2.813 8.502l-2.01-.539-.504 1.88 2.01.538.504-1.88z" fill="#DC3001"/><path d="M563.538 77.629a1.687 1.687 0 000-.266v-.772c0-.167.001-.36-.026-.569a27.579 27.579 0 00-.093-.678c-.037-.24-.073-.521-.115-.797l-.219-.887a14.48 14.48 0 00-1.878-4.303 15.173 15.173 0 00-11.416-6.978 15.334 15.334 0 00-2.086-.041c-.349 0-.709 0-1.043.068l-1.074.161c-1.474.274-2.901.76-4.235 1.445a16.526 16.526 0 00-3.802 2.77 15.807 15.807 0 00-2.863 3.984 14.455 14.455 0 00-1.544 4.855 9.91 9.91 0 00-.109 1.298c-.035.436-.044.873-.026 1.31a15.39 15.39 0 002.529 7.848v-.161a2158.35 2158.35 0 01-2.138 5.32l-.125.317.328-.094 5.685-1.564-.136-.031a15.222 15.222 0 006.509 2.847c1.096.204 2.214.273 3.327.203a10.148 10.148 0 001.601-.15l.777-.12c.256-.048.522-.126.751-.183a15.214 15.214 0 008.668-5.94 14.522 14.522 0 001.862-3.531c.099-.276.193-.522.281-.793.089-.271.136-.521.193-.756.058-.235.12-.475.172-.694.053-.219.068-.433.099-.636.047-.401.12-.756.136-1.043.016-.287 0-.563 0-.782v-.637a.548.548 0 000 .162c0 .12 0 .277-.036.475-.037.198-.032.474-.053.777-.02.302-.099.657-.161 1.043a15.132 15.132 0 01-11.218 12.1c-.245.056-.49.13-.741.176l-.766.115c-.518.087-1.041.134-1.565.141a13.888 13.888 0 01-3.265-.214 15.049 15.049 0 01-6.357-2.8l-.063-.052h-.078l-5.69 1.564.199.224 2.143-5.314.031-.083-.047-.079a14.998 14.998 0 01-2.472-7.671c-.017-.426-.008-.853.026-1.278.004-.424.039-.848.105-1.267.2-1.658.693-3.266 1.455-4.751a15.714 15.714 0 012.79-3.901 16.098 16.098 0 013.724-2.717 15.007 15.007 0 014.146-1.435l1.043-.161c.349-.052.699-.047 1.043-.073.68-.033 1.361-.02 2.039.036a15.01 15.01 0 0111.28 6.78 14.43 14.43 0 011.909 4.235l.235.876c.047.276.089.522.13.782.042.261.073.47.11.678.036.209.026.397.041.563 0 .324.042.58.058.767a.888.888 0 00.015.282z" fill="#263238"/></svg>