<svg width="32" height="32" fill="none" xmlns="http://www.w3.org/2000/svg"><g clip-path="url(#clip0_204_1673)"><path d="M26.688 0H5.313C2.377 0 0 2.44 0 5.449V26.55C0 29.561 2.378 32 5.313 32h21.375C29.622 32 32 29.56 32 26.551V5.45C32 2.439 29.622 0 26.687 0z" fill="#470137"/><path d="M16.87 9.425l-4.225 6.831 4.52 7.254c.03.05.037.11.023.167-.007.024-.022.03-.045.03h-.057a.36.36 0 00-.057.003h-3.323c-.176-.005-.302-.03-.38-.156-.3-.575-.604-1.15-.908-1.724a60.338 60.338 0 00-.838-1.525l-.127-.222a96.356 96.356 0 01-1.01-1.802h-.024c-.305.598-.62 1.191-.942 1.78-.326.593-.648 1.183-.966 1.769a78.191 78.191 0 01-.976 1.746c-.054.118-.143.143-.267.147H4.105l-.014.001-.044.004c-.025.001-.04-.004-.044-.04a.22.22 0 01.034-.156l4.383-7.053-4.27-7.076c-.045-.059-.053-.107-.022-.145a.165.165 0 01.136-.055h3.202c.07-.004.14.007.205.033.054.03.1.072.136.123.273.593.576 1.186.909 1.78.33.589.667 1.175 1.01 1.757.338.574.653 1.16.943 1.758h.023a65.06 65.06 0 01.92-1.78c.31-.578.628-1.16.954-1.747.321-.578.635-1.16.942-1.746a.343.343 0 01.091-.145.337.337 0 01.182-.033h2.975a.133.133 0 01.144.06.125.125 0 01-.018.151l-.012.011zm6.675 14.572L23.39 24a7.163 7.163 0 01-3.033-.623 4.788 4.788 0 01-2.123-1.88c-.502-.816-.76-1.832-.772-3.05v-.098a5.718 5.718 0 01.772-2.915 5.616 5.616 0 012.17-2.095l.078-.041c.984-.534 2.173-.801 3.566-.801h.061l.07.003.078.003.087.005.145.01.165.013.121.01V8.157c0-.104.046-.156.136-.156h2.862a.123.123 0 01.103.034.117.117 0 01.034.1v13.15c0 .22.008.458.026.713l.042.577.023.334a.233.233 0 01-.136.223c-.74.301-1.508.525-2.295.667-.668.12-1.345.187-2.024.198zm1.23-2.757v-6.074a2.286 2.286 0 00-.376-.067 4.612 4.612 0 00-.465-.022 3.569 3.569 0 00-1.59.356 3.087 3.087 0 00-1.193 1.023c-.3.43-.455.991-.465 1.683v.075c-.011.485.07.968.238 1.424.137.368.355.702.636.98.27.254.597.445.954.555.378.12.773.18 1.17.179.212 0 .409-.008.59-.023.145-.01.29-.034.43-.07l.07-.019z" fill="#FF61F6"/></g><defs><clipPath id="clip0_204_1673"><path fill="#fff" d="M0 0h32v32H0z"/></clipPath></defs></svg>