<svg width="384" height="139" fill="none" xmlns="http://www.w3.org/2000/svg"><path d="M42.984 33.792c4.104-2.16 6.696-6.048 6.696-11.088C49.68 14.856 43.2 9.6 30.6 9.6H5.976V60H32.04c13.248 0 20.16-5.04 20.16-13.752 0-6.336-3.6-10.656-9.216-12.456zM29.16 18.384c5.688 0 8.784 1.944 8.784 5.904s-3.096 5.976-8.784 5.976H17.568v-11.88H29.16zm2.016 32.832H17.568V38.76h13.608c6.048 0 9.288 2.016 9.288 6.264 0 4.32-3.24 6.192-9.288 6.192zm52.247 9.648c14.328 0 22.824-8.208 22.824-23.04V9.6h-11.52v27.792c0 9.576-4.104 13.536-11.232 13.536-7.056 0-11.232-3.96-11.232-13.536V9.6H60.599v28.224c0 14.832 8.496 23.04 22.824 23.04zm68.406-12.096c-2.952 1.584-5.904 2.16-9.072 2.16-9.648 0-16.344-6.696-16.344-16.128 0-9.576 6.696-16.128 16.488-16.128 5.112 0 9.36 1.8 13.032 5.688l7.488-6.912c-4.896-5.688-12.24-8.712-21.096-8.712-16.056 0-27.72 10.872-27.72 26.064s11.664 26.064 27.504 26.064c7.2 0 14.832-2.232 20.376-6.408V34.008h-10.656v14.76zm79.969-29.808V9.6H193.71V60h11.664V41.64h23.328v-9.36h-23.328V18.96h26.424zM284.335 60l-11.304-16.2c6.552-2.808 10.368-8.352 10.368-15.912 0-11.304-8.424-18.288-21.888-18.288h-21.816V60h11.664V45.96h10.728l9.72 14.04h12.528zm-12.744-32.112c0 5.472-3.6 8.784-10.728 8.784h-9.504V19.104h9.504c7.128 0 10.728 3.24 10.728 8.784zm32.641 22.752V38.976h23.4v-9.072h-23.4V18.96h26.496V9.6H292.64V60h39.024v-9.36h-27.432zm48.305 0V38.976h23.4v-9.072h-23.4V18.96h26.496V9.6h-38.088V60h39.024v-9.36h-27.432zM30.096 128.864c8.784 0 16.056-3.168 20.808-9l-7.488-6.912c-3.384 3.96-7.632 5.976-12.672 5.976-9.432 0-16.128-6.624-16.128-16.128 0-9.504 6.696-16.128 16.128-16.128 5.04 0 9.288 2.016 12.672 5.904l7.488-6.912c-4.752-5.76-12.024-8.928-20.736-8.928-15.696 0-27.36 10.872-27.36 26.064s11.664 26.064 27.288 26.064zm52.038 0c15.84 0 27.576-11.016 27.576-26.064S97.974 76.736 82.134 76.736c-15.912 0-27.576 11.088-27.576 26.064s11.664 26.064 27.576 26.064zm0-9.936c-9 0-15.768-6.552-15.768-16.128s6.768-16.128 15.768-16.128 15.768 6.552 15.768 16.128-6.768 16.128-15.768 16.128zM118.476 128h22.896c16.488 0 27.792-9.936 27.792-25.2s-11.304-25.2-27.792-25.2h-22.896V128zm11.664-9.576V87.176h10.656c10.008 0 16.56 5.976 16.56 15.624s-6.552 15.624-16.56 15.624H130.14zM177.96 128h11.664V77.6H177.96V128zm58.329-50.4v30.6l-25.056-30.6h-9.648V128h11.52V97.4l25.128 30.6h9.576V77.6h-11.52zm57.501 39.168c-2.952 1.584-5.904 2.16-9.072 2.16-9.648 0-16.344-6.696-16.344-16.128 0-9.576 6.696-16.128 16.488-16.128 5.112 0 9.36 1.8 13.032 5.688l7.488-6.912c-4.896-5.688-12.24-8.712-21.096-8.712-16.056 0-27.72 10.872-27.72 26.064s11.664 26.064 27.504 26.064c7.2 0 14.832-2.232 20.376-6.408v-20.448H293.79v14.76z" fill="#112242"/><ellipse cx="82.5" cy="101.506" rx="22.964" ry="22.96" fill="#112242"/><ellipse cx="88.377" cy="81.458" rx="5.317" ry="5.037" fill="#fff"/><circle cx="88.879" cy="98.469" fill="#fff" r="3.58"/><circle cx="67.191" cy="105.085" fill="#fff" r="3.58"/><ellipse cx="80.822" cy="121.191" rx="5.597" ry="5.596" fill="#fff"/><circle cx="102.871" cy="97.35" fill="#fff" r="3.58"/><path d="M74.575 71.935c-16.334 4.376-26.027 21.163-21.65 37.494 4.376 16.332 21.166 26.024 37.5 21.648 16.334-4.376 26.027-21.163 21.65-37.495-4.376-16.331-21.166-26.023-37.5-21.647zm19.284 9.9c9.896 5.713 13.635 17.495 9.995 27.436L65.097 86.898c6.795-8.128 18.87-10.772 28.762-5.063zM71.14 121.176c-9.896-5.712-13.635-17.495-9.995-27.436l38.757 22.373c-6.795 8.128-18.87 10.773-28.762 5.063z" fill="#DC3001"/><ellipse cx="71.512" cy="79.409" rx="8.889" ry="8.888" fill="#112242"/><circle cx="71.635" cy="65.213" r="2.222" fill="#112242"/><circle cx="59.536" cy="71.756" r="2.222" fill="#112242"/><path fill="#112242" d="M70.772 66.447H72.5v5.309h-1.728zm-10.866 6.747l.959-1.438 4.417 2.944-.958 1.438z"/></svg>