<svg width="32" height="32" fill="none" xmlns="http://www.w3.org/2000/svg"><g clip-path="url(#clip0_204_1667)"><path d="M26.688 0H5.313C2.377 0 0 2.44 0 5.449V26.55C0 29.561 2.378 32 5.313 32h21.375C29.622 32 32 29.56 32 26.551V5.45C32 2.439 29.622 0 26.687 0z" fill="#001E36"/><path d="M6 23.518V9.224c0-.105.045-.157.134-.157h.141l.242-.003.336-.007 1.124-.023 1.206-.023A76.49 76.49 0 0110.444 9c1.132 0 2.084.142 2.858.425a4.956 4.956 0 011.865 1.14 4.4 4.4 0 011.016 1.578c.209.577.315 1.187.313 1.8 0 1.194-.276 2.178-.827 2.954a4.67 4.67 0 01-2.158 1.661l-.074.027c-.907.34-1.911.462-3.012.47h-.171L10 19.054l-.128-.002-.143-.003-.086-.004-.052-.003-.129-.004-.157-.004-.237-.001h-.052v4.463a.178.178 0 01-.201.201H6.156c-.104 0-.156-.06-.156-.179zm3.016-11.767v4.663c.178.014.357.022.535.022h.737a5.23 5.23 0 001.5-.225l.097-.03a2.406 2.406 0 001.139-.739c.28-.33.424-.786.434-1.366l.001-.065c.012-.433-.1-.86-.324-1.23a2.083 2.083 0 00-.971-.795 4.132 4.132 0 00-1.63-.28l-.283.002-.179.001-.17.002-.24.005-.176.005-.091.003-.122.006-.104.006-.06.005-.05.005-.023.003-.02.002zm16.113 3.815a5.24 5.24 0 00-1.23-.448l-.099-.022a7.048 7.048 0 00-1.431-.177l-.12-.002a2.883 2.883 0 00-.838.101.753.753 0 00-.436.28.706.706 0 00-.111.38c.004.13.051.256.134.358.118.139.26.255.42.343l.049.026c.318.172.646.325.982.458.75.252 1.465.593 2.132 1.018.455.288.83.683 1.095 1.152.221.444.333.936.323 1.432a3.22 3.22 0 01-.536 1.846 3.527 3.527 0 01-1.551 1.241c-.655.288-1.46.437-2.413.447h-.1a9.069 9.069 0 01-1.762-.154l-.124-.024c-.49-.09-.965-.24-1.418-.448a.29.29 0 01-.156-.246v-2.438a.132.132 0 01.056-.123.108.108 0 01.123.01 5.958 5.958 0 001.719.683c.533.134 1.08.205 1.63.213.52 0 .904-.068 1.15-.202a.632.632 0 00.368-.581c0-.194-.112-.38-.335-.56a2.374 2.374 0 00-.402-.244l-.084-.042-.09-.042-.046-.021-.098-.044a11.257 11.257 0 00-.051-.022l-.107-.044-.055-.023-.115-.046-.06-.024-.124-.048-.13-.048a8.202 8.202 0 01-1.976-1.007 3.413 3.413 0 01-1.05-1.174 3.095 3.095 0 01-.323-1.42 3.211 3.211 0 01.469-1.679c.35-.556.855-.999 1.451-1.275.655-.327 1.474-.492 2.456-.492.576-.004 1.15.037 1.72.123a4.5 4.5 0 011.196.325.204.204 0 01.134.123.613.613 0 01.023.167v2.26a.15.15 0 01-.067.134.215.215 0 01-.193 0z" fill="#31A8FF"/></g><defs><clipPath id="clip0_204_1667"><path fill="#fff" d="M0 0h32v32H0z"/></clipPath></defs></svg>