<svg fill="none" height="20" width="169" xmlns="http://www.w3.org/2000/svg"><path d="M10.48 9.812c.968-.51 1.58-1.428 1.58-2.618 0-1.853-1.53-3.094-4.505-3.094H1.741V16h6.154c3.128 0 4.76-1.19 4.76-3.247 0-1.496-.85-2.516-2.176-2.941zM7.214 6.174c1.343 0 2.074.459 2.074 1.394s-.73 1.411-2.074 1.411H4.478V6.174zm.476 7.752H4.478v-2.941h3.213c1.428 0 2.193.476 2.193 1.479 0 1.02-.765 1.462-2.193 1.462zm12.336 2.278c3.383 0 5.39-1.938 5.39-5.44V4.1h-2.72v6.562c0 2.261-.97 3.196-2.653 3.196-1.666 0-2.652-.935-2.652-3.196V4.1h-2.754v6.664c0 3.502 2.006 5.44 5.39 5.44zm16.152-2.856c-.697.374-1.394.51-2.142.51-2.278 0-3.86-1.581-3.86-3.808 0-2.261 1.582-3.808 3.894-3.808 1.207 0 2.21.425 3.077 1.343l1.768-1.632c-1.156-1.343-2.89-2.057-4.981-2.057-3.791 0-6.545 2.567-6.545 6.154s2.754 6.154 6.494 6.154c1.7 0 3.502-.527 4.81-1.513V9.863H36.18zM55.06 6.31V4.1h-8.993V16h2.754v-4.335h5.508v-2.21h-5.508V6.31zM67.465 16l-2.67-3.825c1.548-.663 2.449-1.972 2.449-3.757 0-2.669-1.99-4.318-5.168-4.318h-5.151V16h2.754v-3.315h2.533L64.507 16zm-3.01-7.582c0 1.292-.85 2.074-2.532 2.074h-2.244V6.344h2.244c1.683 0 2.533.765 2.533 2.074zm7.708 5.372v-2.754h5.525V8.894h-5.525V6.31h6.256V4.1h-8.993V16h9.214v-2.21zm11.405 0v-2.754h5.525V8.894h-5.525V6.31h6.256V4.1H80.83V16h9.214v-2.21zm19.178 2.414c2.074 0 3.791-.748 4.913-2.125l-1.768-1.632c-.799.935-1.802 1.411-2.992 1.411-2.227 0-3.808-1.564-3.808-3.808s1.581-3.808 3.808-3.808c1.19 0 2.193.476 2.992 1.394l1.768-1.632c-1.122-1.36-2.839-2.108-4.896-2.108-3.706 0-6.46 2.567-6.46 6.154s2.754 6.154 6.443 6.154zm12.286 0c3.74 0 6.511-2.601 6.511-6.154s-2.771-6.154-6.511-6.154c-3.757 0-6.511 2.618-6.511 6.154s2.754 6.154 6.511 6.154zm0-2.346c-2.125 0-3.723-1.547-3.723-3.808s1.598-3.808 3.723-3.808 3.723 1.547 3.723 3.808-1.598 3.808-3.723 3.808zM123.613 16h5.406c3.893 0 6.562-2.346 6.562-5.95s-2.669-5.95-6.562-5.95h-5.406zm2.754-2.261V6.361h2.516c2.363 0 3.91 1.411 3.91 3.689s-1.547 3.689-3.91 3.689zM137.658 16h2.754V4.1h-2.754zM151.43 4.1v7.225L145.514 4.1h-2.278V16h2.72V8.775L151.889 16h2.261V4.1zm13.577 9.248c-.697.374-1.394.51-2.142.51-2.278 0-3.859-1.581-3.859-3.808 0-2.261 1.581-3.808 3.893-3.808 1.207 0 2.21.425 3.077 1.343l1.768-1.632c-1.156-1.343-2.89-2.057-4.981-2.057-3.791 0-6.545 2.567-6.545 6.154s2.754 6.154 6.494 6.154c1.7 0 3.502-.527 4.811-1.513V9.863h-2.516z" fill="#112242"/><circle cx="115.004" cy="10.245" fill="#112242" r="5.511"/><ellipse cx="116.413" cy="5.433" fill="#fff" rx="1.276" ry="1.209"/><circle cx="116.531" cy="9.517" fill="#fff" r=".859"/><circle cx="111.328" cy="11.104" fill="#fff" r=".859"/><circle cx="114.597" cy="14.969" fill="#fff" r="1.343"/><circle cx="119.891" cy="9.247" fill="#fff" r=".859"/><path d="M113.098 3.147a7.349 7.349 0 103.805 14.197 7.349 7.349 0 00-3.805-14.197zm4.628 2.377c2.375 1.371 3.273 4.2 2.399 6.585l-9.302-5.37c1.631-1.95 4.529-2.586 6.903-1.215zm-5.452 9.443c-2.375-1.371-3.273-4.2-2.399-6.586l9.302 5.37c-1.631 1.952-4.529 2.587-6.903 1.216z" fill="#dc3001"/><g fill="#112242"><circle cx="112.364" cy="4.941" r="2.133"/><circle cx="112.393" cy="1.533" r=".533"/><circle cx="109.49" cy="3.104" r=".533"/><path d="M112.184 1.83h.415v1.274h-.415zm-2.606 1.62l.23-.345 1.06.706-.23.345z"/></g></svg>