<svg width="32" height="32" fill="none" xmlns="http://www.w3.org/2000/svg"><path d="M26.688 0H5.313C2.377 0 0 2.44 0 5.449V26.55C0 29.561 2.378 32 5.313 32h21.375C29.622 32 32 29.56 32 26.551V5.45C32 2.439 29.622 0 26.687 0z" fill="#000"/><g clip-path="url(#clip0_204_1676)"><path d="M12 28.576c2.208 0 4-1.835 4-4.096v-4.096h-4c-2.208 0-4 1.835-4 4.096 0 2.26 1.792 4.096 4 4.096z" fill="#0ACF83"/><path d="M8 16.288c0-2.26 1.792-4.096 4-4.096h4v8.192h-4c-2.208 0-4-1.835-4-4.096z" fill="#A259FF"/><path d="M8 8.096C8 5.835 9.792 4 12 4h4v8.192h-4c-2.208 0-4-1.835-4-4.096z" fill="#F24E1E"/><path d="M16 4h4c2.208 0 4 1.835 4 4.096s-1.792 4.096-4 4.096h-4V4z" fill="#FF7262"/><path d="M24 16.288c0 2.261-1.792 4.096-4 4.096s-4-1.835-4-4.096c0-2.26 1.792-4.096 4-4.096s4 1.835 4 4.096z" fill="#1ABCFE"/></g><defs><clipPath id="clip0_204_1676"><path fill="#fff" transform="translate(8 4)" d="M0 0h16v24.576H0z"/></clipPath></defs></svg>