<svg width="32" height="32" fill="none" xmlns="http://www.w3.org/2000/svg"><g clip-path="url(#clip0_204_1670)"><path d="M26.688 0H5.313C2.377 0 0 2.44 0 5.449V26.55C0 29.561 2.378 32 5.313 32h21.375C29.622 32 32 29.56 32 26.551V5.45C32 2.439 29.622 0 26.687 0z" fill="#300"/><path d="M16.04 20.481h-5.036L9.98 23.794a.268.268 0 01-.096.152.25.25 0 01-.166.053h-2.55c-.146 0-.197-.083-.153-.25l4.36-13.07a7.55 7.55 0 00.13-.466c.058-.303.087-.61.088-.919a.144.144 0 01.038-.12.135.135 0 01.114-.039h3.466c.102 0 .16.038.175.114l4.948 14.523c.044.151 0 .227-.13.227h-2.835a.196.196 0 01-.137-.037.21.21 0 01-.08-.122l-1.112-3.36zm-4.251-2.859h3.444l-.049-.169-.079-.267L15.05 17l-.09-.296-.19-.622-.168-.551-.436-1.437a45.41 45.41 0 01-.312-1.075l-.08-.292-.093-.345-.142-.535-.027-.101h-.022a18.95 18.95 0 01-.398 1.616l-.323 1.083-.178.598-.18.606-.097.324-.096.317-.096.31-.096.302-.095.294-.094.287-.047.14zm11.487-6.082c-.222.01-.444-.03-.65-.116a1.578 1.578 0 01-.548-.383 1.809 1.809 0 01-.353-.599 1.864 1.864 0 01-.105-.694 1.726 1.726 0 01.116-.684A1.67 1.67 0 0123.274 8h.046c.523 0 .934.163 1.232.488a1.792 1.792 0 01.447 1.26 1.802 1.802 0 01-.469 1.293 1.667 1.667 0 01-.555.378 1.614 1.614 0 01-.652.123l-.047-.002zm-1.504 12.232V12.925c0-.136.058-.205.175-.205h2.681c.116 0 .174.069.174.205v10.847c0 .151-.058.227-.174.227h-2.66c-.123 0-.189-.068-.195-.204v-.023z" fill="#FF9A00"/></g><defs><clipPath id="clip0_204_1670"><path fill="#fff" d="M0 0h32v32H0z"/></clipPath></defs></svg>