<svg width="251" height="94" fill="none" xmlns="http://www.w3.org/2000/svg"><path d="M4.305 40V7.1h16.074c4.136 0 7.238.783 9.306 2.35 2.1 1.567 3.149 3.635 3.149 6.204 0 1.723-.423 3.227-1.27 4.512-.845 1.253-2.005 2.225-3.477 2.914-1.473.69-3.165 1.034-5.076 1.034l.893-1.927c2.068 0 3.9.345 5.499 1.034 1.598.658 2.836 1.645 3.713 2.961.909 1.316 1.363 2.93 1.363 4.841 0 2.82-1.112 5.029-3.337 6.627-2.225 1.567-5.5 2.35-9.823 2.35H4.305zm7.567-5.734h8.883c1.974 0 3.462-.313 4.465-.94 1.034-.658 1.55-1.692 1.55-3.102 0-1.379-.516-2.397-1.55-3.055-1.003-.69-2.491-1.034-4.465-1.034h-9.447v-5.546h8.13c1.85 0 3.26-.313 4.23-.94 1.004-.658 1.505-1.645 1.505-2.961 0-1.285-.501-2.24-1.504-2.867-.971-.658-2.381-.987-4.23-.987h-7.567v21.432zm42.988 6.298c-4.668 0-8.319-1.3-10.95-3.901-2.633-2.6-3.949-6.314-3.949-11.139V7.1h7.614v18.142c0 3.133.643 5.39 1.927 6.768 1.285 1.379 3.087 2.068 5.405 2.068 2.319 0 4.12-.69 5.405-2.068 1.285-1.379 1.927-3.635 1.927-6.768V7.1h7.52v18.424c0 4.825-1.316 8.538-3.948 11.139-2.632 2.6-6.282 3.901-10.95 3.901zm38.31 0c-2.601 0-4.998-.407-7.192-1.222-2.162-.846-4.057-2.037-5.687-3.572a16.771 16.771 0 01-3.76-5.405c-.877-2.068-1.316-4.34-1.316-6.815 0-2.475.439-4.747 1.316-6.815a16.43 16.43 0 013.807-5.405c1.63-1.535 3.541-2.71 5.734-3.525 2.194-.846 4.606-1.269 7.238-1.269 2.914 0 5.53.486 7.849 1.457 2.35.971 4.324 2.381 5.922 4.23l-4.888 4.512c-1.19-1.253-2.49-2.178-3.9-2.773-1.41-.627-2.946-.94-4.607-.94-1.598 0-3.055.25-4.37.752a9.983 9.983 0 00-3.432 2.162c-.94.94-1.676 2.052-2.209 3.337-.501 1.285-.752 2.71-.752 4.277 0 1.535.251 2.945.752 4.23a10.72 10.72 0 002.21 3.384c.97.94 2.099 1.66 3.383 2.162 1.316.501 2.758.752 4.324.752 1.504 0 2.961-.235 4.371-.705 1.442-.501 2.836-1.332 4.183-2.491l4.324 5.499c-1.786 1.347-3.869 2.381-6.251 3.102-2.35.72-4.7 1.081-7.05 1.081zm6.344-5.17V23.033h6.956v13.348l-6.956-.987zm34.39-13.489h15.792v6.11h-15.792v-6.11zM134.468 40h-7.614V7.1h24.863v6.11h-17.249V40zm22.403 0V7.1h14.241c2.946 0 5.484.486 7.614 1.457 2.131.94 3.776 2.303 4.935 4.089 1.16 1.786 1.739 3.917 1.739 6.392 0 2.444-.579 4.559-1.739 6.345-1.159 1.755-2.804 3.102-4.935 4.042-2.13.94-4.668 1.41-7.614 1.41h-10.011l3.384-3.337V40h-7.614zm20.915 0l-8.225-11.938h8.131L186.011 40h-8.225zm-13.301-11.656l-3.384-3.572h9.588c2.35 0 4.105-.501 5.264-1.504 1.16-1.034 1.739-2.444 1.739-4.23 0-1.817-.579-3.227-1.739-4.23-1.159-1.003-2.914-1.504-5.264-1.504h-9.588l3.384-3.619v18.659zm33.951-7.99h15.839v5.922h-15.839v-5.922zM199 33.89h17.907V40h-25.474V7.1h24.863v6.11H199v20.68zm30.968-13.536h15.839v5.922h-15.839v-5.922zm.564 13.536h17.907V40h-25.474V7.1h24.863v6.11h-17.296v20.68zM44.192 86.564c-2.538 0-4.903-.407-7.097-1.222-2.162-.846-4.042-2.037-5.64-3.572a16.771 16.771 0 01-3.76-5.405c-.877-2.068-1.316-4.34-1.316-6.815 0-2.475.44-4.747 1.316-6.815a16.771 16.771 0 013.76-5.405c1.63-1.535 3.525-2.71 5.687-3.525 2.162-.846 4.528-1.269 7.097-1.269 2.852 0 5.421.501 7.708 1.504 2.32.971 4.262 2.413 5.828 4.324l-4.888 4.512c-1.128-1.285-2.38-2.24-3.76-2.867-1.378-.658-2.882-.987-4.512-.987-1.535 0-2.945.25-4.23.752a9.588 9.588 0 00-3.337 2.162c-.94.94-1.676 2.052-2.209 3.337-.5 1.285-.752 2.71-.752 4.277 0 1.567.251 2.992.752 4.277a10.172 10.172 0 002.21 3.337 9.6 9.6 0 003.336 2.162c1.285.501 2.695.752 4.23.752 1.63 0 3.134-.313 4.512-.94 1.38-.658 2.632-1.645 3.76-2.961l4.888 4.512c-1.566 1.911-3.509 3.368-5.828 4.371-2.287 1.003-4.872 1.504-7.755 1.504zm34.017 0c-2.601 0-5.014-.423-7.238-1.269-2.194-.846-4.105-2.037-5.734-3.572a16.771 16.771 0 01-3.76-5.405c-.878-2.068-1.316-4.324-1.316-6.768s.438-4.7 1.316-6.768a16.43 16.43 0 013.807-5.405c1.629-1.535 3.54-2.726 5.734-3.572 2.193-.846 4.574-1.269 7.144-1.269 2.6 0 4.982.423 7.144 1.269 2.193.846 4.089 2.037 5.687 3.572a16.427 16.427 0 013.807 5.405c.908 2.037 1.363 4.293 1.363 6.768 0 2.444-.455 4.716-1.363 6.815a16.427 16.427 0 01-3.807 5.405c-1.598 1.504-3.494 2.679-5.687 3.525-2.162.846-4.528 1.269-7.097 1.269zm-.047-6.486c1.472 0 2.82-.25 4.042-.752a9.69 9.69 0 003.29-2.162 9.588 9.588 0 002.162-3.337c.532-1.285.799-2.71.799-4.277 0-1.567-.267-2.992-.8-4.277a9.588 9.588 0 00-2.161-3.337 9.207 9.207 0 00-3.243-2.162c-1.254-.501-2.617-.752-4.09-.752-1.472 0-2.835.25-4.088.752a9.809 9.809 0 00-3.243 2.162c-.94.94-1.677 2.052-2.21 3.337-.5 1.285-.751 2.71-.751 4.277 0 1.535.25 2.961.752 4.277.532 1.285 1.253 2.397 2.162 3.337.94.94 2.036 1.66 3.29 2.162 1.253.501 2.616.752 4.089.752zM101.885 86V53.1h14.946c3.572 0 6.721.69 9.447 2.068 2.726 1.347 4.857 3.243 6.392 5.687 1.535 2.444 2.303 5.342 2.303 8.695 0 3.321-.768 6.22-2.303 8.695-1.535 2.444-3.666 4.355-6.392 5.734-2.726 1.347-5.875 2.021-9.447 2.021h-14.946zm7.614-6.251h6.956c2.193 0 4.089-.407 5.687-1.222 1.629-.846 2.883-2.037 3.76-3.572.909-1.535 1.363-3.337 1.363-5.405 0-2.1-.454-3.901-1.363-5.405-.877-1.535-2.131-2.71-3.76-3.525-1.598-.846-3.494-1.269-5.687-1.269h-6.956v20.398zM140.715 86V53.1h7.614V86h-7.614zm15.422 0V53.1h6.298l19.411 23.688h-3.055V53.1h7.52V86h-6.251l-19.458-23.688h3.055V86h-7.52zm53.844.564c-2.601 0-4.998-.407-7.191-1.222-2.162-.846-4.058-2.037-5.687-3.572a16.776 16.776 0 01-3.76-5.405c-.877-2.068-1.316-4.34-1.316-6.815 0-2.475.439-4.747 1.316-6.815a16.439 16.439 0 013.807-5.405c1.629-1.535 3.541-2.71 5.734-3.525 2.193-.846 4.606-1.269 7.238-1.269 2.914 0 5.53.486 7.849 1.457 2.35.971 4.324 2.381 5.922 4.23l-4.888 4.512c-1.191-1.253-2.491-2.178-3.901-2.773-1.41-.627-2.945-.94-4.606-.94-1.598 0-3.055.25-4.371.752a9.979 9.979 0 00-3.431 2.162c-.94.94-1.676 2.052-2.209 3.337-.501 1.285-.752 2.71-.752 4.277 0 1.535.251 2.945.752 4.23a10.725 10.725 0 002.209 3.384c.971.94 2.099 1.66 3.384 2.162 1.316.501 2.757.752 4.324.752 1.504 0 2.961-.235 4.371-.705 1.441-.501 2.836-1.332 4.183-2.491l4.324 5.499c-1.786 1.347-3.87 2.381-6.251 3.102-2.35.72-4.7 1.081-7.05 1.081zm6.345-5.17V69.033h6.956v13.348l-6.956-.987z" fill="#112242"/><circle cx="78.5" cy="69.167" r="15.003" fill="#112242"/><ellipse cx="82.34" cy="56.067" rx="3.474" ry="3.291" fill="#fff"/><circle cx="82.668" cy="67.183" r="2.339" fill="#fff"/><circle cx="68.498" cy="71.506" r="2.339" fill="#fff"/><circle cx="77.403" cy="82.03" r="3.657" fill="#fff"/><circle cx="91.809" cy="66.451" r="2.339" fill="#fff"/><path d="M73.323 49.844c-10.672 2.86-17.005 13.828-14.145 24.5 2.859 10.672 13.828 17.005 24.5 14.145 10.671-2.86 17.004-13.828 14.145-24.5-2.86-10.671-13.829-17.004-24.5-14.145zm12.598 6.47c6.465 3.732 8.909 11.431 6.53 17.927L67.13 59.62c4.44-5.31 12.329-7.039 18.79-3.308zM71.079 82.02c-6.465-3.733-8.909-11.432-6.53-17.928l25.321 14.62c-4.44 5.31-12.329 7.039-18.79 3.308z" fill="#DC3001"/><circle cx="71.321" cy="54.728" r="5.808" fill="#112242"/><circle cx="71.402" cy="45.452" r="1.452" fill="#112242"/><circle cx="63.497" cy="49.727" r="1.452" fill="#112242"/><path fill="#112242" d="M70.837 46.258h1.129v3.468h-1.129zm-7.097 4.409l.625-.94 2.886 1.924-.626.94z"/></svg>