<svg width="375" height="375" fill="none" xmlns="http://www.w3.org/2000/svg"><path d="M145.462 87.315H51.547v62.88h93.915v-62.88z" fill="#fff"/><path d="M145.5 150.195v-17.108c0-10.927-.038-26.632-.068-45.75l.135.135H51.66l.172-.164v62.88l-.157-.158 67.657.075 19.335.045h6.923-6.863l-19.29.038-67.762.075h-.15V87.06h94.215v.135c0 19.178-.053 34.912-.075 45.855v15.908c0 .75-.165 1.237-.165 1.237z" fill="#E0E0E0"/><path d="M51.547 92.925c0-.09 21-.172 46.92-.172s46.92.082 46.92.172c0 .09-21 .165-46.92.165s-46.92-.09-46.92-.165z" fill="#E0E0E0"/><path d="M55.252 90.09a.75.75 0 11-1.499 0 .75.75 0 011.5 0zm1.831.75a.75.75 0 100-1.5.75.75 0 000 1.5zm3.292-.75a.75.75 0 11-1.5 0 .75.75 0 011.5 0z" fill="#E0E0E0" opacity=".3"/><path d="M84.675 99.48h-25.05v25.05h25.05V99.48zm47.91 7.08c0 .098-9.75.173-21.818.173-12.067 0-21.825-.075-21.825-.173 0-.097 9.75-.165 21.825-.165s21.818.105 21.818.165zm0 4.658c0 .09-9.75.165-21.818.165-12.067 0-21.825-.075-21.825-.165 0-.09 9.75-.165 21.825-.165s21.818.075 21.818.165zm0 4.657c0 .09-9.75.165-21.818.165-12.067 0-21.825-.075-21.825-.165 0-.09 9.75-.172 21.825-.172s21.818.075 21.818.172zm-17.835 4.65a5.198 5.198 0 01-1.012.067l-2.768.053c-2.332 0-5.557.052-9.112.052-3.556 0-6.75.001-9.12-.052l-2.768-.053a5.201 5.201 0 01-1.013-.067c.336-.05.674-.07 1.013-.06l2.767-.052a607.99 607.99 0 019.121-.053c3.562 0 6.75 0 9.112.053l2.768.052c.338-.01.677.01 1.012.06zm-41.783 12.45H61.192v11.775h11.775v-11.775zm21.353 0H82.545v11.775H94.32v-11.775zm21.345 0H103.89v11.775h11.775v-11.775zm21.352 0h-11.775v11.775h11.775v-11.775zm179.565-29.752c-.11.38-.282.74-.51 1.065a4.827 4.827 0 01-4.815 2.017 4.808 4.808 0 01-2.317-1.11 4.523 4.523 0 01-.923-1.057 4.598 4.598 0 01-.592-1.343 4.89 4.89 0 01.15-3.045 4.947 4.947 0 011.927-2.355 4.662 4.662 0 011.343-.593 4.713 4.713 0 011.395-.172 4.84 4.84 0 014.035 2.37c.571.936.799 2.042.645 3.128a3.47 3.47 0 01-.338 1.125s.143-.398.233-1.14a4.776 4.776 0 00-.705-3 4.634 4.634 0 00-3.878-2.183 4.458 4.458 0 00-1.32.165 4.633 4.633 0 00-3.232 5.678c.119.449.309.877.562 1.267.234.38.525.721.863 1.013a4.672 4.672 0 004.335.982 4.757 4.757 0 002.542-1.762c.223-.337.424-.688.6-1.05z" fill="#E0E0E0"/><path d="M321.067 107.752h.165l.503.06 1.987.27h-.045c.405-1.057.93-2.46 1.575-4.147v.082l-2.25-1.5h-.045v-.044a10.97 10.97 0 00-.082-2.873v-.052h.045l2.145-1.613v.12l-1.808-4.05.113.06-2.625.525h-.068l-.045-.06a10.64 10.64 0 00-2.077-1.965l-.06-.045v-.067c.12-.826.247-1.733.382-2.656l.075.128-4.14-1.59.15-.045-1.5 2.25-.045.067h-.075a11.138 11.138 0 00-2.857.076h-.083l-.045-.068-1.605-2.145h.165l-4.057 1.808.075-.15c.165.825.345 1.725.517 2.624v.083l-.067.053c-.746.6-1.41 1.295-1.973 2.07l-.127.052h-.33l-.338-.053-.667-.097-1.32-.188.15-.09-1.53 4.118-.053-.157 2.25 1.499.068.045v.083a10.72 10.72 0 00.067 2.857v.083l-.067.045-2.153 1.597.045-.157c.605 1.39 1.203 2.745 1.793 4.065l-.143-.075 2.633-.518h.075l.045.06a10.693 10.693 0 002.07 1.973l.06.045v.075c-.135.908-.27 1.785-.398 2.648l-.067-.121 4.14 1.605-.128.038 1.5-2.25v-.053h.06c.954.107 1.918.084 2.865-.067h.06v.045l1.598 2.16h-.098l4.065-1.778v.068c-.202-1.057-.367-1.92-.502-2.64.571-.447 1.096-.95 1.567-1.5l.345-.413.113-.134-.098.149c-.067.098-.172.24-.33.428a10.194 10.194 0 01-1.5 1.552v-.044c.143.75.323 1.575.533 2.625v-.038h-.045l-4.05 1.822h-.053l-.045-.052-1.605-2.145.083.038c-.965.156-1.946.184-2.918.082l.098-.045-1.5 2.25-.045.067h-.075l-4.148-1.589h-.082v-.091c.13-.86.257-1.744.382-2.654l.053.112a11.005 11.005 0 01-2.123-2.018l.12.045-2.632.526h-.098l-.045-.091-1.8-4.05-.045-.097.083-.06 2.152-1.605-.052.12a11.192 11.192 0 01-.075-2.925l.06.127-2.25-1.5-.09-.06v-.104l1.597-4.14.038-.098h.105l1.327.188.66.097.338.052h.33c-.263.113-.068 0-.128.06a11.105 11.105 0 012.063-2.062l-.045.135c-.18-.907-.36-1.807-.518-2.632v-.113l.098-.045 4.057-1.793.098-.044.067.082c.548.75 1.095 1.5 1.598 2.152l-.128-.044a11.08 11.08 0 012.933-.075l-.128.06 1.5-2.25.053-.083h.097l4.14 1.605h.09v.09c-.135.93-.27 1.837-.39 2.655l-.045-.113c.791.578 1.5 1.259 2.108 2.025l-.105-.044 2.632-.51h.083l.037.082c.63 1.425 1.223 2.782 1.793 4.057v.075l-.068.046-2.152 1.597.037-.09c.151.965.171 1.947.06 2.917l-.037-.074 2.25 1.5h.045v.045l-1.62 4.132v.037l-1.965-.307-.51-.09-.248.067z" fill="#E0E0E0"/><path fill-rule="evenodd" clip-rule="evenodd" d="M344.67 95.123a8.917 8.917 0 01-1.658 1.74l.428 2.182-3.36 1.5-1.335-1.785a8.843 8.843 0 01-2.4.06l-1.238 1.852-3.435-1.327.323-2.198a8.903 8.903 0 01-1.74-1.657l-2.183.428-1.5-3.36 1.785-1.336a8.851 8.851 0 01-.06-2.4l-1.852-1.237 1.327-3.435 2.198.322a8.912 8.912 0 011.657-1.74l-.427-2.182 3.36-1.5 1.335 1.785a8.842 8.842 0 012.4-.06l1.237-1.853 3.443 1.328-.323 2.198a9.106 9.106 0 011.74 1.657l2.183-.428 1.5 3.368-1.785 1.328c.129.793.149 1.6.06 2.4l1.852 1.237-1.327 3.435-2.198-.322h-.007zm-3.75-3.75a3.953 3.953 0 10-5.108 2.25 3.953 3.953 0 005.138-2.25h-.03zM330.165 74.61a14.27 14.27 0 01-2.595 2.73l.675 3.42-5.25 2.34-2.085-2.797c-1.24.196-2.501.229-3.75.097l-1.943 2.895-5.385-2.078.503-3.45a14.24 14.24 0 01-2.73-2.594l-3.42.674-2.34-5.25 2.797-2.084a14.357 14.357 0 01-.097-3.75l-2.895-1.943 2.077-5.385 3.45.502a14.222 14.222 0 012.573-2.767l-.675-3.428 5.25-2.34 2.085 2.798c1.24-.196 2.501-.23 3.75-.098l1.942-2.894 5.385 2.077L327 54.75a14.205 14.205 0 012.722 2.595l3.428-.675 2.34 5.25-2.798 2.085c.197 1.24.23 2.501.098 3.75l2.902 1.995-2.077 5.385-3.45-.503v-.022zm-5.835-5.888a6.193 6.193 0 00-1.511-6.716 6.196 6.196 0 101.511 6.716z" fill="#E0E0E0"/><path d="M277.215 46.02a3.09 3.09 0 01.397-.443l1.14-1.147c.968-.96 2.318-2.25 3.825-3.705h.038v.188c-1.5-1.403-2.88-2.693-3.855-3.63l-1.148-1.118a3.085 3.085 0 01-.397-.443 2.4 2.4 0 01.465.368l1.207 1.057c1.005.9 2.393 2.168 3.908 3.578l.105.09-.105.098-.038.037a287.447 287.447 0 01-3.877 3.645l-1.2 1.087a2.372 2.372 0 01-.465.338zM265.5 35.693a2.734 2.734 0 01-.398.45L264 37.282c-.968.96-2.318 2.25-3.825 3.704l-.038.038v-.195c1.5 1.41 2.88 2.693 3.855 3.63l1.148 1.125a3.3 3.3 0 01.397.435 2.128 2.128 0 01-.465-.36c-.33-.285-.75-.645-1.207-1.057a443.469 443.469 0 01-3.908-3.578l-.097-.097.097-.098h.038c1.5-1.44 2.872-2.73 3.877-3.652l1.2-1.08a2.24 2.24 0 01.428-.405zm3 12.757c-.068 0 1.162-3.48 2.745-7.71 1.582-4.23 2.925-7.65 3-7.62.075.03-1.155 3.48-2.745 7.71s-2.918 7.65-3 7.62z" fill="#E0E0E0"/><path d="M290.52 55.845V47.31c0-5.415 0-13.155-.06-22.5l.112.113h-38.07l.135-.135v31.027l-.12-.12 27.495.06h9.863-2.018l-7.77.037-27.57.06h-.12V24.57h38.318v.113c0 9.36-.045 17.13-.06 22.56v7.911c0 .383-.135.69-.135.69z" fill="#E0E0E0"/><path d="M290.82 29.422c0 .075-8.595.136-19.193.136-10.597 0-19.2-.06-19.2-.136 0-.075 8.595-.134 19.2-.134 10.605 0 19.193.06 19.193.134zm-35.265-2.265a.516.516 0 11-1.035 0 .518.518 0 011.035 0zm1.35.511a.51.51 0 100-1.02.51.51 0 000 1.02zm2.385-.511a.516.516 0 01-.884.366.52.52 0 01.366-.883.516.516 0 01.518.517z" fill="#E0E0E0"/><path d="M216.915 39.78H128.88v35.76h88.035V39.78z" fill="#fff"/><path d="M216.915 75.54v-9.607c0-6.173 0-15.098-.053-26.153l.098.097-88.028.045.068-.172v35.76l-.135-.135 63.12.067 18.307.038h4.905-23.152l-63.21.06h-.135V39.51h88.275v.24c0 11.078-.038 20.025-.053 26.213v8.932c0 .42-.007.645-.007.645z" fill="#E0E0E0"/><path d="M129 44.602c0-.074 19.68-.134 43.95-.134 24.27 0 43.95.06 43.95.134 0 .076-19.672.143-43.95.143-24.277 0-43.95-.06-43.95-.142z" fill="#E0E0E0"/><path d="M132.652 42.45a.64.64 0 01-.637.637.64.64 0 01-.451-1.088.64.64 0 01.902 0 .64.64 0 01.186.451zm2.19 0a.64.64 0 01-.637.637.64.64 0 01-.451-1.088.64.64 0 01.902 0 .64.64 0 01.186.451zm1.515.637a.638.638 0 100-1.275.638.638 0 000 1.276z" fill="#EBEBEB" opacity=".3"/><path d="M157.62 50.415h-21.263v21.262h21.263V50.415zm53.205 5.7c0 .075-10.943.142-24.435.142-13.493 0-24.443-.067-24.443-.142 0-.075 10.943-.143 24.443-.143 13.5 0 24.435.068 24.435.143zm0 4.335c0 .075-10.943.135-24.435.135-13.493 0-24.443-.06-24.443-.135 0-.075 10.943-.143 24.443-.143 13.5 0 24.435.06 24.435.143zm-17.415 4.328a.974.974 0 01-.315 0h-.923l-3.367.044-11.123.046-11.13-.045-3.367-.045h-.923a.974.974 0 01-.315 0c.105-.01.21-.01.315 0h.923l3.367-.046h22.253l3.367.046h.923c.105-.01.21-.01.315 0z" fill="#E0E0E0"/><path d="M354.645 333.818c0 .105-74.835.195-167.138.195-92.302 0-167.152-.09-167.152-.195 0-.105 74.82-.196 167.152-.196 92.333 0 167.138.083 167.138.196z" fill="#263238"/><path d="M326.37 101.558H221.272v85.62H326.37v-85.62z" fill="#E0E0E0"/><path d="M318.9 106.995H213.802v85.62H318.9v-85.62z" fill="#EBEBEB"/><path d="M311.407 112.958H203.505v87.907h107.902v-87.907z" fill="#fff"/><path d="M311.407 200.865v-6.315c0-4.11 0-10.133-.037-17.813 0-15.345-.053-37.297-.09-63.75l.165.166H203.557l.195-.195v87.907l-.18-.18 78 .09 22.065.045h7.86-7.792l-22.028.045-78.082.09h-.173V112.68h108.263v.165c-.038 26.52-.068 48.51-.083 63.885 0 7.657-.037 13.672-.045 17.775v4.657c0 1.058-.15 1.703-.15 1.703z" fill="#263238"/><path d="M216.66 125.663l-1.163.42 1.163.427v.435l-1.658-.63v-.458l1.658-.629v.435zm2.73-.796v2.438h-.563v-.998h-1.11v.998h-.562v-2.438h.562v.96h1.11v-.96h.563zm1.11.458h-.75v-.458h2.122v.458h-.75v1.98h-.622v-1.98zm3.833 1.98v-1.5l-.75 1.2h-.255l-.713-1.17v1.433h-.532v-2.438h.465l.915 1.5.9-1.5h.457v2.438l-.487.037zm1.102-2.438h.563v1.98h1.252v.458h-1.785l-.03-2.438zm3.675.99v.458l-1.65.63v-.435l1.155-.427-1.155-.42v-.413l1.65.607zm-13.433 66.466l-1.177.427 1.162.42v.435l-1.657-.63v-.457l1.657-.63.015.435zm1.238-1.291h.488l-1.148 3.278h-.487l1.147-3.278zm2.835.496v2.437h-.57v-.997h-1.08v.997h-.563v-2.437h.563v.96h1.102v-.96h.548zm1.095.472h-.75v-.457h2.115V192h-.75v1.98h-.57l-.045-1.98zm3.862 1.965v-1.462l-.75 1.207h-.255l-.712-1.177v1.432h-.525v-2.437h.465l.907 1.5.9-1.5h.465v2.437h-.495zm1.103-2.437h.563v1.972h1.222v.458h-1.785v-2.43zm3.69.99v.457l-1.658.63v-.435l1.163-.42-1.163-.427v-.435l1.658.63z" fill="#DC3001"/><path d="M224.302 132.33l-1.237.473 1.237.48v.285l-1.56-.615v-.3l1.56-.615v.292zm2.686-.742v2.437h-.345v-1.087h-1.395v1.087h-.353v-2.437h.353v1.05h1.395v-1.05h.345zm2.512 2.13v.307h-1.77v-2.437h1.725v.3h-1.373v.75h1.223v.292h-1.223v.75l1.418.038zm2.1-.308h-1.298l-.262.615h-.36l1.102-2.437h.345l1.103 2.437h-.368l-.262-.615zm-.12-.277l-.525-1.193-.533 1.193h1.058zm1.11-1.546h1.027a1.23 1.23 0 011.319 1.219 1.213 1.213 0 01-.393.898 1.228 1.228 0 01-.926.321h-1.027v-2.438zm1.005 2.13a.913.913 0 00.647-1.562.918.918 0 00-.647-.268h-.66v1.83h.66zm3.292-1.064v.3l-1.56.615v-.285l1.238-.48-1.238-.473v-.292l1.56.615zm-12.585 8.017l-1.237.473 1.237.48v.285l-1.56-.615V141l1.56-.615v.285zm1.08-.42h-.84v-.3h2.018v.3h-.81v2.138h-.345l-.023-2.138zm1.553-.322h.353v2.437h-.353v-2.437zm1.56.322h-.833v-.3h2.01v.3h-.832v2.138h-.345v-2.138zm1.56-.322h.345v2.13h1.35v.307h-1.665l-.03-2.437zm3.832 2.13v.307h-1.77v-2.437h1.718v.3H232.5v.75h1.222v.299H232.5v.75l1.387.031zm1.988-1.058v.3l-1.56.615v-.285l1.237-.48-1.237-.472v-.293l1.56.615zm1.53-1.072h.345v2.13h1.32v.307h-1.665v-2.437zm1.845 1.515a.962.962 0 011.633-.7.958.958 0 01.215 1.048.962.962 0 01-.888.597.92.92 0 01-.687-.262.913.913 0 01-.273-.683zm1.575 0a.615.615 0 00-.155-.484.625.625 0 00-.927 0 .615.615 0 00-.155.484.61.61 0 00.155.483.621.621 0 001.082-.483zm1.77-.938v.323h-.075a.543.543 0 00-.439.173.557.557 0 00-.146.449v.923h-.33v-1.846h.315v.308a.701.701 0 01.675-.33zm2.047 1.05h-1.5a.624.624 0 00.668.54.675.675 0 00.532-.225l.18.217a1 1 0 01-1.068.234 1.002 1.002 0 01-.649-.879.91.91 0 01.93-.937.888.888 0 01.856.582.88.88 0 01.051.363.46.46 0 010 .105zm-1.5-.24h1.185a.593.593 0 10-1.185 0zm5.033-.015v1.065h-.338v-1.027c0-.36-.172-.533-.472-.533a.532.532 0 00-.555.608v.952h-.338v-1.027c0-.36-.172-.533-.472-.533a.532.532 0 00-.555.608v.952h-.33v-1.845h.315v.278a.739.739 0 01.637-.293.681.681 0 01.645.337.816.816 0 01.705-.337.692.692 0 01.309.044.692.692 0 01.42.44c.033.1.043.207.029.311zm1.485-1.35c0-.029.006-.058.017-.085a.206.206 0 01.049-.071.208.208 0 01.159-.061.192.192 0 01.085.011.206.206 0 01.122.115.201.201 0 01.018.084.219.219 0 01-.225.225.208.208 0 01-.086-.015.215.215 0 01-.139-.203zm.06.57h.337v1.845h-.307l-.03-1.845zm2.88.923a.894.894 0 01-.257.676.903.903 0 01-.673.269.805.805 0 01-.645-.3v.952h-.337v-2.52h.322v.293a.787.787 0 01.66-.308.89.89 0 01.872.573c.045.116.064.24.058.365zm-.337 0a.623.623 0 10-1.246 0 .623.623 0 001.246 0zm.562.727l.142-.263c.194.121.417.186.645.188.308 0 .443-.09.443-.248 0-.42-1.17-.06-1.17-.795 0-.33.3-.547.75-.547.233-.005.463.052.667.165l-.142.262a.99.99 0 00-.533-.142c-.292 0-.435.105-.435.255 0 .427 1.17.075 1.17.795 0 .33-.307.547-.795.547a1.356 1.356 0 01-.742-.217zm3.675-1.65v1.845h-.315v-.278a.741.741 0 01-.278.228.766.766 0 01-.352.073.757.757 0 01-.753-.494.741.741 0 01-.042-.317v-1.057h.337v1.02c0 .367.18.547.495.547a.532.532 0 00.551-.377.533.533 0 00.019-.238v-.952h.338zm3.75.78v1.065h-.33v-1.027c0-.36-.173-.533-.48-.533a.525.525 0 00-.416.176.536.536 0 00-.132.432v.952h-.337v-1.027c0-.36-.173-.533-.473-.533a.527.527 0 00-.421.173.529.529 0 00-.134.435v.952h-.337v-1.845h.322v.278a.75.75 0 01.638-.293.682.682 0 01.368.076c.112.06.206.151.269.262a.839.839 0 01.713-.338.702.702 0 01.725.485c.031.1.04.206.025.31zm3-.63l-1.23.473 1.23.48v.285l-1.553-.615V141l1.553-.615v.285zm1.267-1.237h.308l-1.148 3.277h-.307l1.147-3.277zm1.125.817h-.832v-.3h2.017v.3h-.84v2.138h-.345v-2.138zm1.56-.322h.345v2.437h-.345v-2.437zm1.56.322h-.832v-.3h2.01v.3h-.833v2.138h-.345v-2.138zm1.56-.322h.345v2.13h1.32v.307h-1.665v-2.437zm3.833 2.13v.307h-1.77v-2.437h1.717v.3h-1.372v.75h1.222v.299h-1.222v.75l1.425.031zm1.988-1.058v.3l-1.56.615v-.285l1.237-.48-1.237-.472v-.293l1.56.615zm-51.841 8.01l-1.237.48 1.237.473v.292l-1.56-.623v-.292l1.56-.623v.293zm1.283-1.26h.3l-1.148 3.278h-.307l1.155-3.278zm2.625.518v2.437h-.345v-1.087H226.5v1.087h-.353v-2.437h.353v1.05h1.395v-1.05h.315zm2.497 2.13v.307h-1.762v-2.437h1.717v.307h-1.372v.75h1.222v.3h-1.222v.75l1.417.023zm2.115-.3h-1.297l-.263.607h-.36l1.103-2.437h.345l1.102 2.437h-.36l-.27-.607zm-.12-.278l-.525-1.2-.525 1.2h1.05zm1.11-1.553h1.028a1.228 1.228 0 011.216.729 1.236 1.236 0 010 .98 1.223 1.223 0 01-1.216.729h-1.028v-2.438zm1.005 2.13a.899.899 0 00.375-.044.898.898 0 00.545-.498.902.902 0 000-.738.915.915 0 00-.92-.542h-.652v1.822h.652zm3.293-1.057v.292l-1.56.623V150l1.237-.473-1.237-.48v-.292l1.56.585zm-20.273 6.908l-1.23.48 1.23.472v.3l-1.56-.615v-.3l1.56-.615v.278zm2.663 1.034c0 .42-.315.66-.93.66h-1.163v-2.437h1.088c.562 0 .877.24.877.63a.626.626 0 00-.323.617.618.618 0 00.451.53zm-1.748-1.5v.75h.75c.36 0 .555-.135.555-.39s-.195-.39-.555-.39l-.75.03zm1.395 1.5c0-.285-.21-.412-.592-.412h-.803v.81h.803c.412-.023.622-.143.622-.42l-.03.022zm.72-.532a1.304 1.304 0 01.764-1.236 1.298 1.298 0 11.534 2.481 1.243 1.243 0 01-.917-.343 1.232 1.232 0 01-.381-.902zm2.25 0a.955.955 0 00-1.127-.959.955.955 0 00-.705 1.301.952.952 0 00.887.588.92.92 0 00.938-.93h.007zm.87-1.245H225a1.228 1.228 0 01.925.321 1.213 1.213 0 01.29 1.388 1.23 1.23 0 01-.719.665 1.21 1.21 0 01-.496.063h-1.028l.015-2.437zm1.005 2.137a.914.914 0 100-1.83h-.66v1.83h.66zm2.693-.54v.84h-.345v-.847l-.968-1.59h.375l.75 1.29.75-1.29h.345l-.907 1.597zm2.745-.524v.3l-1.56.615v-.293l1.237-.472-1.237-.48V156l1.56.578zm-12.593 8.009l-1.23.48 1.23.473v.293l-1.56-.616v-.3l1.56-.614v.284zm2.663-.734v2.43h-.345v-1.08h-1.403v1.08h-.345v-2.43h.345v1.042h1.403v-1.042h.345zm1.312 0v2.43h-.345v-2.131h-.547v-.299h.892zm2.16 1.064v.3l-1.56.616v-.293l1.238-.473-1.238-.48v-.284l1.56.614zm1.56-1.064h.255v2.212h1.365v.218h-1.62v-2.43zm1.785 1.515a.936.936 0 01.579-.854.923.923 0 011.011.206.922.922 0 01.199 1.013.935.935 0 01-.859.572.895.895 0 01-.67-.266.91.91 0 01-.26-.671zm1.605 0a.682.682 0 10-.675.712.674.674 0 00.637-.441.658.658 0 00.038-.271zm1.68-.93v.24h-.06a.598.598 0 00-.594.417.592.592 0 00-.021.258v.93h-.247v-1.83h.232v.36a.75.75 0 01.69-.375zm2.018 1.004h-1.5a.691.691 0 00.239.479.693.693 0 00.511.159.754.754 0 00.563-.24l.135.165a.898.898 0 01-.705.3.916.916 0 01-.688-.257.91.91 0 01-.272-.68.875.875 0 01.245-.658.888.888 0 01.647-.273.863.863 0 01.647.271.855.855 0 01.238.66l-.06.074zm-1.5-.179h1.298a.653.653 0 00-1.298 0zm5.025-.038v1.058h-.247v-1.035c0-.383-.195-.585-.525-.585a.577.577 0 00-.458.188.587.587 0 00-.15.472v.96h-.247v-1.035c0-.383-.195-.585-.533-.585a.6.6 0 00-.46.187.607.607 0 00-.155.473v.96h-.247v-1.83h.24v.337a.75.75 0 01.675-.352.66.66 0 01.645.39.8.8 0 01.75-.39.704.704 0 01.686.489c.03.096.039.198.026.298zm1.522-1.35a.179.179 0 01.056-.122.17.17 0 01.124-.05.178.178 0 01.069.01.173.173 0 01.098.094.179.179 0 01.013.068.176.176 0 01-.052.127.18.18 0 01-.308-.127zm.053.578h.247v1.83h-.217l-.03-1.83zm2.79.914a.893.893 0 01-.908.938.794.794 0 01-.697-.368v1.02h-.248v-2.505h.24v.36a.81.81 0 01.705-.375.89.89 0 01.852.573.889.889 0 01.056.357zm-.24 0a.681.681 0 00-1.165-.482.681.681 0 10.965.965.682.682 0 00.2-.483zm.48.706l.112-.195c.19.138.419.211.653.21.345 0 .488-.12.488-.3 0-.48-1.186-.105-1.186-.825 0-.3.263-.525.75-.525.227-.004.451.056.646.172l-.106.203a.933.933 0 00-.54-.158c-.33 0-.479.128-.479.3 0 .495 1.184.12 1.184.825 0 .315-.277.525-.75.525a1.195 1.195 0 01-.772-.232zm3.615-1.62v1.83h-.24v-.33a.75.75 0 01-.653.352.703.703 0 01-.719-.481.706.706 0 01-.031-.306v-1.065h.248v1.035c0 .39.195.592.547.592a.6.6 0 00.469-.187.59.59 0 00.154-.48v-.96h.225zm3.705.772v1.058h-.24v-1.035c0-.383-.195-.585-.533-.585a.58.58 0 00-.607.659v.961h-.248v-1.035c0-.383-.195-.585-.532-.585a.592.592 0 00-.608.659v.961h-.247v-1.83h.232v.337a.748.748 0 01.675-.352.656.656 0 01.387.093.66.66 0 01.266.297.744.744 0 01.75-.39.698.698 0 01.533.232.68.68 0 01.146.259.69.69 0 01.026.296zm3.247-1.522v2.58h-.232v-.36a.795.795 0 01-.705.382.937.937 0 010-1.867.797.797 0 01.697.367v-1.102h.24zm-.24 1.665a.682.682 0 10-.675.712.674.674 0 00.637-.441.676.676 0 00.038-.271zm.743 0a.936.936 0 11.937.937.9.9 0 01-.672-.265.9.9 0 01-.265-.672zm1.612 0a.682.682 0 10-.675.712.664.664 0 00.675-.712zm.758-1.665h.24v2.58h-.24v-2.58zm.75 1.665a.927.927 0 011.116-.904.932.932 0 01.672 1.269.933.933 0 01-.858.572.9.9 0 01-.93-.937zm1.605 0a.682.682 0 10-.675.712.664.664 0 00.675-.712zm1.68-.93v.24h-.06a.593.593 0 00-.615.675v.93h-.248v-1.83h.233v.36a.75.75 0 01.69-.375zm1.125 1.635l.112-.195c.188.14.418.214.653.21.345 0 .487-.12.487-.3 0-.48-1.185-.105-1.185-.825 0-.3.255-.525.75-.525a1.26 1.26 0 01.653.172l-.113.203a.933.933 0 00-.54-.158c-.33 0-.472.128-.472.3 0 .495 1.185.12 1.185.825 0 .315-.278.525-.75.525a1.184 1.184 0 01-.78-.232zm1.897-2.198a.182.182 0 01.055-.122.174.174 0 01.125-.05.173.173 0 01.127.047.17.17 0 01.053.125.177.177 0 01-.053.127.179.179 0 01-.254 0 .177.177 0 01-.053-.127zm.06.578h.24v1.83h-.24v-1.83zm1.898 1.717a.585.585 0 01-.39.135.484.484 0 01-.533-.533v-1.11h-.33v-.21h.33v-.397h.218v.397h.555v.21h-.555v1.088a.296.296 0 00.078.241.29.29 0 00.237.089.42.42 0 00.27-.09l.12.18zm2.737-1.02v1.133h-.24v-.285a.673.673 0 01-.63.307c-.412 0-.667-.217-.667-.532 0-.315.18-.525.705-.525h.585v-.105a.461.461 0 00-.14-.371.449.449 0 00-.378-.117.906.906 0 00-.607.218l-.113-.188c.213-.169.479-.256.75-.247a.653.653 0 01.735.712zm-.247.585v-.3h-.578c-.352 0-.465.143-.465.33 0 .188.173.345.458.345a.585.585 0 00.585-.36v-.015zm3.937-.51v1.058h-.247v-1.035c0-.383-.195-.585-.525-.585a.6.6 0 00-.46.187.59.59 0 00-.155.473v.96h-.248v-1.035c0-.383-.195-.585-.525-.585a.595.595 0 00-.615.66v.96h-.247v-1.83h.24v.337a.746.746 0 01.667-.352.658.658 0 01.653.39.785.785 0 01.75-.39.704.704 0 01.686.489.683.683 0 01.026.298zm2.265.217h-1.5a.691.691 0 00.239.479.697.697 0 00.511.159.75.75 0 00.563-.24l.135.165a.898.898 0 01-.705.3.919.919 0 01-.687-.257.898.898 0 01-.273-.68c0-.237.094-.464.261-.632a.896.896 0 011.262 0 .893.893 0 01.262.632s-.068.052-.068.074zm-1.5-.179h1.298a.65.65 0 00-1.085-.416.648.648 0 00-.213.416zm2.97.907a.575.575 0 01-.382.135.49.49 0 01-.54-.533v-1.11h-.323v-.21h.323v-.397h.247v.397h.555v.21h-.555v1.088a.282.282 0 00.012.129.29.29 0 00.303.201.401.401 0 00.27-.09l.09.18zm.698-.06a.526.526 0 01-.053.202l-.142.48h-.173l.12-.502a.184.184 0 01-.094-.068.174.174 0 01-.033-.112c0-.05.019-.097.055-.133a.186.186 0 01.132-.055.182.182 0 01.073.013.179.179 0 01.115.175zm1.245-.743a.89.89 0 01.268-.672.893.893 0 01.677-.258.826.826 0 01.75.368l-.188.12a.622.622 0 00-.532-.27.752.752 0 00-.374 1.152.752.752 0 00.374.273.612.612 0 00.532-.263l.188.12a.81.81 0 01-.75.368.904.904 0 01-.945-.938zm1.927.001a.93.93 0 11.938.937.908.908 0 01-.938-.937zm1.613 0a.661.661 0 00-.166-.53.666.666 0 00-.509-.22.748.748 0 000 1.425.657.657 0 00.479-.196.68.68 0 00.147-.22.677.677 0 00.049-.259zm2.437-.143v1.058h-.247v-1.035a.506.506 0 00-.548-.585.592.592 0 00-.615.4.603.603 0 00-.03.26v.96h-.247v-1.83h.24v.337a.745.745 0 01.697-.352.704.704 0 01.75.787zm.413.848l.112-.195c.188.14.418.214.653.21.345 0 .487-.12.487-.3 0-.48-1.185-.105-1.185-.825 0-.3.255-.525.75-.525a1.26 1.26 0 01.653.172l-.113.203a.933.933 0 00-.54-.158c-.33 0-.472.128-.472.3 0 .495 1.185.12 1.185.825 0 .315-.278.525-.75.525a1.184 1.184 0 01-.78-.232zm3.547-.631h-1.5a.691.691 0 00.24.479c.07.06.151.104.239.132.088.027.18.036.271.027a.75.75 0 00.563-.24l.135.165a.898.898 0 01-.705.3.892.892 0 01-.687-.257.895.895 0 01-.273-.68.876.876 0 01.245-.658.884.884 0 01.647-.273.873.873 0 01.885.931l-.06.074zm-1.5-.179H285a.65.65 0 00-1.085-.416.653.653 0 00-.213.416h.045zm1.823.105a.91.91 0 01.268-.673.893.893 0 01.677-.257.8.8 0 01.75.367l-.18.12a.637.637 0 00-.533-.27.75.75 0 000 1.425.628.628 0 00.533-.262l.18.12a.796.796 0 01-.75.367.896.896 0 01-.366-.061.891.891 0 01-.516-.511.913.913 0 01-.063-.365zm3.127.802a.583.583 0 01-.39.135.488.488 0 01-.509-.319.472.472 0 01-.023-.214v-1.11h-.33v-.21h.33v-.397H288v.397h.555v.21H288v1.088a.282.282 0 00.012.129.29.29 0 00.303.201.419.419 0 00.27-.09l.112.18zm1.973-.728h-1.5a.673.673 0 00.239.479.684.684 0 00.511.159.754.754 0 00.562-.24l.135.165a.89.89 0 01-.705.3.914.914 0 01-.895-.568.916.916 0 01-.065-.369.893.893 0 111.785 0s-.067.052-.067.074zm-1.5-.179h1.297a.649.649 0 00-1.085-.416.651.651 0 00-.212.416zm2.97.907a.585.585 0 01-.39.135.492.492 0 01-.392-.14.492.492 0 01-.141-.393v-1.11h-.33v-.21h.33v-.397h.248v.397h.555v.21h-.555v1.088a.282.282 0 00.012.129.29.29 0 00.303.201.401.401 0 00.27-.09l.09.18zm2.092-1.717v1.83H294v-.33a.755.755 0 01-.66.352.75.75 0 01-.75-.787v-1.065h.247v1.035c0 .39.203.592.548.592a.6.6 0 00.468-.187.59.59 0 00.154-.48v-.96h.225zm2.288.989h-1.5a.664.664 0 00.237.482.686.686 0 00.513.156.696.696 0 00.555-.24l.142.165a.963.963 0 01-1.044.234.966.966 0 01-.621-.871.882.882 0 01.893-.931.873.873 0 01.885.931l-.06.074zm-1.5-.179h1.297a.651.651 0 00-1.297 0zm2.925-.825v.24h-.06a.59.59 0 00-.615.675v.93H297v-1.83h.24v.36a.685.685 0 01.705-.375zm-80.175 4.882v1.133h-.233v-.286a.692.692 0 01-.63.308c-.412 0-.667-.218-.667-.533 0-.315.18-.517.705-.517h.555v-.113c0-.315-.173-.487-.518-.487a.92.92 0 00-.607.217l-.113-.187c.214-.167.479-.254.75-.248a.643.643 0 01.724.415.657.657 0 01.034.298zm-.248.585v-.3h-.57c-.352 0-.472.143-.472.33 0 .188.172.345.465.345a.582.582 0 00.555-.375h.022zm2.596-2.032v2.58h-.233v-.36a.798.798 0 01-.712.382.937.937 0 010-1.867.788.788 0 01.697.367v-1.102h.248zm-.24 1.665a.68.68 0 00-.442-.609.68.68 0 00-.868.906.685.685 0 00.627.415.68.68 0 00.499-.206.667.667 0 00.184-.506zm.869-1.493a.182.182 0 01.055-.122.174.174 0 01.125-.05.186.186 0 01.07.01.18.18 0 01.118.162.187.187 0 01-.368 0zm.06.578h.248v1.83h-.248v-1.83zm2.79.915a.886.886 0 01-.252.668.89.89 0 01-.663.269.808.808 0 01-.697-.368v1.02h-.248v-2.504H222v.367a.798.798 0 01.705-.383.898.898 0 01.835.577.89.89 0 01.057.354zm-.247 0a.682.682 0 10-1.364-.001.682.682 0 001.364.001zm.69-1.493a.182.182 0 01.055-.122.174.174 0 01.125-.05.157.157 0 01.068.01.17.17 0 01.112.162.181.181 0 01-.249.166.165.165 0 01-.058-.039.181.181 0 01-.053-.127zm.06.578h.248v1.83h-.248v-1.83zm.675 1.627l.112-.195c.19.138.419.212.653.21.345 0 .487-.12.487-.3 0-.48-1.185-.105-1.185-.825 0-.3.255-.525.75-.525.227-.002.45.058.645.173l-.105.202a.94.94 0 00-.54-.157c-.33 0-.48.127-.48.3 0 .495 1.185.12 1.185.825 0 .315-.277.525-.75.525a1.196 1.196 0 01-.772-.233zm1.77-.712a.91.91 0 01.268-.673.888.888 0 01.677-.257.821.821 0 01.75.367l-.188.12a.638.638 0 00-.532-.27.748.748 0 000 1.425.633.633 0 00.532-.262l.188.12a.81.81 0 01-.325.286.812.812 0 01-.425.081.899.899 0 01-.677-.262.913.913 0 01-.268-.675zm2.085-1.493a.182.182 0 01.055-.122.173.173 0 01.125-.05.159.159 0 01.068.01.17.17 0 01.112.162.181.181 0 01-.249.166.165.165 0 01-.058-.039.181.181 0 01-.053-.127zm.06.578h.247v1.83h-.247v-1.83zm2.617.772v1.058h-.247v-1.035a.506.506 0 00-.548-.585.592.592 0 00-.615.4.603.603 0 00-.03.26v.96h-.247v-1.83h.24v.337a.745.745 0 01.697-.353.706.706 0 01.75.788zm2.37-.772v1.627a.805.805 0 01-.915.915c-.31.011-.613-.09-.855-.285l.128-.187c.209.174.477.263.75.247.465 0 .675-.21.675-.66v-.232a.826.826 0 01-.713.352.893.893 0 110-1.777.816.816 0 01.75.367v-.352l.18-.015zm-.24.87a.694.694 0 00-.414-.661.703.703 0 00-.768.137.695.695 0 00.485 1.199.659.659 0 00.648-.403.65.65 0 00.049-.265v-.007zm3.435.127h-1.5a.671.671 0 00.75.63.693.693 0 00.555-.24l.143.165a.966.966 0 01-1.486-.108.968.968 0 01-.179-.529.881.881 0 01.539-.864.89.89 0 01.353-.067.882.882 0 01.648.271.867.867 0 01.237.66l-.06.082zm-1.5-.187h1.298a.65.65 0 00-1.085-.416.653.653 0 00-.213.416zm2.003-1.56h.247v2.58h-.247v-2.58zm.877.172a.179.179 0 01.056-.122.17.17 0 01.124-.05.177.177 0 01.171.104c.01.021.016.044.017.068a.196.196 0 01-.065.108.187.187 0 01-.303-.108zm.06.578h.248v1.83h-.248v-1.83zm1.898 1.717a.575.575 0 01-.382.135.49.49 0 01-.54-.532v-1.11h-.33v-.21h.33v-.398h.247v.398h.555v.21h-.555v1.095a.293.293 0 00.315.329.405.405 0 00.27-.089l.09.172zm.69-.09a.509.509 0 01-.045.203l-.15.48h-.165l.12-.503a.187.187 0 01-.095-.068.186.186 0 01-.033-.112.188.188 0 01.259-.173.17.17 0 01.059.041c.017.017.03.038.038.061a.174.174 0 01.012.071zm1.185 0l.112-.195c.189.141.418.214.653.21.345 0 .487-.12.487-.3 0-.48-1.185-.105-1.185-.825 0-.3.255-.525.75-.525.23-.003.455.057.653.172l-.113.203a.933.933 0 00-.54-.158c-.33 0-.472.128-.472.3 0 .495 1.185.12 1.185.825 0 .315-.278.525-.75.525a1.18 1.18 0 01-.78-.232zm3.547-.63h-1.5a.68.68 0 00.48.603.684.684 0 00.27.027.75.75 0 00.563-.24l.135.165a.966.966 0 01-1.486-.108.96.96 0 01-.179-.529.864.864 0 01.242-.661.893.893 0 01.65-.27.863.863 0 01.647.271.855.855 0 01.238.66l-.06.082zm-1.5-.187h1.298a.653.653 0 00-1.298 0zm3.676-1.56v2.58h-.24v-.36a.763.763 0 01-.298.293.74.74 0 01-.407.089.937.937 0 010-1.867.788.788 0 01.697.367v-1.102h.248zm-.24 1.665a.68.68 0 00-.442-.609.68.68 0 00-.868.906.685.685 0 00.627.415.68.68 0 00.499-.206.667.667 0 00.184-.506zm3.51-1.665v2.58h-.24v-.36a.802.802 0 01-.705.382.937.937 0 010-1.867.797.797 0 01.697.367v-1.102h.248zm-.248 1.665a.682.682 0 10-.675.712.674.674 0 00.637-.441.676.676 0 00.038-.271zm.877-1.493c0-.036.011-.07.031-.1a.167.167 0 01.08-.066.185.185 0 01.104-.011.181.181 0 01.092.05.174.174 0 01.039.196.174.174 0 01-.066.081.184.184 0 01-.1.03.167.167 0 01-.07-.012.168.168 0 01-.098-.098.167.167 0 01-.012-.07zm.053.578h.24v1.83h-.248l.008-1.83zm2.318.697v1.133h-.24v-.285a.673.673 0 01-.63.307c-.413 0-.668-.217-.668-.532 0-.315.18-.518.705-.518h.585v-.112a.447.447 0 00-.315-.473.433.433 0 00-.202-.015.907.907 0 00-.608.218l-.112-.188c.212-.169.478-.256.75-.247a.65.65 0 01.698.423.66.66 0 01.037.289zm-.248.585v-.3h-.577c-.353 0-.465.143-.465.33 0 .188.172.345.457.345a.588.588 0 00.585-.375zm3.937-.51v1.058h-.247v-1.035c0-.383-.195-.585-.525-.585a.596.596 0 00-.59.406.606.606 0 00-.025.254v.96h-.248v-1.035c0-.383-.195-.585-.525-.585a.592.592 0 00-.615.66v.96h-.247v-1.83H255v.337a.746.746 0 01.667-.352.663.663 0 01.653.39.785.785 0 01.75-.39.687.687 0 01.528.235.688.688 0 01.169.552zm2.115-.645l-1.237.48 1.237.473v.292l-1.56-.615v-.3l1.56-.615v.285zm1.283-1.222h.3l-1.147 3.277h-.3l1.147-3.277zm2.632.472v2.43h-.352v-1.08h-1.395v1.08h-.353V168h.353v1.043h1.395V168h.352zm1.283 0v2.43h-.33v-2.13h-.548v-.3h.878zm2.152 1.088v.3l-1.56.615v-.293l1.245-.472-1.245-.48v-.285l1.56.615zm-49.395 8.017l-1.23.473 1.23.48v.284l-1.56-.614v-.3l1.56-.616v.293zm2.565.105c0 .525-.382.848-1.019.848h-.601v.75h-.344v-2.43h.945c.637-.015 1.019.3 1.019.832zm-.352 0c0-.345-.233-.547-.675-.547h-.593v1.087h.593c.442 0 .675-.195.675-.54zm2.317.218v.3l-1.552.614v-.284l1.237-.48-1.237-.473v-.293l1.552.616zm2.963-.323l-1.237.473 1.237.48v.284l-1.56-.614v-.3l1.56-.616v.293zm.592-.742h.353v2.43h-.353v-2.43zm3.338 2.43V177l-.885 1.5h-.158l-.885-1.5v1.763h-.33v-2.43h.285l1.013 1.71 1.005-1.71h.285v2.43l-.33.03zm2.745-1.23h.337v.937a1.443 1.443 0 01-.922.308 1.253 1.253 0 01-1.004-.59 1.249 1.249 0 01.292-1.635 1.25 1.25 0 011.657.109l-.218.218a.962.962 0 00-.705-.285.939.939 0 00-.663 1.6.939.939 0 00.663.275 1 1 0 00.57-.158l-.007-.779zm1.71.937l.127-.27c.226.186.51.287.803.285.427 0 .607-.165.607-.375 0-.6-1.5-.225-1.5-1.125 0-.375.293-.697.93-.697.278-.006.552.069.788.217l-.12.278a1.26 1.26 0 00-.668-.203c-.412 0-.592.18-.592.39 0 .593 1.5.225 1.5 1.118 0 .367-.3.69-.945.69a1.455 1.455 0 01-.93-.308zm4.035.293l-.525-.75h-.75v.75h-.345v-2.43h.945c.637 0 1.02.315 1.02.847a.748.748 0 01-.54.75l.577.818-.382.015zm0-1.583c0-.345-.233-.547-.675-.547h-.593v1.087h.593c.405 0 .675-.195.675-.54zm.675.368c-.002-.168.03-.335.094-.49a1.24 1.24 0 01.703-.678c.157-.059.325-.086.493-.077a1.208 1.208 0 01.93.382l-.233.218a.875.875 0 00-.682-.293.937.937 0 000 1.875.911.911 0 00.682-.292l.233.217a1.215 1.215 0 01-.93.383 1.236 1.236 0 01-1.196-.756 1.245 1.245 0 01-.094-.489zm2.58-.578h1.56v.27h-1.56V177zm0 .825h1.56v.27h-1.56v-.27zm2.94-1.462h.292v.937h-.247l-.045-.937zm.63 0h.292v.937h-.247l-.045-.937zm.877 0h.345v2.137h1.32v.3h-1.665v-2.437zm1.823 1.507a.963.963 0 01.582-.898.955.955 0 011.051.199.955.955 0 01.215 1.048.959.959 0 01-.888.596.918.918 0 01-.96-.945zm1.575 0a.636.636 0 00-.155-.484.635.635 0 00-.464-.207.621.621 0 00-.593.433.643.643 0 00-.026.258.624.624 0 101.238 0zm1.792-.937v.322h-.075a.552.552 0 00-.562.382.561.561 0 00-.023.241v.915h-.33v-1.838h.315v.308a.75.75 0 01.675-.33zm2.055 1.049h-1.5a.626.626 0 00.668.54.685.685 0 00.532-.217l.188.21a1.01 1.01 0 01-1.526-.111 1.012 1.012 0 01-.199-.534.912.912 0 01.263-.669.9.9 0 01.667-.268.881.881 0 01.907.952v.097zm-1.5-.239h1.185a.596.596 0 00-.982-.362.604.604 0 00-.203.362zm5.025.007v1.057h-.33v-1.057c0-.36-.18-.54-.48-.54s-.555.21-.555.615v.945h-.33v-1.02c0-.36-.172-.54-.48-.54a.534.534 0 00-.421.178.545.545 0 00-.134.437v.945h-.33v-1.838h.338v.27a.75.75 0 01.63-.292.678.678 0 01.645.345.822.822 0 01.705-.345.741.741 0 01.559.253.754.754 0 01.183.587zm1.486-1.365a.223.223 0 01.144-.21.22.22 0 01.088-.015.217.217 0 110 .435.23.23 0 01-.086-.011.22.22 0 01-.146-.199zm.06.57h.337v1.838h-.337v-1.838zm2.879.915a.882.882 0 01-.254.679.897.897 0 01-.675.266.75.75 0 01-.646-.3v.953h-.322v-2.513h.315v.293a.743.743 0 01.66-.315.895.895 0 01.667.265.889.889 0 01.255.672zm-.337 0a.62.62 0 00-.404-.553.622.622 0 10-.219 1.206.626.626 0 00.457-.188.613.613 0 00.166-.465zm.57.728l.135-.263c.191.127.415.195.645.195.315 0 .442-.097.442-.255 0-.412-1.17-.052-1.17-.75 0-.33.3-.555.75-.555.234-.003.465.057.668.173l-.135.262a.948.948 0 00-.533-.15c-.292 0-.435.113-.435.255 0 .435 1.163.083 1.163.795 0 .338-.3.548-.795.548a1.267 1.267 0 01-.735-.255zm3.69-1.643v1.838h-.315v-.293a.75.75 0 01-.63.3.747.747 0 01-.75-.488.75.75 0 01-.045-.314v-1.058h.338v1.02c0 .36.18.54.495.54a.534.534 0 00.57-.607v-.953l.337.015zm3.698.795v1.057h-.338v-1.057c0-.36-.172-.54-.472-.54s-.555.21-.555.615v.945h-.338v-1.02c0-.36-.172-.54-.472-.54s-.555.21-.555.615v.945h-.33v-1.838h.292v.27a.746.746 0 01.638-.292.677.677 0 01.637.345.836.836 0 01.713-.345.752.752 0 01.78.84zm.509-1.387h.293v.937h-.248l-.045-.937zm.63 0h.293v.937h-.248l-.045-.937zm2.303 1.065v.3l-1.56.614v-.284l1.237-.48-1.237-.473v-.293l1.56.616zm2.04-.323l-1.238.472 1.238.48v.285l-1.575-.592v-.3l1.56-.615.015.27zm1.267-1.237h.3l-1.147 3.277h-.3l1.147-3.277zm2.483 1.342c0 .525-.383.848-1.02.848h-.6v.75h-.353v-2.43h.953c.66-.015 1.02.3 1.02.832zm-.353 0c0-.345-.232-.547-.675-.547h-.592v1.087h.592c.465 0 .698-.195.698-.54h-.023zm2.34.218v.3l-1.56.614v-.284l1.245-.48-1.245-.473v-.293l1.56.616zm-61.65 8.017l-1.23.472 1.23.48v.286l-1.56-.616v-.299l1.56-.616v.293zm1.283-1.237h.307l-1.177 3.292h-.3l1.17-3.292zm2.632 2.272c0 .42-.315.66-.93.66h-1.162v-2.438h1.087c.563 0 .878.233.878.63a.571.571 0 01-.33.54.597.597 0 01.457.608zm-1.747-1.5v.75h.75c.36 0 .562-.128.562-.39 0-.263-.202-.39-.562-.39l-.75.03zm1.395 1.5c0-.278-.21-.405-.593-.405h-.802v.81h.802c.383-.03.593-.135.593-.435v.03zm.69-.562a1.294 1.294 0 01.763-1.236 1.302 1.302 0 011.432.247 1.299 1.299 0 01-.898 2.234 1.236 1.236 0 01-.916-.344 1.232 1.232 0 01-.381-.901zm2.25 0a.951.951 0 00-.578-.879.95.95 0 00-1.033.2.95.95 0 00-.208 1.031.946.946 0 00.874.585.914.914 0 00.937-.937h.008zm.87-1.215h1.027a1.213 1.213 0 01.926.321 1.209 1.209 0 01.393.897 1.213 1.213 0 01-.393.898 1.228 1.228 0 01-.926.321h-1.027v-2.437zm1.005 2.13a.918.918 0 00.915-.915.912.912 0 00-.915-.915h-.66v1.83h.66zm2.692-.541v.848h-.345v-.855l-.967-1.583h.375l.75 1.283.75-1.283h.345l-.908 1.59zm2.745-.524v.299l-1.56.616v-.286l1.238-.48-1.238-.472v-.293l1.56.616z" fill="#000"/><path d="M311.408 120.27c0 .113-24.068.195-53.753.195s-53.76-.082-53.76-.195c0-.112 24.06-.195 53.76-.195s53.753.09 53.753.195zm-104.296-3.84a.687.687 0 01-.426.637.687.687 0 01-.94-.502.69.69 0 01.676-.825.697.697 0 01.69.69zm1.965.69a.69.69 0 100-1.38.69.69 0 000 1.38zm3.353-.69a.7.7 0 01-.832.692.7.7 0 01-.509-.955.703.703 0 01.651-.427.696.696 0 01.69.69z" fill="#263238"/><path d="M210.75 201.585c-.105 0-.195-18.248-.195-40.748 0-22.5.09-40.754.195-40.754.105 0 .195 18.239.195 40.754 0 22.515-.12 40.748-.195 40.748z" fill="#E0E0E0"/><path d="M104.595 41.085H60.157v31.68h44.438v-31.68z" fill="#DC3001"/><path d="M104.947 45.788c0 .105-10.035.195-22.402.195-12.368 0-22.41-.09-22.41-.195 0-.105 10.035-.195 22.41-.195s22.402.082 22.402.194zM63.788 43.5a.608.608 0 11-.6-.525.563.563 0 01.6.525zm2.212 0a.554.554 0 01-.593.525A.533.533 0 1166 43.5zm1.545.495c.331 0 .6-.235.6-.525 0-.29-.269-.525-.6-.525-.332 0-.6.235-.6.525 0 .29.268.525.6.525zm9.045 14.422c0 1.905-1.373 3.053-3.645 3.053h-2.4v2.82H69.6v-8.933h3.345c2.272 0 3.645 1.148 3.645 3.06zm-.938 0c0-1.425-.945-2.25-2.737-2.25h-2.37v4.463h2.37c1.792.008 2.737-.81 2.737-2.213zm10.44-3.059v8.932h-.93v-4.125h-5.587v4.125h-.945v-8.933h.945v3.983h5.587v-3.983h.93zM96 58.417c0 1.905-1.373 3.053-3.645 3.053h-2.4v2.82h-.945v-8.933h3.345c2.265 0 3.645 1.148 3.645 3.06zm-.945 0c0-1.425-.945-2.25-2.73-2.25h-2.37v4.463h2.37c1.777.008 2.722-.81 2.722-2.213h.008z" fill="#fff"/><path d="M341.962 162.225h-40.17v28.635h40.17v-28.635z" fill="#DC3001"/><path d="M315.338 175.5v5.685h-1.313v-2.325h-2.58v2.325h-1.32V175.5h1.32v2.25h2.58v-2.25h1.313zm2.527 1.095h-1.823V175.5H321v1.072h-1.823v4.613h-1.312v-4.59zm10.732-1.095h1.32v4.612h2.85v1.073h-4.17V175.5zm-1.927 5.708v-3.405l-1.673 2.804h-.592l-1.665-2.737v3.338h-1.238V175.5h1.088l2.13 3.533 2.092-3.533h1.08v5.685l-1.222.023zm15.607-14.708c0 .068-9.067.128-20.25.128-11.182 0-20.25-.06-20.25-.128 0-.067 9.068-.127 20.25-.127 11.183 0 20.25.037 20.25.127zm-37.207-2.115a.556.556 0 01-.186.328.553.553 0 01-.708 0 .546.546 0 01-.186-.328.546.546 0 011.08 0zm1.972 0a.546.546 0 01-1.08 0 .552.552 0 01.54-.457.55.55 0 01.54.457zm1.958 0a.553.553 0 01-.604.619.542.542 0 01-.469-.411.542.542 0 01.533-.68.51.51 0 01.54.472z" fill="#fff"/><path d="M68.453 161.82H38.835v21.113h29.617V161.82z" fill="#DC3001"/><path d="M68.677 164.947c0 .053-6.682.098-14.925.098-8.242 0-14.932-.045-14.932-.098 0-.052 6.682-.09 14.932-.09s14.925.038 14.925.09zM41.25 163.41a.376.376 0 01-.398.345.373.373 0 01-.271-.089.363.363 0 01-.126-.256.374.374 0 01.397-.352.369.369 0 01.36.21.374.374 0 01.038.142zm1.455 0a.403.403 0 01-.401.35.402.402 0 01-.402-.35.404.404 0 01.668-.25.403.403 0 01.135.25zm1.455 0a.403.403 0 01-.21.409.405.405 0 11-.195-.762.384.384 0 01.405.353z" fill="#fff"/><path d="M215.287 80.468a5.554 5.554 0 015.753-5.633 5.302 5.302 0 013.952 1.5l-.51.525a4.626 4.626 0 00-3.405-1.313 4.884 4.884 0 100 9.75 4.653 4.653 0 003.405-1.334l.51.525a5.318 5.318 0 01-3.952 1.552 5.544 5.544 0 01-5.753-5.573zm11.213 4.117l.36-.6a5.31 5.31 0 003.66 1.395c2.25 0 3.203-.968 3.203-2.175 0-3.33-6.923-1.328-6.923-5.415 0-1.575 1.2-2.955 3.93-2.955a5.916 5.916 0 013.345 1.005l-.3.645a5.529 5.529 0 00-3.045-.93c-2.16 0-3.12.997-3.12 2.25 0 3.33 6.922 1.365 6.922 5.392 0 1.568-1.252 2.933-3.997 2.933a5.684 5.684 0 01-4.035-1.545zm9.66 0l.367-.6a5.296 5.296 0 003.66 1.395c2.25 0 3.203-.968 3.203-2.175 0-3.33-6.923-1.328-6.923-5.415 0-1.575 1.2-2.955 3.93-2.955a5.952 5.952 0 013.345 1.005l-.3.645a5.529 5.529 0 00-3.045-.93c-2.16 0-3.127.997-3.127 2.25 0 3.33 6.93 1.365 6.93 5.392 0 1.568-1.253 2.933-3.998 2.933a5.714 5.714 0 01-4.042-1.545z" fill="#DC3001"/><path d="M253.642 94.89v-2.28c0-1.5 0-3.653-.045-6.42 0-5.543-.045-13.5-.075-23.25l.15.157h-49.41l.195-.194v31.92l-.18-.18 35.55.09 10.193.044h3.427-3.367l-10.155.046-35.67.09h-.18V62.775h.202l49.41.045h.158V63c0 9.75-.06 17.752-.083 23.317 0 2.753 0 4.906-.037 6.39v1.658c0 .39-.083.525-.083.525z" fill="#DC3001"/><path d="M253.642 67.71c0 .105-11.07.195-24.75.195s-24.75-.09-24.75-.195c0-.105 11.108-.21 24.78-.21 13.673 0 24.72.097 24.72.21zm-45.765-2.333a.607.607 0 11-.6-.524.569.569 0 01.409.137.547.547 0 01.134.175.545.545 0 01.057.212zm2.198 0a.615.615 0 01-.314.618.607.607 0 11-.286-1.142.561.561 0 01.6.525zm2.175 0a.607.607 0 11-.6-.524.561.561 0 01.6.525zm94.952 62.027a9.202 9.202 0 100-18.404 9.202 9.202 0 000 18.404z" fill="#DC3001"/><path d="M306.649 121.397a.617.617 0 01-.389-.135l-3.084-2.554a.614.614 0 01.784-.949l2.615 2.152 3.799-4.681a.616.616 0 01.95.783l-4.194 5.138a.654.654 0 01-.42.222l-.061.024z" fill="#fff"/><path d="M110.91 204l19.59 66.097a6.926 6.926 0 006.63 4.958l79.5.217a7.343 7.343 0 005.347-2.285 7.356 7.356 0 002.018-5.455 7.362 7.362 0 00-2.285-4.942 7.366 7.366 0 00-5.058-2.018h-30.397L161.91 192.75h-42.615a8.743 8.743 0 00-8.618 7.222 8.744 8.744 0 00.233 4.028z" fill="#455A64"/><path d="M178.17 266.003c0 .157-8.108.277-18.105.277-9.998 0-18.098-.12-18.098-.277 0-.158 8.1-.278 18.098-.278 9.997 0 18.105.12 18.105.278zm-61.41-71.168c.143-.045 5.558 15.788 12.09 35.37 6.533 19.583 11.7 35.498 11.558 35.543-.143.045-5.558-15.75-12.09-35.37-6.533-19.62-11.708-35.49-11.558-35.543z" fill="#263238"/><path d="M174.863 333.817l-4.845-.112v-58.65h4.845v58.762z" fill="#455A64"/><path d="M149.895 333.548h45.098l-20.43-7.103h-4.845l-19.823 7.103z" fill="#455A64"/><path d="M138.487 177.57l7.463 37.283-1.335 27.937 50.16-8.34L192.81 210l-.06-20.25 12.3 23.835 9.57-18.503-17.528-31.762a29.602 29.602 0 00-11.467-7.425 23.527 23.527 0 00-7.193-1.38 28.754 28.754 0 01-17.362 0c-.705.09-1.68.188-2.918.33h-.225a22.175 22.175 0 00-19.357 20.85l-.083 1.875z" fill="#DC3001"/><path d="M158.168 154.852s-20.61.158-23.16 21.923l-.345 15.975 17.745-.15 5.76-37.748z" fill="#DC3001"/><path d="M207.405 182.85c0 .157-16.215.285-36.217.285-20.003 0-36.188-.135-36.188-.285 0-.15 16.207-.278 36.217-.278 20.01 0 36.188.128 36.188.278zm0 3.458c0 .15-16.215.277-36.218.277-20.002 0-36.217-.127-36.217-.277 0-.15 16.207-.286 36.217-.286 20.01 0 36.218.128 36.218.286zM206.25 180c0 .157-15.952.285-35.632.285S135 180.15 135 180c0-.15 15.953-.277 35.64-.277s35.61.12 35.61.277z" fill="#FAFAFA"/><path d="M192.503 213.577c-.158 0-.09-8.827.15-19.702.24-10.875.562-19.695.712-19.695.15 0 .09 8.828-.15 19.703s-.562 19.694-.712 19.694z" fill="#263238"/><path d="M185.453 199.268s9.749.697 11.504 3.277c1.755 2.58 4.433 9.922 3.421 9.975a2.77 2.77 0 01-1.756-.547l-2.67-4.741s.428 4.575-1.17 4.665c-1.597.09-9.532 1.68-9.532 1.68l.203-14.309z" fill="#FFBE9D"/><path d="M134.67 188.49l-.038 25.132a9.55 9.55 0 0011.565 8.813l39.308-8.1-.083-16.117-33.922 6.532-.45-17.062-16.38.802z" fill="#DC3001"/><path d="M157.095 220.418c.168-.062.342-.109.518-.143l1.5-.345 5.775-1.223 20.482-4.207-.202.24v-16.553l.33.278-6.915 1.328-27 5.137-.293.06v-.24c.255-7.5.473-13.71.623-18.12.09-2.145.157-3.848.21-5.063 0-.547.052-.989.075-1.327 0-.154.017-.307.052-.457.01.152.01.305 0 .457v1.335c0 1.215-.045 2.918-.075 5.063-.105 4.417-.247 10.642-.42 18.12l-.285-.233 27-5.25 6.915-1.32.33-.068v17.1l-.202.038L165 219l-5.805 1.088-1.537.269a2.603 2.603 0 01-.563.061zm22.545-65.565s.075.12.158.367c.13.362.233.733.307 1.11a9.076 9.076 0 01-.187 4.23 11.12 11.12 0 01-3.405 5.25 10.61 10.61 0 01-7.155 2.708 9.758 9.758 0 01-7.073-2.873 9.939 9.939 0 01-2.632-5.692 8.88 8.88 0 01.495-4.208c.132-.361.301-.707.502-1.035.135-.225.21-.338.233-.33.022.007-.24.502-.533 1.44a9.48 9.48 0 00-.307 4.08 9.75 9.75 0 002.61 5.385 9.312 9.312 0 006.705 2.67c2.503.02 4.926-.879 6.81-2.527a10.984 10.984 0 003.375-4.995 9.52 9.52 0 00.345-4.08c-.128-.96-.308-1.485-.248-1.5z" fill="#263238"/><path d="M181.538 215.67a11.7 11.7 0 010-2.482c.06-1.5.135-3.631.15-5.956.015-2.325 0-4.432-.083-5.962a12.264 12.264 0 010-2.483 9.9 9.9 0 01.375 2.46c.143 1.5.255 3.645.24 6a65.049 65.049 0 01-.307 6c-.027.82-.153 1.634-.375 2.423zm-2.033.412a12.256 12.256 0 01-.068-2.467c0-1.732.038-3.75.06-5.917v-5.948a11.632 11.632 0 01.09-2.46c.203.799.306 1.62.308 2.445.097 1.5.18 3.623.165 5.94-.015 2.318-.105 4.418-.225 5.94-.009.833-.12 1.662-.33 2.467z" fill="#FAFAFA"/><path d="M218.873 315.938l7.425 20.46 10.545 14.482a2.262 2.262 0 01.376 1.735 2.25 2.25 0 01-.999 1.468 2.257 2.257 0 01-2.032.172c-4.253-1.762-19.853-8.332-20.318-9.855-.532-1.77-10.605-23.775-10.605-23.775l15.608-4.687z" fill="#DC3001"/><path d="M236.25 354.083l-22.883-11.055.338.862a3.403 3.403 0 001.5 1.74c1.875 1.013 7.125 3.69 18.922 8.648a2.255 2.255 0 002.093-.195h.03zm-21.293-19.216a1.344 1.344 0 01.983 1.5 1.295 1.295 0 01-1.5.99 1.417 1.417 0 01-1.035-1.604 1.352 1.352 0 011.657-.856" fill="#fff" opacity=".6"/><path d="M228.135 347.025a6.68 6.68 0 011.17-2.25c.952-1.065 2.182-1.223 2.16-1.358-.023-.135-.323-.112-.825 0a3.569 3.569 0 00-2.573 2.805c-.067.495.015.803.068.803zm2.505 2.153c.128.052.525-.863 1.455-1.575.605-.38 1.234-.721 1.883-1.021 0-.127-1.125-.179-2.175.646-1.05.825-1.29 1.935-1.163 1.95zm-6.548-4.59c.135.06.75-1.343 2.085-2.573s2.783-1.74 2.738-1.875c-.045-.135-1.628.18-3.06 1.5-1.433 1.32-1.883 2.933-1.763 2.948zm-2.775-6.031c.098.105 1.035-.802 2.475-1.425 1.44-.622 2.73-.75 2.723-.862-.008-.113-1.38-.255-2.918.427-1.537.683-2.347 1.793-2.28 1.86zM219 332.61c.105.09.967-1.02 2.535-1.552 1.567-.533 2.925-.233 2.955-.368.03-.135-.308-.225-.878-.315a4.877 4.877 0 00-4.125 1.44c-.405.435-.555.758-.487.795zm2.048-2.67a2.003 2.003 0 00-.278-.75 5.703 5.703 0 00-1.387-1.77 2.519 2.519 0 00-1.455-.75.902.902 0 00-.87.555 1.443 1.443 0 000 1.035 3.153 3.153 0 003.667 1.74 3.648 3.648 0 002.655-3.082 1.289 1.289 0 00-.322-1.006.892.892 0 00-1.028-.105 3.13 3.13 0 00-1.065 1.215 6.537 6.537 0 00-.75 2.115 1.857 1.857 0 000 .826 9.953 9.953 0 011.095-2.761c.229-.417.556-.772.953-1.034a.464.464 0 01.562.052.868.868 0 01.18.667 3.271 3.271 0 01-2.332 2.648 2.718 2.718 0 01-3.105-1.41 1.041 1.041 0 01-.06-.75.483.483 0 01.48-.308c.464.069.896.278 1.237.601a8.349 8.349 0 011.823 2.272z" fill="#263238"/><path d="M250.23 310.582l-.638 16.628s16.68 6.24 16.86 9.322l-32.25-.09-.09-25.942 16.118.082z" fill="#DC3001"/><path d="M239.61 325.785a1.32 1.32 0 00-.915 1.5 1.27 1.27 0 001.5.922 1.396 1.396 0 00.96-1.597 1.326 1.326 0 00-1.65-.788m-5.333 10.62v-2.587l31.02 1.035s1.433.63 1.268 1.642l-32.288-.09z" fill="#fff" opacity=".6"/><path d="M250.11 327.045c0 .157-.788.232-1.568.75-.78.517-1.192 1.17-1.335 1.102-.142-.067.09-.975 1.043-1.567.952-.593 1.897-.428 1.86-.285zm3.39 1.41c.037.158-.645.42-1.185 1.088-.54.667-.69 1.372-.848 1.365-.157-.008-.255-.9.428-1.718.682-.817 1.605-.885 1.605-.735zm1.905 4.058c-.143 0-.36-.75.052-1.613.413-.862 1.14-1.208 1.208-1.073.067.135-.39.593-.75 1.306-.36.712-.353 1.365-.51 1.38zm-5.565-9.263c-.068.142-.788-.075-1.68 0-.893.075-1.59.337-1.673.202-.082-.135.593-.697 1.643-.75 1.05-.052 1.785.42 1.71.548z" fill="#263238"/><path d="M250.102 313.875l-.112 2.963-15.863-.188-.015-2.67 15.99-.105z" fill="#000" opacity=".3"/><path d="M249.908 319.89a3.134 3.134 0 01-1.62 0 7.614 7.614 0 01-2.618-1.02 2.225 2.225 0 01-.487-.383.687.687 0 01-.068-.84.877.877 0 01.69-.36c.206 0 .411.03.608.09a5.695 5.695 0 012.505 1.328c.75.697 1.005 1.282.952 1.32-.052.037-.435-.443-1.2-1.02a6.29 6.29 0 00-1.44-.818 5.618 5.618 0 00-.922-.285c-.345-.097-.638-.097-.75.053-.113.15-.038.082 0 .18.106.111.227.207.36.285a8.958 8.958 0 002.415 1.087c.534.086 1.06.214 1.575.383z" fill="#263238"/><path d="M249.698 320.115a2.687 2.687 0 01-.42-1.567 5.378 5.378 0 01.225-1.77c.108-.337.246-.663.412-.975a1.353 1.353 0 011.035-.803.747.747 0 01.675.45c.082.192.137.394.165.6.056.36.056.727 0 1.088a3.754 3.754 0 01-.697 1.665c-.63.832-1.29 1.02-1.305.967-.015-.052.502-.382.982-1.185.282-.455.458-.968.518-1.5a3.342 3.342 0 000-.937c-.045-.338-.173-.615-.3-.585-.128.03-.435.255-.57.532-.16.278-.295.569-.405.87a5.804 5.804 0 00-.315 1.613c-.075.922.09 1.507 0 1.537z" fill="#263238"/><path d="M234.143 230.88c-19.073 1.972-44.355 4.567-44.355 4.567l3.45 31.043s37.14-9.817 36.877-9c-.262.818 1.725 66.045 1.725 66.045h22.365l.42-73.897a18.589 18.589 0 00-6.029-13.979 18.577 18.577 0 00-14.453-4.779z" fill="#263238"/><path d="M144.157 243.405v9.622c0 6.555 7.463 13.5 14.01 13.5h5.07c3.99 0 10.245-2.91 13.5-5.25l1.935-1.417 23.295 72.157s26.648-4.777 26.648-5.617c0-.84-18.045-59.1-26.378-86.138-3.405-11.04-15.232-17.46-26.16-13.717-.367.127-.75.27-1.117.42-11.97 4.785-30.803 16.44-30.803 16.44z" fill="#263238"/><path d="M228.585 326.392a1.355 1.355 0 01-.113-.255c-.082-.202-.18-.457-.3-.75a82.478 82.478 0 01-1.057-3c-.893-2.602-2.115-6.405-3.6-11.107-3-9.398-6.96-22.425-11.295-36.825-2.16-7.208-4.208-14.07-6.083-20.325-.93-3.12-1.807-6.09-2.632-8.873-.42-1.389-.82-2.727-1.2-4.012a35.291 35.291 0 00-1.215-3.653 15.004 15.004 0 00-3.75-5.332 32.313 32.313 0 00-3.945-3.068 86.45 86.45 0 00-2.67-1.702l-.698-.442a.946.946 0 01-.232-.166c.09.028.176.068.255.121l.75.389c.637.345 1.567.878 2.73 1.62a29.915 29.915 0 014.035 3 15.106 15.106 0 013.915 5.4 35.44 35.44 0 011.26 3.683c.397 1.282.802 2.625 1.23 4.012l2.685 8.85c1.882 6.248 3.952 13.11 6.127 20.31 4.335 14.378 8.25 27.398 11.13 36.878l3.435 11.153.96 3c.098.322.173.577.24.787.068.21.053.307.038.307zm5.625-78.232c.135.09-1.132 1.995-2.19 4.582-1.057 2.588-1.537 4.823-1.702 4.793-.165-.03.075-2.355 1.185-5.01s2.595-4.455 2.707-4.365zm4.29 3c.06.15-1.86.998-3.862 2.58-2.003 1.583-3.293 3.24-3.428 3.143-.135-.098.99-1.95 3.083-3.578 2.092-1.627 4.155-2.28 4.207-2.145zm-36.315 80.85c-.143.045-6.435-19.26-14.055-43.125s-13.665-43.252-13.5-43.297c.165-.045 6.435 19.259 14.055 43.132 7.62 23.872 13.65 43.245 13.5 43.29zm-28.582-112.567l76.237.735 14.22-40.185-55.455.375-12.87 36.135-22.132.337v2.603z" fill="#455A64"/><path d="M231.405 203.55a3.094 3.094 0 01-2.563-2.286 3.091 3.091 0 012.819-3.859 3.089 3.089 0 11-.256 6.145z" fill="#fff"/><path d="M167.377 110.678c.75-2.678 2.738-3.991 5.355-4.883a8.604 8.604 0 017.875 1.275c1.5 1.125 2.625 2.753 4.38 3.36 2.88.998 6.255-1.155 9 .135a3.93 3.93 0 01-1.86 7.5c1.875.69 2.46 3.368 1.365 5.04-1.095 1.673-3.352 2.303-5.325 1.935a11.03 11.03 0 01-5.167-2.895c-1.5-1.335-2.82-2.85-4.41-4.065a8.558 8.558 0 00-5.52-2.025c-2.708.143-5.025 2.183-6.233 4.613-1.207 2.43-1.5 5.19-1.635 7.897s-.195 5.452-.997 8.04c-.098.308-.24.645-.54.75-.443.135-.818-.33-1.035-.75a39.754 39.754 0 01-4.538-14.783c-.307-3-.232-5.835 1.418-8.362 1.65-2.528 5.812-4.38 7.852-2.782" fill="#263238"/><path d="M162.15 123.225l-1.387 30.345c-.233 5.16.48 12.795 8.655 12.795 7.095-.54 9.187-7.17 9.405-12 .097-2.25.187-4.185.217-4.418 0 0 7.755-.375 8.663-7.995.435-3.682.75-11.347.9-18.277a14.309 14.309 0 00-3.534-9.772 14.309 14.309 0 00-9.216-4.801l-.75-.075c-8.003-.367-12.795 6.203-12.953 14.198z" fill="#FFBE9D"/><path d="M179.062 149.85a17.822 17.822 0 01-9.645-3.885s1.763 5.737 9.45 5.865l.195-1.98z" fill="#EB996E"/><path d="M185.835 128.565a1.096 1.096 0 01-1.17.99 1.036 1.036 0 01-.954-.692 1.06 1.06 0 01-.058-.41 1.094 1.094 0 011.162-.991 1.045 1.045 0 01.961.691c.047.132.067.272.059.412zm.728-1.305c-.15.127-.908-.57-2.085-.69-1.178-.12-2.093.375-2.205.218-.113-.158.112-.315.517-.548a3.036 3.036 0 011.785-.352c.611.067 1.185.33 1.635.75.33.3.428.569.353.622zm-12.27.48a1.096 1.096 0 01-1.17.99 1.062 1.062 0 01-.74-.339 1.041 1.041 0 01-.28-.763 1.11 1.11 0 011.17-.99 1.037 1.037 0 01.742.336 1.053 1.053 0 01.278.766zm.719-1.485c-.15.127-.907-.57-2.085-.697-1.177-.128-2.092.374-2.205.217-.112-.158.113-.308.518-.54a3.004 3.004 0 011.785-.353 2.93 2.93 0 011.635.75c.33.293.427.563.352.623zm3.33 9.15a7.633 7.633 0 011.943-.142c.307 0 .592-.001.667-.226a1.605 1.605 0 00-.105-.915c-.21-.75-.42-1.545-.645-2.37-.885-3.375-1.5-6.142-1.357-6.18.142-.037.967 2.678 1.852 6.053.21.832.413 1.627.6 2.385.144.384.144.808 0 1.193a.743.743 0 01-.532.389 2.041 2.041 0 01-.518 0 8.025 8.025 0 01-1.905-.187zm-3.532.443c.188 0 .06 1.282 1.05 2.302s2.363 1.02 2.355 1.2c-.007.18-.33.217-.907.173a3.218 3.218 0 01-1.973-.938 2.77 2.77 0 01-.795-1.92c.008-.532.21-.832.27-.817zm.997-14.16c-.15.307-1.305 0-2.7.052-1.395.053-2.542.278-2.7 0-.06-.142.165-.42.645-.682a4.641 4.641 0 014.11 0c.48.21.713.487.645.63zm10.688 2.137c-.232.24-1.012-.12-1.98-.24-.967-.12-1.815 0-1.972-.308-.075-.142.082-.397.472-.615a2.8 2.8 0 011.658-.262 2.75 2.75 0 011.5.705c.345.307.427.6.322.72z" fill="#263238"/><path d="M162.172 128.94c-.127-.068-5.077-2.108-5.467 3.127-.39 5.235 4.95 4.545 4.965 4.395.015-.15.502-7.522.502-7.522z" fill="#FFBE9D"/><path d="M160.222 134.362s-.097.06-.255.12a.945.945 0 01-.682-.037 2.288 2.288 0 01-.9-2.108c.021-.448.141-.886.352-1.282a1.075 1.075 0 01.75-.653.473.473 0 01.518.293c.06.15 0 .255.045.262.045.008.12-.074.097-.299a.551.551 0 00-.187-.338.67.67 0 00-.495-.173 1.307 1.307 0 00-1.013.75 3.148 3.148 0 00-.42 1.433c-.045 1.058.42 2.085 1.163 2.362a.964.964 0 00.84-.082c.165-.12.202-.24.187-.248z" fill="#EB996E"/><path d="M190.387 122.25a11.107 11.107 0 01-9.555-3.248c-1.687-1.77-2.88-4.184-5.13-5.152a6.24 6.24 0 00-4.807.143 11.989 11.989 0 00-3.945 2.924c1.057 4.035-.39 8.25-1.823 12.173a2.088 2.088 0 01-.75 1.14c-.667.412-1.552-.06-2.032-.683a6.466 6.466 0 01-1.05-3.547c-.252-2.855.07-5.731.945-8.46a14.761 14.761 0 014.8-6.945A13.902 13.902 0 01177.157 108a17.06 17.06 0 019.48 4.567 10.002 10.002 0 012.813 4.035" fill="#263238"/><path d="M43.74 283.56a14.185 14.185 0 018.76-1.073c1.59.263 3.255.75 4.343 1.943 1.087 1.192 1.29 3.307.045 4.335a4.173 4.173 0 01-2.738.69c-2.325 0-4.905-.435-6.75.967-1.065.795-1.77 2.123-3 2.513a2.996 2.996 0 01-3.292-1.463 5.144 5.144 0 01-.368-3.75 5.758 5.758 0 013-4.162zm-6.127-11.828c1.635 2.333 4.815 1.56 6.285.135 1.47-1.425 2.1-3.487 2.662-5.46 1.298-4.5 2.603-9.225 1.643-13.807a7.673 7.673 0 00-1.77-3.75 4.01 4.01 0 00-3.795-1.268c-1.598.428-2.595 1.996-3.315 3.488a32.902 32.902 0 00-3.255 14.122c0 2.25.262 4.665 1.545 6.54zm-4.493 3.353a8.506 8.506 0 001.328-7.823 15.104 15.104 0 00-4.635-6.75 24.867 24.867 0 00-8.25-4.897 8.889 8.889 0 00-3.75-.63 3.908 3.908 0 00-3.128 1.89c-.87 1.665-.037 3.682.87 5.332A63.152 63.152 0 0021 270.54c1.635 2.1 3.503 4.177 6 5.13 2.498.952 5.07.84 6.39-.885" fill="#DC3001"/><path d="M37.5 306.952c.089-.345.139-.7.15-1.057.075-.75.172-1.74.285-2.895a41.93 41.93 0 01.645-4.245 33.305 33.305 0 011.545-5.018 18.567 18.567 0 012.565-4.5 9.545 9.545 0 013.233-2.737 8.742 8.742 0 012.722-.848 5.247 5.247 0 001.057-.157 5.339 5.339 0 00-1.072 0 8.117 8.117 0 00-2.843.75 9.438 9.438 0 00-3.412 2.707 18.2 18.2 0 00-2.625 4.62 30.63 30.63 0 00-1.5 5.101 35.892 35.892 0 00-.57 4.297c-.09 1.23-.12 2.25-.142 2.917a4.93 4.93 0 00-.038 1.065z" fill="#263238"/><path d="M37.703 304.725a2.249 2.249 0 000-.488v-1.41c0-1.222 0-3 .067-5.174.105-4.366.48-9.068 1.207-15.69.69-6.233 1.613-13.5 2.588-18.195.203-1.073.413-2.04.615-2.88.203-.84.352-1.576.502-2.168.15-.593.248-1.012.33-1.372.05-.156.08-.317.09-.481a1.781 1.781 0 00-.172.458 50.457 50.457 0 00-.99 3.502c-.21.84-.45 1.808-.683 2.873a161.674 161.674 0 00-2.715 16.882c-.705 6.668-1.042 12.668-1.042 17.071 0 2.182 0 3.96.075 5.182 0 .57.067 1.035.09 1.402-.01.164.003.328.038.488z" fill="#263238"/><path d="M37.733 293.07a9.39 9.39 0 000-1.5 39.386 39.386 0 00-.45-3.99A52.93 52.93 0 0036 281.805a47.752 47.752 0 00-2.43-6.87 36.697 36.697 0 00-7.132-11.1 19.273 19.273 0 00-1.688-1.56c-.262-.217-.487-.428-.75-.6l-.652-.45a9.327 9.327 0 00-1.238-.795 43.614 43.614 0 014.058 3.623 38.44 38.44 0 016.952 11.062 54.347 54.347 0 012.445 6.803c.638 2.137 1.058 4.094 1.38 5.744.323 1.65.48 3.001.585 3.953.027.49.095.977.203 1.455zM26.46 313.635l1.17 16.005h20.565l1.163-16.005H26.46zm25.35-6.308H24.473v6.308H51.81v-6.308z" fill="#263238"/><path d="M24.473 329.033v1.747H51.36v-1.747H24.473zm2.542 4.822l-1.26-3.075h24.63l-1.47 3.075h-21.9z" fill="#455A64"/><path d="M48.983 318.87a1.67 1.67 0 01-.098.143l-.307.412-1.2 1.5-.053.067-.052-.067-2.94-4.072h.165L41.603 321l-.09.128-.105-.12c-1.065-1.275-2.25-2.656-3.435-4.088h.195c-.053.075-.12.15-.188.232L34.913 321l-.105.128-.098-.136-2.895-4.102h.165L28.41 321l-.06.067-.052-.082c-.465-.787-.84-1.417-1.118-1.875l-.285-.503-.09-.172s.053.045.12.158l.323.479 1.17 1.846h-.113l3.518-4.11.082-.106.083.113 2.925 4.08h-.195l3.067-3.855.188-.24.097-.12.098.12 3.427 4.095H41.4l2.933-4.08.082-.12.083.12 2.88 4.11h-.128l1.253-1.5.33-.39c.097-.127.142-.172.15-.165z" fill="#E0E0E0"/><path d="M49.65 313.5c0 .075-5.152.128-11.512.128s-11.505-.053-11.505-.128c0-.075 5.152-.128 11.505-.128 6.352 0 11.512.128 11.512.128z" fill="#455A64"/><path d="M50.685 330.952c0 .068-5.602.128-12.502.128s-12.51-.06-12.51-.128c0-.067 5.602-.127 12.51-.127 6.907 0 12.502.06 12.502.127zM293.782 146.67l-14.287 59.753h3.997l14.07-59.753h-3.78z" fill="#263238"/><path d="M288.292 186c-.255 1.095 6.473 33.668 6.473 33.668h-3.24l-5.078-25.815 1.845-7.853z" fill="#263238"/><path d="M335.872 262.747H268.95v70.943h66.922v-70.943z" fill="#DC3001"/><path d="M339.15 273.112h-3.285v3.285h3.285v-3.285zm0 10.433h-3.285v3.285h3.285v-3.285zm0 10.433h-3.285v3.285h3.285v-3.285zm0 10.432h-3.285v3.285h3.285v-3.285z" fill="#263238"/><path d="M339.277 294.938a5.163 5.163 0 011.005-.218 15.986 15.986 0 012.82-.27 7.557 7.557 0 014.065 1.073 4.685 4.685 0 012.25 4.5 5.657 5.657 0 01-.855 2.572 6.74 6.74 0 01-1.725 1.83 8.804 8.804 0 01-3.915 1.545c-.936.138-1.884.17-2.827.098a4.517 4.517 0 01-1.028-.143 6.3 6.3 0 011.028 0c.932.014 1.864-.058 2.782-.218a8.78 8.78 0 003.75-1.559 5.77 5.77 0 002.408-4.148 4.353 4.353 0 00-2.063-4.17 7.451 7.451 0 00-3.877-1.095 19.413 19.413 0 00-2.79.143c-.34.055-.684.075-1.028.06z" fill="#263238"/><path d="M338.46 284.565c.094-.076.197-.139.307-.188a7.682 7.682 0 014.823-.607c.435.084.849.249 1.222.487.417.277.722.691.863 1.17a3.559 3.559 0 01-2.138 4.013 2.176 2.176 0 01-1.807-.098 1.854 1.854 0 01-1.043-1.575 1.894 1.894 0 011.065-1.627 2.884 2.884 0 011.913-.203 4.063 4.063 0 011.672.795 4.5 4.5 0 011.665 3 4.18 4.18 0 01-.855 3 6.031 6.031 0 01-2.055 1.733 9.743 9.743 0 01-3.75.975c-.45.037-.802.052-1.042.052-.122.02-.246.02-.368 0 0 0 .503-.067 1.395-.18a10.362 10.362 0 003.615-1.065 5.884 5.884 0 001.928-1.687 3.909 3.909 0 00.75-2.738 4.149 4.149 0 00-1.545-2.722 3.61 3.61 0 00-1.5-.713 2.566 2.566 0 00-1.658.165 1.501 1.501 0 00-.855 1.283 1.49 1.49 0 00.833 1.237 1.768 1.768 0 001.5.083 2.927 2.927 0 001.237-.9 3.032 3.032 0 00.75-2.67 2.248 2.248 0 00-1.837-1.5 7.915 7.915 0 00-3.75.09c-.878.187-1.32.427-1.335.39z" fill="#263238"/><path d="M338.49 274.388c.237-.099.493-.145.75-.135a5.25 5.25 0 012.01.247 5.67 5.67 0 012.497 1.688 5.51 5.51 0 011.298 3.45 5.587 5.587 0 01-1.08 3.524A5.653 5.653 0 01341.55 285c-.63.263-1.305.4-1.988.405a1.725 1.725 0 01-.75-.09 7.433 7.433 0 002.61-.562c.88-.4 1.642-1.02 2.213-1.801a5.468 5.468 0 00-.195-6.524 5.717 5.717 0 00-2.318-1.658 7.376 7.376 0 00-2.632-.382z" fill="#263238"/><path d="M288.817 225.053c.237.42.426.865.563 1.327.406 1.316.705 2.663.892 4.027.278 1.77.51 3.953.75 6.481.24 2.527.443 5.422.848 8.594.105.788.232 1.598.397 2.415.153.832.405 1.643.75 2.415a8.813 8.813 0 001.643 2.026 12.834 12.834 0 007.567 3.51 10.643 10.643 0 005.91-1.021 7.156 7.156 0 003.818-4.8 5.514 5.514 0 00-.225-3.187 5.64 5.64 0 00-2.078-2.513 6.25 6.25 0 00-3.165-1.05 5.003 5.003 0 00-3.202.938 3.52 3.52 0 00-1.088 1.282 2.622 2.622 0 00-.21 1.636 3.966 3.966 0 002.078 2.639 9.557 9.557 0 003.42.946c1.179.149 2.366.231 3.555.247 2.336.014 4.67-.116 6.99-.39 4.56-.51 9-1.245 13.222-1.29 4.223-.045 8.355.54 11.783 2.25a13.879 13.879 0 014.38 3.277 10.043 10.043 0 012.25 4.5c.6 2.879.134 5.878-1.313 8.438a14.188 14.188 0 01-4.447 4.747 16.757 16.757 0 01-3.675 1.875c-.451.167-.912.305-1.38.413l.345-.128c.232-.067.57-.194 1.005-.359a17.291 17.291 0 003.622-1.928 14.2 14.2 0 004.343-4.725 11.998 11.998 0 001.222-8.25 9.912 9.912 0 00-2.25-4.365 13.58 13.58 0 00-4.297-3.18c-3.375-1.635-7.433-2.25-11.633-2.153-4.2.098-8.61.788-13.192 1.306a54.24 54.24 0 01-7.035.404 32.327 32.327 0 01-3.6-.247 9.887 9.887 0 01-3.555-.99 4.346 4.346 0 01-2.25-2.91 3.036 3.036 0 01.24-1.875 3.904 3.904 0 011.207-1.425 5.406 5.406 0 013.45-1.02 6.677 6.677 0 013.368 1.125 6.001 6.001 0 012.212 2.685 5.899 5.899 0 01.24 3.412 7.498 7.498 0 01-4.02 5.033 10.93 10.93 0 01-6.112 1.042 12.934 12.934 0 01-5.535-1.905 12.819 12.819 0 01-2.213-1.717 8.996 8.996 0 01-1.695-2.115 10.89 10.89 0 01-.75-2.497 33.9 33.9 0 01-.382-2.431c-.39-3.187-.578-6.074-.795-8.609-.218-2.535-.428-4.711-.675-6.481a27.217 27.217 0 00-.818-4.027 9.553 9.553 0 00-.352-1.013 3.539 3.539 0 01-.128-.389z" fill="#263238"/><path d="M332.062 330.75v-4.732c0-3.083 0-7.583-.045-13.29 0-11.423-.052-27.698-.09-47.168l.173.173h-60.488l.195-.195v65.19l-.165-.165 43.83.082 12.293.045h4.372-1.087l-3.3.06-12.248.045-43.942.083h-.173v-65.513h60.863v.135l-.09 47.25c0 5.7 0 10.185-.045 13.253v4.372c0 .21-.053.375-.053.375z" fill="#263238"/><path d="M315 273.548a.302.302 0 01-.087.222.316.316 0 01-.22.092.318.318 0 01-.254-.071.314.314 0 01.254-.551.307.307 0 01.307.308zm1.732 0a.302.302 0 01-.087.222.316.316 0 01-.22.092.308.308 0 01-.253-.071.313.313 0 01-.11-.24.312.312 0 01.228-.303.324.324 0 01.135-.008.307.307 0 01.307.308zm1.71 0a.302.302 0 01-.087.222.316.316 0 01-.22.092.308.308 0 01-.253-.071.32.32 0 01-.111-.24.313.313 0 01.111-.239.316.316 0 01.253-.072.307.307 0 01.307.308zm1.71 0a.31.31 0 01-.189.296.316.316 0 01-.417-.408.314.314 0 01.606.112zm1.71 0a.314.314 0 01-.315.314.315.315 0 010-.622.31.31 0 01.22.09.313.313 0 01.095.218zm1.71 0a.314.314 0 01-.315.314.314.314 0 01-.191-.516.319.319 0 01.191-.106.31.31 0 01.22.09.313.313 0 01.095.218zm1.71 0a.314.314 0 01-.315.314.314.314 0 01-.191-.516.319.319 0 01.191-.106.314.314 0 01.315.308zm-1.102 1.462a.308.308 0 10-.002-.616.308.308 0 00.002.616zm-1.747 0a.308.308 0 10-.002-.616.308.308 0 00.002.616zm-1.433-.308a.314.314 0 01-.09.218.314.314 0 01-.218.09.31.31 0 01-.222-.087.3.3 0 01-.068-.101.307.307 0 01.068-.342.323.323 0 01.102-.069.31.31 0 01.428.291zm-2.063.308a.308.308 0 000-.615.308.308 0 000 .615zm-1.754 0a.308.308 0 10-.002-.616.308.308 0 00.002.616zm-1.433-.308a.306.306 0 01-.315.308.307.307 0 01-.307-.308.302.302 0 01.087-.222.316.316 0 01.341-.069.323.323 0 01.17.171.31.31 0 01.024.12zM315 276a.308.308 0 01-.308.308.311.311 0 01-.315-.308.316.316 0 01.435-.291.303.303 0 01.167.171.307.307 0 01.021.12zm1.732 0c0 .082-.032.16-.09.217a.306.306 0 01-.217.091.308.308 0 01-.291-.189.315.315 0 01.41-.41.303.303 0 01.167.171.307.307 0 01.021.12zm1.71 0c0 .082-.032.16-.09.217a.306.306 0 01-.217.091.308.308 0 01-.291-.189.318.318 0 01.068-.342.32.32 0 01.223-.092.305.305 0 01.286.195.307.307 0 01.021.12zm1.71 0a.314.314 0 01-.516.191.314.314 0 01-.034-.444.307.307 0 01.239-.11.307.307 0 01.239.11.316.316 0 01.072.253zm1.71 0a.316.316 0 01-.092.22.313.313 0 01-.223.088.308.308 0 01-.307-.308.307.307 0 01.307-.315.315.315 0 01.315.315zm1.71 0a.316.316 0 01-.092.22.313.313 0 01-.223.088.308.308 0 01-.307-.308.307.307 0 01.307-.315.315.315 0 01.315.315zm1.71 0a.316.316 0 01-.092.22.313.313 0 01-.223.088.295.295 0 01-.117-.024.304.304 0 01-.19-.284.307.307 0 01.307-.315.315.315 0 01.315.315zm-.787 1.147a.316.316 0 01-.435.291.3.3 0 01-.167-.171.304.304 0 01-.021-.12.307.307 0 01.308-.307.31.31 0 01.222.087.318.318 0 01.069.101.324.324 0 01.024.119zm-1.755 0a.305.305 0 01-.022.12.303.303 0 01-.166.171.31.31 0 01-.343-.068.315.315 0 01-.068-.342.318.318 0 01.171-.167.307.307 0 01.12-.021.307.307 0 01.308.307zm-1.74 0a.304.304 0 01-.188.291.31.31 0 01-.411-.17.306.306 0 01.001-.24.3.3 0 01.17-.167.31.31 0 01.12-.021.314.314 0 01.218.09.313.313 0 01.09.217zm-1.755 0a.305.305 0 01-.022.12.303.303 0 01-.166.171.31.31 0 01-.343-.068.315.315 0 01-.068-.342.303.303 0 01.171-.167.307.307 0 01.12-.021.307.307 0 01.308.307zm-1.748 0a.308.308 0 01-.072.254.316.316 0 01-.478 0 .32.32 0 01-.072-.254.315.315 0 01.622 0zm-1.747 0a.315.315 0 01-.434.291.303.303 0 01-.188-.291.307.307 0 01.307-.307.307.307 0 01.315.307zm-.75 1.298a.307.307 0 01-.308.315.314.314 0 01-.222-.535.299.299 0 01.222-.087.307.307 0 01.308.307zm1.732 0a.307.307 0 01-.307.315.315.315 0 01-.291-.434.303.303 0 01.171-.167.307.307 0 01.12-.021.305.305 0 01.307.307zm1.71 0a.307.307 0 01-.428.291.32.32 0 01-.17-.17.318.318 0 010-.24.303.303 0 01.171-.167.307.307 0 01.12-.021.305.305 0 01.307.307zm1.71 0a.316.316 0 01-.614.135.314.314 0 01.508-.326.314.314 0 01.106.191zm1.71 0a.315.315 0 01-.434.291.303.303 0 01-.167-.171.307.307 0 01-.021-.12.307.307 0 01.307-.307.307.307 0 01.315.307zm1.71 0a.315.315 0 01-.434.291.303.303 0 01-.167-.171.307.307 0 01-.021-.12.307.307 0 01.307-.307.307.307 0 01.315.307zm1.71 0a.315.315 0 01-.434.291.303.303 0 01-.167-.171.322.322 0 01.002-.238.304.304 0 01.167-.166.294.294 0 01.117-.023.307.307 0 01.315.307zm-1.102 1.462a.307.307 0 100-.614.307.307 0 000 .614zm-1.747 0a.307.307 0 100-.614.307.307 0 000 .614zM321 279.6a.304.304 0 01-.19.284.294.294 0 01-.117.023.318.318 0 01-.254-.071.314.314 0 01.254-.551.305.305 0 01.286.195.307.307 0 01.021.12zm-2.063.307a.307.307 0 10.001-.615.307.307 0 00-.001.615zm-1.754 0a.307.307 0 100-.614.307.307 0 000 .614zm-1.433-.307a.316.316 0 01-.315.307.314.314 0 01-.191-.516.319.319 0 01.191-.106.315.315 0 01.315.315z" fill="#263238"/><path d="M291.375 203.467a3.93 3.93 0 011.215.218 6.823 6.823 0 012.955 1.927 12.865 12.865 0 012.617 4.95 48.939 48.939 0 011.643 7.253 91.502 91.502 0 01.48 19.313 11.328 11.328 0 01-1.68 5.354 6.888 6.888 0 01-2.115 2.048c-.873.544-1.9.789-2.925.697a4.543 4.543 0 01-2.783-1.297 3.409 3.409 0 01-.817-1.358 2.87 2.87 0 010-1.612 3.452 3.452 0 012.093-2.363 2.467 2.467 0 011.657 0c.526.201.984.547 1.32.998a4.094 4.094 0 01.75 3.105 8.439 8.439 0 01-1.088 2.955 11.42 11.42 0 01-15.375 4.455 13.036 13.036 0 01-4.049-3.488 17.077 17.077 0 01-2.498-4.372 28.85 28.85 0 01-1.642-8.85c-.143-2.752 0-5.25-.263-7.41a12.737 12.737 0 00-.697-2.925 8.373 8.373 0 00-1.253-2.19 6.311 6.311 0 00-2.79-2.063 9.063 9.063 0 00-1.192-.285c.416.009.828.082 1.222.218a6.132 6.132 0 012.872 2.032 8.315 8.315 0 011.313 2.25c.372.966.624 1.974.75 3 .292 2.183.158 4.681.323 7.418.1 2.987.665 5.939 1.672 8.752a16.857 16.857 0 002.423 4.306 12.75 12.75 0 003.952 3.382 11.064 11.064 0 0014.865-4.335 8.059 8.059 0 001.035-2.813 3.688 3.688 0 00-.652-2.819 2.667 2.667 0 00-1.148-.87 2.063 2.063 0 00-1.395 0 3.064 3.064 0 00-1.845 2.092 2.689 2.689 0 00.75 2.602 4.14 4.14 0 002.542 1.185 4.345 4.345 0 002.693-.637 6.49 6.49 0 002.003-1.935 10.992 10.992 0 001.627-5.182 92.887 92.887 0 00-.39-19.238 50.196 50.196 0 00-1.582-7.222 12.826 12.826 0 00-2.521-4.913 6.837 6.837 0 00-2.865-1.958 9.213 9.213 0 00-1.207-.375z" fill="#E0E0E0"/><path d="M285.487 214.32h-24.915v4.747h24.915v-4.747z" fill="#E0E0E0"/><path d="M105.637 263.4H73.14v69.952h32.497V263.4z" fill="#263238"/><path d="M102.847 325.987v-4.522c0-2.925 0-7.163-.052-12.495 0-10.665-.053-25.68-.09-43.148l.187.181H75.705l.195-.196c0 23.37 0 44.596-.053 60.165l-.142-.142 19.852.075 5.43.037h1.913-7.253l-19.942.075h-.135v-.142c0-15.57 0-36.795-.06-60.165v-.195h27.577v.187c0 17.52-.067 32.58-.09 43.275 0 5.31 0 9.541-.052 12.451v4.154c0 .203-.098.405-.098.405z" fill="#455A64"/><path d="M101.167 270.915v-.75c0-.488 0-1.17-.045-2.025l.083.082c-4.208.068-13.223.113-23.64.113l.195-.195v2.752l-.188-.195c6.608 0 12.488.045 16.74.083l5.033.052h1.372c.165-.016.331-.016.495 0a2.964 2.964 0 01-.442 0h-1.335l-4.98.053c-4.245.045-10.193.082-16.883.082h-.195v-2.947l.203-.195c10.417 0 19.432.045 23.64.112h.03v.083c0 .877 0 1.567-.045 2.077.005.274-.008.547-.038.818zm-21.262 1.98c0 .105-.488.195-1.088.195-.6 0-1.095-.09-1.095-.195 0-.105.488-.195 1.095-.195.608 0 1.088.082 1.088.195zm20.632 3.608c0 .105-5.032.194-11.25.194-6.217 0-11.25-.089-11.25-.194 0-.105 5.025-.196 11.25-.196s11.25.091 11.25.196zm.098 4.357c0 .113-4.95.195-11.047.195-6.098 0-11.048-.082-11.048-.195 0-.112 4.942-.195 11.047-.195s11.048.09 11.048.195z" fill="#455A64"/><path d="M89.295 292.838a1.786 1.786 0 10-.001-3.571 1.786 1.786 0 000 3.571z" fill="#DC3001"/><path d="M84.255 291a7.614 7.614 0 01-2.392.195A7.544 7.544 0 0179.5 291a7.283 7.283 0 012.385-.195 7.358 7.358 0 012.37.195zm14.52-.495a6.69 6.69 0 01-2.25.195 6.64 6.64 0 01-2.25-.195 6.904 6.904 0 012.25-.195 6.904 6.904 0 012.25.195z" fill="#455A64"/><path d="M74.25 298.5a6.963 6.963 0 01-1.215-.225 10.626 10.626 0 01-3.218-1.5 13.785 13.785 0 01-3.877-4.043 23.357 23.357 0 01-2.828-6.87 28.049 28.049 0 01-.862-8.947 18.375 18.375 0 013.412-9.705 15.32 15.32 0 014.073-3.87 14.131 14.131 0 012.617-1.297c.94-.329 1.91-.56 2.895-.691 1.98-.277 4.005-.24 6-.36 2.05-.043 4.07-.507 5.933-1.364a6.666 6.666 0 003.69-4.5 6.323 6.323 0 00-6.315-7.726 4.51 4.51 0 00-2.505.93 2.722 2.722 0 00-1.05 2.25 3.636 3.636 0 003.345 3.233 5.516 5.516 0 004.29-1.927 10.324 10.324 0 002.115-4.088c.373-1.384.66-2.789.862-4.207.539-4.306.672-8.653.398-12.983-.075-1.5-.135-2.708-.18-3.533 0-.39-.015-.697-.045-.922-.01-.105-.01-.21 0-.315.025.103.04.209.045.315 0 .225.045.525.082.915.06.81.158 1.995.248 3.533a66.137 66.137 0 01-.278 13.027 34.91 34.91 0 01-.847 4.253 10.641 10.641 0 01-2.123 4.207 5.826 5.826 0 01-4.552 2.048 3.978 3.978 0 01-3.683-3.556 3.096 3.096 0 011.178-2.565 4.786 4.786 0 012.707-1.012A6.75 6.75 0 0189.88 258a7.71 7.71 0 01-2.513 1.957 15.304 15.304 0 01-6.09 1.41c-2.047.12-4.065.083-6 .346-.96.128-1.904.351-2.82.667a13.37 13.37 0 00-2.542 1.26 15.085 15.085 0 00-3.99 3.75 18.117 18.117 0 00-3.375 9.51 28.036 28.036 0 00.84 8.872 23.617 23.617 0 002.745 6.818 13.753 13.753 0 003.75 4.035c.963.68 2.03 1.201 3.157 1.545.383.112.683.18.885.225.112.021.22.057.323.105zm65.887-143.618h-76.95v52.846h76.95v-52.846z" fill="#263238"/><path d="M106.192 200.52H95.715v19.935h10.477V200.52z" fill="#263238"/><path d="M70.845 219.69v7.17h39.705v106.845h3.653V226.86l165.817.818v106.027h3.585V227.482l25.59.203v-8.618l-238.35.623z" fill="#263238"/><path d="M96.255 225.465l15.653 11.272-1.358 1.306-15.787-11.888 1.492-.69zm202.103 1.05l-18.165 12.937 1.365 1.306 18.292-13.553-1.492-.69zm-128.738-9.472h-41.04v3.022h41.04v-3.022z" fill="#263238"/></svg>