<svg width="115" height="90" fill="none" xmlns="http://www.w3.org/2000/svg"><path fill="#fff" stroke="#000" stroke-width="1.723" stroke-linejoin="round" d="M39.42 14.138h36.157v60.891H39.42zm39.285 8.73h26.457V66.3H78.705zm-68.867 0h26.457V66.3H9.838z"/><path d="M1 44.584l7.275-4.2v8.4L1 44.584zm113 0l-7.275 4.2v-8.4l7.275 4.2z" fill="#DC3001"/><path d="M60.734 42.651a.954.954 0 00-1.597.001l-3.082 4.72-1.701-1.94a.952.952 0 00-1.517.11l-2.855 4.376h15.52l-4.768-7.267zm-6.45.987c1.07 0 1.94-.874 1.94-1.952a1.946 1.946 0 00-1.94-1.952c-1.072 0-1.94.874-1.94 1.952 0 1.078.868 1.952 1.94 1.952zm-29.106-.626a.597.597 0 00-.998.001l-1.927 2.95-1.063-1.212a.596.596 0 00-.948.068l-1.784 2.735h9.7l-2.98-4.542zm-4.031.618c.67 0 1.212-.547 1.212-1.221s-.543-1.22-1.212-1.22c-.67 0-1.213.546-1.213 1.22 0 .674.543 1.22 1.213 1.22zm72.899-.618a.597.597 0 00-.999.001l-1.926 2.95-1.063-1.212a.596.596 0 00-.948.068l-1.785 2.735h9.7l-2.98-4.542zm-4.032.618c.67 0 1.212-.547 1.212-1.221s-.543-1.22-1.212-1.22c-.67 0-1.213.546-1.213 1.22 0 .674.543 1.22 1.213 1.22z" fill="#112242"/></svg>