<svg width="115" height="90" fill="none" xmlns="http://www.w3.org/2000/svg"><mask id="a" maskUnits="userSpaceOnUse" x="9" y="37.549" width="98" height="34" fill="#000"><path fill="#fff" d="M9 37.549h98v34H9z"/><path d="M11 37.549h94V69.49H11V37.549z"/></mask><path d="M11 37.549h94V69.49H11V37.549z" fill="#A5A5A5"/><path d="M105 69.49v1.728c.954 0 1.727-.773 1.727-1.727H105zm-94 0H9.273c0 .955.773 1.728 1.727 1.728V69.49zm92.273-31.941V69.49h3.454V37.549h-3.454zM105 67.763H11v3.455h94v-3.455zm-92.273 1.728V37.549H9.273V69.49h3.454z" fill="#000" mask="url(#a)"/><path fill="#fff" stroke="#000" stroke-width="1.727" stroke-linejoin="round" d="M10.136 19.085h95.727v19.328H10.136zm0-16.949h95.727v12.809H10.136zm0 72.358h95.727v12.809H10.136z"/><path d="M100.995 28.749H94.87m2.845-17.384V8.541m0 0V5.716m0 2.825h3.063m-3.063 0h-3.063m3.063 75.183v-2.825m0 0v-2.825m0 2.825h3.063m-3.063 0h-3.063" stroke="#000" stroke-width=".864" stroke-linecap="round"/><path d="M87.087 28.423a3.07 3.07 0 106.14 0 3.07 3.07 0 00-6.14 0zm3.07 39.112l3.324-5.757h-6.648l3.324 5.757zm-.575-39.112v33.93h1.151v-33.93h-1.151z" fill="#DC3001"/></svg>