<svg width="115" height="90" fill="none" xmlns="http://www.w3.org/2000/svg"><path fill="#A5A5A5" stroke="#000" stroke-width="2.259" stroke-linejoin="round" d="M1.87 20.553h110.705V84.13H1.87z"/><path fill="#fff" stroke="#000" stroke-width="2.259" stroke-linejoin="round" d="M27.715 39.303h59.016v34.185H27.715zM1.87 6.87h110.705v16.955H1.87z"/><circle cx="13.134" cy="15.095" r="4.054" fill="#DC3001"/><circle cx="26.31" cy="15.095" r="4.054" fill="#000"/><circle cx="39.485" cy="15.095" r="4.054" fill="#000"/><path d="M84.334 48.102a6.213 6.213 0 11-12.427 0 6.213 6.213 0 0112.427 0zM75.717 45.7a.888.888 0 000 1.257l1.149 1.146-1.149 1.147a.888.888 0 101.257 1.257l1.147-1.149 1.147 1.149a.889.889 0 001.256-1.257l-1.148-1.147 1.148-1.146a.889.889 0 00-1.257-1.257l-1.146 1.148-1.147-1.148a.887.887 0 00-1.257 0z" fill="#DC3001"/></svg>