<svg width="115" height="90" fill="none" xmlns="http://www.w3.org/2000/svg"><path fill="#fff" stroke="#000" stroke-width="2.114" stroke-linejoin="round" d="M17.681 20.943h91.377v40.386H17.681z"/><path fill="#fff" stroke="#000" stroke-width="2.114" stroke-linejoin="round" d="M12.312 24.971h91.377v40.386H12.312z"/><path fill="#fff" stroke="#000" stroke-width="2.114" stroke-linejoin="round" d="M6.943 29.672H98.32v40.386H6.943z"/><path d="M12.026 49.528l10.067-5.814v11.63l-10.067-5.816zm78.527.672l-10.067 5.814v-11.63L90.553 50.2z" fill="#DC3001"/><path d="M57.11 46.853a1.32 1.32 0 00-2.211.002l-4.266 6.535-2.354-2.686a1.318 1.318 0 00-2.099.15l-3.95 6.06h21.476L57.11 46.853zm-8.927 1.367a2.694 2.694 0 002.684-2.703 2.693 2.693 0 00-2.684-2.703 2.693 2.693 0 00-2.685 2.703 2.694 2.694 0 002.685 2.703z" fill="#112242"/></svg>