<svg width="115" height="90" fill="none" xmlns="http://www.w3.org/2000/svg"><path fill="#fff" stroke="#000" stroke-width="2.332" stroke-linejoin="round" d="M5.834 21.604h103.548v59.561H5.834z"/><path fill="#fff" stroke="#000" stroke-width="2.332" stroke-linejoin="round" d="M5.834 8.834h103.548v16.048H5.834z"/><circle cx="16.034" cy="16.703" r="2.623" fill="#DC3001"/><circle cx="24.778" cy="16.703" r="2.623" fill="#000"/><circle cx="33.522" cy="16.703" r="2.623" fill="#000"/><path d="M99.911 53.575a4.152 4.152 0 10-8.305.051 4.152 4.152 0 008.305-.051zm-4.314-26.089L91.15 35.3l8.99-.056-4.543-7.758zm.94 26.11l-.118-19.107-1.557.01.118 19.106 1.557-.01z" fill="#DC3001"/><circle cx="96.148" cy="68.587" r="8.954" fill="#fff" stroke="#000" stroke-width="1.557"/><path d="M91.866 70.534l4.282-3.893 4.283 3.893" stroke="#000" stroke-width="2.491" stroke-linecap="round"/></svg>