<svg width="115" height="90" fill="none" xmlns="http://www.w3.org/2000/svg"><path d="M6.984 18.447v-2.228H17.48v2.228h-3.913V29h-2.671V18.447H6.984zM30.37 22.61c0 1.393-.264 2.579-.793 3.557-.524.977-1.24 1.724-2.146 2.24-.903.512-1.918.768-3.046.768-1.136 0-2.155-.258-3.058-.774s-1.616-1.263-2.14-2.24c-.525-.978-.787-2.162-.787-3.552 0-1.393.262-2.579.787-3.557.524-.977 1.237-1.722 2.14-2.234.903-.516 1.922-.774 3.058-.774 1.128 0 2.143.258 3.046.774.907.512 1.622 1.257 2.146 2.234.529.978.793 2.164.793 3.558zm-2.74 0c0-.903-.135-1.665-.405-2.285-.267-.62-.643-1.09-1.13-1.41-.487-.32-1.057-.48-1.71-.48s-1.223.16-1.71.48c-.487.32-.865.79-1.136 1.41-.266.62-.4 1.382-.4 2.285 0 .902.134 1.664.4 2.284.27.62.65 1.09 1.136 1.41.487.32 1.057.48 1.71.48s1.223-.16 1.71-.48c.487-.32.863-.79 1.13-1.41.27-.62.405-1.382.405-2.284zM32.373 29V16.22h5.042c.97 0 1.795.184 2.478.555a3.761 3.761 0 011.56 1.529c.362.649.543 1.397.543 2.246s-.183 1.598-.55 2.247a3.787 3.787 0 01-1.59 1.516c-.691.362-1.528.543-2.51.543h-3.213v-2.165h2.777c.52 0 .948-.09 1.285-.269a1.78 1.78 0 00.762-.755 2.37 2.37 0 00.255-1.117c0-.424-.085-.794-.255-1.11a1.71 1.71 0 00-.762-.743c-.341-.18-.774-.269-1.298-.269h-1.822V29h-2.702z" fill="#DC3001"/><path d="M57.845 16.22h3.332l3.52 8.586h.15l3.52-8.587h3.332V29h-2.621v-8.319h-.106l-3.308 8.257H63.88l-3.307-8.288h-.106V29h-2.621V16.22zM73.925 29V16.22h8.612v2.227h-5.91v3.046h5.468v2.227h-5.467v3.052h5.934V29h-8.637zm21.451-12.78V29h-2.334l-5.56-8.044h-.094V29h-2.702V16.22h2.371l5.517 8.037h.112V16.22h2.69zm10.127 0h2.702v8.3c0 .931-.222 1.747-.667 2.445-.441.7-1.059 1.244-1.854 1.636-.794.387-1.72.58-2.777.58-1.061 0-1.989-.194-2.783-.58-.795-.392-1.413-.936-1.854-1.636-.44-.698-.661-1.514-.661-2.446v-8.3h2.702v8.07c0 .486.106.919.318 1.297.217.379.52.676.911.893.392.216.847.324 1.367.324.524 0 .98-.108 1.367-.324a2.28 2.28 0 00.905-.893c.216-.378.324-.81.324-1.298V16.22zM47.877 48.795a.962.962 0 01-.683-.278l-5.891-5.901-3.2 4.805a.96.96 0 01-.962.423.96.96 0 01-.778-.673L30.596 27.95a.961.961 0 011.221-1.26l19.221 5.767a.961.961 0 01.673.779.961.961 0 01-.423.96l-4.805 3.201 5.9 5.892a.962.962 0 010 1.364l-3.843 3.845a.961.961 0 01-.663.297zm0-2.316l2.489-2.489-6.882-6.872 5.046-3.363-15.56-4.671 4.671 15.56 3.364-5.046 6.871 6.881z" fill="#000"/><path fill="#DC3001" d="M6 52.701h103.318V79H6z"/><path d="M23.97 60.863l-1.647.54c.383.818 1.12 2.742 1.371 3.573l1.66-.58c-.263-.844-1.067-2.874-1.383-3.533zm6.011 1.055l-1.964-.554c-.224 2.017-1.041 4.27-2.03 5.523-1.357 1.7-3.413 2.886-5.206 3.4l1.476 1.49c1.872-.712 3.796-2.043 5.18-3.875 1.081-1.424 1.832-3.52 2.201-4.956.08-.29.198-.699.343-1.028zm-9.688-.237l-1.673.593c.369.698 1.238 2.873 1.515 3.716l1.687-.619c-.303-.883-1.12-2.847-1.528-3.69zm11.823 3.347v2.083c.501-.04 1.384-.08 2.122-.08h7.091c.554 0 1.226.067 1.542.08v-2.083c-.355.027-.935.093-1.555.093h-7.078c-.685 0-1.634-.053-2.122-.093zm18.598 5.813l1.107.91c.132-.093.29-.238.567-.383 1.489-.751 3.374-2.175 4.468-3.598l-1.002-1.463c-.896 1.278-2.188 2.32-3.269 2.78v-6.88c0-.592.093-1.12.093-1.146h-1.951c0 .026.092.54.092 1.134v7.684c0 .356-.04.712-.105.962zm-6.103-.185l1.608 1.068a7.811 7.811 0 002.36-3.783c.342-1.331.382-4.112.382-5.68 0-.54.092-1.134.092-1.187h-1.938c.08.33.132.672.132 1.213 0 1.581-.013 4.086-.395 5.206-.356 1.134-1.068 2.346-2.24 3.163zm14.67-8.989l.422 1.53c1.146-.027 3.084-.08 4.586-.29 1.015-.146 2.07-.317 2.887-.528.21-.053.567-.145 1.015-.264l-1.094-1.45c-.66.317-1.99.607-3.322.805-1.45.21-3.48.224-4.494.197zm.567 9.095l1.687 1.133c2.544-1.529 3.413-3.782 3.413-6.445v-2.886l-1.726.197v2.729c0 2.464-1.041 4.204-3.374 5.272zm-1.556-5.931v1.7c.343-.026.83-.053 1.24-.053h8.777c.37 0 .804.027 1.16.053v-1.7c-.29.026-.91.066-1.186.066h-8.765c-.422 0-.857-.04-1.226-.066zm18.809-1.516l-1.556.514c.317.685.897 2.28 1.068 2.913l1.569-.54c-.185-.607-.83-2.334-1.081-2.887zm4.863.949l-1.845-.593c-.145 1.66-.79 3.414-1.687 4.52-1.08 1.371-2.926 2.373-4.363 2.769l1.384 1.41a10.294 10.294 0 004.402-3.282c.897-1.147 1.463-2.517 1.806-3.849.08-.263.158-.54.303-.975zM74.043 64l-1.582.58c.317.567.989 2.333 1.2 3.032l1.608-.593c-.25-.739-.897-2.347-1.226-3.019zm20.179-2.53a.765.765 0 111.53 0 .765.765 0 01-1.53 0zm-.817 0c0 .87.712 1.581 1.581 1.581.87 0 1.582-.711 1.582-1.581s-.712-1.582-1.582-1.582c-.87 0-1.581.712-1.581 1.582zm1.608 1.04l-1.305-.83c-.343.093-.764.106-1.028.106h-6.103c-.435 0-1.173-.066-1.568-.119v1.872c.343-.026.962-.066 1.568-.066h6.142c-.17 1.134-.672 2.636-1.555 3.73-1.054 1.331-2.544 2.478-5.167 3.084l1.437 1.582c2.36-.751 4.112-2.056 5.299-3.638 1.107-1.463 1.687-3.519 1.99-4.81.066-.277.158-.66.29-.91z" fill="#fff"/></svg>