<svg width="115" height="90" fill="none" xmlns="http://www.w3.org/2000/svg"><path fill="#fff" stroke="#000" stroke-width="1.212" stroke-linejoin="round" d="M2.394 46.96h30.837v23.192H2.394z"/><path d="M19.692 57.263a.677.677 0 00-1.131.001l-2.183 3.322-1.205-1.365a.677.677 0 00-1.074.076l-2.021 3.08h10.99l-3.376-5.114zm-4.568.695a1.374 1.374 0 100-2.747 1.374 1.374 0 000 2.747z" fill="#112242"/><path fill="#fff" stroke="#000" stroke-width="2.172" stroke-linejoin="round" stroke-dasharray="4.34 4.34" d="M44.975 18.914h68.111v50.984H44.975z"/><path d="M84.743 40.566a1.685 1.685 0 00-2.82.002l-5.444 8.334-3.003-3.425a1.682 1.682 0 00-2.678.192l-5.042 7.73H93.16l-8.417-12.834zm-11.391 1.742c1.892 0 3.425-1.543 3.425-3.447 0-1.903-1.533-3.446-3.425-3.446s-3.425 1.543-3.425 3.446c0 1.904 1.533 3.447 3.425 3.447z" fill="#112242"/><path d="M27.398 61.718a3.303 3.303 0 10-1.908-6.325 3.303 3.303 0 001.908 6.325zM63.257 47.45l-6.962-1.635 2.065 6.846 4.897-5.211zM26.623 59.148L58.1 49.653l-.357-1.185-31.476 9.494.357 1.186z" fill="#DC3001"/></svg>