<svg width="110" height="95" fill="none" xmlns="http://www.w3.org/2000/svg"><path fill="#fff" stroke="#000" stroke-width="2.5" stroke-linejoin="round" d="M15.75 14.75h77.5v74.5h-77.5z"/><path d="M25.5 28H47M26 48h21.5M26 67h21.5" stroke="#000" stroke-width="2.5" stroke-linecap="round"/><path fill="#fff" stroke="#DC3001" stroke-width="2.5" stroke-linejoin="round" d="M25.75 32.75h57.5v8.5h-57.5zm1 20h56.5v8.5h-56.5zm0 19h56.5v8.5h-56.5z"/><path fill="#fff" stroke="#000" stroke-width="2.5" stroke-linejoin="round" d="M15.75 5.75h77.689v12.69H15.75z"/><circle cx="24.028" cy="11.919" r="2.811" fill="#DC3001"/><circle cx="33.162" cy="11.919" r="2.811" fill="#000"/><circle cx="42.297" cy="11.919" r="2.811" fill="#000"/><path d="M76.41 71.854a.688.688 0 01-.488-.2l-4.215-4.22-2.289 3.437a.688.688 0 01-.687.302.688.688 0 01-.557-.481l-4.125-13.75a.686.686 0 01.873-.9l13.75 4.124a.688.688 0 01.481.557.687.687 0 01-.302.688L75.413 63.7l4.221 4.214a.689.689 0 010 .977l-2.75 2.75a.687.687 0 01-.474.213zm0-1.657l1.78-1.78-4.922-4.916 3.61-2.407-11.131-3.34 3.341 11.13 2.406-3.61 4.916 4.923z" fill="#000"/><path d="M76.41 70.197l1.78-1.78-4.922-4.916 3.61-2.407-11.131-3.34 3.341 11.13 2.406-3.61 4.916 4.923z" fill="#fff"/></svg>