<svg width="116" height="95" fill="none" xmlns="http://www.w3.org/2000/svg"><path fill="#fff" stroke="#000" stroke-width="2.289" stroke-linejoin="round" d="M1.855 20.855h112.289v67.289H1.855z"/><path fill="#fff" stroke="#000" stroke-width="2.289" stroke-linejoin="round" d="M13.023 30.663h48.988V56.76H13.023z"/><path fill="#fff" stroke="#000" stroke-width="2.289" stroke-linejoin="round" stroke-dasharray="4.58 4.58" d="M13.939 60.88h83.783v20.603H13.939z"/><path fill="#fff" stroke="#000" stroke-width="2.289" stroke-linejoin="round" d="M67.963 30.663h29.759V56.76H67.963zM2.035 6.855h112.181v17.181H2.035z"/><circle cx="13.449" cy="15.189" r="4.108" fill="#DC3001"/><circle cx="26.801" cy="15.189" r="4.108" fill="#000"/><circle cx="40.152" cy="15.189" r="4.108" fill="#000"/><path d="M48.963 43.71c0-6.065-4.923-10.987-10.988-10.987-6.066 0-10.988 4.922-10.988 10.988 0 6.065 4.922 10.988 10.988 10.988 6.065 0 10.988-4.923 10.988-10.988zm-10.988-9.878a9.871 9.871 0 019.878 9.879 9.871 9.871 0 01-9.878 9.878 9.871 9.871 0 01-9.878-9.878 9.871 9.871 0 019.878-9.879zm-2.187 15.175l-3.351-9.021c.538-.033 1.154-.088 1.154-.088.472-.055.417-1.11-.066-1.088 0 0-1.418.11-2.34.11-.166 0-.363 0-.572-.011a8.817 8.817 0 017.362-3.956 8.77 8.77 0 015.944 2.297c-.659-.088-1.593.384-1.593 1.56 0 .725.417 1.34.868 2.066.34.593.55 1.34.55 2.428 0 1.472-1.396 4.923-1.396 4.923l-2.978-8.241c.528-.033.824-.176.824-.176.473-.055.418-1.209-.055-1.187 0 0-1.428.121-2.351.121-.857 0-2.319-.12-2.319-.12-.472-.023-.527 1.164-.054 1.186l.923.088 1.23 3.34-1.78 5.769zm6.615 2.362l2.868-7.658s.736-1.857.428-4.187c.693 1.253 1.033 2.66 1.033 4.187 0 3.252-1.714 6.13-4.33 7.658zM29.932 40.161l4.197 11.516c-2.934-1.429-4.912-4.483-4.912-7.966 0-1.275.22-2.45.715-3.55zm8.186 4.978l2.516 6.867a7.86 7.86 0 01-2.66.462c-.79 0-1.548-.12-2.263-.33l2.407-6.999z" fill="#DC3001"/><path fill-rule="evenodd" clip-rule="evenodd" d="M37.975 33.832a9.871 9.871 0 019.878 9.879 9.871 9.871 0 01-9.878 9.878 9.871 9.871 0 01-9.878-9.878 9.871 9.871 0 019.878-9.879zm-5.538 6.154l3.351 9.02 1.78-5.768-1.23-3.34-.923-.088c-.473-.022-.418-1.209.054-1.187 0 0 1.462.121 2.319.121.923 0 2.351-.12 2.351-.12.473-.023.528 1.13.055 1.186 0 0-.296.143-.824.176l2.978 8.24s1.395-3.45 1.395-4.922c0-1.088-.208-1.835-.549-2.428-.45-.725-.868-1.34-.868-2.066 0-1.176.934-1.648 1.593-1.56a8.77 8.77 0 00-5.944-2.297 8.817 8.817 0 00-7.362 3.956c.209.01.406.01.571.01.923 0 2.34-.109 2.34-.109.484-.022.54 1.033.067 1.088 0 0-.616.055-1.154.088zM45.27 43.71l-2.868 7.658c2.615-1.527 4.33-4.406 4.33-7.658 0-1.528-.341-2.934-1.034-4.187.308 2.33-.428 4.187-.428 4.187zm-11.142 7.966L29.932 40.16c-.495 1.1-.715 2.275-.715 3.55 0 3.483 1.978 6.537 4.912 7.966zm6.505.33l-2.516-6.868-2.407 7a8.087 8.087 0 002.264.329 7.86 7.86 0 002.659-.462z" fill="#fff"/><path d="M60.487 66.476a6.296 6.296 0 11-8.903 8.903 6.296 6.296 0 018.903-8.903zm-7.896 4.452a.9.9 0 00.9.9l1.645-.001-.002 1.645a.9.9 0 101.802 0l-.002-1.645 1.645.001a.9.9 0 000-1.8h-1.645l.002-1.644a.901.901 0 00-1.801 0v1.644h-1.644a.898.898 0 00-.9.9zm33.502-29.302a1.202 1.202 0 00-.99-.505c-.4 0-.77.19-.99.507l-3.819 5.517-2.107-2.268a1.216 1.216 0 00-.973-.377 1.196 1.196 0 00-.906.504L72.77 50.12h19.229l-5.906-8.494zM78.1 42.78c1.327 0 2.403-1.022 2.403-2.282s-1.076-2.281-2.403-2.281c-1.328 0-2.404 1.021-2.404 2.281 0 1.26 1.076 2.282 2.404 2.282z" fill="#112242"/></svg>