<svg width="56" height="56" fill="none" xmlns="http://www.w3.org/2000/svg"><rect x="13.326" y="1.951" width="29.347" height="51.781" rx="1.901" fill="#fff" stroke="#000" stroke-width="2.153"/><path d="M13.326 44.615h29.348v7.248c0 1.05-.852 1.902-1.902 1.902H15.228a1.901 1.901 0 01-1.902-1.902v-7.248zM42.674 8.59H13.326V3.852c0-1.05.852-1.902 1.902-1.902h25.544c1.05 0 1.902.852 1.902 1.902v4.736z" fill="#fff" stroke="#000" stroke-width="2.153"/><path d="M30.433 49.158A2.427 2.427 0 0128 51.58a2.427 2.427 0 01-2.432-2.422A2.427 2.427 0 0128 46.736a2.427 2.427 0 012.433 2.422z" fill="#fff" stroke="#000" stroke-width="1.435"/><path d="M34.384 18.752a.442.442 0 000 .64.48.48 0 00.661 0l-.66-.64zm4.632-3.387a.46.46 0 00-.467-.453h-4.21a.46.46 0 00-.467.453c0 .25.21.452.468.452h3.741v3.617c0 .25.21.452.468.452a.46.46 0 00.467-.452v-4.07zm-3.97 4.026l3.833-3.707-.661-.64-3.834 3.708.661.64zm-14.446 0a.48.48 0 00.66 0 .442.442 0 000-.64l-.66.64zm-3.504-4.478a.46.46 0 00-.467.452v4.07a.46.46 0 00.467.451.46.46 0 00.468-.452v-3.617h3.741a.46.46 0 00.468-.452.46.46 0 00-.468-.453h-4.209zm4.165 3.839l-3.834-3.707-.661.64L20.6 19.39l.66-.64zm.269 13.707a.442.442 0 000-.64.48.48 0 00-.661 0l.661.64zm-4.632 3.387c0 .25.21.452.468.452h4.209a.46.46 0 00.468-.452.46.46 0 00-.468-.452h-3.741v-3.618a.46.46 0 00-.468-.452.46.46 0 00-.468.452v4.07zm3.971-4.027l-3.834 3.707.662.64 3.833-3.707-.661-.64zm14.176.001a.48.48 0 00-.66 0 .442.442 0 000 .639l.66-.64zm3.504 4.478a.46.46 0 00.467-.452v-4.07a.46.46 0 00-.467-.452.46.46 0 00-.468.452v3.618H34.34a.46.46 0 00-.468.452c0 .25.21.452.468.452h4.209zm-4.165-3.84l3.834 3.708.661-.64-3.834-3.707-.66.64z" fill="#DC3001"/><path d="M33.707 23.316v-2.539h-12.08v2.54h2.1v-1.524h2.89v8.887h-1.84v1.015h5.779V30.68h-1.839v-8.887h2.89v1.523h2.1z" fill="#000"/></svg>