<svg width="270" height="270" fill="none" xmlns="http://www.w3.org/2000/svg"><path d="M150.358 249.512c-9.31-4.406-13.02-14.882-14.332-24.64-.221-1.62-.686-3.305-.157-4.86.53-1.555 2.16-2.824 3.726-2.387 1.302.362 2.063 1.669 2.933 2.7a9.525 9.525 0 004.406 2.981c1.123.362 2.457.475 3.38-.259 1.264-1.01 1.08-2.965.821-4.574-.529-2.984-1.047-5.969-1.555-8.953a15.24 15.24 0 01-.319-4.86c.238-1.62 1.107-3.24 2.565-3.91 1.458-.669 3.505-.124 4.094 1.399.173.655.303 1.321.388 1.993.157.664.594 1.35 1.259 1.431.664.081 1.242-.486 1.647-1.043 1.382-1.906 2.16-4.19 2.862-6.453.702-2.262 1.36-4.568 2.57-6.598 1.21-2.031 3.056-3.78 5.341-4.32 2.284-.54 4.984.486 5.94 2.651.955 2.165.032 4.698-1.08 6.782a36.57 36.57 0 01-6.313 8.392 3.01 3.01 0 00-1.026 1.555c-.167 1.134 1.031 2.031 2.16 2.203 1.264.195 2.549-.151 3.829-.216 1.279-.064 2.732.26 3.412 1.367.935 1.533-.151 3.493-1.312 4.86a31.332 31.332 0 01-8.224 6.804c-1.112.631-2.295 1.225-3.11 2.219-.816.994-1.145 2.538-.378 3.575.766 1.037 2.316 1.15 3.515.707 1.199-.443 2.198-1.301 3.305-1.944 2.073-1.209 4.957-1.544 6.701.13a5.165 5.165 0 011.302 4.417 11.85 11.85 0 01-1.766 4.39 31.477 31.477 0 01-11.653 11.535c-4.833 2.646-9.51 3.936-14.926 2.932" fill="#F5F5F5"/><path d="M151.832 243a146.39 146.39 0 013.099-16.508l1.037-4.282c.34-1.409.68-2.803 1.08-4.142a73.53 73.53 0 012.84-7.56c1.021-2.365 2.074-4.579 3.073-6.636.999-2.058 1.976-3.959 2.938-5.649a57.743 57.743 0 016.712-9.574c.178-.205.324-.367.426-.491.103-.125.152-.162.157-.157a1.5 1.5 0 01-.13.178l-.41.508c-.356.443-.886 1.08-1.544 1.96a61.357 61.357 0 00-5.028 7.684c-.945 1.696-1.906 3.597-2.9 5.654a156.777 156.777 0 00-3.04 6.637 72.638 72.638 0 00-2.808 7.56c-.416 1.333-.75 2.7-1.08 4.125l-1.037 4.288a149.718 149.718 0 00-3.115 16.47" fill="#E0E0E0"/><path d="M157.14 218.047a3.119 3.119 0 01-.275-.665c-.162-.426-.373-1.08-.621-1.841-.497-1.566-1.113-3.753-1.782-6.161-.67-2.409-1.313-4.585-1.836-6.135a123.43 123.43 0 00-.627-1.836 3.91 3.91 0 01-.21-.686c.13.202.237.417.318.643.189.416.432 1.037.718 1.804.578 1.544 1.253 3.709 1.928 6.129.675 2.419 1.242 4.536 1.696 6.177.21.745.383 1.372.54 1.874.07.227.121.46.151.697z" fill="#E0E0E0"/><path d="M177.201 210.67a4.038 4.038 0 01-.81.243c-.54.135-1.28.33-2.209.6-1.863.54-4.406 1.339-7.177 2.365a116.18 116.18 0 00-7.02 2.867c-.885.394-1.592.735-2.084.967a4.803 4.803 0 01-.772.335c.223-.173.464-.321.718-.443a70.543 70.543 0 012.047-1.08c1.744-.853 4.206-1.928 6.982-2.959a72.816 72.816 0 017.231-2.285c.939-.248 1.706-.41 2.241-.513.28-.058.566-.091.853-.097zm-25.18 31.914a1.422 1.422 0 01-.184-.232l-.48-.686a86.07 86.07 0 01-1.691-2.586c-1.404-2.204-3.24-5.309-5.221-8.765-1.982-3.456-3.78-6.571-5.147-8.796l-1.62-2.641-.432-.718a1.065 1.065 0 01-.135-.259s.071.07.184.227c.113.156.292.41.481.691.415.599.993 1.479 1.695 2.586 1.399 2.204 3.24 5.303 5.222 8.759 1.982 3.456 3.78 6.572 5.141 8.802l1.62 2.635c.173.287.318.54.432.719.058.081.103.17.135.264z" fill="#E0E0E0"/><path d="M178.038 229.057a.997.997 0 01-.254.162l-.751.4-2.786 1.452c-2.354 1.232-5.584 2.965-9.148 4.86-3.564 1.896-6.809 3.629-9.18 4.806-1.188.589-2.16 1.08-2.829 1.367l-.81.356a1.276 1.276 0 01-.281.108c.077-.065.163-.119.254-.162l.756-.4 2.786-1.458c2.349-1.225 5.578-2.959 9.142-4.86 3.564-1.9 6.815-3.623 9.18-4.8 1.188-.589 2.16-1.08 2.83-1.366l.778-.357c.098-.052.203-.088.313-.108z" fill="#E0E0E0"/><path d="M82.836 133.601s-6.415.891-2.814 14.942c3.602 14.051 6.659 21.298 6.659 21.298s.48 3.18-2.085 3.083c-2.565-.097-7.797-2.16-9.574.589-1.836 2.873-.227 6.329 3.78 9.952s12.55 11.88 13.316 12.631c.767.75 1.329 2.295-.432 2.505-1.76.211-14.245-1.253-14.58 4.714-.334 5.967 12.534 14.219 13.922 15.147 1.387.929 1.62 1.653 1.296 2.463-.324.81-4.46-.081-8.03-.357-3.57-.275-7.76.044-7.668 3.5.092 3.456 6.852 12.204 26.562 18.705l9.337 2.414 6.896-6.793c13.878-15.439 15.395-26.385 13.759-29.43-1.636-3.046-5.4-1.237-8.392.772-2.991 2.009-6.123 4.86-6.793 4.32-.669-.54-.842-1.285-.097-2.781.745-1.496 7.814-15.05 4.552-20.061-3.261-5.011-13.37 2.452-14.99 3.137-1.62.686-1.912-.945-1.62-1.96.291-1.015 3.585-12.42 5.281-17.577 1.696-5.157 1.372-8.948-1.652-10.524-2.916-1.518-6.421 2.889-8.603 4.249-2.181 1.361-3.337-1.62-3.337-1.62s-.95-7.803-4.806-21.789c-3.855-13.986-10.006-11.48-10.006-11.48" fill="#EBEBEB"/><path d="M112.52 247.509c-2.792-10.26-7.452-28.62-11.529-44.383-4.077-15.762-7.782-29.975-10.525-40.267-1.372-5.141-2.484-9.299-3.24-12.188-.378-1.431-.675-2.549-.88-3.316l-.227-.864c-.049-.194-.065-.297-.065-.297s.038.092.097.286c.06.195.14.492.249.859.221.767.54 1.874.94 3.299.81 2.868 1.954 7.02 3.347 12.161 2.792 10.26 6.534 24.522 10.611 40.252 4.077 15.73 8.7 34.106 11.443 44.399" fill="#E0E0E0"/><path d="M82.226 176.72c.215.089.421.2.615.33.384.227.934.572 1.62 1.004 1.345.87 3.175 2.117 5.168 3.526l5.087 3.629 1.55 1.08c.195.122.376.265.54.427a3.396 3.396 0 01-.621-.33 61.825 61.825 0 01-1.62-1.009c-1.334-.881-3.149-2.16-5.141-3.564l-5.114-3.591-1.555-1.08a3.163 3.163 0 01-.53-.422zm15.363 9.548c-.07-.044 2.333-3.926 5.362-8.673 3.029-4.746 5.551-8.559 5.621-8.516.071.044-2.332 3.932-5.367 8.678-3.035 4.747-5.546 8.543-5.616 8.511zm5.173 24.451c.149-.187.322-.354.513-.497l1.452-1.274a162.014 162.014 0 004.72-4.288 157.221 157.221 0 004.525-4.493c.54-.54.983-1.02 1.345-1.388a3.7 3.7 0 01.54-.491c-.12.206-.265.397-.432.567a46.34 46.34 0 01-1.28 1.453c-1.08 1.215-2.657 2.851-4.471 4.568a93.473 93.473 0 01-4.785 4.234c-.637.54-1.155.928-1.522 1.204a3.31 3.31 0 01-.605.405zm-15.795-5.578c.218.026.432.078.637.156l1.712.54c1.436.459 3.418 1.113 5.6 1.847a275.91 275.91 0 015.572 1.939l1.68.615c.209.066.41.154.599.265a2.496 2.496 0 01-.637-.151l-1.712-.54a352.118 352.118 0 01-5.6-1.853 367.054 367.054 0 01-5.572-1.933l-1.68-.621a2.472 2.472 0 01-.6-.264zm1.825 22.167c.278.041.551.11.815.205l2.193.669c1.847.578 4.39 1.394 7.198 2.317 2.808.923 5.341 1.766 7.171 2.398l2.16.756c.269.086.531.192.783.318a4.308 4.308 0 01-.821-.205l-2.192-.67a539.42 539.42 0 01-7.198-2.316 622.857 622.857 0 01-7.166-2.398l-2.16-.761a4.776 4.776 0 01-.783-.313zm19.877 6.366c.191-.233.402-.448.632-.642l1.788-1.68a252.45 252.45 0 005.81-5.632c2.23-2.241 4.201-4.32 5.616-5.832l1.674-1.793c.197-.229.412-.442.643-.637a4.876 4.876 0 01-.54.713c-.368.448-.918 1.08-1.62 1.857a136.465 136.465 0 01-5.562 5.903c-2.241 2.241-4.32 4.195-5.876 5.578-.777.686-1.409 1.242-1.857 1.62-.22.201-.457.383-.708.545z" fill="#E0E0E0"/><path d="M54.972 49.81l-5.27-1.62s-1.383 4.428-6.005 3.072a4.476 4.476 0 01-3.278-4.012 4.924 4.924 0 011.701-4.174c1.355-1.199 3.731-1.928 7.085-.195l3.71-11.88-5.211-1.62-2.16 6.961s-7.906-.394-10.417 7.657c-2.403 7.706 3.947 11.653 6.907 12.577 2.246.702 10.135 2.56 12.938-6.766zM48.41 26.909l5.288 1.65 1.541-4.938-5.289-1.65-1.54 4.938z" fill="#F5F5F5"/><path d="M69.514 36.396l2.112-.54a1.852 1.852 0 011.366-2.284 1.772 1.772 0 011.944.653 1.949 1.949 0 01.297 1.744c-.2.686-.843 1.431-2.333 1.556l1.258 4.757 2.085-.54-.735-2.786a4.207 4.207 0 001.874-4.752c-.81-3.09-3.78-3.073-4.952-2.765-.907.21-3.937 1.242-2.916 4.957zm7.464 6.04l-2.126.57.532 1.985 2.126-.57-.532-1.985zM243.832 91.05l2.052.74a1.85 1.85 0 01.987-1.053 1.856 1.856 0 011.443-.028 1.759 1.759 0 011.22 1.62 1.951 1.951 0 01-.745 1.62c-.54.448-1.507.691-2.803-.054l-1.679 4.628 2.03.734.983-2.7a4.216 4.216 0 004.25-2.84c1.08-3.002-1.356-4.671-2.506-5.087-.88-.345-3.958-1.215-5.232 2.42zm2.202 9.146l-2.062-.747-.697 1.924 2.062.747.697-1.924z" fill="#EBEBEB"/><path d="M26.06 114.55l4.32-1.674s-1.404-3.645 2.36-5.173a3.777 3.777 0 014.266.934 4.175 4.175 0 011.048 3.634c-.27 1.502-1.458 3.24-4.585 3.84l3.78 9.79 4.32-1.652-2.214-5.735s5.4-3.877 2.867-10.519c-2.456-6.351-8.742-5.627-11.156-4.693-1.863.718-8.04 3.618-5.006 11.248zm16.328 11.691l-4.36 1.68 1.57 4.071 4.358-1.679-1.569-4.072zm203.134 4.785l-3.078 1.182s.993 2.587-1.674 3.667a2.703 2.703 0 01-3.024-.659 2.95 2.95 0 01-.74-2.576c.194-1.08 1.037-2.289 3.24-2.7l-2.646-6.96-3.046 1.171 1.566 4.067a6.367 6.367 0 00-2.03 7.452c1.733 4.498 6.172 3.99 7.9 3.326 1.307-.513 5.681-2.565 3.532-7.97zm-11.57-8.285l3.089-1.19-1.111-2.882-3.089 1.19 1.111 2.882z" fill="#F5F5F5"/><path d="M254.216 250.436c0 .081-53.379.14-119.211.14-65.831 0-119.22-.059-119.22-.14 0-.081 53.367-.141 119.22-.141 65.853 0 119.211.065 119.211.141z" fill="#263238"/><path d="M50.026 236.412c.54-1.987-.794-3.98-2.252-5.4-1.458-1.42-3.202-2.727-3.964-4.633-1.231-3.089.421-7.085-1.674-9.661-1.236-1.512-3.45-2.019-4.547-3.639a8.228 8.228 0 01-.988-2.889 29.33 29.33 0 00-7.306-13.673 25.499 25.499 0 002.867 13.176c.848 1.62 1.896 3.197 2.16 5.006.46 2.932-1.182 5.94-.459 8.834.827 3.294 4.526 5.503 4.698 8.894.152 2.867-2.349 5.4-2.16 8.251a7.68 7.68 0 001.291 3.402c2.214 3.688 5.476 6.226 10.411 6.145l6.048.211-4.125-14.024z" fill="#DC3001"/><path d="M50.026 236.412c.54-1.987-.794-3.98-2.252-5.4-1.458-1.42-3.202-2.727-3.964-4.633-1.231-3.089.421-7.085-1.674-9.661-1.236-1.512-3.45-2.019-4.547-3.639a8.228 8.228 0 01-.988-2.889 29.33 29.33 0 00-7.306-13.673 25.499 25.499 0 002.867 13.176c.848 1.62 1.896 3.197 2.16 5.006.46 2.932-1.182 5.94-.459 8.834.827 3.294 4.526 5.503 4.698 8.894.152 2.867-2.349 5.4-2.16 8.251a7.68 7.68 0 001.291 3.402c2.214 3.688 5.476 6.226 10.411 6.145l6.048.211-4.125-14.024z" fill="#000" opacity=".3"/><path d="M55.372 250.56a4.846 4.846 0 001.668-.032 10.427 10.427 0 001.96-.497 8.375 8.375 0 002.43-1.329c.44-.353.784-.812 1-1.333.18-.585.275-1.192.28-1.804.012-.654.061-1.306.146-1.955.114-.69.363-1.351.734-1.944.713-1.253 1.901-2.441 2.28-4.142.377-1.701.118-3.483-.163-5.297-.28-1.814-.54-3.78.14-5.681.681-1.901 1.977-3.602 2.641-5.729.664-2.128.351-4.471.492-6.756a8.898 8.898 0 01.788-3.358c.486-1.08 1.166-2.079 1.696-3.203 1.08-2.278 1.263-4.86 1.555-7.392.146-1.275.286-2.565.432-3.861.092-1.31.318-2.608.675-3.872.41-1.274.893-2.524 1.447-3.742.286-.63.52-1.282.702-1.95.102-.69.167-1.386.194-2.084.065-1.397.01-2.797-.162-4.185-.162-1.393-.415-2.776-.567-4.174v-.243l-.032-.276-.243.119a9.34 9.34 0 00-3.24 2.749 14.924 14.924 0 00-2.003 3.688c-1.01 2.597-1.372 5.319-1.88 7.916-.507 2.598-1.155 5.152-2.484 7.312-.664 1.08-1.468 2.063-2.16 3.11a8.527 8.527 0 00-1.5 3.446c-.363 2.559 1.047 4.806.755 7.074a7.826 7.826 0 01-1.08 3.137c-.54.967-1.193 1.863-1.809 2.759a17.73 17.73 0 00-1.62 2.792 8.784 8.784 0 00-.745 3.03c-.146 2.041.14 3.974 0 5.799a13.366 13.366 0 01-1.496 4.974c-.729 1.485-1.544 2.829-2.225 4.136-.34.648-.658 1.285-.918 1.928a9.648 9.648 0 00-.54 1.911 11.992 11.992 0 00-.043 3.451 8.7 8.7 0 001.728 4.401c.149.193.313.374.492.54a2.5 2.5 0 00.394.335c.227.167.345.243.345.243a7.514 7.514 0 01-1.171-1.156 8.721 8.721 0 01-1.62-4.374 11.927 11.927 0 01.075-3.402 9.181 9.181 0 01.54-1.863 19.85 19.85 0 01.924-1.901c.685-1.296 1.506-2.635 2.251-4.131a13.494 13.494 0 001.545-5.059c.162-1.863-.119-3.807.032-5.795a8.672 8.672 0 01.73-2.932 17.59 17.59 0 011.62-2.732c.615-.897 1.268-1.793 1.83-2.781a8.103 8.103 0 001.155-3.267c.292-2.414-1.107-4.671-.745-7.053a8.285 8.285 0 011.453-3.294c.686-1.031 1.496-2.014 2.16-3.121 1.377-2.219 2.041-4.822 2.543-7.43.502-2.608.875-5.308 1.869-7.857a14.543 14.543 0 011.949-3.586 8.962 8.962 0 013.116-2.635l-.276-.157c0 .081 0 .162.027.249.152 1.415.405 2.797.54 4.179.17 1.367.223 2.745.157 4.121a20.17 20.17 0 01-.184 2.019 12.17 12.17 0 01-.68 1.885 35.613 35.613 0 00-1.458 3.78 19.604 19.604 0 00-.68 3.931c-.14 1.301-.287 2.592-.427 3.866-.292 2.544-.48 5.082-1.512 7.28-.54 1.08-1.188 2.111-1.69 3.213a9.238 9.238 0 00-.81 3.483c-.135 2.332.167 4.617-.465 6.679-.631 2.063-1.944 3.78-2.608 5.73-.664 1.949-.421 4.012-.13 5.821.292 1.809.584 3.591.195 5.195-.389 1.604-1.501 2.802-2.225 4.088a5.497 5.497 0 00-.75 2.025 16.962 16.962 0 00-.13 1.976c0 .596-.087 1.19-.26 1.76-.2.495-.52.931-.933 1.269a8.33 8.33 0 01-2.371 1.34c-.627.241-1.277.422-1.939.54a7.412 7.412 0 01-1.225.118c-.34-.032-.486-.032-.486-.032z" fill="#263238"/><path d="M74.477 179.334a.654.654 0 00-.06.184l-.13.54c-.118.48-.264 1.198-.49 2.095-.227.896-.784 1.911-1.254 3.159a45.088 45.088 0 00-1.436 4.287c-.464 1.62-.87 3.402-1.301 5.325a22.4 22.4 0 01-1.933 5.902c-.497.983-1.08 1.976-1.496 3.067a14.068 14.068 0 00-.87 3.467 70.743 70.743 0 01-1.306 7.317c-1.21 4.952-2.366 9.671-3.419 13.97-1.053 4.298-2.046 8.143-2.867 11.394-.82 3.251-1.442 5.843-1.895 7.695-.211.885-.379 1.582-.497 2.095-.049.221-.092.4-.125.54a.994.994 0 000 .189.71.71 0 00.07-.178c.038-.146.092-.319.157-.54.135-.502.324-1.199.567-2.079.486-1.836 1.172-4.444 2.02-7.657.848-3.213 1.836-7.101 2.943-11.373 1.107-4.271 2.23-9.023 3.45-13.98.56-2.421.986-4.871 1.275-7.339.138-1.159.42-2.297.842-3.386.427-1.08.972-2.046 1.47-3.04 1.08-1.971 1.506-4.088 1.932-5.994.427-1.906.805-3.71 1.248-5.319a50.892 50.892 0 011.371-4.288c.465-1.242.978-2.268 1.2-3.196.22-.929.323-1.62.42-2.117.036-.223.069-.403.097-.54.017-.135.028-.2.017-.2z" fill="#263238"/><path d="M56.44 250.587c3.948-2.349 5.082-9.477 3.435-13.765-1.647-4.287-4.53-8.208-4.973-12.781-.346-3.516.81-7.123 0-10.557-1.107-4.639-5.633-8.23-5.578-12.998.026-2.673 1.55-5.19 1.425-7.863-.146-3.272-2.662-5.875-4.217-8.758-2.387-4.423-2.544-9.645-3.36-14.58-.814-4.936-2.7-10.26-7.095-12.696-.648 4.207-1.755 7.09-1.41 12.787.13 2.047 2.506 5.94 2.83 10.449.195 2.7.325 5.368.492 8.046.167 2.679.33 5.271 1.264 7.712.718 1.873 1.868 3.574 2.403 5.508.998 3.634-.32 7.56.49 11.253.687 3.121 2.847 5.805 3.29 8.97.615 4.444-2.258 9.066-.789 13.305.735 2.106 2.462 3.78 2.954 5.967.383 1.685-.032 3.472.313 5.163.54 2.732 5.756 4.86 8.538 4.681" fill="#DC3001"/><path d="M37.157 160.742a1.268 1.268 0 000 .237c0 .179.054.405.087.692.092.61.194 1.501.4 2.656.205 1.156.82 2.463 1.295 4.04.476 1.576 1.005 3.38 1.448 5.4.442 2.019.831 4.271 1.225 6.685.395 2.414.827 5.043 2.025 7.56.54 1.258 1.178 2.522 1.62 3.872a17.47 17.47 0 01.832 4.266 85.38 85.38 0 001.161 9.18c1.21 6.231 2.36 12.166 3.407 17.571 1.048 5.406 2.101 10.228 2.943 14.31.843 4.083 1.534 7.344 2.015 9.645l.54 2.619c.064.28.113.502.156.675.015.079.036.157.065.232a.997.997 0 000-.238c-.032-.178-.07-.399-.119-.686l-.497-2.635c-.453-2.306-1.08-5.6-1.895-9.666-.815-4.066-1.782-8.942-2.857-14.326-1.074-5.384-2.16-11.34-3.375-17.566a86.125 86.125 0 01-1.166-9.18 17.74 17.74 0 00-.859-4.353c-.48-1.371-1.112-2.64-1.668-3.893-1.188-2.479-1.62-5.065-2.03-7.468-.411-2.403-.805-4.66-1.275-6.691a56.414 56.414 0 00-1.512-5.4c-.53-1.555-1.118-2.873-1.355-4.001-.238-1.129-.351-2.036-.465-2.635a76.234 76.234 0 01-.13-.686 1.852 1.852 0 00-.016-.216z" fill="#263238"/><path d="M220.184 41.37l2.086.558a1.836 1.836 0 01.87-1.13 1.827 1.827 0 011.416-.163 1.74 1.74 0 011.34 1.51 1.932 1.932 0 01-.596 1.64c-.511.49-1.424.81-2.757.19l-1.258 4.694 2.05.55.735-2.744a4.149 4.149 0 003.923-3.142c.813-3.036-1.721-4.47-2.889-4.782-.887-.26-3.98-.86-4.92 2.818zm2.912 8.802l-2.081-.558-.521 1.946 2.081.558.521-1.946z" fill="#DC3001"/><path d="M239.371 45.063a1.808 1.808 0 000-.275v-.8c0-.172 0-.372-.027-.588a25.876 25.876 0 00-.097-.702c-.038-.249-.076-.54-.119-.826l-.227-.918a14.957 14.957 0 00-1.944-4.455 15.71 15.71 0 00-11.82-7.226 15.875 15.875 0 00-2.16-.043c-.362 0-.735 0-1.08.07l-1.113.168a16.025 16.025 0 00-4.384 1.496 17.1 17.1 0 00-3.937 2.867 16.389 16.389 0 00-2.965 4.126 14.974 14.974 0 00-1.598 5.027c-.068.445-.105.894-.113 1.345-.037.45-.046.903-.027 1.355a15.922 15.922 0 002.619 8.127v-.167c-.751 1.873-1.491 3.715-2.214 5.508l-.13.329.34-.097 5.886-1.62-.14-.033a15.752 15.752 0 006.739 2.949c1.135.211 2.292.282 3.445.21.556-.008 1.11-.06 1.658-.156l.805-.124c.264-.049.54-.13.777-.19a15.751 15.751 0 008.975-6.15 15.019 15.019 0 001.928-3.656c.102-.286.2-.54.291-.82.092-.281.141-.54.2-.784.06-.243.124-.491.178-.718.054-.227.071-.448.103-.659.049-.415.124-.783.14-1.08.017-.297 0-.583 0-.81v-.658a.587.587 0 000 .167c0 .124 0 .286-.037.491-.038.206-.033.492-.054.805-.022.313-.103.68-.168 1.08a15.66 15.66 0 01-11.615 12.528c-.254.06-.508.135-.767.184l-.794.118c-.535.09-1.077.139-1.62.146a14.377 14.377 0 01-3.38-.221 15.577 15.577 0 01-6.583-2.9l-.065-.054h-.081l-5.891 1.62.205.232 2.22-5.502.032-.087-.049-.08a15.518 15.518 0 01-2.559-7.944c-.018-.441-.009-.883.027-1.323a8.73 8.73 0 01.108-1.312 14.61 14.61 0 011.506-4.92 16.275 16.275 0 012.889-4.039 16.675 16.675 0 013.856-2.813 15.543 15.543 0 014.293-1.485l1.08-.168c.362-.054.724-.048 1.08-.075a16.13 16.13 0 012.111.037 15.54 15.54 0 0111.681 7.02 14.957 14.957 0 011.976 4.385l.243.907c.049.287.092.54.135.81.043.27.076.486.113.702.038.216.027.41.044.584 0 .334.043.599.059.793a.921.921 0 00.016.292z" fill="#263238"/><path d="M78.338 108.745h31.185s0-26.184 27.211-26.649c14.131-.248 21.459 9.013 24.44 16.103 3.456 8.235 2.408 17.62-2.225 25.261-5.286 8.721-16.68 17.485-37.697 13.781l-.2 69.482h30.839v-41.191s43.249-11.178 43.249-58.86c0-45.603-36.877-55.453-56.7-56.09-11.027-.351-15.023-.826-28.663 1.112-17.383 2.484-31.806 22.67-31.44 57.051zm73.926 112.461h-31.298v29.23h31.298v-29.23z" fill="#DC3001"/><path opacity=".1" d="M152.264 221.206h-31.298v29.23h31.298v-29.23zM78.338 108.745h31.185s0-26.184 27.211-26.649c14.131-.248 21.459 9.013 24.44 16.103 3.456 8.235 2.408 17.62-2.225 25.261-5.286 8.721-16.68 17.485-37.697 13.781l-.2 69.482h30.839v-41.191s43.249-11.178 43.249-58.86c0-45.603-36.877-55.453-56.7-56.09-11.027-.351-15.023-.826-28.663 1.112-17.383 2.484-31.806 22.67-31.44 57.051z" fill="#000"/><path d="M65.416 108.745h31.19s0-26.184 27.211-26.649c14.132-.248 21.459 9.013 24.435 16.103 3.461 8.235 2.414 17.62-2.22 25.261-5.286 8.721-16.88 16.648-37.897 12.96v70.303h30.84v-41.191s43.248-11.178 43.248-58.86c0-45.603-40.899-56.193-58.401-56.193-13.386.016-58.995 3.251-58.406 58.266z" fill="#DC3001"/><path opacity=".3" d="M65.416 108.745h31.19s0-26.184 27.211-26.649c14.132-.248 21.459 9.013 24.435 16.103 3.461 8.235 2.414 17.62-2.22 25.261-5.286 8.721-16.88 16.648-37.897 12.96v70.303h30.84v-41.191s43.248-11.178 43.248-58.86c0-45.603-40.899-56.193-58.401-56.193-13.386.016-58.995 3.251-58.406 58.266z" fill="#000"/><path d="M139.347 221.206h-31.298v29.23h31.298v-29.23z" fill="#DC3001"/><path opacity=".3" d="M139.347 221.206h-31.298v29.23h31.298v-29.23z" fill="#000"/><path d="M127.338 82.237c-.155.013-.31.013-.465 0-.308 0-.75-.103-1.328-.108a26.939 26.939 0 00-4.893.205c-2.404.304-4.769.86-7.057 1.658a30.224 30.224 0 00-3.932 1.695 20.797 20.797 0 00-3.85 2.49 19.06 19.06 0 00-3.148 3.326 32.57 32.57 0 00-2.36 3.575 31.97 31.97 0 00-2.792 6.685 27.183 27.183 0 00-.94 4.806c-.064.572-.08 1.026-.096 1.328a2.5 2.5 0 01-.044.465 2.598 2.598 0 010-.465c0-.307 0-.761.049-1.339.124-1.644.412-3.272.859-4.86a31.086 31.086 0 012.754-6.76 32.206 32.206 0 012.37-3.613 18.875 18.875 0 013.186-3.375 20.934 20.934 0 013.899-2.522 30.198 30.198 0 013.958-1.728 33.922 33.922 0 017.123-1.62 24.84 24.84 0 014.919-.113c.446.028.889.082 1.329.162.155.025.308.06.459.108zm46.99-5.557s-.037-.038-.102-.119a7.88 7.88 0 01-.27-.378l-1.032-1.458c-.221-.313-.459-.675-.739-1.047l-.972-1.183-1.113-1.366c-.405-.475-.88-.934-1.355-1.437-.475-.502-.961-1.036-1.512-1.55-.551-.512-1.14-1.036-1.744-1.576-.303-.27-.6-.54-.924-.826l-1.004-.794c-.686-.54-1.366-1.08-2.106-1.62a67.908 67.908 0 00-10.222-6.037l-2.846-1.286-2.824-1.08c-.924-.383-1.863-.653-2.771-.955-.907-.303-1.792-.61-2.7-.821l-2.581-.675c-.837-.222-1.668-.357-2.462-.54-.794-.184-1.561-.346-2.311-.438l-2.16-.313c-1.367-.232-2.619-.28-3.71-.389-.54-.043-1.08-.102-1.528-.124l-1.286-.032-1.782-.06h-.621a.51.51 0 01.157 0h3.537c.47 0 .983.065 1.534.103 1.08.092 2.354.13 3.72.351l2.16.292c.751.086 1.518.28 2.317.426.799.146 1.62.297 2.478.54l2.592.67c.897.205 1.782.54 2.7.815.918.276 1.853.54 2.776.95l2.84 1.08 2.862 1.291a66.178 66.178 0 0110.26 6.08c.746.54 1.426 1.118 2.112 1.653l1.004.729c.324.27.621.54.924.832l1.738 1.62c.54.54 1.026 1.08 1.507 1.571.481.491.94.972 1.345 1.453l1.08 1.377.961 1.198c.275.378.507.746.723 1.08.422.632.751 1.129.983 1.485l.254.395a.58.58 0 01.113.113zm-3.251 66.96a1.65 1.65 0 01-.232.324l-.745.88c-.308.394-.697.864-1.177 1.388-.481.524-.994 1.139-1.62 1.777-.627.637-1.296 1.35-2.058 2.068-.761.718-1.587 1.474-2.467 2.262a67.424 67.424 0 01-12.615 8.7c-1.047.54-2.036 1.08-2.991 1.496-.956.415-1.847.842-2.668 1.188-.821.345-1.577.631-2.236.885-.658.254-1.236.459-1.711.61l-1.08.351c-.126.05-.256.086-.389.108a1.94 1.94 0 01.367-.162l1.08-.399c.47-.168 1.037-.384 1.69-.654.654-.27 1.41-.54 2.22-.923.81-.383 1.706-.745 2.64-1.215.934-.47 1.933-.967 2.976-1.512a79.511 79.511 0 006.517-3.996c2.241-1.534 4.256-3.148 6.048-4.671.881-.778 1.723-1.507 2.474-2.241.75-.734 1.452-1.399 2.073-2.036s1.167-1.226 1.653-1.744.885-.972 1.209-1.35l.756-.859c.088-.099.184-.191.286-.275zm-32.648 60.631c-.081 0-.146-8.672-.146-19.37 0-10.697.065-19.375.146-19.375.081 0 .14 8.673.14 19.375 0 10.703-.064 19.37-.14 19.37zm1.188 44.183c-.081 0-.14-6.086-.14-13.592s.059-13.597.14-13.597c.081 0 .141 6.086.141 13.597 0 7.512-.065 13.592-.141 13.592z" fill="#263238"/><path d="M170.316 104.603c-.54 1.08 1.474 1.966 2.635 2.317 1.185.291 2.411.375 3.624.248 1.62-.086 3.278-.237 4.676-1.036a7.464 7.464 0 002.819-3.159 22.226 22.226 0 001.431-4.045s-12.76.832-15.185 5.675z" fill="#DC3001"/><path d="M170.316 104.603c-.54 1.08 1.474 1.966 2.635 2.317 1.185.291 2.411.375 3.624.248 1.62-.086 3.278-.237 4.676-1.036a7.464 7.464 0 002.819-3.159 22.226 22.226 0 001.431-4.045s-12.76.832-15.185 5.675z" fill="#000" opacity=".4"/><path d="M206.356 101.147a12.245 12.245 0 007.203 2.258 5.097 5.097 0 003.429-1.08c.416-.384.729-.87 1.156-1.237.291-.248.632-.437.907-.702a1.162 1.162 0 00.394-1.026 2.118 2.118 0 00-.745-1.188c-1.463-.832-3.213-.8-4.898-.761a16.852 16.852 0 00-4.941.966c-1.307.443-2.673 1.08-3.337 2.268" fill="#DC3001"/><path d="M219.445 99.36a2.242 2.242 0 00-.956-1.08c-1.463-.832-3.002-.907-4.687-.87a16.852 16.852 0 00-4.941.967c-1.307.443-2.673 1.08-3.337 2.268l.832.502a12.245 12.245 0 007.203 2.258 5.097 5.097 0 003.429-1.08c.416-.384.729-.87 1.156-1.237.291-.248.632-.437.907-.702a1.162 1.162 0 00.394-1.026z" fill="#000" opacity=".4"/><path d="M181.44 120.528l26.919.356a.36.36 0 00.158-.037.353.353 0 00.177-.416l-3.159-9.85s.464-4.925 1.107-10.843c.977-8.991 2.279-20.293 2.295-20.26-1.841-5.163-12.706-6.038-12.706-6.038l-12.382.734-.432-.729-3.564 1.658a16.25 16.25 0 00-2.236 1.264c-2.354 1.571-8.024 5.184-9.061 9.207-2.392 9.315 1.658 19.71 1.658 19.71l2.602-2.036a18.368 18.368 0 012.063-1.377l5.217 13.981a2.455 2.455 0 00-1.134 1.792c-.044 1.134.54 2.495 2.478 2.884z" fill="#DC3001"/><path d="M192.991 104.047c.853-4.59.405-9.31-.054-13.953-1.491 3.78-1.437 8.1-3.019 11.847a5.045 5.045 0 00-.421 1.248 1.388 1.388 0 00.356 1.22c.432.394 1.08.178 1.653.113a6.413 6.413 0 001.485-.475z" fill="#000" opacity=".3"/><path d="M183.06 114.674c2.16.751 4.46-.648 6.745-.896 1.512-.162 3.024.184 4.525.427 3.035.491 6.124.567 9.18.226a3.503 3.503 0 001.35-.351 1.623 1.623 0 00.707-1.339c-5.087-.54-10.168-.831-15.255-1.355a9.525 9.525 0 00-3.812.124c-1.534.475-2.7 1.679-3.78 2.873" fill="#000" opacity=".4"/><path d="M218.668 97.589c-2.198-4.952-9.947-18.646-9.947-18.646l-5.999 7.522 1.398 14.769s3.17-3.537 12.031-3.607a4.316 4.316 0 013.294 1.738l-.777-1.776z" fill="#DC3001"/><path d="M182.644 94.97a20.4 20.4 0 01-1.015-3.24 20.458 20.458 0 01-.734-3.3 21.46 21.46 0 011.009 3.24 20.82 20.82 0 01.74 3.3zm19.624-9.504c.195.138.376.295.54.47.477.46.924.951 1.339 1.468a14.258 14.258 0 012.867 5.865 11.05 11.05 0 01.168 3.618c-.135 1.107-.346 2.079-.486 2.9a26.35 26.35 0 00-.27 1.954 3.62 3.62 0 01-.076.719 3.235 3.235 0 01-.032-.729c.024-.662.085-1.322.183-1.977.114-.826.303-1.809.427-2.894.125-1.18.061-2.372-.189-3.532a14.893 14.893 0 00-2.749-5.8c-.988-1.328-1.765-2.019-1.722-2.062zm-5.497 33.874a2.291 2.291 0 01-.589.173c-.23.061-.465.106-.702.135-.275.038-.588.097-.939.113-.823.076-1.651.076-2.474 0a15.914 15.914 0 01-2.97-.594 16.194 16.194 0 01-2.786-1.193 14.329 14.329 0 01-2.047-1.388c-.28-.216-.507-.443-.712-.632a6.333 6.333 0 01-.503-.507 2.097 2.097 0 01-.383-.476c.038-.037.616.611 1.723 1.458.646.492 1.331.933 2.046 1.318.88.462 1.797.847 2.743 1.15.953.287 1.929.49 2.916.605.807.087 1.62.112 2.43.076 1.388-.076 2.236-.281 2.247-.238zm8.31-3.067c.127.244.199.513.211.788a4.87 4.87 0 01-.146 1.966 3.405 3.405 0 01-1.08 1.674c-.394.329-.697.432-.713.405-.016-.027.238-.205.578-.54a3.819 3.819 0 00.923-1.62c.432-1.426.125-2.668.227-2.673zm-1.463 1.901a2.93 2.93 0 01-1.156 2.98c-.059-.059.443-.594.756-1.42.314-.826.319-1.555.4-1.56zm-4.817-17.766a11.52 11.52 0 01-.961 1.382c-.279.488-.595.953-.945 1.393.104-.57.349-1.104.713-1.555a3.41 3.41 0 011.193-1.22zm-18.478-13.079c-.412-.242-.81-.505-1.194-.789a15.328 15.328 0 00-6.377-2.381 11.998 11.998 0 01-1.42-.189 5.268 5.268 0 011.441 0c2.34.2 4.58 1.034 6.48 2.414.399.264.759.582 1.07.945zm28.398-8.565a23.247 23.247 0 00-2.7 2.555 23.177 23.177 0 00-2.047 3.12c.064-.367.19-.721.373-1.047a10.614 10.614 0 013.434-4.077c.279-.236.597-.423.94-.55zm-11.113-4.449c.049.078.089.161.119.248.105.245.19.498.253.756a6.347 6.347 0 010 2.927 7.203 7.203 0 01-2.203 3.72 7.48 7.48 0 01-4.968 1.772 8.427 8.427 0 01-5.049-1.658 9.57 9.57 0 01-2.759-3.343 10.11 10.11 0 01-.918-2.78 5.971 5.971 0 01-.097-.789.827.827 0 010-.28s.059.377.21 1.047c.21.94.542 1.847.988 2.7a9.579 9.579 0 002.738 3.24 8.25 8.25 0 004.86 1.62 7.301 7.301 0 004.801-1.685 7.127 7.127 0 002.16-3.575c.24-.932.273-1.905.097-2.851-.103-.713-.265-1.058-.232-1.07z" fill="#263238"/><path d="M199.498 101.363c0-.27-.043-.588-.281-.723a.54.54 0 00-.486 0 1.31 1.31 0 00-.394.324 6.62 6.62 0 00-1.442 2.306l2.646-.233c-.016-.545-.027-1.117-.043-1.674zm8.786-5.567a8.68 8.68 0 00-1.923-4.104c1.145 3.737.762 5.848.119 8.408l.141-.357c.739-1.495 1.863-2.435 1.663-3.947z" fill="#000" opacity=".3"/><path d="M202.997 221.324l-1.615 24.219-10.53-.124-1.658-25.18 13.803 1.085z" fill="#FFBE9D"/><path d="M201.679 242.357v.702s11.88 4.774 11.994 7.02l-23.593-.129.367-7.846c3.516 1.647 7.193 1.852 11.232.253z" fill="#DC3001"/><path d="M192.84 244.62a.962.962 0 00-.67 1.08.922.922 0 001.08.675 1.01 1.01 0 00.702-1.161.954.954 0 00-1.199-.578" fill="#fff"/><path d="M190.08 249.95l.086-1.885 22.594.821s1.048.464.923 1.199l-23.603-.135zm11.686-6.826c0 .114-.584.162-1.151.54-.567.378-.874.848-.977.805-.103-.043.07-.713.767-1.145.696-.432 1.388-.324 1.361-.2zm2.468 1.037c.027.113-.476.302-.87.788-.394.486-.507.999-.626.994-.119-.005-.184-.659.318-1.247.503-.589 1.172-.616 1.178-.535zm1.387 2.97c-.108 0-.264-.54.038-1.183.303-.642.837-.874.886-.783.048.092-.286.432-.54.956-.254.524-.265.999-.384 1.01zm-4.547-202.932c.611-1.512-.129-3.343-1.441-4.32a6.287 6.287 0 00-4.693-.913c-1.601.336-3.152.88-4.612 1.62a5.196 5.196 0 00-5.306-1.282 5.2 5.2 0 00-3.528 4.166 3.316 3.316 0 00-3.926 4.347l7.301 2.565 7.97 14.04a6.379 6.379 0 009.386-8.478 5.54 5.54 0 001.123-1.382 5.58 5.58 0 002.576-3.456c.707-3.127-1.712-6.54-4.85-6.907z" fill="#263238"/><path d="M196.241 73.44c-.453-2.284-.766-3.85-.761-3.834.005.016 4.32-1.674 4.007-7.684-.151-2.992-1.291-7.706-2.349-11.53-.951-3.444-4.164-7.24-7.56-6.144L179.28 49.27c-1.031.334-1.21 1.306-.967 2.36v.54l4.002 16.556 1.69 7.398a6.247 6.247 0 006.977 4.741 6.251 6.251 0 005.259-7.425z" fill="#FFBE9D"/><path d="M197.1 54.389a.765.765 0 01-.54.907.73.73 0 01-.789-.273.72.72 0 01-.123-.267.76.76 0 011.111-.83.736.736 0 01.341.463zm-.47-1.15c-.075.118-.729-.179-1.528 0-.799.178-1.307.696-1.415.615-.108-.08 0-.232.222-.47a2.104 2.104 0 011.107-.615c.417-.09.853-.043 1.242.135.302.124.405.286.372.335zm-7.37 2.921a.76.76 0 01-.54.902.736.736 0 01-.913-.508.77.77 0 01.54-.907.735.735 0 01.913.513zm-.395-1.015c-.07.119-.729-.184-1.528 0-.799.183-1.307.691-1.415.615-.108-.075 0-.232.222-.475a2.118 2.118 0 011.107-.61 2.025 2.025 0 011.242.13c.286.13.41.275.372.34zm4.067 5.075a5.688 5.688 0 011.252-.507c.2-.065.389-.146.395-.291a1.087 1.087 0 00-.265-.578l-.934-1.437c-1.307-2.046-2.301-3.742-2.22-3.78.081-.037 1.21 1.566 2.517 3.613l.912 1.447c.18.222.277.498.276.783a.533.533 0 01-.276.367 1.35 1.35 0 01-.334.125 4.965 4.965 0 01-1.323.259z" fill="#263238"/><path d="M195.48 69.606c-2.731.617-5.58.464-8.23-.443 0 0 2.83 3.694 8.538 1.928l-.308-1.485z" fill="#EB996E"/><path d="M189 54c-.054.232-.88.227-1.82.459-.939.232-1.684.583-1.836.4-.064-.087.044-.314.33-.54.38-.32.832-.545 1.317-.654a3.174 3.174 0 011.464 0c.383.07.583.227.545.335zm7.323-3.31c-.13.216-.821.162-1.62.318-.8.157-1.431.427-1.62.27-.087-.08 0-.286.232-.54.356-.3.787-.497 1.247-.572a2.547 2.547 0 011.356.097c.329.151.459.319.405.427z" fill="#263238"/><path d="M181.823 45.403a4.074 4.074 0 003.769 3.247 4.064 4.064 0 001.745-.293c.853-.346 1.739-.994 2.603-.68.864.313 1.22 1.544 2.046 2.003 1.215.68 2.7-.497 4.056-.378 1.08.092 1.895.918 2.732 1.62.837.702 1.993 1.231 2.938.724a12.004 12.004 0 00-.956-2.603 4.027 4.027 0 00-1.977-1.869c-.475-.189-.988-.253-1.441-.486-.978-.496-1.415-1.62-2.123-2.467a4.445 4.445 0 00-3.78-1.512c-1.166.118-2.273.707-3.45.658-.87-.037-1.701-.426-2.571-.41-1.69 0-2.959 1.512-3.898 2.921" fill="#263238"/><path d="M187.515 46.64c-.777-.06-2.365-.222-2.889-.772a4.556 4.556 0 00-4.32-1.426 3.78 3.78 0 00-2.7 3.596 5.401 5.401 0 00-3.942 3.872 6.27 6.27 0 001.35 5.675c.325.406.621.834.886 1.28a9.15 9.15 0 00-.961 1.458c-1.237 2.733 2.116 3.78 2.116 3.78 0 1.836 1.701 1.826 2.787 1.82 1.085-.005 1.685 2.895 2.532 2.781l-.858-8.948c.126.05.259.075.394.076 2.047.038 1.512-3.84.853-4.86.61-.759 1.125-1.59 1.534-2.473a8.373 8.373 0 00.075-4.137c.686-.086 3.478-1.7 3.143-1.722z" fill="#263238"/><path d="M181.786 60.232A1.74 1.74 0 00180.651 59a1.734 1.734 0 00-1.646.303c-.54.464-.827 1.242-.503 2.543.875 3.478 4.185 1.885 4.164 1.788-.022-.098-.502-1.966-.88-3.402z" fill="#FFBE9D"/><path d="M181.273 62.58s-.049.06-.141.13a.62.62 0 01-.448.124c-.399-.043-.858-.54-1.031-1.171a2.09 2.09 0 01-.049-.908.726.726 0 01.34-.583.32.32 0 01.4.081c.07.081.065.157.086.162.022.006.06-.08 0-.216a.41.41 0 00-.189-.183.475.475 0 00-.356 0 .892.892 0 00-.502.696c-.07.34-.057.692.038 1.026a1.616 1.616 0 001.258 1.28.68.68 0 00.54-.232c.07-.119.07-.2.054-.205z" fill="#EB996E"/><path d="M200.432 55.377s.319-.243.761-.783a5.167 5.167 0 001.08-2.7 4.966 4.966 0 00-.194-1.998 4.288 4.288 0 00-1.237-1.922 5.083 5.083 0 00-4.957-.994c-.162.054-.313.135-.464.2-.151.065-.286.162-.427.243l-.216.119v-.238a1.738 1.738 0 00-.437-1.134 2.779 2.779 0 00-1.021-.691 3.687 3.687 0 00-2.316-.173c-1.491.34-2.754 1.02-3.948 1.161a3.813 3.813 0 01-2.7-.54 2.116 2.116 0 01-.54-.54c-.086-.146-.129-.227-.119-.232.196.267.435.498.708.686a3.78 3.78 0 002.608.437 9.164 9.164 0 001.814-.54 17.14 17.14 0 012.106-.686c.4-.096.81-.138 1.221-.124a3.71 3.71 0 011.258.292c.413.176.782.441 1.08.777.319.366.499.833.508 1.318l-.216-.119.448-.26c.167-.064.324-.15.497-.21a5.306 5.306 0 015.232 1.042 4.462 4.462 0 011.285 2.042 5.246 5.246 0 01-1.031 4.86 3.443 3.443 0 01-.599.54 1.05 1.05 0 01-.184.167zm-.702-12.209a4.216 4.216 0 00-1.123-.384 2.936 2.936 0 00-1.328.124 2.6 2.6 0 00-1.367.994l-.135.189-.081-.216a4.054 4.054 0 00-3.294-2.446 5.238 5.238 0 00-3.164.918c-.791.515-1.632.95-2.511 1.296a3.98 3.98 0 01-1.901.227 2.905 2.905 0 01-.502-.14c-.108-.05-.167-.076-.162-.087.005-.011.243.07.68.113a4.145 4.145 0 001.82-.297c.854-.372 1.673-.82 2.446-1.339a8.401 8.401 0 011.512-.74c.58-.211 1.2-.29 1.815-.232a4.263 4.263 0 013.488 2.64h-.21a2.816 2.816 0 011.506-1.047c.46-.133.944-.157 1.415-.07.298.056.583.166.842.324.093.045.178.103.254.173z" fill="#455A64"/><path d="M192.618 61.82a1.167 1.167 0 00-.918-.26 1.387 1.387 0 00-.913.664s-.027.027-.032.043a.695.695 0 00-.097.41.963.963 0 00.54.73 1.241 1.241 0 001.415-.205 1.012 1.012 0 00.005-1.383z" fill="#DC3001"/><path d="M192.888 63.499c-.043 0-.092-.162-.238-.384a1.684 1.684 0 00-1.755-.799c-.264.038-.426.113-.442.076-.017-.038.108-.168.399-.27a1.62 1.62 0 011.161.064c.369.165.661.464.816.837.113.281.097.47.059.476z" fill="#263238"/><path d="M181.867 64.168s.156.27-.049.68c-.116.246-.32.439-.572.54a1.08 1.08 0 01-.956-.113 1.08 1.08 0 01-.513-.81c-.016-.267.062-.53.221-.745.281-.356.594-.367.594-.335 0 .033-.237.124-.426.448a.95.95 0 00-.13.605.86.86 0 00.405.6.895.895 0 00.718.108c.2-.072.372-.204.492-.378.21-.335.173-.6.216-.6z" fill="#DC3001"/><path d="M180.047 63.958c.027 0 0 .183-.254.302a.705.705 0 01-.955-.473.705.705 0 01.01-.396.688.688 0 01.286-.351c.222-.135.389-.081.384-.049-.006.032-.13.07-.265.205a.54.54 0 00.475.875c.184-.038.281-.135.319-.113z" fill="#DC3001"/><path d="M185.982 111.915s13.37.778 21.276.848c6.118.059 8.85-1.566 10.071-5.503 1.026-3.299-1.178-9.633-1.178-9.633-4.141 0-6.696.594-9.358 1.841l.708 2.894-21.557 1.858.038 7.695z" fill="#FFBE9D"/><path d="M211.993 105.451a10.73 10.73 0 00-2.014-2.003 10.575 10.575 0 00-2.603-1.145 1.88 1.88 0 01.859.076 5.653 5.653 0 013.375 2.305c.302.443.416.751.383.767z" fill="#EB996E"/><path d="M181.089 99.446s-4.136.994-7.176 3.024l3.24 8.781c1.08 2.883 4.379 4.32 7.02 2.808 4.066-2.328 5.502-9.11 5.502-9.11l4.466-19.375-7.403-4.639-5.622 18.511" fill="#FFBE9D"/><path d="M186.711 80.935l.302-6.372-1.658-6.48c-.091-.356-.135-.804.157-1.02a.788.788 0 01.999.032c.448.464 2.608 6.129 2.608 6.129s3.278-1.966 3.861-2.063c.583-.097 1.312 1.669 1.361 1.804.021.395.021.792 0 1.188 0 0 2.025.06 2.209.335.147.562.225 1.14.232 1.722 0 0 .858.276.993.924s.416 1.717 0 1.954c-.415.238-1.258.702-1.258.702s-.34 3.305-.432 3.608c-.092.302-1.987 2.16-1.987 2.16l-7.387-4.623z" fill="#FFBE9D"/><path d="M179.82 114.188s.2.119.621.254a4.29 4.29 0 001.907.151 5.312 5.312 0 002.764-1.274 12.724 12.724 0 002.571-3.24c.397-.713.731-1.459.999-2.23.281-.849.513-1.712.696-2.587.422-1.82.881-3.78 1.367-5.864.972-4.164 2.062-8.818 3.24-13.835v-.038h.027c.372-.367.745-.74 1.117-1.128.184-.195.368-.39.54-.589.087-.103.179-.205.249-.308a.79.79 0 00.092-.33c.145-1.08.259-2.197.378-3.326v-.07l.064-.032 1.032-.578c.075-.049.194-.103.243-.146a.31.31 0 00.097-.178c.025-.18.025-.36 0-.54a8.212 8.212 0 00-.243-1.172 1.459 1.459 0 00-.859-.696l-.091-.033v-.092c0-.313-.033-.637-.071-.955a4.232 4.232 0 00-.07-.476.745.745 0 00-.065-.2c0-.037 0 0-.032-.032a.523.523 0 00-.092-.038 9.671 9.671 0 00-1.976-.221h-.141v-1.22a1.137 1.137 0 00-.129-.362c-.054-.13-.119-.254-.184-.384a4.687 4.687 0 00-.443-.712 1.171 1.171 0 00-.275-.27.258.258 0 00-.286-.033c-.262.1-.516.218-.762.351a65.01 65.01 0 00-2.948 1.663l-.14.087-.06-.151a782.902 782.902 0 00-1.512-3.78c-.248-.621-.491-1.242-.74-1.853a.753.753 0 00-.594-.54.598.598 0 00-.783.643c0 .119.076.302.108.448.087.313.168.621.249.929.162.621.318 1.231.48 1.836.317 1.217.629 2.405.935 3.564v.038a6755.73 6755.73 0 00-.308 6.372V81l-4.92 16.006-1.387 4.455c-.162.502-.287.896-.373 1.171-.086.276-.14.395-.14.395s.027-.141.102-.405l.34-1.183c.314-1.042.762-2.549 1.329-4.471 1.166-3.867 2.824-9.385 4.827-16.038v.027c.094-2.023.189-4.147.287-6.372v.038c-.308-1.161-.627-2.35-.945-3.559l-.486-1.836c-.081-.308-.162-.621-.249-.929a4.856 4.856 0 01-.113-.491.893.893 0 01.113-.54.863.863 0 01.438-.367 1.111 1.111 0 011.053.237c.135.127.235.287.291.465l.74 1.852c.502 1.242 1.004 2.505 1.517 3.78l-.199-.07a61.773 61.773 0 012.964-1.68c.259-.135.526-.256.799-.362a.542.542 0 01.27-.037.652.652 0 01.26.097c.13.093.244.206.34.335.18.236.338.49.47.756.07.135.135.264.194.4.077.142.128.297.151.458v1.08l-.135-.146a9.639 9.639 0 012.063.238.942.942 0 01.135.06.35.35 0 01.14.14c.042.087.073.18.092.275.033.173.054.335.076.502.032.33.054.654.07.978l-.097-.13a1.69 1.69 0 011.031.853c.118.41.205.83.259 1.253a1.89 1.89 0 010 .654.564.564 0 01-.194.334 2.89 2.89 0 01-.275.162l-1.026.535.07-.103c-.124 1.129-.238 2.236-.389 3.332l-.032.21a.477.477 0 01-.103.233c-.08.118-.168.23-.265.335-.183.205-.367.405-.54.6-.372.388-.745.76-1.123 1.128l.038-.065c-1.188 5.011-2.29 9.666-3.278 13.83-.491 2.078-.961 4.039-1.393 5.853-.185.881-.423 1.75-.713 2.603a14.691 14.691 0 01-1.026 2.252 12.752 12.752 0 01-2.63 3.272 5.397 5.397 0 01-2.835 1.264 4.21 4.21 0 01-1.938-.195 3.172 3.172 0 01-.459-.21l-.168-.071z" fill="#EB996E"/><path d="M194.346 74.169c0 .038-.183.06-.469.07-.364.007-.726.05-1.08.13a2.093 2.093 0 00-.918.491c-.195.184-.281.34-.324.324-.044-.016 0-.21.178-.459a1.79 1.79 0 01.993-.626 2.99 2.99 0 011.156-.054c.292.038.464.086.464.124z" fill="#EB996E"/><path d="M192.78 74.228c-.07-.027-.075-.194 0-.372.076-.178.184-.303.254-.276.07.027.081.195 0 .373s-.2.302-.254.275zm4.094 1.961a5.004 5.004 0 01-1.62.221 1.083 1.083 0 00-.897.427c-.14.221-.092.405-.135.415-.043.011-.173-.178-.038-.502a.85.85 0 01.384-.426c.2-.11.42-.176.648-.195a4.445 4.445 0 011.658.06zm-.357 1.944c.075 0 .119.4.097.89-.022.492-.103.88-.178.88-.076 0-.124-.404-.103-.896.022-.491.103-.88.184-.874z" fill="#EB996E"/><path d="M198.758 92.675l.48-1.653a.46.46 0 01.323-.312.453.453 0 01.433.118l.632.643.389-1.561a.456.456 0 01.394-.34.455.455 0 01.454.254l.88 1.846-3.985 1.005zm3.996-.297a7.262 7.262 0 01-1.906.615 7.062 7.062 0 01-1.976.346c1.243-.5 2.55-.823 3.882-.961zM170.64 83.16s-.2.205-.48.643a5.43 5.43 0 00-.729 2.035 14.452 14.452 0 00-.098 3.24 69.4 69.4 0 001.448 11.108c.189.907.361 1.62.48 2.16.054.227.103.416.141.578.037.162.043.205.043.205s-.027-.065-.065-.194c-.038-.13-.097-.357-.157-.578-.135-.502-.318-1.226-.54-2.133a64.137 64.137 0 01-1.468-11.119 14.515 14.515 0 01.118-3.24 5.4 5.4 0 01.778-2.052c.146-.24.324-.46.529-.653zm11.367-7.355l-.124.065-.356.173a21.8 21.8 0 00-1.291.659 47.337 47.337 0 00-4.055 2.538c-1.545 1.08-2.911 2.062-3.91 2.775l-1.183.837-.329.222a.674.674 0 01-.119.075.436.436 0 01.108-.092l.313-.237 1.161-.87c.989-.729 2.349-1.744 3.894-2.802a40.959 40.959 0 014.082-2.517c.54-.286.994-.491 1.312-.626l.362-.151c.108-.038.108-.054.135-.049zm25.753 3.515a.391.391 0 01-.092-.07l-.243-.21c-.301-.254-.617-.49-.945-.708a19.552 19.552 0 00-3.472-1.755 34.923 34.923 0 00-3.699-1.23 29.792 29.792 0 00-1.151-.298l-.307-.08a.419.419 0 01-.108-.039h.113l.313.06c.276.054.67.14 1.156.264 1.267.32 2.511.722 3.726 1.205a17.776 17.776 0 013.472 1.792c.453.307.868.666 1.237 1.07zm-25.602 41.219a.775.775 0 01-.21-.07 3.746 3.746 0 01-.54-.292 2.57 2.57 0 01-1.178-1.588 3.105 3.105 0 01.211-1.976c.082-.192.187-.373.313-.54.087-.113.146-.167.151-.162-.147.23-.279.47-.394.718a3.203 3.203 0 00-.167 1.917c.154.633.54 1.186 1.08 1.55.448.324.745.421.734.443z" fill="#fff"/><path d="M180.441 114.691c.115.214.2.443.254.68.084.227.135.466.151.707a2.207 2.207 0 01-.259-.675 2.143 2.143 0 01-.146-.712z" fill="#fff"/><path d="M187.742 235.764l16.47-.081-.297-56.943-.157-57.926-22.318-.286-4.012 7.56a27.133 27.133 0 00-3.083 9.796c-.27 2.624 1.695 11.156 2.376 13.316l6.139 19.472 4.882 65.092z" fill="#263238"/><path d="M208.591 120.884l18.101 49.34a22.756 22.756 0 01-2.23 19.278l-21.017 41.04-11.815-14.785 17.582-36.72-15.498-25.137 2.608-32.94 7.301-.119 4.968.043z" fill="#263238"/><path d="M202.257 137.414v.254c0 .167.027.426.049.745.038.664.086 1.62.151 2.856.124 2.501.297 6.092.54 10.525.243 4.433.448 9.72.718 15.606.13 2.938.27 6.021.411 9.218.102 1.62.059 3.24.075 4.86.017 1.62 0 3.326 0 5.022 0 13.57.044 25.855.06 34.76v14.148-.746c0-.669 0-1.62-.033-2.867 0-2.5-.043-6.091-.075-10.53-.038-8.905-.087-21.19-.141-34.76v-5.022c0-1.652.033-3.283-.07-4.86-.135-3.191-.27-6.275-.394-9.212-.248-5.875-.475-11.162-.659-15.612-.183-4.449-.318-8.024-.421-10.524a906.259 906.259 0 01-.097-2.862v-.745c0-.206-.114-.254-.114-.254zm-.416-15.558c.063.174.102.356.114.54.059.346.124.848.2 1.475a76.246 76.246 0 01.442 9.811c0 .627-.037 1.14-.064 1.491.005.182-.017.364-.065.54a15.304 15.304 0 01-.07-2.031c0-1.258-.06-2.986-.146-4.903a164.668 164.668 0 00-.297-4.86 18.221 18.221 0 01-.114-2.063zm-3.628 1.113c.027.038-.281.178-.367.615a.706.706 0 00.21.659.758.758 0 00.81.146.779.779 0 00.421-.707.702.702 0 00-.361-.589 1.32 1.32 0 00-.708-.124s.054-.07.195-.114a.918.918 0 01.604.06.884.884 0 01.54.75.962.962 0 01-.556.981.966.966 0 01-1.107-.214.881.881 0 01-.221-.891.913.913 0 01.345-.502c.108-.076.189-.086.195-.07zm-8.64-.978c.079.171.128.353.145.54.087.485.104.98.049 1.469a6.005 6.005 0 01-.621 2.09 5.535 5.535 0 01-4.223 3.029 5.836 5.836 0 01-2.16-.081 5.066 5.066 0 01-1.371-.513 1.696 1.696 0 01-.443-.302 9.74 9.74 0 001.857.621 5.676 5.676 0 006.788-4.86 9.417 9.417 0 00-.021-1.993zm21.189 4.731a2.28 2.28 0 01-1.042-.124 4.813 4.813 0 01-2.122-1.361 4.741 4.741 0 01-1.15-2.247 2.16 2.16 0 010-1.042c.048 0 .054.394.216.999a5.23 5.23 0 003.142 3.462c.562.221.962.259.956.313zm6.432 53.19a3.454 3.454 0 01-.956.761 4.449 4.449 0 01-1.226.54 2.942 2.942 0 01-1.658-.043 4.832 4.832 0 01-2.311-1.836 4.438 4.438 0 01-.632-1.037c.292.278.556.584.789.913a5.113 5.113 0 002.235 1.69c.453.121.927.148 1.391.081a3.47 3.47 0 001.309-.475c.341-.218.695-.417 1.059-.594zm-4.126 3.148a13.695 13.695 0 01-1.701-2.16 14.007 14.007 0 01-1.48-2.317 13.22 13.22 0 011.707 2.16 12.98 12.98 0 011.474 2.317z" fill="#455A64"/><path d="M185.398 139.32c-.075.027-.264-.281-.432-.697-.167-.415-.237-.766-.167-.799.07-.032.265.281.427.697.162.416.243.799.172.799zm10.455 1.501c-.081 0-.141-.264-.141-.594 0-.329.06-.599.141-.599.081 0 .14.27.14.599 0 .33-.065.594-.14.594zm-4.298 5.681c-.076 0-.162-.324-.189-.74-.027-.416 0-.75.086-.756.086-.005.167.324.194.74.027.416-.016.751-.091.756zm-7.852 4.158c-.065.049-.286-.151-.578-.356-.292-.206-.54-.362-.54-.438 0-.075.356-.032.686.205.329.238.497.589.432.589zm13.84 5.297c-.065-.043 0-.275.184-.54.183-.264.351-.415.415-.372.065.043 0 .281-.183.54-.184.259-.351.416-.416.372zM189 157.453c-.075 0-.14-.448-.14-.993 0-.546.065-.999.14-.999.076 0 .141.448.141.999 0 .55-.081.993-.141.993zm-2.797 6.059c-.043.059-.324-.065-.627-.286-.302-.222-.54-.448-.469-.513.07-.065.329.065.631.286.303.221.513.448.465.513zm8.651 2.106c.032.07-.141.216-.389.329-.248.114-.475.141-.508.071-.032-.071.146-.216.395-.33.248-.113.475-.14.502-.07zM189 175.5c-.064.032-.345-.383-.621-.934-.275-.551-.442-1.026-.372-1.08.07-.054.351.383.621.934s.421 1.021.372 1.08zm9.542-.918c-.07-.038.054-.4.27-.815.216-.416.459-.719.54-.681.081.038-.054.4-.275.816-.222.415-.47.718-.535.68zm-4.185 8.365c-.081 0-.07-.438-.157-.945-.086-.508-.216-.913-.14-.951.075-.038.335.346.421.907.086.562-.049 1.005-.124.989zm-4.482 4.779c-.054.054-.324-.152-.599-.454-.276-.302-.454-.589-.394-.643.059-.054.324.152.599.454.275.302.454.589.394.643zm10.876 1.814c-.054-.054.145-.346.448-.653.302-.308.583-.508.642-.454.06.054-.146.351-.443.653-.297.303-.588.508-.647.454zm-6.254 7.155c-.075 0-.075-.427 0-.923.076-.497.195-.886.276-.875.081.011.075.421 0 .918-.076.497-.2.891-.276.88zm-4.206 3.472c-.071.038-.308-.243-.54-.626-.233-.384-.351-.724-.287-.762.065-.037.303.238.54.621.238.384.351.724.287.767zm10.136 4.38c.048.064-.227.34-.616.615-.389.276-.729.448-.778.384-.048-.065.233-.341.616-.616.383-.275.734-.443.778-.383zm-8.446 5.686c-.075-.027 0-.459.07-.999.071-.54.027-.983.108-.994.081-.011.222.443.168 1.021-.054.578-.276 1.004-.346.972zm3.375 8.165c-.065.048-.292-.135-.513-.411-.221-.275-.346-.54-.286-.588.059-.049.286.135.507.41.222.275.351.54.292.589zm-3.688 5.475c-.065.043-.362-.275-.665-.718-.302-.443-.491-.832-.432-.875.06-.043.362.276.665.718.302.443.496.832.432.875zm10.157-6.874c-.07-.027-.065-.227 0-.443s.211-.378.286-.351c.076.027.065.227 0 .448-.065.222-.21.378-.286.346zm-4.482 13.041c-.07-.038.065-.421.173-.902.108-.48.146-.885.227-.891.081-.005.162.432.048.951-.113.518-.383.885-.448.842zm2.916-83.452c-.07.033-.243-.183-.383-.486-.14-.302-.2-.572-.13-.604.071-.033.243.183.384.486.14.302.21.572.129.604zm-7.479-16.815c.044.065-.334.367-.739.799-.405.432-.681.832-.751.794-.07-.038.113-.54.54-.983.427-.443.896-.68.95-.61zm6.658-.173c-.081 0-.205-.308-.394-.675-.189-.367-.362-.67-.302-.724.059-.054.351.184.54.594.189.411.227.762.156.805zm-20.79 5.459c-.07-.032 0-.388.168-.799.167-.41.351-.729.426-.696.076.032 0 .383-.167.799-.168.416-.335.723-.427.696zm.675 8.154c-.054.06-.362-.113-.691-.388-.329-.276-.54-.54-.508-.605.033-.065.362.113.692.389.329.275.556.545.507.604zm13.641-19.915c-.071 0-.222-.173-.33-.448-.108-.275-.14-.54-.07-.54s.221.173.329.448c.108.276.141.513.071.54zm13.062 3.985c-.075 0-.07-.34 0-.723.071-.384.211-.686.287-.67.075.016.07.346 0 .729-.071.384-.211.681-.287.664zm3.068 6.173c-.071-.033.027-.432.221-.902.194-.47.405-.821.475-.794.07.027 0 .432-.216.902-.216.47-.405.821-.48.794zm-2.187 4.978c-.071.033-.33-.34-.578-.831-.249-.492-.389-.929-.319-.961.07-.033.324.34.573.831.248.492.394.924.324.961zm4.676 4.979c-.07-.027 0-.34.119-.696.119-.357.308-.627.383-.6.076.027 0 .34-.118.697-.119.356-.287.626-.384.599zm-4.18 4.876c-.064.044-.232-.102-.367-.318-.135-.216-.2-.432-.129-.475.07-.044.226.102.367.324.14.221.194.432.129.469zm.891 10.066c-.054.049-.394-.216-.75-.605-.357-.389-.6-.74-.54-.794.059-.054.394.216.75.605.357.389.6.74.54.794zm5.481-5.783c-.059.048-.356-.222-.658-.611-.303-.388-.497-.734-.438-.783.06-.048.357.227.659.611.302.383.502.739.437.783zm3.008 7.975c-.07-.032.054-.437.276-.901.221-.465.453-.821.54-.789.086.033-.049.443-.27.907-.222.465-.475.821-.546.783zm-6.393 6.567c-.071.038-.319-.259-.665-.578-.345-.319-.664-.54-.631-.621.032-.081.442.065.82.416.378.351.54.745.476.783zm.399 6.766c0 .076-.27.14-.599.14-.33 0-.594-.064-.594-.14 0-.076.264-.14.594-.14.329 0 .599.064.599.14zm6.572-1.89c-.07-.038.07-.378.173-.799.102-.421.145-.789.226-.794.081-.005.168.389.049.859-.119.469-.389.777-.448.734zm6.528 2.273c-.07.027-.27-.356-.442-.847-.173-.492-.254-.913-.184-.935.07-.021.275.351.448.843.173.491.254.912.178.939zm-1.042 9.288c-.064-.037.103-.491.373-1.015.27-.524.54-.918.621-.88.081.038-.097.491-.373 1.01-.275.518-.55.934-.621.885zM216.891 189c-.07.027-.292-.346-.497-.837-.205-.491-.308-.913-.232-.945.076-.032.292.346.491.837.2.491.308.945.238.945zm-6.599 2.111c0 .076-.226.141-.502.141-.275 0-.497-.065-.497-.141 0-.075.227-.14.497-.14s.502.065.502.14zm3.78 8.689c-.07 0-.221-.297-.334-.707-.114-.411-.135-.767-.06-.783.076-.017.222.297.335.707.113.41.135.74.059.783zm-4.779-2.916c-.065-.038 0-.292.178-.567.179-.275.357-.464.422-.427.064.038 0 .297-.179.573-.178.275-.351.464-.421.421zm-.097 9.563c-.075 0-.183-.361-.237-.831-.054-.47-.038-.853.037-.864.076-.011.184.362.238.831.054.47.038.854-.038.864z" fill="#FAFAFA"/></svg>