<svg width="56" height="56" fill="none" xmlns="http://www.w3.org/2000/svg"><path fill="#fff" stroke="#000" stroke-width="1.754" stroke-linejoin="round" d="M12.614 12.916h31.087v20.496H12.614z"/><path d="M30.262 21.92a.622.622 0 00-1.039 0l-2.005 3.04-1.106-1.25a.623.623 0 00-.986.07l-1.857 2.82h10.093l-3.1-4.68zm-4.195.635a1.26 1.26 0 001.261-1.257 1.26 1.26 0 00-1.261-1.257 1.26 1.26 0 00-1.262 1.257 1.26 1.26 0 001.262 1.257zM7.475 39.534H8.9l1.505 3.673h.064l1.506-3.673H13.4V45h-1.121v-3.557h-.046l-1.414 3.53h-.763L8.64 41.43h-.045V45h-1.12v-5.466zM14.352 45v-5.466h2.188c.402 0 .738.06 1.006.18.269.118.471.284.606.495.135.21.203.452.203.726 0 .214-.043.402-.128.564-.085.16-.203.291-.352.395a1.444 1.444 0 01-.507.216v.053a1.248 1.248 0 011.03.633c.114.194.17.425.17.694 0 .29-.072.548-.216.776a1.456 1.456 0 01-.632.537c-.28.131-.624.197-1.033.197h-2.335zm1.155-.945h.943c.322 0 .556-.061.704-.184a.617.617 0 00.222-.496.734.734 0 00-.11-.4.742.742 0 00-.312-.273 1.068 1.068 0 00-.478-.099h-.969v1.452zm0-2.233h.857c.158 0 .299-.028.422-.083a.702.702 0 00.293-.24.626.626 0 00.11-.371.6.6 0 00-.211-.478c-.139-.121-.336-.182-.593-.182h-.878v1.353zM40.475 45v-5.466h1.156v2.41h.072l1.967-2.41h1.385l-2.029 2.448L45.08 45h-1.383L42.2 42.753l-.568.694V45h-1.156zm5.181 0v-5.466h2.189c.402 0 .737.06 1.006.18.269.118.47.284.606.495.135.21.203.452.203.726 0 .214-.043.402-.128.564-.086.16-.203.291-.353.395a1.444 1.444 0 01-.507.216v.053a1.249 1.249 0 011.03.633c.114.194.171.425.171.694 0 .29-.072.548-.216.776a1.457 1.457 0 01-.632.537c-.28.131-.624.197-1.033.197h-2.335zm1.156-.945h.942c.322 0 .557-.061.705-.184a.617.617 0 00.221-.496.735.735 0 00-.11-.4.742.742 0 00-.311-.273 1.069 1.069 0 00-.478-.099h-.969v1.452zm0-2.233h.857c.158 0 .299-.028.421-.083a.702.702 0 00.294-.24.626.626 0 00.11-.371.6.6 0 00-.211-.478c-.14-.121-.337-.182-.593-.182h-.878v1.353z" fill="#112242"/><path d="M21.709 40.81a.877.877 0 000 1.753V40.81zm15.353 1.497a.877.877 0 000-1.24l-5.582-5.583a.877.877 0 10-1.24 1.24l4.961 4.962-4.962 4.962a.877.877 0 001.24 1.24l5.583-5.581zm-15.353.256H36.44V40.81H21.708v1.755zM.875 22.025a.658.658 0 100 1.316v-1.316zm6.773 1.123a.658.658 0 000-.93L3.462 18.03a.658.658 0 00-.93.93l3.72 3.722-3.72 3.721a.658.658 0 00.93.93l4.186-4.186zm-6.773.192h6.308v-1.315H.875v1.316zm54.249 0a.658.658 0 000-1.315v1.316zm-6.773-1.123a.658.658 0 000 .93l4.187 4.187a.658.658 0 00.93-.93l-3.721-3.721 3.721-3.722a.658.658 0 10-.93-.93l-4.187 4.186zm6.773-.192h-6.308v1.316h6.308v-1.316z" fill="#DC3001"/><path d="M13.332 10.5H10.02v25.457h2.681m30.122 0h3.312V10.5h-2.681" stroke="#DC3001" stroke-width="1.754" stroke-linecap="round"/></svg>