<svg width="56" height="56" fill="none" xmlns="http://www.w3.org/2000/svg"><path fill="#fff" stroke="#000" stroke-width="2" stroke-linejoin="round" d="M2.5 16.336h50.345v28.716H2.5z"/><path fill="#fff" stroke="#000" stroke-width="2" stroke-linejoin="round" d="M2.5 10.375h50.345v8.403H2.5z"/><ellipse cx="8.017" cy="14.466" rx="1.807" ry="1.766" fill="#DC3001"/><ellipse cx="13.893" cy="14.466" rx="1.807" ry="1.766" fill="#000"/><ellipse cx="19.766" cy="14.466" rx="1.807" ry="1.766" fill="#000"/><path d="M7.305 30.533a1.01 1.01 0 000 1.428l6.424 6.423a1.01 1.01 0 101.427-1.427l-5.71-5.71 5.71-5.71a1.01 1.01 0 10-1.427-1.427l-6.424 6.423zm40.51 1.428a1.01 1.01 0 000-1.428l-6.423-6.423a1.01 1.01 0 10-1.427 1.427l5.71 5.71-5.71 5.71a1.01 1.01 0 101.427 1.427l6.424-6.423zm-39.796.295h39.083v-2.018H8.019v2.018z" fill="#DC3001"/></svg>