<svg width="56" height="56" fill="none" xmlns="http://www.w3.org/2000/svg"><path fill="#fff" stroke="#000" stroke-width="1.845" stroke-linejoin="round" d="M7.934 13.078h46.364v24.188H7.934z"/><path fill="#fff" stroke="#000" stroke-width="1.845" stroke-linejoin="round" d="M5.254 15.43h46.364v24.188H5.254z"/><path fill="#fff" stroke="#000" stroke-width="1.845" stroke-linejoin="round" d="M2.578 18.173h46.364v24.188H2.578z"/><path d="M5.509 30.071l5.02-3.394v6.79L5.51 30.07zm39.162.393l-5.02 3.394v-6.79l5.02 3.396z" fill="#DC3001"/><path d="M27.532 28.417a.754.754 0 00-1.262.001l-2.436 3.74-1.345-1.537a.751.751 0 00-1.198.086l-2.256 3.469h12.264l-3.767-5.759zm-5.098.783a1.54 1.54 0 001.533-1.548 1.54 1.54 0 00-1.533-1.547 1.54 1.54 0 00-1.533 1.547 1.54 1.54 0 001.533 1.547z" fill="#112242"/></svg>