<svg width="56" height="56" fill="none" xmlns="http://www.w3.org/2000/svg"><rect x="6.043" y="3.418" width="22.813" height="42.332" rx="1.401" fill="#fff" stroke="#000" stroke-width="1.587"/><path d="M6.043 38.553H27.88v5.796c0 .774-.628 1.401-1.401 1.401H7.445a1.401 1.401 0 01-1.402-1.401v-5.796zm22.813-29.89H6.043V4.82c0-.774.628-1.402 1.401-1.402h20.01c.774 0 1.402.628 1.402 1.402v3.843z" fill="#fff" stroke="#000" stroke-width="1.587"/><circle cx="18.425" cy="42.151" r="1.911" fill="#fff" stroke="#000" stroke-width="1.058"/><rect x="27.515" y="10.25" width="22.813" height="42.332" rx="1.401" fill="#fff" stroke="#000" stroke-width="1.587"/><path d="M27.515 45.385h22.812v5.796a1.4 1.4 0 01-1.401 1.4h-20.01a1.401 1.401 0 01-1.401-1.4v-5.796zm22.812-29.89H27.514v-3.844c0-.774.628-1.401 1.402-1.401h20.01a1.4 1.4 0 011.4 1.401v3.844z" fill="#fff" stroke="#000" stroke-width="1.587"/><circle cx="38.921" cy="48.983" r="1.911" fill="#fff" stroke="#000" stroke-width="1.058"/><path stroke="#DC3001" stroke-width="1.058" d="M11.412 16.057h14.13v14.13h-14.13z"/><path stroke="#112242" stroke-width="1.058" d="M32.472 20.715h12.307v16.559H32.472z"/><path d="M22.98 21.12v-2.137h-9.464v2.137h1.646v-1.282h2.263v7.479h-1.44v.854h4.526v-.854h-1.44v-7.48h2.263v1.283h1.646z" fill="#112242"/><path d="M48.345 30.71v-3.326H33.563v3.326h2.57v-1.995h3.536v11.64h-2.25v1.33h7.07v-1.33h-2.25v-11.64h3.535v1.995h2.571z" fill="#DC3001"/></svg>