<svg width="500" height="500" fill="none" xmlns="http://www.w3.org/2000/svg"><path d="M205.629 68l-95.19 123.67 256-63.64-142.59-64.6a15.088 15.088 0 00-18.22 4.57z" fill="#EBEBEB"/><path d="M109.09 192.55l96.12-124.86A15.548 15.548 0 01224.07 63l144 65.23-258.98 64.32zm108.5-130a14.488 14.488 0 00-11.54 5.74L111.78 190.8l253.06-62.91-141.2-64a14.604 14.604 0 00-6.05-1.29v-.05z" fill="#E0E0E0"/><path d="M110.434 191.674l256.901-63.862 34.611 139.233a10.705 10.705 0 01-7.81 12.977l-236.114 58.695a10.708 10.708 0 01-12.977-7.81l-34.611-139.233z" fill="#F0F0F0"/><path d="M351.519 135.44l-89 90.93-134.52-30.28-15.39-71.35a14.396 14.396 0 011.751-10.769 14.395 14.395 0 018.799-6.451l194.6-48.37a14.382 14.382 0 0117.44 10.5l16.32 65.79z" fill="#fff"/><path d="M250.299 219.22l-105.69 110.44a11.784 11.784 0 0014.28 8.59l234.3-58.25a11.778 11.778 0 008.59-14.27l-.22-.88-138.2-48.75a12.361 12.361 0 00-13.06 3.12zm-33.765-101.166l-76.13 18.939 1.934 7.773 76.13-18.939-1.934-7.773zm97.682-3.374L145.305 156.7l2.184 8.782 168.912-42.02-2.185-8.782zm5.342 21.456l-168.912 42.02 2.185 8.782 168.912-42.02-2.185-8.782zm3.551 28.434l-5.29 5.29-141.8 37.07-18.53-4.33-.7-2.01 168.37-41.88.73 2.91-2.78 2.95zm-36.269 36.95l-63.88 15.88-19.53-4.46 95.47-23.75-12.06 12.33z" fill="#E0E0E0"/><path d="M246.44 223.24s-.07.11-.24.3l-.76.83-2.94 3.15-10.89 11.53c-9.22 9.71-22 23.13-36.15 37.84-14.15 14.71-27.15 27.91-36.63 37.37-4.74 4.73-8.6 8.55-11.28 11.16l-3.09 3-.82.77a1.538 1.538 0 01-.29.25c.073-.104.157-.202.25-.29l.78-.81 3-3.07L158.55 314c9.41-9.53 22.34-22.76 36.52-37.48 14.18-14.72 27-28 36.25-37.73l11-11.41 3-3.08.8-.79c.22-.19.32-.27.32-.27zm155.12 41.59c-.05.14-29.52-10.09-65.82-22.85-36.3-12.76-65.69-23.22-65.64-23.36.05-.14 29.52 10.08 65.82 22.84s65.69 23.22 65.64 23.37zm-45.81-133.77a1.647 1.647 0 01-.19.25l-.56.69-2.37 2.63-8.83 9.59c-7.48 8.07-17.9 19.13-29.58 31.2s-22.46 22.84-30.28 30.58l-9.31 9.12-2.56 2.45-.67.63c-.16.14-.24.21-.25.2.064-.085.134-.166.21-.24l.63-.67 2.49-2.52 9.18-9.24A3422.079 3422.079 0 00343.47 144l8.95-9.47 2.45-2.56.65-.66c.066-.092.144-.176.23-.25zm-109.311 92.18a1.603 1.603 0 01-.35-.06l-1-.24-4-1c-3.42-.86-8.39-2.07-14.54-3.51-12.29-2.91-29.34-6.66-48.18-10.74s-35.88-7.89-48.15-10.9c-6.14-1.5-11.1-2.76-14.51-3.68l-3.93-1.07-1-.29a1.376 1.376 0 01-.34-.12l.35.07 1 .23 4 1c3.43.86 8.4 2.06 14.55 3.51 12.29 2.91 29.33 6.66 48.18 10.74s35.88 7.89 48.15 10.9c6.14 1.5 11.1 2.75 14.51 3.68l3.92 1.07 1 .29.34.12z" fill="#FAFAFA"/><path d="M351.521 135.44s-.1-.33-.27-1l-.73-2.83c-.64-2.51-1.57-6.18-2.77-10.91l-10.07-40.12c-.534-2.12-1.077-4.29-1.63-6.51-.27-1.1-.55-2.23-.84-3.36-.14-.57-.28-1.14-.46-1.69a11.235 11.235 0 00-.6-1.64 14.113 14.113 0 00-11.25-8.31 13.898 13.898 0 00-3.81 0c-1.26.22-2.54.57-3.83.88l-7.85 2-16.41 4.05-72.91 18.2-73 18.12-16.39 4.06-4 1a22.37 22.37 0 00-3.8 1.15 14.195 14.195 0 00-5.92 4.79 14.585 14.585 0 00-1.76 3.31 15.347 15.347 0 00-.81 3.59c-.29 2.45.39 4.81.87 7.14 1 4.667 1.956 9.137 2.87 13.41 3.65 17.09 6.6 30.91 8.64 40.48 1 4.78 1.79 8.48 2.33 11 .25 1.25.45 2.21.59 2.87.14.66.18 1 .18 1s-.09-.33-.24-1c-.15-.67-.36-1.61-.64-2.85-.56-2.53-1.37-6.23-2.42-11-2.09-9.56-5.1-23.38-8.82-40.44-.92-4.27-1.9-8.74-2.91-13.41-.48-2.3-1.18-4.74-.88-7.27.114-1.266.39-2.513.82-3.71a15.324 15.324 0 011.81-3.42 14.034 14.034 0 012.69-2.87 13.615 13.615 0 013.41-2.08 22.05 22.05 0 013.87-1.18l4-1 16.42-4.06 73-18.16 73-18.12 16.39-4.06 7.85-1.94c1.29-.32 2.549-.66 3.87-.89a14.66 14.66 0 0111 2.8 14.558 14.558 0 014.54 5.75c.25.546.458 1.111.62 1.69.18.57.32 1.14.46 1.71.28 1.13.55 2.26.83 3.37.55 2.22 1.08 4.39 1.61 6.51l9.9 40.19c1.15 4.74 2.05 8.42 2.66 10.93.3 1.25.53 2.2.68 2.85.15.65.11.98.11.98z" fill="#E0E0E0"/><path d="M452 449c0 .15-90.44.27-202 .27s-202-.11-202-.27c0-.16 90.43-.28 202-.28s202 .14 202 .28z" fill="#263238"/><path d="M239.71 82.66l-9.89 7.53.48 14.38-9.05-7.19-5 4.28-19-23.46 42.46 4.46z" fill="#DC3001"/><path d="M226.1 93.25c0 .44 4.2 11.32 4.2 11.32l-9.05-7.19 4.85-4.13z" fill="#DC3001"/><path d="M226.1 93.25c0 .44 4.2 11.32 4.2 11.32l-9.05-7.19 4.85-4.13z" fill="#000" opacity=".3"/><path d="M197.25 78.2l28.85 15.05 4.2 11.32-.48-14.38-32.57-11.99z" fill="#DC3001"/><path opacity=".1" d="M197.25 78.2l28.85 15.05 4.2 11.32-.48-14.38-32.57-11.99z" fill="#000"/><path d="M277.249 272.22a12.908 12.908 0 01-5.13-1.25c1.778.059 3.525.484 5.13 1.25zm8.181 2c0 .15-.75.1-1.59-.1-.84-.2-1.5-.5-1.47-.65.03-.15.75-.1 1.6.11.85.21 1.5.49 1.46.64zm-33.761-171.53a7.794 7.794 0 01-2.61-.41 7.31 7.31 0 01-2.52-.79 5.884 5.884 0 012.65.26c.89.109 1.741.432 2.48.94zm9.682 4.15a17.915 17.915 0 01-4.71-2.36c.892.085 1.752.38 2.51.86 1.31.66 2.28 1.37 2.2 1.5zm8.388 6.36c-.11.11-1-.64-2.12-1.58-1.12-.94-2-1.74-1.87-1.87a5.8 5.8 0 012.25 1.45c1.09.96 1.85 1.9 1.74 2zm6.401 8.35c-.14.07-.8-.9-1.6-2.1a7.868 7.868 0 01-1.3-2.3c.11-.09.95.77 1.76 2a5.675 5.675 0 011.14 2.4zm3.63 9.87a8.002 8.002 0 01-.88-2.49 7.552 7.552 0 01-.55-2.59 5.84 5.84 0 011.07 2.44c.336.837.46 1.744.36 2.64zm.539 10.5a8.27 8.27 0 01-.11-2.64 7.551 7.551 0 01.24-2.63 5.81 5.81 0 01.31 2.64c.063.899-.088 1.8-.44 2.63zm-2.729 10.14a8.168 8.168 0 01.74-2.53 8.41 8.41 0 011-2.43 5.293 5.293 0 01-.53 2.61 5.433 5.433 0 01-1.21 2.35zm-6.11 8.54c-.1-.12.68-1 1.63-2.08.95-1.08 1.71-2 1.84-1.89a5.477 5.477 0 01-1.43 2.25c-.97 1.12-1.94 1.83-2.04 1.72zm-8.82 5.68a8.273 8.273 0 012.26-1.36 8.069 8.069 0 012.41-1.08 5.525 5.525 0 01-2.16 1.57 5.449 5.449 0 01-2.51.87zm-10.259 2.21a7.988 7.988 0 012.61-.49 8.22 8.22 0 012.64-.17 5.47 5.47 0 01-2.57.71 5.348 5.348 0 01-2.68-.05zm-10.301-1.95c1.71.356 3.383.868 5 1.53a5.185 5.185 0 01-2.64-.36 5.088 5.088 0 01-2.36-1.17zm-7.301-7.24c.15-.05.61 1 1.43 2.18.82 1.18 1.61 2 1.5 2.15-.11.15-1.09-.6-1.95-1.83a4.003 4.003 0 01-.98-2.5zm4.44-8.19c0 .16-1.09.51-2.23 1.32s-1.75 1.82-1.89 1.74c-.14-.08.3-1.28 1.57-2.18a3.662 3.662 0 012.55-.88zm9.041 3.75c-.14.08-.78-.9-1.82-1.86-1.04-.96-2.1-1.44-2-1.59a3.649 3.649 0 012.42 1.19 3.88 3.88 0 011.4 2.26zm.339 10.21c.075-.871.239-1.733.49-2.57.075-.874.239-1.739.49-2.58a4.55 4.55 0 010 2.68 4.46 4.46 0 01-.98 2.47zm-6.849 7.85c-.09-.13.82-.88 1.91-1.81 1.09-.93 2-1.73 2.07-1.63.07.1-.58 1.08-1.71 2-1.13.92-2.19 1.57-2.27 1.44zm-9.35 4.86a6.634 6.634 0 012.28-1.35 6.477 6.477 0 012.51-.85 12.75 12.75 0 01-4.79 2.2zm-9.409 4.78c-.08-.13.87-.84 2.13-1.6a5.99 5.99 0 012.46-1c.08.15-.94.76-2.19 1.48a6.466 6.466 0 01-2.4 1.12zM215 189.44c-.11-.1.58-1.08 1.63-2.11a5.868 5.868 0 012.13-1.59c.1.12-.71 1-1.74 2s-1.86 1.8-2.02 1.7zm-6 8.62a5.825 5.825 0 011.08-2.43c.77-1.25 1.56-2.15 1.68-2.06a7.414 7.414 0 01-1.21 2.35c-.76 1.23-1.41 2.21-1.55 2.14zm-3.841 9.8a5.615 5.615 0 01.48-2.61 5.706 5.706 0 011.15-2.4 17.776 17.776 0 01-1.63 5v.01zm-1.38 10.44a9.81 9.81 0 01.36-5.26 7.65 7.65 0 010 2.64 7.555 7.555 0 01-.36 2.62zm1.381 10.43a6.417 6.417 0 01-.83-2.52 5.374 5.374 0 01-.22-2.65c.387.801.644 1.658.76 2.54.277.847.376 1.743.29 2.63zm4.071 9.7c-.13.08-.84-.88-1.49-2.2a5.57 5.57 0 01-.85-2.52 7.639 7.639 0 011.34 2.28 7.55 7.55 0 011 2.44zm6.318 8.43c-.1.1-1-.66-2-1.78a5.928 5.928 0 01-1.44-2.24c.13-.1.92.78 1.86 1.88.94 1.1 1.69 2.03 1.58 2.14zm8.121 6.7a5.72 5.72 0 01-2.34-1.27c-1.18-.86-2-1.72-1.92-1.84a7.657 7.657 0 012.25 1.4c1.16.85 2.09 1.58 2.01 1.71zm9.499 4.54a5.596 5.596 0 01-2.58-.65 5.447 5.447 0 01-2.31-1.32 7.99 7.99 0 012.51.81c.85.258 1.654.649 2.38 1.16zm5.292 1.35c0 .14-.09.26-.14.25-.05-.01-.07-.14 0-.29.07-.15.09-.26.14-.25.05.01.03.14 0 .29z" fill="#263238"/><path d="M230.814 233.262l-10.935-3.591-2.234 6.802 10.935 3.592 2.234-6.803z" fill="#DC3001"/><path d="M230.814 233.262l-10.935-3.591-2.234 6.802 10.935 3.592 2.234-6.803z" fill="#000" opacity=".3"/><path d="M230.789 233.28a45.402 45.402 0 01-6.34 2.6l-.19.07-.12-.16-.19-.24a44.965 44.965 0 01-4.09-5.87 46.979 46.979 0 014.53 5.54l.18.24-.31-.09a42.6 42.6 0 016.53-2.09z" fill="#DC3001"/><path d="M230.789 233.28a45.402 45.402 0 01-6.34 2.6l-.19.07-.12-.16-.19-.24a44.965 44.965 0 01-4.09-5.87 46.979 46.979 0 014.53 5.54l.18.24-.31-.09a42.6 42.6 0 016.53-2.09z" fill="#000" opacity=".1"/><path d="M222.999 233.85a8.223 8.223 0 01-2.57 1.57 8.806 8.806 0 01-2.82 1.07 8.518 8.518 0 012.58-1.57 8.873 8.873 0 012.81-1.07z" fill="#DC3001"/><path d="M222.999 233.85a8.223 8.223 0 01-2.57 1.57 8.806 8.806 0 01-2.82 1.07 8.518 8.518 0 012.58-1.57 8.873 8.873 0 012.81-1.07z" fill="#000" opacity=".1"/><path d="M228.749 240.14a8.246 8.246 0 01-1.4-2.53c-.66-1.49-1.1-2.77-.9-2.75a8.348 8.348 0 011.41 2.53c.466.853.768 1.786.89 2.75z" fill="#DC3001"/><path d="M228.749 240.14a8.246 8.246 0 01-1.4-2.53c-.66-1.49-1.1-2.77-.9-2.75a8.348 8.348 0 011.41 2.53c.466.853.768 1.786.89 2.75z" fill="#000" opacity=".1"/><path d="M275.406 259.91l-28.123-9.235-5.747 17.5 28.122 9.235 5.748-17.5z" fill="#DC3001"/><path d="M275.379 259.93c-.401.23-.823.421-1.26.57l-3.5 1.37c-3 1.13-7.09 2.67-11.7 4.36l-.19.07-.12-.16-.47-.62c-3.06-4-5.82-7.73-7.79-10.42l-2.35-3.19a8 8 0 01-.79-1.22c.367.331.701.696 1 1.09l2.45 3.09c2.05 2.62 4.85 6.27 7.92 10.32l.47.61-.31-.09c4.6-1.68 8.75-3.16 11.75-4.2l3.56-1.21a7.31 7.31 0 011.33-.37z" fill="#DC3001"/><path d="M275.379 259.93c-.401.23-.823.421-1.26.57l-3.5 1.37c-3 1.13-7.09 2.67-11.7 4.36l-.19.07-.12-.16-.47-.62c-3.06-4-5.82-7.73-7.79-10.42l-2.35-3.19a8 8 0 01-.79-1.22c.367.331.701.696 1 1.09l2.45 3.09c2.05 2.62 4.85 6.27 7.92 10.32l.47.61-.31-.09c4.6-1.68 8.75-3.16 11.75-4.2l3.56-1.21a7.31 7.31 0 011.33-.37z" fill="#000" opacity=".2"/><path d="M255.38 261.42a55.873 55.873 0 01-6.82 3.63 56.272 56.272 0 01-7.05 3.14 52.708 52.708 0 016.81-3.64 52.564 52.564 0 017.06-3.13z" fill="#DC3001"/><path d="M255.38 261.42a55.873 55.873 0 01-6.82 3.63 56.272 56.272 0 01-7.05 3.14 52.708 52.708 0 016.81-3.64 52.564 52.564 0 017.06-3.13z" fill="#000" opacity=".2"/><path d="M270.14 277.59a51.11 51.11 0 01-3.21-6.68 50.627 50.627 0 01-2.7-6.91 50.725 50.725 0 013.21 6.69 49.89 49.89 0 012.7 6.9z" fill="#DC3001"/><path d="M270.14 277.59a51.11 51.11 0 01-3.21-6.68 50.627 50.627 0 01-2.7-6.91 50.725 50.725 0 013.21 6.69 49.89 49.89 0 012.7 6.9z" fill="#000" opacity=".2"/><path d="M248.799 255a4.394 4.394 0 01-6.574-1.682 4.395 4.395 0 01.738-4.82 4.396 4.396 0 014.736-1.165 4.392 4.392 0 011.1 7.667z" fill="#263238"/><path d="M248.999 250.65c-.929.691-1.916 1.3-2.95 1.82l-.7.39-.13.07-.07-.12a14.209 14.209 0 01-1.2-2.37c.557.693 1.043 1.44 1.45 2.23l-.19-.06.7-.4a19.884 19.884 0 013.09-1.56z" fill="#fff"/><path d="M257.341 236.33l-14.736-4.839-3.01 9.168 14.735 4.839 3.011-9.168z" fill="#DC3001"/><path d="M257.343 236.33l-14.736-4.839-3.01 9.168 14.735 4.839 3.011-9.168z" fill="#000" opacity=".2"/><path d="M257.31 236.34a3.302 3.302 0 01-.65.3l-1.84.72c-1.55.59-3.71 1.4-6.13 2.28h-.1l-.06-.09-.24-.32c-1.61-2.12-3-4.05-4.09-5.46l-1.2-1.63a4.375 4.375 0 01-.41-.64c.185.173.353.364.5.57l1.29 1.62c1.07 1.37 2.54 3.28 4.14 5.4l.25.33h-.16c2.41-.88 4.58-1.66 6.16-2.2l1.86-.63c.216-.109.444-.193.68-.25z" fill="#DC3001"/><path d="M257.31 236.34a3.302 3.302 0 01-.65.3l-1.84.72c-1.55.59-3.71 1.4-6.13 2.28h-.1l-.06-.09-.24-.32c-1.61-2.12-3-4.05-4.09-5.46l-1.2-1.63a4.375 4.375 0 01-.41-.64c.185.173.353.364.5.57l1.29 1.62c1.07 1.37 2.54 3.28 4.14 5.4l.25.33h-.16c2.41-.88 4.58-1.66 6.16-2.2l1.86-.63c.216-.109.444-.193.68-.25z" fill="#DC3001" opacity=".2"/><path d="M246.84 237.12a30.046 30.046 0 01-3.57 1.9 29.705 29.705 0 01-3.7 1.65 27.61 27.61 0 013.57-1.91 28.131 28.131 0 013.7-1.64z" fill="#DC3001"/><path d="M246.84 237.12a30.046 30.046 0 01-3.57 1.9 29.705 29.705 0 01-3.7 1.65 27.61 27.61 0 013.57-1.91 28.131 28.131 0 013.7-1.64z" fill="#DC3001" opacity=".2"/><path d="M254.571 245.59a26.403 26.403 0 01-1.68-3.5 28.16 28.16 0 01-1.42-3.62 50.967 50.967 0 013.1 7.12z" fill="#DC3001"/><path d="M254.571 245.59a26.403 26.403 0 01-1.68-3.5 28.16 28.16 0 01-1.42-3.62 50.967 50.967 0 013.1 7.12z" fill="#DC3001" opacity=".2"/><path d="M139 121.57a20.882 20.882 0 01-29.227 13.704 20.877 20.877 0 01-11.862-19.938A20.88 20.88 0 01123.9 96.19a20.892 20.892 0 0115.1 25.38z" fill="#DC3001"/><path d="M126.469 105.11c.37.15-2 7.14-5.3 15.62-.49 1.23-1 2.41-1.41 3.57l-.25.63-.63-.24c-6.77-2.61-11.72-4.76-11.6-5.07.12-.31 5.26 1.31 12.08 3.78l-.88.4c.44-1.16.9-2.35 1.37-3.58 3.29-8.49 6.26-15.22 6.62-15.11z" fill="#fff"/><path d="M395.65 417.09a19.329 19.329 0 0112-1.46c2.18.36 4.45 1 5.94 2.64 1.49 1.64 1.76 4.52.06 5.93a5.771 5.771 0 01-3.74.95c-3.18 0-6.7-.6-9.24 1.31-1.45 1.09-2.41 2.9-4.14 3.44a4.113 4.113 0 01-4.5-2 7.005 7.005 0 01-.51-5.16 7.863 7.863 0 014.13-5.65z" fill="#DC3001"/><path d="M395.65 417.09a19.329 19.329 0 0112-1.46c2.18.36 4.45 1 5.94 2.64 1.49 1.64 1.76 4.52.06 5.93a5.771 5.771 0 01-3.74.95c-3.18 0-6.7-.6-9.24 1.31-1.45 1.09-2.41 2.9-4.14 3.44a4.113 4.113 0 01-4.5-2 7.005 7.005 0 01-.51-5.16 7.863 7.863 0 014.13-5.65z" fill="#fff" opacity=".2"/><path d="M387.28 400.93c2.24 3.19 6.58 2.13 8.59.18s2.87-4.77 3.64-7.46c1.77-6.15 3.55-12.6 2.24-18.86a10.605 10.605 0 00-2.41-5.13 5.483 5.483 0 00-5.19-1.73c-2.19.58-3.55 2.73-4.53 4.77a45.057 45.057 0 00-4.45 19.3c0 3.11.36 6.37 2.11 8.94m-6.13 4.57c2.42-2.88 2.88-7.08 1.8-10.69a20.65 20.65 0 00-6.32-9.18A34.178 34.178 0 00365.3 379a12.12 12.12 0 00-5.1-.87 5.374 5.374 0 00-4.28 2.59c-1.19 2.27-.05 5 1.19 7.28a86.862 86.862 0 007.44 11.34c2.23 2.87 4.79 5.71 8.19 7 3.4 1.29 6.93 1.15 8.73-1.21" fill="#DC3001"/><path d="M381.15 405.51c2.42-2.88 2.88-7.08 1.8-10.69a20.65 20.65 0 00-6.32-9.18A34.178 34.178 0 00365.3 379a12.12 12.12 0 00-5.1-.87 5.374 5.374 0 00-4.28 2.59c-1.19 2.27-.05 5 1.19 7.28a86.862 86.862 0 007.44 11.34c2.23 2.87 4.79 5.71 8.19 7 3.4 1.29 6.93 1.15 8.73-1.21" fill="#000" opacity=".1"/><path d="M387.129 449.06c.116-.475.183-.961.2-1.45.11-1.06.23-2.38.39-4 .196-1.947.493-3.883.89-5.8a44.27 44.27 0 012.11-6.85 25.264 25.264 0 013.5-6.2 13.005 13.005 0 014.42-3.68 12.606 12.606 0 013.72-1.16 7.056 7.056 0 001.44-.2 6.044 6.044 0 00-1.46 0 11.418 11.418 0 00-3.89 1 13.134 13.134 0 00-4.66 3.71 24.777 24.777 0 00-3.63 6.32 42.29 42.29 0 00-2.09 7 48.497 48.497 0 00-.77 5.87c-.13 1.68-.18 3-.2 4-.039.48-.028.962.03 1.44z" fill="#263238"/><path d="M387.4 446c.03-.222.03-.448 0-.67v-1.92c0-1.67 0-4.09.08-7.07.15-6 .66-14.21 1.66-23.26 1-9.05 2.32-17.2 3.53-23 .28-1.46.57-2.78.84-3.93.27-1.15.48-2.16.69-3 .21-.84.33-1.38.45-1.87.068-.217.108-.443.12-.67-.102.2-.179.412-.23.63l-.56 1.85c-.25.8-.5 1.79-.79 2.94-.29 1.15-.62 2.46-.94 3.93a218.91 218.91 0 00-3.67 23.04c-1 9.07-1.44 17.33-1.48 23.31 0 3 0 5.41.1 7.08.046.78.086 1.42.12 1.92.004.232.031.463.08.69z" fill="#263238"/><path d="M387.441 430.08c.054-.666.054-1.334 0-2a52.552 52.552 0 00-.62-5.44 75.449 75.449 0 00-5.08-17.32 49.935 49.935 0 00-9.74-15.18 23.9 23.9 0 00-2.29-2.13c-.35-.3-.66-.59-1-.83l-.88-.61a13.406 13.406 0 00-1.7-1.09 61.009 61.009 0 015.55 4.95 52.736 52.736 0 019.5 15.12 75.142 75.142 0 013.33 9.3c.87 2.91 1.45 5.59 1.89 7.85.44 2.26.65 4.11.8 5.39.032.668.112 1.333.24 1.99z" fill="#263238"/><path d="M235.35 298.25h41.87l16.58-46.32h-2.32l-16.44 44.06-39.69.23v2.03z" fill="#455A64"/><path d="M216.852 304.1l1.55 145.09h4.26l-1.73-146.16-4.08 1.07zm89.619-1.41c-.57 2.77 3.84 146.83 3.84 146.83h4l-3.25-146.83h-4.59z" fill="#263238"/><path d="M355.421 298.25h-178.03v7.34h14.69l-9.56 143.13 4.18.23 9.57-143.36h144.17l6.99 143.42h4.19l-6.99-143.42h10.79v-7.34z" fill="#263238"/><path d="M255 443.73v-11l-20.61-.21-.23 16.1 1.28.09c5.68.38 28.92 1.5 32.73.39 4.24-1.24-13.17-5.37-13.17-5.37z" fill="#DC3001"/><path d="M241.62 448.53a7.133 7.133 0 00-2.58-4.42 7 7 0 00-4.8-1.55l-.06 5.76 7.44.21z" fill="#F5F5F5"/><path d="M263.48 446.05s6.12 1.84 5.34 2.84c-.78 1-24.3.75-34.67-.27v-.46l27.44.53s.69-2.6 1.89-2.64z" fill="#F5F5F5"/><path d="M233.869 448.14h.35l1 .08 3.74.2c3.16.15 7.53.29 12.36.35 4.83.06 9.21 0 12.37-.07l3.75-.11 1-.05h.35a1.367 1.367 0 00-.35 0h-17.11c-4.82 0-9.2-.18-12.36-.28l-3.75-.12h-1.35z" fill="#263238"/><path d="M261.619 449a8.28 8.28 0 01.72-1.78c.372-.523.805-1 1.29-1.42a3.325 3.325 0 00-2 3.2h-.01zm-6.049-3.14c.06 0 .36-.32.66-.79.3-.47.51-.88.45-.92-.06-.04-.35.32-.66.79-.215.27-.368.584-.45.92zm-1.66-.86c.05.05.38-.16.74-.48.36-.32.61-.61.56-.66-.05-.05-.37.16-.73.47-.36.31-.61.58-.57.67zm-1.031-2c.34.132.706.184 1.07.15a2.47 2.47 0 001.08-.1 2.353 2.353 0 00-1.07-.15 2.5 2.5 0 00-1.08.1zm-.35-1.37a3.068 3.068 0 002.44.21c-.814-.063-1.627-.133-2.44-.21z" fill="#263238"/><path d="M256.289 444.07c.44.076.89.076 1.33 0a7.37 7.37 0 001.41-.29c.282-.079.553-.189.81-.33a.666.666 0 00.33-.4.536.536 0 00-.19-.54 2.44 2.44 0 00-3 .68 2.345 2.345 0 00-.45.88v.36c.132-.408.339-.788.61-1.12.3-.35.697-.604 1.14-.73a2.061 2.061 0 011.58.13c.21.16.12.4-.11.54-.239.128-.49.232-.75.31a9.081 9.081 0 01-1.37.34c-.83.1-1.34.1-1.34.17z" fill="#263238"/><path d="M256.629 444.14c.167-.276.228-.603.17-.92a2.28 2.28 0 00-.35-1 1.335 1.335 0 00-1.1-.69.523.523 0 00-.41.61c.027.209.099.411.21.59.177.291.385.563.62.81.2.241.458.427.75.54 0 0-.26-.24-.62-.66a4.51 4.51 0 01-.54-.8c-.18-.28-.3-.79 0-.84.3-.05.67.3.87.57.178.259.3.552.36.86.05.307.063.62.04.93zm-22.279-1.63s.59-.05 1.52.07a6.646 6.646 0 013.31 1.4 6.721 6.721 0 012 3c.3.88.33 1.48.37 1.47.04-.01 0-.15 0-.41a6.093 6.093 0 00-.21-1.12 6.288 6.288 0 00-5.5-4.48 5.053 5.053 0 00-1.14 0 .954.954 0 00-.35.07zm2.229-8.51a69.036 69.036 0 00-.2 8.46c.159-1.404.232-2.817.22-4.23a37.542 37.542 0 00-.02-4.23zm7.661 12.55c.981.243 1.99.354 3 .33a11.189 11.189 0 003-.21c0-.07-1.35 0-3 0s-2.99-.19-3-.12z" fill="#263238"/><path d="M240.199 446.5c0 .05.11.29.24.6s.21.58.28.58c.07 0 .11-.33-.05-.68-.16-.35-.42-.55-.47-.5zm-1.5-1.91c0 .05.08.26.29.48.21.22.42.36.47.31.05-.05-.08-.26-.29-.48-.21-.22-.42-.36-.47-.31zm-2.169-.89c0 .07.29.07.59.18.3.11.52.28.57.23.05-.05-.11-.33-.49-.46s-.69-.01-.67.05zm-1.53-.42c0 .06.09.17.26.24.17.07.33.07.35 0 .02-.07-.09-.17-.26-.24-.17-.07-.35-.07-.35 0z" fill="#263238"/><path d="M295.519 432.63l-4.52-10.05-18.87 8.29 6.41 14.76 1.2-.44c5.34-2 27-10.53 30-13.11 3.39-2.88-14.22.55-14.22.55z" fill="#DC3001"/><path d="M285.35 442.48a7.153 7.153 0 00-4.18-3 7.003 7.003 0 00-5 .57l2.31 5.27 6.87-2.84z" fill="#F5F5F5"/><path d="M304.249 431.23s6.33-.85 6 .39c-.33 1.24-21.84 10.68-31.71 14l-.15-.43 25.22-10.81s-.44-2.62.64-3.15z" fill="#F5F5F5"/><path d="M278.109 445.32l.34-.11 1-.35 3.5-1.36c2.94-1.17 7-2.83 11.41-4.77 4.41-1.94 8.39-3.77 11.24-5.15l3.37-1.64.91-.47a1.46 1.46 0 00.31-.17l-.33.13-.93.42-3.4 1.58c-2.87 1.32-6.85 3.14-11.27 5.07-4.42 1.93-8.46 3.63-11.38 4.84l-3.46 1.43-.94.39-.37.16z" fill="#263238"/><path d="M303.77 434.69a7.862 7.862 0 01-.08-1.92c.132-.629.33-1.242.59-1.83a2.776 2.776 0 00-.84 1.79 2.802 2.802 0 00.33 1.96zm-6.771-.39c.07 0 .19-.43.28-1 .09-.57.1-1 0-1s-.19.43-.28 1a2.063 2.063 0 000 1zm-1.919-.13c.06 0 .27-.31.47-.74.2-.43.3-.81.24-.84-.06-.03-.27.3-.47.74-.2.44-.32.81-.24.84zm-1.75-1.36a2.577 2.577 0 001-.31c.55-.23 1-.47.94-.53-.06-.06-.49.07-1 .3-.51.23-.97.47-.94.54zm-.881-1.11c.421.069.853.01 1.24-.17.41-.101.78-.324 1.06-.64-.395.101-.78.239-1.15.41-.395.096-.78.23-1.15.4z" fill="#263238"/><path d="M296.88 432.38a4 4 0 001.21-.54 8.03 8.03 0 001.16-.85c.225-.187.429-.399.61-.63a.735.735 0 00.13-.51.503.503 0 00-.39-.4 2.45 2.45 0 00-1.928.819 2.446 2.446 0 00-.582 2.011.87.87 0 00.11.35 3.967 3.967 0 01.1-1.28c.131-.441.388-.833.74-1.13a2.091 2.091 0 011.49-.53c.26.05.28.31.12.54a4.389 4.389 0 01-.55.59c-.35.315-.721.605-1.11.87-.67.45-1.13.65-1.11.69z" fill="#263238"/><path d="M297.219 432.3a1.361 1.361 0 00-.23-.9 2.314 2.314 0 00-.72-.75 1.334 1.334 0 00-1.28-.17.519.519 0 00-.13.72c.109.183.26.337.44.45.279.199.581.363.9.49.283.135.596.197.91.18 0 0-.34-.11-.84-.35a4.219 4.219 0 01-.83-.5c-.28-.18-.59-.59-.31-.78a1.186 1.186 0 011 .16c.274.16.51.378.69.64a5.3 5.3 0 01.4.81zm-20.98 7.7s.51-.29 1.41-.56a6.46 6.46 0 016.67 1.77c.64.69.91 1.22.95 1.19a1.474 1.474 0 00-.17-.38 5.235 5.235 0 00-.65-.92 6.337 6.337 0 00-3.14-2 6.444 6.444 0 00-3.71.15c-.35.128-.685.292-1 .49-.26.14-.37.26-.36.26z" fill="#263238"/><path d="M274.75 431.27a33.389 33.389 0 001.53 4c.519 1.315 1.11 2.6 1.77 3.85a35.8 35.8 0 00-1.54-3.95 38.335 38.335 0 00-1.76-3.9zm12.16 8.33c.996-.19 1.964-.506 2.88-.94a11.064 11.064 0 002.66-1.43c0-.06-1.23.55-2.76 1.2-1.53.65-2.8 1.1-2.78 1.17zm-3.701 1.61c0 .07.22.22.47.45.25.23.43.45.49.41.06-.04 0-.34-.32-.6-.32-.26-.62-.32-.64-.26zm-2.15-1.12c0 .07.18.21.46.32.28.11.53.15.56.09.03-.06-.18-.21-.46-.32-.28-.11-.54-.18-.56-.09zm-2.34.08c0 .06.29-.05.61-.07.32-.02.58 0 .61 0 .03 0-.24-.26-.63-.22-.39.04-.64.24-.59.29zm-1.59.25c0 .07.16.12.34.11.18-.01.33-.07.33-.14s-.16-.12-.34-.11c-.18.01-.33.07-.33.14z" fill="#263238"/><path d="M108.509 359.12l-14.88-111.19a4.692 4.692 0 015-5.3l35.87 3a6.78 6.78 0 016.19 6.21l8.74 105.27-40.92 2.01z" fill="#DC3001"/><path d="M108.509 359.12l-14.88-111.19a4.692 4.692 0 015-5.3l35.87 3a6.78 6.78 0 016.19 6.21l8.74 105.27-40.92 2.01z" fill="#000" opacity=".2"/><path d="M143.11 195.71c-.3-4.24-1.41-8.37-2-12.57-.59-4.2-.71-8.62.95-12.53a18.277 18.277 0 0110.34-9.46 31.665 31.665 0 0114.18-1.62c.865.026 1.717.22 2.51.57a2.496 2.496 0 011.43 2 1.562 1.562 0 01-.443 1.156 1.555 1.555 0 01-1.147.464c1.826.187 3.627.572 5.37 1.15a3.157 3.157 0 011.74 1.25 2.4 2.4 0 01-.24 2.36 7.021 7.021 0 01-1.81 1.7 1.663 1.663 0 011.703.71c.121.182.205.386.247.6a3.157 3.157 0 01-.69 2.47c-.51.72-1.17 1.31-1.7 2-2.16 2.87-1.74 6.86-1.22 10.42" fill="#263238"/><path d="M143.499 220.55l20.21-.36c.27-2.34.66-11.44.66-11.44s8.45-.78 9.07-9.14c.62-8.36.36-27.66.36-27.66a29.13 29.13 0 00-29.44 1.87l-1.3.88.44 45.85z" fill="#B78876"/><path d="M171 186.45a1.224 1.224 0 01-.262-1.329 1.222 1.222 0 012.324.704 1.23 1.23 0 01-1.197.989 1.204 1.204 0 01-.865-.364z" fill="#263238"/><path d="M173.129 184.42c-.14.14-.92-.54-2.07-.62-1.15-.08-2 .47-2.15.31-.15-.16.09-.32.47-.58a2.875 2.875 0 013.37.25c.34.31.45.58.38.64zm-13.34.19a1.218 1.218 0 01.143 1.884 1.218 1.218 0 01-1.875-.236 1.22 1.22 0 01.042-1.358 1.224 1.224 0 01.785-.496 1.203 1.203 0 01.905.206z" fill="#263238"/><path d="M160.549 184.67c-.14.13-.92-.55-2.07-.63-1.15-.08-2 .47-2.14.32-.14-.15.08-.33.47-.58a2.831 2.831 0 013.36.25c.34.3.45.58.38.64zm4.041 9.79a5.577 5.577 0 011.88-.28c.31 0 .55-.07.58-.23a1.723 1.723 0 00-.16-.88c-.25-.78-.51-1.57-.77-2.4-1.05-3.41-1.77-6.22-1.59-6.27.18-.05 1.16 2.67 2.22 6.08.25.83.48 1.63.72 2.41.164.403.192.849.08 1.27a.79.79 0 01-.55.45c-.17.018-.341.018-.51 0a5.653 5.653 0 01-1.9-.15z" fill="#263238"/><path d="M160.76 195.5c-1.15-.79 3.2 2 5.55 2a3.168 3.168 0 01-3.83 1c-2.48-1.05-1.72-3-1.72-3z" fill="#fff"/><path d="M164.4 208.63a19.45 19.45 0 01-10.72-3.77s2.21 6.18 10.6 5.94l.12-2.17z" fill="#A36957"/><path d="M142.789 181l.43 10.85s3.81-1.16 4.06-1.27c.25-.11-.07-13.29-.07-13.29s-.53-5 2.71-6.15c3.41-1.23 4.89 1.24 9.72 2 15.93 2.69 14.84-2.2 14.84-2.2s2-2.15-2.09-4.51-14.32-3.16-19.92-1.23c-11 3.79-11.66 7.56-11.66 10.89 0 4.75 1.98 4.91 1.98 4.91z" fill="#263238"/><path d="M144.66 182.12c-.18-.07-6.2-.85-5.63 6.26.57 7.11 7.56 4.19 7.56 4 0-.19-1.93-10.26-1.93-10.26z" fill="#B78876"/><path d="M144.21 190s-.12.1-.32.21c-.287.149-.62.181-.93.09a2.995 2.995 0 01-1.63-2.63 4.12 4.12 0 01.2-1.81 1.432 1.432 0 01.86-1 .641.641 0 01.76.28c.11.19.07.34.11.35.04.01.14-.14.06-.42a.77.77 0 00-.31-.43 1.002 1.002 0 00-.7-.12 1.736 1.736 0 00-1.21 1.2 4.177 4.177 0 00-.27 2c.16 1.43 1 2.71 2 2.93a1.34 1.34 0 001.12-.28c.26-.15.28-.32.26-.37z" fill="#A36957"/><path d="M224.08 278s10-.48 12 .43c3.46 1.51 13.76 17.66 13.24 17.66h-4.77l-16-6.07-3.77.95-.7-12.97z" fill="#B78876"/><path d="M267.079 324.37s29.92 103.63 29.99 103.12c.07-.51-26.82 12.93-26.82 12.93l-18.14-74.94 14.97-41.11z" fill="#263238"/><path d="M269.659 441.05l28.34-13.83-1.23-3.79-28.56 13.85 1.45 3.77zm-3.719-38.12c-.15 0-.46-.61-.71-1.44-.25-.83-.33-1.56-.18-1.6.15-.04.46.6.71 1.44.25.84.32 1.55.18 1.6zm1.849 6.07c-.15 0-.48-.6-.73-1.43s-.35-1.55-.21-1.6c.14-.05.47.6.73 1.43s.35 1.53.21 1.6zm1.93 6c-.15.05-.48-.59-.75-1.42s-.37-1.54-.23-1.59c.14-.05.48.59.75 1.42s.37 1.59.23 1.59zm2.02 6c-.15.05-.49-.58-.77-1.41s-.4-1.54-.25-1.59c.15-.05.49.58.77 1.41s.39 1.59.25 1.59zm2.101 6c-.14 0-.5-.58-.79-1.4-.29-.82-.42-1.53-.27-1.58.15-.05.49.57.79 1.4.3.83.43 1.5.27 1.58zm2.16 5.91c-.15 0-.51-.57-.81-1.39-.3-.82-.44-1.53-.3-1.58.14-.05.51.57.81 1.39.3.82.47 1.53.3 1.58z" fill="#455A64"/><path d="M274.429 435.4a4.735 4.735 0 01-.6-1.08c-.35-.72-.83-1.77-1.38-3.08-1.11-2.62-2.48-6.31-3.86-10.42a359.14 359.14 0 01-3.36-10.59c-.38-1.28-.7-2.36-1-3.23a4.837 4.837 0 01-.28-1.21c.196.364.357.746.48 1.14.28.75.66 1.83 1.12 3.18l3.51 10.53c1.37 4.11 2.68 7.81 3.7 10.46l1.22 3.13c.191.373.342.765.45 1.17z" fill="#455A64"/><path d="M127.489 317.17c.25-5.49-2.87 30.13 24.51 31.07 27.38.94 83.32.53 83.32.53l-6.55 90.33h32.85l6.86-96.1s3.5-27.84-15.55-31.39c-11.92-2.23-86.05-2.94-86.05-2.94l-39.39 8.5z" fill="#263238"/><path d="M228.02 439.29h34.59v-5.38l-34.59.05v5.33z" fill="#455A64"/><path d="M173.91 344c.116-.015.234-.015.35 0l1-.06 4-.18 14.85-.57 50.09-1.72h.32v.32c-.45 3.68-.83 7.57-1.15 11.52-.44 5.65-.86 11.16-1.27 16.48-.41 5.32-1 10.44-1.51 15.32-1 9.74-1.94 18.52-2.72 25.91-.78 7.39-1.43 13.31-1.88 17.46-.23 2-.41 3.64-.54 4.75-.06.52-.11.93-.15 1.23a2.707 2.707 0 01-.07.42 1.966 1.966 0 010-.42c0-.31.06-.72.1-1.24.1-1.12.25-2.72.44-4.76.4-4.15 1-10.12 1.71-17.48.71-7.36 1.62-16.17 2.6-25.93.48-4.88 1-10 1.47-15.31.47-5.31.83-10.83 1.26-16.47.32-4 .7-7.85 1.16-11.55l.28.31-50.1 1.53-14.85.41-4 .08h-1a1.318 1.318 0 01-.39-.05zm3.16-3.91c0 .15-.7.29-1.58.31-.88.02-1.58-.08-1.58-.23 0-.15.7-.3 1.57-.32.87-.02 1.59.09 1.59.24zm6.329-.15c0 .15-.7.29-1.58.31-.88.02-1.58-.08-1.59-.23-.01-.15.71-.29 1.58-.32.87-.03 1.59.09 1.59.24zm6.33-.15c0 .16-.7.29-1.58.32-.88.03-1.58-.09-1.59-.24-.01-.15.71-.29 1.58-.31.87-.02 1.59.08 1.59.23zm6.33-.15c0 .16-.7.3-1.58.32-.88.02-1.58-.09-1.59-.24-.01-.15.71-.29 1.58-.31.87-.02 1.59.08 1.59.23zm6.33-.14c0 .15-.7.29-1.58.31-.88.02-1.58-.09-1.59-.24-.01-.15.71-.29 1.58-.31.87-.02 1.59.08 1.59.24zm6.33-.15c0 .15-.7.29-1.58.31-.88.02-1.58-.09-1.59-.24-.01-.15.71-.29 1.58-.31.87-.02 1.58.09 1.59.24zm6.33-.15c0 .15-.7.29-1.58.31-.88.02-1.58-.09-1.59-.24-.01-.15.7-.29 1.58-.31.88-.02 1.54.09 1.59.24zm6.33-.15c0 .15-.7.29-1.58.31-.88.02-1.58-.08-1.59-.24-.01-.16.7-.29 1.58-.31.88-.02 1.58.09 1.59.24zm6.33-.15c0 .15-.7.29-1.58.31-.88.02-1.58-.08-1.59-.23-.01-.15.7-.3 1.58-.32.88-.02 1.58.09 1.59.24zm6.291-.15c0 .15-.71.29-1.58.31-.87.02-1.58-.08-1.59-.23-.01-.15.7-.3 1.58-.32.88-.02 1.59.09 1.59.24zm6.369-.15c0 .15-.71.29-1.58.31-.87.02-1.58-.08-1.59-.23-.01-.15.7-.29 1.58-.31.88-.02 1.58.08 1.59.23zm6.33-.15c0 .16-.71.3-1.58.32-.87.02-1.59-.09-1.59-.24s.7-.29 1.58-.31c.88-.02 1.58.08 1.59.23zm-.009 5.74c-.16 0-.21-.73-.12-1.6.09-.87.27-1.56.42-1.55.15.01.21.73.12 1.6-.09.87-.27 1.57-.42 1.55zm-.621 6.3c-.15 0-.21-.73-.12-1.6.09-.87.28-1.56.43-1.55.15.01.2.73.12 1.6-.08.87-.28 1.57-.43 1.55zm-.62 6.3c-.15 0-.21-.73-.12-1.6.09-.87.28-1.56.43-1.55.15.01.2.74.12 1.61-.08.87-.28 1.56-.43 1.54zm-.619 6.3c-.15 0-.2-.73-.12-1.6.08-.87.28-1.56.43-1.55.15.01.2.74.12 1.61-.08.87-.26 1.56-.43 1.54zm-.621 6.31c-.15 0-.2-.74-.12-1.61.08-.87.28-1.56.43-1.54.15.02.21.73.12 1.6-.09.87-.28 1.56-.43 1.55zm-.619 6.3c-.15 0-.2-.74-.11-1.61.09-.87.27-1.56.42-1.54.15.02.21.73.12 1.6-.09.87-.27 1.56-.43 1.55zM243 382c-.16 0-.21-.73-.12-1.6.09-.87.27-1.57.43-1.55.16.02.2.73.11 1.6-.09.87-.29 1.55-.42 1.55zm-.64 6.3c-.15 0-.21-.73-.12-1.6.09-.87.28-1.57.43-1.55.15.02.2.73.12 1.6-.08.87-.28 1.56-.43 1.55zm-.62 6.3c-.15 0-.2-.73-.12-1.6.08-.87.28-1.56.43-1.55.15.01.2.73.12 1.6-.08.87-.28 1.57-.43 1.55zm-.621 6.3c-.15 0-.2-.73-.12-1.6.08-.87.28-1.56.43-1.55.15.01.2.73.12 1.6-.08.87-.28 1.57-.43 1.55zm-.619 6.3c-.15 0-.2-.73-.12-1.6.08-.87.28-1.56.43-1.55.15.01.21.73.12 1.6-.09.87-.28 1.57-.43 1.55zm-.611 6.3c-.16 0-.21-.73-.12-1.6.09-.87.27-1.56.42-1.55.15.01.21.74.12 1.61-.09.87-.31 1.56-.42 1.54zm-.619 6.3c-.15 0-.21-.73-.12-1.6.09-.87.27-1.56.43-1.55.16.01.2.74.11 1.61-.09.87-.27 1.56-.42 1.54zm-.621 6.31c-.15 0-.21-.74-.12-1.61.09-.87.28-1.56.43-1.54.15.02.2.73.12 1.6-.08.87-.28 1.56-.43 1.55zm-.649 6.3c-.15 0-.2-.73-.12-1.6.08-.87.28-1.57.43-1.55.15.02.2.73.12 1.6-.08.87-.25 1.56-.43 1.55zm-.3 3.34c-.15 0-.27-.07-.26-.12.01-.05.13-.09.28-.07.15.02.27.07.27.12 0 .05-.14.08-.29.07z" fill="#455A64"/><path d="M239.799 344.56a9.187 9.187 0 01-2.15 2.35 9.589 9.589 0 01-2.53 1.94 18.62 18.62 0 014.68-4.29z" fill="#263238"/><path d="M242.069 345.78a14.98 14.98 0 01-3.53 1.89 14.651 14.651 0 01-3.76 1.38 14.98 14.98 0 013.53-1.89 14.83 14.83 0 013.76-1.38z" fill="#263238"/><path d="M175.27 274.1s-3.35-35.89-9.3-51.6l1.18-.89-1.77-6.19-22.26-2.7.34 4.83a15.875 15.875 0 00-7.61 7.24c-8 16.94-4 36.72-8.29 73.37 0 0-5 17.19.16 22.57l48.57-11.32-2.29-11.08c21.2-.4 56.06-4.3 56.06-4.3l-1-20.06s-52.09.31-53.79.13z" fill="#455A64"/><path d="M165.339 215.39a16.748 16.748 0 011.61 4c.218.546.366 1.117.44 1.7.015.302-.085.598-.28.83a1.44 1.44 0 01-.6.42c-.84.26-1.32.08-1.32 0s.52-.09 1.15-.39a.926.926 0 00.55-.88 10.448 10.448 0 00-.46-1.55 17.158 17.158 0 01-1.09-4.13z" fill="#E0E0E0"/><path d="M170.65 242.11c0 .16-9 .28-20 .28s-20-.12-20-.28c0-.16 9-.27 20-.27s20 .16 20 .27zM168.559 232c0 .15-7.94.28-17.72.28-9.78 0-17.72-.13-17.72-.28 0-.15 7.93-.27 17.72-.27s17.72.12 17.72.27zm-2.919-8.89c0 .15-6.56.27-14.66.27-8.1 0-14.65-.12-14.65-.27 0-.15 6.56-.28 14.65-.28s14.66.17 14.66.28zm-.291-6.28c-3.737.283-7.485.376-11.23.28-3.746.096-7.494.003-11.23-.28 0-.15 5-.27 11.23-.27s11.23.12 11.23.27zm6.711 35.01c0 .15-9.47.27-21.15.27-11.68 0-21.15-.12-21.15-.27 0-.15 9.47-.28 21.15-.28 11.68 0 21.15.12 21.15.28zm1.719 9.77c0 .15-9.85.27-22 .27s-22-.12-22-.27c0-.15 9.85-.28 22-.28s22 .13 22 .28zm1.081 9c0 .16-10.1.28-22.55.28-12.45 0-22.55-.12-22.55-.28 0-.16 10.1-.27 22.55-.27 12.45 0 22.55.12 22.55.27zm49.22 9.85c0 .15-21.3.27-47.57.27s-47.58-.12-47.58-.27c0-.15 21.3-.28 47.58-.28 26.28 0 47.57.13 47.57.28zm.37 7.88c0 .16-21.46.28-47.93.28s-47.94-.12-47.94-.28c0-.16 21.46-.27 47.94-.27 26.48 0 47.93.12 47.93.27zm-51.21 9.72c0 .16-10.25.28-22.9.28-12.65 0-22.91-.12-22.91-.28 0-.16 10.25-.27 22.91-.27s22.9.12 22.9.27zm2.33 9.02c0 .15-11.15.28-24.9.28-13.75 0-24.9-.13-24.9-.28 0-.15 11.15-.27 24.9-.27 13.75 0 24.9.12 24.9.27z" fill="#263238"/><path d="M133.169 309.47c-.16 0-.28-17.49-.28-39.06 0-21.57.12-39.06.28-39.06.16 0 .27 17.49.27 39.06 0 21.57-.12 39.06-.27 39.06zm12.011-.96c-.15 0-.27-21.38-.27-47.75s.09-47.76.27-47.76c.18 0 .28 21.37.28 47.75s-.12 47.76-.28 47.76zm13.27-1.43c-.15 0-.27-20.61-.27-46s.12-46 .27-46c.15 0 .28 20.61.28 46s-.12 46-.28 46zm11.15 2.36c-.15 0-.27-16.18-.27-36.13 0-19.95.12-36.14.27-36.14.15 0 .28 16.18.28 36.14s-.13 36.13-.28 36.13zm11.809-35.39c.13 1.169.167 2.346.11 3.52 0 2.17 0 5.16-.12 8.46-.12 3.3-.18 6.3-.28 8.46a24.414 24.414 0 01-.28 3.51 22.006 22.006 0 01-.11-3.51c0-2.17 0-5.16.12-8.47.12-3.31.18-6.3.28-8.47a21.375 21.375 0 01.28-3.5zm12.591.42c.124 1.095.161 2.199.11 3.3 0 2 0 4.83-.1 7.92s-.18 5.9-.27 7.93a18.594 18.594 0 01-.28 3.28 20.536 20.536 0 01-.11-3.28c0-2 0-4.84.11-7.94.11-3.1.17-5.9.27-7.93a18.304 18.304 0 01.27-3.28zm12.519-.22c.137 1.057.177 2.125.12 3.19 0 2 0 4.69-.1 7.69s-.17 5.72-.27 7.68c.01 1.069-.08 2.137-.27 3.19a19.872 19.872 0 01-.12-3.18c0-2 0-4.69.11-7.69s.17-5.73.26-7.69c.003-1.069.093-2.136.27-3.19zm12.57-.35a16.29 16.29 0 01.12 3.09c0 1.91 0 4.55-.1 7.46s-.16 5.55-.26 7.45a18.077 18.077 0 01-.26 3.09 16.714 16.714 0 01-.13-3.09c0-1.91 0-4.55.1-7.46s.17-5.56.26-7.46a16.916 16.916 0 01.27-3.08zm-48.179 4.67a10.39 10.39 0 014.66-5.21 27.053 27.053 0 01-2.37 2.57 27.77 27.77 0 01-2.29 2.64z" fill="#263238"/><path d="M173.779 278.81a5.497 5.497 0 012-5.45c.12.11-.72 1.13-1.26 2.63s-.52 2.82-.74 2.82zM225 293.92a85.35 85.35 0 01-1.14-9.59 86.226 86.226 0 01-.6-9.65 81.48 81.48 0 011.15 9.6c.38 3.199.577 6.418.59 9.64zm.629-15.46c0 .07-.28.27-.32.77a1.005 1.005 0 00.25.73.75.75 0 00.84.11.781.781 0 00.5-.69 1.005 1.005 0 00-.37-.68c-.39-.31-.76-.21-.78-.29-.02-.08.37-.36 1 0a1.26 1.26 0 01.66 1 1.244 1.244 0 01-.78 1.22 1.258 1.258 0 01-1.44-.26 1.268 1.268 0 01-.265-.545c-.044-.2-.039-.407.015-.605.18-.73.7-.83.69-.76z" fill="#263238"/><path d="M175.21 274h.25l.73.06c.65.07 1.61.13 2.87.17 2.52.1 6.22.15 10.93.11 9.41-.06 22.86-.41 39-1h.23v.23c.32 6.23.66 13 1 20.18v.23h-.21c-2.56.48-5.15.68-7.8.95l-8.08.7c-5.49.45-11.14.87-16.89 1.28l-21.14 1.42c-6.13-.39-12.08-2.59-16.24-6.63a19.855 19.855 0 01-4.71-6.93 49.283 49.283 0 01-2.37-7.62c-2.47-10-4-19.11-5.25-26.67-.6-3.78-1.11-7.19-1.54-10.17a61.945 61.945 0 01-.89-7.67 9.427 9.427 0 011-4.72 4.736 4.736 0 011-1.33 9.238 9.238 0 00-.93 1.38 9.54 9.54 0 00-.88 4.67 64.02 64.02 0 001 7.63c.47 3 1 6.38 1.62 10.16 1.26 7.54 2.86 16.59 5.35 26.6.59 2.575 1.382 5.1 2.37 7.55a19.331 19.331 0 004.62 6.75c4 3.93 9.89 6.08 15.91 6.47l21.13-1.44 16.88-1.27 8.08-.69c2.63-.27 5.27-.47 7.72-.93l-.2.27c-.34-7.15-.66-13.95-1-20.19l.25.23c-16.13.59-29.58.87-39 .85-4.71 0-8.41-.09-10.93-.24-1.26-.07-2.23-.15-2.88-.25l-.73-.09a.99.99 0 01-.27-.05z" fill="#263238"/><path d="M175.209 274a9.23 9.23 0 01-.52-1.57c-.29-1-.69-2.5-1.17-4.34-1-3.67-2.15-8.78-3.43-14.42-1.28-5.64-2.45-10.75-3.33-14.44l-1-4.37a8.427 8.427 0 01-.31-1.62c.215.509.389 1.034.52 1.57.31 1 .71 2.49 1.2 4.33 1 3.66 2.22 8.76 3.5 14.41 1.28 5.65 2.33 10.66 3.23 14.45.4 1.78.74 3.25 1 4.38.144.531.248 1.073.31 1.62zm-9.8-58.19c.009.37-.028.739-.11 1.1-.1.71-.26 1.72-.48 3-.095.698-.236 1.39-.42 2.07a1.483 1.483 0 01-.9 1c-.439.116-.9.116-1.34 0-1.65-.34-3.45-.78-5.33-1.29-3.75-1-7.09-2.11-9.52-2.86l-2.87-.9a4.334 4.334 0 01-1-.39c.37.011.737.071 1.09.18.7.16 1.7.4 2.93.74 2.46.65 5.82 1.67 9.56 2.7 1.87.51 3.65 1 5.29 1.33.352.115.727.139 1.09.07a.988.988 0 00.62-.67c.22-.64.31-1.38.46-2 .26-1.24.49-2.24.65-2.94.038-.392.133-.776.28-1.14zM147.91 354.25l6.99 94.87 2.92-.68-1.09-92.19-8.82-2zm-29.621 3.3l-21.23 91.46h3.84l30.39-91.46h-13zm56.15 0l28.96 91.46h3.1l-23.01-91.46h-9.05z" fill="#263238"/><path d="M178.32 363.69l-64.9 42.41v2.32l66.71-44.73h-1.81z" fill="#263238"/><path d="M123.25 363.69l70.32 47.32v-3.62l-68.26-45.77-2.06 2.07z" fill="#263238"/><path d="M108.589 359.12l83.62-1.51a5.353 5.353 0 005.016-3.786 5.35 5.35 0 00.194-2.214 5.332 5.332 0 00-5.39-4.72l-84.81 1.36 1.37 10.87z" fill="#DC3001"/><path d="M108.589 359.12l83.62-1.51a5.353 5.353 0 005.016-3.786 5.35 5.35 0 00.194-2.214 5.332 5.332 0 00-5.39-4.72l-84.81 1.36 1.37 10.87z" fill="#000" opacity=".2"/><path d="M100.069 294.48l8.44 64.64 65.93-1.57-.17-39.26a11.002 11.002 0 00-7.454-10.579 11.01 11.01 0 00-4.546-.541l-50.27 4.54-6.62-68.51-6.68-.57a4.701 4.701 0 00-5 5.32l6.37 46.53z" fill="#DC3001"/></svg>