<svg width="32" height="32" fill="none" xmlns="http://www.w3.org/2000/svg"><path d="M31.524 6.583a12.47 12.47 0 01-3.567.977 6.227 6.227 0 002.73-3.437 12.4 12.4 0 01-3.943 1.506 6.213 6.213 0 00-10.584 5.667 17.638 17.638 0 01-12.803-6.49 6.208 6.208 0 00-.84 3.122 6.213 6.213 0 002.763 5.17 6.196 6.196 0 01-2.814-.777v.08a6.214 6.214 0 004.983 6.091 6.257 6.257 0 01-2.805.107 6.215 6.215 0 005.802 4.312 12.464 12.464 0 01-7.714 2.66c-.496 0-.99-.03-1.483-.087a17.567 17.567 0 009.52 2.79c11.427 0 17.673-9.463 17.673-17.671 0-.267-.006-.536-.018-.803a12.627 12.627 0 003.097-3.213l.003-.004z" fill="#DC3001"/></svg>