<svg width="269" height="270" viewBox="0 0 269 270" fill="none" xmlns="http://www.w3.org/2000/svg">
<path d="M148.295 25.3909H35.8956C33.7562 25.3909 32.022 27.1316 32.022 29.2789V186.624C32.022 188.771 33.7562 190.512 35.8956 190.512H148.295C150.434 190.512 152.168 188.771 152.168 186.624V29.2789C152.168 27.1316 150.434 25.3909 148.295 25.3909Z" fill="#F5F5F5"/>
<path d="M239.539 35.2297L239.76 36.3745L237.5 48.6595C236.701 49.2489 235.79 49.6684 234.823 49.8922C233.856 50.116 232.854 50.1393 231.878 49.9609L219.074 47.5849C219.074 47.5849 217.035 47.1259 217.605 44.4745C217.605 44.4745 217.702 43.0759 218.896 42.9841C218.896 42.9841 216.416 41.9689 216.69 40.0519C216.965 38.1349 218.374 38.1565 218.374 38.1565C218.374 38.1565 216.05 37.5679 216.292 35.4079C216.534 33.2479 217.788 33.2479 217.788 33.2479C217.788 33.2479 215.098 32.5891 215.76 30.1969C215.836 29.879 215.975 29.5797 216.168 29.3162C216.361 29.0527 216.604 28.8304 216.884 28.6621C217.163 28.4938 217.473 28.3828 217.795 28.3358C218.118 28.2887 218.446 28.3064 218.762 28.3879L227.87 30.0781L235.854 31.5577C236.763 31.7315 237.599 32.1739 238.256 32.8282C238.912 33.4824 239.359 34.3187 239.539 35.2297Z" fill="#EBEBEB"/>
<path d="M237.258 32.0868C237.258 32.0868 234.455 29.538 233.492 26.7678C233.045 25.3867 232.82 23.9431 232.825 22.491C232.825 22.383 233.008 21.411 233.142 20.6226C233.194 20.3106 233.123 19.9908 232.946 19.7294C232.769 19.468 232.498 19.2851 232.19 19.2186C231.224 19.079 230.24 19.299 229.425 19.8371C228.609 20.3753 228.018 21.1944 227.762 22.14C226.686 25.8228 227.606 28.3338 227.639 29.4516L227.666 30.5748L237.258 32.0868Z" fill="#EBEBEB"/>
<path d="M235.522 50.5057L244.463 52.1641L247.821 33.9239L238.88 32.2655L235.522 50.5057Z" fill="#EBEBEB"/>
<path d="M235.526 50.4953C235.526 50.4953 236.241 46.4075 237.167 41.3747C238.092 36.3419 238.872 32.2541 238.872 32.2595C238.872 32.2649 238.157 36.3473 237.226 41.3855C236.295 46.4237 235.542 50.5007 235.526 50.4953Z" fill="#E0E0E0"/>
<path d="M244.467 52.1587C244.467 52.1587 245.183 48.0655 246.114 43.0327C247.044 37.9999 247.808 33.9175 247.824 33.9175C247.841 33.9175 247.109 38.0107 246.184 43.0435C245.258 48.0763 244.489 52.1587 244.467 52.1587Z" fill="#E0E0E0"/>
<path d="M241.271 37.0225C241.213 37.3544 241.254 37.6962 241.389 38.0048C241.524 38.3134 241.747 38.575 242.03 38.7565C242.313 38.938 242.643 39.0314 242.979 39.0248C243.315 39.0182 243.641 38.912 243.917 38.7195C244.192 38.527 244.405 38.2569 244.528 37.9433C244.651 37.6296 244.678 37.2865 244.607 36.9571C244.536 36.6277 244.369 36.3268 244.128 36.0925C243.887 35.8581 243.582 35.7007 243.251 35.6401C243.031 35.5997 242.804 35.6034 242.585 35.6511C242.366 35.6987 242.159 35.7894 241.975 35.9179C241.791 36.0464 241.634 36.2101 241.513 36.3997C241.393 36.5893 241.31 36.8009 241.271 37.0225Z" fill="white"/>
<path d="M225.75 29.7C225.75 29.7 226.735 29.8458 227.935 30.0672C229.135 30.2886 230.114 30.4884 230.087 30.5046C230.06 30.5208 229.102 30.3588 227.902 30.1374C226.703 29.916 225.75 29.7 225.75 29.7Z" fill="#E0E0E0"/>
<path d="M218.154 38.2104C218.154 38.2104 218.783 38.2914 219.553 38.4318C220.02 38.5075 220.483 38.6067 220.941 38.7288C220.941 38.7288 220.311 38.6478 219.542 38.502C219.074 38.4296 218.611 38.3323 218.154 38.2104Z" fill="#E0E0E0"/>
<path d="M217.6 33.1667C217.6 33.1667 218.487 33.2963 219.579 33.4961C220.672 33.6959 221.554 33.8795 221.549 33.9011C221.543 33.9227 220.661 33.7715 219.569 33.5663C218.477 33.3611 217.594 33.1883 217.6 33.1667Z" fill="#E0E0E0"/>
<path d="M218.315 42.9031C218.315 42.9031 219.203 43.0327 220.295 43.2325C221.387 43.4323 222.269 43.6159 222.264 43.6321C222.259 43.6483 221.376 43.5079 220.284 43.3027C219.192 43.0975 218.31 42.9193 218.315 42.9031Z" fill="#E0E0E0"/>
<path d="M240.895 33.1667C240.895 33.1667 242.154 33.3665 243.693 33.6527C245.231 33.9389 246.479 34.1927 246.479 34.1927C246.479 34.1927 245.221 33.9983 243.682 33.7121C242.143 33.4259 240.895 33.1883 240.895 33.1667Z" fill="white"/>
<path d="M217.126 36.3312C217.106 36.2997 217.092 36.265 217.083 36.2286C217.056 36.1313 217.036 36.032 217.024 35.9316C217.01 35.7825 217.01 35.6324 217.024 35.4834C217.044 35.2996 217.084 35.1185 217.142 34.9434C217.204 34.7693 217.286 34.6027 217.384 34.4466C217.464 34.321 217.558 34.205 217.664 34.101C217.734 34.0283 217.812 33.9631 217.896 33.9066L217.987 33.8472C217.987 33.8472 217.869 33.9498 217.702 34.1334C217.602 34.2412 217.514 34.3588 217.438 34.4844C217.345 34.6354 217.269 34.7966 217.212 34.965C217.152 35.14 217.111 35.3211 217.089 35.505C217.075 35.6505 217.075 35.7969 217.089 35.9424C217.094 36.18 217.137 36.3258 217.126 36.3312Z" fill="white"/>
<path d="M216.653 31.4658C216.575 31.4042 216.514 31.3244 216.475 31.2336C216.362 31.0229 216.305 30.7869 216.308 30.5478C216.316 30.3092 216.381 30.0759 216.497 29.8674C216.541 29.7799 216.606 29.7041 216.685 29.646C216.685 29.646 216.62 29.7378 216.545 29.8944C216.443 30.0982 216.388 30.3222 216.383 30.5501C216.379 30.7781 216.425 31.0042 216.518 31.212C216.567 31.2943 216.612 31.379 216.653 31.4658Z" fill="white"/>
<path d="M217.793 41.58C217.692 41.5257 217.606 41.4479 217.541 41.3532C217.372 41.1336 217.283 40.8634 217.288 40.5864C217.294 40.3111 217.391 40.0455 217.562 39.8304C217.697 39.6684 217.815 39.6036 217.82 39.6144C217.743 39.6906 217.672 39.7718 217.605 39.8574C217.451 40.0711 217.368 40.3281 217.368 40.5918C217.368 40.8556 217.451 41.1126 217.605 41.3262C217.697 41.4774 217.799 41.58 217.793 41.58Z" fill="white"/>
<path d="M218.816 46.2294C218.741 46.1621 218.682 46.0791 218.643 45.9864C218.537 45.766 218.481 45.5241 218.481 45.279C218.481 45.034 218.537 44.7921 218.643 44.5716C218.684 44.48 218.743 44.3974 218.816 44.3286C218.816 44.3286 218.756 44.4312 218.686 44.5932C218.596 44.8104 218.549 45.0435 218.549 45.279C218.549 45.5145 218.596 45.7476 218.686 45.9648C218.756 46.1322 218.826 46.224 218.816 46.2294Z" fill="white"/>
<path d="M227.859 26.4276C227.833 26.3632 227.813 26.2963 227.8 26.2278C227.775 26.1481 227.755 26.067 227.741 25.9848C227.741 25.8876 227.698 25.7796 227.682 25.6554C227.639 25.373 227.615 25.0879 227.612 24.8022C227.606 24.4411 227.628 24.0801 227.676 23.7222C227.73 23.3749 227.809 23.0319 227.913 22.6962C227.997 22.4208 228.102 22.1519 228.225 21.8916C228.273 21.7836 228.327 21.6864 228.37 21.6L228.494 21.384C228.529 21.322 228.569 21.2624 228.612 21.2058C228.59 21.2724 228.559 21.3359 228.521 21.3948L228.408 21.6162C228.365 21.7026 228.316 21.7998 228.268 21.9132C228.171 22.1346 228.069 22.41 227.972 22.7124C227.878 23.0481 227.802 23.3888 227.746 23.733C227.7 24.0785 227.677 24.4266 227.676 24.7752C227.678 25.0586 227.696 25.3417 227.73 25.623C227.73 25.7472 227.762 25.8552 227.778 25.947C227.795 26.0388 227.811 26.1252 227.827 26.19C227.847 26.2676 227.858 26.3474 227.859 26.4276Z" fill="white"/>
<path d="M225.691 147.577L226.299 148.273L229.592 157.599C229.275 158.323 228.813 158.973 228.236 159.511C227.658 160.049 226.977 160.462 226.235 160.726L216.518 164.16C216.518 164.16 214.942 164.657 214.286 162.616C214.286 162.616 213.801 161.617 214.587 161.077C214.587 161.077 212.483 161.368 211.897 159.943C211.311 158.517 212.306 157.977 212.306 157.977C212.306 157.977 210.477 158.517 209.793 156.897C209.11 155.277 209.966 154.818 209.966 154.818C209.966 154.818 207.851 155.439 207.372 153.533C207.299 153.284 207.276 153.024 207.305 152.766C207.333 152.509 207.412 152.259 207.537 152.033C207.662 151.806 207.831 151.607 208.034 151.446C208.236 151.286 208.469 151.167 208.717 151.097L215.625 148.64L221.683 146.48C222.383 146.234 223.141 146.206 223.857 146.402C224.573 146.598 225.213 147.008 225.691 147.577Z" fill="#EBEBEB"/>
<path d="M222.91 146.34C222.91 146.34 219.983 145.708 218.213 144.18C217.359 143.411 216.632 142.511 216.061 141.512L215.523 140.103C215.437 139.868 215.263 139.675 215.038 139.566C214.814 139.456 214.556 139.437 214.318 139.514C213.6 139.806 213.013 140.352 212.667 141.048C212.321 141.744 212.241 142.543 212.44 143.294C213.167 146.243 214.775 147.614 215.238 148.359L215.701 149.115L222.91 146.34Z" fill="#EBEBEB"/>
<path d="M228.959 159.657L235.744 157.242L230.856 143.404L224.072 145.818L228.959 159.657Z" fill="#EBEBEB"/>
<path d="M228.962 159.64C228.962 159.64 227.843 156.551 226.493 152.728C225.143 148.905 224.061 145.8 224.077 145.8C224.093 145.8 225.196 148.889 226.547 152.712C227.897 156.535 228.978 159.635 228.962 159.64Z" fill="#E0E0E0"/>
<path d="M235.747 157.226C235.747 157.226 234.628 154.138 233.277 150.314C231.927 146.491 230.845 143.392 230.862 143.386C230.878 143.381 231.981 146.475 233.331 150.298C234.681 154.121 235.763 157.221 235.747 157.226Z" fill="#E0E0E0"/>
<path d="M227.574 148.117C227.664 148.368 227.826 148.587 228.039 148.745C228.253 148.904 228.508 148.996 228.774 149.01C229.039 149.023 229.303 148.957 229.531 148.82C229.759 148.683 229.941 148.481 230.055 148.241C230.17 148 230.21 147.73 230.171 147.466C230.133 147.202 230.018 146.956 229.84 146.757C229.662 146.559 229.429 146.418 229.172 146.353C228.914 146.287 228.643 146.3 228.392 146.389C228.056 146.509 227.781 146.759 227.628 147.083C227.474 147.407 227.455 147.779 227.574 148.117Z" fill="white"/>
<path d="M214.054 149.251C214.054 149.251 214.786 148.959 215.7 148.635C216.615 148.311 217.358 148.057 217.363 148.095C217.368 148.133 216.631 148.387 215.717 148.711C214.802 149.035 214.06 149.261 214.054 149.251Z" fill="#E0E0E0"/>
<path d="M212.209 158.112C212.209 158.112 212.672 157.918 213.258 157.712C213.61 157.575 213.969 157.458 214.334 157.361C213.991 157.514 213.641 157.649 213.285 157.766C212.933 157.901 212.574 158.016 212.209 158.112Z" fill="#E0E0E0"/>
<path d="M209.82 154.877C209.82 154.877 210.482 154.613 211.311 154.337C212.139 154.062 212.812 153.797 212.817 153.83C212.822 153.862 212.155 154.094 211.327 154.37C210.498 154.645 209.847 154.894 209.82 154.877Z" fill="#E0E0E0"/>
<path d="M214.167 161.266C214.167 161.266 214.829 161.001 215.657 160.726C216.486 160.45 217.158 160.186 217.164 160.223C217.169 160.261 216.502 160.488 215.673 160.763C214.845 161.039 214.172 161.282 214.167 161.266Z" fill="#E0E0E0"/>
<path d="M225.815 145.627C225.815 145.627 226.751 145.26 227.924 144.844C229.097 144.428 230.044 144.104 230.076 144.121C230.108 144.137 229.14 144.482 227.967 144.898C226.794 145.314 225.82 145.638 225.815 145.627Z" fill="white"/>
<path d="M210.762 157.232L210.692 157.178C210.635 157.123 210.583 157.063 210.536 157C210.466 156.904 210.406 156.801 210.358 156.692C210.297 156.559 210.252 156.419 210.224 156.276C210.198 156.134 210.187 155.989 210.192 155.844C210.2 155.725 210.22 155.608 210.251 155.493C210.27 155.415 210.297 155.339 210.331 155.266C210.331 155.218 210.369 155.191 210.374 155.191C210.38 155.191 210.331 155.309 210.288 155.498C210.264 155.612 210.25 155.728 210.245 155.844C210.243 155.985 210.254 156.126 210.278 156.265C210.307 156.404 210.348 156.539 210.401 156.67C210.45 156.776 210.506 156.879 210.568 156.978C210.681 157.14 210.767 157.226 210.762 157.232Z" fill="white"/>
<path d="M208.518 154.084C208.442 154.072 208.37 154.042 208.308 153.997C208.149 153.897 208.018 153.757 207.926 153.592C207.833 153.428 207.785 153.241 207.786 153.052C207.78 152.975 207.793 152.897 207.824 152.825C207.824 152.825 207.824 152.912 207.824 153.052C207.838 153.232 207.889 153.407 207.975 153.565C208.063 153.723 208.184 153.859 208.33 153.965C208.443 154.046 208.523 154.078 208.518 154.084Z" fill="white"/>
<path d="M213.285 160.558C213.193 160.56 213.103 160.539 213.021 160.499C212.819 160.415 212.651 160.267 212.542 160.077C212.439 159.884 212.401 159.662 212.435 159.446C212.444 159.357 212.476 159.271 212.526 159.197C212.526 159.197 212.494 159.294 212.478 159.451C212.453 159.658 212.495 159.868 212.596 160.05C212.698 160.23 212.852 160.375 213.037 160.466C213.183 160.531 213.285 160.547 213.285 160.558Z" fill="white"/>
<path d="M215.824 163.35C215.747 163.332 215.674 163.299 215.609 163.253C215.447 163.145 215.313 163.001 215.216 162.832C215.12 162.667 215.063 162.482 215.05 162.292C215.031 162.213 215.031 162.132 215.05 162.054C215.05 162.054 215.05 162.146 215.05 162.286C215.072 162.476 215.133 162.66 215.227 162.826C215.322 162.986 215.447 163.127 215.593 163.242C215.672 163.273 215.75 163.309 215.824 163.35Z" fill="white"/>
<path d="M214.221 146.183L214.097 146.065C214.05 146.02 214.005 145.973 213.963 145.924C213.909 145.865 213.85 145.8 213.79 145.724C213.651 145.553 213.524 145.373 213.408 145.184C213.268 144.945 213.144 144.696 213.037 144.439C212.936 144.18 212.855 143.912 212.795 143.64C212.744 143.418 212.71 143.192 212.693 142.965C212.693 142.873 212.693 142.781 212.693 142.706C212.693 142.63 212.693 142.565 212.693 142.511C212.688 142.456 212.688 142.4 212.693 142.344C212.701 142.4 212.701 142.456 212.693 142.511C212.693 142.565 212.693 142.63 212.693 142.706C212.693 142.781 212.693 142.868 212.693 142.965C212.693 143.154 212.752 143.381 212.806 143.629C212.985 144.386 213.319 145.098 213.785 145.719C213.844 145.8 213.898 145.865 213.946 145.924L214.075 146.075C214.128 146.106 214.176 146.142 214.221 146.183Z" fill="white"/>
<path d="M141.693 213.969H115.498C111.543 213.969 108.337 217.187 108.337 221.157V247.449C108.337 251.419 111.543 254.637 115.498 254.637H141.693C145.648 254.637 148.854 251.419 148.854 247.449V221.157C148.854 217.187 145.648 213.969 141.693 213.969Z" fill="#E0E0E0"/>
<path d="M134.414 213.969H108.219C104.264 213.969 101.058 217.187 101.058 221.157V247.449C101.058 251.419 104.264 254.637 108.219 254.637H134.414C138.369 254.637 141.575 251.419 141.575 247.449V221.157C141.575 217.187 138.369 213.969 134.414 213.969Z" fill="#EBEBEB"/>
<path d="M107.331 234.889L111.409 230.791L119.28 237.816L132.429 224.57L136.216 228.663L118.699 245.716L107.331 234.889Z" fill="white"/>
<path d="M48.1349 222.696H31.0211C27.0663 222.696 23.8604 225.914 23.8604 229.883V247.061C23.8604 251.03 27.0663 254.248 31.0211 254.248H48.1349C52.0897 254.248 55.2957 251.03 55.2957 247.061V229.883C55.2957 225.914 52.0897 222.696 48.1349 222.696Z" fill="#E0E0E0"/>
<path d="M42.4914 222.696H25.3776C21.4228 222.696 18.2168 225.914 18.2168 229.883V247.061C18.2168 251.03 21.4228 254.248 25.3776 254.248H42.4914C46.4461 254.248 49.6521 251.03 49.6521 247.061V229.883C49.6521 225.914 46.4461 222.696 42.4914 222.696Z" fill="#EBEBEB"/>
<path d="M23.0801 238.928L26.2489 235.748L32.3552 241.196L42.5503 230.92L45.4932 234.101L31.9033 247.325L23.0801 238.928Z" fill="white"/>
<path d="M240.437 253.319C240.437 253.395 192.017 253.46 132.353 253.46C72.6891 253.46 24.2583 253.395 24.2583 253.319C24.2583 253.244 72.646 253.179 132.353 253.179C192.061 253.179 240.437 253.26 240.437 253.319Z" fill="#263238"/>
<path d="M218.772 237.848C218.772 237.848 216.529 222.377 216.717 213.37C216.906 204.363 216.717 194.238 216.717 194.238H217.75C217.75 194.238 217.051 212.112 217.815 222.89C218.579 233.669 220.58 237.848 220.58 237.848H218.783" fill="#263238"/>
<path d="M225.454 176.828C225.293 176.28 224.963 175.796 224.513 175.446C223.856 175.03 222.995 175.203 222.264 175.446C219.143 176.553 216.373 182.396 215.114 185.468L219.256 199.508C226.74 192.537 228.037 183.4 225.454 176.828Z" fill="#455A64"/>
<path d="M224.271 176.04C224.257 176.103 224.237 176.165 224.211 176.224L224.007 176.731C223.824 177.174 223.571 177.811 223.265 178.61C222.657 180.23 221.877 182.428 221.183 184.939C220.488 187.45 220.015 189.756 219.719 191.419C219.569 192.262 219.461 192.942 219.391 193.412C219.353 193.633 219.326 193.811 219.3 193.952C219.293 194.016 219.278 194.08 219.256 194.141C219.25 194.076 219.25 194.011 219.256 193.946C219.256 193.801 219.289 193.622 219.31 193.406C219.364 192.931 219.456 192.245 219.59 191.398C219.941 189.199 220.413 187.021 221.005 184.874C221.606 182.729 222.325 180.618 223.157 178.551C223.48 177.757 223.749 177.125 223.953 176.693C224.045 176.488 224.12 176.326 224.185 176.191C224.208 176.138 224.236 176.087 224.271 176.04Z" fill="#263238"/>
<path d="M217.416 202.867C215.53 201.79 213.951 200.243 212.832 198.376C211.713 196.51 211.09 194.385 211.025 192.208C210.88 189.097 211.832 186.046 212.908 183.125C212.974 182.86 213.13 182.627 213.349 182.466C213.527 182.398 213.72 182.378 213.908 182.406C214.097 182.435 214.275 182.511 214.425 182.628C217.244 184.248 218.955 187.321 219.87 190.453C220.519 192.528 220.735 194.716 220.505 196.879C220.149 199.155 219.072 201.255 217.433 202.867" fill="#455A64"/>
<path d="M217.417 202.867C217.41 202.804 217.41 202.741 217.417 202.678C217.417 202.538 217.417 202.36 217.417 202.138C217.417 201.674 217.417 200.999 217.357 200.162C217.248 197.989 217.007 195.825 216.637 193.682C216.206 191.171 215.684 188.924 215.297 187.299L214.84 185.371C214.791 185.161 214.748 184.988 214.721 184.831C214.696 184.783 214.677 184.732 214.662 184.68C214.69 184.737 214.711 184.797 214.727 184.858C214.764 184.993 214.813 185.166 214.877 185.371C215.006 185.825 215.179 186.451 215.415 187.283C215.83 188.903 216.373 191.149 216.809 193.671C217.179 195.813 217.404 197.978 217.481 200.151C217.481 200.983 217.481 201.663 217.481 202.127L217.454 202.667C217.45 202.735 217.437 202.802 217.417 202.867Z" fill="#263238"/>
<g opacity="0.3">
<path d="M217.416 202.867C215.53 201.79 213.951 200.243 212.832 198.376C211.713 196.51 211.09 194.385 211.025 192.208C210.88 189.097 211.832 186.046 212.908 183.125C212.974 182.86 213.13 182.627 213.349 182.466C213.527 182.398 213.72 182.378 213.908 182.406C214.097 182.435 214.275 182.511 214.425 182.628C217.244 184.248 218.955 187.321 219.87 190.453C220.519 192.528 220.735 194.716 220.505 196.879C220.149 199.155 219.072 201.255 217.433 202.867" fill="black"/>
</g>
<path d="M221.801 226.541C225.621 227.388 228.795 230.094 232.459 231.401C234.902 232.27 237.662 232.578 239.609 234.29C239.141 233.107 238.033 232.319 236.957 231.644C233.914 229.737 230.665 228.182 227.273 227.011C225.535 226.411 223.652 225.93 221.893 226.4" fill="#455A64"/>
<path d="M216.276 229.964C211.488 229.883 206.447 225.79 201.68 225.547C206.667 223.927 213.807 225.25 216.276 229.964Z" fill="#455A64"/>
<path d="M218.143 218.43C220.61 217.611 223.242 217.426 225.799 217.89C228.342 218.358 230.842 219.039 233.272 219.926C233.024 218.257 231.658 217.004 230.415 215.897C229.492 215.03 228.489 214.254 227.418 213.581C226.34 212.903 225.091 212.549 223.819 212.56C223.056 212.61 222.31 212.813 221.627 213.158C220.944 213.503 220.337 213.983 219.843 214.569C218.876 215.63 218.28 216.977 218.143 218.408" fill="#455A64"/>
<path d="M208.314 213.127C205.301 210.54 200.733 210.794 196.768 210.886C203.133 213.931 209.136 217.686 214.662 222.08C214.834 219.267 212.123 216.389 208.314 213.127Z" fill="#455A64"/>
<g opacity="0.3">
<path d="M208.314 213.127C205.301 210.54 200.733 210.794 196.768 210.886C203.133 213.931 209.136 217.686 214.662 222.08C214.834 219.267 212.123 216.389 208.314 213.127Z" fill="black"/>
</g>
<path d="M219.504 209.558C220.975 208.535 222.526 207.632 224.141 206.858C225.723 206.134 227.208 204.984 228.736 204.158C230.726 203.078 232.448 201.577 234.272 200.238C236.096 198.898 238.097 197.689 240.33 197.332C238.492 197.005 236.603 197.116 234.815 197.656C233.035 198.194 231.299 198.871 229.624 199.681C227.272 200.761 224.884 201.841 222.958 203.559C221.032 205.276 219.299 206.988 219.504 209.569" fill="#455A64"/>
<path d="M232.373 229.964L232.222 229.9L231.802 229.678C231.442 229.489 230.925 229.203 230.274 228.874C229.952 228.701 229.591 228.523 229.198 228.334C228.806 228.145 228.397 227.956 227.956 227.761C227.004 227.335 226.017 226.99 225.007 226.73C224.005 226.453 222.95 226.427 221.935 226.654C221.492 226.751 221.057 226.881 220.634 227.043C219.736 227.405 218.926 227.958 218.261 228.663C217.987 228.96 217.852 229.144 217.836 229.133C217.861 229.084 217.889 229.037 217.922 228.992C218.012 228.863 218.109 228.739 218.213 228.62C218.592 228.176 219.032 227.789 219.52 227.47C219.859 227.244 220.22 227.053 220.596 226.897C221.024 226.724 221.464 226.585 221.914 226.481C222.952 226.239 224.034 226.262 225.061 226.546C226.082 226.808 227.078 227.161 228.036 227.599C228.478 227.799 228.897 227.993 229.279 228.193C229.661 228.393 230.022 228.566 230.355 228.733C231.001 229.079 231.512 229.376 231.862 229.592L232.265 229.835C232.33 229.927 232.378 229.959 232.373 229.964Z" fill="#263238"/>
<path d="M212.698 227.583C212.803 227.595 212.905 227.624 213 227.669C213.267 227.766 213.527 227.88 213.78 228.01C215.464 228.87 216.857 230.211 217.783 231.865C217.921 232.114 218.044 232.372 218.148 232.637C218.196 232.731 218.23 232.831 218.251 232.934C218.224 232.934 218.046 232.54 217.675 231.93C217.193 231.139 216.613 230.414 215.948 229.77C215.278 229.136 214.53 228.591 213.721 228.15C213.102 227.772 212.688 227.61 212.698 227.583Z" fill="#263238"/>
<path d="M202.105 212.884L202.309 212.944L202.88 213.149L203.789 213.484C204.144 213.619 204.526 213.813 204.956 214.024C207.203 215.069 209.3 216.411 211.192 218.014C212.232 218.895 213.212 219.846 214.124 220.86C214.856 221.698 215.544 222.574 216.184 223.484C216.722 224.262 217.147 224.91 217.433 225.353L217.761 225.893C217.799 225.951 217.834 226.013 217.863 226.076C217.813 226.027 217.768 225.973 217.729 225.914C217.648 225.801 217.524 225.634 217.373 225.412C217.072 224.975 216.647 224.332 216.088 223.576C215.528 222.82 214.829 221.924 214.006 220.984C213.102 219.973 212.133 219.023 211.106 218.138C209.222 216.547 207.147 215.199 204.929 214.126C204.499 213.932 204.122 213.727 203.773 213.586L202.88 213.224L202.288 212.976C202.224 212.953 202.162 212.922 202.105 212.884Z" fill="#263238"/>
<path d="M225.325 215.73C225.196 215.728 225.068 215.712 224.943 215.681L224.507 215.6C224.335 215.568 224.136 215.562 223.915 215.541C222.78 215.444 221.641 215.67 220.628 216.194C220.072 216.485 219.565 216.862 219.127 217.312C218.761 217.671 218.438 218.072 218.164 218.505C217.916 218.909 217.696 219.329 217.508 219.764C217.522 219.635 217.554 219.51 217.605 219.391C217.726 219.06 217.879 218.742 218.062 218.441C218.328 217.99 218.648 217.572 219.014 217.199C219.459 216.732 219.977 216.341 220.548 216.043C221.586 215.499 222.763 215.283 223.926 215.422C224.147 215.454 224.351 215.46 224.523 215.503L224.959 215.616C225.085 215.64 225.208 215.678 225.325 215.73Z" fill="#263238"/>
<path d="M230.14 200.745C230.084 200.789 230.023 200.825 229.957 200.853L229.419 201.144C228.957 201.398 228.284 201.771 227.472 202.251C226.659 202.732 225.713 203.331 224.701 204.06C223.595 204.836 222.558 205.707 221.602 206.663C221.11 207.154 220.685 207.708 220.338 208.31C220.02 208.915 219.725 209.498 219.445 210.06C218.951 211.05 218.507 212.065 218.116 213.1C217.857 213.806 217.642 214.528 217.47 215.26C217.347 215.773 217.304 216.065 217.287 216.059C217.271 216.054 217.287 215.989 217.287 215.849C217.287 215.708 217.336 215.503 217.39 215.244C217.536 214.51 217.736 213.788 217.987 213.084C218.361 212.037 218.795 211.013 219.289 210.017C219.563 209.45 219.859 208.861 220.171 208.256C220.525 207.638 220.959 207.069 221.462 206.566C222.426 205.603 223.474 204.728 224.593 203.952C225.616 203.229 226.579 202.64 227.396 202.165C228.214 201.69 228.897 201.344 229.371 201.085L229.909 200.826C229.983 200.79 230.06 200.762 230.14 200.745Z" fill="#263238"/>
<path d="M216.712 215.298C216.668 215.166 216.636 215.03 216.615 214.893C216.561 214.596 216.491 214.223 216.405 213.78C216.179 212.56 215.877 211.356 215.501 210.173C215.114 208.995 214.657 207.841 214.135 206.717L213.667 205.686C213.603 205.564 213.552 205.435 213.516 205.302C213.6 205.412 213.671 205.532 213.726 205.659C213.855 205.891 214.033 206.237 214.264 206.663C215.392 208.894 216.163 211.288 216.55 213.759C216.626 214.234 216.68 214.617 216.706 214.882C216.722 215.02 216.723 215.159 216.712 215.298Z" fill="#263238"/>
<path d="M216.367 204.363C216.215 202.543 215.683 200.775 214.807 199.174C213.624 196.974 211.976 195.06 209.977 193.567C207.979 192.075 205.68 191.039 203.24 190.534L213.952 206.556L215.334 209.417C216.209 207.887 216.571 206.115 216.367 204.363Z" fill="#455A64"/>
<path d="M231.727 235.937H206.823V240.365H231.727V235.937Z" fill="#DC3001"/>
<path d="M208.685 239.49L210.804 253.233H227.337L229.866 239.49H208.685Z" fill="#DC3001"/>
<path d="M231.716 240.37C231.716 240.419 226.094 240.462 219.17 240.462C212.246 240.462 206.624 240.419 206.624 240.37C206.624 240.321 212.241 240.284 219.17 240.284C226.1 240.284 231.716 240.3 231.716 240.37Z" fill="#263238"/>
<path d="M77.0094 216.767H54.9191C50.9643 216.767 47.7583 219.985 47.7583 223.954V246.127C47.7583 250.096 50.9643 253.314 54.9191 253.314H77.0094C80.9642 253.314 84.1701 250.096 84.1701 246.127V223.954C84.1701 219.985 80.9642 216.767 77.0094 216.767Z" fill="#DC3001"/>
<g opacity="0.3">
<path d="M77.0094 216.767H54.9191C50.9643 216.767 47.7583 219.985 47.7583 223.954V246.127C47.7583 250.096 50.9643 253.314 54.9191 253.314H77.0094C80.9642 253.314 84.1701 250.096 84.1701 246.127V223.954C84.1701 219.985 80.9642 216.767 77.0094 216.767Z" fill="black"/>
</g>
<path d="M70.4727 216.767H48.3825C44.4277 216.767 41.2217 219.985 41.2217 223.954V246.127C41.2217 250.096 44.4277 253.314 48.3825 253.314H70.4727C74.4275 253.314 77.6335 250.096 77.6335 246.127V223.954C77.6335 219.985 74.4275 216.767 70.4727 216.767Z" fill="#DC3001"/>
<path d="M46.8545 235.57L50.5237 231.887L57.5984 238.199L69.4075 226.298L72.813 229.975L57.0711 245.3L46.8545 235.57Z" fill="white"/>
<path d="M96.1299 229.938H81.6953C79.25 229.938 77.2676 231.927 77.2676 234.382V248.87C77.2676 251.324 79.25 253.314 81.6953 253.314H96.1299C98.5752 253.314 100.558 251.324 100.558 248.87V234.382C100.558 231.927 98.5752 229.938 96.1299 229.938Z" fill="#263238"/>
<path d="M91.9497 229.938H77.5151C75.0698 229.938 73.0874 231.927 73.0874 234.382V248.87C73.0874 251.324 75.0698 253.314 77.5151 253.314H91.9497C94.3951 253.314 96.3774 251.324 96.3774 248.87V234.382C96.3774 231.927 94.3951 229.938 91.9497 229.938Z" fill="#455A64"/>
<path d="M76.6919 241.963L79.0376 239.609L83.5622 243.648L91.1211 236.034L93.3 238.388L83.2286 248.189L76.6919 241.963Z" fill="white"/>
<path d="M153.701 18.1764H41.3023C39.163 18.1764 37.4287 19.9171 37.4287 22.0644V179.41C37.4287 181.557 39.163 183.298 41.3023 183.298H153.701C155.841 183.298 157.575 181.557 157.575 179.41V22.0644C157.575 19.9171 155.841 18.1764 153.701 18.1764Z" fill="white"/>
<path d="M153.701 183.298C154.186 183.289 154.666 183.192 155.116 183.011C155.672 182.788 156.166 182.434 156.558 181.98C157.107 181.362 157.446 180.585 157.527 179.761C157.553 175.981 157.527 170.451 157.527 163.307C157.527 149.018 157.5 128.342 157.484 102.794C157.484 90.018 157.484 76.0266 157.484 61.0038C157.484 53.4942 157.484 45.7326 157.484 37.719V22.464C157.557 21.4404 157.224 20.4291 156.558 19.6506C156.234 19.2616 155.833 18.9432 155.382 18.7148C154.93 18.4864 154.437 18.3528 153.933 18.3222C152.905 18.3222 151.845 18.3222 150.796 18.3222H41.3024C40.7164 18.3241 40.1389 18.4632 39.6159 18.7285C39.0928 18.9938 38.6387 19.378 38.2896 19.8504C37.935 20.3266 37.7023 20.8829 37.6117 21.4704C37.5531 22.0661 37.5351 22.6651 37.5579 23.2632V44.82C37.5579 54.3132 37.5579 63.6606 37.5579 72.8622C37.5579 91.2222 37.5579 108.977 37.5579 125.869C37.5579 142.76 37.5579 158.809 37.5579 173.842V179.426C37.5665 180.326 37.8924 181.195 38.4779 181.877C39.0572 182.553 39.8591 182.998 40.7375 183.13C41.1786 183.181 41.6227 183.199 42.0664 183.184H51.3307H71.3067L131.595 183.227L147.988 183.254H152.249H153.701H152.249H147.988H131.595L71.3067 183.303H42.0502C41.596 183.319 41.1411 183.303 40.6891 183.254C39.7532 183.108 38.8998 182.632 38.2817 181.912C37.6636 181.192 37.3212 180.274 37.3158 179.323C37.3158 177.476 37.3158 175.615 37.3158 173.74C37.3158 158.711 37.3158 142.663 37.3158 125.766C37.3158 108.869 37.3158 91.1412 37.3158 72.7596V23.22C37.293 22.6074 37.3127 21.9939 37.375 21.384C37.4747 20.7593 37.7239 20.1682 38.1013 19.6614C38.476 19.1572 38.9631 18.748 39.5237 18.4667C40.0842 18.1854 40.7026 18.0397 41.3293 18.0414H150.823C151.899 18.0414 152.916 18.0414 153.976 18.0414C154.514 18.0766 155.04 18.2205 155.522 18.4645C156.003 18.7086 156.431 19.0477 156.779 19.4616C157.467 20.2944 157.805 21.3637 157.72 22.4424V25.542C157.72 29.6568 157.72 33.714 157.72 37.7136C157.72 45.7164 157.72 53.478 157.72 60.9984C157.72 76.0212 157.72 90.0126 157.72 102.789C157.72 128.336 157.683 149.013 157.672 163.301C157.672 170.451 157.672 175.991 157.629 179.761C157.546 180.597 157.197 181.385 156.633 182.007C156.233 182.456 155.731 182.802 155.17 183.017C154.826 183.154 154.463 183.237 154.094 183.265L153.701 183.298Z" fill="#263238"/>
<path d="M135.603 67.2893H82.3411C80.4691 67.2893 78.9517 68.8124 78.9517 70.6913V71.0207C78.9517 72.8996 80.4691 74.4227 82.3411 74.4227H135.603C137.475 74.4227 138.992 72.8996 138.992 71.0207V70.6913C138.992 68.8124 137.475 67.2893 135.603 67.2893Z" fill="#E0E0E0"/>
<path d="M69.7087 63.0342H58.7766C57.2493 63.0342 56.0112 64.2769 56.0112 65.8098V76.7826C56.0112 78.3155 57.2493 79.5582 58.7766 79.5582H69.7087C71.236 79.5582 72.474 78.3155 72.474 76.7826V65.8098C72.474 64.2769 71.236 63.0342 69.7087 63.0342Z" fill="#DC3001"/>
<path d="M58.5562 71.5339L60.2186 69.8707L63.4143 72.7273L68.7566 67.3435L70.2953 69.0067L63.1776 75.9349L58.5562 71.5339Z" fill="white"/>
<path d="M135.603 92.9231H82.3411C80.4691 92.9231 78.9517 94.4462 78.9517 96.3251V96.6545C78.9517 98.5334 80.4691 100.056 82.3411 100.056H135.603C137.475 100.056 138.992 98.5334 138.992 96.6545V96.3251C138.992 94.4462 137.475 92.9231 135.603 92.9231Z" fill="#E0E0E0"/>
<path d="M69.7087 88.6733H58.7766C57.2493 88.6733 56.0112 89.916 56.0112 91.4489V102.422C56.0112 103.955 57.2493 105.197 58.7766 105.197H69.7087C71.236 105.197 72.474 103.955 72.474 102.422V91.4489C72.474 89.916 71.236 88.6733 69.7087 88.6733Z" fill="#DC3001"/>
<path d="M58.5562 97.1731L60.2186 95.5099L63.4143 98.3611L68.7566 92.9827L70.2953 94.6459L63.1776 101.574L58.5562 97.1731Z" fill="white"/>
<path d="M135.603 118.562H82.3411C80.4691 118.562 78.9517 120.086 78.9517 121.965V122.294C78.9517 124.173 80.4691 125.696 82.3411 125.696H135.603C137.475 125.696 138.992 124.173 138.992 122.294V121.965C138.992 120.086 137.475 118.562 135.603 118.562Z" fill="#E0E0E0"/>
<path d="M69.7087 114.307H58.7766C57.2493 114.307 56.0112 115.55 56.0112 117.083V128.056C56.0112 129.588 57.2493 130.831 58.7766 130.831H69.7087C71.236 130.831 72.474 129.588 72.474 128.056V117.083C72.474 115.55 71.236 114.307 69.7087 114.307Z" fill="#DC3001"/>
<path d="M58.5562 122.807L60.2186 121.144L63.4143 124L68.7566 118.616L70.2953 120.28L63.1776 127.208L58.5562 122.807Z" fill="white"/>
<path d="M135.603 144.196H82.3411C80.4691 144.196 78.9517 145.719 78.9517 147.598V147.928C78.9517 149.807 80.4691 151.33 82.3411 151.33H135.603C137.475 151.33 138.992 149.807 138.992 147.928V147.598C138.992 145.719 137.475 144.196 135.603 144.196Z" fill="#E0E0E0"/>
<path d="M69.7087 139.946H58.7766C57.2493 139.946 56.0112 141.189 56.0112 142.722V153.695C56.0112 155.228 57.2493 156.47 58.7766 156.47H69.7087C71.236 156.47 72.474 155.228 72.474 153.695V142.722C72.474 141.189 71.236 139.946 69.7087 139.946Z" fill="#DC3001"/>
<path d="M58.5562 148.446L60.2186 146.783L63.4143 149.634L68.7566 144.25L70.2953 145.919L63.1776 152.847L58.5562 148.446Z" fill="white"/>
<path d="M71.0754 45.5544H68.4822L67.998 46.7532H66.228L68.918 40.5918H70.6289L73.3458 46.7532H71.5542L71.0754 45.5544ZM70.5697 44.28L69.7788 42.3036L68.988 44.28H70.5697Z" fill="#263238"/>
<path d="M73.8569 40.5918H76.7568C78.7904 40.5918 80.1838 41.7798 80.1838 43.6752C80.1838 45.5706 78.7904 46.7532 76.7568 46.7532H73.8569V40.5918ZM76.6868 45.36C77.1334 45.36 77.5617 45.1819 77.8775 44.865C78.1933 44.548 78.3708 44.1181 78.3708 43.6698C78.3708 43.2215 78.1933 42.7916 77.8775 42.4746C77.5617 42.1577 77.1334 41.9796 76.6868 41.9796H75.6108V45.36H76.6868Z" fill="#263238"/>
<path d="M87.1131 40.5918L84.4661 46.7532H82.7553L80.1621 40.5918H82.0343L83.7022 44.604L85.4022 40.5918H87.1131Z" fill="#263238"/>
<path d="M91.3743 45.5544H88.7703L88.2915 46.7532H86.5161L89.2061 40.5918H90.9223L93.6392 46.7532H91.8316L91.3743 45.5544ZM90.8363 44.2746L90.0454 42.2982L89.3083 44.28L90.8363 44.2746Z" fill="#263238"/>
<path d="M99.9877 40.5918V46.7532H98.562L95.872 43.47V46.7532H94.1504V40.5918H95.5815L98.2715 43.875V40.5918H99.9877Z" fill="#263238"/>
<path d="M102.522 41.9742H100.639V40.5918H106.137V41.9742H104.259V46.7532H102.522V41.9742Z" fill="#263238"/>
<path d="M110.586 45.5544H107.993L107.509 46.7532H105.739L108.429 40.5918H110.14L112.857 46.7532H111.049L110.586 45.5544ZM110.08 44.28L109.29 42.3036L108.504 44.28H110.08Z" fill="#263238"/>
<path d="M117.392 43.5402H118.925V46.0944C118.163 46.6076 117.265 46.8803 116.348 46.8774C114.395 46.8774 112.964 45.549 112.964 43.6752C112.964 41.8014 114.395 40.5 116.38 40.5C116.884 40.472 117.387 40.5584 117.853 40.7529C118.319 40.9474 118.735 41.2449 119.07 41.6232L117.967 42.6276C117.785 42.41 117.556 42.2357 117.299 42.1171C117.041 41.9986 116.76 41.9387 116.477 41.9418C116.012 41.9418 115.566 42.1273 115.237 42.4574C114.908 42.7876 114.723 43.2353 114.723 43.7022C114.723 44.1691 114.908 44.6169 115.237 44.947C115.566 45.2772 116.012 45.4626 116.477 45.4626C116.802 45.4643 117.123 45.3943 117.419 45.2574L117.392 43.5402Z" fill="#263238"/>
<path d="M124.956 45.4086V46.7532H120.028V40.5918H124.87V41.9418H121.749V42.9786H124.472V44.28H121.749V45.4086H124.956Z" fill="#263238"/>
<path d="M125.489 46.1969L126.059 44.9171C126.667 45.3016 127.369 45.5109 128.087 45.5219C128.803 45.5219 129.088 45.3167 129.088 45.0197C129.088 44.0423 125.596 44.7551 125.596 42.4655C125.596 41.3855 126.489 40.4729 128.313 40.4729C129.089 40.4617 129.855 40.6474 130.541 41.0129L130.003 42.3035C129.481 42.0086 128.896 41.8455 128.297 41.8283C127.571 41.8283 127.307 42.0767 127.307 42.3683C127.307 43.3133 130.788 42.6059 130.788 44.8793C130.788 45.9593 129.895 46.8665 128.071 46.8665C127.165 46.8904 126.27 46.6584 125.489 46.1969Z" fill="#263238"/>
<path d="M178.729 234.247L178.266 246.434C178.266 246.434 190.452 251.003 190.592 253.26L167.006 253.211L166.952 234.187L178.729 234.247Z" fill="#263238"/>
<path d="M170.977 245.392C170.754 245.461 170.564 245.608 170.441 245.807C170.319 246.005 170.272 246.242 170.31 246.472C170.368 246.702 170.513 246.9 170.713 247.026C170.913 247.151 171.154 247.195 171.386 247.147C171.625 247.074 171.83 246.914 171.959 246.699C172.088 246.483 172.133 246.228 172.085 245.981C171.997 245.748 171.824 245.558 171.6 245.45C171.377 245.343 171.121 245.326 170.885 245.403" fill="#E0E0E0"/>
<path d="M167.006 253.211L167.076 251.294L189.672 252.061C189.672 252.061 190.748 252.52 190.603 253.26L167.006 253.211Z" fill="#455A64"/>
<path d="M178.648 246.316C178.648 246.429 178.067 246.483 177.502 246.856C176.937 247.228 176.631 247.709 176.523 247.66C176.416 247.612 176.593 246.947 177.287 246.515C177.981 246.083 178.675 246.208 178.648 246.316Z" fill="white"/>
<path d="M181.118 247.347C181.145 247.46 180.65 247.655 180.257 248.141C179.864 248.627 179.751 249.151 179.633 249.145C179.514 249.14 179.45 248.486 179.945 247.887C180.44 247.288 181.118 247.239 181.118 247.347Z" fill="white"/>
<path d="M182.517 250.322C182.414 250.322 182.253 249.782 182.554 249.134C182.856 248.486 183.388 248.254 183.437 248.351C183.485 248.449 183.152 248.783 182.899 249.307C182.646 249.831 182.635 250.312 182.517 250.322Z" fill="white"/>
<path d="M178.449 243.54C178.401 243.648 177.868 243.486 177.217 243.54C176.566 243.594 176.061 243.788 176.001 243.691C175.942 243.594 176.432 243.151 177.196 243.151C177.96 243.151 178.503 243.437 178.449 243.54Z" fill="white"/>
<path d="M149.86 232.583L148.585 247.32L150.915 259.2C150.955 259.404 150.952 259.613 150.908 259.816C150.864 260.019 150.779 260.21 150.658 260.378C150.536 260.547 150.382 260.688 150.204 260.794C150.026 260.899 149.829 260.967 149.623 260.993C149.385 261.024 149.143 260.997 148.917 260.914C148.692 260.832 148.489 260.696 148.327 260.518C146.229 258.217 138.535 249.718 138.691 248.638C138.869 247.396 139.014 233.037 139.014 233.037L149.86 232.583Z" fill="#263238"/>
<path d="M149.623 261.004L138.756 247.666L138.713 248.292C138.68 248.83 138.836 249.364 139.154 249.799C140.02 250.954 142.468 254.119 148.3 260.528C148.467 260.712 148.677 260.851 148.911 260.934C149.144 261.017 149.395 261.041 149.64 261.004H149.623Z" fill="#455A64"/>
<g opacity="0.6">
<path d="M142.07 243.108C142.241 243.253 142.354 243.457 142.385 243.68C142.417 243.903 142.366 244.13 142.242 244.318C142.103 244.495 141.903 244.613 141.681 244.647C141.459 244.681 141.232 244.629 141.047 244.501C140.866 244.346 140.748 244.129 140.717 243.892C140.685 243.655 140.741 243.414 140.875 243.216C141.038 243.046 141.26 242.947 141.495 242.937C141.73 242.928 141.959 243.011 142.134 243.167" fill="white"/>
</g>
<path d="M146.68 254.34C147.063 253.898 147.524 253.531 148.041 253.26C148.592 253.077 149.173 253.003 149.752 253.044C149.752 253.006 149.586 252.882 149.247 252.812C148.798 252.733 148.337 252.783 147.917 252.958C147.496 253.134 147.135 253.425 146.874 253.8C146.68 254.124 146.648 254.34 146.68 254.34Z" fill="white"/>
<path d="M147.6 256.392C148.037 256.188 148.484 256.007 148.94 255.852C149.42 255.795 149.903 255.765 150.387 255.76C150.17 255.605 149.919 255.504 149.655 255.466C149.391 255.427 149.122 255.452 148.87 255.539C147.988 255.728 147.525 256.349 147.6 256.392Z" fill="white"/>
<path d="M144.899 251.699C144.959 251.775 145.728 251.078 146.906 250.711C148.084 250.344 149.107 250.441 149.117 250.344C149.128 250.247 148.068 249.987 146.809 250.403C146.039 250.593 145.362 251.052 144.899 251.699Z" fill="white"/>
<path d="M144.916 247.196C144.948 247.287 145.777 247.001 146.837 247.028C147.897 247.055 148.714 247.368 148.752 247.277C148.18 246.917 147.521 246.719 146.845 246.705C146.17 246.69 145.503 246.86 144.916 247.196Z" fill="white"/>
<path d="M145.179 242.87C145.831 242.702 146.503 242.626 147.175 242.644C148.289 242.741 149.037 243.34 149.091 243.259C149.144 243.178 148.967 243.032 148.644 242.816C148.211 242.54 147.719 242.369 147.208 242.32C146.698 242.266 146.183 242.336 145.707 242.525C145.341 242.676 145.158 242.838 145.179 242.87Z" fill="white"/>
<path d="M147.202 241.817C147.262 241.644 147.282 241.46 147.262 241.277C147.244 240.764 147.125 240.259 146.912 239.792C146.786 239.435 146.546 239.129 146.229 238.923C146.118 238.867 145.993 238.845 145.87 238.862C145.747 238.878 145.632 238.931 145.54 239.015C145.372 239.192 145.275 239.424 145.266 239.668C145.272 240.164 145.449 240.642 145.765 241.022C146.082 241.403 146.519 241.663 147.003 241.758C147.485 241.839 147.98 241.774 148.426 241.572C148.871 241.37 149.247 241.04 149.505 240.624C149.57 240.518 149.611 240.4 149.626 240.277C149.641 240.154 149.629 240.029 149.591 239.911C149.542 239.796 149.457 239.7 149.35 239.636C149.243 239.572 149.118 239.543 148.994 239.555C148.627 239.611 148.282 239.764 147.993 239.998C147.573 240.29 147.209 240.656 146.917 241.078C146.798 241.221 146.71 241.389 146.659 241.569C147.078 241.04 147.571 240.574 148.122 240.187C148.38 239.994 148.681 239.869 148.999 239.825C149.067 239.816 149.136 239.829 149.195 239.864C149.255 239.898 149.301 239.951 149.328 240.014C149.346 240.093 149.348 240.174 149.335 240.254C149.321 240.334 149.291 240.41 149.247 240.478C149.013 240.832 148.683 241.11 148.295 241.281C147.908 241.451 147.48 241.506 147.063 241.439C146.652 241.36 146.279 241.144 146.007 240.825C145.734 240.506 145.577 240.104 145.562 239.684C145.563 239.516 145.624 239.353 145.734 239.225C145.782 239.175 145.846 239.143 145.915 239.132C145.984 239.121 146.054 239.133 146.116 239.166C146.382 239.341 146.588 239.593 146.707 239.89C146.985 240.498 147.152 241.15 147.202 241.817Z" fill="white"/>
<path d="M190.086 131.474C191.225 136.524 191.609 141.716 191.227 146.88C190.99 150.163 179.961 240.786 179.961 240.786H165.091L169.271 155.612L168.055 155.876C168.055 155.876 159.937 192.202 159.275 198.083C158.683 203.369 151.834 241.78 151.834 241.78L138.266 241.92L142.57 191.16L147.622 142.414L149.564 128.201L190.086 131.474Z" fill="#263238"/>
<path d="M168.733 149.834C168.733 149.834 168.76 149.877 168.83 149.936C168.937 150.016 169.06 150.073 169.19 150.104C169.435 150.156 169.689 150.154 169.933 150.096C170.176 150.038 170.404 149.926 170.6 149.769C170.881 149.529 171.11 149.234 171.276 148.903C171.441 148.572 171.539 148.211 171.563 147.841C171.67 147.031 171.687 146.162 171.746 145.238C171.848 143.392 171.923 141.723 171.961 140.513C172.007 139.861 172.007 139.206 171.961 138.553C171.84 139.197 171.77 139.848 171.751 140.503C171.66 141.712 171.552 143.375 171.45 145.222C171.391 146.14 171.38 147.031 171.294 147.803C171.262 148.489 170.967 149.135 170.471 149.607C170.299 149.756 170.098 149.867 169.882 149.934C169.665 150.001 169.437 150.022 169.212 149.996C169.047 149.957 168.887 149.903 168.733 149.834Z" fill="#455A64"/>
<path d="M146.874 141.07C147.002 141.144 147.142 141.195 147.288 141.221C147.678 141.323 148.076 141.389 148.477 141.421C149.812 141.535 151.154 141.334 152.397 140.833C153.64 140.332 154.748 139.546 155.633 138.537C155.899 138.233 156.14 137.908 156.354 137.565C156.443 137.442 156.512 137.305 156.558 137.16C156.515 137.16 156.181 137.668 155.482 138.391C154.583 139.333 153.494 140.071 152.288 140.557C151.082 141.043 149.786 141.266 148.488 141.21C147.477 141.178 146.874 141.021 146.874 141.07Z" fill="#455A64"/>
<path d="M184.163 137.279C184.159 137.786 184.235 138.291 184.389 138.774C185.016 141.166 186.417 143.282 188.37 144.79C188.757 145.12 189.193 145.387 189.661 145.584C189.726 145.503 187.676 144.331 186.126 141.955C184.577 139.579 184.26 137.246 184.163 137.279Z" fill="#455A64"/>
<path d="M229.586 111.64L232.997 112.72L239.195 109.28L242.714 119.113L234.278 121.127L227.886 120.42L229.586 111.64Z" fill="#AE7461"/>
<path d="M189.914 72.1655C189.914 72.1655 193.4 74.2661 196.289 81.4049C201.96 95.4449 205.527 103.005 205.527 103.005L231.545 111.24L229.462 121.716C229.462 121.716 203.068 118.022 199.534 116.694C194.692 114.874 191.108 105.3 191.108 105.3L189.914 72.1655Z" fill="#E0E0E0"/>
<path d="M182.737 40.7106C183.405 40.7353 184.059 40.5148 184.577 40.0904C185.095 39.6661 185.441 39.0668 185.551 38.4049C185.66 37.743 185.525 37.0637 185.172 36.4941C184.819 35.9246 184.27 35.5038 183.63 35.3106C184.028 34.8586 184.274 34.2923 184.332 33.6922C184.391 33.092 184.259 32.4886 183.957 31.9677C183.654 31.4468 183.196 31.035 182.646 30.7907C182.097 30.5465 181.485 30.4822 180.897 30.6072C180.843 30.0161 180.637 29.4492 180.299 28.9619C179.961 28.4747 179.503 28.0836 178.97 27.8268C178.437 27.5701 177.846 27.4565 177.256 27.4971C176.666 27.5376 176.097 27.731 175.603 28.0584C174.911 27.5499 174.069 27.2882 173.211 27.3146C172.353 27.341 171.529 27.6541 170.869 28.2042C170.29 28.1319 169.703 28.2473 169.195 28.5336C168.686 28.82 168.282 29.2621 168.041 29.7955C167.801 30.3288 167.737 30.9254 167.858 31.498C167.98 32.0706 168.281 32.5891 168.717 32.9778" fill="#263238"/>
<path d="M170.417 30.9365H171.02C173.945 30.7882 176.819 31.7518 179.069 33.6353C181.318 35.5188 182.778 38.1838 183.157 41.0993C183.889 46.7261 184.626 52.9469 184.739 55.9763C184.975 62.2511 178.772 63.5363 178.772 63.5363L179.676 71.0423L164.488 71.3285L161.798 44.0693C160.911 37.5623 163.934 31.6439 170.417 30.9365Z" fill="#AE7461"/>
<path d="M178.826 63.5039C175.932 63.6437 173.06 62.9505 170.546 61.5059C170.546 61.5059 172.698 65.9231 178.901 65.0483L178.826 63.5039Z" fill="#6F4439"/>
<path d="M180.908 46.8612C180.923 47.0941 180.846 47.3236 180.694 47.5004C180.542 47.6771 180.327 47.7869 180.096 47.8062C179.87 47.8304 179.644 47.7639 179.468 47.6211C179.291 47.4783 179.178 47.2711 179.154 47.0448C179.142 46.8117 179.22 46.583 179.373 46.4067C179.525 46.2305 179.74 46.1205 179.972 46.0998C180.083 46.0879 180.196 46.0981 180.303 46.1299C180.41 46.1617 180.51 46.2145 180.597 46.2853C180.684 46.356 180.757 46.4433 180.81 46.5422C180.863 46.641 180.897 46.7494 180.908 46.8612Z" fill="#263238"/>
<path d="M181.968 44.2096C181.86 44.3338 181.161 43.864 180.198 43.9126C179.235 43.9612 178.584 44.4796 178.449 44.3716C178.315 44.2636 178.498 44.1016 178.794 43.864C179.195 43.5547 179.681 43.3774 180.187 43.3564C180.687 43.3296 181.182 43.4619 181.602 43.7344C181.909 43.9504 182.016 44.1556 181.968 44.2096Z" fill="#263238"/>
<path d="M172.16 47.1042C172.169 47.2217 172.154 47.3398 172.117 47.4516C172.081 47.5634 172.022 47.6668 171.945 47.7557C171.868 47.8446 171.774 47.9172 171.669 47.9695C171.563 48.0217 171.449 48.0525 171.332 48.06C171.219 48.075 171.104 48.0671 170.994 48.0367C170.884 48.0063 170.781 47.954 170.692 47.883C170.603 47.812 170.529 47.7236 170.474 47.6232C170.419 47.5228 170.385 47.4124 170.374 47.2986C170.361 47.066 170.438 46.8373 170.589 46.6609C170.741 46.4845 170.955 46.3743 171.186 46.3536C171.3 46.3362 171.416 46.3419 171.527 46.3706C171.638 46.3992 171.742 46.4501 171.833 46.5203C171.924 46.5904 172 46.6783 172.056 46.7786C172.112 46.879 172.148 46.9897 172.16 47.1042Z" fill="#263238"/>
<path d="M172.537 44.8631C172.429 44.9819 171.73 44.5121 170.772 44.5661C169.814 44.6201 169.131 45.1061 169.018 45.0197C168.905 44.9333 169.067 44.7551 169.362 44.5121C169.764 44.2027 170.25 44.0254 170.756 44.0045C171.256 43.9781 171.752 44.1124 172.171 44.3879C172.477 44.5985 172.585 44.8199 172.537 44.8631Z" fill="#263238"/>
<path d="M176.372 51.8399C176.872 51.6557 177.393 51.5341 177.922 51.4781C178.164 51.4403 178.395 51.3809 178.428 51.2135C178.434 50.9578 178.365 50.706 178.229 50.4899C177.965 49.9067 177.691 49.2911 177.411 48.6539C176.27 46.0349 175.431 43.8749 175.539 43.8317C175.646 43.7885 176.652 45.8729 177.793 48.4919C178.067 49.1345 178.331 49.7501 178.578 50.3387C178.748 50.6281 178.811 50.9685 178.756 51.2999C178.725 51.3886 178.673 51.4689 178.606 51.5345C178.539 51.6 178.458 51.6491 178.368 51.6779C178.234 51.7226 178.095 51.7499 177.954 51.7589C177.433 51.8535 176.901 51.8807 176.372 51.8399Z" fill="#263238"/>
<path d="M173.187 41.1101C173.069 41.3639 172.235 41.1371 171.218 41.1533C170.202 41.1695 169.362 41.3855 169.255 41.1533C169.212 41.0345 169.378 40.8023 169.734 40.6133C170.193 40.3515 170.712 40.2138 171.24 40.2137C171.759 40.2057 172.272 40.3361 172.725 40.5917C173.074 40.7645 173.236 40.9913 173.187 41.1101Z" fill="#263238"/>
<path d="M181.844 40.2353C181.65 40.4621 180.849 40.2731 179.891 40.3109C178.934 40.3487 178.143 40.5485 177.944 40.3109C177.858 40.2029 177.971 39.9761 178.315 39.7709C178.788 39.487 179.329 39.3359 179.88 39.3335C180.429 39.3082 180.974 39.4333 181.457 39.6953C181.78 39.9005 181.898 40.1219 181.844 40.2353Z" fill="#263238"/>
<path d="M182.415 38.2266C182.415 38.2266 180.569 34.3818 178.649 33.561C176.308 32.5674 175.453 35.1324 173.269 34.641C171.084 34.1496 168.825 33.183 166.683 34.9812C164.343 36.9522 165.548 38.1888 165.532 40.9806C165.484 52.2936 163.59 55.5876 162.74 50.301C162.648 49.7232 161.013 49.3398 160.653 46.8936C160.19 43.7184 159.872 39.8736 160.47 37.5516C160.975 35.613 161.992 34.2414 163.864 32.6916C166.818 30.2454 171.031 29.9916 173.909 30.132C176.787 30.2724 182.431 33.2964 182.415 38.2266Z" fill="#263238"/>
<path d="M163.1 50.1012C163.081 49.8711 163.015 49.6474 162.908 49.4434C162.8 49.2395 162.652 49.0597 162.473 48.9148C162.294 48.7699 162.087 48.663 161.866 48.6005C161.644 48.5381 161.413 48.5213 161.185 48.5514C160.023 48.7188 158.764 49.4478 158.957 51.8616C159.307 56.1438 163.514 54.9072 163.514 54.7884C163.514 54.6696 163.261 51.8886 163.1 50.1012Z" fill="#AE7461"/>
<path d="M162.476 53.2494C162.476 53.2494 162.406 53.3088 162.288 53.379C162.121 53.4627 161.93 53.482 161.75 53.433C161.282 53.3034 160.846 52.6176 160.76 51.8508C160.721 51.4861 160.763 51.1171 160.884 50.7708C160.913 50.6336 160.974 50.5055 161.063 50.3973C161.152 50.2892 161.266 50.2043 161.395 50.1498C161.479 50.121 161.57 50.122 161.653 50.1524C161.736 50.1829 161.806 50.241 161.852 50.3172C161.917 50.436 161.895 50.5224 161.922 50.5278C161.949 50.5332 162.008 50.4468 161.96 50.274C161.922 50.1717 161.855 50.0833 161.766 50.0202C161.705 49.9796 161.636 49.9519 161.564 49.9389C161.492 49.9259 161.418 49.9279 161.346 49.9446C161.174 49.9938 161.017 50.0867 160.891 50.2143C160.765 50.342 160.673 50.5002 160.625 50.6736C160.474 51.0595 160.419 51.4765 160.464 51.8886C160.561 52.7472 161.067 53.5086 161.701 53.649C161.818 53.6734 161.939 53.6705 162.055 53.6405C162.171 53.6106 162.278 53.5544 162.369 53.4762C162.476 53.3574 162.476 53.2602 162.476 53.2494Z" fill="#6F4439"/>
<path d="M162.772 41.7906C163.319 42.1909 163.957 42.4472 164.628 42.5358C164.966 42.5693 165.304 42.4782 165.579 42.2793C165.855 42.0805 166.048 41.7877 166.124 41.4558C166.162 41.1534 166.07 40.8132 166.253 40.5702C166.436 40.3272 166.909 40.3488 167.27 40.3704C168.518 40.4406 169.901 38.988 170.154 37.7622C170.329 37.9848 170.582 38.1324 170.861 38.1755C171.141 38.2186 171.426 38.1539 171.66 37.9944C172.042 37.732 172.375 37.4049 172.645 37.0278C172.8 36.7864 173.011 36.5866 173.26 36.4454C173.51 36.3043 173.789 36.2262 174.076 36.2178C174.381 36.3062 174.695 36.3587 175.012 36.3744C175.55 36.2988 175.813 35.6238 175.873 35.0622C175.932 34.5006 175.964 33.8418 176.411 33.5178C176.857 33.1938 177.417 33.345 177.938 33.399C178.46 33.453 179.117 33.2964 179.224 32.778C179.241 32.6411 179.228 32.5023 179.189 32.3703C179.149 32.2383 179.082 32.1161 178.993 32.0112C178.62 31.5116 178.09 31.1525 177.489 30.9919C176.888 30.8312 176.25 30.8783 175.679 31.1256C175.424 30.4292 174.971 29.8235 174.375 29.3839C173.78 28.9443 173.069 28.6902 172.331 28.6533C171.593 28.6165 170.86 28.7985 170.224 29.1767C169.588 29.5548 169.077 30.1124 168.755 30.78C168.28 30.3904 167.719 30.1213 167.119 29.9954C166.519 29.8696 165.898 29.8908 165.308 30.0571C164.718 30.2235 164.176 30.5301 163.729 30.9511C163.282 31.3721 162.943 31.895 162.74 32.4756C162.21 32.3649 161.659 32.4128 161.156 32.6134C160.652 32.814 160.219 33.1586 159.909 33.6042C159.599 34.0499 159.426 34.5771 159.412 35.1204C159.398 35.6637 159.543 36.1993 159.829 36.6606C159.443 36.8774 159.117 37.1894 158.884 37.5673C158.65 37.9452 158.517 38.3765 158.495 38.8206C158.495 39.7062 159.426 40.5486 160.271 40.2732C160.18 40.454 160.126 40.651 160.111 40.8528C160.097 41.0546 160.122 41.2573 160.185 41.4493C160.249 41.6414 160.349 41.819 160.481 41.9721C160.613 42.1251 160.774 42.2506 160.954 42.3414C161.134 42.4322 161.33 42.4864 161.531 42.5011C161.732 42.5158 161.934 42.4905 162.126 42.4268C162.317 42.3632 162.494 42.2623 162.646 42.1299C162.799 41.9976 162.924 41.8364 163.014 41.6556" fill="#263238"/>
<path d="M176.061 32.3999C176.061 32.3999 176.061 32.4269 176.061 32.4809C176.061 32.5349 176.061 32.6105 176.061 32.7131C176.015 33.0046 175.925 33.2871 175.792 33.5501C175.579 33.975 175.272 34.3447 174.893 34.6301C174.398 35.0119 173.791 35.2188 173.166 35.2187L173.236 35.0999C173.383 35.4841 173.373 35.9108 173.209 36.2879C173.034 36.6775 172.806 37.0409 172.531 37.3679C172.399 37.5638 172.245 37.7449 172.074 37.9079C171.881 38.0572 171.653 38.1556 171.412 38.1941C171.162 38.2431 170.904 38.2298 170.66 38.1554C170.416 38.0811 170.194 37.9479 170.014 37.7675L170.17 37.7135C170.132 38.158 170.003 38.5897 169.79 38.9812C169.577 39.3726 169.285 39.7151 168.932 39.9869C168.541 40.3116 168.056 40.501 167.549 40.5269C167.075 40.5285 166.604 40.45 166.156 40.2947L166.264 40.2353C166.059 40.757 165.728 41.2192 165.301 41.5799C165.107 41.7643 164.874 41.903 164.62 41.9862C164.366 42.0693 164.097 42.0947 163.832 42.0605C163.383 41.9854 162.965 41.7812 162.628 41.4726C162.292 41.164 162.053 40.7642 161.938 40.3217L162.035 40.3649C161.599 40.6271 161.085 40.7283 160.582 40.6511C160.205 40.6022 159.846 40.4633 159.533 40.2461C159.337 40.1088 159.166 39.939 159.028 39.7439C158.978 39.6779 158.938 39.6051 158.909 39.5279C159.091 39.7857 159.317 40.0088 159.576 40.1867C159.882 40.387 160.23 40.511 160.593 40.5485C161.071 40.6128 161.556 40.5077 161.965 40.2515L162.046 40.2029V40.2947C162.158 40.7099 162.387 41.0837 162.706 41.3712C163.025 41.6586 163.419 41.8474 163.843 41.9147C164.085 41.9452 164.331 41.9203 164.562 41.8417C164.793 41.7632 165.003 41.633 165.177 41.4611C165.575 41.1073 165.88 40.6603 166.065 40.1597L166.091 40.0787H166.178C166.606 40.2299 167.057 40.3066 167.512 40.3055C167.979 40.2835 168.427 40.1091 168.787 39.8087C169.123 39.5518 169.402 39.2267 169.605 38.8545C169.808 38.4824 169.931 38.0716 169.965 37.6487V37.4489L170.11 37.5947C170.269 37.7537 170.465 37.8713 170.68 37.9372C170.894 38.0031 171.122 38.0153 171.342 37.9727C171.557 37.9399 171.76 37.8546 171.934 37.7243C172.092 37.5775 172.235 37.4146 172.359 37.2383C172.631 36.9254 172.856 36.5743 173.026 36.1961C173.105 36.0278 173.148 35.8455 173.155 35.6599C173.161 35.4744 173.13 35.2894 173.064 35.1161L173.026 35.0135H173.134C173.73 35.0198 174.312 34.8301 174.791 34.4735C175.168 34.2156 175.482 33.8761 175.711 33.4799C175.889 33.1429 176.007 32.7775 176.061 32.3999Z" fill="#455A64"/>
<path d="M176.329 55.1448C176.297 54.9828 175.253 55.2582 174.285 54.5616C173.317 53.865 173.134 52.7202 172.988 52.7526C172.843 52.785 172.849 53.0496 172.961 53.5248C173.115 54.1367 173.476 54.6755 173.984 55.0476C174.472 55.4046 175.08 55.5575 175.678 55.4742C176.125 55.3986 176.351 55.215 176.329 55.1448Z" fill="#263238"/>
<path d="M201.686 94.7915C201.589 94.4513 196.026 79.2557 194.256 75.9293C192.131 71.9495 187.665 70.1891 184.895 69.9893C182.124 69.7895 152.48 72.1925 152.48 72.1925C152.48 72.1925 143.625 74.1797 142.495 81.8261C141.193 90.6281 140.058 110.776 140.058 110.776L153.551 103.831L155.299 99.4139L183.221 105.667L190.038 95.5799L201.686 94.7915Z" fill="#E0E0E0"/>
<path d="M150.522 73.0836L162.099 67.959L163.396 62.9478L176.916 69.363L179.746 66.2202L180.935 69.7626L183.894 70.7346L190.818 82.9548V108.994L192.217 131.458L190.694 135L178.293 136.836C176.938 137.036 175.56 137.036 174.204 136.836L149.026 132.716L148.38 125.28L151.07 104.819L150.522 73.0836Z" fill="#E0E0E0"/>
<path d="M163.396 62.9478C163.396 62.9478 164.908 63.3852 168.776 65.4642C172.58 67.5 176.9 69.363 176.9 69.363L176.572 75.4866L162.186 68.2398" fill="#E0E0E0"/>
<path d="M179.746 66.2202L176.916 69.363L178.428 75.9294L180.951 69.9948" fill="#E0E0E0"/>
<g opacity="0.3">
<path d="M176.97 70.0379C177.093 70.1351 177.879 77.5979 177.879 77.5979L163.46 68.8499L176.588 75.4649L176.97 70.0379Z" fill="black"/>
</g>
<path d="M176.873 97.9723C176.652 92.2483 177.551 77.6467 177.551 77.6467L179.434 77.3389C181.831 87.7346 183.45 98.2959 184.276 108.934C184.814 115.954 184.814 124.135 184.814 124.135L181.048 132.268L176.873 124.168C176.873 124.168 177.136 104.933 176.873 97.9723Z" fill="#455A64"/>
<path d="M149.661 73.98C149.634 74.007 150.048 74.331 150.635 74.9358C152.158 76.5191 153.216 78.4945 153.691 80.6436C153.868 81.4644 153.911 81.9882 153.943 81.9828C153.963 81.8612 153.963 81.7372 153.943 81.6156C153.924 81.2803 153.882 80.9466 153.82 80.6166C153.628 79.5204 153.265 78.4616 152.744 77.4792C152.218 76.4979 151.543 75.6051 150.742 74.8332C150.503 74.5994 150.248 74.3828 149.978 74.1852C149.881 74.1049 149.774 74.036 149.661 73.98Z" fill="#263238"/>
<path d="M176.873 72.2898L178.159 71.7876L179.38 73.8882L179.601 77.3388L177.879 77.6196L176.588 75.4866L176.873 72.2898Z" fill="#455A64"/>
<path d="M190.797 82.5605C190.743 82.5605 190.694 90.0341 190.694 99.2465C190.694 108.459 190.743 115.938 190.797 115.938C190.85 115.938 190.899 108.47 190.899 99.2465C190.899 90.0233 190.85 82.5605 190.797 82.5605Z" fill="#263238"/>
<path d="M176.782 69.3089C177.005 69.7367 177.249 70.153 177.513 70.5563C178.103 71.5544 178.641 72.5817 179.127 73.6343C179.176 73.7369 179.224 73.8341 179.267 73.9313L179.359 74.1257L179.45 73.9313C179.92 72.9397 180.321 71.9166 180.65 70.8695C180.774 70.4753 180.865 70.1513 180.919 69.9245C180.962 69.8108 180.984 69.6899 180.984 69.5681C180.957 69.5681 180.806 70.0487 180.521 70.8263C180.154 71.853 179.735 72.8605 179.267 73.8449H179.45L179.31 73.5479C178.816 72.4879 178.249 71.4632 177.616 70.4807C177.368 70.1081 177.158 69.8111 177.008 69.6059C176.857 69.4007 176.792 69.2981 176.782 69.3089Z" fill="#263238"/>
<path d="M162.1 67.959C162.161 68.0059 162.228 68.0458 162.299 68.0778L162.88 68.3856L165.032 69.5034C166.845 70.4484 169.336 71.7984 172.08 73.2834C173.753 74.1798 175.34 75.0114 176.722 75.7026L176.852 75.7674V75.6C176.852 73.8018 176.884 72.2898 176.895 71.1936C176.895 70.6536 176.895 70.2648 176.895 69.9516C176.905 69.8042 176.905 69.6562 176.895 69.5088C176.869 69.655 176.857 69.8032 176.857 69.9516C176.857 70.2594 176.83 70.6752 176.809 71.1882C176.782 72.2682 176.744 73.8018 176.696 75.5946L176.825 75.519C175.453 74.8116 173.871 73.9746 172.192 73.0782C169.443 71.604 166.947 70.2756 165.118 69.3576C164.203 68.904 163.455 68.5422 162.939 68.2776L162.336 68.0076C162.26 67.9798 162.18 67.9634 162.1 67.959Z" fill="#263238"/>
<path d="M189.059 72.684C189.026 72.684 189.252 73.0836 189.548 73.764C189.923 74.6169 190.199 75.5101 190.371 76.4262C190.537 77.3451 190.594 78.2802 190.544 79.2126C190.506 79.9308 190.431 80.3682 190.463 80.3736C190.508 80.2778 190.539 80.1759 190.554 80.0712C190.613 79.7911 190.656 79.5081 190.683 79.2234C190.876 77.3246 190.526 75.4101 189.672 73.7046C189.548 73.4463 189.406 73.1972 189.247 72.9594C189.134 72.765 189.069 72.6732 189.059 72.684Z" fill="#263238"/>
<path d="M178.196 77.841C178.196 77.8896 178.551 77.733 178.923 77.4954C179.294 77.2578 179.579 77.031 179.547 76.9824C179.28 77.0396 179.029 77.1579 178.815 77.328C178.444 77.5656 178.164 77.7924 178.196 77.841Z" fill="#263238"/>
<path d="M177.578 76.9985C177.926 76.4461 178.218 75.8599 178.449 75.2489C178.741 74.67 178.977 74.0642 179.154 73.4399C178.8 73.9878 178.506 74.5726 178.277 75.1841C177.982 75.763 177.748 76.3711 177.578 76.9985Z" fill="#263238"/>
<path d="M148.149 74.3687C148.149 74.3687 143.689 77.6087 143.13 79.3745C142.57 81.1403 140.203 110.095 139.783 113.54C139.364 116.985 138.944 123.417 141.596 125.517C144.249 127.618 149.962 129.195 149.962 129.195L155.24 118.26L152.442 112.379L155.24 90.4013L148.149 74.3687Z" fill="#E0E0E0"/>
<path d="M148.687 128.806C148.782 128.797 148.877 128.797 148.972 128.806C149.247 128.805 149.522 128.787 149.795 128.752C150.819 128.658 151.801 128.301 152.647 127.715C153.91 126.775 154.859 125.472 155.369 123.979C156.058 122.092 156.408 120.097 156.402 118.087L156.429 118.163L152.329 112.466L152.297 112.423V112.369C152.297 112.223 152.335 112.061 152.356 111.904C153.142 105.743 153.857 100.159 154.379 96.0929C154.637 94.0895 154.847 92.4587 154.998 91.3031C155.068 90.7631 155.121 90.3203 155.165 89.9963C155.208 89.6723 155.224 89.5427 155.229 89.5427C155.238 89.5818 155.238 89.6225 155.229 89.6615C155.229 89.7371 155.229 89.8559 155.229 90.0017C155.197 90.3257 155.159 90.7631 155.111 91.3139C154.998 92.4479 154.815 94.0895 154.573 96.1145C154.099 100.17 153.416 105.764 152.631 111.942C152.631 112.099 152.593 112.255 152.571 112.401V112.304L156.655 118.006V118.044V118.082C156.654 120.123 156.289 122.147 155.579 124.06C155.037 125.58 154.046 126.899 152.738 127.84C152.245 128.178 151.7 128.432 151.124 128.59L150.758 128.693L150.414 128.752C150.215 128.792 150.014 128.816 149.811 128.822C149.536 128.846 149.259 128.846 148.983 128.822C148.884 128.827 148.785 128.822 148.687 128.806Z" fill="#263238"/>
<path d="M143.296 114.394C143.641 114.054 144.036 113.771 144.469 113.557C146.509 112.411 148.86 111.952 151.178 112.244C151.659 112.283 152.131 112.396 152.577 112.579C149.36 112.026 146.052 112.671 143.275 114.394H143.296Z" fill="#263238"/>
<path d="M178.304 85.5791C178.304 85.5791 178.562 86.5403 178.966 88.2359C179.882 86.9149 181.053 85.7913 182.409 84.9311C182.409 84.9311 189.295 78.0623 191.496 70.8425C193.11 65.5991 192.695 59.7887 192.695 59.7887C192.631 59.5133 192.093 57.0509 191.657 55.0367C191.485 54.243 191.625 53.4133 192.048 52.721C192.471 52.0286 193.145 51.5272 193.928 51.3215C197.333 50.3981 206.592 48.5999 208.744 54.8315C211.913 64.1465 206.786 74.2067 206.845 77.0849C206.845 77.6249 206.845 78.0731 206.845 78.4295C209.562 77.7977 211.687 77.3495 211.687 77.3927L229.516 73.2185C229.516 73.2185 235.407 71.4257 237.43 77.4899C239.453 83.5541 232.588 85.5899 232.588 85.5899C232.588 85.5899 235.816 85.4441 236.688 90.9575C237.559 96.4709 231.668 98.2583 231.668 98.2583C231.668 98.2583 235.278 98.0261 236.214 102.913C237.124 107.67 231.232 110.538 230.915 110.689C231.383 110.571 231.857 110.481 232.335 110.419C231.984 110.548 231.625 110.653 231.259 110.732C234.009 111.083 234.407 114.366 234.407 114.366C236.177 121.1 231.012 122.515 231.012 122.515L198.441 130.14C195.197 130.899 191.809 130.776 188.628 129.783C188.94 131.177 189.107 131.943 189.096 131.943L166.355 137.273C166.307 137.273 163.853 126.911 160.873 114.113C157.892 101.315 155.52 90.8927 155.568 90.8927L178.304 85.5791Z" fill="#DC3001"/>
<g opacity="0.3">
<path d="M178.304 85.5791C178.304 85.5791 178.562 86.5403 178.966 88.2359C179.882 86.9149 181.053 85.7913 182.409 84.9311C182.409 84.9311 189.295 78.0623 191.496 70.8425C193.11 65.5991 192.695 59.7887 192.695 59.7887C192.631 59.5133 192.093 57.0509 191.657 55.0367C191.485 54.243 191.625 53.4133 192.048 52.721C192.471 52.0286 193.145 51.5272 193.928 51.3215C197.333 50.3981 206.592 48.5999 208.744 54.8315C211.913 64.1465 206.786 74.2067 206.845 77.0849C206.845 77.6249 206.845 78.0731 206.845 78.4295C209.562 77.7977 211.687 77.3495 211.687 77.3927L229.516 73.2185C229.516 73.2185 235.407 71.4257 237.43 77.4899C239.453 83.5541 232.588 85.5899 232.588 85.5899C232.588 85.5899 235.816 85.4441 236.688 90.9575C237.559 96.4709 231.668 98.2583 231.668 98.2583C231.668 98.2583 235.278 98.0261 236.214 102.913C237.124 107.67 231.232 110.538 230.915 110.689C231.383 110.571 231.857 110.481 232.335 110.419C231.984 110.548 231.625 110.653 231.259 110.732C234.009 111.083 234.407 114.366 234.407 114.366C236.177 121.1 231.012 122.515 231.012 122.515L198.441 130.14C195.197 130.899 191.809 130.776 188.628 129.783C188.94 131.177 189.107 131.943 189.096 131.943L166.355 137.273C166.307 137.273 163.853 126.911 160.873 114.113C157.892 101.315 155.52 90.8927 155.568 90.8927L178.304 85.5791Z" fill="black"/>
</g>
<path d="M182.699 92.0808L182.258 95.0508L189.532 126.29C191.661 127.709 194.058 128.676 196.574 129.131C199.089 129.586 201.671 129.52 204.16 128.936L236.72 121.306C236.72 121.306 241.885 119.891 240.115 113.157C240.115 113.157 239.69 109.582 236.618 109.485C236.618 109.485 242.859 106.591 241.928 101.704C240.997 96.8166 237.387 97.0542 237.387 97.0542C237.387 97.0542 243.278 95.2614 242.401 89.748C241.524 84.2346 238.302 84.3804 238.302 84.3804C238.302 84.3804 245.161 82.3662 243.144 76.2804C241.126 70.1946 235.23 72.009 235.23 72.009L212.096 77.409L191.802 82.1664C189.467 82.7074 187.349 83.9432 185.725 85.7121C184.101 87.481 183.046 89.7007 182.699 92.0808Z" fill="#DC3001"/>
<path d="M188.112 83.7484C188.112 83.7484 194.998 76.8796 197.199 69.6598C198.813 64.4164 198.398 58.6114 198.398 58.6114C198.334 58.3306 197.796 55.8682 197.36 53.854C197.188 53.0604 197.328 52.2307 197.751 51.5383C198.174 50.846 198.848 50.3445 199.63 50.1388C203.052 49.21 209.223 50.9164 211.348 57.1588C214.517 66.4684 212.483 73.0186 212.537 75.8968L212.591 78.775L188.112 83.7484Z" fill="#DC3001"/>
<path d="M184.026 84.3721L161.29 89.7039L172.082 136.072L194.819 130.741L184.026 84.3721Z" fill="#DC3001"/>
<path d="M194.815 130.761C194.864 130.761 192.491 120.361 189.511 107.541C186.53 94.7214 184.077 84.3642 184.029 84.375C183.98 84.3858 186.353 94.7754 189.333 107.595C192.314 120.415 194.756 130.772 194.815 130.761Z" fill="#263238"/>
<path d="M172.08 136.08C172.128 136.08 169.75 125.679 166.77 112.86C163.789 100.04 161.336 89.6831 161.287 89.6939C161.239 89.7047 163.612 100.094 166.592 112.914C169.573 125.733 172.026 136.08 172.08 136.08Z" fill="#263238"/>
<path d="M178.471 96.8867C178.667 97.7311 178.61 98.615 178.306 99.4266C178.002 100.238 177.465 100.941 176.763 101.446C176.061 101.952 175.226 102.237 174.362 102.266C173.499 102.295 172.646 102.066 171.912 101.609C171.178 101.151 170.596 100.486 170.239 99.6963C169.882 98.9067 169.766 98.0287 169.906 97.1731C170.046 96.3175 170.435 95.5227 171.025 94.8893C171.615 94.2558 172.379 93.8122 173.22 93.6143C174.349 93.3504 175.535 93.5467 176.52 94.1602C177.504 94.7738 178.206 95.7544 178.471 96.8867Z" fill="white"/>
<path d="M217.395 76.2047C217.395 76.1561 214.894 76.6961 211.838 77.4143C208.782 78.1325 206.307 78.7481 206.318 78.7967C206.329 78.8453 208.82 78.3053 211.875 77.5925C214.931 76.8797 217.406 76.2533 217.395 76.2047Z" fill="#263238"/>
<path d="M237.893 97.1622C237.893 97.1136 236.279 97.4484 234.332 97.902C233.14 98.1452 231.962 98.4516 230.802 98.82C230.802 98.8686 232.416 98.5338 234.364 98.0802C235.555 97.8339 236.733 97.5275 237.893 97.1622Z" fill="#263238"/>
<path d="M238.721 84.1588C238.721 84.1102 236.451 84.6016 233.675 85.2388C230.899 85.876 228.661 86.4538 228.671 86.5078C228.682 86.5618 230.942 86.065 233.718 85.4278C236.494 84.7906 238.732 84.2398 238.721 84.1588Z" fill="#263238"/>
<path d="M238.049 109.21C238.049 109.161 235.779 109.647 233.002 110.29C230.226 110.932 227.988 111.505 227.999 111.553C228.01 111.602 230.269 111.116 233.046 110.473C235.822 109.831 238.06 109.258 238.049 109.21Z" fill="#263238"/>
<g opacity="0.3">
<path d="M199.824 52.4338C199.501 52.794 199.281 53.2348 199.187 53.7098C199.092 54.1849 199.126 54.6767 199.286 55.1338C199.627 56.0436 200.042 56.9233 200.529 57.7636C201.463 59.7163 201.731 61.923 201.293 64.0438C201.158 64.6864 200.981 65.4262 201.39 65.9392C201.971 66.6628 203.138 66.2632 203.875 65.6962C205.247 64.591 206.278 63.118 206.85 61.4483C207.421 59.7785 207.509 57.9804 207.103 56.2624C206.783 54.7997 205.975 53.4907 204.811 52.5526C203.622 51.667 201.799 50.8678 199.781 52.4176" fill="white"/>
</g>
<g opacity="0.3">
<path d="M237.349 72.8352C236.539 72.7423 235.718 72.829 234.945 73.089L221.204 76.5882C219.708 76.9716 216.9 77.3118 216.868 78.8454C216.566 79.6824 217.201 80.6328 218.019 80.973C218.87 81.2487 219.781 81.2823 220.65 81.0702C222.484 80.7786 224.297 80.3466 226.111 79.9146C229.747 79.0398 233.395 78.1434 236.871 76.6746C237.393 76.4849 237.88 76.2094 238.312 75.8592C238.528 75.6819 238.701 75.4585 238.819 75.2053C238.938 74.952 238.998 74.6755 238.996 74.3958C238.921 73.9942 238.722 73.6266 238.426 73.3461C238.13 73.0656 237.753 72.8867 237.349 72.8352Z" fill="white"/>
</g>
<path d="M178.971 86.9399C178.971 86.8913 175.743 87.5987 171.854 88.5167C167.964 89.4347 164.768 90.2177 164.779 90.2663C164.79 90.3149 167.975 89.6129 171.897 88.6949C175.819 87.7769 178.982 87.0155 178.971 86.9399Z" fill="white"/>
<path d="M240.314 92.2157C240.357 92.1309 240.386 92.0397 240.4 91.9457C240.466 91.695 240.506 91.438 240.518 91.1789C240.544 90.7952 240.532 90.4098 240.48 90.0287C240.408 89.5614 240.285 89.1034 240.115 88.6625C239.936 88.2242 239.709 87.8075 239.437 87.4205C239.214 87.1059 238.958 86.8162 238.673 86.5565C238.484 86.3802 238.279 86.2228 238.059 86.0867C237.985 86.0276 237.902 85.982 237.812 85.9517C237.812 85.9841 238.129 86.2001 238.587 86.6537C238.85 86.9184 239.088 87.2077 239.297 87.5177C239.553 87.8977 239.769 88.303 239.942 88.7273C240.108 89.1554 240.232 89.5984 240.314 90.0503C240.37 90.4218 240.396 90.7976 240.389 91.1735C240.373 91.7999 240.276 92.2049 240.314 92.2157Z" fill="white"/>
<path d="M240.943 79.6824C241.131 79.5124 241.278 79.3019 241.374 79.0668C241.637 78.5137 241.752 77.9014 241.707 77.2902C241.675 76.6798 241.49 76.0873 241.169 75.5676C241.043 75.3521 240.87 75.1677 240.664 75.0276C240.637 75.0276 240.836 75.2544 241.056 75.6486C241.343 76.1585 241.51 76.7273 241.546 77.3118C241.584 77.8954 241.492 78.4802 241.277 79.0236C241.089 79.4286 240.916 79.6608 240.943 79.6824Z" fill="white"/>
<path d="M239.227 105.716C239.474 105.565 239.683 105.358 239.835 105.111C240.247 104.53 240.448 103.826 240.405 103.114C240.362 102.403 240.077 101.728 239.598 101.201C239.418 100.97 239.186 100.785 238.92 100.661C238.92 100.661 239.179 100.872 239.501 101.272C239.922 101.798 240.173 102.44 240.222 103.113C240.257 103.788 240.084 104.457 239.727 105.03C239.458 105.478 239.2 105.694 239.227 105.716Z" fill="white"/>
<path d="M237.161 117.812C237.34 117.626 237.479 117.405 237.57 117.164C237.824 116.588 237.941 115.962 237.914 115.334C237.887 114.705 237.716 114.092 237.414 113.54C237.303 113.308 237.145 113.1 236.951 112.93C236.925 112.93 237.102 113.179 237.301 113.6C237.556 114.146 237.702 114.736 237.732 115.339C237.756 115.942 237.661 116.544 237.452 117.11C237.29 117.547 237.134 117.796 237.161 117.812Z" fill="white"/>
<path d="M211.601 68.1102C211.661 67.9345 211.706 67.7538 211.735 67.5702C211.773 67.4028 211.816 67.1922 211.854 66.9438C211.891 66.6954 211.94 66.4038 211.961 66.1014C212.041 65.3699 212.068 64.6336 212.042 63.8982C211.989 62.0891 211.645 60.3004 211.025 58.6008C210.773 57.9092 210.473 57.2361 210.127 56.5866C209.987 56.3004 209.836 56.0466 209.713 55.8468C209.589 55.647 209.47 55.4526 209.368 55.3068C209.276 55.1504 209.167 55.0039 209.045 54.8694C209.12 55.0348 209.208 55.1938 209.309 55.3446C209.4 55.4958 209.508 55.6794 209.621 55.8846C209.734 56.0898 209.885 56.349 210.014 56.6352C210.337 57.2891 210.621 57.9617 210.864 58.6494C211.156 59.493 211.391 60.3553 211.569 61.2306C211.728 62.1104 211.831 62.9996 211.875 63.8928C211.905 64.613 211.891 65.3343 211.832 66.0528C211.832 66.366 211.778 66.6468 211.752 66.8898C211.725 67.1328 211.692 67.3488 211.665 67.5216C211.622 67.7148 211.6 67.9122 211.601 68.1102Z" fill="white"/>
<path d="M159.684 122.823C159.684 122.823 161.47 121.43 162.799 121.376C164.128 121.322 165.855 121.835 166.199 121.662C166.544 121.489 167.356 120.728 167.872 121.37C168.389 122.013 169.029 124.324 166.258 124.961H164.354C164.354 124.961 164.585 126.873 165.048 127.624C165.511 128.374 171.972 136.539 171.972 136.539C171.972 136.539 172.779 137.354 172.375 138.159C171.972 138.964 170.223 138.505 170.223 138.505C170.223 138.505 169.013 139.585 167.63 139.082C166.943 138.85 166.284 138.54 165.667 138.159C165.219 138.502 164.672 138.688 164.109 138.688C163.546 138.688 162.999 138.502 162.552 138.159C160.938 136.944 155.558 130.167 155.558 130.167L157.484 122.607L159.684 122.823Z" fill="#AE7461"/>
<path d="M154.078 118.341L159.684 122.823L155.568 130.172L147.358 127.181C147.358 127.181 147.595 118.498 154.078 118.341Z" fill="#AE7461"/>
<path d="M241.519 108.329C241.519 108.329 241.341 106.315 240.217 106.709C239.093 107.104 238.603 109.496 238.603 109.496L241.519 108.329Z" fill="#AE7461"/>
<path d="M237.5 110.316C237.5 110.316 239.453 108.124 242.165 108.302C244.876 108.48 243.171 110.792 243.171 110.792C243.171 110.792 245.183 112.034 243.709 113.816L243.472 114.291C243.472 114.291 245.183 114.939 243.413 116.775C243.592 117.104 243.666 117.48 243.623 117.852C243.581 118.224 243.425 118.574 243.176 118.854C242.288 119.74 240.077 118.557 240.077 118.557C240.077 118.557 238.038 119.032 237.861 118.2C237.79 117.922 237.796 117.629 237.88 117.354C237.963 117.079 238.12 116.832 238.334 116.64C238.512 116.521 239.577 116.1 239.577 116.1C239.577 116.1 237.215 116.397 237.156 115.803C237.097 115.209 236.86 114.555 238.63 113.967L239.577 113.713C239.577 113.713 237.124 113.789 237.107 113.173C237.091 112.557 236.978 112.341 237.861 111.931C238.418 111.671 238.957 111.373 239.475 111.04C239.475 111.04 237.151 111.564 237.5 110.316Z" fill="#AE7461"/>
<path d="M237.07 112.633C237.955 111.975 238.942 111.468 239.991 111.132C241.06 110.869 242.165 110.781 243.262 110.873C242.957 110.746 242.63 110.676 242.299 110.668C240.688 110.528 239.081 110.983 237.78 111.947C237.5 112.127 237.259 112.36 237.07 112.633Z" fill="#6F4439"/>
<path d="M237.339 116.019C237.339 116.019 237.285 115.943 237.226 115.808C237.157 115.609 237.157 115.392 237.226 115.193C237.316 114.891 237.506 114.628 237.764 114.448C238.091 114.231 238.456 114.079 238.84 113.999C239.865 113.812 240.899 113.686 241.939 113.621C241.638 113.537 241.325 113.503 241.013 113.519C240.264 113.513 239.517 113.594 238.786 113.762C238.37 113.849 237.976 114.022 237.629 114.269C237.34 114.484 237.137 114.797 237.059 115.15C237.026 115.266 237.016 115.388 237.029 115.509C237.043 115.629 237.081 115.746 237.14 115.852C237.258 115.997 237.333 116.03 237.339 116.019Z" fill="#6F4439"/>
<path d="M238.334 118.627C238.334 118.627 238.248 118.573 238.13 118.46C238.029 118.362 237.95 118.245 237.898 118.115C237.846 117.985 237.822 117.845 237.827 117.705C237.832 117.565 237.866 117.428 237.928 117.302C237.989 117.176 238.076 117.065 238.183 116.975C238.538 116.734 238.928 116.552 239.34 116.435C240.118 116.273 240.917 116.231 241.707 116.31C242.043 116.354 242.384 116.336 242.713 116.256C242.385 116.195 242.052 116.155 241.718 116.138C240.905 116.005 240.075 116.027 239.27 116.202C238.828 116.329 238.411 116.532 238.038 116.802C237.87 116.942 237.748 117.13 237.688 117.342C237.652 117.52 237.652 117.704 237.688 117.882C237.709 118.012 237.756 118.137 237.825 118.249C237.894 118.361 237.985 118.459 238.092 118.535C238.226 118.638 238.334 118.638 238.334 118.627Z" fill="#6F4439"/>
<path d="M237.468 110.414C237.468 110.414 237.516 110.338 237.64 110.225C237.811 110.069 237.991 109.923 238.178 109.787C238.788 109.33 239.463 108.966 240.179 108.707C240.889 108.437 241.65 108.326 242.407 108.383C242.714 108.453 243.018 108.54 243.316 108.643C243.074 108.413 242.768 108.264 242.439 108.216C241.653 108.1 240.851 108.189 240.109 108.475C238.334 109.112 237.323 110.333 237.468 110.414Z" fill="#6F4439"/>
</svg>
