<svg width="237" height="67" viewBox="0 0 237 67" fill="none" xmlns="http://www.w3.org/2000/svg">
<path d="M3.735 56V24.5H17.37C20.19 24.5 22.62 24.965 24.66 25.895C26.7 26.795 28.275 28.1 29.385 29.81C30.495 31.52 31.05 33.56 31.05 35.93C31.05 38.27 30.495 40.295 29.385 42.005C28.275 43.715 26.7 45.035 24.66 45.965C22.62 46.865 20.19 47.315 17.37 47.315H7.785L11.025 44.03V56H3.735ZM11.025 44.84L7.785 41.375H16.965C19.215 41.375 20.895 40.895 22.005 39.935C23.115 38.975 23.67 37.64 23.67 35.93C23.67 34.19 23.115 32.84 22.005 31.88C20.895 30.92 19.215 30.44 16.965 30.44H7.785L11.025 26.975V44.84ZM51.994 56.54C49.504 56.54 47.194 56.135 45.064 55.325C42.964 54.515 41.134 53.375 39.574 51.905C38.044 50.435 36.844 48.71 35.974 46.73C35.134 44.75 34.714 42.59 34.714 40.25C34.714 37.91 35.134 35.75 35.974 33.77C36.844 31.79 38.059 30.065 39.619 28.595C41.179 27.125 43.009 25.985 45.109 25.175C47.209 24.365 49.489 23.96 51.949 23.96C54.439 23.96 56.719 24.365 58.789 25.175C60.889 25.985 62.704 27.125 64.234 28.595C65.794 30.065 67.009 31.79 67.879 33.77C68.749 35.72 69.184 37.88 69.184 40.25C69.184 42.59 68.749 44.765 67.879 46.775C67.009 48.755 65.794 50.48 64.234 51.95C62.704 53.39 60.889 54.515 58.789 55.325C56.719 56.135 54.454 56.54 51.994 56.54ZM51.949 50.33C53.359 50.33 54.649 50.09 55.819 49.61C57.019 49.13 58.069 48.44 58.969 47.54C59.869 46.64 60.559 45.575 61.039 44.345C61.549 43.115 61.804 41.75 61.804 40.25C61.804 38.75 61.549 37.385 61.039 36.155C60.559 34.925 59.869 33.86 58.969 32.96C58.099 32.06 57.064 31.37 55.864 30.89C54.664 30.41 53.359 30.17 51.949 30.17C50.539 30.17 49.234 30.41 48.034 30.89C46.864 31.37 45.829 32.06 44.929 32.96C44.029 33.86 43.324 34.925 42.814 36.155C42.334 37.385 42.094 38.75 42.094 40.25C42.094 41.72 42.334 43.085 42.814 44.345C43.324 45.575 44.014 46.64 44.884 47.54C45.784 48.44 46.834 49.13 48.034 49.61C49.234 50.09 50.539 50.33 51.949 50.33ZM74.6627 56V24.5H81.9527V56H74.6627ZM89.4284 56V24.5H95.4584L114.043 47.18H111.118V24.5H118.318V56H112.333L93.7034 33.32H96.6284V56H89.4284ZM132.296 56V30.44H122.216V24.5H149.666V30.44H139.586V56H132.296Z" fill="#112242"/>
<path fill-rule="evenodd" clip-rule="evenodd" d="M154.167 55.1491L154.159 55.1444C150.417 52.7777 147.506 49.3811 145.41 45.0271C143.298 40.6406 142.279 35.4115 142.279 29.4001C142.279 23.3886 143.298 18.1595 145.41 13.773C147.506 9.41943 150.418 6.04446 154.167 3.72706C157.899 1.36927 162.114 0.202881 166.764 0.202881C171.458 0.202881 175.678 1.36622 179.366 3.73002C183.112 6.04733 186.023 9.42128 188.118 13.773C190.23 18.1595 191.249 23.3886 191.249 29.4001C191.249 35.4115 190.23 40.6406 188.118 45.0271C186.022 49.3811 183.111 52.7777 179.369 55.1444L179.363 55.1479C175.674 57.4607 171.456 58.5973 166.764 58.5973C162.119 58.5973 157.906 57.4587 154.174 55.1538L154.167 55.1491ZM171.145 43.4066L171.156 43.3987C172.367 42.5 173.422 40.9872 174.213 38.6616L174.217 38.6474L174.222 38.6333C175.045 36.3491 175.491 33.2936 175.491 29.4001C175.491 25.5065 175.045 22.451 174.222 20.1669L174.217 20.1527L174.213 20.1385C173.422 17.813 172.367 16.3001 171.156 15.4014L171.145 15.3935L171.135 15.3854C169.934 14.4651 168.504 13.9852 166.764 13.9852C165.09 13.9852 163.649 14.4571 162.383 15.3935C161.21 16.2969 160.152 17.8201 159.311 20.1526C158.534 22.446 158.113 25.5077 158.113 29.4001C158.113 33.2924 158.533 36.3541 159.311 38.6475C160.153 40.9801 161.21 42.5033 162.383 43.4067C163.649 44.343 165.09 44.8149 166.764 44.8149C168.504 44.8149 169.934 44.335 171.135 43.4147L171.145 43.4066ZM157.72 39.2041C156.859 36.6707 156.428 33.4027 156.428 29.4001C156.428 25.3974 156.859 22.1294 157.72 19.5961C158.632 17.0627 159.848 15.2134 161.368 14.0481C162.939 12.8827 164.737 12.3001 166.764 12.3001C168.841 12.3001 170.64 12.8827 172.16 14.0481C173.731 15.2134 174.947 17.0627 175.808 19.5961C176.72 22.1294 177.176 25.3974 177.176 29.4001C177.176 33.4027 176.72 36.6707 175.808 39.2041C174.947 41.7374 173.731 43.5867 172.16 44.7521C170.64 45.9174 168.841 46.5001 166.764 46.5001C164.737 46.5001 162.939 45.9174 161.368 44.7521C159.848 43.5867 158.632 41.7374 157.72 39.2041ZM193.108 57.6853V47.2937L214.169 27.403L214.182 27.3914C215.749 25.9704 216.824 24.7635 217.474 23.7675C218.171 22.698 218.582 21.8012 218.775 21.0672L218.786 21.0276L218.798 20.9886C219.062 20.1516 219.176 19.4384 219.176 18.8361C219.176 17.1431 218.62 16.0589 217.639 15.3146L217.613 15.2949L217.587 15.2743C216.592 14.4564 214.939 13.9093 212.349 13.9093C210.346 13.9093 208.508 14.2941 206.813 15.0509C205.229 15.7802 203.856 16.923 202.695 18.5307L201.76 19.8259L190.009 12.2578L190.959 10.8333C193.17 7.51722 196.249 4.922 200.136 3.03246C204.051 1.12969 208.515 0.202881 213.489 0.202881C217.619 0.202881 221.303 0.890057 224.499 2.3192C227.726 3.68967 230.293 5.66947 232.118 8.28766C234.016 10.9392 234.934 14.0773 234.934 17.6201C234.934 19.4877 234.688 21.3496 234.199 23.2027C233.729 25.1257 232.761 27.0813 231.369 29.0642C230.007 31.077 228.039 33.2714 225.511 35.6442C225.511 35.6444 225.511 35.644 225.511 35.6442L216.34 44.2829H236.682V57.6853H193.108ZM212.093 45.9681L224.357 34.4161C226.84 32.0854 228.714 29.9827 229.981 28.1081C231.298 26.2334 232.16 24.4601 232.565 22.7881C233.021 21.0654 233.249 19.3427 233.249 17.6201C233.249 14.3774 232.413 11.5907 230.741 9.26007C229.12 6.9294 226.814 5.13073 223.825 3.86406C220.886 2.54673 217.441 1.88807 213.489 1.88807C208.726 1.88807 204.521 2.77473 200.873 4.54806C197.788 6.04764 195.283 8.0001 193.358 10.4054C193.006 10.8446 192.674 11.2988 192.361 11.7681L201.329 17.5441C202.646 15.7201 204.242 14.3774 206.117 13.5161C208.042 12.6547 210.12 12.2241 212.349 12.2241C215.136 12.2241 217.238 12.8067 218.657 13.9721C220.126 15.0867 220.861 16.7081 220.861 18.8361C220.861 19.6467 220.709 20.5334 220.405 21.4961C220.152 22.4587 219.645 23.5227 218.885 24.6881C218.125 25.8534 216.934 27.1707 215.313 28.6401L194.793 48.0201V56.0001H234.997V45.9681H212.093ZM155.06 53.7201C158.505 55.8481 162.407 56.9121 166.764 56.9121C171.172 56.9121 175.073 55.8481 178.468 53.7201C181.913 51.5414 184.624 48.4001 186.6 44.2961C188.576 40.1921 189.564 35.2267 189.564 29.4001C189.564 23.5734 188.576 18.6081 186.6 14.5041C184.624 10.4001 181.913 7.28406 178.468 5.15606C175.073 2.9774 171.172 1.88807 166.764 1.88807C162.407 1.88807 158.505 2.9774 155.06 5.15606C151.615 7.28406 148.904 10.4001 146.928 14.5041C144.952 18.6081 143.964 23.5734 143.964 29.4001C143.964 35.2267 144.952 40.1921 146.928 44.2961C148.904 48.4001 151.615 51.5414 155.06 53.7201Z" fill="#112242"/>
<circle cx="51.9995" cy="39.5987" r="13.4722" fill="#112242"/>
<ellipse cx="55.4485" cy="27.8356" rx="3.1194" ry="2.95522" fill="white"/>
<circle cx="55.7426" cy="37.8173" r="2.1005" fill="white"/>
<circle cx="43.0194" cy="41.6994" r="2.1005" fill="white"/>
<circle cx="51.0155" cy="51.1498" r="3.28358" fill="white"/>
<circle cx="63.9521" cy="37.1598" r="2.1005" fill="white"/>
<path d="M47.3509 22.2476C37.7683 24.8152 32.0815 34.6649 34.6491 44.2476C37.2168 53.8302 47.0666 59.5169 56.6491 56.9493C66.2317 54.3816 71.9185 44.5319 69.3509 34.9493C66.7832 25.3667 56.9335 19.6799 47.3509 22.2476ZM58.6637 28.0566C64.4696 31.4086 66.6633 38.3219 64.5277 44.1549L41.7901 31.0274C45.7765 26.2583 52.861 24.7065 58.6637 28.0566ZM45.3363 51.1403C39.5304 47.7883 37.3367 40.875 39.4723 35.042L62.2099 48.1694C58.2235 52.9386 51.139 54.4905 45.3363 51.1403Z" fill="#DC3001"/>
<circle cx="45.5549" cy="26.6335" r="5.21504" fill="#112242"/>
<circle cx="45.626" cy="18.3038" r="1.30376" fill="#112242"/>
<circle cx="38.5289" cy="22.1431" r="1.30376" fill="#112242"/>
<rect x="45.1191" y="19.0278" width="1.01404" height="3.11454" fill="#112242"/>
<rect x="38.7446" y="22.9863" width="1.01404" height="3.11454" transform="rotate(-56.3145 38.7446 22.9863)" fill="#112242"/>
</svg>
