<svg width="219" height="63" viewBox="0 0 219 63" fill="none" xmlns="http://www.w3.org/2000/svg">
<path fill-rule="evenodd" clip-rule="evenodd" d="M155.167 55.1491L155.159 55.1444C151.417 52.7777 148.506 49.3811 146.41 45.0271C144.298 40.6406 143.279 35.4115 143.279 29.4001C143.279 23.3886 144.298 18.1595 146.41 13.773C148.506 9.41943 151.418 6.04446 155.167 3.72706C158.899 1.36927 163.114 0.202881 167.764 0.202881C172.458 0.202881 176.678 1.36622 180.366 3.73002C184.112 6.04733 187.023 9.42128 189.118 13.773C191.23 18.1595 192.249 23.3886 192.249 29.4001C192.249 35.4115 191.23 40.6406 189.118 45.0271C187.022 49.3811 184.111 52.7777 180.369 55.1444L180.363 55.1479C176.674 57.4607 172.456 58.5973 167.764 58.5973C163.119 58.5973 158.906 57.4587 155.174 55.1538L155.167 55.1491ZM172.145 43.4066L172.156 43.3987C173.367 42.5 174.422 40.9872 175.213 38.6616L175.217 38.6474L175.222 38.6333C176.045 36.3491 176.491 33.2936 176.491 29.4001C176.491 25.5065 176.045 22.451 175.222 20.1669L175.217 20.1527L175.213 20.1385C174.422 17.813 173.367 16.3001 172.156 15.4014L172.145 15.3935L172.135 15.3854C170.934 14.4651 169.504 13.9852 167.764 13.9852C166.09 13.9852 164.649 14.4571 163.383 15.3935C162.21 16.2969 161.152 17.8201 160.311 20.1526C159.534 22.446 159.113 25.5077 159.113 29.4001C159.113 33.2924 159.533 36.3541 160.311 38.6475C161.153 40.9801 162.21 42.5033 163.383 43.4067C164.649 44.343 166.09 44.8149 167.764 44.8149C169.504 44.8149 170.934 44.335 172.135 43.4147L172.145 43.4066ZM158.72 39.2041C157.859 36.6707 157.428 33.4027 157.428 29.4001C157.428 25.3974 157.859 22.1294 158.72 19.5961C159.632 17.0627 160.848 15.2134 162.368 14.0481C163.939 12.8827 165.737 12.3001 167.764 12.3001C169.841 12.3001 171.64 12.8827 173.16 14.0481C174.731 15.2134 175.947 17.0627 176.808 19.5961C177.72 22.1294 178.176 25.3974 178.176 29.4001C178.176 33.4027 177.72 36.6707 176.808 39.2041C175.947 41.7374 174.731 43.5867 173.16 44.7521C171.64 45.9174 169.841 46.5001 167.764 46.5001C165.737 46.5001 163.939 45.9174 162.368 44.7521C160.848 43.5867 159.632 41.7374 158.72 39.2041ZM202.772 57.6853V14.3652H192.132V1.11488H218.454V57.6853H202.772ZM204.457 12.6801V56.0001H216.769V2.80006H193.817V12.6801H204.457ZM156.06 53.7201C159.505 55.8481 163.407 56.9121 167.764 56.9121C172.172 56.9121 176.073 55.8481 179.468 53.7201C182.913 51.5414 185.624 48.4001 187.6 44.2961C189.576 40.1921 190.564 35.2267 190.564 29.4001C190.564 23.5734 189.576 18.6081 187.6 14.5041C185.624 10.4001 182.913 7.28406 179.468 5.15606C176.073 2.9774 172.172 1.88807 167.764 1.88807C163.407 1.88807 159.505 2.9774 156.06 5.15606C152.615 7.28406 149.904 10.4001 147.928 14.5041C145.952 18.6081 144.964 23.5734 144.964 29.4001C144.964 35.2267 145.952 40.1921 147.928 44.2961C149.904 48.4001 152.615 51.5414 156.06 53.7201Z" fill="#112242"/>
<path d="M3.735 52.0001V20.5001H17.37C20.19 20.5001 22.62 20.9651 24.66 21.8951C26.7 22.7951 28.275 24.1001 29.385 25.8101C30.495 27.5201 31.05 29.5601 31.05 31.9301C31.05 34.2701 30.495 36.2951 29.385 38.0051C28.275 39.7151 26.7 41.0351 24.66 41.9651C22.62 42.8651 20.19 43.3151 17.37 43.3151H7.785L11.025 40.0301V52.0001H3.735ZM11.025 40.8401L7.785 37.3751H16.965C19.215 37.3751 20.895 36.8951 22.005 35.9351C23.115 34.9751 23.67 33.6401 23.67 31.9301C23.67 30.1901 23.115 28.8401 22.005 27.8801C20.895 26.9201 19.215 26.4401 16.965 26.4401H7.785L11.025 22.9751V40.8401ZM51.994 52.5401C49.504 52.5401 47.194 52.1351 45.064 51.3251C42.964 50.5151 41.134 49.3751 39.574 47.9051C38.044 46.4351 36.844 44.7101 35.974 42.7301C35.134 40.7501 34.714 38.5901 34.714 36.2501C34.714 33.9101 35.134 31.7501 35.974 29.7701C36.844 27.7901 38.059 26.0651 39.619 24.5951C41.179 23.1251 43.009 21.9851 45.109 21.1751C47.209 20.3651 49.489 19.9601 51.949 19.9601C54.439 19.9601 56.719 20.3651 58.789 21.1751C60.889 21.9851 62.704 23.1251 64.234 24.5951C65.794 26.0651 67.009 27.7901 67.879 29.7701C68.749 31.7201 69.184 33.8801 69.184 36.2501C69.184 38.5901 68.749 40.7651 67.879 42.7751C67.009 44.7551 65.794 46.4801 64.234 47.9501C62.704 49.3901 60.889 50.5151 58.789 51.3251C56.719 52.1351 54.454 52.5401 51.994 52.5401ZM51.949 46.3301C53.359 46.3301 54.649 46.0901 55.819 45.6101C57.019 45.1301 58.069 44.4401 58.969 43.5401C59.869 42.6401 60.559 41.5751 61.039 40.3451C61.549 39.1151 61.804 37.7501 61.804 36.2501C61.804 34.7501 61.549 33.3851 61.039 32.1551C60.559 30.9251 59.869 29.8601 58.969 28.9601C58.099 28.0601 57.064 27.3701 55.864 26.8901C54.664 26.4101 53.359 26.1701 51.949 26.1701C50.539 26.1701 49.234 26.4101 48.034 26.8901C46.864 27.3701 45.829 28.0601 44.929 28.9601C44.029 29.8601 43.324 30.9251 42.814 32.1551C42.334 33.3851 42.094 34.7501 42.094 36.2501C42.094 37.7201 42.334 39.0851 42.814 40.3451C43.324 41.5751 44.014 42.6401 44.884 43.5401C45.784 44.4401 46.834 45.1301 48.034 45.6101C49.234 46.0901 50.539 46.3301 51.949 46.3301ZM74.6627 52.0001V20.5001H81.9527V52.0001H74.6627ZM89.4284 52.0001V20.5001H95.4584L114.043 43.1801H111.118V20.5001H118.318V52.0001H112.333L93.7034 29.3201H96.6284V52.0001H89.4284ZM132.296 52.0001V26.4401H122.216V20.5001H149.666V26.4401H139.586V52.0001H132.296Z" fill="#112242"/>
<circle cx="51.9995" cy="36.5987" r="13.4722" fill="black"/>
<ellipse cx="55.4485" cy="24.8357" rx="3.1194" ry="2.95522" fill="white"/>
<circle cx="55.7426" cy="34.8174" r="2.1005" fill="white"/>
<circle cx="43.0194" cy="38.6996" r="2.1005" fill="white"/>
<circle cx="51.0155" cy="48.1498" r="3.28358" fill="white"/>
<circle cx="63.9521" cy="34.16" r="2.1005" fill="white"/>
<path d="M47.3509 19.2477C37.7683 21.8153 32.0815 31.6651 34.6491 41.2477C37.2168 50.8303 47.0666 56.517 56.6491 53.9494C66.2317 51.3818 71.9185 41.532 69.3509 31.9494C66.7832 22.3668 56.9335 16.68 47.3509 19.2477ZM58.6637 25.0567C64.4696 28.4087 66.6633 35.322 64.5277 41.155L41.7901 28.0276C45.7765 23.2584 52.861 21.7066 58.6637 25.0567ZM45.3363 48.1404C39.5304 44.7884 37.3367 37.8751 39.4723 32.0421L62.2099 45.1695C58.2235 49.9387 51.139 51.4906 45.3363 48.1404Z" fill="#DC3001"/>
<circle cx="45.5549" cy="23.6336" r="5.21504" fill="black"/>
<circle cx="45.626" cy="15.3039" r="1.30376" fill="black"/>
<circle cx="38.5289" cy="19.1432" r="1.30376" fill="black"/>
<rect x="45.1191" y="16.028" width="1.01404" height="3.11454" fill="black"/>
<rect x="38.7446" y="19.9865" width="1.01404" height="3.11454" transform="rotate(-56.3145 38.7446 19.9865)" fill="black"/>
</svg>
