<svg width="219" height="67" viewBox="0 0 219 67" fill="none" xmlns="http://www.w3.org/2000/svg">
<path fill-rule="evenodd" clip-rule="evenodd" d="M155.167 55.1491L155.159 55.1444C151.417 52.7777 148.506 49.3811 146.41 45.0271C144.298 40.6406 143.279 35.4115 143.279 29.4001C143.279 23.3886 144.298 18.1595 146.41 13.773C148.506 9.41943 151.418 6.04446 155.167 3.72706C158.899 1.36927 163.114 0.202881 167.764 0.202881C172.458 0.202881 176.678 1.36622 180.366 3.73002C184.112 6.04733 187.023 9.42128 189.118 13.773C191.23 18.1595 192.249 23.3886 192.249 29.4001C192.249 35.4115 191.23 40.6406 189.118 45.0271C187.022 49.3811 184.111 52.7777 180.369 55.1444L180.363 55.1479C176.674 57.4607 172.456 58.5973 167.764 58.5973C163.119 58.5973 158.906 57.4587 155.174 55.1538L155.167 55.1491ZM172.145 43.4066L172.156 43.3987C173.367 42.5 174.422 40.9872 175.213 38.6616L175.217 38.6474L175.222 38.6333C176.045 36.3491 176.491 33.2936 176.491 29.4001C176.491 25.5065 176.045 22.451 175.222 20.1669L175.217 20.1527L175.213 20.1385C174.422 17.813 173.367 16.3001 172.156 15.4014L172.145 15.3935L172.135 15.3854C170.934 14.4651 169.504 13.9852 167.764 13.9852C166.09 13.9852 164.649 14.4571 163.383 15.3935C162.21 16.2969 161.152 17.8201 160.311 20.1526C159.534 22.446 159.113 25.5077 159.113 29.4001C159.113 33.2924 159.533 36.3541 160.311 38.6475C161.153 40.9801 162.21 42.5033 163.383 43.4067C164.649 44.343 166.09 44.8149 167.764 44.8149C169.504 44.8149 170.934 44.335 172.135 43.4147L172.145 43.4066ZM158.72 39.2041C157.859 36.6707 157.428 33.4027 157.428 29.4001C157.428 25.3974 157.859 22.1294 158.72 19.5961C159.632 17.0627 160.848 15.2134 162.368 14.0481C163.939 12.8827 165.737 12.3001 167.764 12.3001C169.841 12.3001 171.64 12.8827 173.16 14.0481C174.731 15.2134 175.947 17.0627 176.808 19.5961C177.72 22.1294 178.176 25.3974 178.176 29.4001C178.176 33.4027 177.72 36.6707 176.808 39.2041C175.947 41.7374 174.731 43.5867 173.16 44.7521C171.64 45.9174 169.841 46.5001 167.764 46.5001C165.737 46.5001 163.939 45.9174 162.368 44.7521C160.848 43.5867 159.632 41.7374 158.72 39.2041ZM202.772 57.6853V14.3652H192.132V1.11488H218.454V57.6853H202.772ZM204.457 12.6801V56.0001H216.769V2.80006H193.817V12.6801H204.457ZM156.06 53.7201C159.505 55.8481 163.407 56.9121 167.764 56.9121C172.172 56.9121 176.073 55.8481 179.468 53.7201C182.913 51.5414 185.624 48.4001 187.6 44.2961C189.576 40.1921 190.564 35.2267 190.564 29.4001C190.564 23.5734 189.576 18.6081 187.6 14.5041C185.624 10.4001 182.913 7.28406 179.468 5.15606C176.073 2.9774 172.172 1.88807 167.764 1.88807C163.407 1.88807 159.505 2.9774 156.06 5.15606C152.615 7.28406 149.904 10.4001 147.928 14.5041C145.952 18.6081 144.964 23.5734 144.964 29.4001C144.964 35.2267 145.952 40.1921 147.928 44.2961C149.904 48.4001 152.615 51.5414 156.06 53.7201Z" fill="#112242"/>
<path d="M3.735 56.0001V24.5001H17.37C20.19 24.5001 22.62 24.9651 24.66 25.8951C26.7 26.7951 28.275 28.1001 29.385 29.8101C30.495 31.5201 31.05 33.5601 31.05 35.9301C31.05 38.2701 30.495 40.2951 29.385 42.0051C28.275 43.7151 26.7 45.0351 24.66 45.9651C22.62 46.8651 20.19 47.3151 17.37 47.3151H7.785L11.025 44.0301V56.0001H3.735ZM11.025 44.8401L7.785 41.3751H16.965C19.215 41.3751 20.895 40.8951 22.005 39.9351C23.115 38.9751 23.67 37.6401 23.67 35.9301C23.67 34.1901 23.115 32.8401 22.005 31.8801C20.895 30.9201 19.215 30.4401 16.965 30.4401H7.785L11.025 26.9751V44.8401ZM51.994 56.5401C49.504 56.5401 47.194 56.1351 45.064 55.3251C42.964 54.5151 41.134 53.3751 39.574 51.9051C38.044 50.4351 36.844 48.7101 35.974 46.7301C35.134 44.7501 34.714 42.5901 34.714 40.2501C34.714 37.9101 35.134 35.7501 35.974 33.7701C36.844 31.7901 38.059 30.0651 39.619 28.5951C41.179 27.1251 43.009 25.9851 45.109 25.1751C47.209 24.3651 49.489 23.9601 51.949 23.9601C54.439 23.9601 56.719 24.3651 58.789 25.1751C60.889 25.9851 62.704 27.1251 64.234 28.5951C65.794 30.0651 67.009 31.7901 67.879 33.7701C68.749 35.7201 69.184 37.8801 69.184 40.2501C69.184 42.5901 68.749 44.7651 67.879 46.7751C67.009 48.7551 65.794 50.4801 64.234 51.9501C62.704 53.3901 60.889 54.5151 58.789 55.3251C56.719 56.1351 54.454 56.5401 51.994 56.5401ZM51.949 50.3301C53.359 50.3301 54.649 50.0901 55.819 49.6101C57.019 49.1301 58.069 48.4401 58.969 47.5401C59.869 46.6401 60.559 45.5751 61.039 44.3451C61.549 43.1151 61.804 41.7501 61.804 40.2501C61.804 38.7501 61.549 37.3851 61.039 36.1551C60.559 34.9251 59.869 33.8601 58.969 32.9601C58.099 32.0601 57.064 31.3701 55.864 30.8901C54.664 30.4101 53.359 30.1701 51.949 30.1701C50.539 30.1701 49.234 30.4101 48.034 30.8901C46.864 31.3701 45.829 32.0601 44.929 32.9601C44.029 33.8601 43.324 34.9251 42.814 36.1551C42.334 37.3851 42.094 38.7501 42.094 40.2501C42.094 41.7201 42.334 43.0851 42.814 44.3451C43.324 45.5751 44.014 46.6401 44.884 47.5401C45.784 48.4401 46.834 49.1301 48.034 49.6101C49.234 50.0901 50.539 50.3301 51.949 50.3301ZM74.6627 56.0001V24.5001H81.9527V56.0001H74.6627ZM89.4284 56.0001V24.5001H95.4584L114.043 47.1801H111.118V24.5001H118.318V56.0001H112.333L93.7034 33.3201H96.6284V56.0001H89.4284ZM132.296 56.0001V30.4401H122.216V24.5001H149.666V30.4401H139.586V56.0001H132.296Z" fill="#112242"/>
<circle cx="51.9995" cy="40.5987" r="13.4722" fill="#112242"/>
<ellipse cx="55.4485" cy="28.8357" rx="3.1194" ry="2.95522" fill="white"/>
<circle cx="55.7426" cy="38.8174" r="2.1005" fill="white"/>
<circle cx="43.0194" cy="42.6996" r="2.1005" fill="white"/>
<circle cx="51.0155" cy="52.1498" r="3.28358" fill="white"/>
<circle cx="63.9521" cy="38.16" r="2.1005" fill="white"/>
<path d="M47.3509 23.2477C37.7683 25.8153 32.0815 35.6651 34.6491 45.2477C37.2168 54.8303 47.0666 60.517 56.6491 57.9494C66.2317 55.3818 71.9185 45.532 69.3509 35.9494C66.7832 26.3668 56.9335 20.68 47.3509 23.2477ZM58.6637 29.0567C64.4696 32.4087 66.6633 39.322 64.5277 45.155L41.7901 32.0276C45.7765 27.2584 52.861 25.7066 58.6637 29.0567ZM45.3363 52.1404C39.5304 48.7884 37.3367 41.8751 39.4723 36.0421L62.2099 49.1695C58.2235 53.9387 51.139 55.4906 45.3363 52.1404Z" fill="#DC3001"/>
<circle cx="45.5549" cy="27.6336" r="5.21504" fill="#112242"/>
<circle cx="45.626" cy="19.3039" r="1.30376" fill="#112242"/>
<circle cx="38.5289" cy="23.1432" r="1.30376" fill="#112242"/>
<rect x="45.1191" y="20.028" width="1.01404" height="3.11454" fill="#112242"/>
<rect x="38.7446" y="23.9865" width="1.01404" height="3.11454" transform="rotate(-56.3145 38.7446 23.9865)" fill="#112242"/>
</svg>
