<svg width="500" height="501" viewBox="0 0 500 501" fill="none" xmlns="http://www.w3.org/2000/svg">
<path d="M451.32 208.22C444.32 195.76 432.17 185.08 417.5 183.13C402.41 181.13 387.61 188.51 375.77 197.68C363.879 206.851 353.719 218.07 345.77 230.81C341.14 238.27 336.41 246.93 327.7 249.36C319.5 251.64 310.88 247.36 304.27 242.18C297.66 237 291.72 230.68 283.75 227.73C262.99 220.04 239.83 238.48 218.27 233.16C199.7 228.58 190.81 209.16 179.27 194.51C160.21 170.39 127.09 156.45 95.91 161.51C64.73 166.57 41 218.98 36.71 248.91L463.8 248.77C461.12 234.85 458.35 220.67 451.32 208.22Z" fill="#EBEBEB"/>
<path d="M117.35 100.11C117.73 97.32 113.8 95.03 110.84 94.79C109.427 94.8472 108.013 94.7263 106.63 94.43C103.74 93.43 102.63 89.68 99.76 88.49C97.65 87.6 95.22 88.39 93.18 89.42C91.14 90.45 89.11 91.75 86.82 91.89C84.82 92.02 82.67 91.28 80.93 92.25C79.64 92.98 78.93 94.47 77.76 95.35C76.5216 96.1289 75.0826 96.5286 73.62 96.5C72.1662 96.4645 70.7185 96.6984 69.35 97.19C68.6712 97.4547 68.0962 97.9317 67.7106 98.5498C67.325 99.1679 67.1494 99.894 67.21 100.62L117.35 100.11Z" fill="#F5F5F5"/>
<path d="M250.23 126.64C250.61 123.85 246.68 121.56 243.72 121.32C242.307 121.377 240.893 121.256 239.51 120.96C236.62 119.96 235.51 116.21 232.64 115.02C230.53 114.13 228.1 114.92 226.06 115.95C224.02 116.98 221.99 118.28 219.7 118.43C217.7 118.55 215.55 117.82 213.82 118.79C212.52 119.51 211.82 121 210.65 121.89C209.403 122.654 207.962 123.043 206.5 123.01C205.045 122.973 203.597 123.21 202.23 123.71C201.553 123.974 200.979 124.45 200.594 125.066C200.208 125.682 200.032 126.406 200.09 127.13L250.23 126.64Z" fill="#F5F5F5"/>
<path d="M468.1 125C468.79 120 461.71 115.85 456.38 115.42C453.84 115.22 451.21 115.61 448.8 114.77C443.59 112.95 441.51 106.22 436.42 104.07C432.62 102.47 428.25 103.9 424.56 105.75C420.87 107.6 417.23 109.94 413.12 110.21C409.54 110.43 405.65 109.11 402.51 110.86C400.18 112.16 398.96 114.86 396.8 116.44C394.64 118.02 391.95 118.32 389.34 118.44C386.73 118.56 384.02 118.61 381.64 119.7C379.26 120.79 377.3 123.3 377.79 125.87L468.1 125Z" fill="#EBEBEB"/>
<path d="M262.54 75.22C263.41 68.87 254.46 63.65 247.72 63.11C244.51 62.85 241.18 63.34 238.14 62.28C231.55 59.98 228.92 51.47 222.49 48.76C217.68 46.76 212.15 48.54 207.49 50.88C202.83 53.22 198.23 56.18 193 56.5C188.47 56.79 183.55 55.11 179.59 57.33C176.59 58.97 175.09 62.33 172.37 64.33C169.65 66.33 166.24 66.71 162.93 66.89C159.62 67.07 156.21 67.1 153.2 68.48C150.19 69.86 147.71 73.04 148.33 76.29L262.54 75.22Z" fill="#EBEBEB"/>
<path d="M18.6299 364.88L21.8099 335.71L203.24 347.58C207.173 347.84 211.059 346.6 214.115 344.11C217.171 341.62 219.17 338.065 219.71 334.16L231.54 248.5H272.67L290.46 336.11C291.198 339.757 293.218 343.019 296.152 345.306C299.087 347.593 302.743 348.754 306.46 348.58L476.9 340.78V371.4L327.25 396.9C323.751 397.247 320.359 398.298 317.276 399.989C314.194 401.681 311.486 403.978 309.314 406.743C307.142 409.508 305.552 412.683 304.639 416.079C303.725 419.474 303.508 423.019 304 426.5L311 476.4H205.51L209.78 430.71C210.57 422.271 208.122 413.847 202.932 407.145C197.742 400.444 190.198 395.966 181.83 394.62L18.6299 364.88Z" fill="#E0E0E0"/>
<path d="M259.95 327.45H250L252.36 284.73L256.68 284.74L259.95 327.45Z" fill="#F5F5F5"/>
<path d="M263.53 426.05H250L252.41 373.15L259.81 373.17L263.53 426.05Z" fill="#F5F5F5"/>
<path d="M324.52 375.32L323.56 367.05L376.28 362.44L377.71 367.93L324.52 375.32Z" fill="#F5F5F5"/>
<path d="M431.38 363.95L430.43 355.68L476.89 351.61V357.62L431.38 363.95Z" fill="#F5F5F5"/>
<path d="M188.629 370.39L189.589 362.12L136.869 357.5L135.439 363L188.629 370.39Z" fill="#F5F5F5"/>
<path d="M71.82 357.5L72.58 350.9L20.87 344.3L20.21 350.33L71.82 357.5Z" fill="#F5F5F5"/>
<path d="M320.719 329.69H312.119V68.89C312.119 67.7495 312.572 66.6558 313.379 65.8494C314.185 65.043 315.279 64.59 316.419 64.59C317.559 64.5926 318.651 65.0465 319.457 65.8523C320.263 66.6582 320.717 67.7503 320.719 68.89V329.69Z" fill="#263238"/>
<path d="M275.64 174.4L299.47 172.19L358.38 203.9L354.44 211.21L347.01 211.18L351.96 215.83L346.57 225.84L288.04 194.34L275.64 174.4Z" fill="#DC3001"/>
<path opacity="0.3" d="M275.64 174.4L299.47 172.19L358.38 203.9L354.44 211.21L347.01 211.18L351.96 215.83L346.57 225.84L288.04 194.34L275.64 174.4Z" fill="black"/>
<path d="M274.91 171.37L291.73 169.81C293.623 169.632 295.526 170.019 297.2 170.92L353.54 201.24L349.6 208.56H342.17L347.12 213.21L341.73 223.21L285.47 192.93C283.988 192.13 282.741 190.958 281.85 189.53L273 175.25C272.769 174.883 272.636 174.463 272.614 174.03C272.591 173.597 272.68 173.166 272.872 172.777C273.063 172.388 273.351 172.054 273.708 171.808C274.064 171.562 274.478 171.411 274.91 171.37Z" fill="#DC3001"/>
<g opacity="0.2">
<path d="M339.309 221.97C339.105 221.113 338.767 220.293 338.309 219.54C336.898 217.593 335.109 215.951 333.049 214.71C326.532 210.146 319.574 206.246 312.279 203.07C308.009 201.2 303.809 199.74 300.029 198.3C296.653 197.075 293.351 195.656 290.139 194.05C287.975 192.958 285.913 191.672 283.979 190.21C283.289 189.7 282.799 189.21 282.449 188.96C282.265 188.82 282.097 188.658 281.949 188.48C281.949 188.48 282.709 189.06 284.099 190.04C286.064 191.437 288.141 192.668 290.309 193.72C293.528 195.276 296.83 196.654 300.199 197.85C303.979 199.26 308.199 200.71 312.489 202.59C319.816 205.78 326.782 209.743 333.269 214.41C335.341 215.692 337.119 217.396 338.489 219.41C338.831 219.982 339.075 220.607 339.209 221.26C339.253 221.427 339.28 221.598 339.289 221.77C339.309 221.91 339.319 221.97 339.309 221.97Z" fill="black"/>
<path d="M276.91 171.5C276.649 172.568 276.622 173.68 276.83 174.76C277.088 176.02 277.605 177.212 278.35 178.26C279.359 179.632 280.558 180.854 281.91 181.89C285.416 184.645 289.09 187.18 292.91 189.48C297.22 192.1 302.11 194.72 307.3 197.37L333.88 210.95C337.23 212.7 339.97 214.11 341.88 215.12L344.05 216.28C344.305 216.408 344.552 216.552 344.79 216.71C344.516 216.622 344.252 216.508 344 216.37L341.79 215.3L333.68 211.3L307.08 197.8C301.89 195.14 296.99 192.5 292.68 189.8C288.847 187.472 285.172 184.893 281.68 182.08C280.313 181.011 279.11 179.748 278.11 178.33C277.363 177.243 276.858 176.009 276.63 174.71C276.479 173.89 276.479 173.05 276.63 172.23C276.701 171.979 276.795 171.735 276.91 171.5Z" fill="black"/>
<path d="M300.07 182.39C299.882 182.169 299.715 181.931 299.57 181.68C299.112 180.985 298.614 180.318 298.08 179.68C296.119 177.382 293.683 175.536 290.94 174.27C290.044 173.84 289.105 173.505 288.14 173.27C287.118 173.011 286.043 173.06 285.05 173.41C284.531 173.587 284.065 173.891 283.695 174.294C283.324 174.698 283.061 175.188 282.93 175.72C282.822 176.905 283.181 178.085 283.93 179.01C286.81 183.16 291.38 186.54 296.44 189.41C297.71 190.13 298.98 190.84 300.24 191.48C301.437 192.145 302.771 192.528 304.14 192.6C304.781 192.632 305.421 192.516 306.011 192.261C306.6 192.006 307.123 191.619 307.54 191.13C308.261 190.112 308.556 188.852 308.36 187.62C308.164 186.425 307.743 185.278 307.12 184.24C306.53 183.24 305.88 182.24 305.25 181.31C304.066 179.6 302.727 178.004 301.25 176.54C299.089 174.428 296.608 172.669 293.9 171.33C292.9 170.86 292.18 170.53 291.65 170.33C291.383 170.229 291.122 170.112 290.87 169.98C291.15 170.04 291.424 170.123 291.69 170.23C292.472 170.499 293.24 170.81 293.99 171.16C296.76 172.441 299.299 174.175 301.5 176.29C303.022 177.749 304.401 179.349 305.62 181.07C306.26 182 306.92 182.97 307.53 184.07C308.188 185.153 308.636 186.351 308.85 187.6C309.069 188.966 308.742 190.363 307.94 191.49C307.477 192.039 306.895 192.475 306.238 192.765C305.581 193.054 304.867 193.19 304.15 193.16C302.695 193.101 301.274 192.704 300 192C298.71 191.35 297.45 190.64 296.17 189.92C291.08 187.04 286.45 183.61 283.53 179.34C282.731 178.301 282.372 176.991 282.53 175.69C282.679 175.086 282.979 174.53 283.4 174.072C283.821 173.614 284.35 173.27 284.94 173.07C286.016 172.699 287.178 172.654 288.28 172.94C289.266 173.169 290.225 173.504 291.14 173.94C294.69 175.581 297.673 178.24 299.71 181.58C299.845 181.843 299.966 182.113 300.07 182.39Z" fill="black"/>
<path d="M351.839 204.57C351.839 204.62 351.029 204.23 349.499 203.92C347.316 203.573 345.092 203.573 342.909 203.92C340.139 204.23 336.909 205.09 333.099 205.13C331.119 205.14 329.152 204.802 327.289 204.13C325.3 203.406 323.427 202.396 321.729 201.13C318.496 198.657 315.749 195.606 313.629 192.13C311.908 189.313 310.358 186.394 308.989 183.39C307.779 180.85 306.789 178.81 306.049 177.39L305.209 175.79C305.096 175.612 305.006 175.42 304.939 175.22C305.077 175.381 305.197 175.555 305.299 175.74C305.529 176.09 305.839 176.61 306.229 177.29C307.019 178.66 308.069 180.68 309.319 183.2C310.727 186.166 312.299 189.05 314.029 191.84C316.139 195.246 318.85 198.241 322.029 200.68C325.201 203.137 329.079 204.508 333.089 204.59C336.769 204.59 340.089 203.77 342.859 203.5C345.079 203.195 347.335 203.269 349.529 203.72C350.12 203.855 350.699 204.039 351.259 204.27C351.465 204.343 351.661 204.444 351.839 204.57Z" fill="black"/>
<path d="M331.21 194.5C331.004 194.445 330.803 194.371 330.61 194.28C330.23 194.12 329.68 193.87 328.97 193.51C328.26 193.15 327.43 192.69 326.48 192.09C326 191.797 325.5 191.463 324.98 191.09C324.376 190.744 323.862 190.261 323.48 189.68C323.361 189.492 323.309 189.27 323.331 189.049C323.353 188.829 323.447 188.621 323.6 188.46C323.772 188.325 323.976 188.234 324.192 188.195C324.408 188.157 324.631 188.172 324.84 188.24C325.62 188.45 326.35 188.71 327.14 188.98C328.7 189.53 330.35 190.19 332.04 190.98C333.809 191.798 335.531 192.712 337.2 193.72C338.16 194.203 338.987 194.914 339.61 195.79C339.78 196.04 339.892 196.326 339.936 196.626C339.98 196.926 339.956 197.232 339.864 197.521C339.773 197.81 339.617 198.074 339.408 198.294C339.199 198.514 338.943 198.684 338.66 198.79C337.617 199.154 336.506 199.277 335.41 199.15C334.371 199.099 333.337 198.966 332.32 198.75C330.391 198.361 328.526 197.705 326.78 196.8C324.303 195.522 322.109 193.759 320.326 191.617C318.543 189.475 317.208 186.997 316.4 184.33C316.219 183.753 316.076 183.165 315.97 182.57C315.918 182.364 315.891 182.152 315.89 181.94C315.94 181.94 316.1 182.79 316.6 184.27C317.302 186.356 318.313 188.324 319.6 190.11C321.529 192.748 324.054 194.893 326.97 196.37C328.682 197.242 330.505 197.874 332.39 198.25C333.379 198.452 334.381 198.579 335.39 198.63C336.401 198.753 337.427 198.644 338.39 198.31C338.609 198.222 338.806 198.087 338.967 197.914C339.127 197.741 339.248 197.535 339.32 197.31C339.381 197.093 339.395 196.865 339.358 196.642C339.322 196.419 339.237 196.206 339.11 196.02C338.534 195.214 337.772 194.559 336.89 194.11C335.237 193.111 333.535 192.196 331.79 191.37C330.12 190.58 328.49 189.91 326.95 189.37C326.18 189.09 325.41 188.81 324.71 188.62C324.562 188.565 324.404 188.545 324.248 188.562C324.091 188.58 323.941 188.634 323.81 188.72C323.714 188.823 323.656 188.955 323.645 189.095C323.634 189.234 323.671 189.374 323.75 189.49C324.101 190.028 324.574 190.477 325.13 190.8C325.63 191.18 326.13 191.51 326.58 191.8C327.51 192.41 328.34 192.9 329.02 193.28C329.7 193.66 330.24 193.95 330.61 194.14C330.825 194.233 331.027 194.354 331.21 194.5Z" fill="black"/>
</g>
<path d="M368.999 150L368.869 149.89L352.019 139.89L285.279 135.22L284.699 143.5L290.999 147.5L284.339 148.79L283.539 160.13L346.059 164.5C348.511 164.671 350.966 164.199 353.179 163.13L365.549 157.13C368.149 155.88 368.999 152.98 368.999 150Z" fill="#DC3001"/>
<path opacity="0.3" d="M368.999 150L368.869 149.89L352.019 139.89L285.279 135.22L284.699 143.5L290.999 147.5L284.339 148.79L283.539 160.13L346.059 164.5C348.511 164.671 350.966 164.199 353.179 163.13L365.549 157.13C366.7 156.35 367.625 155.28 368.231 154.028C368.837 152.776 369.101 151.387 368.999 150Z" fill="black"/>
<path d="M367.999 148.66L354.619 138.35C353.115 137.182 351.298 136.486 349.399 136.35L285.569 131.88L284.989 140.17L291.289 144.11L284.629 145.4L283.829 156.74L347.569 161.21C349.25 161.327 350.932 161.003 352.449 160.27L367.559 152.96C367.947 152.769 368.28 152.483 368.526 152.128C368.773 151.773 368.926 151.362 368.97 150.932C369.014 150.502 368.948 150.068 368.778 149.671C368.608 149.273 368.34 148.925 367.999 148.66Z" fill="#DC3001"/>
<g opacity="0.2">
<path d="M286.49 157.03C286.49 157.03 286.49 156.97 286.59 156.88C286.692 156.74 286.806 156.61 286.93 156.49C287.397 156.017 287.938 155.622 288.53 155.32C290.766 154.333 293.187 153.835 295.63 153.86C303.607 153.37 311.613 153.742 319.51 154.97C324.14 155.67 328.51 156.7 332.43 157.53C335.918 158.319 339.447 158.917 343 159.32C345.394 159.584 347.805 159.654 350.21 159.53C351.91 159.44 352.85 159.3 352.86 159.36C352.638 159.426 352.411 159.47 352.18 159.49C351.519 159.607 350.851 159.687 350.18 159.73C347.765 159.95 345.335 159.95 342.92 159.73C339.347 159.371 335.798 158.807 332.29 158.04C328.29 157.23 323.99 156.22 319.39 155.52C311.525 154.315 303.559 153.897 295.61 154.27C293.215 154.22 290.835 154.652 288.61 155.54C287.83 155.923 287.115 156.426 286.49 157.03Z" fill="black"/>
<path d="M366.22 147.67C366.177 147.954 366.103 148.232 366 148.5C365.699 149.277 365.259 149.992 364.7 150.61C363.805 151.579 362.719 152.352 361.51 152.88C359.913 153.539 358.229 153.963 356.51 154.14C352.053 154.654 347.566 154.867 343.08 154.78C338.03 154.72 332.48 154.34 326.67 153.78L296.96 150.91L287.96 149.97L285.51 149.69C285.227 149.671 284.946 149.627 284.67 149.56C284.953 149.533 285.237 149.533 285.52 149.56L287.98 149.74L296.98 150.51L326.71 153.23C332.51 153.76 338.04 154.15 343.08 154.23C347.543 154.342 352.009 154.169 356.45 153.71C358.163 153.558 359.847 153.164 361.45 152.54C362.638 152.054 363.711 151.325 364.6 150.4C365.325 149.613 365.876 148.683 366.22 147.67Z" fill="black"/>
<path d="M340.809 144.5C341.05 144.341 341.3 144.197 341.559 144.07C342.304 143.709 343.068 143.392 343.849 143.12C346.743 142.144 349.818 141.826 352.849 142.19C353.87 142.3 354.875 142.518 355.849 142.84C356.936 143.184 357.896 143.842 358.609 144.73C359.001 145.215 359.264 145.791 359.374 146.404C359.484 147.018 359.438 147.649 359.239 148.24C358.668 149.421 357.655 150.329 356.419 150.77C351.659 152.77 345.919 153.24 340.069 152.95C338.599 152.88 337.159 152.81 335.729 152.67C334.281 152.585 332.871 152.168 331.609 151.45C330.986 151.092 330.454 150.596 330.053 150C329.652 149.403 329.395 148.722 329.299 148.01C329.226 146.63 329.696 145.277 330.609 144.24C331.455 143.295 332.473 142.521 333.609 141.96C334.679 141.4 335.749 140.96 336.799 140.48C338.737 139.679 340.746 139.063 342.799 138.64C345.79 138.024 348.863 137.916 351.889 138.32C352.711 138.42 353.525 138.567 354.329 138.76C354.616 138.812 354.897 138.889 355.169 138.99C354.88 138.964 354.593 138.92 354.309 138.86C353.759 138.76 352.929 138.63 351.869 138.52C348.863 138.203 345.825 138.365 342.869 139C340.836 139.445 338.848 140.074 336.929 140.88C335.929 141.33 334.829 141.81 333.779 142.36C332.7 142.904 331.733 143.647 330.929 144.55C330.103 145.488 329.676 146.712 329.739 147.96C329.83 148.597 330.067 149.205 330.431 149.736C330.795 150.267 331.277 150.706 331.839 151.02C333.033 151.691 334.363 152.081 335.729 152.16C337.139 152.29 338.589 152.36 340.049 152.43C345.859 152.72 351.529 152.3 356.169 150.33C357.293 149.947 358.223 149.139 358.759 148.08C358.936 147.56 358.978 147.004 358.882 146.464C358.786 145.924 358.555 145.417 358.209 144.99C357.556 144.162 356.672 143.547 355.669 143.22C354.734 142.893 353.764 142.672 352.779 142.56C349.784 142.16 346.737 142.416 343.849 143.31C342.849 143.63 342.069 143.96 341.549 144.17C341.312 144.299 341.064 144.409 340.809 144.5Z" fill="black"/>
<path d="M285.2 135.62C285.412 135.613 285.624 135.633 285.83 135.68C286.43 135.78 287.019 135.933 287.59 136.14C289.684 136.929 291.629 138.068 293.34 139.51C295.57 141.24 297.91 143.68 301.02 145.66C304.455 147.733 308.467 148.645 312.46 148.26C316.469 147.909 320.38 146.828 324 145.07C326.954 143.635 329.825 142.036 332.6 140.28C335 138.82 336.97 137.67 338.36 136.94C339.06 136.57 339.61 136.3 339.98 136.13C340.166 136.023 340.364 135.939 340.57 135.88C340.403 136.013 340.222 136.127 340.03 136.22L338.46 137.12C337.1 137.9 335.17 139.12 332.8 140.6C330.038 142.404 327.169 144.04 324.21 145.5C320.557 147.308 316.6 148.42 312.54 148.78C310.433 148.94 308.313 148.789 306.25 148.33C304.321 147.902 302.483 147.137 300.82 146.07C297.65 144.07 295.34 141.55 293.16 139.8C291.494 138.352 289.607 137.18 287.57 136.33C286.794 136.05 286.003 135.813 285.2 135.62Z" fill="black"/>
<path d="M308 138.12C308.21 138.1 308.421 138.1 308.63 138.12C309.04 138.12 309.63 138.21 310.43 138.25C311.23 138.29 312.17 138.32 313.28 138.3C313.84 138.3 314.43 138.3 315.06 138.22C315.701 138.232 316.336 138.103 316.92 137.84C317.049 137.785 317.155 137.688 317.221 137.564C317.287 137.44 317.307 137.297 317.28 137.16C317.22 136.9 316.92 136.71 316.58 136.59C315.88 136.38 315.08 136.21 314.29 136.03C312.68 135.68 310.95 135.38 309.11 135.15C307.27 134.92 305.34 134.79 303.33 134.75C302.347 134.65 301.354 134.794 300.44 135.17C300.231 135.264 300.046 135.402 299.895 135.574C299.745 135.747 299.634 135.95 299.57 136.17C299.518 136.395 299.515 136.628 299.562 136.855C299.608 137.081 299.703 137.294 299.84 137.48C300.479 138.274 301.289 138.914 302.21 139.35C303.094 139.853 304.017 140.284 304.97 140.64C306.762 141.329 308.639 141.773 310.55 141.96C313.806 142.264 317.088 141.798 320.13 140.6C322.181 139.787 324.096 138.668 325.81 137.28C327.03 136.28 327.62 135.66 327.65 135.69C327.68 135.72 327.53 135.87 327.25 136.18C326.86 136.644 326.443 137.085 326 137.5C323.896 139.327 321.445 140.711 318.794 141.57C316.143 142.429 313.346 142.745 310.57 142.5C308.61 142.326 306.682 141.885 304.84 141.19C303.866 140.826 302.923 140.385 302.02 139.87C301.025 139.412 300.152 138.727 299.47 137.87C299.292 137.623 299.17 137.341 299.111 137.042C299.052 136.744 299.059 136.436 299.13 136.14C299.214 135.852 299.359 135.586 299.556 135.36C299.753 135.133 299.997 134.953 300.27 134.83C301.259 134.418 302.334 134.256 303.4 134.36C305.35 134.4 307.296 134.547 309.23 134.8C311.08 135.04 312.83 135.36 314.44 135.73C315.26 135.92 316.01 136.09 316.78 136.33C316.992 136.386 317.188 136.493 317.35 136.641C317.512 136.789 317.635 136.974 317.71 137.18C317.755 137.397 317.726 137.623 317.628 137.822C317.531 138.021 317.37 138.182 317.17 138.28C316.542 138.56 315.858 138.694 315.17 138.67C314.53 138.67 313.93 138.67 313.37 138.67C312.25 138.67 311.29 138.6 310.51 138.53C309.73 138.46 309.12 138.38 308.71 138.31C308.465 138.282 308.226 138.218 308 138.12Z" fill="black"/>
</g>
<path d="M273.6 105.37L294 117.89L360.85 115.49L360.56 107.19L353.88 103.92L360.37 101.94L359.96 90.58L293.54 92.96L273.6 105.37Z" fill="#DC3001"/>
<path opacity="0.3" d="M273.6 105.37L294 117.89L360.85 115.49L360.56 107.19L353.88 103.92L360.37 101.94L359.96 90.58L293.54 92.96L273.6 105.37Z" fill="black"/>
<path d="M271.6 107.77L286 116.6C287.619 117.598 289.499 118.092 291.4 118.02L355.34 115.73L355.04 107.43L348.36 104.17L354.85 102.17L354.45 90.8099L290.6 93.1099C288.913 93.1689 287.272 93.6688 285.84 94.5599L271.59 103.43C271.22 103.659 270.915 103.979 270.704 104.36C270.493 104.74 270.383 105.168 270.384 105.603C270.385 106.038 270.497 106.465 270.71 106.844C270.923 107.224 271.229 107.542 271.6 107.77Z" fill="#DC3001"/>
<g opacity="0.2">
<path d="M351.739 90.84C351.719 90.8981 351.688 90.9523 351.649 91C351.565 91.148 351.468 91.2885 351.359 91.42C350.941 91.9398 350.446 92.3919 349.889 92.76C347.769 93.9697 345.418 94.7193 342.989 94.96C335.106 96.2861 327.104 96.7621 319.119 96.38C314.439 96.17 310.019 95.6 305.999 95.19C302.447 94.7698 298.876 94.5395 295.299 94.5C292.892 94.4879 290.487 94.6719 288.109 95.05C286.429 95.32 285.509 95.56 285.489 95.5C285.705 95.4212 285.926 95.3545 286.149 95.3C286.589 95.19 287.229 95 288.069 94.85C290.453 94.3941 292.873 94.1531 295.299 94.13C298.89 94.1073 302.479 94.2909 306.049 94.68C310.049 95.07 314.489 95.62 319.139 95.83C327.092 96.2013 335.061 95.7759 342.929 94.56C345.323 94.3571 347.652 93.6771 349.779 92.56C350.514 92.0869 351.175 91.5072 351.739 90.84Z" fill="black"/>
<path d="M273.439 108.57C273.447 108.282 273.49 107.997 273.569 107.72C273.785 106.917 274.148 106.161 274.639 105.49C275.422 104.427 276.421 103.541 277.569 102.89C279.099 102.063 280.739 101.46 282.439 101.1C286.814 100.144 291.247 99.4762 295.709 99.0999C300.709 98.6299 306.309 98.4199 312.139 98.3299L341.999 97.9999H351.049H353.509C353.796 97.9764 354.083 97.9764 354.369 97.9999C354.085 98.0463 353.798 98.0698 353.509 98.0699L351.049 98.1399L342.049 98.3299L312.199 98.7599C306.369 98.8499 300.829 99.0399 295.809 99.4899C291.342 99.8817 286.903 100.553 282.519 101.5C280.845 101.834 279.225 102.403 277.709 103.19C276.58 103.8 275.589 104.637 274.799 105.65C274.144 106.516 273.681 107.511 273.439 108.57Z" fill="black"/>
<path d="M298.999 109C298.782 109.191 298.547 109.362 298.299 109.51C297.6 109.955 296.871 110.352 296.119 110.7C293.337 111.984 290.303 112.626 287.239 112.58C286.23 112.572 285.225 112.461 284.239 112.25C283.127 112.021 282.107 111.468 281.309 110.66C280.868 110.218 280.545 109.672 280.37 109.073C280.196 108.473 280.175 107.84 280.309 107.23C280.754 105.996 281.667 104.987 282.849 104.42C287.359 101.89 293.029 100.86 298.849 100.52C300.319 100.44 301.759 100.36 303.199 100.34C304.648 100.274 306.092 100.544 307.419 101.13C308.077 101.418 308.66 101.854 309.123 102.404C309.586 102.954 309.917 103.602 310.089 104.3C310.307 105.666 309.98 107.063 309.179 108.19C308.434 109.217 307.501 110.092 306.429 110.77C305.429 111.45 304.429 112.03 303.429 112.58C301.578 113.585 299.636 114.412 297.629 115.05C294.721 115.972 291.679 116.404 288.629 116.33C287.803 116.315 286.979 116.255 286.159 116.15C285.872 116.132 285.587 116.085 285.309 116.01C285.595 115.99 285.883 115.99 286.169 116.01C286.729 116.01 287.559 116.1 288.629 116.1C291.649 116.093 294.649 115.61 297.519 114.67C299.497 114.019 301.409 113.182 303.229 112.17C304.229 111.62 305.229 111.03 306.229 110.36C307.249 109.712 308.135 108.873 308.839 107.89C309.558 106.867 309.852 105.605 309.659 104.37C309.5 103.747 309.2 103.168 308.782 102.679C308.364 102.191 307.84 101.804 307.249 101.55C305.988 101.008 304.62 100.762 303.249 100.83C301.839 100.83 300.389 100.93 298.929 101.01C293.119 101.35 287.529 102.36 283.119 104.81C282.038 105.305 281.197 106.207 280.779 107.32C280.663 107.854 280.682 108.408 280.836 108.932C280.99 109.457 281.273 109.934 281.659 110.32C282.396 111.075 283.338 111.596 284.369 111.82C285.334 112.042 286.319 112.16 287.309 112.17C290.33 112.246 293.331 111.67 296.109 110.48C296.861 110.152 297.596 109.785 298.309 109.38C298.531 109.239 298.761 109.112 298.999 109Z" fill="black"/>
<path d="M355.279 112C355.07 112.02 354.859 112.02 354.649 112C354.042 111.964 353.44 111.874 352.849 111.73C350.681 111.165 348.625 110.235 346.769 108.98C344.369 107.5 341.769 105.32 338.489 103.68C334.855 101.981 330.77 101.497 326.839 102.3C322.907 103.08 319.15 104.567 315.749 106.69C312.963 108.429 310.275 110.322 307.699 112.36C305.469 114.07 303.629 115.42 302.319 116.29C301.669 116.73 301.149 117.06 300.799 117.29C300.623 117.411 300.436 117.515 300.239 117.6C300.392 117.45 300.56 117.316 300.739 117.2L302.209 116.14C303.479 115.22 305.269 113.83 307.469 112.09C310.018 110.002 312.689 108.068 315.469 106.3C318.91 104.122 322.724 102.6 326.719 101.81C328.8 101.424 330.927 101.35 333.029 101.59C334.992 101.819 336.901 102.387 338.669 103.27C342.029 104.97 344.589 107.19 346.939 108.69C348.766 109.934 350.777 110.883 352.899 111.5C354.409 111.94 355.289 111.94 355.279 112Z" fill="black"/>
<path d="M332.319 111.92C332.109 111.933 331.899 111.933 331.689 111.92C331.279 111.92 330.689 111.92 329.889 111.98C329.089 112.04 328.149 112.1 327.049 112.24C326.499 112.31 325.909 112.4 325.289 112.51C324.65 112.559 324.031 112.754 323.479 113.08C323.357 113.147 323.262 113.254 323.209 113.384C323.156 113.513 323.149 113.656 323.189 113.79C323.269 113.926 323.379 114.041 323.511 114.126C323.643 114.211 323.793 114.264 323.949 114.28C324.659 114.42 325.479 114.51 326.289 114.6C327.919 114.78 329.679 114.9 331.519 114.92C333.455 114.955 335.391 114.889 337.319 114.72C338.307 114.71 339.277 114.463 340.149 114C340.346 113.884 340.515 113.728 340.646 113.542C340.777 113.356 340.867 113.144 340.909 112.92C340.934 112.691 340.911 112.46 340.84 112.241C340.77 112.022 340.653 111.821 340.499 111.65C339.782 110.927 338.91 110.377 337.949 110.04C337.017 109.632 336.054 109.298 335.069 109.04C333.213 108.546 331.3 108.304 329.379 108.32C326.109 108.357 322.895 109.169 319.999 110.69C318.045 111.709 316.257 113.021 314.699 114.58C313.599 115.69 313.069 116.39 313.029 116.36C313.133 116.173 313.253 115.995 313.389 115.83C313.748 115.344 314.135 114.88 314.549 114.44C316.453 112.405 318.746 110.773 321.291 109.639C323.836 108.506 326.583 107.894 329.369 107.84C331.335 107.807 333.297 108.042 335.199 108.54C336.207 108.798 337.193 109.133 338.149 109.54C339.189 109.907 340.131 110.509 340.899 111.3C341.103 111.525 341.255 111.792 341.345 112.083C341.434 112.373 341.46 112.679 341.419 112.98C341.372 113.278 341.257 113.562 341.083 113.81C340.91 114.057 340.683 114.263 340.419 114.41C339.475 114.92 338.422 115.194 337.349 115.21C335.407 115.374 333.458 115.431 331.509 115.38C329.639 115.38 327.869 115.21 326.229 115.01C325.399 114.9 324.629 114.81 323.839 114.65C323.625 114.616 323.423 114.531 323.249 114.402C323.075 114.273 322.934 114.104 322.839 113.91C322.773 113.698 322.779 113.469 322.857 113.261C322.935 113.053 323.08 112.877 323.269 112.76C323.878 112.403 324.564 112.197 325.269 112.16C325.889 112.06 326.489 111.99 327.049 111.93C328.159 111.82 329.119 111.77 329.909 111.76C330.699 111.75 331.309 111.76 331.719 111.76C331.926 111.785 332.128 111.839 332.319 111.92Z" fill="black"/>
</g>
<path d="M446.7 248.5C446.7 248.64 359.42 248.76 251.78 248.76C144.14 248.76 56.8496 248.59 56.8496 248.5C56.8496 248.41 144.11 248.24 251.78 248.24C359.45 248.24 446.7 248.3 446.7 248.5Z" fill="#263238"/>
<path d="M67.1698 411.89C67.0798 411.89 66.7198 410.41 65.9898 408.04C65.0318 404.957 63.8486 401.949 62.4498 399.04C61.0453 396.131 59.4275 393.33 57.6098 390.66C56.2098 388.61 55.2598 387.39 55.3298 387.34C55.6089 387.57 55.8606 387.832 56.0798 388.12C56.5398 388.65 57.1698 389.44 57.9098 390.45C59.8243 393.084 61.4978 395.886 62.9098 398.82C64.3284 401.752 65.4732 404.808 66.3298 407.95C66.6598 409.16 66.8898 410.14 67.0098 410.83C67.1031 411.176 67.1568 411.532 67.1698 411.89Z" fill="#263238"/>
<path d="M73.7501 416.2C73.6201 416.2 71.0901 407.84 68.1201 397.44C65.1501 387.04 62.8501 378.57 63.0001 378.5C63.1501 378.43 65.6601 386.86 68.6301 397.26C71.6001 407.66 73.8901 416.16 73.7501 416.2Z" fill="#263238"/>
<path d="M79.1299 393.66C79.0704 394.8 78.9402 395.936 78.7399 397.06C78.4699 399.15 78.1599 402.06 77.9899 405.26C77.8199 408.46 77.8099 411.38 77.8599 413.49C77.9219 414.629 77.9219 415.771 77.8599 416.91C77.7537 416.618 77.6962 416.311 77.6899 416C77.6099 415.41 77.5399 414.56 77.4699 413.5C77.3069 410.746 77.3069 407.984 77.4699 405.23C77.6146 402.475 77.9184 399.73 78.3799 397.01C78.5599 395.96 78.7299 395.12 78.8699 394.55C78.9188 394.244 79.0061 393.945 79.1299 393.66Z" fill="#263238"/>
<path d="M364.47 222.11C364.61 222.11 366.42 227.94 368.47 235.22C370.52 242.5 372.15 248.44 372.02 248.48C371.89 248.52 370.07 242.65 367.97 235.37C365.87 228.09 364.33 222.15 364.47 222.11Z" fill="#263238"/>
<path d="M376.35 223.97C376.43 223.97 376.05 225.33 375.62 227.53C375.052 230.385 374.718 233.281 374.62 236.19C374.538 239.098 374.695 242.008 375.09 244.89C375.39 247.11 375.69 248.46 375.6 248.48C375.459 248.185 375.358 247.872 375.3 247.55C375.065 246.694 374.875 245.826 374.73 244.95C373.711 239.142 373.892 233.186 375.26 227.45C375.456 226.582 375.696 225.724 375.98 224.88C376.054 224.559 376.179 224.251 376.35 223.97Z" fill="#263238"/>
<path d="M383.74 228.64C383.81 228.69 383.12 229.64 382.17 231.36C380.941 233.55 379.935 235.858 379.17 238.25C378.43 240.65 377.941 243.119 377.71 245.62C377.53 247.55 377.54 248.75 377.45 248.75C377.369 248.478 377.332 248.194 377.34 247.91C377.299 247.141 377.299 246.369 377.34 245.6C377.603 240.488 379.15 235.525 381.84 231.17C382.246 230.514 382.687 229.879 383.16 229.27C383.51 228.85 383.71 228.62 383.74 228.64Z" fill="#263238"/>
<path d="M318.43 317.75C317.9 315.75 319.24 313.65 320.75 312.17C322.26 310.69 324.05 309.35 324.83 307.39C326.1 304.2 324.4 300.08 326.56 297.39C327.83 295.83 330.12 295.31 331.25 293.64C331.767 292.711 332.106 291.694 332.25 290.64C333.454 285.351 336.054 280.482 339.78 276.54C340.019 281.257 338.983 285.952 336.78 290.13C335.756 291.712 334.999 293.452 334.54 295.28C334.06 298.28 335.75 301.43 335.01 304.39C334.16 307.79 330.34 310.06 330.16 313.56C330.01 316.56 332.59 319.11 332.4 322.06C332.241 323.317 331.789 324.52 331.08 325.57C328.79 329.37 325.44 331.99 320.35 331.9L314.12 332.12L318.43 317.75Z" fill="#DC3001"/>
<g opacity="0.3">
<path d="M318.43 317.75C317.9 315.75 319.24 313.65 320.75 312.17C322.26 310.69 324.05 309.35 324.83 307.39C326.1 304.2 324.4 300.08 326.56 297.39C327.83 295.83 330.12 295.31 331.25 293.64C331.767 292.711 332.106 291.694 332.25 290.64C333.454 285.351 336.054 280.482 339.78 276.54C340.019 281.257 338.983 285.952 336.78 290.13C335.756 291.712 334.999 293.452 334.54 295.28C334.06 298.28 335.75 301.43 335.01 304.39C334.16 307.79 330.34 310.06 330.16 313.56C330.01 316.56 332.59 319.11 332.4 322.06C332.241 323.317 331.789 324.52 331.08 325.57C328.79 329.37 325.44 331.99 320.35 331.9L314.12 332.12L318.43 317.75Z" fill="black"/>
</g>
<path d="M312.91 332.34C312.344 332.438 311.766 332.438 311.2 332.34C310.519 332.232 309.849 332.062 309.2 331.83C308.299 331.51 307.455 331.047 306.7 330.46C306.259 330.089 305.915 329.615 305.7 329.08C305.515 328.477 305.417 327.851 305.41 327.22C305.393 326.551 305.343 325.884 305.26 325.22C305.141 324.51 304.883 323.83 304.5 323.22C303.77 321.93 302.55 320.71 302.15 318.96C301.848 317.143 301.906 315.285 302.32 313.49C302.773 311.56 302.725 309.546 302.18 307.64C301.51 305.69 300.18 303.93 299.46 301.73C298.74 299.53 299.09 297.12 298.95 294.73C298.906 293.535 298.631 292.36 298.14 291.27C297.63 290.16 296.93 289.12 296.39 287.96C295.28 285.61 295.09 282.96 294.78 280.35C294.64 279.03 294.49 277.7 294.34 276.35C294.249 274.996 294.014 273.655 293.64 272.35C293.221 271.035 292.723 269.746 292.15 268.49C291.856 267.844 291.615 267.175 291.43 266.49C291.324 265.781 291.257 265.066 291.23 264.35C291.163 262.911 291.217 261.47 291.39 260.04C291.56 258.6 291.82 257.17 291.98 255.73V255.48V255.19L292.23 255.32C293.551 255.994 294.701 256.962 295.59 258.15C296.452 259.313 297.145 260.593 297.65 261.95C298.541 264.609 299.191 267.344 299.59 270.12C299.982 272.764 300.849 275.315 302.15 277.65C302.83 278.76 303.66 279.78 304.38 280.86C305.157 281.912 305.687 283.125 305.93 284.41C306.3 287.05 304.85 289.36 305.15 291.7C305.294 292.846 305.683 293.947 306.29 294.93C306.85 295.93 307.52 296.85 308.15 297.78C308.794 298.687 309.353 299.651 309.82 300.66C310.259 301.646 310.52 302.703 310.59 303.78C310.74 305.88 310.44 307.88 310.59 309.78C310.755 311.571 311.275 313.312 312.12 314.9C312.88 316.44 313.72 317.82 314.42 319.17C314.77 319.84 315.1 320.5 315.36 321.17C315.612 321.816 315.796 322.486 315.91 323.17C316.1 324.348 316.117 325.547 315.96 326.73C315.798 328.381 315.178 329.953 314.17 331.27C314.018 331.466 313.851 331.65 313.67 331.82C313.545 331.947 313.407 332.06 313.26 332.16C313.03 332.33 312.9 332.41 312.9 332.41C313.351 332.065 313.758 331.666 314.11 331.22C315.072 329.898 315.657 328.339 315.8 326.71C315.941 325.545 315.914 324.367 315.72 323.21C315.605 322.549 315.421 321.902 315.17 321.28C314.889 320.597 314.572 319.929 314.22 319.28C313.51 317.95 312.67 316.57 311.9 315.03C311.027 313.413 310.484 311.638 310.3 309.81C310.14 307.89 310.43 305.89 310.3 303.81C310.231 302.773 309.977 301.757 309.55 300.81C309.089 299.819 308.533 298.874 307.89 297.99C307.26 297.07 306.59 296.14 306.01 295.12C305.38 294.097 304.975 292.951 304.82 291.76C304.52 289.27 305.96 286.94 305.59 284.49C305.349 283.259 304.837 282.097 304.09 281.09C303.38 280.03 302.55 279.01 301.85 277.87C300.515 275.498 299.627 272.902 299.23 270.21C298.828 267.461 298.182 264.754 297.3 262.12C296.811 260.798 296.138 259.553 295.3 258.42C294.453 257.279 293.354 256.348 292.09 255.7L292.37 255.54V255.79C292.21 257.25 291.95 258.68 291.78 260.1C291.607 261.51 291.553 262.931 291.62 264.35C291.646 265.046 291.71 265.74 291.81 266.43C291.986 267.096 292.221 267.745 292.51 268.37C293.082 269.641 293.582 270.943 294.01 272.27C294.383 273.595 294.618 274.956 294.71 276.33C294.86 277.67 295.01 279 295.15 280.33C295.45 282.95 295.65 285.57 296.71 287.84C297.24 288.96 297.94 290.01 298.46 291.15C298.966 292.282 299.248 293.501 299.29 294.74C299.43 297.14 299.11 299.49 299.76 301.62C300.41 303.75 301.76 305.51 302.46 307.53C303.016 309.486 303.061 311.552 302.59 313.53C302.178 315.287 302.11 317.107 302.39 318.89C302.75 320.56 303.93 321.77 304.68 323.1C305.069 323.738 305.333 324.444 305.46 325.18C305.539 325.844 305.583 326.511 305.59 327.18C305.59 327.796 305.677 328.409 305.85 329C306.073 329.511 306.416 329.96 306.85 330.31C307.584 330.896 308.408 331.358 309.29 331.68C309.938 331.924 310.608 332.108 311.29 332.23C311.709 332.303 312.134 332.343 312.56 332.35L312.91 332.34Z" fill="#263238"/>
<path d="M293.22 258.91C293.25 258.97 293.27 259.034 293.28 259.1C293.28 259.25 293.36 259.44 293.42 259.66C293.54 260.15 293.69 260.9 293.92 261.82C294.15 262.74 294.73 263.82 295.21 265.08C295.785 266.526 296.282 268.001 296.7 269.5C297.17 271.16 297.59 273.01 298.03 274.98C298.412 277.093 299.085 279.142 300.03 281.07C300.54 282.07 301.11 283.07 301.57 284.23C302.018 285.381 302.32 286.584 302.47 287.81C302.785 290.345 303.232 292.862 303.81 295.35C305.06 300.45 306.25 305.35 307.34 309.75L310.34 321.49C311.16 324.82 311.83 327.49 312.34 329.42C312.56 330.34 312.73 331.06 312.85 331.58L312.97 332.15C312.97 332.27 312.97 332.34 312.97 332.34C312.943 332.282 312.919 332.221 312.9 332.16L312.74 331.6C312.6 331.08 312.41 330.37 312.16 329.46L310.08 321.56C309.21 318.22 308.18 314.25 307.08 309.84C305.98 305.43 304.78 300.54 303.52 295.43C302.936 292.933 302.489 290.406 302.18 287.86C302.041 286.665 301.752 285.492 301.32 284.37C300.88 283.28 300.32 282.26 299.8 281.24C298.848 279.283 298.175 277.203 297.8 275.06C297.37 273.06 296.97 271.23 296.51 269.57C296.05 267.91 295.58 266.44 295.1 265.16C294.62 263.88 294.1 262.82 293.86 261.86C293.62 260.9 293.53 260.18 293.43 259.68C293.43 259.45 293.36 259.26 293.33 259.11C293.281 259.051 293.243 258.983 293.22 258.91Z" fill="#263238"/>
<path d="M311.81 332.36C307.74 329.94 306.57 322.6 308.27 318.18C309.97 313.76 312.94 309.71 313.4 305C313.75 301.38 312.57 297.66 313.4 294.12C314.54 289.34 319.21 285.63 319.15 280.72C319.15 277.96 317.55 275.37 317.68 272.62C317.83 269.24 320.42 266.56 322.03 263.62C324.49 259.07 324.65 253.68 325.49 248.62C326.33 243.56 328.28 238.04 332.8 235.53C333.47 239.86 334.61 242.83 334.26 248.71C334.13 250.82 331.68 254.86 331.34 259.48C331.14 262.24 331.01 265.01 330.84 267.78C330.81 270.478 330.368 273.155 329.53 275.72C328.79 277.65 327.61 279.41 327.06 281.4C326.06 285.15 327.38 289.2 326.55 293C325.84 296.22 323.62 299 323.16 302.25C322.52 306.83 325.49 311.59 323.97 315.96C323.22 318.13 321.43 319.87 320.97 322.11C320.57 323.85 320.97 325.69 320.64 327.44C320.07 330.25 314.71 332.44 311.84 332.26" fill="#DC3001"/>
<path d="M331.689 239.75C331.701 239.833 331.701 239.917 331.689 240C331.689 240.18 331.639 240.41 331.599 240.71C331.509 241.34 331.399 242.26 331.189 243.44C330.979 244.62 330.349 245.99 329.859 247.61C329.369 249.23 328.859 251.09 328.359 253.18C327.859 255.27 327.509 257.59 327.099 260.07C326.772 262.751 326.072 265.373 325.019 267.86C324.439 269.16 323.799 270.47 323.319 271.86C322.853 273.286 322.564 274.764 322.459 276.26C322.232 279.442 321.834 282.61 321.269 285.75C320.019 292.17 318.839 298.29 317.749 303.86C316.659 309.43 315.589 314.41 314.749 318.62C313.909 322.83 313.169 326.18 312.679 328.56C312.429 329.71 312.229 330.61 312.089 331.25C312.029 331.54 311.969 331.77 311.929 331.95C311.916 332.033 311.893 332.113 311.859 332.19C311.853 332.11 311.853 332.03 311.859 331.95C311.859 331.76 311.929 331.53 311.979 331.24C312.109 330.59 312.279 329.68 312.489 328.52C312.959 326.14 313.629 322.75 314.489 318.52C315.349 314.29 316.319 309.3 317.429 303.75C318.539 298.2 319.679 292.06 320.919 285.64C321.484 282.513 321.882 279.359 322.109 276.19C322.22 274.662 322.519 273.154 322.999 271.7C323.499 270.28 324.149 268.97 324.719 267.7C325.772 265.247 326.475 262.658 326.809 260.01C327.239 257.52 327.639 255.21 328.129 253.11C328.552 251.225 329.07 249.363 329.679 247.53C330.199 245.9 330.839 244.53 331.079 243.4C331.319 242.27 331.439 241.31 331.559 240.69L331.689 239.98V239.75Z" fill="#263238"/>
<path d="M399.48 426.11C400.452 426.574 401.321 427.229 402.034 428.037C402.747 428.844 403.29 429.788 403.63 430.81C404.296 432.864 404.484 435.043 404.18 437.18C403.71 441.31 401.37 445.48 398.84 448.79C395.36 445.79 394.56 440.45 394.32 437.74C393.94 433.45 395.87 425.47 399.48 426.11Z" fill="#DC3001"/>
<path d="M402.88 455.61C402.645 454.428 402.725 453.205 403.113 452.064C403.501 450.923 404.183 449.904 405.09 449.11C406.011 448.335 407.076 447.751 408.225 447.393C409.373 447.034 410.582 446.907 411.78 447.02C412.336 447.015 412.887 447.131 413.394 447.358C413.902 447.586 414.354 447.921 414.72 448.34C414.99 448.794 415.133 449.312 415.133 449.84C415.133 450.368 414.99 450.886 414.72 451.34C414.194 452.241 413.438 452.986 412.53 453.5C409.53 455.39 406.25 456.67 402.84 455.65" fill="#DC3001"/>
<path d="M398.42 468.28C398.438 467.994 398.478 467.71 398.54 467.43L398.96 465.13C399.354 462.576 400.154 460.101 401.33 457.8C402.556 455.503 404.372 453.574 406.59 452.21C407.268 451.812 407.989 451.493 408.74 451.26C408.943 451.195 409.15 451.145 409.36 451.11C409.433 451.096 409.507 451.096 409.58 451.11C408.575 451.44 407.609 451.879 406.7 452.42C404.559 453.814 402.805 455.727 401.6 457.98C400.439 460.257 399.62 462.694 399.17 465.21C398.96 466.21 398.79 466.95 398.66 467.48C398.606 467.754 398.525 468.022 398.42 468.28Z" fill="#263238"/>
<path d="M398.55 432.32C398.568 432.443 398.568 432.567 398.55 432.69C398.55 432.96 398.55 433.32 398.62 433.75C398.62 434.68 398.72 436.02 398.77 437.67C398.88 440.98 398.96 445.56 398.94 450.62C398.92 455.68 398.8 460.25 398.66 463.56C398.59 465.21 398.53 466.56 398.47 467.48C398.47 467.91 398.42 468.27 398.4 468.54C398.398 468.665 398.381 468.789 398.35 468.91C398.339 468.787 398.339 468.663 398.35 468.54C398.35 468.26 398.35 467.91 398.35 467.47C398.35 466.47 398.41 465.18 398.45 463.55C398.53 460.24 398.62 455.67 398.64 450.61C398.66 445.55 398.64 440.99 398.56 437.68C398.56 436.05 398.51 434.68 398.5 433.76V432.69C398.501 432.565 398.518 432.441 398.55 432.32Z" fill="#263238"/>
<path d="M396.86 458.12C396.438 455.618 395.428 453.252 393.912 451.218C392.395 449.184 390.417 447.539 388.14 446.42C386.97 445.86 385.45 445.49 384.5 446.36C383.55 447.23 383.76 448.78 384.22 449.98C385.237 452.483 386.972 454.628 389.208 456.145C391.444 457.661 394.079 458.481 396.78 458.5" fill="#DC3001"/>
<path d="M388.7 450.33C388.955 450.421 389.202 450.531 389.44 450.66C389.724 450.792 390.001 450.939 390.27 451.1C390.58 451.3 390.96 451.49 391.33 451.77C391.752 452.051 392.16 452.355 392.55 452.68C393 453.051 393.43 453.445 393.84 453.86C394.775 454.815 395.6 455.872 396.3 457.01C396.978 458.164 397.521 459.392 397.92 460.67C398.08 461.27 398.24 461.83 398.33 462.37C398.429 462.869 398.499 463.373 398.54 463.88C398.563 464.296 398.563 464.714 398.54 465.13C398.561 465.446 398.561 465.764 398.54 466.08C398.535 466.349 398.505 466.617 398.45 466.88C398.38 466.88 398.45 465.73 398.29 463.88C398.238 463.383 398.158 462.888 398.05 462.4C397.938 461.839 397.794 461.285 397.62 460.74C396.831 458.221 395.46 455.922 393.62 454.03C393.226 453.613 392.809 453.219 392.37 452.85C391.97 452.49 391.56 452.2 391.19 451.92C389.72 450.87 388.67 450.39 388.7 450.33Z" fill="#263238"/>
<path d="M368.999 395.26C368.936 395.43 368.852 395.591 368.749 395.74C368.549 396.1 368.289 396.54 367.969 397.07C367.649 397.6 367.199 398.34 366.749 399.18C366.299 400.02 365.749 400.94 365.199 402.01C364.079 404.11 362.859 406.69 361.629 409.59C360.324 412.757 359.18 415.988 358.199 419.27C357.199 422.77 356.439 426.16 355.869 429.27C355.299 432.38 354.979 435.21 354.789 437.59C354.669 438.78 354.629 439.86 354.569 440.8C354.509 441.74 354.479 442.57 354.459 443.24C354.439 443.91 354.459 444.37 354.459 444.78C354.465 444.959 354.445 445.137 354.399 445.31C354.361 445.136 354.345 444.958 354.349 444.78C354.349 444.37 354.349 443.86 354.349 443.23C354.349 442.6 354.349 441.74 354.349 440.79C354.349 439.84 354.349 438.79 354.499 437.56C354.692 434.755 355.025 431.961 355.499 429.19C356.084 425.798 356.852 422.439 357.799 419.13C358.784 415.832 359.949 412.59 361.289 409.42C362.549 406.5 363.809 403.94 364.979 401.84C365.539 400.78 366.109 399.84 366.599 399.04C367.089 398.24 367.519 397.53 367.899 396.97C368.279 396.41 368.529 396.04 368.769 395.7C369.009 395.36 368.999 395.25 368.999 395.26Z" fill="#263238"/>
<path d="M353.21 409.68C353.237 410.127 353.217 410.577 353.15 411.02C353.06 412.02 352.94 413.22 352.81 414.68C352.51 417.76 352.13 422.03 351.81 426.74C351.49 431.45 351.3 435.74 351.17 438.83L351 442.5C351.01 442.953 350.97 443.406 350.88 443.85C350.807 443.404 350.78 442.951 350.8 442.5C350.8 441.63 350.8 440.38 350.8 438.82C350.8 435.72 350.97 431.43 351.29 426.71C351.61 421.99 352.05 417.71 352.44 414.64C352.64 413.1 352.81 411.86 352.95 411C352.998 410.553 353.085 410.111 353.21 409.68Z" fill="#263238"/>
<path d="M337.88 422.76C338.145 422.939 338.387 423.151 338.6 423.39C339.222 424.003 339.81 424.651 340.36 425.33C342.182 427.573 343.693 430.052 344.85 432.7C346.005 435.347 346.793 438.139 347.19 441C347.316 441.865 347.392 442.736 347.42 443.61C347.461 443.942 347.461 444.278 347.42 444.61C347.33 444.61 347.24 443.26 346.86 441.1C345.864 435.471 343.547 430.159 340.1 425.6C338.75 423.81 337.81 422.82 337.88 422.76Z" fill="#263238"/>
<path d="M399.13 258.04C399.302 258.177 399.459 258.331 399.6 258.5L400.88 259.88L401.79 260.88C402.12 261.26 402.45 261.69 402.79 262.14C403.51 263.06 404.37 264.07 405.19 265.29L406.51 267.17C406.96 267.83 407.37 268.55 407.83 269.28C408.78 270.73 409.62 272.37 410.54 274.07C414.399 281.573 416.907 289.697 417.95 298.07C418.14 300 418.37 301.83 418.41 303.55C418.41 304.42 418.5 305.25 418.5 306.05V308.35C418.5 309.81 418.37 311.13 418.29 312.29C418.29 312.87 418.21 313.42 418.16 313.91C418.11 314.4 418.03 314.85 417.97 315.26C417.86 316.03 417.77 316.65 417.69 317.12C417.676 317.342 417.632 317.56 417.56 317.77C417.546 317.55 417.546 317.33 417.56 317.11C417.61 316.63 417.67 316.01 417.74 315.24C417.74 314.83 417.83 314.38 417.88 313.89C417.93 313.4 417.94 312.89 417.97 312.27C418.02 311.12 418.14 309.8 418.1 308.34V306.05C418.1 305.26 418.01 304.43 417.97 303.58C417.92 301.86 417.68 300.05 417.47 298.13C416.377 289.827 413.892 281.767 410.12 274.29C409.21 272.59 408.39 270.95 407.47 269.51C407.02 268.78 406.61 268.05 406.17 267.39C405.73 266.73 405.3 266.1 404.89 265.5C404.1 264.27 403.26 263.25 402.56 262.32C402.21 261.86 401.89 261.42 401.56 261.04L400.68 260.04L399.48 258.6C399.342 258.427 399.225 258.24 399.13 258.04Z" fill="#263238"/>
<path d="M429 277.78C428.909 278.286 428.778 278.784 428.61 279.27C428.32 280.27 427.92 281.59 427.45 283.27C425.001 292.165 423.579 301.311 423.21 310.53C423.14 312.3 423.1 313.73 423.08 314.72C423.099 315.235 423.073 315.75 423 316.26C422.91 315.755 422.869 315.243 422.88 314.73C422.88 313.73 422.81 312.3 422.88 310.52C423.04 301.251 424.473 292.048 427.14 283.17C427.66 281.47 428.14 280.11 428.46 279.17C428.597 278.691 428.778 278.226 429 277.78Z" fill="#263238"/>
<path d="M431.16 297.36C429.903 299.663 428.803 302.048 427.87 304.5C427.112 307.007 426.524 309.563 426.11 312.15C425.998 311.377 425.998 310.593 426.11 309.82C426.32 307.951 426.733 306.11 427.34 304.33C427.945 302.546 428.746 300.836 429.73 299.23C430.11 298.539 430.592 297.908 431.16 297.36Z" fill="#263238"/>
<path d="M145.63 442.38L144.26 474.85L126.72 474.45L128.04 441.92L145.63 442.38Z" fill="#DC3001"/>
<path d="M135.65 473.43C135.5 473.43 135.77 466.31 136.25 457.55C136.73 448.79 137.25 441.69 137.39 441.7C137.53 441.71 137.27 448.82 136.78 457.58C136.29 466.34 135.79 473.44 135.65 473.43Z" fill="#263238"/>
<path d="M144.35 472.61L126.82 472.16L126.72 474.45L144.26 474.85L144.35 472.61Z" fill="#263238"/>
<path d="M127.14 464.06C127.262 463.804 127.428 463.57 127.63 463.37C128.12 462.785 128.666 462.249 129.26 461.77C130.146 461.05 131.129 460.458 132.18 460.01C134.012 459.21 136.053 459.02 138.001 459.468C139.949 459.916 141.702 460.979 143 462.5C143.495 463.103 143.897 463.777 144.19 464.5C144.319 464.753 144.401 465.027 144.43 465.31C143.937 464.415 143.361 463.567 142.71 462.78C141.046 460.971 138.735 459.893 136.28 459.78C133.821 459.744 131.424 460.552 129.49 462.07C128 463.2 127.21 464.12 127.14 464.06Z" fill="#263238"/>
<g opacity="0.3">
<path d="M127.66 451.18L127.52 454.76L145.09 455.07L145.21 452.38L127.66 451.18Z" fill="black"/>
</g>
<path d="M186.9 444.32L186.05 464.09C186.05 464.09 205.85 471.59 206.05 475.26L167.68 474.98L167.75 444.13L186.9 444.32Z" fill="#DC3001"/>
<path d="M174.45 462.41C174.076 462.518 173.755 462.761 173.55 463.091C173.345 463.422 173.27 463.817 173.34 464.2C173.437 464.576 173.675 464.901 174.004 465.107C174.333 465.314 174.729 465.386 175.11 465.31C175.504 465.193 175.841 464.934 176.056 464.583C176.27 464.232 176.346 463.814 176.27 463.41C176.207 463.211 176.104 463.027 175.969 462.869C175.833 462.711 175.667 462.581 175.481 462.488C175.295 462.395 175.091 462.34 174.883 462.326C174.675 462.313 174.467 462.341 174.27 462.41" fill="#E0E0E0"/>
<path d="M167.67 474.97V471.89L204.81 473.29C204.81 473.29 206.52 474.05 206.32 475.29L167.67 474.97Z" fill="#263238"/>
<path d="M186.39 464.21C186.39 464.4 185.44 464.48 184.51 465.08C183.58 465.68 183.08 466.47 182.9 466.39C182.72 466.31 183.02 465.23 184.16 464.52C185.3 463.81 186.44 464.04 186.39 464.21Z" fill="#263238"/>
<path d="M190.439 465.92C190.439 466.1 189.659 466.42 189.009 467.21C188.359 468 188.169 468.85 188.009 468.84C187.849 468.83 187.709 467.76 188.539 466.84C189.369 465.92 190.429 465.74 190.439 465.92Z" fill="#263238"/>
<path d="M192.7 470.79C192.53 470.79 192.27 469.88 192.77 468.85C193.27 467.82 194.14 467.42 194.22 467.58C194.3 467.74 193.75 468.28 193.36 469.13C192.97 469.98 192.89 470.77 192.7 470.79Z" fill="#263238"/>
<path d="M186.09 459.66C186.01 459.83 185.09 459.56 184.09 459.66C183.09 459.76 182.18 460.05 182.09 459.89C182 459.73 182.79 459.06 184.09 459C185.39 458.94 186.18 459.5 186.09 459.66Z" fill="#263238"/>
<path d="M186.809 455.4C186.174 455.576 185.504 455.576 184.869 455.4C184.18 455.266 183.508 455.051 182.869 454.76C182.484 454.589 182.113 454.389 181.759 454.16C181.543 454.038 181.348 453.882 181.179 453.7C181.057 453.566 180.983 453.395 180.968 453.214C180.954 453.033 181 452.852 181.099 452.7C181.192 452.566 181.316 452.457 181.461 452.382C181.606 452.307 181.766 452.269 181.929 452.27C182.176 452.277 182.421 452.313 182.659 452.38C183.071 452.484 183.473 452.624 183.859 452.8C184.511 453.102 185.111 453.503 185.639 453.99C186.529 454.82 186.829 455.53 186.759 455.57C186.689 455.61 186.239 455.03 185.339 454.34C184.809 453.937 184.231 453.602 183.619 453.34C183.259 453.192 182.888 453.071 182.509 452.98C182.099 452.87 181.749 452.87 181.649 453.05C181.549 453.23 181.649 453.15 181.649 453.27C181.771 453.401 181.913 453.513 182.069 453.6C182.391 453.816 182.725 454.013 183.069 454.19C183.668 454.494 184.294 454.741 184.939 454.93C185.573 455.042 186.198 455.199 186.809 455.4Z" fill="#263238"/>
<path d="M186.56 455.67C186.191 455.119 186.015 454.461 186.06 453.8C186.03 453.082 186.125 452.365 186.34 451.68C186.468 451.275 186.635 450.883 186.84 450.51C186.943 450.249 187.112 450.019 187.331 449.844C187.551 449.668 187.812 449.553 188.09 449.51C188.261 449.517 188.427 449.572 188.569 449.669C188.711 449.767 188.822 449.902 188.89 450.06C188.991 450.285 189.055 450.525 189.08 450.77C189.167 451.347 189.137 451.936 188.991 452.502C188.845 453.067 188.586 453.597 188.23 454.06C187.47 455.06 186.68 455.28 186.67 455.22C186.66 455.16 187.26 454.76 187.85 453.8C188.19 453.25 188.405 452.632 188.48 451.99C188.529 451.618 188.529 451.242 188.48 450.87C188.42 450.46 188.27 450.13 188.11 450.17C187.95 450.21 187.59 450.47 187.43 450.8C187.237 451.117 187.077 451.452 186.95 451.8C186.728 452.421 186.596 453.071 186.56 453.73C186.47 454.94 186.66 455.64 186.56 455.67Z" fill="#263238"/>
<g opacity="0.3">
<path d="M167.659 455.98L167.699 460.37H186.209V456.39L167.659 455.98Z" fill="black"/>
</g>
<path d="M157.02 318.53L151.35 373.19L147.28 455.5H125.56L124.97 280.32L187.16 284.75L200.05 376.66L188.89 457.11H165.06L170.63 380.62L157.02 318.53Z" fill="#263238"/>
<path d="M157 318.5C158.279 320.017 159.695 321.413 161.23 322.67C162.641 324.061 164.174 325.323 165.81 326.44C164.536 324.922 163.123 323.526 161.59 322.27C160.177 320.877 158.641 319.615 157 318.5Z" fill="#455A64"/>
<path d="M157.089 317.44C157.178 315.106 157.138 312.769 156.969 310.44C156.963 308.101 156.83 305.764 156.569 303.44C156.296 305.763 156.249 308.108 156.429 310.44C156.424 312.789 156.645 315.133 157.089 317.44Z" fill="#455A64"/>
<path d="M149.9 297.04C149.784 297.027 149.666 297.027 149.55 297.04L148.48 296.98L144.36 296.78L129.64 296.16H129.38V296.41C129.38 301.01 129.38 306.21 129.38 311.7V312.18L129.55 312.25L139.13 316.08H139.22H139.31L147.78 313.14L147.91 313.09V312.95C148.53 308.18 149.05 304.21 149.42 301.36C149.58 300.03 149.71 298.96 149.81 298.17C149.864 297.809 149.898 297.445 149.91 297.08C149.88 297.181 149.86 297.285 149.85 297.39C149.85 297.63 149.76 297.91 149.7 298.25C149.57 299.05 149.4 300.13 149.19 301.48C148.77 304.28 148.19 308.2 147.47 312.89L147.62 312.71L139.13 315.59H139.31L129.74 311.73L129.91 311.98V311.68C129.91 306.19 129.91 300.99 129.91 296.39L129.66 296.64L144.22 297L148.41 297.07H149.94L149.9 297.04Z" fill="#455A64"/>
<path d="M181.259 297.3H180.939H179.939L176.209 297.19L162.779 296.87H162.529V297.12C162.679 301.66 162.839 306.88 163.019 312.45V312.5L163.129 312.58L164.689 313.58L172.559 318.71L172.699 318.8L172.839 318.72L181.709 313.31L181.819 313.24V313.11C181.649 308.35 181.509 304.38 181.409 301.53C181.359 300.21 181.309 299.14 181.279 298.35C181.249 297.56 181.209 297.25 181.199 297.26C181.186 297.366 181.186 297.474 181.199 297.58V298.5C181.199 299.31 181.199 300.39 181.199 301.74C181.199 304.55 181.299 308.48 181.369 313.18L181.479 312.99L172.569 318.33H172.849L164.999 313.16L163.449 312.16L163.569 312.38C163.369 306.81 163.179 301.58 163.009 297.04L162.769 297.29L176.059 297.36H180.849L181.259 297.3Z" fill="#455A64"/>
<path d="M131.68 322.06C132.663 322.134 133.652 322.104 134.63 321.97C136.44 321.84 138.94 321.59 141.69 321.23C144.44 320.87 146.92 320.48 148.69 320.15C149.666 320.022 150.628 319.798 151.56 319.48C150.577 319.493 149.596 319.59 148.63 319.77L141.63 320.7L134.63 321.59C133.635 321.664 132.648 321.821 131.68 322.06Z" fill="#455A64"/>
<path d="M132.189 382.99C132.189 382.99 132.279 383.3 132.699 383.68C133.33 384.18 134.115 384.445 134.919 384.43C136.113 384.401 137.26 383.963 138.169 383.19C139.259 382.283 140.263 381.279 141.169 380.19C142.821 378.267 144.291 376.195 145.559 374C146.131 373.115 146.594 372.165 146.939 371.17C146.327 372.016 145.76 372.894 145.239 373.8C143.882 375.898 142.386 377.903 140.759 379.8C139.888 380.859 138.931 381.846 137.899 382.75C137.083 383.477 136.05 383.916 134.959 384C134.223 384.049 133.49 383.86 132.869 383.46C132.399 383.22 132.229 382.96 132.189 382.99Z" fill="#455A64"/>
<path d="M175.09 384.91C175.09 384.91 175.09 385.19 175.38 385.61C175.763 386.193 176.276 386.68 176.88 387.03C177.788 387.565 178.826 387.838 179.88 387.82C181.157 387.766 182.396 387.373 183.47 386.68C185.345 385.381 186.837 383.602 187.79 381.53C188.253 380.725 188.613 379.865 188.86 378.97C188.334 379.729 187.863 380.524 187.45 381.35C186.438 383.293 184.974 384.963 183.18 386.22C182.191 386.867 181.05 387.246 179.87 387.32C178.905 387.356 177.948 387.143 177.09 386.7C176.298 386.26 175.615 385.648 175.09 384.91Z" fill="#455A64"/>
<path d="M173.699 376.66C174.227 377.105 174.834 377.444 175.489 377.66C177.031 378.309 178.678 378.675 180.349 378.74C182.043 378.819 183.736 378.592 185.349 378.07C186.019 377.892 186.65 377.59 187.209 377.18C185.013 377.854 182.727 378.191 180.429 378.18C178.121 378.023 175.851 377.511 173.699 376.66Z" fill="#455A64"/>
<path d="M156.22 185.67L132.79 185.38L135.41 166.12C135.41 166.12 133.81 165.79 133.7 157.41C133.59 149.03 133.19 134.79 133.19 134.79C138.133 132.74 143.522 132.004 148.834 132.654C154.145 133.304 159.198 135.318 163.5 138.5L164.79 139.5L156.22 185.67Z" fill="#FFBE9D"/>
<path d="M162.07 149.73C162.22 149.67 168.069 148.03 167.839 153.73C167.609 159.43 161.729 158.09 161.729 157.92C161.729 157.75 162.07 149.73 162.07 149.73Z" fill="#FFBE9D"/>
<path d="M134.2 148.5C134.05 148.44 128.77 147.07 128.95 152.79C129.13 158.51 135.06 157.16 135.07 156.99C135.08 156.82 134.2 148.5 134.2 148.5Z" fill="#FFBE9D"/>
<path d="M164 149.09C163.12 153.89 163.29 156.41 162.47 159.62C161.17 164.69 158.56 168.62 153.83 171.12C149.1 173.62 142.69 173.61 138.63 170.12C135.8 167.72 133.8 165.02 133.38 161.41C132.96 157.8 132.55 151.41 132.52 147.8C132.52 141.26 132.02 135.01 132.02 135.01L151.37 131.63L162.37 137.95L164 149.09Z" fill="#263238"/>
<path d="M144 174.01C145.084 174.408 146.254 174.508 147.39 174.3C148.541 174.268 149.661 173.922 150.63 173.3C150.63 173.16 149.15 173.59 147.33 173.78C145.51 173.97 144.05 173.86 144 174.01Z" fill="#263238"/>
<path d="M163.06 157.25C163.62 152.33 163.99 146.71 164.79 141.52C165.09 139.52 165.79 136.77 165.63 134.81C165.571 132.826 165.137 130.872 164.35 129.05C163.762 127.924 162.929 126.944 161.911 126.184C160.893 125.424 159.717 124.903 158.47 124.66C157.211 124.427 155.916 124.471 154.675 124.791C153.435 125.11 152.28 125.697 151.29 126.51C150.544 125.493 149.521 124.713 148.344 124.263C147.166 123.812 145.884 123.711 144.65 123.97C143.434 124.249 142.328 124.883 141.472 125.791C140.615 126.698 140.048 127.84 139.84 129.07C139.122 128.449 138.231 128.064 137.286 127.965C136.342 127.867 135.391 128.061 134.56 128.52C133.765 128.999 133.148 129.723 132.801 130.584C132.455 131.444 132.398 132.394 132.64 133.29C131.953 133.403 131.303 133.681 130.746 134.098C130.189 134.516 129.741 135.062 129.44 135.69C129.161 136.316 129.045 137.003 129.101 137.686C129.156 138.369 129.383 139.027 129.76 139.6C130.66 140.93 132.28 141.66 133.26 142.93C133.819 143.664 134.147 144.548 134.2 145.469C134.254 146.39 134.031 147.306 133.56 148.1" fill="#263238"/>
<path d="M136.18 139.5C136.211 139.691 136.286 139.873 136.4 140.03C136.676 140.519 137.059 140.939 137.52 141.26C138.254 141.784 139.138 142.054 140.04 142.03C140.624 142.012 141.199 141.878 141.731 141.636C142.263 141.394 142.742 141.048 143.14 140.62L142.73 140.51C142.878 141.171 143.195 141.782 143.648 142.285C144.102 142.787 144.678 143.165 145.32 143.38C146.036 143.648 146.806 143.739 147.564 143.647C148.323 143.554 149.049 143.281 149.68 142.85C150.81 142.102 151.672 141.012 152.14 139.74L151.67 139.8C152.167 140.502 152.822 141.078 153.583 141.479C154.344 141.88 155.189 142.097 156.05 142.11C156.73 142.125 157.407 142.005 158.04 141.756C158.674 141.507 159.252 141.134 159.74 140.66C160.37 140.062 160.829 139.305 161.07 138.47C161.176 138.179 161.217 137.869 161.19 137.56C161.19 137.56 161.1 137.88 160.9 138.42C160.599 139.186 160.123 139.871 159.51 140.42C158.568 141.265 157.335 141.713 156.07 141.67C155.281 141.643 154.51 141.434 153.816 141.059C153.122 140.685 152.525 140.154 152.07 139.51L151.79 139.08L151.6 139.56C151.159 140.721 150.37 141.717 149.34 142.41C148.781 142.795 148.138 143.04 147.464 143.125C146.791 143.211 146.107 143.133 145.47 142.9C144.906 142.718 144.398 142.395 143.992 141.964C143.586 141.532 143.296 141.004 143.15 140.43L143.07 139.95L142.74 140.32C142.109 141.02 141.252 141.475 140.319 141.605C139.386 141.735 138.437 141.531 137.64 141.03C137.058 140.62 136.562 140.1 136.18 139.5Z" fill="#455A64"/>
<path d="M136.219 137.21C136.331 136.46 136.611 135.745 137.039 135.12C137.532 134.461 138.239 133.994 139.039 133.8C139.542 133.686 140.062 133.675 140.57 133.768C141.077 133.86 141.56 134.055 141.989 134.34L142.459 134.67L142.409 134.11C142.363 133.552 142.431 132.991 142.609 132.46C142.803 131.876 143.115 131.339 143.524 130.88C143.933 130.42 144.432 130.05 144.989 129.79C145.934 129.38 146.987 129.288 147.989 129.53C148.918 129.794 149.775 130.262 150.499 130.9C150.499 130.9 150.389 130.63 150.019 130.26C149.469 129.754 148.808 129.384 148.089 129.18C146.88 128.808 145.573 128.927 144.45 129.511C143.328 130.095 142.48 131.097 142.089 132.3C141.892 132.899 141.82 133.532 141.879 134.16L142.299 133.92C141.806 133.597 141.25 133.38 140.668 133.283C140.086 133.187 139.49 133.213 138.919 133.36C138.017 133.593 137.233 134.152 136.719 134.93C136.384 135.421 136.178 135.988 136.119 136.58C136.129 136.99 136.189 137.21 136.219 137.21Z" fill="#455A64"/>
<path d="M148.559 137.37C148.629 137.37 148.559 137.05 148.559 136.59C148.618 135.981 148.828 135.397 149.169 134.89C149.559 134.3 150.019 133.7 150.289 133.37C150.559 133.04 150.859 133.29 150.909 133.26C150.959 133.23 150.909 133.13 150.779 133.03C150.666 132.968 150.537 132.94 150.407 132.948C150.278 132.957 150.154 133.003 150.049 133.08C149.802 133.274 149.577 133.495 149.379 133.74C149.131 134.016 148.904 134.31 148.699 134.62C148.305 135.209 148.121 135.914 148.179 136.62C148.259 137.14 148.499 137.4 148.559 137.37Z" fill="#455A64"/>
<path d="M160 130.17C160.06 130.17 160 129.72 159.64 129.17C159.418 128.804 159.113 128.496 158.75 128.27C158.281 127.979 157.726 127.862 157.18 127.94C156.245 128.1 155.406 128.607 154.83 129.36C154.4 129.89 154.2 130.25 154.25 130.29C154.3 130.33 154.63 130.05 155.11 129.61C155.691 129.018 156.436 128.614 157.25 128.45C157.646 128.411 158.045 128.476 158.409 128.639C158.772 128.802 159.086 129.058 159.32 129.38C159.77 129.83 160 130.2 160 130.17Z" fill="#455A64"/>
<path d="M157 154.5C158.778 152.307 159.755 149.573 159.77 146.75C159.61 146.75 159.299 148.55 158.54 150.68C157.78 152.81 156.89 154.38 157 154.5Z" fill="#455A64"/>
<path d="M154.43 155.84C155.09 155.084 155.578 154.193 155.86 153.23C156.305 152.337 156.547 151.357 156.57 150.36C156.045 151.197 155.638 152.102 155.36 153.05C154.915 153.93 154.602 154.87 154.43 155.84Z" fill="#455A64"/>
<path d="M138.12 156.23C137.845 157.926 138.078 159.666 138.79 161.23C139.358 162.893 140.401 164.353 141.79 165.43C140.858 164.039 140.042 162.574 139.35 161.05C138.81 159.479 138.399 157.867 138.12 156.23Z" fill="#455A64"/>
<path d="M135.52 152.05C134.899 153.477 134.765 155.069 135.14 156.58C135.342 158.134 136.044 159.58 137.14 160.7C136.53 159.342 136.038 157.933 135.67 156.49C135.486 155.018 135.436 153.532 135.52 152.05Z" fill="#455A64"/>
<path d="M104.19 232.23V256.23C104.19 256.23 122.19 296.01 122.19 295.4C122.19 294.79 128.62 270.29 128.62 270.29L121.38 251.18L120.7 238.7L105.84 208.98C105.84 208.98 102.15 228.98 102.75 230.18C103.119 230.935 103.605 231.627 104.19 232.23Z" fill="#DC3001"/>
<path d="M126.61 184.57C126.61 184.57 110.25 193.06 108.23 195.68C106.21 198.3 105.81 209.01 105.81 209.01L126.61 250.61L127.61 267.37C127.61 267.37 121.35 280.42 121.35 289.54V290.54L120.35 303.06L145.35 305.28C145.35 305.28 146.77 298.41 146.77 299.02C146.77 299.63 148.59 305.28 148.59 305.28H190L188.47 277.71L181.42 235.15C181.42 235.15 184.42 210.74 184.57 209.85C184.83 208.27 211.05 196.64 211.05 196.64L223.4 189.97C224.975 189.112 226.292 187.847 227.21 186.305C228.128 184.764 228.615 183.004 228.62 181.21C228.614 179.356 228.093 177.54 227.115 175.964C226.136 174.389 224.739 173.117 223.08 172.29L188.23 155.04L180.12 168.68L190.74 175.5L198.35 180.77L177.24 182.77C177.24 182.77 173.49 177.87 171.88 177.87C170.27 177.87 157.34 180.87 157.34 180.87L157.54 177.64C157.54 177.64 154.11 173.8 150.27 174C146.43 174.2 130.27 178.85 130.27 178.85L126.61 184.57Z" fill="#DC3001"/>
<path d="M185.32 159.93L176.229 154.64L162.399 147.14C162.399 147.14 157.839 143.68 156.039 143.78C155.275 143.919 154.548 144.218 153.907 144.658C153.266 145.097 152.725 145.667 152.32 146.33C152.24 146.74 152.989 147.5 154.149 147.18C154.529 147.08 155.589 146.31 156.149 146.43C157.222 146.684 158.15 147.353 158.73 148.29C158.801 148.382 158.845 148.493 158.857 148.609C158.868 148.726 158.846 148.843 158.794 148.947C158.742 149.052 158.661 149.14 158.561 149.2C158.461 149.261 158.346 149.292 158.23 149.29C158.23 149.29 150.4 147.29 147.48 148.89C147.135 149.057 146.864 149.345 146.719 149.7C146.573 150.054 146.563 150.449 146.69 150.81C146.9 151.32 147.46 151.81 148.83 151.51C151.58 150.98 156.12 153.09 156.12 153.09C156.12 153.09 145.96 152.76 144.22 153.63C143.53 153.97 142.78 156.19 144.85 156.42C147.29 156.68 152.1 156.58 152.1 156.58C152.1 156.58 156.64 157.21 155.91 158.06C155.18 158.91 148.209 158.98 147.679 159.06C147.149 159.14 144.79 159.06 144.92 160.98C144.99 162.07 147.03 162.76 149.67 162.67C151.91 162.6 158.86 162.46 159.67 163.73C160.48 165 159.929 165.92 159.289 166.24C157.257 166.74 155.186 167.074 153.1 167.24C152.18 167.24 150.97 168.94 153.21 169.48C155.65 170.08 157.71 169.59 159.82 169.59C161.93 169.59 164.63 169.76 170.55 167.44C170.55 167.44 174.55 165.63 179.99 168.75L185.32 159.93Z" fill="#FFBE9D"/>
<path d="M156.32 181.07C156.32 181.22 149.95 182.07 142.05 183.07C134.15 184.07 127.72 184.69 127.71 184.54C127.7 184.39 134.08 183.54 141.99 182.54C149.9 181.54 156.31 180.93 156.32 181.07Z" fill="#263238"/>
<path d="M154.899 269.5C155.002 269.302 155.119 269.111 155.249 268.93L156.349 267.34C157.349 265.97 158.679 263.96 160.349 261.44C162.019 258.92 163.869 255.9 165.859 252.44C167.849 248.98 169.859 245.17 171.929 241.06C173.999 236.95 175.689 232.96 177.199 229.29C178.709 225.62 179.929 222.29 180.899 219.43C181.869 216.57 182.629 214.29 183.119 212.68C183.359 211.93 183.549 211.32 183.699 210.84C183.762 210.624 183.842 210.413 183.939 210.21C183.919 210.434 183.875 210.655 183.809 210.87C183.679 211.35 183.519 211.97 183.309 212.74C182.879 214.37 182.189 216.74 181.249 219.55C180.309 222.36 179.109 225.78 177.639 229.47C176.169 233.16 174.409 237.17 172.399 241.29C170.389 245.41 168.279 249.29 166.279 252.68C164.279 256.07 162.349 259.13 160.659 261.62C158.969 264.11 157.559 266.09 156.539 267.42L155.369 268.96C155.235 269.158 155.077 269.339 154.899 269.5Z" fill="#263238"/>
<path d="M121 295.44C120.987 295.254 120.987 295.066 121 294.88C121 294.48 121.09 293.94 121.15 293.28C121.3 291.89 121.59 289.86 122.04 287.33C123.317 280.522 125.106 273.819 127.39 267.28V267.38C127.17 263.9 126.94 260.15 126.71 256.26C126.59 254.33 126.48 252.43 126.37 250.62V250.72C121.92 242.05 118.24 234.28 115.73 228.64C114.47 225.83 113.51 223.54 112.87 221.96C112.58 221.2 112.34 220.59 112.16 220.13C112.087 219.926 112.033 219.715 112 219.5C112.119 219.693 112.22 219.898 112.3 220.11L113.09 221.9C113.79 223.45 114.79 225.72 116.09 228.51C118.68 234.1 122.42 241.85 126.87 250.51V250.56C126.98 252.37 127.1 254.27 127.21 256.2C127.45 260.09 127.67 263.84 127.87 267.32V267.37C125.574 273.878 123.733 280.537 122.36 287.3C121.86 289.82 121.53 291.84 121.36 293.22L121.12 294.81C121.117 295.025 121.076 295.239 121 295.44Z" fill="#263238"/>
<path d="M148.16 287.28C147.958 290.361 147.587 293.429 147.05 296.47C146.681 299.531 146.14 302.57 145.43 305.57C145.626 302.492 145.997 299.427 146.54 296.39C146.909 293.325 147.45 290.284 148.16 287.28Z" fill="#263238"/>
<path d="M177.789 202.39C177.58 202.175 177.402 201.933 177.259 201.67C176.949 201.19 176.529 200.47 176.049 199.56C174.813 197.173 173.831 194.662 173.119 192.07C172.4 189.48 171.951 186.823 171.779 184.14C171.719 183.14 171.709 182.28 171.729 181.71C171.715 181.411 171.742 181.112 171.809 180.82C171.899 180.82 171.929 182.08 172.149 184.11C172.689 189.405 174.119 194.571 176.379 199.39C176.9 200.365 177.371 201.366 177.789 202.39Z" fill="#263238"/>
<g opacity="0.3">
<path d="M156 267.59C157.029 268.024 158.145 268.212 159.26 268.139C160.374 268.066 161.456 267.735 162.42 267.17C164.334 266.018 166.011 264.511 167.36 262.73C177.857 249.982 183.093 233.708 182 217.23C176.093 234.808 167.61 251.412 156.83 266.5" fill="black"/>
</g>
<g opacity="0.3">
<path d="M112.819 221.58C111.946 220.535 110.825 219.724 109.559 219.22C108.971 218.989 108.316 218.995 107.732 219.238C107.148 219.48 106.681 219.94 106.429 220.52C106.321 221.198 106.411 221.893 106.689 222.52C108.619 228.21 110.609 234.03 114.389 238.7C115.07 239.456 115.871 240.094 116.759 240.59C117.659 241.16 120.109 241.66 120.449 240.69C120.625 239.866 120.625 239.014 120.449 238.19C120.449 238.19 115.059 227.19 112.449 221.54" fill="black"/>
</g>
<g opacity="0.3">
<path d="M198.13 180.76C200.536 181.327 203.046 181.283 205.43 180.63C201.68 177.79 196.79 177.17 192.13 176.54L198.13 180.76Z" fill="black"/>
</g>
<path d="M213.57 181.18C212.795 181.257 212.015 181.257 211.24 181.18L205.66 181.02L200.08 180.93C199.304 180.963 198.527 180.92 197.76 180.8C198.517 180.626 199.293 180.546 200.07 180.56C201.5 180.49 203.48 180.45 205.67 180.5C207.86 180.55 209.84 180.68 211.27 180.81C212.048 180.843 212.82 180.967 213.57 181.18Z" fill="#263238"/>
<path d="M110 248.5C110 248.44 110.53 248.8 111.29 249.38C112.238 250.157 113.279 250.813 114.39 251.33C115.5 251.811 116.723 251.971 117.92 251.79C118.83 251.62 119.33 251.28 119.38 251.36C119.43 251.44 118.97 251.87 118 252.15C116.727 252.461 115.388 252.341 114.19 251.81C113.029 251.276 111.968 250.549 111.05 249.66C110.37 248.95 110 248.5 110 248.5Z" fill="#263238"/>
<path opacity="0.3" d="M148.16 289.17L153.08 305.33H148.62L146.55 298.06L148.16 289.17Z" fill="black"/>
</svg>
