<svg width="22" height="22" viewBox="0 0 22 22" fill="none" xmlns="http://www.w3.org/2000/svg">
<path d="M21.12 0H0.88C0.39325 0 0 0.39325 0 0.88V21.12C0 21.6068 0.39325 22 0.88 22H21.12C21.6068 22 22 21.6068 22 21.12V0.88C22 0.39325 21.6068 0 21.12 0ZM16.0462 6.97675L10.2547 15.0068C10.1738 15.1197 10.0671 15.2118 9.94347 15.2753C9.81984 15.3388 9.68286 15.3719 9.54387 15.3719C9.40489 15.3719 9.26791 15.3388 9.14428 15.2753C9.02065 15.2118 8.91395 15.1197 8.833 15.0068L5.40375 10.2547C5.29925 10.109 5.40375 9.9055 5.5825 9.9055H6.87225C7.15275 9.9055 7.4195 10.0402 7.5845 10.2712L9.5425 12.9882L13.8655 6.99325C14.0305 6.765 14.2945 6.6275 14.5777 6.6275H15.8675C16.0462 6.6275 16.1507 6.831 16.0462 6.97675Z" fill="#112242"/>
</svg>
