<svg width="500" height="500" viewBox="0 0 500 500" fill="none" xmlns="http://www.w3.org/2000/svg">
<path d="M366.709 175.42L326.109 194.68L400.109 211.86L371.999 176.63C371.384 175.86 370.526 175.321 369.566 175.102C368.605 174.882 367.598 174.994 366.709 175.42Z" fill="#DC3001"/>
<path d="M326.462 194.77L400.035 211.85C400.131 211.872 400.214 211.932 400.266 212.015C400.318 212.098 400.334 212.199 400.312 212.294L390.556 254.317C390.503 254.547 390.36 254.746 390.16 254.871C389.96 254.996 389.718 255.036 389.488 254.982L316.938 238.139C316.708 238.086 316.508 237.943 316.384 237.743C316.259 237.543 316.219 237.301 316.272 237.071L326.028 195.049C326.049 194.955 326.107 194.873 326.188 194.821C326.269 194.769 326.368 194.75 326.462 194.77Z" fill="#DC3001"/>
<path d="M395.31 211.81L360.58 223.49L330 198.11L335.39 177.79C335.659 176.732 336.336 175.822 337.272 175.26C338.209 174.699 339.329 174.529 340.39 174.79L396.65 187.84C397.724 188.092 398.654 188.76 399.236 189.698C399.817 190.636 400.002 191.766 399.75 192.84L395.31 211.81Z" fill="white"/>
<path d="M358.381 220.05L316.811 234.55C316.71 234.984 316.696 235.434 316.769 235.873C316.842 236.313 317.001 236.734 317.237 237.112C317.473 237.49 317.781 237.817 318.143 238.076C318.506 238.335 318.916 238.52 319.351 238.62L387.08 254.34C387.515 254.441 387.964 254.455 388.404 254.382C388.843 254.309 389.264 254.15 389.642 253.914C390.02 253.678 390.348 253.37 390.607 253.007C390.866 252.644 391.05 252.234 391.151 251.8L391.211 251.55L362.141 221C361.671 220.497 361.067 220.14 360.4 219.972C359.733 219.803 359.032 219.83 358.381 220.05Z" fill="#DC3001"/>
<path d="M362.961 189.664L340.955 184.559L340.433 186.809L362.439 191.914L362.961 189.664Z" fill="#E0E0E0"/>
<path d="M388.472 201.592L339.639 190.265L339.049 192.807L387.882 204.135L388.472 201.592Z" fill="#F5F5F5"/>
<path d="M387.029 207.787L338.195 196.459L337.606 199.001L386.439 210.329L387.029 207.787Z" fill="#F5F5F5"/>
<path d="M384.21 215.56L382.16 216.23L340.93 207.18L336.75 203.64L336.83 203.04L385.5 214.33L385.31 215.17L384.21 215.56Z" fill="#F5F5F5"/>
<path d="M370.07 220.29L351.6 216.01L347.18 212.31L374.78 218.71L370.07 220.29Z" fill="#F5F5F5"/>
<path d="M356.86 220.58C356.364 220.84 355.845 221.055 355.31 221.22L351 222.77C347.36 224.06 342.33 225.77 336.76 227.7C331.19 229.63 326.13 231.29 322.46 232.49L318.12 233.89C317.595 234.087 317.053 234.234 316.5 234.33C317 234.078 317.518 233.864 318.05 233.69L322.35 232.14C325.99 230.85 331.02 229.14 336.59 227.21C342.16 225.28 347.21 223.62 350.88 222.42L355.23 221.03C355.761 220.84 356.306 220.69 356.86 220.58Z" fill="#EBEBEB"/>
<path d="M391.21 251.55C391.11 251.65 384.83 245.22 377.21 237.2C369.59 229.18 363.45 222.59 363.56 222.49C363.67 222.39 369.94 228.81 377.56 236.84C385.18 244.87 391.32 251.45 391.21 251.55Z" fill="#EBEBEB"/>
<path d="M396.999 211.24C396.596 211.465 396.174 211.656 395.739 211.81C394.919 212.14 393.739 212.61 392.239 213.17C389.239 214.29 385.159 215.78 380.589 217.35C376.019 218.92 371.839 220.26 368.809 221.19C367.289 221.65 366.059 222.02 365.209 222.25C364.775 222.405 364.326 222.512 363.869 222.57C364.28 222.362 364.708 222.191 365.149 222.06L368.699 220.84L380.419 216.84L392.119 212.84L395.669 211.64C396.099 211.465 396.544 211.331 396.999 211.24Z" fill="#EBEBEB"/>
<path d="M356.86 220.58C356.416 220.281 355.998 219.947 355.61 219.58L352.31 216.82L341.31 207.82C337.01 204.31 333.15 201.09 330.42 198.68C329.05 197.48 327.95 196.5 327.21 195.8C326.803 195.461 326.432 195.082 326.1 194.67C326.54 194.973 326.957 195.307 327.35 195.67L330.65 198.43L341.65 207.43C345.95 210.94 349.81 214.17 352.54 216.57C353.91 217.77 355.01 218.76 355.75 219.46C356.154 219.798 356.525 220.173 356.86 220.58Z" fill="#EBEBEB"/>
<path d="M395.309 211.81C395.3 211.714 395.3 211.616 395.309 211.52C395.309 211.31 395.409 211.03 395.479 210.69C395.639 209.93 395.869 208.87 396.159 207.53L398.779 195.9C398.919 195.28 399.059 194.65 399.199 194.01C399.374 193.374 399.501 192.725 399.579 192.07C399.617 191.39 399.477 190.712 399.171 190.103C398.866 189.494 398.407 188.976 397.839 188.6C397.231 188.216 396.55 187.964 395.839 187.86L393.569 187.34L388.829 186.25L367.739 181.38L346.649 176.46L341.909 175.35C341.172 175.151 340.424 174.994 339.669 174.88C338.966 174.834 338.264 174.978 337.636 175.296C337.008 175.615 336.477 176.096 336.099 176.69C335.761 177.283 335.525 177.929 335.399 178.6C335.039 179.92 334.699 181.19 334.399 182.41L331.259 193.91C330.889 195.24 330.599 196.28 330.379 197.03C330.286 197.363 330.206 197.633 330.139 197.84C330.121 197.935 330.087 198.026 330.039 198.11C330.039 198.11 330.039 198.01 330.089 197.82L330.279 197C330.469 196.25 330.729 195.2 331.069 193.86C331.779 191.1 332.789 187.16 334.069 182.32C334.389 181.1 334.719 179.82 335.069 178.5C335.204 177.797 335.454 177.121 335.809 176.5C336.216 175.849 336.789 175.317 337.469 174.96C338.172 174.587 338.965 174.417 339.759 174.47C340.54 174.581 341.315 174.734 342.079 174.93L346.819 176.02L367.909 180.9L388.999 185.79L393.729 186.9L395.999 187.43C396.771 187.546 397.51 187.822 398.169 188.24C398.793 188.661 399.297 189.238 399.63 189.913C399.963 190.588 400.114 191.338 400.069 192.09C399.986 192.766 399.853 193.434 399.669 194.09C399.519 194.73 399.369 195.36 399.219 195.97C398.059 200.84 397.109 204.79 396.449 207.56L395.669 210.71C395.579 211.04 395.509 211.31 395.449 211.52C395.417 211.623 395.37 211.721 395.309 211.81Z" fill="#E0E0E0"/>
<path d="M299.51 92.66L368.76 79.78L379.11 126.58L307.19 138.73L299.51 92.66Z" fill="#EBEBEB"/>
<path d="M368.76 79.78C368.76 79.78 368.76 79.85 368.64 79.98L368.25 80.52L366.71 82.58L361 90.12C356 96.49 349.22 105.26 341.68 115L341.55 115.17L341.35 115.07L340.01 114.36L311.32 99.11L302.65 94.44L300.31 93.14L299.71 92.79C299.637 92.7566 299.57 92.7129 299.51 92.66C299.588 92.6767 299.662 92.7071 299.73 92.75L300.36 93.05L302.75 94.26L311.49 98.79C318.89 102.67 329.04 108.01 340.25 113.91L341.6 114.62L341.27 114.69L360.66 89.9L366.55 82.46L368.17 80.46L368.6 79.95C368.645 79.8862 368.699 79.8289 368.76 79.78Z" fill="#E0E0E0"/>
<path d="M307.19 138.73C307.07 138.65 311.52 131.59 317.13 122.96C322.74 114.33 327.4 107.39 327.52 107.47C327.64 107.55 323.19 114.61 317.57 123.24C311.95 131.87 307.31 138.81 307.19 138.73Z" fill="#E0E0E0"/>
<path d="M379.109 126.58C379.019 126.69 372.539 121.73 364.639 115.51C356.739 109.29 350.409 104.13 350.489 104C350.569 103.87 357.059 108.85 364.959 115.08C372.859 121.31 379.189 126.47 379.109 126.58Z" fill="#E0E0E0"/>
<path d="M410.569 125.02L456.499 136.15L449.989 167.63L402.629 155.33L410.569 125.02Z" fill="#F5F5F5"/>
<path d="M456.5 136.15C456.341 136.277 456.171 136.387 455.99 136.48L454.49 137.33L448.91 140.33L430.29 150.33L430.1 150.43L429.97 150.26L429.34 149.46L416 132.25C414.34 130.07 413 128.25 412 126.99L410.93 125.55C410.799 125.383 410.682 125.206 410.58 125.02C410.743 125.154 410.888 125.308 411.01 125.48L412.16 126.87C413.16 128.14 414.57 129.87 416.29 132.02C419.77 136.46 424.52 142.49 429.76 149.16L430.39 149.96L430.06 149.89L448.75 140.06L454.41 137.15L455.95 136.39C456.121 136.283 456.306 136.203 456.5 136.15Z" fill="#E0E0E0"/>
<path d="M402.63 155.33C402.55 155.21 407.19 152.07 413 148.33C418.81 144.59 423.58 141.65 423.65 141.77C423.72 141.89 419.09 145.03 413.28 148.77C407.47 152.51 402.71 155.45 402.63 155.33Z" fill="#E0E0E0"/>
<path d="M450 167.63C449.88 167.7 447.24 162.9 444.11 156.92C440.98 150.94 438.54 146 438.66 146C438.78 146 441.43 150.73 444.56 156.71C447.69 162.69 450.11 167.57 450 167.63Z" fill="#E0E0E0"/>
<path d="M362.801 405.65L363.911 406.05C364.631 406.33 365.731 406.7 367.191 407.11C371.452 408.299 375.887 408.749 380.301 408.44C383.487 408.22 386.646 407.711 389.741 406.92C393.428 406.016 397.021 404.764 400.471 403.18C408.861 399.212 416.318 393.514 422.351 386.46C424.1 384.51 425.458 382.243 426.351 379.78C427.262 377.202 427.126 374.369 425.971 371.89C425.326 370.658 424.362 369.622 423.181 368.89C421.962 368.147 420.598 367.676 419.181 367.51C416.243 367.159 413.265 367.645 410.591 368.91C409.18 369.528 407.726 370.042 406.241 370.45C404.691 370.855 403.058 370.814 401.531 370.33C400.733 370.102 400.004 369.679 399.411 369.1C398.817 368.52 398.377 367.802 398.131 367.01C397.938 366.198 397.922 365.354 398.082 364.534C398.243 363.715 398.576 362.94 399.061 362.26C400.017 360.881 401.34 359.797 402.881 359.13C404.396 358.459 405.956 357.894 407.551 357.44C414.025 355.356 420.121 352.24 425.601 348.21C427.026 347.222 428.323 346.06 429.461 344.75C430.652 343.491 431.361 341.851 431.461 340.12C431.446 339.268 431.193 338.436 430.731 337.72C430.25 337 429.61 336.401 428.861 335.97C427.3 335.119 425.566 334.633 423.791 334.55C421.948 334.467 420.117 334.216 418.321 333.8C417.379 333.578 416.504 333.136 415.767 332.51C415.03 331.885 414.452 331.093 414.081 330.2C413.913 329.724 413.858 329.215 413.918 328.714C413.979 328.213 414.154 327.733 414.431 327.31C415.016 326.535 415.75 325.886 416.591 325.4C418.151 324.4 419.691 323.31 421.181 322.17C424.191 319.871 427.019 317.344 429.641 314.61C432.241 311.84 434.881 308.96 436.511 305.48C437.36 303.764 437.765 301.863 437.691 299.95C437.574 298.034 436.808 296.214 435.521 294.79C434.221 293.379 432.583 292.324 430.761 291.726C428.938 291.127 426.993 291.005 425.111 291.37C421.363 292.183 417.965 294.148 415.391 296.99C410.121 302.54 407.521 309.86 403.201 315.93C402.136 317.46 400.935 318.889 399.611 320.2C398.964 320.885 398.223 321.474 397.411 321.95C396.983 322.212 396.495 322.358 395.994 322.376C395.493 322.393 394.995 322.281 394.551 322.05C394.149 321.77 393.809 321.411 393.551 320.995C393.293 320.579 393.123 320.114 393.051 319.63C392.926 318.711 392.926 317.779 393.051 316.86C393.169 315.994 393.135 315.114 392.951 314.26C392.736 313.433 392.3 312.679 391.691 312.08C391.077 311.483 390.35 311.014 389.554 310.7C388.757 310.386 387.907 310.233 387.051 310.25C385.336 310.359 383.715 311.067 382.471 312.25C381.212 313.397 380.222 314.807 379.571 316.38C378.94 317.954 378.523 319.605 378.331 321.29C378.121 322.97 378.061 324.65 378.001 326.29C377.941 327.93 377.891 329.64 377.841 331.29C377.727 334.623 377.617 337.897 377.511 341.11C377.451 342.72 377.421 344.31 377.341 345.92C377.28 347.521 376.973 349.103 376.431 350.61C376.167 351.378 375.738 352.078 375.172 352.661C374.607 353.243 373.92 353.694 373.161 353.98C371.633 354.424 369.998 354.318 368.541 353.68C365.752 352.496 363.299 350.641 361.401 348.28C360.473 347.145 359.675 345.911 359.021 344.6C358.422 343.315 357.755 342.063 357.021 340.85C356.343 339.683 355.283 338.786 354.021 338.31C352.747 337.927 351.378 338.023 350.171 338.58C348.972 339.103 347.924 339.918 347.121 340.95C346.359 341.982 345.827 343.165 345.561 344.42C345.169 346.892 344.948 349.388 344.901 351.89C344.731 354.33 344.651 356.72 344.621 359.03C344.571 363.397 344.836 367.761 345.411 372.09C345.89 375.855 346.704 379.569 347.841 383.19C348.301 384.88 348.981 386.42 349.531 387.92C349.841 388.65 350.181 389.35 350.531 390.04C350.881 390.73 351.141 391.41 351.531 392.04C353.591 395.954 356.258 399.518 359.431 402.6C359.888 403.084 360.379 403.535 360.901 403.95L362.011 404.89L362.891 405.66L361.971 404.93L360.851 404.01C360.323 403.603 359.825 403.158 359.361 402.68C356.15 399.615 353.449 396.057 351.361 392.14C350.993 391.491 350.659 390.823 350.361 390.14C350.041 389.45 349.681 388.75 349.361 388.01C348.801 386.51 348.111 385.01 347.641 383.28C346.485 379.645 345.658 375.913 345.171 372.13C344.568 367.793 344.287 363.418 344.331 359.04C344.331 356.72 344.431 354.33 344.591 351.88C344.639 349.355 344.856 346.836 345.241 344.34C345.518 343.035 346.07 341.805 346.861 340.73C347.698 339.645 348.795 338.789 350.051 338.24C351.344 337.637 352.814 337.53 354.181 337.94C355.539 338.445 356.685 339.397 357.431 340.64C358.166 341.866 358.834 343.131 359.431 344.43C360.069 345.711 360.851 346.915 361.761 348.02C363.628 350.322 366.032 352.132 368.761 353.29C370.127 353.882 371.657 353.985 373.091 353.58C373.789 353.312 374.419 352.893 374.938 352.354C375.456 351.815 375.85 351.168 376.091 350.46C377.191 347.57 376.951 344.31 377.091 341.1C377.231 337.89 377.301 334.6 377.411 331.29C377.461 329.63 377.511 327.96 377.571 326.29C377.631 324.62 377.681 322.9 377.901 321.2C378.093 319.484 378.517 317.802 379.161 316.2C379.83 314.559 380.855 313.088 382.161 311.89C383.498 310.646 385.227 309.907 387.051 309.8C387.975 309.783 388.894 309.952 389.752 310.295C390.611 310.639 391.392 311.15 392.051 311.8C392.725 312.462 393.206 313.295 393.441 314.21C393.644 315.116 393.685 316.05 393.561 316.97C393.44 317.843 393.44 318.727 393.561 319.6C393.614 320.015 393.753 320.415 393.97 320.773C394.187 321.132 394.477 321.44 394.821 321.68C395.189 321.872 395.601 321.962 396.015 321.943C396.43 321.924 396.832 321.795 397.181 321.57C397.951 321.116 398.654 320.557 399.271 319.91C400.563 318.615 401.741 317.209 402.791 315.71C404.858 312.603 406.763 309.392 408.501 306.09C410.274 302.698 412.468 299.543 415.031 296.7C417.677 293.777 421.175 291.759 425.031 290.93C427.003 290.548 429.04 290.677 430.948 291.305C432.856 291.934 434.572 293.04 435.931 294.52C437.294 296.031 438.104 297.959 438.231 299.99C438.309 301.989 437.886 303.976 437.001 305.77C435.321 309.35 432.651 312.25 430.001 315.04C427.362 317.793 424.513 320.338 421.481 322.65C419.981 323.8 418.431 324.88 416.861 325.9C416.083 326.348 415.403 326.946 414.861 327.66C414.624 328.017 414.473 328.424 414.421 328.85C414.369 329.275 414.417 329.706 414.561 330.11C414.908 330.923 415.442 331.643 416.12 332.211C416.798 332.779 417.599 333.18 418.461 333.38C420.227 333.791 422.028 334.035 423.841 334.11C425.691 334.206 427.496 334.719 429.121 335.61C429.923 336.087 430.607 336.74 431.121 337.52C431.63 338.315 431.911 339.236 431.931 340.18C431.848 342.042 431.107 343.813 429.841 345.18C428.661 346.52 427.317 347.706 425.841 348.71C420.316 352.765 414.174 355.902 407.651 358C406.073 358.442 404.529 358.997 403.031 359.66C401.561 360.296 400.302 361.336 399.401 362.66C398.949 363.285 398.636 363.998 398.482 364.754C398.329 365.509 398.338 366.289 398.511 367.04C398.741 367.758 399.146 368.407 399.689 368.931C400.231 369.454 400.895 369.835 401.621 370.04C403.07 370.501 404.62 370.539 406.091 370.15C407.555 369.752 408.989 369.247 410.381 368.64C413.128 367.357 416.179 366.866 419.191 367.22C420.661 367.409 422.076 367.906 423.341 368.68C424.585 369.449 425.598 370.541 426.271 371.84C427.469 374.417 427.606 377.363 426.651 380.04C425.742 382.549 424.357 384.858 422.571 386.84C416.504 393.914 409.006 399.62 400.571 403.58C397.101 405.162 393.488 406.407 389.781 407.3C386.671 408.078 383.499 408.576 380.301 408.79C375.864 409.071 371.412 408.584 367.141 407.35C366.032 407.036 364.941 406.666 363.871 406.24L362.801 405.65Z" fill="#263238"/>
<path d="M368.391 393.45C372.094 382.799 376.404 372.368 381.301 362.21C382.581 359.51 383.851 356.83 385.111 354.21C386.371 351.59 387.601 348.98 388.981 346.5C391.63 341.757 394.537 337.164 397.691 332.74C400.691 328.5 403.691 324.58 406.481 320.94C409.271 317.3 412.001 313.94 414.591 311.02C418.655 306.361 423.083 302.031 427.831 298.07C429.511 296.67 430.831 295.62 431.761 294.93L432.811 294.14C432.926 294.046 433.05 293.962 433.181 293.89L432.851 294.19L431.851 295.02C430.961 295.75 429.651 296.82 427.991 298.25C423.316 302.273 418.947 306.638 414.921 311.31C412.361 314.26 409.691 317.61 406.921 321.25C404.151 324.89 401.161 328.83 398.191 333.07C395.064 337.483 392.18 342.063 389.551 346.79C388.181 349.25 386.951 351.84 385.701 354.47L381.901 362.47C377.009 372.605 372.692 383.009 368.971 393.63" fill="#263238"/>
<path d="M389.15 346.48C389.014 346.017 388.927 345.541 388.89 345.06C388.75 344.15 388.59 342.82 388.43 341.17C388.09 337.88 387.78 333.33 387.43 328.3C387.08 323.27 386.73 318.73 386.35 315.46C386.16 313.82 385.99 312.46 385.86 311.58C385.759 311.11 385.719 310.63 385.74 310.15C385.905 310.6 386.026 311.066 386.1 311.54C386.29 312.45 386.52 313.77 386.77 315.4C387.27 318.67 387.71 323.23 388.03 328.26C388.35 333.29 388.62 337.71 388.83 341.14C388.94 342.68 389.03 343.99 389.1 345.04C389.169 345.517 389.185 346 389.15 346.48Z" fill="#263238"/>
<path d="M431.691 340.22C431.133 340.317 430.567 340.361 430.001 340.35C428.911 340.41 427.341 340.48 425.391 340.63C421.511 340.9 416.161 341.45 410.281 342.33C405.071 343.11 400.001 344.04 395.281 345.09C393.381 345.51 391.851 345.88 390.791 346.09C390.246 346.256 389.687 346.373 389.121 346.44C389.635 346.189 390.175 345.994 390.731 345.86C391.731 345.54 393.291 345.1 395.191 344.63C398.971 343.63 404.271 342.57 410.191 341.68C415.222 340.914 420.288 340.406 425.371 340.16C427.321 340.06 428.901 340.06 429.991 340.08C430.561 340.065 431.131 340.112 431.691 340.22Z" fill="#263238"/>
<path d="M368.94 392.69C368.826 392.53 368.735 392.355 368.67 392.17L368.01 390.61C367.44 389.26 366.66 387.28 365.74 384.82C363.89 379.9 361.55 373.03 359.07 365.41C356.59 357.79 354.31 350.9 352.56 345.96C351.71 343.55 351 341.57 350.48 340.1C350.26 339.46 350.07 338.94 349.92 338.5C349.842 338.318 349.788 338.126 349.76 337.93C349.877 338.092 349.968 338.27 350.03 338.46L350.7 340.01C351.27 341.37 352.04 343.35 352.96 345.81C354.81 350.72 357.16 357.6 359.64 365.22C362.12 372.84 365.39 380.82 367.14 385.77C367.99 388.18 367.7 389.05 368.22 390.52C368.45 391.16 368.63 391.69 368.78 392.12C368.857 392.303 368.91 392.494 368.94 392.69Z" fill="#263238"/>
<path d="M425.761 376.78C425.58 376.873 425.388 376.943 425.191 376.99L423.541 377.47L417.461 379.18C412.321 380.63 405.251 382.72 397.461 385.03C390.151 387.19 383.351 389.15 377.381 390.7C374.801 391.38 372.701 391.9 371.241 392.23L369.561 392.6C369.369 392.657 369.171 392.687 368.971 392.69C369.15 392.595 369.342 392.524 369.541 392.48L371.191 392L377.271 390.29C382.411 388.84 389.481 386.75 397.271 384.44C405.061 382.13 412.181 380.11 417.351 378.77C419.931 378.09 422.031 377.57 423.481 377.24L425.161 376.87C425.356 376.813 425.558 376.783 425.761 376.78Z" fill="#263238"/>
<path d="M260.781 162.41C260.781 162.41 260.201 159.63 259.231 151.59L250.391 134.26C250.391 134.26 252.391 130.63 256.901 138.31C258.981 141.81 265.901 140.31 264.781 134.85C263.661 129.39 256.501 126.85 252.121 132.29C252.121 132.29 249.291 132.58 248.961 130.37C248.631 128.16 255.021 122.7 260.461 124.29C262.679 124.988 264.723 126.147 266.461 127.69C266.461 127.69 265.281 109.47 266.761 109.31C268.241 109.15 270.291 110.31 271.411 130.24C271.411 130.24 272.031 114.47 272.341 112.46C272.651 110.45 275.341 109.09 275.701 114.14C275.701 114.7 276.701 130.2 276.701 130.2C276.701 130.2 278.471 119.95 278.701 119.13C279.201 116.97 281.331 117.2 281.541 120.06C281.691 122.23 282.391 131.49 282.391 131.49L283.731 160H283.911" fill="#FFBE9D"/>
<path d="M289.06 153L255.86 152.14L252.56 232.48L215 216L214.94 216.13C212.68 215.13 210.71 214.23 209.66 213.65C188.91 202.34 175.29 200.96 153.02 208.91L110.36 225.99C102.1 229.88 80.6102 233.47 73.2402 267.45L72.2402 271.51L106.38 296L129.79 357.7L157.79 419.46L222.24 417.37L255.92 375.37L227.34 320.78L209.58 259.64C222.13 267.97 245.42 279.31 273.31 273.4C303.56 267 289.06 153 289.06 153Z" fill="#DC3001"/>
<g opacity="0.3">
<path d="M129.57 357.07C134.694 360.189 140.222 362.589 146 364.2C149.14 365.14 152.74 365.83 155.53 364.11C158.32 362.39 158.75 357.3 155.63 356.28L182.68 350.17C179.01 339.61 185.06 327.56 194.21 321.17C203.36 314.78 213.76 312.92 224.9 311.95L238.39 353.8L193.3 415.3L156.38 416.37L129.57 357.07Z" fill="black"/>
</g>
<path d="M115.421 299.26C115.421 299.26 98.5113 336.26 102.421 354.7C104.581 365.02 138.351 373.83 159.871 376.46L153.421 412.58C153.421 412.58 73.4214 404.97 58.4714 373.3C49.9714 355.3 58.5813 311.3 74.7713 261.5L115.421 299.26Z" fill="#DC3001"/>
<path d="M192.441 342.59C192.264 342.714 192.072 342.818 191.871 342.9L190.181 343.68C188.711 344.36 186.561 345.29 183.891 346.41C178.551 348.63 171.071 351.49 162.661 354.19C154.251 356.89 146.501 358.91 140.861 360.19C138.041 360.84 135.751 361.33 134.161 361.63L132.331 361.97C132.123 362.027 131.908 362.057 131.691 362.06C131.89 361.973 132.098 361.91 132.311 361.87L134.121 361.43C135.701 361.07 137.971 360.52 140.781 359.83C146.391 358.44 154.101 356.36 162.501 353.67C170.901 350.98 178.381 348.18 183.751 346.04C186.441 344.98 188.601 344.1 190.101 343.48L191.821 342.78C192.021 342.695 192.229 342.631 192.441 342.59Z" fill="white"/>
<path d="M214.71 214.81C214.71 214.94 183.24 226.37 144.32 240.33C105.4 254.29 73.7903 265.5 73.7403 265.33C73.6903 265.16 105.21 253.77 144.14 239.81C183.07 225.85 214.66 214.67 214.71 214.81Z" fill="white"/>
<path d="M107.202 318C107.219 317.924 107.246 317.85 107.282 317.78L107.542 317.16L108.542 314.77C109.422 312.69 110.672 309.66 111.942 305.83C113.438 301.338 114.463 296.704 115.002 292C115.664 286.256 115.244 280.439 113.762 274.85C112.307 269.247 109.435 264.112 105.422 259.94C102.085 256.6 97.9824 254.125 93.4716 252.73C90.4272 251.801 87.2333 251.461 84.0616 251.73L82.5716 251.92C82.1416 251.98 81.7916 252.07 81.4916 252.12L80.8316 252.25H80.6016C80.6016 252.25 80.6716 252.25 80.8116 252.18L81.4716 252C81.7616 251.93 82.1216 251.82 82.5516 251.74L84.0416 251.51C87.2432 251.158 90.4828 251.447 93.5716 252.36C98.1703 253.72 102.359 256.201 105.762 259.58C109.853 263.798 112.782 269.003 114.262 274.69C115.762 280.341 116.176 286.225 115.482 292.03C114.909 296.754 113.836 301.403 112.282 305.9C110.962 309.73 109.662 312.74 108.722 314.8C108.242 315.8 107.862 316.62 107.592 317.15L107.282 317.76C107.252 317.91 107.212 318 107.202 318Z" fill="#263238"/>
<path d="M187.552 206.48C187.751 206.54 187.943 206.624 188.122 206.73C188.659 206.997 189.177 207.301 189.672 207.64C191.508 208.881 193.138 210.403 194.502 212.15C196.502 214.757 198.1 217.649 199.242 220.73C200.601 224.489 201.759 228.318 202.712 232.2L208.282 253.2L209.902 259.59L210.322 261.33C210.384 261.531 210.421 261.74 210.432 261.95C210.339 261.762 210.269 261.564 210.222 261.36C210.092 260.91 209.922 260.36 209.712 259.64L207.922 253.3L202.212 232.3C201.112 228.2 200.102 224.3 198.792 220.86C197.685 217.814 196.142 214.944 194.212 212.34C192.894 210.597 191.327 209.058 189.562 207.77C188.302 206.91 187.522 206.52 187.552 206.48Z" fill="#263238"/>
<path d="M242.85 228L242.41 228.21L241.08 228.79L236 230.93C231.56 232.81 225.11 235.47 217.13 238.73C201.13 245.24 179.03 254.03 154.42 263.31C129.81 272.59 107.42 280.62 91.0901 286.31C82.9501 289.14 76.3502 291.39 71.7802 292.92L66.5102 294.67L65.1402 295.11L64.6602 295.25L65.1202 295.06L66.4802 294.57L71.7102 292.73L90.9702 285.96C107.22 280.22 129.62 272.14 154.24 262.86C178.86 253.58 201 244.86 216.99 238.42L235.92 230.78L241.07 228.7L242.42 228.17L242.85 228Z" fill="white"/>
<path d="M213.571 267.87L213.191 268.05L212.051 268.54L207.641 270.37C203.811 271.96 198.251 274.19 191.351 276.9C177.551 282.31 158.351 289.5 136.981 296.82C115.611 304.14 95.9812 310.19 81.7912 314.36C74.6812 316.44 68.9112 318.08 64.9112 319.17L60.3112 320.42L59.1112 320.73C58.9777 320.773 58.8404 320.803 58.7012 320.82C58.8273 320.763 58.9577 320.716 59.0912 320.68L60.2812 320.32L64.8612 319C68.8612 317.85 74.5912 316.15 81.6912 314C95.8812 309.75 115.421 303.64 136.811 296.33C158.201 289.02 177.391 281.88 191.221 276.55C198.131 273.89 203.711 271.71 207.561 270.18L212.011 268.44L213.171 268L213.571 267.87Z" fill="white"/>
<path d="M291.752 233.25C291.573 233.433 291.379 233.601 291.172 233.75L289.422 235.11C288.662 235.7 287.722 236.41 286.612 237.2C285.502 237.99 284.252 238.92 282.822 239.87C279.992 241.82 276.542 244.03 272.632 246.35C268.722 248.67 264.322 251.06 259.632 253.35C254.942 255.64 250.322 257.63 246.102 259.35C241.882 261.07 238.002 262.35 234.722 263.4C233.092 263.94 231.592 264.4 230.282 264.75C228.972 265.1 227.842 265.45 226.912 265.68L224.762 266.23C224.516 266.3 224.265 266.351 224.012 266.38C224.243 266.272 224.484 266.185 224.732 266.12L226.852 265.49C227.772 265.22 228.852 264.89 230.202 264.49C231.552 264.09 232.982 263.64 234.602 263.07C237.862 261.99 241.702 260.59 245.922 258.92C250.142 257.25 254.702 255.23 259.402 252.92C264.102 250.61 268.482 248.23 272.402 245.92C276.322 243.61 279.772 241.45 282.622 239.54C284.062 238.61 285.322 237.71 286.452 236.94C287.582 236.17 288.532 235.49 289.312 234.94L291.112 233.66C291.312 233.503 291.526 233.366 291.752 233.25Z" fill="white"/>
<path d="M293.311 206.57C293.361 206.71 284.181 210.4 272.811 214.82C261.441 219.24 252.171 222.71 252.121 222.57C252.071 222.43 261.241 218.75 272.621 214.33C284.001 209.91 293.261 206.44 293.311 206.57Z" fill="white"/>
<path d="M291.291 181.69C291.291 181.83 283.291 184.24 273.291 187.07C263.291 189.9 255.181 192.07 255.141 191.94C255.101 191.81 263.141 189.4 273.141 186.57C283.141 183.74 291.251 181.55 291.291 181.69Z" fill="white"/>
<path d="M289.53 157.35C289.53 157.49 281.76 159.35 272.11 161.44C262.46 163.53 254.62 165.17 254.59 165.03C254.56 164.89 262.35 163.03 272 160.94C281.65 158.85 289.49 157.21 289.53 157.35Z" fill="white"/>
<path d="M219.871 295.4C219.871 295.53 197.671 304.4 170.181 315.26C142.691 326.12 120.351 334.78 120.301 334.65C120.251 334.52 142.491 325.65 169.991 314.78C197.491 303.91 219.821 295.26 219.871 295.4Z" fill="white"/>
<path d="M102.231 339.43C102.09 339.52 101.939 339.594 101.781 339.65L100.441 340.2C99.2709 340.66 97.5709 341.31 95.4409 342.09C91.2209 343.65 85.3509 345.7 78.8109 347.78C72.2709 349.86 66.2909 351.59 61.9509 352.78C59.7809 353.36 58.0109 353.78 56.7909 354.12L55.3809 354.45C55.2192 354.502 55.0506 354.529 54.8809 354.53C55.0284 354.449 55.1866 354.388 55.3509 354.35L56.7409 353.92L61.8509 352.42C66.1609 351.16 72.1109 349.42 78.6509 347.3C85.1909 345.18 91.0609 343.22 95.3109 341.75L100.311 340.02L101.681 339.56C101.855 339.484 102.041 339.44 102.231 339.43Z" fill="white"/>
<path d="M114.1 364.77C114.16 364.9 103.38 369.4 90.0302 374.82C76.6802 380.24 65.8002 384.53 65.7502 384.4C65.7002 384.27 76.4702 379.76 89.8302 374.34C103.19 368.92 114.05 364.63 114.1 364.77Z" fill="white"/>
<path d="M133.732 371.77C133.842 371.87 127.792 379.03 120.232 387.77C112.672 396.51 106.442 403.52 106.332 403.43C106.222 403.34 112.272 396.17 119.832 387.43C127.392 378.69 133.622 371.68 133.732 371.77Z" fill="white"/>
<path d="M153.802 376.87C153.942 376.92 151.512 384.54 148.382 393.87C145.252 403.2 142.602 410.78 142.472 410.73C142.342 410.68 144.762 403.07 147.892 393.73C151.022 384.39 153.662 376.82 153.802 376.87Z" fill="white"/>
<path d="M285 264.35C285.06 264.48 279.31 266.86 272.16 269.66C265.01 272.46 259.16 274.61 259.16 274.48C259.16 274.35 264.86 271.97 272.01 269.17C279.16 266.37 284.94 264.21 285 264.35Z" fill="white"/>
<g opacity="0.3">
<path d="M199.65 222.57C208.93 247.7 225.65 261.75 249.26 274.35C235.298 272.803 221.917 267.9 210.26 260.06" fill="black"/>
</g>
<path d="M191.24 423H369.37V346.9C369.372 343.51 368.705 340.152 367.408 337.02C366.112 333.887 364.211 331.041 361.814 328.643C359.417 326.245 356.572 324.343 353.44 323.046C350.308 321.748 346.95 321.08 343.56 321.08H217.06C210.212 321.08 203.645 323.8 198.803 328.643C193.961 333.485 191.24 340.052 191.24 346.9V423Z" fill="#455A64"/>
<path d="M214.33 321.08H242.63C245.404 321.08 248.065 322.182 250.026 324.144C251.988 326.105 253.09 328.766 253.09 331.54V421.67C253.09 422.023 252.95 422.361 252.7 422.61C252.451 422.86 252.113 423 251.76 423H192.58C192.227 423 191.889 422.86 191.64 422.61C191.39 422.361 191.25 422.023 191.25 421.67V344.17C191.25 338.048 193.681 332.176 198.009 327.846C202.337 323.517 208.208 321.083 214.33 321.08Z" fill="#455A64"/>
<path d="M204.38 423V346.79C204.38 339.973 207.087 333.435 211.907 328.614C216.726 323.793 223.263 321.083 230.08 321.08H211.76C211.76 321.08 190.25 323.94 190.25 350.86C190.25 377.78 190.94 423 190.94 423H204.38Z" fill="#263238"/>
<path d="M253.091 415.76H103.641V424.24H253.091V415.76Z" fill="#263238"/>
<path d="M375.192 415.76H253.092V424.24H375.192V415.76Z" fill="#455A64"/>
<path d="M253.091 420C253.078 419.9 253.078 419.8 253.091 419.7C253.091 419.47 253.091 419.17 253.091 418.8C253.091 417.98 253.091 416.8 253.091 415.37C253.091 412.37 253.091 408.06 253.091 402.76C253.141 392.07 253.221 377.38 253.311 361.14C253.311 357.08 253.441 353.14 253.191 349.3C253.018 345.639 252.373 342.016 251.271 338.52C249.654 333.559 246.522 329.23 242.315 326.142C238.108 323.055 233.039 321.365 227.821 321.31C227.154 321.288 226.487 321.305 225.821 321.36C225.339 321.378 224.858 321.425 224.381 321.5L223.501 321.62H223.191L223.491 321.55L224.371 321.38C224.846 321.284 225.328 321.22 225.811 321.19C226.475 321.111 227.143 321.078 227.811 321.09C232.061 321.07 236.247 322.133 239.971 324.18C245.602 327.166 249.825 332.255 251.721 338.34C252.853 341.876 253.525 345.543 253.721 349.25C253.971 353.09 253.891 357.07 253.851 361.13C253.701 377.36 253.571 392.06 253.471 402.74C253.401 408.04 253.341 412.34 253.301 415.36C253.301 416.82 253.241 417.97 253.231 418.79V419.68C253.196 419.791 253.149 419.898 253.091 420Z" fill="#263238"/>
<path d="M374.351 415.55C374.351 415.69 346.531 415.86 312.231 415.92C277.931 415.98 250.111 415.92 250.111 415.76C250.111 415.6 277.911 415.45 312.231 415.39C346.551 415.33 374.351 415.41 374.351 415.55Z" fill="#263238"/>
<path d="M374.352 424.58C374.352 424.72 346.732 424.76 312.682 424.67C278.632 424.58 251.002 424.39 251.012 424.24C251.022 424.09 278.612 424.06 312.682 424.15C346.752 424.24 374.352 424.43 374.352 424.58Z" fill="#263238"/>
<path d="M358.27 406.08C358.27 406.08 358.27 405.95 358.27 405.72C358.27 405.49 358.27 405.12 358.27 404.67C358.27 403.74 358.27 402.39 358.27 400.67C358.27 397.16 358.22 392.05 358.19 385.59L358.34 385.75L278.41 385.85C278.52 385.74 278.14 386.11 278.66 385.59V406.09L278.4 405.84L335.4 405.95L352.21 406.02H356.75H357.93H358.34C358.214 406.03 358.087 406.03 357.96 406.02H356.81H352.33L335.58 406.09L278.4 406.21H278.15V405.95C278.15 402.617 278.15 399.25 278.15 395.85V385.45C278.67 384.93 278.3 385.31 278.42 385.19L358.35 385.29H358.51V385.45C358.51 391.95 358.44 397.09 358.42 400.63C358.42 402.363 358.42 403.697 358.42 404.63C358.42 405.06 358.42 405.4 358.42 405.63C358.389 405.786 358.339 405.937 358.27 406.08Z" fill="#263238"/>
<path d="M313.13 390.85V400H312.2V392.7L308.62 398.84H308.16L304.58 392.74V400H303.66V390.88H304.45L308.45 397.64L312.37 390.88L313.13 390.85Z" fill="#263238"/>
<path d="M321.821 397.53H316.741L315.641 399.97H314.641L318.811 390.85H319.761L323.931 399.97H322.931L321.821 397.53ZM321.471 396.75L319.281 391.85L317.091 396.75H321.471Z" fill="#263238"/>
<path d="M325.441 390.85H326.441V400H325.441V390.85Z" fill="#263238"/>
<path d="M329.381 390.85H330.381V399.13H335.491V400H329.421L329.381 390.85Z" fill="#263238"/>
<path d="M348 300.22V285.22H320V345.36C317.733 346.7 315.976 348.754 315.003 351.202C314.031 353.649 313.9 356.349 314.629 358.879C315.359 361.41 316.908 363.626 319.034 365.179C321.16 366.733 323.742 367.536 326.374 367.463C329.006 367.39 331.54 366.444 333.576 364.775C335.612 363.106 337.036 360.807 337.624 358.24C338.212 355.673 337.931 352.984 336.824 350.595C335.717 348.206 333.848 346.252 331.51 345.04V300.22H348Z" fill="#DC3001"/>
<path d="M326.342 359.98C328.871 359.98 330.922 357.929 330.922 355.4C330.922 352.871 328.871 350.82 326.342 350.82C323.812 350.82 321.762 352.871 321.762 355.4C321.762 357.929 323.812 359.98 326.342 359.98Z" fill="#263238"/>
<path d="M154.291 209.28C154.394 209.476 154.481 209.68 154.551 209.89C154.784 210.488 154.981 211.099 155.141 211.72C155.73 214.004 155.96 216.366 155.821 218.72C155.623 222.231 154.628 225.651 152.911 228.72C150.767 232.499 147.499 235.516 143.561 237.35C139.636 239.232 135.198 239.759 130.941 238.85C127.503 238.053 124.322 236.402 121.691 234.05C119.926 232.47 118.436 230.608 117.281 228.54C116.967 227.984 116.686 227.41 116.441 226.82C116.339 226.62 116.262 226.409 116.211 226.19C116.271 226.19 116.601 227.03 117.461 228.44C118.662 230.441 120.17 232.239 121.931 233.77C124.538 236.038 127.669 237.622 131.041 238.38C135.196 239.24 139.518 238.71 143.341 236.87C147.184 235.081 150.383 232.152 152.501 228.48C154.203 225.471 155.211 222.119 155.451 218.67C155.626 216.344 155.454 214.005 154.941 211.73C154.581 210.15 154.231 209.3 154.291 209.28Z" fill="#263238"/>
<path d="M239.41 364.08L253.06 363.9L252.53 410.27L239.86 410.77L239.41 364.08Z" fill="#EBEBEB"/>
<path d="M239.861 410.77C241.73 408.356 243.733 406.049 245.861 403.86C247.88 401.552 250.031 399.361 252.301 397.3C250.408 399.711 248.385 402.018 246.241 404.21C244.237 406.513 242.107 408.703 239.861 410.77Z" fill="#263238"/>
<path d="M253.062 379.52C250.606 377.165 248.27 374.688 246.062 372.1C243.719 369.63 241.506 367.04 239.432 364.34C241.89 366.692 244.227 369.169 246.432 371.76C248.771 374.233 250.984 376.823 253.062 379.52Z" fill="#263238"/>
<path d="M137.151 160.7C137.151 161.404 137.357 162.093 137.745 162.681C138.132 163.269 138.684 163.731 139.331 164.009C139.978 164.286 140.692 164.368 141.386 164.244C142.079 164.12 142.72 163.795 143.231 163.31C145.161 161.48 144.501 158.26 143.301 155.88C142.101 153.5 140.441 151.09 140.791 148.46C141.061 146.46 142.461 144.79 143.401 142.98C144.233 141.409 144.689 139.667 144.732 137.889C144.776 136.112 144.406 134.349 143.651 132.74C142.856 131.148 141.637 129.806 140.129 128.862C138.62 127.918 136.88 127.409 135.101 127.39C131.491 127.46 127.681 129.72 124.471 128.06C122.141 126.85 121.171 124.06 119.141 122.34C116.011 119.75 111.281 120.61 107.571 122.34C103.861 124.07 100.311 126.46 96.2408 126.66C92.8508 126.82 89.5908 125.4 86.2408 124.94C82.5699 124.445 78.836 125.106 75.5583 126.832C72.2806 128.557 69.622 131.261 67.9523 134.567C66.2825 137.874 65.6847 141.618 66.2418 145.28C66.7989 148.942 68.4833 152.34 71.0608 155C72.852 156.983 75.2842 158.272 77.9308 158.64" fill="#263238"/>
<path d="M141.681 237.12C136.592 238.797 131.047 238.389 126.259 235.983C121.472 233.578 117.833 229.373 116.141 224.29C114.141 218.23 112.431 213.13 112.431 213.13C112.431 213.13 96.3308 215.59 91.2908 200.3C86.2508 185.01 78.2908 150.99 78.2908 150.99L77.8008 148.93C93.1608 135.68 115.001 133.47 134.051 140.42L135.051 143.59L155.051 212.9C156.312 217.88 155.632 223.153 153.15 227.651C150.667 232.148 146.567 235.534 141.681 237.12Z" fill="#FFBE9D"/>
<path d="M91.7617 173.54C92.1462 173.258 92.436 172.865 92.5931 172.415C92.7501 171.964 92.7669 171.477 92.6413 171.017C92.5156 170.556 92.2535 170.145 91.8894 169.837C91.5253 169.529 91.0764 169.338 90.6017 169.29C90.0344 169.221 89.4627 169.379 89.0117 169.73C88.6203 170.01 88.3236 170.402 88.1615 170.855C87.9994 171.308 87.9795 171.8 88.1046 172.264C88.2297 172.729 88.4938 173.144 88.8615 173.454C89.2291 173.764 89.6828 173.955 90.1617 174C90.4456 174.032 90.733 174.008 91.0076 173.93C91.2822 173.851 91.5385 173.718 91.7617 173.54Z" fill="#263238"/>
<path d="M85.371 171.62C85.701 171.81 86.841 170.17 88.951 169.49C91.061 168.81 92.951 169.42 93.081 169.08C93.161 168.92 92.771 168.52 91.941 168.22C90.8352 167.852 89.6408 167.848 88.5324 168.208C87.4241 168.568 86.4599 169.273 85.781 170.22C85.291 171 85.221 171.54 85.371 171.62Z" fill="#263238"/>
<path d="M111.172 165C110.869 165.35 110.677 165.782 110.619 166.241C110.562 166.701 110.643 167.167 110.85 167.58C111.058 167.994 111.384 168.337 111.786 168.565C112.188 168.794 112.65 168.898 113.111 168.864C113.573 168.831 114.014 168.661 114.379 168.377C114.745 168.092 115.017 167.706 115.163 167.267C115.308 166.827 115.32 166.355 115.197 165.908C115.074 165.462 114.822 165.063 114.472 164.76C114.001 164.357 113.39 164.156 112.772 164.201C112.154 164.246 111.579 164.533 111.172 165Z" fill="#263238"/>
<path d="M108.371 166.47C108.691 166.66 109.831 165.03 111.941 164.35C114.051 163.67 115.941 164.28 116.081 163.93C116.161 163.78 115.771 163.37 114.941 163.08C113.836 162.712 112.641 162.708 111.533 163.068C110.425 163.428 109.46 164.133 108.781 165.08C108.291 165.84 108.211 166.39 108.371 166.47Z" fill="#263238"/>
<path d="M105.4 186.59C105.4 186.43 103.97 186.59 101.76 186.97C101.19 187.09 100.7 187.11 100.55 186.8C100.346 186.25 100.308 185.652 100.44 185.08C100.54 183.52 100.64 181.92 100.75 180.25C101.12 173.4 101.16 167.84 100.84 167.82C100.52 167.8 99.94 173.34 99.56 180.19C99.48 181.86 99.4099 183.45 99.3399 185.02C99.208 185.835 99.356 186.67 99.76 187.39C99.9012 187.573 100.083 187.719 100.292 187.818C100.5 187.917 100.729 187.966 100.96 187.96C101.3 187.951 101.636 187.893 101.96 187.79C104.11 187.2 105.43 186.75 105.4 186.59Z" fill="#263238"/>
<path d="M113.002 186.76C114.792 184.76 108.002 191.89 103.592 193.04C104.659 193.926 105.994 194.423 107.381 194.45C108.767 194.477 110.121 194.033 111.222 193.19C115.282 190.06 113.002 186.76 113.002 186.76Z" fill="white"/>
<path d="M112.342 212.92C119.468 210.815 125.807 206.638 130.552 200.92C130.552 200.92 129.312 213.46 113.552 216.92L112.342 212.92Z" fill="#EB996E"/>
<path d="M137.271 154.07C137.581 153.85 148.441 149.59 150.691 163.12C152.941 176.65 138.531 174.43 138.441 174.05C138.351 173.67 137.271 154.07 137.271 154.07Z" fill="#FFBE9D"/>
<path d="M141.802 168.62C141.802 168.56 142.062 168.74 142.492 168.86C143.093 169.003 143.726 168.91 144.262 168.6C145.602 167.84 146.422 165.37 146.092 162.93C145.931 161.763 145.514 160.647 144.872 159.66C144.673 159.259 144.38 158.912 144.017 158.649C143.655 158.386 143.235 158.215 142.792 158.15C142.509 158.123 142.226 158.197 141.992 158.358C141.758 158.518 141.588 158.756 141.512 159.03C141.392 159.43 141.512 159.69 141.512 159.72C141.512 159.75 141.182 159.55 141.192 158.97C141.217 158.621 141.358 158.29 141.592 158.03C141.917 157.69 142.361 157.489 142.832 157.47C143.405 157.489 143.964 157.654 144.456 157.95C144.948 158.246 145.356 158.662 145.642 159.16C146.381 160.246 146.848 161.495 147.002 162.8C147.372 165.53 146.402 168.32 144.542 169.2C144.196 169.369 143.816 169.457 143.432 169.457C143.047 169.457 142.667 169.369 142.322 169.2C141.882 168.94 141.762 168.65 141.802 168.62Z" fill="#EB996E"/>
<path d="M76.5312 158.41C76.5312 158.41 87.1413 160.32 97.6113 150.84C104.471 144.62 113.231 140.06 115.741 141.09C118.251 142.12 120.971 150.23 129.561 150.41C129.561 150.41 133.411 166.26 139.511 163.95C145.611 161.64 134.891 138.42 134.891 138.42L117.681 132.11L100.091 133.64L82.2313 140.85L73.5312 150.13L76.5312 158.41Z" fill="#263238"/>
<path d="M132.332 125C131.187 125.428 130.094 125.981 129.072 126.65C128.148 127.453 127.319 128.359 126.602 129.35C126.965 128.107 127.718 127.014 128.75 126.231C129.781 125.448 131.037 125.016 132.332 125Z" fill="#263238"/>
<path d="M124.161 120.61C124.482 121.001 124.726 121.448 124.881 121.93C125.359 123.05 125.695 124.226 125.881 125.43C126.067 126.639 126.033 127.873 125.781 129.07C125.724 129.578 125.546 130.065 125.261 130.49C125.495 128.833 125.528 127.155 125.361 125.49C124.941 122.77 124.001 120.67 124.161 120.61Z" fill="#263238"/>
<path d="M165.262 363.38L234.512 350.5L244.862 397.3L172.942 409.44L165.262 363.38Z" fill="#DC3001"/>
<path d="M234.512 350.5C234.512 350.5 234.512 350.57 234.392 350.69L234.002 351.24L232.462 353.3L226.702 360.83C221.762 367.21 214.982 375.98 207.432 385.72L207.302 385.89L207.112 385.79L205.762 385.08L177.072 369.83L168.412 365.15L166.062 363.86L165.462 363.51C165.389 363.472 165.322 363.425 165.262 363.37L165.482 363.46L166.112 363.76L168.502 365C170.612 366.09 173.582 367.64 177.252 369.53L206.002 384.62L207.342 385.33L207.012 385.4L226.402 360.61L232.292 353.17C232.982 352.33 233.522 351.66 233.912 351.17C234.092 350.97 234.232 350.8 234.342 350.66L234.512 350.5Z" fill="#263238"/>
<path d="M172.942 409.44C172.822 409.36 177.272 402.3 182.892 393.67C188.512 385.04 193.152 378.1 193.272 378.18C193.392 378.26 188.942 385.32 183.272 393.95C177.602 402.58 173.062 409.52 172.942 409.44Z" fill="#263238"/>
<path d="M244.861 397.3C244.771 397.41 238.291 392.45 230.391 386.22C222.491 379.99 216.161 374.85 216.251 374.74C216.341 374.63 222.811 379.58 230.721 385.81C238.631 392.04 245.001 397.18 244.861 397.3Z" fill="#263238"/>
<path d="M167.081 373.82C167.081 373.82 167.571 382.89 171.941 382.82C176.311 382.75 191.731 374.33 193.521 377.25C195.311 380.17 190.581 384.25 190.581 384.25C190.581 384.25 196.011 384.17 193.991 387.42C191.971 390.67 185.921 405.89 180.331 407.32C172.331 409.37 153.801 410.17 153.801 410.17L159.511 378.3L167.081 373.82Z" fill="#FFBE9D"/>
<path d="M192.26 382.28C192.093 382.519 191.898 382.737 191.68 382.93C191.28 383.32 190.68 383.87 189.92 384.51C185.919 387.863 181.414 390.563 176.57 392.51C175.64 392.88 174.88 393.15 174.35 393.32C174.078 393.431 173.792 393.502 173.5 393.53C174.448 393.018 175.427 392.563 176.43 392.17C181.147 390.03 185.597 387.345 189.69 384.17C190.507 383.487 191.365 382.856 192.26 382.28Z" fill="#EB996E"/>
<path d="M192.001 391.26C191.581 392.091 191.045 392.858 190.411 393.54C187.482 396.998 183.685 399.614 179.411 401.12C178.547 401.472 177.638 401.704 176.711 401.81C177.548 401.427 178.406 401.094 179.281 400.81C183.393 399.146 187.085 396.592 190.091 393.33C190.691 392.607 191.329 391.916 192.001 391.26Z" fill="#EB996E"/>
</svg>
