<svg width="24" height="20" viewBox="0 0 24 20" fill="none" xmlns="http://www.w3.org/2000/svg">
<path d="M0.0327148 6.20577V15.8026C0.0327148 16.8285 0.440248 17.8124 1.16566 18.5378C1.89108 19.2632 2.87495 19.6707 3.90084 19.6707H19.3734C20.3992 19.6707 21.3831 19.2632 22.1085 18.5378C22.8339 17.8124 23.2415 16.8285 23.2415 15.8026V4.19821C23.2415 3.17231 22.8339 2.18844 22.1085 1.46303C21.3831 0.737612 20.3992 0.330078 19.3734 0.330078H3.90084C2.87495 0.330078 1.89108 0.737612 1.16566 1.46303C0.440248 2.18844 0.0327148 3.17231 0.0327148 4.19821V6.20577ZM3.90084 2.26414H19.3734C19.8863 2.26414 20.3782 2.46791 20.7409 2.83062C21.1037 3.19332 21.3074 3.68526 21.3074 4.19821V5.62941L11.6371 10.8359L1.96678 5.62941V4.19821C1.96678 3.68526 2.17055 3.19332 2.53325 2.83062C2.89596 2.46791 3.3879 2.26414 3.90084 2.26414V2.26414ZM1.96678 7.82651L11.1787 12.7855C11.3196 12.8613 11.4771 12.901 11.6371 12.901C11.7971 12.901 11.9546 12.8613 12.0955 12.7855L21.3074 7.82651V15.8026C21.3074 16.3155 21.1037 16.8075 20.7409 17.1702C20.3782 17.5329 19.8863 17.7367 19.3734 17.7367H3.90084C3.3879 17.7367 2.89596 17.5329 2.53325 17.1702C2.17055 16.8075 1.96678 16.3155 1.96678 15.8026V7.82651Z" fill="white"/>
</svg>
