<svg width="390" height="395" viewBox="0 0 390 395" fill="none" xmlns="http://www.w3.org/2000/svg">
<ellipse cx="195" cy="200.151" rx="119.413" ry="119.32" fill="#112242"/>
<ellipse cx="225.559" cy="95.9697" rx="27.6493" ry="26.1738" fill="white"/>
<ellipse cx="228.169" cy="184.37" rx="18.6181" ry="18.6037" fill="white"/>
<ellipse cx="115.392" cy="218.755" rx="18.6181" ry="18.6037" fill="white"/>
<ellipse cx="186.27" cy="302.452" rx="29.1045" ry="29.082" fill="white"/>
<ellipse cx="300.932" cy="178.555" rx="18.6181" ry="18.6037" fill="white"/>
<mask id="path-7-inside-1_1335_291" fill="white">
<path d="M153.792 46.4788C68.8552 69.2198 18.4495 156.457 41.2084 241.328C63.9672 326.199 151.272 376.565 236.208 353.824C321.145 331.083 371.55 243.846 348.792 158.975C326.033 74.1043 238.729 23.7376 153.792 46.4788ZM254.064 97.928C305.526 127.616 324.97 188.846 306.041 240.507L104.503 124.24C139.838 82.0005 202.632 68.2568 254.064 97.928ZM135.936 302.375C84.4744 272.687 65.0298 211.457 83.9591 159.796L285.497 276.063C250.163 318.302 187.368 332.047 135.936 302.375Z"/>
<path d="M254.064 97.928C305.526 127.616 324.97 188.846 306.041 240.507L104.503 124.24C139.838 82.0005 202.632 68.2568 254.064 97.928Z"/>
<path d="M135.936 302.375C84.4744 272.687 65.0298 211.457 83.9591 159.796L285.497 276.063C250.163 318.302 187.368 332.047 135.936 302.375Z"/>
</mask>
<path d="M153.792 46.4788C68.8552 69.2198 18.4495 156.457 41.2084 241.328C63.9672 326.199 151.272 376.565 236.208 353.824C321.145 331.083 371.55 243.846 348.792 158.975C326.033 74.1043 238.729 23.7376 153.792 46.4788ZM254.064 97.928C305.526 127.616 324.97 188.846 306.041 240.507L104.503 124.24C139.838 82.0005 202.632 68.2568 254.064 97.928ZM135.936 302.375C84.4744 272.687 65.0298 211.457 83.9591 159.796L285.497 276.063C250.163 318.302 187.368 332.047 135.936 302.375Z" fill="#DC3001"/>
<path d="M254.064 97.928L254.814 96.6289L254.814 96.6289L254.064 97.928ZM306.041 240.507L305.292 241.806L306.836 242.697L307.45 241.023L306.041 240.507ZM104.503 124.24L103.352 123.278L102.207 124.647L103.754 125.539L104.503 124.24ZM83.9591 159.796L84.7085 158.497L83.1638 157.606L82.5504 159.28L83.9591 159.796ZM285.497 276.063L286.648 277.025L287.793 275.656L286.246 274.764L285.497 276.063ZM253.315 99.227C304.119 128.536 323.321 188.986 304.632 239.99L307.45 241.023C326.619 188.705 306.932 126.696 254.814 96.6289L253.315 99.227ZM306.79 239.208L105.253 122.941L103.754 125.539L305.292 241.806L306.79 239.208ZM105.654 125.203C140.54 83.4993 202.539 69.9345 253.315 99.227L254.814 96.6289C202.725 66.5792 139.135 80.5017 103.352 123.278L105.654 125.203ZM136.685 301.076C85.8811 271.767 66.6792 211.317 85.3677 160.312L82.5504 159.28C63.3805 211.598 83.0678 273.607 135.186 303.674L136.685 301.076ZM83.2097 161.095L284.747 277.362L286.246 274.764L84.7085 158.497L83.2097 161.095ZM284.346 275.1C249.461 316.803 187.461 330.369 136.685 301.076L135.186 303.674C187.275 333.724 250.865 319.801 286.648 277.025L284.346 275.1ZM153.015 43.5812C66.4796 66.7502 15.122 155.63 38.3104 242.104L44.1063 240.552C21.7771 157.283 71.2309 71.6895 154.569 49.3765L153.015 43.5812ZM38.3104 242.104C61.4989 328.577 150.45 379.891 236.985 356.722L235.431 350.926C152.094 373.239 66.4355 323.821 44.1063 240.552L38.3104 242.104ZM236.985 356.722C323.52 333.553 374.878 244.672 351.69 158.199L345.894 159.751C368.223 243.019 318.769 328.613 235.431 350.926L236.985 356.722ZM351.69 158.199C328.501 71.7263 239.55 20.412 153.015 43.5812L154.569 49.3765C237.907 27.0633 323.565 76.4824 345.894 159.751L351.69 158.199Z" fill="white" mask="url(#path-7-inside-1_1335_291)"/>
<ellipse cx="137.865" cy="85.3223" rx="46.2243" ry="46.1885" fill="#112242"/>
<ellipse cx="138.504" cy="11.5488" rx="11.5561" ry="11.5488" fill="#112242"/>
<ellipse cx="75.5863" cy="45.5479" rx="11.5561" ry="11.5488" fill="#112242"/>
<rect x="134.012" y="17.96" width="8.98805" height="27.5889" fill="#112242"/>
<rect width="8.98416" height="27.6008" transform="matrix(0.554932 -0.831896 0.832292 0.554337 77.5127 53.0205)" fill="#112242"/>
</svg>
