<svg fill="none" height="20" viewBox="0 0 169 20" width="169" xmlns="http://www.w3.org/2000/svg"><path d="m10.4791 9.812c.969-.51 1.581-1.428 1.581-2.618 0-1.853-1.53-3.094-4.50502-3.094h-5.814v11.9h6.154c3.12802 0 4.76002-1.19 4.76002-3.247 0-1.496-.85-2.516-2.176-2.941zm-3.26402-3.638c1.343 0 2.074.459 2.074 1.394s-.731 1.411-2.074 1.411h-2.737v-2.805zm.476 7.752h-3.213v-2.941h3.213c1.428 0 2.193.476 2.193 1.479 0 1.02-.765 1.462-2.193 1.462zm12.33602 2.278c3.383 0 5.389-1.938 5.389-5.44v-6.664h-2.72v6.562c0 2.261-.969 3.196-2.652 3.196-1.666 0-2.652-.935-2.652-3.196v-6.562h-2.754v6.664c0 3.502 2.006 5.44 5.389 5.44zm16.1515-2.856c-.697.374-1.394.51-2.142.51-2.278 0-3.859-1.581-3.859-3.808 0-2.261 1.581-3.808 3.893-3.808 1.207 0 2.21.425 3.077 1.343l1.768-1.632c-1.156-1.343-2.89-2.057-4.981-2.057-3.791 0-6.545 2.567-6.545 6.154s2.754 6.154 6.494 6.154c1.7 0 3.502-.527 4.811-1.513v-4.828h-2.516zm18.8817-7.038v-2.21h-8.993v11.9h2.754v-4.335h5.508v-2.21h-5.508v-3.145zm12.4044 9.69-2.669-3.825c1.547-.663 2.448-1.972 2.448-3.757 0-2.669-1.989-4.318-5.168-4.318h-5.151v11.9h2.754v-3.315h2.397.136l2.295 3.315zm-3.009-7.582c0 1.292-.85 2.074-2.533 2.074h-2.244v-4.148h2.244c1.683 0 2.533.765 2.533 2.074zm7.7069 5.372v-2.754h5.525v-2.142h-5.525v-2.584h6.256v-2.21h-8.993v11.9h9.214v-2.21zm11.4053 0v-2.754h5.525v-2.142h-5.525v-2.584h6.256v-2.21h-8.993v11.9h9.214v-2.21zm19.1781 2.414c2.074 0 3.791-.748 4.913-2.125l-1.768-1.632c-.799.935-1.802 1.411-2.992 1.411-2.227 0-3.8084-1.564-3.8084-3.808s1.5814-3.808 3.8084-3.808c1.19 0 2.193.476 2.992 1.394l1.768-1.632c-1.122-1.36-2.839-2.108-4.896-2.108-3.7064 0-6.4604 2.567-6.4604 6.154s2.754 6.154 6.4434 6.154zm12.286 0c3.74 0 6.511-2.601 6.511-6.154s-2.771-6.154-6.511-6.154c-3.757 0-6.511 2.618-6.511 6.154s2.754 6.154 6.511 6.154zm0-2.346c-2.125 0-3.723-1.547-3.723-3.808s1.598-3.808 3.723-3.808 3.723 1.547 3.723 3.808-1.598 3.808-3.723 3.808zm8.581 2.142h5.406c3.893 0 6.562-2.346 6.562-5.95s-2.669-5.95-6.562-5.95h-5.406zm2.754-2.261v-7.378h2.516c2.363 0 3.91 1.411 3.91 3.689s-1.547 3.689-3.91 3.689zm11.291 2.261h2.754v-11.9h-2.754zm13.772-11.9v7.225l-5.916-7.225h-2.278v11.9h2.72v-7.225l5.933 7.225h2.261v-11.9zm13.577 9.248c-.697.374-1.394.51-2.142.51-2.278 0-3.859-1.581-3.859-3.808 0-2.261 1.581-3.808 3.893-3.808 1.207 0 2.21.425 3.077 1.343l1.768-1.632c-1.156-1.343-2.89-2.057-4.981-2.057-3.791 0-6.545 2.567-6.545 6.154s2.754 6.154 6.494 6.154c1.7 0 3.502-.527 4.811-1.513v-4.828h-2.516z" fill="#112242"/><circle cx="115.004" cy="10.2447" fill="#112242" r="5.51135"/><ellipse cx="116.413" cy="5.43308" fill="#fff" rx="1.27612" ry="1.20896"/><circle cx="116.531" cy="9.51652" fill="#fff" r=".859297"/><circle cx="111.328" cy="11.1039" fill="#fff" r=".859297"/><circle cx="114.597" cy="14.9688" fill="#fff" r="1.34328"/><circle cx="119.891" cy="9.24699" fill="#fff" r=".859297"/><path d="m113.098 3.14739c-3.92 1.0504-6.246 5.07983-5.196 9.00001 1.05 3.9202 5.08 6.2465 9 5.1961s6.246-5.0798 5.196-8.99996c-1.05-3.92014-5.08-6.24655-9-5.19615zm4.628 2.37642c2.375 1.37128 3.273 4.19944 2.399 6.58569l-9.302-5.37035c1.631-1.95103 4.529-2.58584 6.903-1.21534zm-5.452 9.44329c-2.375-1.3713-3.273-4.1994-2.399-6.58563l9.302 5.37033c-1.631 1.951-4.529 2.5859-6.903 1.2153z" fill="#dc3001"/><g fill="#112242"><circle cx="112.364" cy="4.94056" r="2.13343"/><circle cx="112.393" cy="1.53336" r=".533357"/><circle cx="109.49" cy="3.10416" r=".533357"/><path d="m112.184 1.83008h.414833v1.27413h-.414833z"/><path d="m109.578 3.44971h.414833v1.27413h-.414833z" transform="matrix(.55463386 -.83209451 .83209451 .55463386 45.931846 92.715636)"/></g></svg>