<svg width="32" height="32" viewBox="0 0 32 32" fill="none" xmlns="http://www.w3.org/2000/svg">
<g clip-path="url(#clip0_204_1670)">
<path d="M26.6875 0H5.3125C2.37849 0 0 2.43947 0 5.44872V26.5513C0 29.5605 2.37849 32 5.3125 32H26.6875C29.6215 32 32 29.5605 32 26.5513V5.44872C32 2.43947 29.6215 0 26.6875 0Z" fill="#330000"/>
<path d="M16.0398 20.4813H11.0044L9.97975 23.7944C9.96581 23.8549 9.93205 23.9083 9.8843 23.9456C9.83654 23.9829 9.77778 24.0017 9.71815 23.9987H7.1677C7.02236 23.9987 6.97146 23.9155 7.01512 23.749L11.3749 10.6782C11.4184 10.5421 11.4621 10.3871 11.5056 10.213C11.5627 9.91018 11.5919 9.60257 11.5928 9.29403C11.5898 9.27244 11.5917 9.25044 11.5984 9.22975C11.605 9.20907 11.6161 9.19027 11.6309 9.17485C11.6457 9.15942 11.6638 9.1478 11.6836 9.14089C11.7035 9.13399 11.7246 9.13199 11.7454 9.13506H15.2114C15.3129 9.13506 15.3711 9.17299 15.3858 9.2487L20.334 23.7717C20.3777 23.9231 20.334 23.9989 20.2033 23.9987H17.3694C17.3207 24.0043 17.2717 23.9913 17.2316 23.9621C17.1915 23.9329 17.163 23.8894 17.1514 23.8399L16.0398 20.4813V20.4813ZM11.789 17.6221H15.2332L15.1841 17.4534L15.1053 17.1862L15.049 16.9986L14.9593 16.7031L14.7685 16.0812L14.6007 15.5297L14.165 14.0934C14.0565 13.7363 13.9524 13.3779 13.8527 13.0181L13.773 12.726L13.6798 12.3808L13.5377 11.8456L13.511 11.7448H13.4893C13.3802 12.2895 13.2474 12.8287 13.0912 13.3608L12.7678 14.4438L12.5899 15.0422L12.4103 15.6479C12.3778 15.7573 12.3455 15.8655 12.3131 15.9724L12.2167 16.2893L12.1207 16.5987L12.0253 16.9005L11.9303 17.1948C11.8988 17.2917 11.8674 17.3872 11.836 17.4815L11.789 17.6221V17.6221ZM23.2765 11.5405C23.0542 11.5498 22.8325 11.5101 22.6259 11.4241C22.4193 11.3381 22.2325 11.2076 22.0777 11.0413C21.9232 10.8677 21.8033 10.6641 21.7247 10.4421C21.6462 10.2201 21.6105 9.98416 21.6198 9.74779C21.6119 9.51379 21.6515 9.28068 21.736 9.06369C21.8205 8.8467 21.9481 8.65071 22.1103 8.48851C22.4232 8.17583 22.8399 8.00084 23.2736 8L23.3201 8.00053C23.8433 8.00053 24.2539 8.16306 24.5518 8.48838C24.7022 8.65741 24.8191 8.85565 24.8957 9.07176C24.9724 9.28787 25.0074 9.51759 24.9986 9.74779C25.0078 9.9851 24.971 10.2219 24.8905 10.4441C24.81 10.6664 24.6874 10.8695 24.53 11.0414C24.3711 11.2045 24.1825 11.3328 23.9752 11.4188C23.7679 11.5048 23.5462 11.5468 23.3231 11.5422L23.2765 11.5405V11.5405ZM21.7724 23.7717V12.9248C21.7724 12.7887 21.8303 12.7205 21.9468 12.7205H24.6281C24.7443 12.7205 24.8024 12.7885 24.8025 12.9248V23.7717C24.8025 23.9231 24.7444 23.9989 24.6281 23.9987H21.9686C21.8447 23.9987 21.7795 23.9308 21.773 23.795L21.7724 23.7717Z" fill="#FF9A00"/>
</g>
<defs>
<clipPath id="clip0_204_1670">
<rect width="32" height="32" fill="white"/>
</clipPath>
</defs>
</svg>
