<svg width="251" height="94" viewBox="0 0 251 94" fill="none" xmlns="http://www.w3.org/2000/svg">
<path d="M4.30481 40V7.1H20.3788C24.5148 7.1 27.6168 7.88333 29.6848 9.45C31.7841 11.0167 32.8338 13.0847 32.8338 15.654C32.8338 17.3773 32.4108 18.8813 31.5648 20.166C30.7188 21.4193 29.5595 22.3907 28.0868 23.08C26.6141 23.7693 24.9221 24.114 23.0108 24.114L23.9038 22.187C25.9718 22.187 27.8048 22.5317 29.4028 23.221C31.0008 23.879 32.2385 24.866 33.1158 26.182C34.0245 27.498 34.4788 29.1117 34.4788 31.023C34.4788 33.843 33.3665 36.052 31.1418 37.65C28.9171 39.2167 25.6428 40 21.3188 40H4.30481ZM11.8718 34.266H20.7548C22.7288 34.266 24.2171 33.9527 25.2198 33.326C26.2538 32.668 26.7708 31.634 26.7708 30.224C26.7708 28.8453 26.2538 27.827 25.2198 27.169C24.2171 26.4797 22.7288 26.135 20.7548 26.135H11.3078V20.589H19.4388C21.2875 20.589 22.6975 20.2757 23.6688 19.649C24.6715 18.991 25.1728 18.004 25.1728 16.688C25.1728 15.4033 24.6715 14.4477 23.6688 13.821C22.6975 13.163 21.2875 12.834 19.4388 12.834H11.8718V34.266ZM54.8603 40.564C50.1916 40.564 46.5413 39.2637 43.9093 36.663C41.2773 34.0623 39.9613 30.3493 39.9613 25.524V7.1H47.5753V25.242C47.5753 28.3753 48.2176 30.6313 49.5023 32.01C50.787 33.3887 52.5886 34.078 54.9073 34.078C57.226 34.078 59.0276 33.3887 60.3123 32.01C61.597 30.6313 62.2393 28.3753 62.2393 25.242V7.1H69.7593V25.524C69.7593 30.3493 68.4433 34.0623 65.8113 36.663C63.1793 39.2637 59.529 40.564 54.8603 40.564ZM93.1693 40.564C90.5687 40.564 88.1717 40.1567 85.9783 39.342C83.8163 38.496 81.9207 37.3053 80.2913 35.77C78.6933 34.2347 77.44 32.433 76.5313 30.365C75.654 28.297 75.2153 26.0253 75.2153 23.55C75.2153 21.0747 75.654 18.803 76.5313 16.735C77.44 14.667 78.709 12.8653 80.3383 11.33C81.9677 9.79467 83.879 8.61966 86.0723 7.805C88.2657 6.959 90.6783 6.536 93.3103 6.536C96.2243 6.536 98.8407 7.02167 101.159 7.993C103.509 8.96433 105.483 10.3743 107.081 12.223L102.193 16.735C101.003 15.4817 99.7023 14.5573 98.2923 13.962C96.8823 13.3353 95.347 13.022 93.6863 13.022C92.0883 13.022 90.6313 13.2727 89.3153 13.774C87.9993 14.2753 86.8557 14.996 85.8843 15.936C84.9443 16.876 84.208 17.9883 83.6753 19.273C83.174 20.5577 82.9233 21.9833 82.9233 23.55C82.9233 25.0853 83.174 26.4953 83.6753 27.78C84.208 29.0647 84.9443 30.1927 85.8843 31.164C86.8557 32.104 87.9837 32.8247 89.2683 33.326C90.5843 33.8273 92.0257 34.078 93.5923 34.078C95.0963 34.078 96.5533 33.843 97.9633 33.373C99.4047 32.8717 100.799 32.0413 102.146 30.882L106.47 36.381C104.684 37.7283 102.601 38.7623 100.219 39.483C97.8693 40.2037 95.5193 40.564 93.1693 40.564ZM99.5143 35.394V23.033H106.47V36.381L99.5143 35.394ZM133.904 21.905H149.696V28.015H133.904V21.905ZM134.468 40H126.854V7.1H151.717V13.21H134.468V40ZM156.871 40V7.1H171.112C174.058 7.1 176.596 7.58566 178.726 8.557C180.857 9.497 182.502 10.86 183.661 12.646C184.821 14.432 185.4 16.5627 185.4 19.038C185.4 21.482 184.821 23.597 183.661 25.383C182.502 27.1377 180.857 28.485 178.726 29.425C176.596 30.365 174.058 30.835 171.112 30.835H161.101L164.485 27.498V40H156.871ZM177.786 40L169.561 28.062H177.692L186.011 40H177.786ZM164.485 28.344L161.101 24.772H170.689C173.039 24.772 174.794 24.2707 175.953 23.268C177.113 22.234 177.692 20.824 177.692 19.038C177.692 17.2207 177.113 15.8107 175.953 14.808C174.794 13.8053 173.039 13.304 170.689 13.304H161.101L164.485 9.685V28.344ZM198.436 20.354H214.275V26.276H198.436V20.354ZM199 33.89H216.907V40H191.433V7.1H216.296V13.21H199V33.89ZM229.968 20.354H245.807V26.276H229.968V20.354ZM230.532 33.89H248.439V40H222.965V7.1H247.828V13.21H230.532V33.89ZM44.1924 86.564C41.6544 86.564 39.2887 86.1567 37.0954 85.342C34.9334 84.496 33.0534 83.3053 31.4554 81.77C29.8574 80.2347 28.6041 78.433 27.6954 76.365C26.8181 74.297 26.3794 72.0253 26.3794 69.55C26.3794 67.0747 26.8181 64.803 27.6954 62.735C28.6041 60.667 29.8574 58.8653 31.4554 57.33C33.0847 55.7947 34.9804 54.6197 37.1424 53.805C39.3044 52.959 41.6701 52.536 44.2394 52.536C47.0907 52.536 49.6601 53.0373 51.9474 54.04C54.2661 55.0113 56.2087 56.4527 57.7754 58.364L52.8874 62.876C51.7594 61.5913 50.5061 60.6357 49.1274 60.009C47.7487 59.351 46.2447 59.022 44.6154 59.022C43.0801 59.022 41.6701 59.2727 40.3854 59.774C39.1007 60.2753 37.9884 60.996 37.0484 61.936C36.1084 62.876 35.3721 63.9883 34.8394 65.273C34.3381 66.5577 34.0874 67.9833 34.0874 69.55C34.0874 71.1167 34.3381 72.5423 34.8394 73.827C35.3721 75.1117 36.1084 76.224 37.0484 77.164C37.9884 78.104 39.1007 78.8247 40.3854 79.326C41.6701 79.8273 43.0801 80.078 44.6154 80.078C46.2447 80.078 47.7487 79.7647 49.1274 79.138C50.5061 78.48 51.7594 77.493 52.8874 76.177L57.7754 80.689C56.2087 82.6003 54.2661 84.0573 51.9474 85.06C49.6601 86.0627 47.0751 86.564 44.1924 86.564ZM78.2086 86.564C75.608 86.564 73.1953 86.141 70.9706 85.295C68.7773 84.449 66.866 83.2583 65.2366 81.723C63.6386 80.1877 62.3853 78.386 61.4766 76.318C60.5993 74.25 60.1606 71.994 60.1606 69.55C60.1606 67.106 60.5993 64.85 61.4766 62.782C62.3853 60.714 63.6543 58.9123 65.2836 57.377C66.913 55.8417 68.8243 54.651 71.0176 53.805C73.211 52.959 75.5923 52.536 78.1616 52.536C80.7623 52.536 83.1436 52.959 85.3056 53.805C87.499 54.651 89.3946 55.8417 90.9926 57.377C92.622 58.9123 93.891 60.714 94.7996 62.782C95.7083 64.8187 96.1626 67.0747 96.1626 69.55C96.1626 71.994 95.7083 74.2657 94.7996 76.365C93.891 78.433 92.622 80.2347 90.9926 81.77C89.3946 83.274 87.499 84.449 85.3056 85.295C83.1436 86.141 80.778 86.564 78.2086 86.564ZM78.1616 80.078C79.6343 80.078 80.9816 79.8273 82.2036 79.326C83.457 78.8247 84.5536 78.104 85.4936 77.164C86.4336 76.224 87.1543 75.1117 87.6556 73.827C88.1883 72.5423 88.4546 71.1167 88.4546 69.55C88.4546 67.9833 88.1883 66.5577 87.6556 65.273C87.1543 63.9883 86.4336 62.876 85.4936 61.936C84.585 60.996 83.504 60.2753 82.2506 59.774C80.9973 59.2727 79.6343 59.022 78.1616 59.022C76.689 59.022 75.326 59.2727 74.0726 59.774C72.8506 60.2753 71.7696 60.996 70.8296 61.936C69.8896 62.876 69.1533 63.9883 68.6206 65.273C68.1193 66.5577 67.8686 67.9833 67.8686 69.55C67.8686 71.0853 68.1193 72.511 68.6206 73.827C69.1533 75.1117 69.874 76.224 70.7826 77.164C71.7226 78.104 72.8193 78.8247 74.0726 79.326C75.326 79.8273 76.689 80.078 78.1616 80.078ZM101.885 86V53.1H116.831C120.403 53.1 123.552 53.7893 126.278 55.168C129.004 56.5153 131.135 58.411 132.67 60.855C134.205 63.299 134.973 66.1973 134.973 69.55C134.973 72.8713 134.205 75.7697 132.67 78.245C131.135 80.689 129.004 82.6003 126.278 83.979C123.552 85.3263 120.403 86 116.831 86H101.885ZM109.499 79.749H116.455C118.648 79.749 120.544 79.3417 122.142 78.527C123.771 77.681 125.025 76.4903 125.902 74.955C126.811 73.4197 127.265 71.618 127.265 69.55C127.265 67.4507 126.811 65.649 125.902 64.145C125.025 62.6097 123.771 61.4347 122.142 60.62C120.544 59.774 118.648 59.351 116.455 59.351H109.499V79.749ZM140.715 86V53.1H148.329V86H140.715ZM156.137 86V53.1H162.435L181.846 76.788H178.791V53.1H186.311V86H180.06L160.602 62.312H163.657V86H156.137ZM209.981 86.564C207.38 86.564 204.983 86.1567 202.79 85.342C200.628 84.496 198.732 83.3053 197.103 81.77C195.505 80.2347 194.252 78.433 193.343 76.365C192.466 74.297 192.027 72.0253 192.027 69.55C192.027 67.0747 192.466 64.803 193.343 62.735C194.252 60.667 195.521 58.8653 197.15 57.33C198.779 55.7947 200.691 54.6197 202.884 53.805C205.077 52.959 207.49 52.536 210.122 52.536C213.036 52.536 215.652 53.0217 217.971 53.993C220.321 54.9643 222.295 56.3743 223.893 58.223L219.005 62.735C217.814 61.4817 216.514 60.5573 215.104 59.962C213.694 59.3353 212.159 59.022 210.498 59.022C208.9 59.022 207.443 59.2727 206.127 59.774C204.811 60.2753 203.667 60.996 202.696 61.936C201.756 62.876 201.02 63.9883 200.487 65.273C199.986 66.5577 199.735 67.9833 199.735 69.55C199.735 71.0853 199.986 72.4953 200.487 73.78C201.02 75.0647 201.756 76.1927 202.696 77.164C203.667 78.104 204.795 78.8247 206.08 79.326C207.396 79.8273 208.837 80.078 210.404 80.078C211.908 80.078 213.365 79.843 214.775 79.373C216.216 78.8717 217.611 78.0413 218.958 76.882L223.282 82.381C221.496 83.7283 219.412 84.7623 217.031 85.483C214.681 86.2037 212.331 86.564 209.981 86.564ZM216.326 81.394V69.033H223.282V82.381L216.326 81.394Z" fill="#112242"/>
<circle cx="78.5002" cy="69.1666" r="15.0031" fill="#112242"/>
<ellipse cx="82.3396" cy="56.0671" rx="3.47388" ry="3.29104" fill="white"/>
<circle cx="82.6678" cy="67.1825" r="2.3392" fill="white"/>
<circle cx="68.4984" cy="71.5058" r="2.3392" fill="white"/>
<circle cx="77.4028" cy="82.0299" r="3.65672" fill="white"/>
<circle cx="91.8094" cy="66.4512" r="2.3392" fill="white"/>
<path d="M73.3225 49.8441C62.651 52.7035 56.318 63.6725 59.1775 74.3441C62.0369 85.0156 73.006 91.3486 83.6775 88.4892C94.349 85.6297 100.682 74.6606 97.8225 63.9892C94.9631 53.3177 83.9941 46.9846 73.3225 49.8441ZM85.9209 56.3132C92.3865 60.0461 94.8296 67.745 92.4513 74.2408L67.1299 59.6216C71.5693 54.3105 79.4589 52.5824 85.9209 56.3132ZM71.0791 82.02C64.6135 78.2871 62.1704 70.5882 64.5487 64.0924L89.8701 78.7116C85.4307 84.0227 77.5412 85.7509 71.0791 82.02Z" fill="#DC3001"/>
<circle cx="71.3213" cy="54.7282" r="5.80766" fill="#112242"/>
<circle cx="71.4016" cy="45.452" r="1.45192" fill="#112242"/>
<circle cx="63.4968" cy="49.727" r="1.45192" fill="#112242"/>
<rect x="70.8374" y="46.2585" width="1.12927" height="3.46846" fill="#112242"/>
<rect x="63.7388" y="50.6667" width="1.12927" height="3.46846" transform="rotate(-56.3145 63.7388 50.6667)" fill="#112242"/>
</svg>
