<svg width="384" height="139" viewBox="0 0 384 139" fill="none" xmlns="http://www.w3.org/2000/svg">
<path d="M42.984 33.792C47.088 31.632 49.68 27.744 49.68 22.704C49.68 14.856 43.2 9.6 30.6 9.6H5.976V60H32.04C45.288 60 52.2 54.96 52.2 46.248C52.2 39.912 48.6 35.592 42.984 33.792ZM29.16 18.384C34.848 18.384 37.944 20.328 37.944 24.288C37.944 28.248 34.848 30.264 29.16 30.264H17.568V18.384H29.16ZM31.176 51.216H17.568V38.76H31.176C37.224 38.76 40.464 40.776 40.464 45.024C40.464 49.344 37.224 51.216 31.176 51.216ZM83.4227 60.864C97.7507 60.864 106.247 52.656 106.247 37.824V9.6H94.7267V37.392C94.7267 46.968 90.6227 50.928 83.4947 50.928C76.4387 50.928 72.2627 46.968 72.2627 37.392V9.6H60.5987V37.824C60.5987 52.656 69.0947 60.864 83.4227 60.864ZM151.829 48.768C148.877 50.352 145.925 50.928 142.757 50.928C133.109 50.928 126.413 44.232 126.413 34.8C126.413 25.224 133.109 18.672 142.901 18.672C148.013 18.672 152.261 20.472 155.933 24.36L163.421 17.448C158.525 11.76 151.181 8.736 142.325 8.736C126.269 8.736 114.605 19.608 114.605 34.8C114.605 49.992 126.269 60.864 142.109 60.864C149.309 60.864 156.941 58.632 162.485 54.456V34.008H151.829V48.768ZM231.798 18.96V9.6H193.71V60H205.374V41.64H228.702V32.28H205.374V18.96H231.798ZM284.335 60L273.031 43.8C279.583 40.992 283.399 35.448 283.399 27.888C283.399 16.584 274.975 9.6 261.511 9.6H239.695V60H251.359V45.96H261.511H262.087L271.807 60H284.335ZM271.591 27.888C271.591 33.36 267.991 36.672 260.863 36.672H251.359V19.104H260.863C267.991 19.104 271.591 22.344 271.591 27.888ZM304.232 50.64V38.976H327.632V29.904H304.232V18.96H330.728V9.6H292.64V60H331.664V50.64H304.232ZM352.537 50.64V38.976H375.937V29.904H352.537V18.96H379.033V9.6H340.945V60H379.969V50.64H352.537ZM30.096 128.864C38.88 128.864 46.152 125.696 50.904 119.864L43.416 112.952C40.032 116.912 35.784 118.928 30.744 118.928C21.312 118.928 14.616 112.304 14.616 102.8C14.616 93.296 21.312 86.672 30.744 86.672C35.784 86.672 40.032 88.688 43.416 92.576L50.904 85.664C46.152 79.904 38.88 76.736 30.168 76.736C14.472 76.736 2.808 87.608 2.808 102.8C2.808 117.992 14.472 128.864 30.096 128.864ZM82.134 128.864C97.974 128.864 109.71 117.848 109.71 102.8C109.71 87.752 97.974 76.736 82.134 76.736C66.222 76.736 54.558 87.824 54.558 102.8C54.558 117.776 66.222 128.864 82.134 128.864ZM82.134 118.928C73.134 118.928 66.366 112.376 66.366 102.8C66.366 93.224 73.134 86.672 82.134 86.672C91.134 86.672 97.902 93.224 97.902 102.8C97.902 112.376 91.134 118.928 82.134 118.928ZM118.476 128H141.372C157.86 128 169.164 118.064 169.164 102.8C169.164 87.536 157.86 77.6 141.372 77.6H118.476V128ZM130.14 118.424V87.176H140.796C150.804 87.176 157.356 93.152 157.356 102.8C157.356 112.448 150.804 118.424 140.796 118.424H130.14ZM177.96 128H189.624V77.6H177.96V128ZM236.289 77.6V108.2L211.233 77.6H201.585V128H213.105V97.4L238.233 128H247.809V77.6H236.289ZM293.79 116.768C290.838 118.352 287.886 118.928 284.718 118.928C275.07 118.928 268.374 112.232 268.374 102.8C268.374 93.224 275.07 86.672 284.862 86.672C289.974 86.672 294.222 88.472 297.894 92.36L305.382 85.448C300.486 79.76 293.142 76.736 284.286 76.736C268.23 76.736 256.566 87.608 256.566 102.8C256.566 117.992 268.23 128.864 284.07 128.864C291.27 128.864 298.902 126.632 304.446 122.456V102.008H293.79V116.768Z" fill="#112242"/>
<ellipse cx="82.5001" cy="101.506" rx="22.964" ry="22.9605" fill="#112242"/>
<ellipse cx="88.3767" cy="81.4584" rx="5.31716" ry="5.03656" fill="white"/>
<ellipse cx="88.8792" cy="98.4692" rx="3.5804" ry="3.57987" fill="white"/>
<ellipse cx="67.1908" cy="105.085" rx="3.5804" ry="3.57987" fill="white"/>
<ellipse cx="80.8216" cy="121.191" rx="5.59702" ry="5.59618" fill="white"/>
<ellipse cx="102.871" cy="97.35" rx="3.5804" ry="3.57987" fill="white"/>
<path d="M74.5753 71.9348C58.2414 76.3108 48.548 93.0976 52.9247 109.429C57.3014 125.761 74.0908 135.453 90.4247 131.077C106.759 126.701 116.452 109.914 112.075 93.5822C107.699 77.2507 90.9094 67.5587 74.5753 71.9348ZM93.8586 81.835C103.755 87.5478 107.494 99.3301 103.854 109.271L65.0968 86.8982C71.8918 78.7701 83.9677 76.1255 93.8586 81.835ZM71.1414 121.176C61.2451 115.464 57.5057 103.681 61.146 93.7402L99.9032 116.113C93.1083 124.241 81.0324 126.886 71.1414 121.176Z" fill="#DC3001"/>
<ellipse cx="71.5123" cy="79.4093" rx="8.88928" ry="8.88795" fill="#112242"/>
<circle cx="71.6354" cy="65.2135" r="2.22232" fill="#112242"/>
<circle cx="59.5358" cy="71.7559" r="2.22232" fill="#112242"/>
<rect x="70.7715" y="66.4474" width="1.72847" height="5.30887" fill="#112242"/>
<rect width="1.72847" height="5.30887" transform="matrix(0.554691 -0.832056 0.832132 0.554577 59.9062 73.1936)" fill="#112242"/>
</svg>
