<svg width="32" height="32" viewBox="0 0 32 32" fill="none" xmlns="http://www.w3.org/2000/svg">
<g clip-path="url(#clip0_204_1673)">
<path d="M26.6875 0H5.3125C2.37849 0 0 2.43947 0 5.44872V26.5513C0 29.5605 2.37849 32 5.3125 32H26.6875C29.6215 32 32 29.5605 32 26.5513V5.44872C32 2.43947 29.6215 0 26.6875 0Z" fill="#470137"/>
<path d="M16.87 9.4251L12.6452 16.2561L17.1652 23.5097C17.1943 23.5605 17.2024 23.6201 17.188 23.6766C17.181 23.7007 17.1659 23.7066 17.1427 23.7076L17.1171 23.7072L17.0859 23.7064C17.0689 23.7064 17.05 23.7072 17.029 23.7105H13.7701L13.7061 23.7095C13.5304 23.705 13.4038 23.6803 13.3267 23.5541C13.0252 22.9787 12.7223 22.4039 12.4181 21.8298C12.146 21.3177 11.8664 20.8095 11.5795 20.3052L11.4528 20.0831C11.1097 19.4858 10.7728 18.885 10.4421 18.2809H10.4193C10.114 18.8787 9.79971 19.472 9.47672 20.0609C9.15096 20.6543 8.82916 21.244 8.51134 21.8298C8.19333 22.416 7.86776 22.9983 7.53472 23.5764C7.48115 23.6943 7.39214 23.719 7.26821 23.723L7.21663 23.7237H4.1049L4.09141 23.7241L4.04697 23.728C4.02224 23.7294 4.00742 23.7243 4.00266 23.6877C3.99413 23.6335 4.00627 23.578 4.03679 23.532L8.42047 16.4785L4.15027 9.40307C4.1049 9.34399 4.09736 9.29579 4.12752 9.25848C4.14428 9.23947 4.16533 9.22454 4.18899 9.21487C4.21266 9.2052 4.2383 9.20106 4.26388 9.20277H7.46647C7.53631 9.19902 7.60613 9.21044 7.67095 9.2362C7.72517 9.26638 7.77186 9.30823 7.80717 9.35863C8.07977 9.95203 8.38265 10.5454 8.71581 11.1386C9.0464 11.728 9.38333 12.3139 9.72656 12.8964C10.0645 13.4698 10.379 14.0562 10.6692 14.6542H10.6919C10.9893 14.0563 11.296 13.4629 11.6118 12.8742C11.922 12.2957 12.2401 11.7133 12.5657 11.1274C12.8872 10.5491 13.2014 9.96685 13.5083 9.38092C13.5258 9.32598 13.557 9.27623 13.5992 9.2362C13.6553 9.20837 13.7183 9.19678 13.7809 9.20277H16.7564C16.7838 9.19609 16.8126 9.19829 16.8386 9.20904C16.8645 9.2198 16.8862 9.23852 16.9004 9.26239C16.9146 9.28627 16.9204 9.31401 16.9171 9.34143C16.9138 9.36886 16.9015 9.39449 16.8821 9.41448L16.8702 9.42536L16.87 9.4251ZM23.5453 23.9975L23.3887 23.9992C22.3432 24.0148 21.3073 23.802 20.3563 23.3763C19.4704 22.9746 18.7298 22.3189 18.2326 21.496C17.7312 20.6803 17.4738 19.6637 17.4608 18.4467L17.4603 18.3476C17.4518 17.3264 17.7182 16.3211 18.2327 15.4328C18.7476 14.5537 19.4983 13.8294 20.4034 13.3383L20.4813 13.2969C21.4653 12.7628 22.6541 12.4958 24.0473 12.4958L24.1082 12.4964L24.1778 12.4986L24.2558 12.502L24.3425 12.5069L24.4883 12.517L24.6534 12.53L24.7741 12.5403V8.15693C24.7741 8.05328 24.8196 8.00119 24.9103 8.00119H27.7724C27.7909 7.99859 27.8097 8.00025 27.8275 8.00604C27.8452 8.01183 27.8613 8.02158 27.8746 8.03453C27.8878 8.04748 27.8977 8.06327 27.9036 8.08065C27.9096 8.09803 27.9112 8.11652 27.9086 8.13465V21.2847C27.9086 21.5055 27.9173 21.7434 27.9348 21.9978L27.9771 22.575L27.9996 22.9089C28.0024 22.9552 27.9909 23.0011 27.9665 23.0409C27.9422 23.0806 27.9062 23.1122 27.8632 23.1315C27.1249 23.4331 26.3559 23.6568 25.5691 23.7989C24.9013 23.9197 24.2243 23.9861 23.5453 23.9975V23.9975ZM24.7741 21.2401V15.1658C24.6514 15.1332 24.526 15.1109 24.3994 15.0991C24.2447 15.0838 24.0892 15.0764 23.9337 15.0768C23.3826 15.0715 22.8379 15.1934 22.3438 15.4328C21.8626 15.6672 21.4517 16.0198 21.1513 16.4564C20.8515 16.886 20.6964 17.447 20.6862 18.1394L20.6856 18.2142C20.6746 18.6992 20.7554 19.182 20.9241 19.6381C21.0614 20.0057 21.2785 20.3397 21.5603 20.6172C21.83 20.8724 22.1565 21.0629 22.5142 21.1734C22.8919 21.2933 23.2868 21.3534 23.6839 21.3516C23.8958 21.3516 24.0926 21.3441 24.2744 21.3292C24.4195 21.3185 24.5633 21.2951 24.704 21.2592L24.7741 21.2401V21.2401Z" fill="#FF61F6"/>
</g>
<defs>
<clipPath id="clip0_204_1673">
<rect width="32" height="32" fill="white"/>
</clipPath>
</defs>
</svg>
