<svg width="32" height="32" viewBox="0 0 32 32" fill="none" xmlns="http://www.w3.org/2000/svg">
<g clip-path="url(#clip0_204_1667)">
<path d="M26.6875 0H5.3125C2.37849 0 0 2.43947 0 5.44872V26.5513C0 29.5605 2.37849 32 5.3125 32H26.6875C29.6215 32 32 29.5605 32 26.5513V5.44872C32 2.43947 29.6215 0 26.6875 0Z" fill="#001E36"/>
<path d="M6 23.5181V9.22366C6 9.11945 6.04472 9.06708 6.13404 9.06708L6.27537 9.06669L6.51694 9.06409L6.85263 9.05744L7.97726 9.03361L9.18314 9.0112C9.60725 9.00391 10.0277 9 10.4445 9C11.5757 9 12.5283 9.14172 13.3025 9.42504C14.0009 9.66172 14.6378 10.0514 15.1669 10.5659C15.6154 11.0118 15.9621 11.5499 16.1829 12.143C16.3917 12.7202 16.4976 13.3298 16.4955 13.9437C16.4955 15.1371 16.22 16.1213 15.6693 16.8966C15.1306 17.653 14.3793 18.2314 13.5111 18.5582L13.4366 18.5855C12.53 18.9244 11.526 19.0468 10.4249 19.0545L10.2538 19.055L9.99989 19.0537L9.87183 19.0519L9.72907 19.0485L9.643 19.0451L9.59074 19.0424L9.46215 19.0377L9.30497 19.0344L9.06834 19.0327L9.01568 19.0326V23.4957C9.0196 23.523 9.0171 23.5509 9.00838 23.5772C8.99966 23.6034 8.98497 23.6272 8.96546 23.6468C8.94596 23.6663 8.92217 23.681 8.896 23.6898C8.86983 23.6985 8.84199 23.701 8.81468 23.6971H6.15641C6.05201 23.6971 6 23.6377 6 23.5181V23.5181ZM9.01581 11.7515V16.4137C9.19401 16.4281 9.3727 16.4356 9.55147 16.4361H10.2884C10.7965 16.4344 11.3016 16.3586 11.7879 16.2112L11.8848 16.1808C12.3272 16.0492 12.7225 15.7929 13.0236 15.4425C13.3034 15.1119 13.4484 14.6564 13.4584 14.0758L13.4591 14.0108C13.4708 13.5781 13.3584 13.1511 13.1352 12.7805C12.9006 12.4221 12.5615 12.1448 12.164 11.9863C11.645 11.7842 11.0906 11.6892 10.534 11.7068L10.2508 11.7076L10.0722 11.7091L9.90173 11.7114L9.6612 11.716L9.48569 11.721L9.39454 11.7244L9.27272 11.7301L9.16897 11.7365L9.10981 11.7412L9.05872 11.7461L9.03623 11.7487L9.01581 11.7515V11.7515ZM25.1285 15.566C24.739 15.3655 24.3259 15.2148 23.8988 15.1176L23.8 15.0963C23.3302 14.9883 22.8506 14.9288 22.3687 14.9187L22.2483 14.9173C21.9658 14.9096 21.6837 14.9436 21.411 15.018C21.2374 15.0567 21.0831 15.1557 20.9754 15.2975C20.9027 15.411 20.864 15.543 20.8639 15.6779C20.868 15.8087 20.915 15.9345 20.9978 16.0357C21.1163 16.1746 21.2588 16.2909 21.4184 16.3792L21.4668 16.4049C21.7851 16.5766 22.1131 16.7297 22.4492 16.8634C23.1985 17.1147 23.9145 17.4565 24.5814 17.8812C25.0358 18.1685 25.4118 18.5644 25.6756 19.0334C25.8974 19.4773 26.0085 19.9686 25.9993 20.4649C26.0127 21.1205 25.8257 21.7645 25.4634 22.3106C25.0756 22.8648 24.5369 23.2957 23.9116 23.552C23.2567 23.8404 22.4524 23.9892 21.4989 23.999L21.3998 23.9995C20.8087 24.0055 20.2184 23.9537 19.6373 23.8448L19.513 23.8206C19.0238 23.7307 18.5476 23.5804 18.0952 23.3731C18.0498 23.3496 18.0114 23.3144 17.9839 23.2712C17.9565 23.2279 17.9409 23.1781 17.939 23.1269V20.6887C17.9363 20.6651 17.9401 20.6411 17.9499 20.6194C17.9598 20.5977 17.9753 20.5792 17.9949 20.5656C18.014 20.5548 18.0361 20.55 18.058 20.552C18.0799 20.554 18.1007 20.5627 18.1176 20.5768C18.6518 20.8924 19.2318 21.1226 19.8368 21.2591C20.37 21.3931 20.9171 21.4644 21.4668 21.4717C21.9876 21.4717 22.3709 21.4045 22.6166 21.2703C22.7276 21.2194 22.8214 21.1374 22.8868 21.0342C22.9522 20.931 22.9863 20.811 22.9851 20.6887C22.9851 20.4952 22.8734 20.3086 22.6502 20.1295C22.5565 20.0545 22.4222 19.9728 22.2475 19.8846L22.1639 19.8435L22.0747 19.8014L22.0279 19.78L21.9299 19.7365C21.9129 19.7291 21.8958 19.7217 21.8788 19.7144L21.7722 19.6696L21.7167 19.6468L21.6015 19.6005L21.5417 19.5771L21.4178 19.5293L21.2881 19.4807C20.587 19.2362 19.9223 18.8976 19.312 18.474C18.8756 18.1699 18.5163 17.7677 18.2627 17.2996C18.0431 16.8588 17.9321 16.3717 17.939 15.8791C17.9377 15.2873 18.1 14.7066 18.4078 14.2014C18.7588 13.6452 19.2628 13.2023 19.8591 12.9264C20.514 12.5986 21.3326 12.4344 22.3151 12.4342C22.8906 12.4295 23.4655 12.4707 24.0344 12.5573C24.4464 12.6096 24.8492 12.7188 25.2313 12.8816C25.2928 12.8993 25.3424 12.9448 25.3653 13.0047C25.3805 13.0593 25.3879 13.1157 25.3876 13.1725V15.4318C25.3909 15.4852 25.3653 15.5364 25.3207 15.566C25.2908 15.5809 25.2579 15.5886 25.2246 15.5886C25.1912 15.5886 25.1583 15.5809 25.1285 15.566V15.566Z" fill="#31A8FF"/>
</g>
<defs>
<clipPath id="clip0_204_1667">
<rect width="32" height="32" fill="white"/>
</clipPath>
</defs>
</svg>
