<svg width="32" height="32" viewBox="0 0 32 32" fill="none" xmlns="http://www.w3.org/2000/svg">
<path d="M26.6875 0H5.3125C2.37849 0 0 2.43947 0 5.44872V26.5513C0 29.5605 2.37849 32 5.3125 32H26.6875C29.6215 32 32 29.5605 32 26.5513V5.44872C32 2.43947 29.6215 0 26.6875 0Z" fill="black"/>
<g clip-path="url(#clip0_204_1676)">
<path d="M12 28.5758C14.208 28.5758 16 26.7408 16 24.4798V20.3838H12C9.792 20.3838 8 22.2188 8 24.4798C8 26.7408 9.792 28.5758 12 28.5758Z" fill="#0ACF83"/>
<path d="M8 16.2884C8 14.0274 9.792 12.1924 12 12.1924H16V20.3844H12C9.792 20.3844 8 18.5494 8 16.2884Z" fill="#A259FF"/>
<path d="M8 8.096C8 5.83501 9.792 4 12 4H16V12.192H12C9.792 12.192 8 10.357 8 8.096Z" fill="#F24E1E"/>
<path d="M16 4H20C22.208 4 24 5.83501 24 8.096C24 10.357 22.208 12.192 20 12.192H16V4Z" fill="#FF7262"/>
<path d="M24 16.2884C24 18.5494 22.208 20.3844 20 20.3844C17.792 20.3844 16 18.5494 16 16.2884C16 14.0274 17.792 12.1924 20 12.1924C22.208 12.1924 24 14.0274 24 16.2884Z" fill="#1ABCFE"/>
</g>
<defs>
<clipPath id="clip0_204_1676">
<rect width="16" height="24.576" fill="white" transform="translate(8 4)"/>
</clipPath>
</defs>
</svg>
