<svg width="115" height="90" viewBox="0 0 115 90" fill="none" xmlns="http://www.w3.org/2000/svg">
<rect x="39.42" y="14.1383" width="36.1569" height="60.8908" fill="white" stroke="black" stroke-width="1.72344" stroke-linejoin="round"/>
<rect x="78.7052" y="22.8678" width="26.4573" height="43.4316" fill="white" stroke="black" stroke-width="1.72344" stroke-linejoin="round"/>
<rect x="9.83799" y="22.8678" width="26.4573" height="43.4316" fill="white" stroke="black" stroke-width="1.72344" stroke-linejoin="round"/>
<path d="M1 44.5838L8.27468 40.3838V48.7838L1 44.5838Z" fill="#DC3001"/>
<path d="M114 44.5837L106.725 48.7837V40.3836L114 44.5837Z" fill="#DC3001"/>
<path d="M60.7344 42.651C60.5573 42.3809 60.2571 42.2182 59.9355 42.2186C59.6135 42.2189 59.3137 42.3819 59.137 42.6523L56.0547 47.3724L54.3536 45.4323C54.1565 45.2074 53.866 45.0878 53.5685 45.1094C53.271 45.1303 53.0006 45.2902 52.837 45.5411L49.9819 49.9184H65.5012L60.7344 42.651Z" fill="#112242"/>
<path d="M54.2837 43.638C55.3549 43.638 56.2234 42.7641 56.2234 41.6858C56.2234 40.6078 55.355 39.7339 54.2837 39.7339C53.2121 39.7339 52.3437 40.6078 52.3437 41.6858C52.3436 42.7641 53.2121 43.638 54.2837 43.638Z" fill="#112242"/>
<path d="M25.1783 43.0121C25.0676 42.8434 24.88 42.7417 24.679 42.7419C24.4778 42.7421 24.2904 42.844 24.1799 43.013L22.2535 45.9631L21.1903 44.7505C21.0671 44.6099 20.8855 44.5352 20.6996 44.5486C20.5137 44.5617 20.3447 44.6617 20.2424 44.8185L18.458 47.5543H28.1576L25.1783 43.0121Z" fill="#112242"/>
<path d="M21.1466 43.6291C21.8161 43.6291 22.3589 43.0829 22.3589 42.4089C22.3589 41.7352 21.8162 41.189 21.1466 41.189C20.4769 41.189 19.9341 41.7352 19.9341 42.4089C19.9341 43.0829 20.4769 43.6291 21.1466 43.6291Z" fill="#112242"/>
<path d="M94.0455 43.0121C93.9348 42.8434 93.7472 42.7417 93.5462 42.7419C93.3449 42.7421 93.1575 42.844 93.0471 43.013L91.1207 45.9631L90.0575 44.7505C89.9343 44.6099 89.7527 44.5352 89.5668 44.5486C89.3809 44.5617 89.2119 44.6617 89.1096 44.8185L87.3252 47.5543H97.0248L94.0455 43.0121Z" fill="#112242"/>
<path d="M90.0138 43.6291C90.6833 43.6291 91.2261 43.0829 91.2261 42.4089C91.2261 41.7352 90.6834 41.189 90.0138 41.189C89.3441 41.189 88.8013 41.7352 88.8013 42.4089C88.8013 43.0829 89.3441 43.6291 90.0138 43.6291Z" fill="#112242"/>
</svg>
