<svg width="115" height="90" viewBox="0 0 115 90" fill="none" xmlns="http://www.w3.org/2000/svg">
<rect x="1.87035" y="20.553" width="110.705" height="63.5769" fill="#A5A5A5" stroke="black" stroke-width="2.25929" stroke-linejoin="round"/>
<rect x="27.7151" y="39.303" width="59.016" height="34.185" fill="white" stroke="black" stroke-width="2.25929" stroke-linejoin="round"/>
<rect x="1.87035" y="6.87035" width="110.705" height="16.9552" fill="white" stroke="black" stroke-width="2.25929" stroke-linejoin="round"/>
<circle cx="13.1341" cy="15.0946" r="4.05405" fill="#DC3001"/>
<circle cx="26.3104" cy="15.0946" r="4.05405" fill="black"/>
<circle cx="39.4852" cy="15.0946" r="4.05405" fill="black"/>
<path d="M84.3338 48.1022C84.3338 49.75 83.6792 51.3303 82.5141 52.4955C81.3489 53.6607 79.7686 54.3153 78.1208 54.3153C76.473 54.3153 74.8926 53.6607 73.7275 52.4955C72.5623 51.3303 71.9077 49.75 71.9077 48.1022C71.9077 46.4544 72.5623 44.8741 73.7275 43.7089C74.8926 42.5437 76.473 41.8892 78.1208 41.8892C79.7686 41.8892 81.3489 42.5437 82.5141 43.7089C83.6792 44.8741 84.3338 46.4544 84.3338 48.1022ZM75.7172 45.6986C75.6345 45.7811 75.569 45.879 75.5242 45.9869C75.4795 46.0947 75.4564 46.2103 75.4564 46.3271C75.4564 46.4438 75.4795 46.5594 75.5242 46.6672C75.569 46.7751 75.6345 46.873 75.7172 46.9555L76.8657 48.1022L75.7172 49.249C75.5505 49.4156 75.4569 49.6417 75.4569 49.8774C75.4569 50.1131 75.5505 50.3391 75.7172 50.5058C75.8839 50.6724 76.1099 50.7661 76.3456 50.7661C76.5813 50.7661 76.8073 50.6724 76.974 50.5058L78.1208 49.3572L79.2675 50.5058C79.4342 50.6724 79.6602 50.7661 79.8959 50.7661C80.1316 50.7661 80.3577 50.6724 80.5243 50.5058C80.691 50.3391 80.7846 50.1131 80.7846 49.8774C80.7846 49.6417 80.691 49.4156 80.5243 49.249L79.3758 48.1022L80.5243 46.9555C80.691 46.7888 80.7846 46.5627 80.7846 46.3271C80.7846 46.0914 80.691 45.8653 80.5243 45.6986C80.3577 45.532 80.1316 45.4384 79.8959 45.4384C79.6602 45.4384 79.4342 45.532 79.2675 45.6986L78.1208 46.8472L76.974 45.6986C76.8916 45.616 76.7936 45.5504 76.6858 45.5057C76.578 45.4609 76.4624 45.4379 76.3456 45.4379C76.2289 45.4379 76.1133 45.4609 76.0054 45.5057C75.8976 45.5504 75.7996 45.616 75.7172 45.6986Z" fill="#DC3001"/>
</svg>
