<svg width="115" height="90" viewBox="0 0 115 90" fill="none" xmlns="http://www.w3.org/2000/svg">
<rect x="2.39415" y="46.9596" width="30.8368" height="23.1916" fill="white" stroke="black" stroke-width="1.21171" stroke-linejoin="round"/>
<path d="M19.6919 57.2633C19.5666 57.0733 19.354 56.9588 19.1262 56.959C18.8982 56.9593 18.6859 57.074 18.5608 57.2643L16.3781 60.5861L15.1734 59.2207C15.0338 59.0624 14.8281 58.9783 14.6175 58.9934C14.4068 59.0081 14.2153 59.1207 14.0994 59.2973L12.0776 62.3778H23.0676L19.6919 57.2633Z" fill="#112242"/>
<path d="M15.1239 57.958C15.8825 57.958 16.4975 57.343 16.4975 56.5841C16.4975 55.8255 15.8825 55.2104 15.1239 55.2104C14.3651 55.2104 13.7501 55.8255 13.7501 56.5841C13.7501 57.343 14.3651 57.958 15.1239 57.958Z" fill="#112242"/>
<rect x="44.9747" y="18.9142" width="68.1113" height="50.9841" fill="white" stroke="black" stroke-width="2.17163" stroke-linejoin="round" stroke-dasharray="4.34 4.34"/>
<path d="M84.7426 40.5655C84.4301 40.0886 83.8999 39.8013 83.332 39.8019C82.7635 39.8025 82.2341 40.0903 81.9221 40.5678L76.4795 48.9024L73.4757 45.4767C73.1276 45.0795 72.6147 44.8684 72.0894 44.9064C71.5641 44.9433 71.0866 45.2257 70.7977 45.6687L65.7563 53.3981H93.1599L84.7426 40.5655Z" fill="#112242"/>
<path d="M73.3523 42.3084C75.2438 42.3084 76.7774 40.7653 76.7774 38.8611C76.7774 36.9577 75.2439 35.4146 73.3523 35.4146C71.4601 35.4146 69.9266 36.9577 69.9266 38.8611C69.9266 40.7653 71.4601 42.3084 73.3523 42.3084Z" fill="#112242"/>
<path d="M27.3982 61.7175C29.1447 61.1906 30.1334 59.3478 29.6066 57.6013C29.0798 55.8548 27.2369 54.8661 25.4904 55.3929C23.744 55.9197 22.7552 57.7626 23.2821 59.5091C23.8089 61.2556 25.6518 62.2443 27.3982 61.7175ZM63.2568 47.4507L56.2949 45.816L58.3601 52.6625L63.2568 47.4507ZM26.6232 59.1481L58.0993 49.6533L57.7416 48.4675L26.2655 57.9622L26.6232 59.1481Z" fill="#DC3001"/>
</svg>
