<svg width="115" height="90" viewBox="0 0 115 90" fill="none" xmlns="http://www.w3.org/2000/svg">
<rect x="17.6807" y="20.9429" width="91.3766" height="40.3856" fill="white" stroke="black" stroke-width="2.1141" stroke-linejoin="round"/>
<rect x="12.3116" y="24.9713" width="91.3766" height="40.3856" fill="white" stroke="black" stroke-width="2.1141" stroke-linejoin="round"/>
<rect x="6.94295" y="29.6715" width="91.3766" height="40.3856" fill="white" stroke="black" stroke-width="2.1141" stroke-linejoin="round"/>
<path d="M12.0259 49.5284L22.0931 43.7136V55.3431L12.0259 49.5284Z" fill="#DC3001"/>
<path d="M90.5527 50.1997L80.4855 56.0144V44.3849L90.5527 50.1997Z" fill="#DC3001"/>
<path d="M57.1094 46.853C56.8645 46.4791 56.449 46.2539 56.0039 46.2544C55.5583 46.2548 55.1434 46.4805 54.8989 46.8549L50.6334 53.3897L48.2793 50.7037C48.0065 50.3922 47.6045 50.2267 47.1928 50.2566C46.7811 50.2855 46.4069 50.5069 46.1805 50.8543L42.2295 56.9145H63.7062L57.1094 46.853Z" fill="#112242"/>
<path d="M48.1826 48.2196C49.665 48.2196 50.8669 47.0097 50.8669 45.5167C50.8669 44.0243 49.6651 42.8145 48.1826 42.8145C46.6997 42.8145 45.4978 44.0243 45.4978 45.5167C45.4978 47.0097 46.6997 48.2196 48.1826 48.2196Z" fill="#112242"/>
</svg>
