<svg width="115" height="90" viewBox="0 0 115 90" fill="none" xmlns="http://www.w3.org/2000/svg">
<path d="M6.98395 18.447V16.2191H17.4808V18.447H13.5679V29H10.8969V18.447H6.98395ZM30.3709 22.6095C30.3709 24.0033 30.1067 25.189 29.5784 26.1667C29.0541 27.1444 28.3385 27.8912 27.4316 28.4071C26.5287 28.9189 25.5136 29.1747 24.3861 29.1747C23.2503 29.1747 22.231 28.9168 21.3282 28.4009C20.4254 27.885 19.7118 27.1382 19.1876 26.1605C18.6634 25.1828 18.4013 23.9991 18.4013 22.6095C18.4013 21.2158 18.6634 20.0301 19.1876 19.0523C19.7118 18.0746 20.4254 17.3299 21.3282 16.8182C22.231 16.3023 23.2503 16.0443 24.3861 16.0443C25.5136 16.0443 26.5287 16.3023 27.4316 16.8182C28.3385 17.3299 29.0541 18.0746 29.5784 19.0523C30.1067 20.0301 30.3709 21.2158 30.3709 22.6095ZM27.6313 22.6095C27.6313 21.7067 27.4961 20.9454 27.2256 20.3254C26.9594 19.7055 26.5828 19.2354 26.0961 18.915C25.6093 18.5947 25.0393 18.4345 24.3861 18.4345C23.7329 18.4345 23.1629 18.5947 22.6762 18.915C22.1894 19.2354 21.8108 19.7055 21.5404 20.3254C21.2741 20.9454 21.1409 21.7067 21.1409 22.6095C21.1409 23.5124 21.2741 24.2737 21.5404 24.8936C21.8108 25.5135 22.1894 25.9837 22.6762 26.304C23.1629 26.6244 23.7329 26.7846 24.3861 26.7846C25.0393 26.7846 25.6093 26.6244 26.0961 26.304C26.5828 25.9837 26.9594 25.5135 27.2256 24.8936C27.4961 24.2737 27.6313 23.5124 27.6313 22.6095ZM32.3726 29V16.2191H37.4151C38.3845 16.2191 39.2103 16.4042 39.8927 16.7745C40.575 17.1406 41.095 17.6503 41.4528 18.3035C41.8148 18.9525 41.9958 19.7014 41.9958 20.5501C41.9958 21.3988 41.8127 22.1477 41.4466 22.7968C41.0805 23.4458 40.55 23.9513 39.8552 24.3132C39.1646 24.6752 38.3283 24.8562 37.3465 24.8562H34.1325V22.6907H36.9096C37.4297 22.6907 37.8582 22.6012 38.1952 22.4223C38.5363 22.2393 38.7901 21.9875 38.9566 21.6672C39.1271 21.3427 39.2124 20.9703 39.2124 20.5501C39.2124 20.1257 39.1271 19.7555 38.9566 19.4393C38.7901 19.1189 38.5363 18.8714 38.1952 18.6966C37.854 18.5177 37.4213 18.4283 36.8971 18.4283H35.0748V29H32.3726Z" fill="#DC3001"/>
<path d="M57.8447 16.2191H61.1772L64.697 24.8063H64.8468L68.3665 16.2191H71.699V29H69.0779V20.6812H68.9719L65.6643 28.9376H63.8794L60.5719 20.65H60.4658V29H57.8447V16.2191ZM73.9254 29V16.2191H82.5375V18.447H76.6276V21.4925H82.0945V23.7204H76.6276V26.7721H82.5625V29H73.9254ZM95.3762 16.2191V29H93.0422L87.4817 20.9558H87.3881V29H84.6859V16.2191H87.0574L92.5741 24.2571H92.6865V16.2191H95.3762ZM105.503 16.2191H108.205V24.5192C108.205 25.4511 107.983 26.2666 107.538 26.9655C107.097 27.6645 106.479 28.2095 105.684 28.6006C104.89 28.9875 103.964 29.181 102.907 29.181C101.846 29.181 100.918 28.9875 100.124 28.6006C99.3292 28.2095 98.7113 27.6645 98.2703 26.9655C97.8293 26.2666 97.6088 25.4511 97.6088 24.5192V16.2191H100.311V24.2883C100.311 24.7751 100.417 25.2077 100.629 25.5863C100.846 25.9649 101.149 26.2624 101.54 26.4788C101.932 26.6951 102.387 26.8033 102.907 26.8033C103.431 26.8033 103.887 26.6951 104.274 26.4788C104.665 26.2624 104.967 25.9649 105.179 25.5863C105.395 25.2077 105.503 24.7751 105.503 24.2883V16.2191Z" fill="black"/>
<path d="M47.8765 48.7954C47.75 48.7961 47.6246 48.7719 47.5075 48.7241C47.3904 48.6762 47.2839 48.6058 47.1941 48.5167L41.3028 42.6157L38.1024 47.4211C38.0005 47.5772 37.8554 47.7003 37.6847 47.7753C37.5141 47.8504 37.3253 47.8743 37.1414 47.8439C36.9612 47.8171 36.7923 47.7396 36.6545 47.6205C36.5167 47.5014 36.4155 47.3456 36.3629 47.1712L30.5965 27.9499C30.528 27.7777 30.5106 27.5894 30.5466 27.4077C30.5826 27.2259 30.6704 27.0584 30.7994 26.9254C30.9283 26.7924 31.093 26.6995 31.2736 26.6578C31.4541 26.6162 31.6429 26.6277 31.817 26.6909L51.0384 32.4573C51.2127 32.5099 51.3686 32.6111 51.4877 32.7489C51.6068 32.8867 51.6843 33.0556 51.7111 33.2357C51.7414 33.4197 51.7176 33.6085 51.6425 33.7791C51.5674 33.9498 51.4443 34.0949 51.2882 34.1968L46.4829 37.3972L52.3839 43.2885C52.4739 43.3778 52.5454 43.4841 52.5942 43.6012C52.643 43.7184 52.6681 43.844 52.6681 43.9708C52.6681 44.0977 52.643 44.2233 52.5942 44.3404C52.5454 44.4576 52.4739 44.5639 52.3839 44.6532L48.5396 48.4975C48.3661 48.6798 48.128 48.7867 47.8765 48.7954ZM47.8765 46.4792L50.3656 43.9901L43.4844 37.1184L48.53 33.7547L32.9703 29.0839L37.6411 44.6436L41.0048 39.598L47.8765 46.4792Z" fill="black"/>
<rect x="6" y="52.7007" width="103.318" height="26.2991" fill="#DC3001"/>
<path d="M23.9708 60.8634L22.3233 61.4038C22.7055 62.221 23.4436 64.1453 23.694 64.9756L25.3547 64.3957C25.0911 63.5522 24.2871 61.5224 23.9708 60.8634ZM29.981 61.9178L28.0172 61.3642C27.7931 63.3808 26.9759 65.6347 25.9874 66.8868C24.6298 68.5871 22.5737 69.7733 20.7812 70.2873L22.2574 71.7767C24.129 71.065 26.0533 69.7337 27.4372 67.9017C28.518 66.4782 29.2693 64.3825 29.6383 62.9459C29.7174 62.6559 29.836 62.2473 29.981 61.9178ZM20.2935 61.6806L18.6196 62.2737C18.9886 62.9722 19.8585 65.147 20.1353 65.9905L21.8224 65.3711C21.5193 64.488 20.7021 62.5241 20.2935 61.6806ZM32.1162 65.0284V67.1109C32.6171 67.0713 33.5002 67.0318 34.2383 67.0318C35.7936 67.0318 40.1299 67.0318 41.3293 67.0318C41.8829 67.0318 42.5551 67.0977 42.8714 67.1109V65.0284C42.5155 65.0547 41.9356 65.1206 41.3161 65.1206C40.1431 65.1206 35.7936 65.1206 34.2383 65.1206C33.5529 65.1206 32.6039 65.0679 32.1162 65.0284ZM50.7137 70.8409L51.8208 71.7503C51.9526 71.6581 52.1108 71.5131 52.3876 71.3681C53.877 70.6168 55.7618 69.1934 56.8557 67.7699L55.854 66.3069C54.9578 67.5853 53.6661 68.6266 52.5853 69.0879C52.5853 68.2839 52.5853 63.2622 52.5853 62.2078C52.5853 61.6147 52.6776 61.0874 52.6776 61.0611H50.7269C50.7269 61.0874 50.8191 61.6015 50.8191 62.1946C50.8191 63.2622 50.8191 69.1802 50.8191 69.8787C50.8191 70.2346 50.7796 70.5905 50.7137 70.8409ZM44.6112 70.6564L46.2192 71.724C47.3527 70.7223 48.1699 69.4174 48.5785 67.9412C48.9212 66.61 48.9607 63.829 48.9607 62.2605C48.9607 61.7201 49.053 61.127 49.053 61.0743H47.1155C47.1945 61.4038 47.2473 61.7465 47.2473 62.2869C47.2473 63.8685 47.2341 66.3728 46.8519 67.4931C46.496 68.6266 45.7842 69.8392 44.6112 70.6564ZM59.2809 61.6674L59.7027 63.1963C60.8494 63.1699 62.7869 63.1172 64.2894 62.9063C65.3043 62.7613 66.3587 62.59 67.1759 62.3791C67.3868 62.3264 67.7427 62.2341 68.1908 62.1155L67.0968 60.6657C66.4378 60.982 65.1066 61.272 63.7754 61.4697C62.3256 61.6806 60.2958 61.6937 59.2809 61.6674ZM59.8477 70.7618L61.5347 71.8953C64.0785 70.3664 64.9485 68.1126 64.9485 65.4501C64.9485 65.4501 64.9485 63.6972 64.9485 62.5636L63.2218 62.7613C63.2218 64.633 63.2218 65.4897 63.2218 65.4897C63.2218 67.9544 62.1806 69.6942 59.8477 70.7618ZM58.2924 64.8307V66.5309C58.6351 66.5046 59.1227 66.4782 59.5313 66.4782C60.309 66.4782 67.4791 66.4782 68.3094 66.4782C68.6785 66.4782 69.1134 66.5046 69.4693 66.5309V64.8307C69.1793 64.857 68.5599 64.8966 68.2831 64.8966C67.4 64.8966 60.3485 64.8966 59.5182 64.8966C59.0964 64.8966 58.6614 64.857 58.2924 64.8307ZM77.1007 63.3149L75.5454 63.829C75.8618 64.5143 76.4417 66.1092 76.613 66.7418L78.1815 66.2014C77.997 65.5951 77.3511 63.8685 77.1007 63.3149ZM81.9643 64.2639L80.119 63.6708C79.974 65.3315 79.3282 67.0845 78.4319 68.1916C77.3511 69.5624 75.5059 70.5641 74.0692 70.9595L75.4532 72.3698C76.9953 71.7767 78.6296 70.6827 79.8554 69.0879C80.7517 67.9412 81.3184 66.5705 81.6611 65.2393C81.7402 64.9756 81.8193 64.6989 81.9643 64.2639ZM74.0429 64.0003L72.4612 64.5802C72.7776 65.147 73.4498 66.9132 73.6606 67.6117L75.2687 67.0186C75.0182 66.2805 74.3724 64.6725 74.0429 64.0003ZM94.222 61.4697C94.222 61.0479 94.5647 60.7052 94.9864 60.7052C95.4082 60.7052 95.7509 61.0479 95.7509 61.4697C95.7509 61.8914 95.4082 62.2341 94.9864 62.2341C94.5647 62.2341 94.222 61.8914 94.222 61.4697ZM93.4048 61.4697C93.4048 62.3396 94.1165 63.0513 94.9864 63.0513C95.8563 63.0513 96.5681 62.3396 96.5681 61.4697C96.5681 60.5998 95.8563 59.888 94.9864 59.888C94.1165 59.888 93.4048 60.5998 93.4048 61.4697ZM95.0128 62.5109L93.7079 61.6806C93.3652 61.7728 92.9435 61.786 92.6799 61.786C91.9418 61.786 87.5659 61.786 86.5774 61.786C86.1424 61.786 85.4043 61.7201 85.0089 61.6674V63.539C85.3516 63.5126 85.9711 63.4731 86.5774 63.4731C87.5659 63.4731 91.9154 63.4731 92.7194 63.4731C92.5481 64.6066 92.0472 66.1092 91.1641 67.2031C90.1097 68.5343 88.6203 69.681 85.9974 70.2873L87.4341 71.869C89.7934 71.1177 91.5464 69.8128 92.7326 68.2312C93.8397 66.7682 94.4197 64.712 94.7228 63.4204C94.7887 63.1436 94.881 62.7613 95.0128 62.5109Z" fill="white"/>
</svg>
