<svg width="110" height="95" viewBox="0 0 110 95" fill="none" xmlns="http://www.w3.org/2000/svg">
<rect x="15.7499" y="14.7499" width="77.5003" height="74.5003" fill="white" stroke="black" stroke-width="2.50028" stroke-linejoin="round"/>
<path d="M25.5 28H47" stroke="black" stroke-width="2.5" stroke-linecap="round"/>
<path d="M26 48H47.5" stroke="black" stroke-width="2.5" stroke-linecap="round"/>
<path d="M26 67H47.5" stroke="black" stroke-width="2.5" stroke-linecap="round"/>
<rect x="25.7499" y="32.7499" width="57.5003" height="8.50028" fill="white" stroke="#DC3001" stroke-width="2.50028" stroke-linejoin="round"/>
<rect x="26.7499" y="52.7499" width="56.5003" height="8.50028" fill="white" stroke="#DC3001" stroke-width="2.50028" stroke-linejoin="round"/>
<rect x="26.7499" y="71.7499" width="56.5003" height="8.50028" fill="white" stroke="#DC3001" stroke-width="2.50028" stroke-linejoin="round"/>
<rect x="15.7499" y="5.74986" width="77.6895" height="12.6895" fill="white" stroke="black" stroke-width="2.50028" stroke-linejoin="round"/>
<circle cx="24.0276" cy="11.9187" r="2.81081" fill="#DC3001"/>
<circle cx="33.1624" cy="11.9187" r="2.81081" fill="black"/>
<circle cx="42.2971" cy="11.9187" r="2.81081" fill="black"/>
<path d="M76.41 71.8537C76.3195 71.8542 76.2298 71.8369 76.1461 71.8027C76.0623 71.7684 75.9861 71.718 75.9219 71.6543L71.7075 67.4331L69.4181 70.8706C69.3452 70.9822 69.2414 71.0703 69.1194 71.124C68.9973 71.1777 68.8622 71.1948 68.7306 71.1731C68.6018 71.1539 68.481 71.0984 68.3824 71.0132C68.2838 70.928 68.2114 70.8166 68.1738 70.6918L64.0488 56.9418C63.9997 56.8187 63.9873 56.684 64.0131 56.554C64.0388 56.4239 64.1016 56.3041 64.1939 56.209C64.2861 56.1138 64.404 56.0473 64.5331 56.0176C64.6623 55.9878 64.7973 55.996 64.9219 56.0412L78.6719 60.1662C78.7966 60.2039 78.9081 60.2762 78.9933 60.3748C79.0785 60.4734 79.134 60.5942 79.1531 60.7231C79.1748 60.8547 79.1578 60.9897 79.1041 61.1118C79.0504 61.2338 78.9623 61.3377 78.8506 61.4106L75.4131 63.6999L79.6344 67.9143C79.6988 67.9782 79.75 68.0543 79.7849 68.138C79.8198 68.2218 79.8378 68.3117 79.8378 68.4024C79.8378 68.4932 79.8198 68.5831 79.7849 68.6668C79.75 68.7506 79.6988 68.8267 79.6344 68.8906L76.8844 71.6406C76.7603 71.771 76.59 71.8475 76.41 71.8537ZM76.41 70.1968L78.1906 68.4162L73.2681 63.5006L76.8775 61.0943L65.7469 57.7531L69.0881 68.8837L71.4944 65.2743L76.41 70.1968Z" fill="black"/>
<path d="M76.41 70.1968L78.1906 68.4162L73.2681 63.5006L76.8775 61.0943L65.7469 57.7531L69.0881 68.8837L71.4944 65.2743L76.41 70.1968Z" fill="white"/>
</svg>
