<svg width="116" height="95" viewBox="0 0 116 95" fill="none" xmlns="http://www.w3.org/2000/svg">
<rect x="1.85529" y="20.8553" width="112.289" height="67.2894" fill="white" stroke="black" stroke-width="2.28941" stroke-linejoin="round"/>
<rect x="13.0228" y="30.6629" width="48.9882" height="26.0966" fill="white" stroke="black" stroke-width="2.28941" stroke-linejoin="round"/>
<rect x="13.9388" y="60.8797" width="83.7834" height="20.6027" fill="white" stroke="black" stroke-width="2.28941" stroke-linejoin="round" stroke-dasharray="4.58 4.58"/>
<rect x="67.9627" y="30.6629" width="29.7593" height="26.0966" fill="white" stroke="black" stroke-width="2.28941" stroke-linejoin="round"/>
<rect x="2.03498" y="6.85529" width="112.181" height="17.1813" fill="white" stroke="black" stroke-width="2.28941" stroke-linejoin="round"/>
<circle cx="13.4489" cy="15.1892" r="4.10811" fill="#DC3001"/>
<circle cx="26.801" cy="15.1892" r="4.10811" fill="black"/>
<circle cx="40.1516" cy="15.1892" r="4.10811" fill="black"/>
<path d="M48.9627 43.7106C48.9627 37.6453 44.0401 32.7227 37.9748 32.7227C31.9094 32.7227 26.9868 37.6453 26.9868 43.7106C26.9868 49.776 31.9094 54.6986 37.9748 54.6986C44.0401 54.6986 48.9627 49.776 48.9627 43.7106ZM37.9748 33.8324C43.4358 33.8324 47.8529 38.2496 47.8529 43.7106C47.8529 49.1716 43.4358 53.5888 37.9748 53.5888C32.5138 53.5888 28.0966 49.1716 28.0966 43.7106C28.0966 38.2496 32.5138 33.8324 37.9748 33.8324ZM35.7882 49.0068L32.4368 39.9857C32.9753 39.9527 33.5906 39.8978 33.5906 39.8978C34.0631 39.8428 34.0081 38.788 33.5246 38.81C33.5246 38.81 32.1072 38.9199 31.1842 38.9199C31.0194 38.9199 30.8216 38.9199 30.6128 38.9089C32.1951 36.5245 34.8981 34.9532 37.9748 34.9532C40.2712 34.9532 42.359 35.8213 43.9193 37.2497C43.26 37.1618 42.326 37.6343 42.326 38.81C42.326 39.5352 42.7435 40.1505 43.194 40.8757C43.5347 41.4691 43.7434 42.2162 43.7434 43.3041C43.7434 44.7764 42.348 48.2267 42.348 48.2267L39.3702 39.9857C39.8977 39.9527 40.1943 39.8099 40.1943 39.8099C40.6668 39.7549 40.6119 38.6012 40.1394 38.6232C40.1394 38.6232 38.711 38.7441 37.788 38.7441C36.9309 38.7441 35.4695 38.6232 35.4695 38.6232C34.997 38.6012 34.9421 39.7879 35.4146 39.8099L36.3376 39.8978L37.5682 43.2381L35.7882 49.0068ZM42.4029 51.3692L45.2708 43.7106C45.2708 43.7106 46.007 41.8536 45.6993 39.5242C46.3915 40.7768 46.7322 42.1833 46.7322 43.7106C46.7322 46.963 45.018 49.8419 42.4029 51.3692ZM29.9316 40.1615L34.129 51.6769C31.1952 50.2484 29.2174 47.1938 29.2174 43.7106C29.2174 42.436 29.4371 41.2603 29.9316 40.1615ZM38.1176 45.139L40.6339 52.0065C39.8098 52.3032 38.9087 52.468 37.9748 52.468C37.1836 52.468 36.4255 52.3471 35.7113 52.1384L38.1176 45.139Z" fill="#DC3001"/>
<path fill-rule="evenodd" clip-rule="evenodd" d="M37.9748 33.8324C43.4358 33.8324 47.8529 38.2496 47.8529 43.7106C47.8529 49.1716 43.4358 53.5888 37.9748 53.5888C32.5138 53.5888 28.0966 49.1716 28.0966 43.7106C28.0966 38.2496 32.5138 33.8324 37.9748 33.8324ZM32.4368 39.9857L35.7882 49.0068L37.5682 43.2381L36.3376 39.8978L35.4146 39.8099C34.9421 39.7879 34.997 38.6012 35.4695 38.6232C35.4695 38.6232 36.9309 38.7441 37.788 38.7441C38.711 38.7441 40.1394 38.6232 40.1394 38.6232C40.6119 38.6012 40.6668 39.7549 40.1943 39.8099C40.1943 39.8099 39.8977 39.9527 39.3702 39.9857L42.348 48.2267C42.348 48.2267 43.7434 44.7764 43.7434 43.3041C43.7434 42.2162 43.5347 41.4691 43.194 40.8757C42.7435 40.1505 42.326 39.5352 42.326 38.81C42.326 37.6343 43.26 37.1618 43.9193 37.2497C42.359 35.8213 40.2712 34.9532 37.9748 34.9532C34.8981 34.9532 32.1951 36.5245 30.6128 38.9089C30.8216 38.9199 31.0194 38.9199 31.1842 38.9199C32.1072 38.9199 33.5246 38.81 33.5246 38.81C34.0081 38.788 34.0631 39.8428 33.5906 39.8978C33.5906 39.8978 32.9753 39.9527 32.4368 39.9857ZM45.2708 43.7106L42.4029 51.3692C45.018 49.8419 46.7322 46.963 46.7322 43.7106C46.7322 42.1833 46.3915 40.7768 45.6993 39.5242C46.007 41.8536 45.2708 43.7106 45.2708 43.7106ZM34.129 51.6769L29.9316 40.1615C29.4371 41.2603 29.2174 42.436 29.2174 43.7106C29.2174 47.1938 31.1952 50.2484 34.129 51.6769ZM40.6339 52.0065L38.1176 45.139L35.7113 52.1384C36.4255 52.3471 37.1836 52.468 37.9748 52.468C38.9087 52.468 39.8098 52.3032 40.6339 52.0065Z" fill="white"/>
<path d="M60.4869 66.4759C61.6677 67.6566 62.331 69.258 62.331 70.9277C62.331 72.5975 61.6677 74.1989 60.4869 75.3796C59.3062 76.5603 57.7049 77.2236 56.0351 77.2236C54.3653 77.2236 52.7639 76.5603 51.5832 75.3796C50.4025 74.1989 49.7392 72.5975 49.7392 70.9277C49.7392 69.258 50.4025 67.6566 51.5832 66.4759C52.7639 65.2952 54.3653 64.6318 56.0351 64.6318C57.7049 64.6318 59.3062 65.2952 60.4869 66.4759ZM52.5906 70.9277C52.5905 71.046 52.6137 71.1632 52.6589 71.2725C52.7041 71.3819 52.7704 71.4812 52.854 71.5649C52.9377 71.6485 53.037 71.7148 53.1464 71.76C53.2557 71.8052 53.3729 71.8284 53.4912 71.8283L55.1358 71.827L55.1345 73.4717C55.1345 73.7105 55.2294 73.9396 55.3983 74.1084C55.5672 74.2773 55.7962 74.3722 56.0351 74.3722C56.2739 74.3722 56.503 74.2773 56.6719 74.1084C56.8407 73.9396 56.9356 73.7105 56.9356 73.4717L56.9344 71.827L58.579 71.8283C58.8178 71.8283 59.0469 71.7334 59.2158 71.5645C59.3847 71.3956 59.4796 71.1666 59.4796 70.9277C59.4796 70.6889 59.3847 70.4598 59.2158 70.291C59.0469 70.1221 58.8178 70.0272 58.579 70.0272L56.9344 70.0285L56.9356 68.3838C56.9356 68.145 56.8407 67.9159 56.6719 67.747C56.503 67.5781 56.2739 67.4833 56.0351 67.4833C55.7962 67.4833 55.5672 67.5781 55.3983 67.747C55.2294 67.9159 55.1345 68.145 55.1345 68.3838L55.1358 70.0285L53.4912 70.0272C53.3729 70.027 53.2557 70.0502 53.1464 70.0954C53.037 70.1406 52.9377 70.207 52.854 70.2906C52.7704 70.3743 52.7041 70.4736 52.6589 70.5829C52.6137 70.6923 52.5905 70.8094 52.5906 70.9277Z" fill="#112242"/>
<path d="M86.0926 41.6263C85.8733 41.3106 85.5013 41.1205 85.1028 41.1209C84.7039 41.1212 84.3324 41.3118 84.1135 41.6278L80.2944 47.1447L78.1867 44.8771C77.9424 44.6142 77.5825 44.4744 77.2139 44.4996C76.8453 44.524 76.5102 44.711 76.3075 45.0042L72.77 50.1204H91.9989L86.0926 41.6263Z" fill="#112242"/>
<path d="M78.1001 42.7799C79.4274 42.7799 80.5034 41.7585 80.5034 40.4981C80.5034 39.2382 79.4274 38.2168 78.1001 38.2168C76.7723 38.2168 75.6963 39.2382 75.6963 40.4981C75.6962 41.7585 76.7723 42.7799 78.1001 42.7799Z" fill="#112242"/>
</svg>
