<svg width="56" height="56" viewBox="0 0 56 56" fill="none" xmlns="http://www.w3.org/2000/svg">
<rect x="2.5" y="16.3359" width="50.3452" height="28.7161" fill="white" stroke="black" stroke-width="2" stroke-linejoin="round"/>
<rect x="2.5" y="10.375" width="50.3452" height="8.40304" fill="white" stroke="black" stroke-width="2" stroke-linejoin="round"/>
<ellipse cx="8.01677" cy="14.4658" rx="1.8073" ry="1.76636" fill="#DC3001"/>
<ellipse cx="13.8932" cy="14.4658" rx="1.8073" ry="1.76636" fill="black"/>
<ellipse cx="19.7663" cy="14.4658" rx="1.8073" ry="1.76636" fill="black"/>
<path d="M7.30533 30.5334C6.91115 30.9275 6.91115 31.5666 7.30533 31.9608L13.7288 38.3842C14.1229 38.7784 14.762 38.7784 15.1562 38.3842C15.5504 37.99 15.5504 37.351 15.1562 36.9568L9.44647 31.2471L15.1562 25.5373C15.5504 25.1432 15.5504 24.5041 15.1562 24.1099C14.762 23.7157 14.1229 23.7157 13.7288 24.1099L7.30533 30.5334ZM47.8156 31.9608C48.2097 31.5666 48.2097 30.9275 47.8156 30.5334L41.3921 24.1099C40.9979 23.7157 40.3589 23.7157 39.9647 24.1099C39.5705 24.5041 39.5705 25.1432 39.9647 25.5373L45.6744 31.2471L39.9647 36.9568C39.5705 37.351 39.5705 37.99 39.9647 38.3842C40.3589 38.7784 40.9979 38.7784 41.3921 38.3842L47.8156 31.9608ZM8.01904 32.2564H47.1018V30.2377H8.01904V32.2564Z" fill="#DC3001"/>
</svg>
