<svg width="56" height="56" viewBox="0 0 56 56" fill="none" xmlns="http://www.w3.org/2000/svg">
<rect x="13.3264" y="1.95138" width="29.3472" height="51.781" rx="1.90135" fill="white" stroke="black" stroke-width="2.15275"/>
<path d="M13.3264 44.6154H42.6736V51.8633C42.6736 52.9134 41.8224 53.7646 40.7723 53.7646H15.2277C14.1776 53.7646 13.3264 52.9134 13.3264 51.8633V44.6154Z" fill="white" stroke="black" stroke-width="2.15275"/>
<path d="M42.6736 8.58915L13.3264 8.58915V3.85285C13.3264 2.80276 14.1776 1.9515 15.2277 1.9515L40.7723 1.9515C41.8224 1.9515 42.6736 2.80276 42.6736 3.85285V8.58915Z" fill="white" stroke="black" stroke-width="2.15275"/>
<path d="M30.4325 49.1577C30.4325 50.493 29.3458 51.5796 28.0001 51.5796C26.6544 51.5796 25.5677 50.493 25.5677 49.1577C25.5677 47.8225 26.6544 46.7359 28.0001 46.7359C29.3458 46.7359 30.4325 47.8225 30.4325 49.1577Z" fill="white" stroke="black" stroke-width="1.43517"/>
<path d="M34.3841 18.7517C34.2015 18.9283 34.2015 19.2146 34.3841 19.3911C34.5668 19.5677 34.8629 19.5677 35.0455 19.3911L34.3841 18.7517ZM39.0164 15.3647C39.0164 15.115 38.807 14.9125 38.5487 14.9125L34.3396 14.9125C34.0813 14.9125 33.8719 15.115 33.8719 15.3647C33.8719 15.6144 34.0813 15.8169 34.3396 15.8169H38.081V19.4342C38.081 19.684 38.2904 19.8864 38.5487 19.8864C38.807 19.8864 39.0164 19.684 39.0164 19.4342L39.0164 15.3647ZM35.0455 19.3911L38.8794 15.6844L38.218 15.0449L34.3841 18.7517L35.0455 19.3911Z" fill="#DC3001"/>
<path d="M20.5995 19.3911C20.7821 19.5677 21.0782 19.5677 21.2609 19.3911C21.4435 19.2146 21.4435 18.9283 21.2609 18.7517L20.5995 19.3911ZM17.0963 14.9125C16.838 14.9125 16.6287 15.115 16.6287 15.3647L16.6287 19.4342C16.6287 19.684 16.838 19.8864 17.0963 19.8864C17.3546 19.8864 17.564 19.684 17.564 19.4342V15.8169H21.3054C21.5637 15.8169 21.7731 15.6144 21.7731 15.3647C21.7731 15.115 21.5637 14.9125 21.3054 14.9125L17.0963 14.9125ZM21.2609 18.7517L17.427 15.0449L16.7656 15.6844L20.5995 19.3911L21.2609 18.7517Z" fill="#DC3001"/>
<path d="M21.5304 32.4588C21.713 32.2822 21.713 31.9959 21.5304 31.8193C21.3478 31.6427 21.0516 31.6427 20.869 31.8193L21.5304 32.4588ZM16.8982 35.8458C16.8982 36.0955 17.1076 36.2979 17.3659 36.2979L21.575 36.2979C21.8333 36.2979 22.0426 36.0955 22.0426 35.8458C22.0426 35.596 21.8333 35.3936 21.575 35.3936H17.8335V31.7762C17.8335 31.5265 17.6242 31.3241 17.3659 31.3241C17.1076 31.3241 16.8982 31.5265 16.8982 31.7762L16.8982 35.8458ZM20.869 31.8193L17.0352 35.526L17.6966 36.1655L21.5304 32.4588L20.869 31.8193Z" fill="#DC3001"/>
<path d="M35.0455 31.8193C34.8629 31.6427 34.5668 31.6427 34.3841 31.8193C34.2015 31.9959 34.2015 32.2822 34.3841 32.4588L35.0455 31.8193ZM38.5487 36.2979C38.807 36.2979 39.0164 36.0955 39.0164 35.8458L39.0164 31.7762C39.0164 31.5265 38.807 31.3241 38.5487 31.3241C38.2904 31.3241 38.081 31.5265 38.081 31.7762V35.3936H34.3396C34.0813 35.3936 33.8719 35.596 33.8719 35.8458C33.8719 36.0955 34.0813 36.2979 34.3396 36.2979L38.5487 36.2979ZM34.3841 32.4588L38.218 36.1655L38.8794 35.526L35.0455 31.8193L34.3841 32.4588Z" fill="#DC3001"/>
<path d="M33.7071 23.3161V20.777H21.6265V23.3161H23.7274V21.7926H26.6163V30.6796H24.7779V31.6953H30.5556V30.6796H28.7173V21.7926H31.6061V23.3161H33.7071Z" fill="black"/>
</svg>
