<svg width="56" height="56" viewBox="0 0 56 56" fill="none" xmlns="http://www.w3.org/2000/svg">
<rect x="6.04327" y="3.41827" width="22.8125" height="42.3317" rx="1.40126" fill="white" stroke="black" stroke-width="1.58654"/>
<path d="M6.04327 38.5529H27.8798V44.3487C27.8798 45.1226 27.2524 45.75 26.4785 45.75H7.44453C6.67064 45.75 6.04327 45.1226 6.04327 44.3487V38.5529Z" fill="white" stroke="black" stroke-width="1.58654"/>
<path d="M28.8557 8.66346L6.04316 8.66346V4.81953C6.04316 4.04563 6.67052 3.41826 7.44442 3.41826L27.4544 3.41826C28.2283 3.41826 28.8557 4.04563 28.8557 4.81953V8.66346Z" fill="white" stroke="black" stroke-width="1.58654"/>
<circle cx="18.4253" cy="42.1515" r="1.91106" fill="white" stroke="black" stroke-width="1.05769"/>
<rect x="27.5145" y="10.2501" width="22.8125" height="42.3317" rx="1.40126" fill="white" stroke="black" stroke-width="1.58654"/>
<path d="M27.5145 45.3846H50.327V51.1805C50.327 51.9544 49.6996 52.5818 48.9257 52.5818H28.9157C28.1418 52.5818 27.5145 51.9544 27.5145 51.1805V45.3846Z" fill="white" stroke="black" stroke-width="1.58654"/>
<path d="M50.3268 15.4952L27.5143 15.4952V11.6513C27.5143 10.8774 28.1417 10.25 28.9156 10.25L48.9256 10.25C49.6995 10.25 50.3268 10.8774 50.3268 11.6513V15.4952Z" fill="white" stroke="black" stroke-width="1.58654"/>
<circle cx="38.9209" cy="48.9832" r="1.91106" fill="white" stroke="black" stroke-width="1.05769"/>
<rect x="11.4121" y="16.0571" width="14.1295" height="14.1295" stroke="#DC3001" stroke-width="1.05769"/>
<rect x="32.4717" y="20.7145" width="12.307" height="16.5594" stroke="#112242" stroke-width="1.05769"/>
<path d="M22.9796 21.1199V18.9832H13.5156V21.1199H15.1615V19.8379H17.4246V27.3166H15.9845V28.1713H20.5107V27.3166H19.0706V19.8379H21.3337V21.1199H22.9796Z" fill="#112242"/>
<path d="M48.3452 30.7102V27.3843H33.563V30.7102H36.1338V28.7147H39.6687V40.3551H37.4192V41.6854H44.4889V40.3551H42.2395V28.7147H45.7743V30.7102H48.3452Z" fill="#DC3001"/>
</svg>
