<svg width="56" height="56" viewBox="0 0 56 56" fill="none" xmlns="http://www.w3.org/2000/svg">
<rect x="12.6136" y="12.9162" width="31.0874" height="20.4956" fill="white" stroke="black" stroke-width="1.75428" stroke-linejoin="round"/>
<path d="M30.262 21.9193C30.1469 21.7454 29.9516 21.6406 29.7424 21.6408C29.533 21.641 29.338 21.746 29.2231 21.9202L27.2185 24.9602L26.1122 23.7106C25.984 23.5658 25.7951 23.4888 25.6016 23.5027C25.4081 23.5161 25.2322 23.6191 25.1258 23.7807L23.269 26.6H33.3622L30.262 21.9193Z" fill="#112242"/>
<path d="M26.0667 22.555C26.7634 22.555 27.3283 21.9922 27.3283 21.2977C27.3283 20.6034 26.7635 20.0405 26.0667 20.0405C25.3698 20.0405 24.805 20.6034 24.805 21.2977C24.805 21.9922 25.3698 22.555 26.0667 22.555Z" fill="#112242"/>
<path d="M7.47504 39.5343H8.90017L10.4054 43.2066H10.4694L11.9746 39.5343H13.3997V45H12.2789V41.4425H12.2335L10.819 44.9733H10.0558L8.6413 41.4292H8.59593V45H7.47504V39.5343ZM14.3518 45V39.5343H16.5402C16.9423 39.5343 17.2777 39.5939 17.5464 39.7131C17.815 39.8323 18.017 39.9978 18.1522 40.2095C18.2874 40.4195 18.355 40.6614 18.355 40.9354C18.355 41.1489 18.3123 41.3366 18.2269 41.4986C18.1415 41.6587 18.0241 41.7903 17.8746 41.8935C17.727 41.9949 17.5579 42.067 17.3676 42.1097V42.1631C17.5757 42.172 17.7705 42.2307 17.952 42.3392C18.1353 42.4478 18.2838 42.5999 18.3977 42.7956C18.5116 42.9895 18.5685 43.2208 18.5685 43.4895C18.5685 43.7795 18.4965 44.0383 18.3523 44.2661C18.21 44.492 17.9992 44.6708 17.7198 44.8025C17.4405 44.9342 17.0962 45 16.687 45H14.3518ZM15.5074 44.0553H16.4495C16.7715 44.0553 17.0064 43.9939 17.1541 43.8711C17.3017 43.7466 17.3756 43.5811 17.3756 43.3747C17.3756 43.2235 17.3391 43.09 17.2661 42.9744C17.1932 42.8587 17.0891 42.768 16.9539 42.7022C16.8205 42.6363 16.6612 42.6034 16.4762 42.6034H15.5074V44.0553ZM15.5074 41.8215H16.3641C16.5224 41.8215 16.663 41.7939 16.7858 41.7387C16.9103 41.6818 17.0082 41.6017 17.0793 41.4986C17.1523 41.3954 17.1888 41.2717 17.1888 41.1276C17.1888 40.9301 17.1185 40.7709 16.9779 40.6499C16.8391 40.5289 16.6417 40.4684 16.3854 40.4684H15.5074V41.8215Z" fill="#112242"/>
<path d="M40.475 45V39.5343H41.6306V41.9442H41.7027L43.6696 39.5343H45.0547L43.0264 41.9816L45.0787 45H43.6963L42.1991 42.7529L41.6306 43.4468V45H40.475ZM45.6565 45V39.5343H47.8449C48.247 39.5343 48.5824 39.5939 48.851 39.7131C49.1197 39.8323 49.3216 39.9978 49.4568 40.2095C49.5921 40.4195 49.6597 40.6614 49.6597 40.9354C49.6597 41.1489 49.617 41.3366 49.5316 41.4986C49.4462 41.6587 49.3287 41.7903 49.1793 41.8935C49.0316 41.9949 48.8626 42.067 48.6722 42.1097V42.1631C48.8804 42.172 49.0752 42.2307 49.2567 42.3392C49.4399 42.4478 49.5885 42.5999 49.7024 42.7956C49.8162 42.9895 49.8732 43.2208 49.8732 43.4895C49.8732 43.7795 49.8011 44.0383 49.657 44.2661C49.5147 44.492 49.3038 44.6708 49.0245 44.8025C48.7452 44.9342 48.4009 45 47.9917 45H45.6565ZM46.8121 44.0553H47.7542C48.0762 44.0553 48.311 43.9939 48.4587 43.8711C48.6064 43.7466 48.6802 43.5811 48.6802 43.3747C48.6802 43.2235 48.6437 43.09 48.5708 42.9744C48.4979 42.8587 48.3938 42.768 48.2586 42.7022C48.1251 42.6363 47.9659 42.6034 47.7808 42.6034H46.8121V44.0553ZM46.8121 41.8215H47.6688C47.8271 41.8215 47.9677 41.7939 48.0904 41.7387C48.215 41.6818 48.3128 41.6017 48.384 41.4986C48.4569 41.3954 48.4934 41.2717 48.4934 41.1276C48.4934 40.9301 48.4231 40.7709 48.2826 40.6499C48.1438 40.5289 47.9463 40.4684 47.6901 40.4684H46.8121V41.8215Z" fill="#112242"/>
<path d="M21.7085 40.8093C21.2241 40.8093 20.8314 41.202 20.8314 41.6864C20.8314 42.1708 21.2241 42.5635 21.7085 42.5635V40.8093ZM37.0617 42.3066C37.4042 41.9641 37.4042 41.4087 37.0617 41.0662L31.4796 35.4841C31.1371 35.1415 30.5817 35.1415 30.2391 35.4841C29.8966 35.8266 29.8966 36.382 30.2391 36.7245L35.201 41.6864L30.2391 46.6483C29.8966 46.9908 29.8966 47.5462 30.2391 47.8887C30.5817 48.2313 31.1371 48.2313 31.4796 47.8887L37.0617 42.3066ZM21.7085 42.5635H36.4415V40.8093H21.7085V42.5635Z" fill="#DC3001"/>
<path d="M0.875 22.0248C0.511676 22.0248 0.217143 22.3193 0.217143 22.6826C0.217143 23.0459 0.511676 23.3405 0.875 23.3405L0.875 22.0248ZM7.64838 23.1478C7.90529 22.8909 7.90529 22.4744 7.64838 22.2174L3.4618 18.0309C3.20489 17.774 2.78836 17.774 2.53145 18.0309C2.27454 18.2878 2.27454 18.7043 2.53145 18.9612L6.25285 22.6826L2.53145 26.404C2.27454 26.6609 2.27454 27.0775 2.53145 27.3344C2.78836 27.5913 3.20489 27.5913 3.4618 27.3344L7.64838 23.1478ZM0.875 23.3405H7.1832V22.0248H0.875L0.875 23.3405Z" fill="#DC3001"/>
<path d="M55.1245 23.3405C55.4878 23.3405 55.7824 23.0459 55.7824 22.6826C55.7824 22.3193 55.4878 22.0248 55.1245 22.0248V23.3405ZM48.3511 22.2174C48.0942 22.4744 48.0942 22.8909 48.3511 23.1478L52.5377 27.3344C52.7946 27.5913 53.2111 27.5913 53.4681 27.3344C53.725 27.0775 53.725 26.6609 53.4681 26.404L49.7467 22.6826L53.4681 18.9612C53.725 18.7043 53.725 18.2878 53.4681 18.0309C53.2111 17.774 52.7946 17.774 52.5377 18.0309L48.3511 22.2174ZM55.1245 22.0248H48.8163V23.3405H55.1245V22.0248Z" fill="#DC3001"/>
<path d="M13.3323 10.5H10.0205V35.9569H12.7015" stroke="#DC3001" stroke-width="1.75428" stroke-linecap="round"/>
<path d="M42.823 35.9572H46.1348V10.5003H43.4538" stroke="#DC3001" stroke-width="1.75428" stroke-linecap="round"/>
</svg>
