<svg width="56" height="56" viewBox="0 0 56 56" fill="none" xmlns="http://www.w3.org/2000/svg">
<rect x="7.93363" y="13.0777" width="46.3635" height="24.1883" fill="white" stroke="black" stroke-width="1.84465" stroke-linejoin="round"/>
<rect x="5.25395" y="15.4302" width="46.3635" height="24.1883" fill="white" stroke="black" stroke-width="1.84465" stroke-linejoin="round"/>
<rect x="2.57768" y="18.1728" width="46.3635" height="24.1883" fill="white" stroke="black" stroke-width="1.84465" stroke-linejoin="round"/>
<path d="M5.50879 30.0714L10.5297 26.6766V33.4662L5.50879 30.0714Z" fill="#DC3001"/>
<path d="M44.6714 30.4636L39.6505 33.8584V27.0689L44.6714 30.4636Z" fill="#DC3001"/>
<path d="M27.5319 28.417C27.392 28.203 27.1547 28.0741 26.9005 28.0744C26.6461 28.0746 26.4092 28.2038 26.2695 28.4181L23.8337 32.1583L22.4894 30.621C22.3336 30.4427 22.1041 30.348 21.869 30.3651C21.6339 30.3816 21.4202 30.5084 21.2909 30.7072L19.0347 34.1758H31.2989L27.5319 28.417Z" fill="#112242"/>
<path d="M22.4342 29.1991C23.2807 29.1991 23.9671 28.5067 23.9671 27.6522C23.9671 26.798 23.2808 26.1055 22.4342 26.1055C21.5874 26.1055 20.9011 26.798 20.9011 27.6522C20.901 28.5067 21.5874 29.1991 22.4342 29.1991Z" fill="#112242"/>
</svg>
