<svg width="270" height="270" viewBox="0 0 270 270" fill="none" xmlns="http://www.w3.org/2000/svg">
<path d="M150.358 249.512C141.048 245.106 137.338 234.63 136.026 224.872C135.805 223.252 135.34 221.567 135.869 220.012C136.399 218.457 138.029 217.188 139.595 217.625C140.897 217.987 141.658 219.294 142.528 220.325C143.684 221.717 145.212 222.751 146.934 223.306C148.057 223.668 149.391 223.781 150.314 223.047C151.578 222.037 151.394 220.082 151.135 218.473C150.606 215.489 150.088 212.504 149.58 209.52C149.214 207.928 149.106 206.287 149.261 204.66C149.499 203.04 150.368 201.42 151.826 200.75C153.284 200.081 155.331 200.626 155.92 202.149C156.093 202.804 156.223 203.47 156.308 204.142C156.465 204.806 156.902 205.492 157.567 205.573C158.231 205.654 158.809 205.087 159.214 204.53C160.596 202.624 161.374 200.34 162.076 198.077C162.778 195.815 163.436 193.509 164.646 191.479C165.856 189.448 167.702 187.699 169.987 187.159C172.271 186.619 174.971 187.645 175.927 189.81C176.882 191.975 175.959 194.508 174.847 196.592C173.157 199.679 171.031 202.505 168.534 204.984C168.036 205.381 167.677 205.925 167.508 206.539C167.341 207.673 168.539 208.57 169.668 208.742C170.932 208.937 172.217 208.591 173.497 208.526C174.776 208.462 176.229 208.786 176.909 209.893C177.844 211.426 176.758 213.386 175.597 214.753C173.265 217.475 170.483 219.776 167.373 221.557C166.261 222.188 165.078 222.782 164.263 223.776C163.447 224.77 163.118 226.314 163.885 227.351C164.651 228.388 166.201 228.501 167.4 228.058C168.599 227.615 169.598 226.757 170.705 226.114C172.778 224.905 175.662 224.57 177.406 226.244C177.95 226.829 178.351 227.533 178.577 228.299C178.802 229.066 178.847 229.874 178.708 230.661C178.42 232.228 177.82 233.722 176.942 235.051C174.145 239.858 170.124 243.838 165.289 246.586C160.456 249.232 155.779 250.522 150.363 249.518" fill="#F5F5F5"/>
<path d="M151.832 243C152.548 237.443 153.583 231.931 154.931 226.492L155.968 222.21C156.308 220.801 156.648 219.407 157.048 218.068C157.855 215.498 158.804 212.974 159.888 210.508C160.909 208.143 161.962 205.929 162.961 203.872C163.96 201.814 164.937 199.913 165.899 198.223C167.399 195.542 169.111 192.986 171.018 190.577C171.693 189.724 172.238 189.081 172.611 188.649C172.789 188.444 172.935 188.282 173.037 188.158C173.14 188.033 173.189 187.996 173.194 188.001C173.155 188.063 173.112 188.123 173.064 188.179L172.654 188.687C172.298 189.13 171.768 189.767 171.11 190.647C169.244 193.079 167.564 195.648 166.082 198.331C165.137 200.027 164.176 201.928 163.182 203.985C162.189 206.042 161.152 208.256 160.142 210.622C159.067 213.088 158.129 215.612 157.334 218.182C156.918 219.515 156.584 220.882 156.254 222.307L155.217 226.595C153.872 232.022 152.832 237.521 152.102 243.065" fill="#E0E0E0"/>
<path d="M157.14 218.047C157.023 217.837 156.931 217.614 156.865 217.382C156.703 216.956 156.492 216.302 156.244 215.541C155.747 213.975 155.131 211.788 154.462 209.38C153.792 206.971 153.149 204.795 152.626 203.245C152.366 202.468 152.15 201.836 151.999 201.409C151.908 201.187 151.838 200.958 151.789 200.723C151.919 200.925 152.026 201.14 152.107 201.366C152.296 201.782 152.539 202.403 152.825 203.17C153.403 204.714 154.078 206.879 154.753 209.299C155.428 211.718 155.995 213.835 156.449 215.476C156.659 216.221 156.832 216.848 156.989 217.35C157.059 217.577 157.11 217.81 157.14 218.047Z" fill="#E0E0E0"/>
<path d="M177.201 210.67C176.94 210.779 176.668 210.861 176.391 210.913C175.851 211.048 175.111 211.243 174.182 211.513C172.319 212.053 169.776 212.852 167.005 213.878C164.235 214.904 161.767 215.946 159.985 216.745C159.1 217.139 158.393 217.48 157.901 217.712C157.654 217.846 157.396 217.958 157.129 218.047C157.352 217.874 157.593 217.726 157.847 217.604C158.322 217.339 159.019 216.972 159.894 216.524C161.638 215.671 164.1 214.596 166.876 213.565C169.245 212.678 171.658 211.916 174.107 211.28C175.046 211.032 175.813 210.87 176.348 210.767C176.628 210.709 176.914 210.676 177.201 210.67Z" fill="#E0E0E0"/>
<path d="M152.021 242.584C151.952 242.513 151.89 242.436 151.837 242.352L151.357 241.666C150.941 241.061 150.363 240.181 149.666 239.08C148.262 236.876 146.426 233.771 144.445 230.315C142.463 226.859 140.665 223.744 139.298 221.519L137.678 218.878L137.246 218.16C137.189 218.08 137.144 217.993 137.111 217.901C137.111 217.901 137.182 217.971 137.295 218.128C137.408 218.284 137.587 218.538 137.776 218.819C138.191 219.418 138.769 220.298 139.471 221.405C140.87 223.609 142.711 226.708 144.693 230.164C146.675 233.62 148.473 236.736 149.834 238.966L151.454 241.601C151.627 241.888 151.772 242.141 151.886 242.32C151.944 242.401 151.989 242.49 152.021 242.584Z" fill="#E0E0E0"/>
<path d="M178.038 229.057C177.962 229.124 177.876 229.178 177.784 229.219L177.033 229.619L174.247 231.071C171.893 232.303 168.663 234.036 165.099 235.931C161.535 237.827 158.29 239.56 155.919 240.737C154.731 241.326 153.759 241.817 153.09 242.104L152.28 242.46C152.191 242.507 152.097 242.543 151.999 242.568C152.076 242.503 152.162 242.449 152.253 242.406L153.009 242.006L155.795 240.548C158.144 239.323 161.373 237.589 164.937 235.688C168.501 233.788 171.752 232.065 174.117 230.888C175.305 230.299 176.277 229.808 176.947 229.522L177.725 229.165C177.823 229.113 177.928 229.077 178.038 229.057Z" fill="#E0E0E0"/>
<path d="M82.8358 133.601C82.8358 133.601 76.4207 134.492 80.0225 148.543C83.6243 162.594 86.6807 169.841 86.6807 169.841C86.6807 169.841 87.1613 173.021 84.5963 172.924C82.0313 172.827 76.7986 170.764 75.022 173.513C73.186 176.386 74.7952 179.842 78.802 183.465C82.8088 187.088 91.3516 195.345 92.1184 196.096C92.8852 196.846 93.4468 198.391 91.6864 198.601C89.926 198.812 77.4412 197.348 77.1064 203.315C76.7716 209.282 89.6399 217.534 91.0277 218.462C92.4155 219.391 92.6477 220.115 92.3237 220.925C91.9997 221.735 87.8633 220.844 84.2939 220.568C80.7245 220.293 76.534 220.612 76.6258 224.068C76.7176 227.524 83.4784 236.272 103.188 242.773L112.525 245.187L119.421 238.394C133.299 222.955 134.816 212.009 133.18 208.964C131.544 205.918 127.78 207.727 124.788 209.736C121.797 211.745 118.665 214.596 117.995 214.056C117.326 213.516 117.153 212.771 117.898 211.275C118.643 209.779 125.712 196.225 122.45 191.214C119.189 186.203 109.08 193.666 107.46 194.351C105.84 195.037 105.548 193.406 105.84 192.391C106.131 191.376 109.425 179.971 111.121 174.814C112.817 169.657 112.493 165.866 109.469 164.29C106.553 162.772 103.048 167.179 100.866 168.539C98.6848 169.9 97.5293 166.919 97.5293 166.919C97.5293 166.919 96.5789 159.116 92.7233 145.13C88.8677 131.144 82.717 133.65 82.717 133.65" fill="#EBEBEB"/>
<path d="M112.52 247.509C109.728 237.249 105.068 218.889 100.991 203.126C96.9136 187.364 93.2092 173.151 90.466 162.859C89.0944 157.718 87.982 153.56 87.226 150.671C86.848 149.24 86.551 148.122 86.3458 147.355L86.119 146.491C86.0704 146.297 86.0542 146.194 86.0542 146.194C86.0542 146.194 86.092 146.286 86.1514 146.48C86.2108 146.675 86.2918 146.972 86.3998 147.339C86.6212 148.106 86.9398 149.213 87.3394 150.638C88.1494 153.506 89.2942 157.658 90.6874 162.799C93.4792 173.059 97.2214 187.321 101.298 203.051C105.375 218.781 109.998 237.157 112.741 247.45" fill="#E0E0E0"/>
<path d="M82.2256 176.72C82.4413 176.809 82.6475 176.92 82.8412 177.05C83.2246 177.277 83.7754 177.622 84.4612 178.054C85.8058 178.924 87.6364 180.171 89.629 181.58L94.7158 185.209L96.2656 186.289C96.461 186.411 96.6422 186.554 96.8056 186.716C96.5878 186.628 96.3796 186.517 96.1846 186.386C95.8012 186.16 95.2504 185.814 94.5646 185.377C93.2308 184.496 91.4164 183.217 89.4238 181.813L84.31 178.222L82.7548 177.142C82.5639 177.021 82.3865 176.879 82.2256 176.72Z" fill="#E0E0E0"/>
<path d="M97.5889 186.268C97.5187 186.224 99.9217 182.342 102.951 177.595C105.98 172.849 108.502 169.036 108.572 169.079C108.643 169.123 106.24 173.011 103.205 177.757C100.17 182.504 97.6591 186.3 97.5889 186.268Z" fill="#E0E0E0"/>
<path d="M102.762 210.719C102.911 210.532 103.084 210.365 103.275 210.222L104.727 208.948C105.953 207.868 107.643 206.377 109.447 204.66C111.251 202.943 112.838 201.339 113.972 200.167C114.512 199.627 114.955 199.147 115.317 198.779C115.48 198.598 115.661 198.434 115.857 198.288C115.737 198.494 115.592 198.685 115.425 198.855C115.133 199.206 114.696 199.703 114.145 200.308C113.065 201.523 111.488 203.159 109.674 204.876C107.859 206.593 106.153 208.073 104.889 209.11C104.252 209.65 103.734 210.038 103.367 210.314C103.18 210.471 102.978 210.607 102.762 210.719Z" fill="#E0E0E0"/>
<path d="M86.9668 205.141C87.1848 205.167 87.3987 205.219 87.604 205.297L89.3158 205.837C90.7522 206.296 92.734 206.95 94.9156 207.684C97.0972 208.418 99.0682 209.11 100.488 209.623L102.168 210.238C102.377 210.304 102.578 210.392 102.767 210.503C102.549 210.481 102.335 210.43 102.13 210.352L100.418 209.812C98.9818 209.353 97 208.699 94.8184 207.959C92.6368 207.22 90.6658 206.534 89.2456 206.026L87.5662 205.405C87.3554 205.344 87.1538 205.255 86.9668 205.141Z" fill="#E0E0E0"/>
<path d="M88.792 227.308C89.0699 227.349 89.343 227.418 89.6074 227.513L91.7998 228.182C93.6466 228.76 96.19 229.576 98.998 230.499C101.806 231.422 104.339 232.265 106.169 232.897L108.329 233.653C108.598 233.739 108.86 233.845 109.112 233.971C108.832 233.93 108.558 233.861 108.291 233.766L106.099 233.096C104.252 232.519 101.709 231.703 98.9008 230.78C96.0928 229.856 93.5602 229.009 91.735 228.382L89.575 227.621C89.3051 227.54 89.043 227.435 88.792 227.308Z" fill="#E0E0E0"/>
<path d="M108.669 233.674C108.86 233.441 109.071 233.226 109.301 233.032L111.089 231.352C112.595 229.932 114.669 227.961 116.899 225.72C119.129 223.479 121.1 221.4 122.515 219.888L124.189 218.095C124.386 217.866 124.601 217.653 124.832 217.458C124.674 217.712 124.493 217.951 124.292 218.171C123.924 218.619 123.374 219.251 122.672 220.028C121.295 221.584 119.351 223.69 117.11 225.931C114.869 228.172 112.79 230.126 111.234 231.509C110.457 232.195 109.825 232.751 109.377 233.129C109.157 233.33 108.92 233.512 108.669 233.674Z" fill="#E0E0E0"/>
<path d="M54.972 49.8096L49.7016 48.1896C49.7016 48.1896 48.3192 52.6176 43.6968 51.2622C42.8019 51.0158 42.0057 50.4973 41.4185 49.7785C40.8312 49.0597 40.482 48.1761 40.419 47.25C40.3498 46.4691 40.468 45.6829 40.7639 44.9569C41.0597 44.2309 41.5247 43.586 42.12 43.0758C43.4754 41.877 45.8514 41.148 49.2048 42.8814L52.9146 31.0014L47.7036 29.3814L45.5436 36.342C45.5436 36.342 37.638 35.9478 35.127 43.9992C32.724 51.705 39.0744 55.6524 42.0336 56.5758C44.28 57.2778 52.1694 59.1354 54.972 49.8096Z" fill="#F5F5F5"/>
<path d="M48.4093 26.9087L53.6982 28.5591L55.2392 23.6207L49.9503 21.9704L48.4093 26.9087Z" fill="#F5F5F5"/>
<path d="M69.5141 36.396L71.6255 35.856C71.561 35.6162 71.5455 35.3659 71.5797 35.12C71.6139 34.8741 71.6972 34.6375 71.8246 34.4244C71.9521 34.2114 72.1211 34.0261 72.3216 33.8796C72.5221 33.7331 72.75 33.6285 72.9917 33.5718C73.3435 33.4656 73.7196 33.4715 74.0679 33.5885C74.4162 33.7056 74.7195 33.9281 74.9357 34.2252C75.1193 34.4719 75.2419 34.7585 75.2935 35.0617C75.3451 35.3648 75.3243 35.6759 75.2327 35.9694C75.0329 36.6552 74.3903 37.4004 72.8999 37.5246L74.1581 42.282L76.2425 41.742L75.5081 38.9556C76.2986 38.4789 76.9102 37.7553 77.2489 36.8966C77.5875 36.0378 77.6342 35.0916 77.3819 34.2036C76.5719 31.1148 73.6019 31.131 72.4301 31.4388C71.5229 31.6494 68.4935 32.6808 69.5141 36.396Z" fill="#EBEBEB"/>
<path d="M76.9782 42.4358L74.8516 43.0059L75.3837 44.9911L77.5103 44.421L76.9782 42.4358Z" fill="#EBEBEB"/>
<path d="M243.832 91.0494L245.884 91.7892C245.97 91.5569 246.101 91.3441 246.271 91.1634C246.441 90.9827 246.645 90.8378 246.871 90.7372C247.097 90.6365 247.342 90.5822 247.589 90.5774C247.837 90.5726 248.083 90.6174 248.314 90.7092C248.659 90.8204 248.962 91.0358 249.18 91.3258C249.399 91.6158 249.522 91.9663 249.534 92.3292C249.547 92.6389 249.486 92.9473 249.356 93.2289C249.227 93.5105 249.032 93.7574 248.789 93.9492C248.249 94.3974 247.282 94.6404 245.986 93.8952L244.307 98.523L246.337 99.2574L247.32 96.5574C248.242 96.6145 249.156 96.3676 249.924 95.8544C250.692 95.3413 251.27 94.5904 251.57 93.717C252.65 90.7146 250.214 89.046 249.064 88.6302C248.184 88.2846 245.106 87.4152 243.832 91.0494Z" fill="#EBEBEB"/>
<path d="M246.034 100.196L243.972 99.4489L243.275 101.373L245.337 102.12L246.034 100.196Z" fill="#EBEBEB"/>
<path d="M26.0603 114.55L30.3803 112.876C30.3803 112.876 28.9763 109.231 32.7401 107.703C33.4605 107.398 34.2576 107.324 35.0217 107.492C35.7857 107.659 36.4791 108.059 37.0061 108.637C37.4545 109.118 37.7831 109.697 37.9651 110.329C38.1472 110.96 38.1775 111.626 38.0537 112.271C37.7837 113.773 36.5957 115.511 33.4691 116.111L37.2491 125.901L41.5691 124.249L39.3551 118.514C39.3551 118.514 44.7551 114.637 42.2225 107.995C39.7655 101.644 33.4799 102.368 31.0661 103.302C29.2031 104.02 23.0255 106.92 26.0603 114.55Z" fill="#F5F5F5"/>
<path d="M42.3875 126.241L38.0288 127.921L39.5974 131.992L43.9561 130.313L42.3875 126.241Z" fill="#F5F5F5"/>
<path d="M245.522 131.026L242.444 132.208C242.444 132.208 243.437 134.795 240.77 135.875C240.259 136.088 239.695 136.14 239.154 136.022C238.613 135.904 238.121 135.623 237.746 135.216C237.428 134.875 237.195 134.464 237.067 134.017C236.938 133.569 236.917 133.097 237.006 132.64C237.2 131.56 238.043 130.351 240.246 129.94L237.6 122.98L234.554 124.151L236.12 128.218C235.012 129.066 234.213 130.254 233.846 131.601C233.479 132.947 233.565 134.377 234.09 135.67C235.823 140.168 240.262 139.66 241.99 138.996C243.297 138.483 247.671 136.431 245.522 131.026Z" fill="#F5F5F5"/>
<path d="M233.952 122.741L237.041 121.551L235.93 118.669L232.841 119.859L233.952 122.741Z" fill="#F5F5F5"/>
<path d="M254.216 250.436C254.216 250.517 200.837 250.576 135.005 250.576C69.174 250.576 15.7842 250.517 15.7842 250.436C15.7842 250.355 69.1524 250.295 135.005 250.295C200.858 250.295 254.216 250.36 254.216 250.436Z" fill="#263238"/>
<path d="M50.0256 236.412C50.5656 234.425 49.2318 232.432 47.7738 231.012C46.3158 229.592 44.5716 228.285 43.8102 226.379C42.579 223.29 44.2314 219.294 42.1362 216.718C40.8996 215.206 38.6856 214.699 37.5894 213.079C37.0826 212.186 36.7474 211.206 36.6012 210.19C35.436 205.059 32.9125 200.337 29.295 196.517C29.0512 201.087 30.0416 205.638 32.1624 209.693C33.0102 211.313 34.0578 212.89 34.3224 214.699C34.7814 217.631 33.1398 220.639 33.8634 223.533C34.6896 226.827 38.3886 229.036 38.5614 232.427C38.7126 235.294 36.2124 237.827 36.4014 240.678C36.5529 241.899 36.9955 243.066 37.692 244.08C39.906 247.768 43.1676 250.306 48.1032 250.225L54.1512 250.436L50.0256 236.412Z" fill="#DC3001"/>
<g opacity="0.3">
<path d="M50.0256 236.412C50.5656 234.425 49.2318 232.432 47.7738 231.012C46.3158 229.592 44.5716 228.285 43.8102 226.379C42.579 223.29 44.2314 219.294 42.1362 216.718C40.8996 215.206 38.6856 214.699 37.5894 213.079C37.0826 212.186 36.7474 211.206 36.6012 210.19C35.436 205.059 32.9125 200.337 29.295 196.517C29.0512 201.087 30.0416 205.638 32.1624 209.693C33.0102 211.313 34.0578 212.89 34.3224 214.699C34.7814 217.631 33.1398 220.639 33.8634 223.533C34.6896 226.827 38.3886 229.036 38.5614 232.427C38.7126 235.294 36.2124 237.827 36.4014 240.678C36.5529 241.899 36.9955 243.066 37.692 244.08C39.906 247.768 43.1676 250.306 48.1032 250.225L54.1512 250.436L50.0256 236.412Z" fill="black"/>
</g>
<path d="M55.3716 250.56C55.9255 250.646 56.49 250.635 57.0402 250.528C57.7082 250.426 58.3647 250.26 59.0004 250.031C59.8783 249.726 60.6995 249.277 61.4304 248.702C61.8702 248.349 62.2137 247.89 62.4294 247.369C62.61 246.784 62.7046 246.177 62.7102 245.565C62.7224 244.911 62.771 244.259 62.856 243.61C62.9698 242.92 63.2194 242.259 63.5904 241.666C64.3032 240.413 65.4912 239.225 65.8692 237.524C66.2472 235.823 65.988 234.041 65.7072 232.227C65.4264 230.413 65.1672 228.447 65.8476 226.546C66.528 224.645 67.824 222.944 68.4882 220.817C69.1524 218.689 68.8392 216.346 68.9796 214.061C69.0211 212.901 69.2889 211.76 69.768 210.703C70.254 209.623 70.9344 208.624 71.4636 207.5C72.5436 205.222 72.7272 202.64 73.0188 200.108C73.1646 198.833 73.305 197.543 73.4508 196.247C73.5427 194.937 73.7689 193.639 74.1258 192.375C74.5355 191.101 75.0187 189.851 75.573 188.633C75.8585 188.003 76.0932 187.351 76.275 186.683C76.3767 185.993 76.4416 185.297 76.4694 184.599C76.5338 183.202 76.4796 181.802 76.3074 180.414C76.1454 179.021 75.8916 177.638 75.7404 176.24C75.7404 176.153 75.7404 176.072 75.7404 175.997L75.708 175.721L75.465 175.84C74.1882 176.495 73.0795 177.436 72.225 178.589C71.3869 179.718 70.7124 180.959 70.2216 182.277C69.2118 184.874 68.85 187.596 68.3424 190.193C67.8348 192.791 67.1868 195.345 65.8584 197.505C65.1942 198.585 64.3896 199.568 63.6984 200.615C62.9478 201.638 62.435 202.815 62.1972 204.061C61.8354 206.62 63.2448 208.867 62.9532 211.135C62.8216 212.246 62.4533 213.315 61.8732 214.272C61.3332 215.239 60.6798 216.135 60.0642 217.031C59.4403 217.911 58.898 218.845 58.4442 219.823C58.0171 220.78 57.7647 221.806 57.699 222.853C57.5532 224.894 57.8394 226.827 57.699 228.652C57.5304 230.392 57.0222 232.082 56.2032 233.626C55.4742 235.111 54.6588 236.455 53.9784 237.762C53.6382 238.41 53.3196 239.047 53.0604 239.69C52.8151 240.307 52.6342 240.947 52.5204 241.601C52.3397 242.744 52.3251 243.906 52.4772 245.052C52.6359 246.65 53.2339 248.174 54.2052 249.453C54.3537 249.646 54.5181 249.827 54.6966 249.993C54.8159 250.118 54.948 250.23 55.0908 250.328C55.3176 250.495 55.4364 250.571 55.4364 250.571C55.0047 250.23 54.6118 249.842 54.2646 249.415C53.3375 248.131 52.7774 246.619 52.6446 245.041C52.5071 243.909 52.5325 242.764 52.7202 241.639C52.8339 241.001 53.0149 240.376 53.2602 239.776C53.5338 239.127 53.8421 238.492 54.1836 237.875C54.8694 236.579 55.6902 235.24 56.4354 233.744C57.2789 232.176 57.8037 230.457 57.9798 228.685C58.1418 226.822 57.861 224.878 58.0122 222.89C58.0817 221.878 58.3285 220.885 58.7412 219.958C59.1978 219 59.74 218.086 60.3612 217.226C60.9768 216.329 61.6302 215.433 62.1918 214.445C62.8082 213.452 63.2024 212.337 63.3474 211.178C63.639 208.764 62.2404 206.507 62.6022 204.125C62.8389 202.934 63.3348 201.81 64.0548 200.831C64.7406 199.8 65.5506 198.817 66.2148 197.71C67.5918 195.491 68.256 192.888 68.7582 190.28C69.2604 187.672 69.633 184.972 70.6266 182.423C71.1045 181.142 71.7608 179.935 72.576 178.837C73.398 177.731 74.4643 176.829 75.6918 176.202L75.4164 176.045C75.4164 176.126 75.4164 176.207 75.4434 176.294C75.5946 177.709 75.8484 179.091 75.9834 180.473C76.1539 181.84 76.2063 183.218 76.14 184.594C76.1127 185.269 76.0514 185.944 75.9564 186.613C75.7819 187.259 75.5543 187.889 75.276 188.498C74.7188 189.729 74.232 190.991 73.818 192.278C73.4581 193.562 73.2301 194.879 73.1376 196.209C72.9972 197.51 72.8514 198.801 72.711 200.075C72.4194 202.619 72.2304 205.157 71.199 207.355C70.659 208.435 70.011 209.466 69.5088 210.568C69.0146 211.665 68.7394 212.848 68.6988 214.051C68.5638 216.383 68.8662 218.668 68.2344 220.73C67.6026 222.793 66.2904 224.51 65.6262 226.46C64.962 228.409 65.205 230.472 65.4966 232.281C65.7882 234.09 66.0798 235.872 65.691 237.476C65.3022 239.08 64.1898 240.278 63.4662 241.564C63.0847 242.182 62.8296 242.871 62.7156 243.589C62.634 244.244 62.5907 244.904 62.586 245.565C62.5869 246.161 62.4995 246.755 62.3268 247.325C62.1268 247.82 61.8055 248.256 61.3926 248.594C60.6813 249.168 59.8804 249.62 59.022 249.934C58.3946 250.175 57.7454 250.356 57.0834 250.474C56.6788 250.547 56.2688 250.587 55.8576 250.592C55.5174 250.56 55.3716 250.56 55.3716 250.56Z" fill="#263238"/>
<path d="M74.4767 179.334C74.4479 179.392 74.4279 179.454 74.4173 179.518L74.2877 180.058C74.1689 180.538 74.0231 181.256 73.7963 182.153C73.5695 183.049 73.0133 184.064 72.5435 185.312C71.9933 186.716 71.5139 188.147 71.1071 189.599C70.6427 191.219 70.2377 193.001 69.8057 194.924C69.4386 196.971 68.7879 198.958 67.8725 200.826C67.3757 201.809 66.7925 202.802 66.3767 203.893C65.9407 205.007 65.6485 206.172 65.5073 207.36C65.2002 209.82 64.764 212.263 64.2005 214.677C62.9909 219.629 61.8353 224.348 60.7823 228.647C59.7293 232.945 58.7357 236.79 57.9149 240.041C57.0941 243.292 56.4731 245.884 56.0195 247.736C55.8089 248.621 55.6415 249.318 55.5227 249.831C55.4741 250.052 55.4309 250.231 55.3985 250.371C55.3925 250.434 55.3925 250.497 55.3985 250.56C55.4299 250.504 55.4535 250.444 55.4687 250.382C55.5065 250.236 55.5605 250.063 55.6253 249.842C55.7603 249.34 55.9493 248.643 56.1923 247.763C56.6783 245.927 57.3641 243.319 58.2119 240.106C59.0597 236.893 60.0479 233.005 61.1549 228.733C62.2619 224.462 63.3851 219.71 64.6055 214.753C65.1654 212.332 65.5908 209.882 65.8799 207.414C66.0179 206.255 66.3009 205.117 66.7223 204.028C67.1489 202.948 67.6943 201.982 68.1911 200.988C69.2711 199.017 69.6977 196.9 70.1243 194.994C70.5509 193.088 70.9289 191.284 71.3717 189.675C71.8145 188.066 72.2789 186.629 72.7433 185.387C73.2077 184.145 73.7207 183.119 73.9421 182.191C74.1635 181.262 74.2661 180.571 74.3633 180.074C74.3993 179.851 74.4317 179.671 74.4605 179.534C74.4767 179.399 74.4875 179.334 74.4767 179.334Z" fill="#263238"/>
<path d="M56.4407 250.587C60.3881 248.238 61.5221 241.11 59.8751 236.822C58.2281 232.535 55.3445 228.614 54.9017 224.041C54.5561 220.525 55.7117 216.918 54.9017 213.484C53.7947 208.845 49.2695 205.254 49.3235 200.486C49.3505 197.813 50.8733 195.296 50.7491 192.623C50.6033 189.351 48.0869 186.748 46.5317 183.865C44.1449 179.442 43.9883 174.22 43.1729 169.285C42.3575 164.349 40.4729 159.025 36.0773 156.589C35.4293 160.796 34.3223 163.679 34.6679 169.376C34.7975 171.423 37.1735 175.316 37.4975 179.825C37.6919 182.525 37.8215 185.193 37.9889 187.871C38.1563 190.55 38.3183 193.142 39.2525 195.583C39.9707 197.456 41.1209 199.157 41.6555 201.091C42.6545 204.725 41.3369 208.651 42.1469 212.344C42.8327 215.465 44.9927 218.149 45.4355 221.314C46.0511 225.758 43.1783 230.38 44.6471 234.619C45.3815 236.725 47.1095 238.399 47.6009 240.586C47.9843 242.271 47.5685 244.058 47.9141 245.749C48.4541 248.481 53.6705 250.609 56.4515 250.43" fill="#DC3001"/>
<path d="M37.1574 160.742C37.15 160.821 37.15 160.9 37.1574 160.979C37.1574 161.158 37.2114 161.384 37.2438 161.671C37.3356 162.281 37.4382 163.172 37.6434 164.327C37.8486 165.483 38.4642 166.79 38.9394 168.367C39.4146 169.943 39.9438 171.747 40.3866 173.767C40.8294 175.786 41.2182 178.038 41.6124 180.452C42.0066 182.866 42.4386 185.495 43.6374 188.012C44.1774 189.27 44.8146 190.534 45.2574 191.884C45.7111 193.265 45.9904 194.699 46.089 196.15C46.3097 199.228 46.6973 202.293 47.25 205.33C48.4596 211.561 49.6098 217.496 50.6574 222.901C51.705 228.307 52.758 233.129 53.6004 237.211C54.4428 241.294 55.134 244.555 55.6146 246.856L56.1546 249.475C56.2194 249.755 56.268 249.977 56.3112 250.15C56.3258 250.229 56.3475 250.307 56.376 250.382C56.3855 250.303 56.3855 250.223 56.376 250.144C56.3436 249.966 56.3058 249.745 56.2572 249.458C56.1384 248.832 55.971 247.946 55.7604 246.823C55.3068 244.517 54.6804 241.223 53.865 237.157C53.0496 233.091 52.083 228.215 51.0084 222.831C49.9338 217.447 48.8484 211.491 47.6334 205.265C47.0804 202.228 46.691 199.164 46.467 196.085C46.3642 194.604 46.0757 193.142 45.6084 191.732C45.1278 190.361 44.496 189.092 43.9398 187.839C42.7518 185.36 42.3198 182.774 41.9094 180.371C41.499 177.968 41.1048 175.711 40.635 173.68C40.1652 171.65 39.6522 169.835 39.123 168.28C38.5938 166.725 38.0052 165.407 37.7676 164.279C37.53 163.15 37.4166 162.243 37.3032 161.644C37.2492 161.363 37.206 161.136 37.1736 160.958C37.1724 160.886 37.167 160.813 37.1574 160.742Z" fill="#263238"/>
<path d="M220.184 41.3691L222.27 41.9282C222.332 41.6911 222.441 41.4689 222.59 41.2748C222.74 41.0806 222.926 40.9184 223.14 40.7978C223.353 40.6771 223.588 40.6005 223.831 40.5724C224.075 40.5444 224.321 40.5655 224.556 40.6345C224.909 40.7156 225.228 40.9047 225.468 41.1754C225.708 41.4462 225.858 41.7852 225.896 42.145C225.933 42.4461 225.898 42.7517 225.795 43.0368C225.691 43.3219 225.522 43.5784 225.3 43.7854C224.789 44.2746 223.876 44.5946 222.543 43.9749L221.285 48.6693L223.335 49.2185L224.07 46.4749C224.978 46.4527 225.853 46.1333 226.562 45.5657C227.27 44.9981 227.773 44.2138 227.993 43.333C228.806 40.2973 226.272 38.8636 225.104 38.5505C224.217 38.2906 221.124 37.6911 220.184 41.3691Z" fill="#DC3001"/>
<path d="M223.096 50.172L221.015 49.6144L220.494 51.5599L222.575 52.1176L223.096 50.172Z" fill="#DC3001"/>
<path d="M239.371 45.063C239.378 44.9714 239.378 44.8793 239.371 44.7876C239.371 44.5932 239.371 44.3286 239.371 43.9884C239.371 43.8156 239.371 43.6158 239.344 43.3998C239.317 43.1838 239.285 42.9462 239.247 42.6978C239.209 42.4494 239.171 42.1578 239.128 41.8716L238.901 40.9536C238.5 39.3727 237.844 37.8679 236.957 36.4986C235.67 34.4708 233.936 32.7651 231.887 31.5125C229.837 30.26 227.528 29.494 225.137 29.2734C224.419 29.21 223.697 29.1955 222.977 29.2302C222.615 29.2302 222.242 29.2302 221.897 29.3004L220.784 29.4678C219.258 29.7515 217.781 30.2553 216.4 30.9636C214.957 31.7268 213.632 32.6924 212.463 33.831C211.266 35.0438 210.266 36.4357 209.498 37.9566C208.672 39.5246 208.131 41.2268 207.9 42.984C207.832 43.4292 207.795 43.8784 207.787 44.3286C207.75 44.7795 207.741 45.2321 207.76 45.684C207.877 48.5808 208.782 51.3907 210.379 53.811V53.6436C209.628 55.5174 208.888 57.3588 208.165 59.1516L208.035 59.481L208.375 59.3838L214.261 57.7638L214.121 57.7314C216.103 59.2321 218.412 60.2425 220.86 60.6798C221.995 60.8914 223.152 60.9622 224.305 60.8904C224.861 60.8821 225.415 60.8298 225.963 60.7338L226.768 60.6096C227.032 60.561 227.308 60.48 227.545 60.4206C231.172 59.5015 234.354 57.3211 236.52 54.27C237.328 53.146 237.977 51.9158 238.448 50.6142C238.55 50.328 238.648 50.0742 238.739 49.7934C238.831 49.5126 238.88 49.2534 238.939 49.0104C238.999 48.7674 239.063 48.519 239.117 48.2922C239.171 48.0654 239.188 47.844 239.22 47.6334C239.269 47.2176 239.344 46.8504 239.36 46.5534C239.377 46.2564 239.36 45.9702 239.36 45.7434C239.36 45.5166 239.36 45.3762 239.36 45.252C239.36 45.1278 239.36 45.0846 239.36 45.0846C239.352 45.1401 239.352 45.1965 239.36 45.252C239.36 45.3762 239.36 45.5382 239.323 45.7434C239.285 45.9486 239.29 46.2348 239.269 46.548C239.247 46.8612 239.166 47.2284 239.101 47.628C238.586 50.6167 237.214 53.3915 235.152 55.6155C233.09 57.8394 230.427 59.4168 227.486 60.156C227.232 60.2154 226.978 60.291 226.719 60.3396L225.925 60.4584C225.39 60.5478 224.848 60.5965 224.305 60.6042C223.174 60.6639 222.039 60.5895 220.925 60.3828C218.534 59.9429 216.28 58.9499 214.342 57.483L214.277 57.429H214.196L208.305 59.049L208.51 59.2812L210.73 53.7786L210.762 53.6922L210.713 53.6112C209.65 52.0024 208.895 50.2097 208.489 48.3246C208.302 47.4501 208.19 46.5613 208.154 45.6678C208.136 45.2267 208.145 44.7848 208.181 44.3448C208.184 43.9053 208.22 43.4667 208.289 43.0326C208.496 41.3166 209.006 39.651 209.795 38.1132C210.546 36.6268 211.52 35.2645 212.684 34.074C213.828 32.9562 215.126 32.0087 216.54 31.2606C217.89 30.5581 219.337 30.0578 220.833 29.7756L221.913 29.6082C222.275 29.5542 222.637 29.5596 222.993 29.5326C223.697 29.4991 224.402 29.5117 225.104 29.5704C227.457 29.7763 229.731 30.5155 231.755 31.7319C233.779 32.9483 235.499 34.6099 236.785 36.5904C237.676 37.9358 238.343 39.4165 238.761 40.9752L239.004 41.8824C239.053 42.1686 239.096 42.4224 239.139 42.6924C239.182 42.9624 239.215 43.1784 239.252 43.3944C239.29 43.6104 239.279 43.8048 239.296 43.9776C239.296 44.3124 239.339 44.577 239.355 44.7714C239.345 44.8689 239.35 44.9673 239.371 45.063Z" fill="#263238"/>
<path d="M78.3379 108.745H109.523C109.523 108.745 109.523 82.5606 136.734 82.0962C150.865 81.8478 158.193 91.1088 161.174 98.199C164.63 106.434 163.582 115.819 158.949 123.46C153.663 132.181 142.269 140.945 121.252 137.241L121.052 206.723H151.891V165.532C151.891 165.532 195.14 154.354 195.14 106.672C195.14 61.0686 158.263 51.219 138.44 50.5818C127.413 50.2308 123.417 49.7556 109.777 51.6942C92.3941 54.1782 77.9707 74.3634 78.3379 108.745Z" fill="#DC3001"/>
<path d="M152.264 221.206H120.966V250.436H152.264V221.206Z" fill="#DC3001"/>
<path opacity="0.1" d="M152.264 221.206H120.966V250.436H152.264V221.206Z" fill="black"/>
<path opacity="0.1" d="M78.3379 108.745H109.523C109.523 108.745 109.523 82.5606 136.734 82.0962C150.865 81.8478 158.193 91.1088 161.174 98.199C164.63 106.434 163.582 115.819 158.949 123.46C153.663 132.181 142.269 140.945 121.252 137.241L121.052 206.723H151.891V165.532C151.891 165.532 195.14 154.354 195.14 106.672C195.14 61.0686 158.263 51.219 138.44 50.5818C127.413 50.2308 123.417 49.7556 109.777 51.6942C92.3941 54.1782 77.9707 74.3634 78.3379 108.745Z" fill="black"/>
<path d="M65.4158 108.745H96.6062C96.6062 108.745 96.6062 82.5606 123.817 82.0962C137.949 81.8478 145.276 91.1088 148.252 98.199C151.713 106.434 150.666 115.819 146.032 123.46C140.746 132.181 129.152 140.108 108.135 136.42V206.723H138.975V165.532C138.975 165.532 182.223 154.354 182.223 106.672C182.223 61.0686 141.324 50.4792 123.822 50.4792C110.436 50.4954 64.8272 53.73 65.4158 108.745Z" fill="#DC3001"/>
<path opacity="0.3" d="M65.4158 108.745H96.6062C96.6062 108.745 96.6062 82.5606 123.817 82.0962C137.949 81.8478 145.276 91.1088 148.252 98.199C151.713 106.434 150.666 115.819 146.032 123.46C140.746 132.181 129.152 140.108 108.135 136.42V206.723H138.975V165.532C138.975 165.532 182.223 154.354 182.223 106.672C182.223 61.0686 141.324 50.4792 123.822 50.4792C110.436 50.4954 64.8272 53.73 65.4158 108.745Z" fill="black"/>
<path d="M139.347 221.206H108.049V250.436H139.347V221.206Z" fill="#DC3001"/>
<path opacity="0.3" d="M139.347 221.206H108.049V250.436H139.347V221.206Z" fill="black"/>
<path d="M127.338 82.2366C127.183 82.2499 127.028 82.2499 126.873 82.2366C126.565 82.2366 126.123 82.134 125.545 82.1286C123.911 82.0483 122.273 82.117 120.652 82.3338C118.248 82.6381 115.883 83.1938 113.595 83.9916C112.246 84.4631 110.932 85.0297 109.663 85.6872C108.292 86.3724 107.001 87.2073 105.813 88.1766C104.634 89.1546 103.577 90.2715 102.665 91.503C101.801 92.6416 101.012 93.8358 100.305 95.0778C99.1242 97.1932 98.1875 99.436 97.5133 101.763C97.0562 103.333 96.7417 104.942 96.5737 106.569C96.5089 107.141 96.4927 107.595 96.4765 107.897C96.4769 108.053 96.4624 108.209 96.4333 108.362C96.4194 108.207 96.4194 108.052 96.4333 107.897C96.4333 107.59 96.4333 107.136 96.4819 106.558C96.6061 104.914 96.8937 103.286 97.3405 101.698C97.99 99.3443 98.9143 97.0751 100.095 94.9374C100.803 93.6817 101.595 92.4748 102.465 91.3248C103.384 90.0732 104.454 88.9396 105.651 87.9498C106.853 86.9672 108.161 86.1214 109.55 85.428C110.826 84.7584 112.149 84.1809 113.508 83.7C115.817 82.9052 118.205 82.3621 120.631 82.08C122.263 81.8795 123.911 81.8415 125.55 81.9666C125.996 81.9951 126.439 82.0492 126.879 82.1286C127.034 82.1538 127.187 82.1899 127.338 82.2366Z" fill="#263238"/>
<path d="M174.328 76.68C174.328 76.68 174.291 76.6422 174.226 76.5612C174.161 76.4802 174.064 76.3398 173.956 76.1832L172.924 74.7252C172.703 74.412 172.465 74.0502 172.185 73.6776L171.213 72.495L170.1 71.1288C169.695 70.6536 169.22 70.1946 168.745 69.6924C168.27 69.1902 167.784 68.6556 167.233 68.1426C166.682 67.6296 166.093 67.1058 165.489 66.5658C165.186 66.2958 164.889 66.0258 164.565 65.7396L163.561 64.9458C162.875 64.4058 162.195 63.8658 161.455 63.3258C158.23 61.0187 154.81 58.9986 151.233 57.2886L148.387 56.0034L145.563 54.9234C144.639 54.54 143.7 54.27 142.792 53.9676C141.885 53.6652 141 53.3574 140.092 53.1468L137.511 52.4718C136.674 52.2504 135.843 52.1154 135.049 51.9318C134.255 51.7482 133.488 51.5862 132.738 51.4944L130.578 51.1812C129.211 50.949 127.959 50.9004 126.868 50.7924C126.328 50.7492 125.788 50.6898 125.34 50.6682L124.054 50.6358L122.272 50.5764H121.808H121.651C121.703 50.5683 121.756 50.5683 121.808 50.5764H122.272H124.054H125.345C125.815 50.5764 126.328 50.6412 126.879 50.679C127.959 50.7708 129.233 50.8086 130.599 51.03L132.759 51.3216C133.51 51.408 134.277 51.6024 135.076 51.7482C135.875 51.894 136.696 52.0452 137.554 52.2882L140.146 52.9578C141.043 53.163 141.928 53.4978 142.846 53.7732C143.764 54.0486 144.699 54.3132 145.622 54.7236L148.462 55.8036L151.324 57.0942C154.92 58.8081 158.354 60.8431 161.584 63.1746C162.33 63.7146 163.01 64.2924 163.696 64.827L164.7 65.556C165.024 65.826 165.321 66.096 165.624 66.3876L167.362 68.0076C167.902 68.5476 168.388 69.0876 168.869 69.579C169.35 70.0704 169.809 70.551 170.214 71.0316L171.294 72.4086L172.255 73.6074C172.53 73.9854 172.762 74.3526 172.978 74.6874C173.4 75.3192 173.729 75.816 173.961 76.1724L174.215 76.5666C174.258 76.5993 174.296 76.6374 174.328 76.68Z" fill="#263238"/>
<path d="M171.077 143.64C171.013 143.757 170.935 143.866 170.845 143.964L170.1 144.844C169.792 145.238 169.403 145.708 168.923 146.232C168.442 146.756 167.929 147.371 167.303 148.009C166.676 148.646 166.007 149.359 165.245 150.077C164.484 150.795 163.658 151.551 162.778 152.339C158.917 155.709 154.685 158.628 150.163 161.039C149.116 161.579 148.127 162.119 147.172 162.535C146.216 162.95 145.325 163.377 144.504 163.723C143.683 164.068 142.927 164.354 142.268 164.608C141.61 164.862 141.032 165.067 140.557 165.218L139.477 165.569C139.351 165.619 139.221 165.655 139.088 165.677C139.204 165.611 139.327 165.556 139.455 165.515L140.535 165.116C141.005 164.948 141.572 164.732 142.225 164.462C142.879 164.192 143.635 163.922 144.445 163.539C145.255 163.156 146.151 162.794 147.085 162.324C148.019 161.854 149.018 161.357 150.061 160.812C152.118 159.678 154.337 158.35 156.578 156.816C158.819 155.282 160.834 153.668 162.626 152.145C163.507 151.367 164.349 150.638 165.1 149.904C165.85 149.17 166.552 148.505 167.173 147.868C167.794 147.231 168.34 146.642 168.826 146.124C169.312 145.606 169.711 145.152 170.035 144.774L170.791 143.915C170.879 143.816 170.975 143.724 171.077 143.64Z" fill="#263238"/>
<path d="M138.429 204.271C138.348 204.271 138.283 195.599 138.283 184.901C138.283 174.204 138.348 165.526 138.429 165.526C138.51 165.526 138.569 174.199 138.569 184.901C138.569 195.604 138.505 204.271 138.429 204.271Z" fill="#263238"/>
<path d="M139.617 248.454C139.536 248.454 139.477 242.368 139.477 234.862C139.477 227.356 139.536 221.265 139.617 221.265C139.698 221.265 139.758 227.351 139.758 234.862C139.758 242.374 139.693 248.454 139.617 248.454Z" fill="#263238"/>
<path d="M170.316 104.603C169.776 105.683 171.79 106.569 172.951 106.92C174.136 107.211 175.362 107.295 176.575 107.168C178.195 107.082 179.853 106.931 181.251 106.132C182.476 105.373 183.455 104.276 184.07 102.973C184.676 101.674 185.156 100.319 185.501 98.928C185.501 98.928 172.741 99.7596 170.316 104.603Z" fill="#DC3001"/>
<g opacity="0.4">
<path d="M170.316 104.603C169.776 105.683 171.79 106.569 172.951 106.92C174.136 107.211 175.362 107.295 176.575 107.168C178.195 107.082 179.853 106.931 181.251 106.132C182.476 105.373 183.455 104.276 184.07 102.973C184.676 101.674 185.156 100.319 185.501 98.928C185.501 98.928 172.741 99.7596 170.316 104.603Z" fill="black"/>
</g>
<path d="M206.356 101.147C208.459 102.64 210.98 103.429 213.559 103.405C214.795 103.473 216.014 103.09 216.988 102.325C217.404 101.941 217.717 101.455 218.144 101.088C218.435 100.84 218.776 100.651 219.051 100.386C219.196 100.261 219.308 100.102 219.377 99.9226C219.446 99.7436 219.469 99.5503 219.445 99.36C219.339 98.891 219.076 98.4721 218.7 98.172C217.237 97.3404 215.487 97.3728 213.802 97.4106C212.116 97.4836 210.45 97.8094 208.861 98.3772C207.554 98.82 206.188 99.4572 205.524 100.645" fill="#DC3001"/>
<g opacity="0.4">
<path d="M219.445 99.36C219.254 98.9045 218.918 98.5249 218.489 98.28C217.026 97.4484 215.487 97.3728 213.802 97.4106C212.116 97.4836 210.45 97.8094 208.861 98.3772C207.554 98.82 206.188 99.4572 205.524 100.645L206.356 101.147C208.459 102.64 210.98 103.429 213.559 103.405C214.795 103.473 216.014 103.09 216.988 102.325C217.404 101.941 217.717 101.455 218.144 101.088C218.435 100.84 218.776 100.651 219.051 100.386C219.196 100.261 219.308 100.102 219.377 99.9226C219.446 99.7436 219.469 99.5503 219.445 99.36Z" fill="black"/>
</g>
<path d="M181.44 120.528L208.359 120.884C208.414 120.884 208.468 120.871 208.517 120.847C208.566 120.822 208.608 120.786 208.641 120.742C208.673 120.698 208.695 120.647 208.704 120.593C208.713 120.539 208.71 120.483 208.694 120.431L205.535 110.581C205.535 110.581 205.999 105.656 206.642 99.738C207.619 90.747 208.921 79.4448 208.937 79.4772C207.096 74.3148 196.231 73.44 196.231 73.44L183.849 74.1744L183.417 73.4454L179.853 75.1032C179.075 75.4648 178.328 75.8874 177.617 76.3668C175.263 77.9382 169.593 81.5508 168.556 85.5738C166.164 94.8888 170.214 105.284 170.214 105.284L172.816 103.248C173.472 102.743 174.161 102.283 174.879 101.871L180.096 115.852C179.785 116.047 179.522 116.31 179.326 116.62C179.13 116.93 179.005 117.28 178.962 117.644C178.918 118.778 179.502 120.139 181.44 120.528Z" fill="#DC3001"/>
<g opacity="0.3">
<path d="M192.991 104.047C193.844 99.4572 193.396 94.7376 192.937 90.0936C191.446 93.8736 191.5 98.1936 189.918 101.941C189.724 102.337 189.582 102.756 189.497 103.189C189.455 103.406 189.466 103.63 189.528 103.842C189.59 104.054 189.702 104.248 189.853 104.409C190.285 104.803 190.933 104.587 191.506 104.522C192.018 104.425 192.517 104.265 192.991 104.047Z" fill="black"/>
</g>
<g opacity="0.4">
<path d="M183.06 114.674C185.22 115.425 187.52 114.026 189.805 113.778C191.317 113.616 192.829 113.962 194.33 114.205C197.365 114.696 200.454 114.772 203.51 114.431C203.979 114.406 204.438 114.286 204.86 114.08C205.078 113.932 205.256 113.732 205.38 113.499C205.503 113.265 205.567 113.005 205.567 112.741C200.48 112.201 195.399 111.91 190.312 111.386C189.046 111.17 187.749 111.212 186.5 111.51C184.966 111.985 183.8 113.189 182.72 114.383" fill="black"/>
</g>
<path d="M218.668 97.5888C216.47 92.637 208.721 78.9426 208.721 78.9426L202.722 86.4648L204.12 101.234C204.12 101.234 207.29 97.6968 216.151 97.6266C216.795 97.6524 217.426 97.8219 217.995 98.1228C218.565 98.4236 219.061 98.8482 219.445 99.3654L218.668 97.5888Z" fill="#DC3001"/>
<path d="M182.644 94.9698C182.216 93.92 181.877 92.8362 181.629 91.7298C181.294 90.6522 181.048 89.5486 180.895 88.4304C181.316 89.482 181.654 90.5654 181.904 91.6704C182.24 92.7484 182.487 93.8518 182.644 94.9698Z" fill="#263238"/>
<path d="M202.268 85.4658C202.463 85.6039 202.644 85.7613 202.808 85.9356C203.285 86.3964 203.732 86.887 204.147 87.4044C205.543 89.1112 206.525 91.1186 207.014 93.2688C207.269 94.4574 207.325 95.6798 207.182 96.8868C207.047 97.9938 206.836 98.9658 206.696 99.7866C206.555 100.607 206.469 101.277 206.426 101.741C206.425 101.983 206.399 102.223 206.35 102.46C206.312 102.219 206.301 101.974 206.318 101.731C206.342 101.069 206.403 100.409 206.501 99.7542C206.615 98.928 206.804 97.9452 206.928 96.8598C207.053 95.68 206.989 94.4879 206.739 93.3282C206.255 91.2182 205.317 89.239 203.99 87.5286C203.002 86.2002 202.225 85.509 202.268 85.4658Z" fill="#263238"/>
<path d="M196.771 119.34C196.583 119.424 196.385 119.482 196.182 119.513C195.952 119.574 195.717 119.619 195.48 119.648C195.205 119.686 194.892 119.745 194.541 119.761C193.718 119.837 192.89 119.837 192.067 119.761C191.061 119.658 190.066 119.459 189.097 119.167C188.133 118.857 187.2 118.458 186.311 117.974C185.59 117.571 184.905 117.107 184.264 116.586C183.984 116.37 183.757 116.143 183.552 115.954C183.375 115.795 183.207 115.625 183.049 115.447C182.899 115.308 182.77 115.148 182.666 114.971C182.704 114.934 183.282 115.582 184.389 116.429C185.035 116.921 185.72 117.362 186.435 117.747C187.315 118.209 188.232 118.594 189.178 118.897C190.131 119.184 191.107 119.387 192.094 119.502C192.901 119.589 193.714 119.614 194.524 119.578C195.912 119.502 196.76 119.297 196.771 119.34Z" fill="#263238"/>
<path d="M205.081 116.273C205.208 116.517 205.28 116.786 205.292 117.061C205.378 117.72 205.328 118.388 205.146 119.027C204.961 119.68 204.585 120.263 204.066 120.701C203.672 121.03 203.369 121.133 203.353 121.106C203.337 121.079 203.591 120.901 203.931 120.566C204.368 120.11 204.685 119.554 204.854 118.946C205.286 117.52 204.979 116.278 205.081 116.273Z" fill="#263238"/>
<path d="M203.618 118.174C203.735 118.729 203.688 119.307 203.483 119.836C203.278 120.365 202.923 120.823 202.462 121.154C202.403 121.095 202.905 120.56 203.218 119.734C203.532 118.908 203.537 118.179 203.618 118.174Z" fill="#263238"/>
<path d="M198.801 100.408C198.515 100.891 198.194 101.353 197.84 101.79C197.561 102.278 197.245 102.743 196.895 103.183C196.999 102.613 197.244 102.079 197.608 101.628C197.896 101.127 198.306 100.707 198.801 100.408Z" fill="#263238"/>
<path d="M180.323 87.3288C179.911 87.0872 179.513 86.824 179.129 86.5404C177.209 85.2787 175.029 84.4648 172.752 84.159C172.275 84.1243 171.801 84.0612 171.332 83.97C171.81 83.904 172.295 83.904 172.773 83.97C175.113 84.1697 177.353 85.0043 179.253 86.3838C179.652 86.6477 180.012 86.9657 180.323 87.3288Z" fill="#263238"/>
<path d="M208.721 78.7644C207.754 79.5427 206.851 80.3968 206.021 81.3186C205.256 82.3024 204.571 83.3462 203.974 84.4398C204.038 84.072 204.164 83.7178 204.347 83.3922C204.738 82.5825 205.227 81.8243 205.805 81.135C206.384 80.4471 207.048 79.8356 207.781 79.3152C208.06 79.0789 208.378 78.8925 208.721 78.7644Z" fill="#263238"/>
<path d="M197.608 74.3148C197.657 74.3927 197.697 74.4761 197.727 74.5632C197.832 74.8078 197.917 75.0606 197.98 75.3192C198.208 76.2815 198.208 77.2837 197.98 78.246C197.644 79.6826 196.875 80.9813 195.777 81.9666C194.391 83.1407 192.625 83.7703 190.809 83.7378C188.991 83.7441 187.22 83.1626 185.76 82.08C184.597 81.1917 183.653 80.0481 183.001 78.7374C182.562 77.8598 182.252 76.923 182.083 75.9564C182.033 75.696 182.001 75.4327 181.986 75.168C181.97 75.075 181.97 74.9802 181.986 74.8872C181.986 74.8872 182.045 75.2652 182.196 75.9348C182.406 76.8741 182.738 77.7819 183.184 78.6348C183.843 79.906 184.779 81.0132 185.922 81.8748C187.329 82.9168 189.031 83.4841 190.782 83.4948C192.533 83.527 194.236 82.9291 195.583 81.81C196.644 80.8608 197.396 79.6158 197.743 78.2352C197.983 77.3033 198.016 76.3301 197.84 75.384C197.737 74.6712 197.575 74.3256 197.608 74.3148Z" fill="#263238"/>
<g opacity="0.3">
<path d="M199.498 101.363C199.498 101.093 199.455 100.775 199.217 100.64C199.142 100.602 199.058 100.582 198.974 100.582C198.89 100.582 198.806 100.602 198.731 100.64C198.58 100.721 198.446 100.831 198.337 100.964C197.702 101.624 197.211 102.41 196.895 103.27L199.541 103.037C199.525 102.492 199.514 101.92 199.498 101.363Z" fill="black"/>
</g>
<g opacity="0.3">
<path d="M208.284 95.796C208.018 94.2819 207.354 92.8656 206.361 91.692C207.506 95.4288 207.123 97.5402 206.48 100.1L206.621 99.7434C207.36 98.2476 208.484 97.308 208.284 95.796Z" fill="black"/>
</g>
<path d="M202.997 221.324L201.382 245.543L190.852 245.419L189.194 220.239L202.997 221.324Z" fill="#FFBE9D"/>
<path d="M201.679 242.357V243.059C201.679 243.059 213.559 247.833 213.673 250.079L190.08 249.95L190.447 242.104C193.963 243.751 197.64 243.956 201.679 242.357Z" fill="#DC3001"/>
<path d="M192.84 244.62C192.616 244.688 192.424 244.835 192.301 245.034C192.178 245.232 192.131 245.469 192.17 245.7C192.228 245.93 192.373 246.129 192.574 246.255C192.775 246.381 193.018 246.424 193.25 246.375C193.49 246.303 193.695 246.145 193.825 245.93C193.955 245.715 194 245.46 193.952 245.214C193.867 244.981 193.694 244.79 193.47 244.682C193.246 244.574 192.989 244.558 192.753 244.636" fill="white"/>
<path d="M190.08 249.95L190.166 248.065L212.76 248.886C212.76 248.886 213.808 249.35 213.683 250.085L190.08 249.95Z" fill="#263238"/>
<path d="M201.766 243.124C201.766 243.238 201.182 243.286 200.615 243.664C200.048 244.042 199.741 244.512 199.638 244.469C199.535 244.426 199.708 243.756 200.405 243.324C201.101 242.892 201.793 243 201.766 243.124Z" fill="#263238"/>
<path d="M204.234 244.161C204.261 244.274 203.758 244.463 203.364 244.949C202.97 245.435 202.857 245.948 202.738 245.943C202.619 245.938 202.554 245.284 203.056 244.696C203.559 244.107 204.228 244.08 204.234 244.161Z" fill="#263238"/>
<path d="M205.621 247.131C205.513 247.131 205.357 246.591 205.659 245.948C205.962 245.306 206.496 245.074 206.545 245.165C206.593 245.257 206.259 245.597 206.005 246.121C205.751 246.645 205.74 247.12 205.621 247.131Z" fill="#263238"/>
<path d="M201.074 44.199C201.685 42.687 200.945 40.8564 199.633 39.879C198.25 38.9686 196.563 38.6407 194.94 38.9664C193.339 39.3022 191.788 39.8469 190.328 40.5864C189.65 39.9019 188.794 39.4195 187.857 39.1931C186.92 38.9667 185.939 39.0052 185.022 39.3043C184.106 39.6034 183.291 40.1514 182.668 40.887C182.045 41.6226 181.638 42.5169 181.494 43.47C180.91 43.3231 180.297 43.3378 179.721 43.5128C179.145 43.6878 178.628 44.0163 178.224 44.4631C177.821 44.9099 177.546 45.4582 177.431 46.049C177.315 46.6399 177.363 47.2511 177.568 47.817L184.869 50.382L192.839 64.422C194.017 65.427 195.521 65.9691 197.069 65.9471C198.617 65.9252 200.105 65.3407 201.254 64.3028C202.403 63.2649 203.135 61.8443 203.313 60.3063C203.492 58.7682 203.105 57.2177 202.225 55.944C202.671 55.5469 203.051 55.08 203.348 54.5616C203.985 54.185 204.541 53.6855 204.983 53.0922C205.425 52.4989 205.745 51.8236 205.924 51.1056C206.631 47.979 204.212 44.5662 201.074 44.199Z" fill="#263238"/>
<path d="M196.241 73.44C195.788 71.1558 195.475 69.5898 195.48 69.606C195.485 69.6222 199.8 67.932 199.487 61.9218C199.336 58.9302 198.196 54.216 197.138 50.3928C196.187 46.9476 192.974 43.1514 189.578 44.2476L179.28 49.2696C178.249 49.6044 178.07 50.5764 178.313 51.6294V52.1694L182.315 68.7258L184.005 76.1238C184.365 77.6429 185.281 78.9721 186.572 79.8496C187.864 80.7271 189.437 81.0893 190.982 80.865C191.826 80.7464 192.636 80.4565 193.364 80.0132C194.092 79.57 194.721 78.9827 195.214 78.2873C195.706 77.592 196.051 76.8034 196.228 75.9698C196.405 75.1363 196.409 74.2754 196.241 73.44Z" fill="#FFBE9D"/>
<path d="M197.1 54.3888C197.144 54.5804 197.112 54.7814 197.011 54.9502C196.911 55.119 196.749 55.2428 196.56 55.296C196.465 55.3227 196.365 55.3298 196.267 55.3168C196.169 55.3039 196.074 55.2712 195.989 55.2207C195.903 55.1703 195.829 55.1031 195.771 55.0233C195.712 54.9434 195.67 54.8525 195.648 54.756C195.604 54.5651 195.637 54.3649 195.737 54.197C195.838 54.0291 195.999 53.9063 196.188 53.8542C196.283 53.8267 196.382 53.8189 196.481 53.8311C196.579 53.8434 196.673 53.8755 196.759 53.9255C196.844 53.9755 196.918 54.0424 196.977 54.122C197.036 54.2017 197.078 54.2925 197.1 54.3888Z" fill="#263238"/>
<path d="M196.63 53.2386C196.555 53.3574 195.901 53.0604 195.102 53.2386C194.303 53.4168 193.795 53.9352 193.687 53.8542C193.579 53.7732 193.687 53.622 193.909 53.3844C194.206 53.0705 194.592 52.8556 195.016 52.7688C195.433 52.6788 195.869 52.7261 196.258 52.9038C196.56 53.028 196.663 53.19 196.63 53.2386Z" fill="#263238"/>
<path d="M189.26 56.16C189.303 56.3509 189.271 56.5511 189.17 56.7191C189.07 56.887 188.908 57.0097 188.72 57.0618C188.626 57.089 188.529 57.0974 188.432 57.0865C188.336 57.0756 188.242 57.0457 188.157 56.9985C188.072 56.9513 187.998 56.8877 187.938 56.8115C187.877 56.7352 187.833 56.6478 187.807 56.5542C187.764 56.3626 187.796 56.1617 187.896 55.9929C187.996 55.8241 188.158 55.7003 188.347 55.647C188.441 55.62 188.539 55.6118 188.635 55.623C188.732 55.6343 188.826 55.6646 188.911 55.7124C188.996 55.7601 189.07 55.8243 189.13 55.9011C189.19 55.978 189.234 56.066 189.26 56.16Z" fill="#263238"/>
<path d="M188.865 55.1448C188.795 55.2636 188.136 54.9612 187.337 55.1448C186.538 55.3284 186.03 55.836 185.922 55.7604C185.814 55.6848 185.922 55.5282 186.144 55.2852C186.442 54.9741 186.828 54.7612 187.251 54.675C187.668 54.5863 188.103 54.6316 188.493 54.8046C188.779 54.9342 188.903 55.08 188.865 55.1448Z" fill="#263238"/>
<path d="M192.932 60.2208C193.328 60.0024 193.748 59.832 194.184 59.7132C194.384 59.6484 194.573 59.5674 194.579 59.4216C194.55 59.2068 194.458 59.0055 194.314 58.8438L193.38 57.4074C192.073 55.3608 191.079 53.6652 191.16 53.6274C191.241 53.5896 192.37 55.1934 193.677 57.24L194.589 58.6872C194.769 58.9087 194.866 59.1853 194.865 59.4702C194.849 59.5479 194.816 59.6211 194.768 59.6845C194.72 59.748 194.659 59.8002 194.589 59.8374C194.484 59.8934 194.371 59.9351 194.255 59.9616C193.827 60.1079 193.382 60.1951 192.932 60.2208Z" fill="#263238"/>
<path d="M195.48 69.606C192.749 70.2233 189.9 70.07 187.25 69.1632C187.25 69.1632 190.08 72.8568 195.788 71.091L195.48 69.606Z" fill="#EB996E"/>
<path d="M189 54C188.946 54.2322 188.12 54.2268 187.18 54.459C186.241 54.6912 185.496 55.0422 185.344 54.8586C185.28 54.7722 185.388 54.5454 185.674 54.3186C186.054 53.9982 186.506 53.7741 186.991 53.6652C187.472 53.5511 187.974 53.5511 188.455 53.6652C188.838 53.7354 189.038 53.892 189 54Z" fill="#263238"/>
<path d="M196.323 50.6898C196.193 50.9058 195.502 50.8518 194.703 51.0084C193.903 51.165 193.272 51.435 193.083 51.2784C192.996 51.1974 193.083 50.9922 193.315 50.7384C193.671 50.4385 194.102 50.2408 194.562 50.166C195.014 50.0749 195.483 50.1085 195.918 50.2632C196.247 50.4144 196.377 50.5818 196.323 50.6898Z" fill="#263238"/>
<path d="M181.823 45.4032C181.943 45.9882 182.19 46.5397 182.546 47.0185C182.903 47.4973 183.361 47.8917 183.887 48.1737C184.413 48.4556 184.995 48.6182 185.592 48.6499C186.188 48.6816 186.784 48.5816 187.337 48.357C188.19 48.0114 189.076 47.3634 189.94 47.6766C190.804 47.9898 191.16 49.221 191.986 49.68C193.201 50.3604 194.686 49.1832 196.042 49.302C197.122 49.3938 197.937 50.22 198.774 50.922C199.611 51.624 200.767 52.1532 201.712 51.6456C201.495 50.7439 201.174 49.8704 200.756 49.0428C200.334 48.2098 199.635 47.5493 198.779 47.1744C198.304 46.9854 197.791 46.9206 197.338 46.6884C196.36 46.1916 195.923 45.0684 195.215 44.2206C194.751 43.6864 194.166 43.2705 193.508 43.0076C192.851 42.7447 192.14 42.6422 191.435 42.7086C190.269 42.8274 189.162 43.416 187.985 43.3674C187.115 43.3296 186.284 42.9408 185.414 42.957C183.724 42.957 182.455 44.469 181.516 45.8784" fill="#263238"/>
<path d="M187.515 46.6398C186.738 46.5804 185.15 46.4184 184.626 45.8676C184.094 45.2724 183.415 44.8275 182.657 44.5773C181.899 44.3271 181.088 44.2805 180.306 44.442C179.53 44.6733 178.849 45.1476 178.363 45.795C177.877 46.4425 177.612 47.2289 177.606 48.0384C176.661 48.269 175.796 48.7504 175.102 49.4319C174.409 50.1134 173.912 50.9697 173.664 51.9102C173.413 52.8948 173.404 53.9257 173.64 54.9143C173.875 55.9029 174.346 56.8196 175.014 57.5856C175.339 57.9913 175.635 58.4189 175.9 58.8654C175.534 59.3197 175.212 59.8079 174.939 60.3234C173.702 63.0558 177.055 64.1034 177.055 64.1034C177.055 65.9394 178.756 65.9286 179.842 65.9232C180.927 65.9178 181.527 68.8176 182.374 68.7042L181.516 59.7564C181.642 59.8053 181.775 59.8309 181.91 59.832C183.957 59.8698 183.422 55.9926 182.763 54.972C183.373 54.213 183.888 53.3824 184.297 52.4988C184.668 51.148 184.693 49.7258 184.372 48.3624C185.058 48.276 187.85 46.6614 187.515 46.6398Z" fill="#263238"/>
<path d="M181.786 60.2316C181.716 59.9473 181.575 59.6853 181.377 59.47C181.178 59.2547 180.929 59.0931 180.651 59.0004C180.373 58.9077 180.077 58.8868 179.789 58.9396C179.501 58.9925 179.231 59.1175 179.005 59.3028C178.465 59.7672 178.178 60.5448 178.502 61.8462C179.377 65.3238 182.687 63.7308 182.666 63.6336C182.644 63.5364 182.164 61.668 181.786 60.2316Z" fill="#FFBE9D"/>
<path d="M181.273 62.5806C181.273 62.5806 181.224 62.64 181.132 62.7102C181.005 62.8081 180.844 62.8527 180.684 62.8344C180.285 62.7912 179.826 62.2944 179.653 61.6626C179.57 61.3674 179.554 61.0578 179.604 60.7554C179.61 60.638 179.643 60.5236 179.703 60.4221C179.762 60.3205 179.845 60.2348 179.944 60.1722C180.01 60.1369 180.086 60.1256 180.159 60.1404C180.232 60.1552 180.297 60.1952 180.344 60.2532C180.414 60.3342 180.409 60.4098 180.43 60.4152C180.452 60.4206 180.49 60.3342 180.43 60.1992C180.389 60.1192 180.323 60.0547 180.241 60.0156C180.127 59.9694 179.999 59.9694 179.885 60.0156C179.749 60.08 179.632 60.1777 179.544 60.2994C179.457 60.4212 179.401 60.5632 179.383 60.7122C179.313 61.0523 179.326 61.4042 179.421 61.7382C179.481 62.0518 179.632 62.3406 179.856 62.5683C180.08 62.796 180.366 62.9525 180.679 63.018C180.78 63.0222 180.882 63.0034 180.975 62.9633C181.069 62.9231 181.152 62.8624 181.219 62.7858C181.289 62.667 181.289 62.586 181.273 62.5806Z" fill="#EB996E"/>
<path d="M200.432 55.377C200.432 55.377 200.751 55.134 201.193 54.594C201.804 53.8159 202.179 52.8788 202.273 51.894C202.345 51.2217 202.279 50.5419 202.079 49.896C201.848 49.1551 201.421 48.4907 200.842 47.9736C200.174 47.3902 199.366 46.9916 198.496 46.8173C197.626 46.643 196.726 46.6991 195.885 46.98C195.723 47.034 195.572 47.115 195.421 47.1798C195.27 47.2446 195.135 47.3418 194.994 47.4228L194.778 47.5416V47.304C194.774 46.8857 194.618 46.4831 194.341 46.17C194.057 45.8662 193.708 45.63 193.32 45.4788C192.587 45.1732 191.774 45.1126 191.004 45.306C189.513 45.6462 188.25 46.3266 187.056 46.467C186.12 46.6296 185.158 46.4371 184.356 45.927C184.145 45.7815 183.962 45.5985 183.816 45.387C183.73 45.2412 183.687 45.1602 183.697 45.1548C183.893 45.4215 184.132 45.6533 184.405 45.8406C185.193 46.2957 186.119 46.451 187.013 46.278C187.635 46.161 188.243 45.98 188.827 45.738C189.514 45.4637 190.217 45.2346 190.933 45.0522C191.333 44.9556 191.743 44.9138 192.154 44.928C192.587 44.9509 193.013 45.0496 193.412 45.2196C193.825 45.396 194.194 45.6615 194.492 45.9972C194.811 46.3628 194.991 46.8295 195 47.3148L194.784 47.196L195.232 46.9368C195.399 46.872 195.556 46.7856 195.729 46.7262C196.615 46.4226 197.566 46.3591 198.485 46.5421C199.404 46.7252 200.259 47.1483 200.961 47.7684C201.569 48.3182 202.013 49.0243 202.246 49.8096C202.489 50.6419 202.521 51.5212 202.341 52.3692C202.161 53.2172 201.775 54.0075 201.215 54.6696C201.037 54.8726 200.836 55.0538 200.616 55.2096C200.561 55.2726 200.5 55.3288 200.432 55.377Z" fill="#455A64"/>
<path d="M199.73 43.1676C199.376 42.9876 198.998 42.8586 198.607 42.7842C198.16 42.7232 197.706 42.7657 197.279 42.9084C196.725 43.0777 196.244 43.4275 195.912 43.902L195.777 44.091L195.696 43.875C195.414 43.2112 194.961 42.6346 194.382 42.2046C193.803 41.7746 193.119 41.5068 192.402 41.4288C191.276 41.3865 190.167 41.7084 189.238 42.3468C188.447 42.8625 187.606 43.2967 186.727 43.6428C186.121 43.8719 185.469 43.9498 184.826 43.8696C184.655 43.838 184.487 43.791 184.324 43.7292C184.216 43.6806 184.157 43.6536 184.162 43.6428C184.167 43.632 184.405 43.713 184.842 43.7562C185.464 43.795 186.086 43.6935 186.662 43.4592C187.516 43.0869 188.335 42.6387 189.108 42.12C189.586 41.8233 190.093 41.5754 190.62 41.3802C191.2 41.1687 191.82 41.0894 192.435 41.148C193.201 41.2316 193.929 41.5214 194.544 41.9863C195.158 42.4513 195.635 43.0742 195.923 43.7886H195.713C196.084 43.2811 196.614 42.9124 197.219 42.741C197.679 42.6077 198.163 42.5837 198.634 42.6708C198.932 42.7274 199.217 42.8371 199.476 42.9948C199.569 43.04 199.654 43.0982 199.73 43.1676Z" fill="#455A64"/>
<path d="M192.618 61.8192C192.492 61.7138 192.345 61.6362 192.187 61.5915C192.029 61.5468 191.863 61.5361 191.7 61.56C191.51 61.6006 191.33 61.6807 191.173 61.7952C191.016 61.9096 190.885 62.0558 190.787 62.2242C190.787 62.2242 190.76 62.2512 190.755 62.2674C190.681 62.3908 190.647 62.5342 190.658 62.6778C190.681 62.8342 190.743 62.9825 190.837 63.1096C190.931 63.2367 191.055 63.3388 191.198 63.4068C191.426 63.5225 191.684 63.5649 191.938 63.5282C192.191 63.4915 192.427 63.3774 192.613 63.2016C192.789 63.0151 192.888 62.7683 192.889 62.5115C192.89 62.2547 192.793 62.0071 192.618 61.8192Z" fill="#DC3001"/>
<path d="M192.888 63.4986C192.845 63.4986 192.796 63.3366 192.65 63.1152C192.475 62.8184 192.212 62.5826 191.899 62.4397C191.585 62.2968 191.235 62.2536 190.895 62.316C190.631 62.3538 190.469 62.4294 190.453 62.3916C190.436 62.3538 190.561 62.2242 190.852 62.1216C191.234 61.9988 191.648 62.0219 192.013 62.1864C192.382 62.3507 192.674 62.6503 192.829 63.0234C192.942 63.3042 192.926 63.4932 192.888 63.4986Z" fill="#263238"/>
<path d="M181.867 64.1682C181.867 64.1682 182.023 64.4382 181.818 64.8486C181.702 65.0942 181.498 65.287 181.246 65.3886C181.089 65.4449 180.92 65.4639 180.755 65.4443C180.589 65.4246 180.43 65.3667 180.29 65.2752C180.148 65.1888 180.028 65.0707 179.939 64.9302C179.85 64.7897 179.794 64.6306 179.777 64.4652C179.761 64.1985 179.839 63.9345 179.998 63.72C180.279 63.3636 180.592 63.3528 180.592 63.3852C180.592 63.4176 180.355 63.5094 180.166 63.8334C180.056 64.0149 180.011 64.2278 180.036 64.4382C180.056 64.5614 180.103 64.6788 180.173 64.7823C180.243 64.8858 180.334 64.9729 180.441 65.0376C180.547 65.105 180.665 65.1495 180.789 65.1681C180.913 65.1867 181.039 65.179 181.159 65.1456C181.359 65.0742 181.531 64.942 181.651 64.7676C181.861 64.4328 181.824 64.1682 181.867 64.1682Z" fill="#DC3001"/>
<path d="M180.047 63.9576C180.074 63.9576 180.047 64.1412 179.793 64.26C179.669 64.3118 179.532 64.3269 179.399 64.3034C179.266 64.2798 179.142 64.2188 179.043 64.1274C178.944 64.0359 178.872 63.918 178.838 63.7874C178.803 63.6569 178.807 63.5192 178.848 63.3906C178.901 63.2446 179.002 63.1208 179.134 63.0396C179.356 62.9046 179.523 62.9586 179.518 62.991C179.512 63.0234 179.388 63.0612 179.253 63.1962C179.187 63.2792 179.146 63.3799 179.137 63.4858C179.128 63.5917 179.15 63.698 179.2 63.7914C179.251 63.8848 179.328 63.9612 179.422 64.0109C179.516 64.0607 179.623 64.0816 179.728 64.071C179.912 64.0332 180.009 63.936 180.047 63.9576Z" fill="#DC3001"/>
<path d="M185.982 111.915C185.982 111.915 199.352 112.693 207.258 112.763C213.376 112.822 216.108 111.197 217.329 107.26C218.355 103.961 216.151 97.6266 216.151 97.6266C212.01 97.6266 209.455 98.2206 206.793 99.4681L207.501 102.362L185.944 104.22L185.982 111.915Z" fill="#FFBE9D"/>
<path d="M211.993 105.451C211.414 104.697 210.736 104.024 209.979 103.448C209.167 102.951 208.292 102.566 207.376 102.303C207.665 102.262 207.959 102.287 208.235 102.379C208.914 102.539 209.559 102.823 210.136 103.216C210.714 103.61 211.214 104.108 211.61 104.684C211.912 105.127 212.026 105.435 211.993 105.451Z" fill="#EB996E"/>
<path d="M181.089 99.4464C181.089 99.4464 176.953 100.44 173.913 102.47L177.153 111.251C178.233 114.134 181.532 115.571 184.173 114.059C188.239 111.731 189.675 104.949 189.675 104.949L194.141 85.5738L186.738 80.9352L181.116 99.4464" fill="#FFBE9D"/>
<path d="M186.711 80.9352L187.013 74.5632L185.355 68.0832C185.264 67.7268 185.22 67.2786 185.512 67.0626C185.657 66.9517 185.835 66.8943 186.017 66.9003C186.199 66.9062 186.374 66.975 186.511 67.095C186.959 67.5594 189.119 73.224 189.119 73.224C189.119 73.224 192.397 71.2584 192.98 71.1612C193.563 71.064 194.292 72.8298 194.341 72.9648C194.362 73.3605 194.362 73.7571 194.341 74.1528C194.341 74.1528 196.366 74.2122 196.55 74.4876C196.697 75.0502 196.775 75.6287 196.782 76.2102C196.782 76.2102 197.64 76.4856 197.775 77.1336C197.91 77.7816 198.191 78.8508 197.775 79.0884C197.36 79.326 196.517 79.7904 196.517 79.7904C196.517 79.7904 196.177 83.0952 196.085 83.3976C195.993 83.7 194.098 85.5576 194.098 85.5576L186.711 80.9352Z" fill="#FFBE9D"/>
<path d="M179.82 114.188C179.82 114.188 180.02 114.307 180.441 114.442C181.057 114.635 181.709 114.687 182.348 114.593C183.374 114.447 184.335 114.004 185.112 113.319C186.14 112.387 187.008 111.292 187.683 110.079C188.08 109.366 188.414 108.62 188.682 107.849C188.963 107 189.195 106.137 189.378 105.262C189.8 103.442 190.259 101.482 190.745 99.3978C191.717 95.2344 192.807 90.5796 193.985 85.563V85.5252H194.012C194.384 85.158 194.757 84.7854 195.129 84.3966C195.313 84.2022 195.497 84.0078 195.669 83.808C195.756 83.7054 195.848 83.6028 195.918 83.5002C195.972 83.3986 196.004 83.2861 196.01 83.1708C196.155 82.0908 196.269 80.973 196.388 79.8444V79.7742L196.452 79.7418L197.484 79.164C197.559 79.1154 197.678 79.0614 197.727 79.0182C197.778 78.9715 197.813 78.9087 197.824 78.84C197.849 78.6609 197.849 78.4791 197.824 78.3C197.772 77.904 197.69 77.5124 197.581 77.1282C197.397 76.7923 197.089 76.5421 196.722 76.4316L196.631 76.3992V76.3074C196.631 75.9942 196.598 75.6702 196.56 75.3516C196.546 75.192 196.522 75.0334 196.49 74.8764C196.478 74.8072 196.456 74.74 196.425 74.6766C196.425 74.6388 196.425 74.6766 196.393 74.6442C196.364 74.6288 196.333 74.6162 196.301 74.6064C195.652 74.4649 194.989 74.3907 194.325 74.385H194.184V74.2446C194.184 73.9098 194.184 73.5372 194.184 73.1646C194.162 73.0375 194.118 72.9152 194.055 72.8028C194.001 72.6732 193.936 72.549 193.871 72.4194C193.745 72.1693 193.597 71.9308 193.428 71.7066C193.352 71.6021 193.259 71.5109 193.153 71.4366C193.114 71.4035 193.066 71.3828 193.015 71.377C192.964 71.3712 192.912 71.3807 192.867 71.4042C192.605 71.5043 192.351 71.6215 192.105 71.7552C191.101 72.2952 190.118 72.8352 189.157 73.4184L189.017 73.5048L188.957 73.3536C188.45 72.0738 187.942 70.8102 187.445 69.5736C187.197 68.9526 186.954 68.3316 186.705 67.7214C186.667 67.5847 186.591 67.4616 186.486 67.3661C186.381 67.2706 186.251 67.2066 186.111 67.1814C185.982 67.1386 185.842 67.1409 185.715 67.188C185.587 67.2351 185.48 67.3242 185.409 67.4406C185.342 67.5565 185.314 67.6908 185.328 67.824C185.328 67.9428 185.404 68.1264 185.436 68.2722C185.523 68.5854 185.604 68.8932 185.685 69.201C185.847 69.822 186.003 70.4322 186.165 71.037C186.482 72.2538 186.794 73.4418 187.1 74.601V74.6388C186.992 76.8564 186.889 78.9804 186.792 81.0108V81L181.872 97.0056L180.485 101.461C180.323 101.963 180.198 102.357 180.112 102.632C180.026 102.908 179.972 103.027 179.972 103.027C179.972 103.027 179.999 102.886 180.074 102.622L180.414 101.439C180.728 100.397 181.176 98.8902 181.743 96.9678C182.909 93.1014 184.567 87.5826 186.57 80.9298V80.9568C186.664 78.9336 186.759 76.8096 186.857 74.5848V74.6226C186.549 73.4616 186.23 72.2736 185.912 71.064L185.426 69.228C185.345 68.9202 185.264 68.607 185.177 68.2992C185.131 68.1375 185.093 67.9735 185.064 67.8078C185.044 67.6204 185.083 67.4314 185.177 67.2678C185.277 67.0994 185.431 66.9699 185.615 66.9006C185.796 66.8476 185.988 66.8415 186.172 66.8831C186.356 66.9247 186.527 67.0125 186.668 67.1382C186.803 67.2653 186.903 67.4253 186.959 67.6026L187.699 69.4548C188.201 70.6968 188.703 71.9604 189.216 73.2348L189.017 73.1646C189.983 72.5922 190.955 72.0198 191.981 71.4852C192.24 71.3497 192.507 71.2289 192.78 71.1234C192.866 71.0879 192.959 71.0749 193.05 71.0856C193.143 71.099 193.231 71.1321 193.31 71.1828C193.44 71.2761 193.554 71.3891 193.65 71.5176C193.83 71.7539 193.988 72.0071 194.12 72.2736C194.19 72.4086 194.255 72.5382 194.314 72.6732C194.391 72.8162 194.442 72.9715 194.465 73.1322C194.465 73.5156 194.465 73.872 194.465 74.2122L194.33 74.0664C195.024 74.0711 195.716 74.1507 196.393 74.304C196.439 74.3202 196.485 74.3401 196.528 74.3634C196.587 74.3957 196.636 74.4445 196.668 74.5038C196.71 74.5914 196.741 74.684 196.76 74.7792C196.793 74.952 196.814 75.114 196.836 75.2814C196.868 75.6108 196.89 75.9348 196.906 76.2588L196.809 76.1292C197.03 76.194 197.235 76.303 197.412 76.4497C197.589 76.5964 197.735 76.7776 197.84 76.9824C197.958 77.3928 198.045 77.8116 198.099 78.2352C198.137 78.4514 198.137 78.6724 198.099 78.8886C198.076 79.0196 198.007 79.1381 197.905 79.2234C197.816 79.2827 197.724 79.3368 197.63 79.3854L196.604 79.92L196.674 79.8174C196.55 80.946 196.436 82.053 196.285 83.1492L196.253 83.3598C196.24 83.4451 196.205 83.5253 196.15 83.592C196.07 83.7102 195.982 83.8221 195.885 83.9268C195.702 84.132 195.518 84.3318 195.345 84.5262C194.973 84.915 194.6 85.2876 194.222 85.6548L194.26 85.59C193.072 90.6012 191.97 95.256 190.982 99.4194C190.491 101.498 190.021 103.459 189.589 105.273C189.404 106.154 189.166 107.023 188.876 107.876C188.598 108.654 188.255 109.407 187.85 110.128C187.16 111.356 186.272 112.462 185.22 113.4C184.419 114.09 183.434 114.529 182.385 114.664C181.733 114.751 181.069 114.685 180.447 114.469C180.288 114.411 180.135 114.341 179.988 114.259L179.82 114.188Z" fill="#EB996E"/>
<path d="M194.346 74.169C194.346 74.2068 194.163 74.2284 193.877 74.2392C193.513 74.2462 193.151 74.2896 192.797 74.3688C192.454 74.453 192.138 74.622 191.879 74.8602C191.684 75.0438 191.598 75.2004 191.555 75.1842C191.511 75.168 191.555 74.9736 191.733 74.7252C191.984 74.4108 192.334 74.1901 192.726 74.0988C193.104 74.0057 193.497 73.9873 193.882 74.0448C194.174 74.0826 194.346 74.1312 194.346 74.169Z" fill="#EB996E"/>
<path d="M192.78 74.2284C192.71 74.2014 192.705 74.034 192.78 73.8558C192.856 73.6776 192.964 73.5534 193.034 73.5804C193.104 73.6074 193.115 73.7748 193.034 73.953C192.953 74.1312 192.834 74.2554 192.78 74.2284Z" fill="#EB996E"/>
<path d="M196.874 76.1886C196.349 76.3508 195.802 76.4256 195.254 76.41C195.081 76.4042 194.909 76.44 194.753 76.5142C194.597 76.5884 194.462 76.699 194.357 76.8366C194.217 77.058 194.265 77.2416 194.222 77.2524C194.179 77.2632 194.049 77.0742 194.184 76.7502C194.259 76.5678 194.394 76.4169 194.568 76.3236C194.768 76.2139 194.988 76.1477 195.216 76.1292C195.767 76.0448 196.33 76.0649 196.874 76.1886Z" fill="#EB996E"/>
<path d="M196.517 78.1326C196.592 78.1326 196.636 78.5322 196.614 79.0236C196.592 79.515 196.511 79.9038 196.436 79.9038C196.36 79.9038 196.312 79.4988 196.333 79.0074C196.355 78.516 196.436 78.1272 196.517 78.1326Z" fill="#EB996E"/>
<path d="M198.758 92.6748L199.238 91.0224C199.26 90.9468 199.302 90.8782 199.358 90.8234C199.415 90.7686 199.485 90.7294 199.561 90.7098C199.637 90.6902 199.717 90.6908 199.793 90.7115C199.869 90.7322 199.939 90.7724 199.994 90.828L200.626 91.4706L201.015 89.91C201.038 89.8199 201.088 89.7389 201.158 89.6782C201.229 89.6174 201.316 89.5798 201.409 89.5703C201.501 89.5609 201.594 89.5801 201.676 89.6255C201.757 89.6708 201.822 89.74 201.863 89.8236L202.743 91.6704L198.758 92.6748Z" fill="white"/>
<path d="M202.754 92.3778C202.15 92.6697 201.509 92.8769 200.848 92.9934C200.209 93.2021 199.543 93.3185 198.872 93.339C200.115 92.8396 201.422 92.5161 202.754 92.3778Z" fill="white"/>
<path d="M170.64 83.16C170.64 83.16 170.44 83.3652 170.16 83.8026C169.783 84.4255 169.535 85.1178 169.431 85.8384C169.277 86.9114 169.244 87.9982 169.333 89.0784C169.393 90.3042 169.49 91.6434 169.641 93.0474C169.897 95.4452 170.277 97.828 170.781 100.186C170.97 101.093 171.142 101.806 171.261 102.346C171.315 102.573 171.364 102.762 171.402 102.924C171.439 103.086 171.445 103.129 171.445 103.129C171.445 103.129 171.418 103.064 171.38 102.935C171.342 102.805 171.283 102.578 171.223 102.357C171.088 101.855 170.905 101.131 170.683 100.224C170.159 97.8666 169.767 95.4814 169.512 93.0798C169.36 91.6758 169.269 90.3312 169.215 89.1054C169.133 88.0244 169.173 86.9376 169.333 85.8654C169.449 85.1354 169.714 84.437 170.111 83.8134C170.257 83.5728 170.435 83.3531 170.64 83.16Z" fill="white"/>
<path d="M182.007 75.8052L181.883 75.87L181.527 76.0428C181.219 76.1886 180.771 76.4046 180.236 76.7016C178.842 77.4789 177.489 78.3259 176.181 79.2396C174.636 80.3196 173.27 81.3024 172.271 82.0152L171.088 82.8522L170.759 83.0736C170.722 83.103 170.682 83.1283 170.64 83.1492C170.671 83.1129 170.707 83.0819 170.748 83.0574L171.061 82.8198L172.222 81.9504C173.211 81.2214 174.571 80.2062 176.116 79.1478C177.426 78.2302 178.789 77.39 180.198 76.6314C180.738 76.3452 181.192 76.14 181.51 76.005L181.872 75.8538C181.98 75.816 181.98 75.7998 182.007 75.8052Z" fill="white"/>
<path d="M207.76 79.3206C207.726 79.3019 207.695 79.2782 207.668 79.2504L207.425 79.0398C207.124 78.7858 206.808 78.5496 206.48 78.3324C205.384 77.6335 204.221 77.0456 203.008 76.5774C201.799 76.0985 200.564 75.6874 199.309 75.3462C198.823 75.2112 198.434 75.114 198.158 75.0492L197.851 74.9682C197.813 74.9605 197.777 74.9478 197.743 74.9304H197.856L198.169 74.9898C198.445 75.0438 198.839 75.1302 199.325 75.2544C200.592 75.5742 201.836 75.9765 203.051 76.4586C204.271 76.9266 205.435 77.5279 206.523 78.2514C206.976 78.558 207.391 78.9169 207.76 79.3206Z" fill="white"/>
<path d="M182.158 120.539C182.085 120.526 182.014 120.502 181.948 120.469C181.76 120.386 181.579 120.289 181.408 120.177C181.117 120.003 180.863 119.773 180.661 119.5C180.459 119.228 180.313 118.918 180.23 118.589C180.082 117.925 180.156 117.231 180.441 116.613C180.523 116.421 180.628 116.24 180.754 116.073C180.841 115.96 180.9 115.906 180.905 115.911C180.758 116.141 180.626 116.381 180.511 116.629C180.26 117.236 180.202 117.905 180.344 118.546C180.498 119.179 180.884 119.732 181.424 120.096C181.872 120.42 182.169 120.517 182.158 120.539Z" fill="white"/>
<path d="M180.441 114.691C180.556 114.905 180.641 115.134 180.695 115.371C180.779 115.598 180.83 115.837 180.846 116.078C180.723 115.869 180.636 115.641 180.587 115.403C180.498 115.176 180.449 114.935 180.441 114.691Z" fill="white"/>
<path d="M187.742 235.764L204.212 235.683L203.915 178.74L203.758 120.814L181.44 120.528L177.428 128.088C175.786 131.127 174.74 134.452 174.345 137.884C174.075 140.508 176.04 149.04 176.721 151.2L182.86 170.672L187.742 235.764Z" fill="#263238"/>
<path d="M208.591 120.884L226.692 170.224C227.764 173.403 228.121 176.78 227.735 180.113C227.35 183.446 226.232 186.652 224.462 189.502L203.445 230.542L191.63 215.757L209.212 179.037L193.714 153.9L196.322 120.96L203.623 120.841L208.591 120.884Z" fill="#263238"/>
<path d="M202.257 137.414C202.257 137.414 202.257 137.5 202.257 137.668C202.257 137.835 202.284 138.094 202.306 138.413C202.344 139.077 202.392 140.033 202.457 141.269C202.581 143.77 202.754 147.361 202.997 151.794C203.24 156.227 203.445 161.514 203.715 167.4C203.845 170.338 203.985 173.421 204.126 176.618C204.228 178.238 204.185 179.858 204.201 181.478C204.218 183.098 204.201 184.804 204.201 186.5C204.201 200.07 204.245 212.355 204.261 221.26C204.261 225.698 204.261 229.295 204.261 231.795C204.261 233.032 204.261 233.993 204.261 234.662C204.261 234.976 204.261 235.202 204.261 235.408C204.261 235.613 204.261 235.661 204.261 235.661C204.261 235.661 204.261 235.575 204.261 235.408V234.662C204.261 233.993 204.261 233.042 204.228 231.795C204.228 229.295 204.185 225.704 204.153 221.265C204.115 212.36 204.066 200.075 204.012 186.505C204.012 184.81 204.012 183.136 204.012 181.483C204.012 179.831 204.045 178.2 203.942 176.623C203.807 173.432 203.672 170.348 203.548 167.411C203.3 161.536 203.073 156.249 202.889 151.799C202.706 147.35 202.571 143.775 202.468 141.275C202.425 140.044 202.392 139.082 202.371 138.413C202.371 138.094 202.371 137.873 202.371 137.668C202.371 137.462 202.257 137.414 202.257 137.414Z" fill="#455A64"/>
<path d="M201.841 121.856C201.904 122.03 201.943 122.212 201.955 122.396C202.014 122.742 202.079 123.244 202.155 123.871C202.295 125.118 202.446 126.851 202.533 128.768C202.619 130.685 202.624 132.424 202.597 133.682C202.597 134.309 202.56 134.822 202.533 135.173C202.538 135.355 202.516 135.537 202.468 135.713C202.4 135.038 202.376 134.36 202.398 133.682C202.398 132.424 202.338 130.696 202.252 128.779C202.165 126.862 202.047 125.14 201.955 123.919C201.878 123.234 201.84 122.546 201.841 121.856Z" fill="#455A64"/>
<path d="M198.213 122.969C198.24 123.007 197.932 123.147 197.846 123.584C197.821 123.703 197.828 123.826 197.865 123.941C197.902 124.057 197.968 124.161 198.056 124.243C198.163 124.343 198.296 124.409 198.44 124.435C198.583 124.461 198.731 124.445 198.866 124.389C198.995 124.322 199.104 124.221 199.178 124.096C199.252 123.971 199.29 123.827 199.287 123.682C199.282 123.561 199.247 123.443 199.183 123.34C199.12 123.237 199.031 123.152 198.926 123.093C198.706 122.987 198.461 122.944 198.218 122.969C198.218 122.969 198.272 122.899 198.413 122.855C198.615 122.806 198.828 122.827 199.017 122.915C199.168 122.978 199.298 123.081 199.394 123.214C199.489 123.346 199.546 123.503 199.557 123.665C199.579 123.866 199.537 124.069 199.437 124.245C199.337 124.421 199.184 124.561 199.001 124.646C198.817 124.73 198.612 124.755 198.413 124.717C198.215 124.679 198.033 124.579 197.894 124.432C197.779 124.318 197.698 124.175 197.659 124.018C197.62 123.861 197.625 123.696 197.673 123.541C197.727 123.339 197.849 123.162 198.018 123.039C198.126 122.963 198.207 122.953 198.213 122.969Z" fill="#455A64"/>
<path d="M189.573 121.991C189.652 122.162 189.701 122.344 189.718 122.531C189.805 123.016 189.822 123.511 189.767 124C189.689 124.729 189.479 125.437 189.146 126.09C188.744 126.902 188.148 127.603 187.412 128.131C186.676 128.659 185.821 128.999 184.923 129.119C184.204 129.227 183.472 129.199 182.763 129.038C182.284 128.934 181.822 128.762 181.392 128.525C181.229 128.449 181.08 128.346 180.949 128.223C181.546 128.492 182.168 128.7 182.806 128.844C183.574 129.004 184.367 129.002 185.135 128.84C185.902 128.678 186.628 128.359 187.266 127.902C187.903 127.445 188.44 126.861 188.84 126.187C189.241 125.513 189.498 124.763 189.594 123.984C189.658 123.321 189.65 122.653 189.573 121.991Z" fill="#455A64"/>
<path d="M210.762 126.722C210.41 126.762 210.053 126.72 209.72 126.598C208.904 126.341 208.172 125.871 207.598 125.237C207.019 124.606 206.621 123.829 206.448 122.99C206.363 122.648 206.363 122.29 206.448 121.948C206.496 121.948 206.502 122.342 206.664 122.947C206.882 123.729 207.28 124.448 207.826 125.049C208.372 125.65 209.05 126.116 209.806 126.409C210.368 126.63 210.768 126.668 210.762 126.722Z" fill="#455A64"/>
<path d="M217.194 179.912C216.923 180.221 216.599 180.478 216.238 180.673C215.859 180.914 215.445 181.096 215.012 181.213C214.467 181.358 213.891 181.343 213.354 181.17C212.411 180.814 211.603 180.172 211.043 179.334C210.786 179.019 210.573 178.67 210.411 178.297C210.703 178.575 210.967 178.881 211.2 179.21C211.773 179.97 212.547 180.556 213.435 180.9C213.888 181.021 214.362 181.048 214.826 180.981C215.29 180.913 215.735 180.751 216.135 180.506C216.476 180.288 216.83 180.089 217.194 179.912Z" fill="#455A64"/>
<path d="M213.068 183.06C212.43 182.399 211.86 181.675 211.367 180.9C210.799 180.178 210.303 179.402 209.887 178.583C210.53 179.242 211.102 179.966 211.594 180.743C212.166 181.461 212.66 182.238 213.068 183.06Z" fill="#455A64"/>
<path d="M185.398 139.32C185.323 139.347 185.134 139.039 184.966 138.623C184.799 138.208 184.729 137.857 184.799 137.824C184.869 137.792 185.064 138.105 185.226 138.521C185.388 138.937 185.469 139.32 185.398 139.32Z" fill="#FAFAFA"/>
<path d="M195.853 140.821C195.772 140.821 195.712 140.557 195.712 140.227C195.712 139.898 195.772 139.628 195.853 139.628C195.934 139.628 195.993 139.898 195.993 140.227C195.993 140.557 195.928 140.821 195.853 140.821Z" fill="#FAFAFA"/>
<path d="M191.555 146.502C191.479 146.502 191.393 146.178 191.366 145.762C191.339 145.346 191.366 145.012 191.452 145.006C191.538 145.001 191.619 145.33 191.646 145.746C191.673 146.162 191.63 146.497 191.555 146.502Z" fill="#FAFAFA"/>
<path d="M183.703 150.66C183.638 150.709 183.417 150.509 183.125 150.304C182.833 150.098 182.585 149.942 182.585 149.866C182.585 149.791 182.941 149.834 183.271 150.071C183.6 150.309 183.768 150.66 183.703 150.66Z" fill="#FAFAFA"/>
<path d="M197.543 155.957C197.478 155.914 197.543 155.682 197.727 155.417C197.91 155.153 198.078 155.002 198.142 155.045C198.207 155.088 198.142 155.326 197.959 155.585C197.775 155.844 197.608 156.001 197.543 155.957Z" fill="#FAFAFA"/>
<path d="M189 157.453C188.925 157.453 188.86 157.005 188.86 156.46C188.86 155.914 188.925 155.461 189 155.461C189.076 155.461 189.141 155.909 189.141 156.46C189.141 157.01 189.06 157.453 189 157.453Z" fill="#FAFAFA"/>
<path d="M186.203 163.512C186.16 163.571 185.879 163.447 185.576 163.226C185.274 163.004 185.036 162.778 185.107 162.713C185.177 162.648 185.436 162.778 185.738 162.999C186.041 163.22 186.251 163.447 186.203 163.512Z" fill="#FAFAFA"/>
<path d="M194.854 165.618C194.886 165.688 194.713 165.834 194.465 165.947C194.217 166.061 193.99 166.088 193.957 166.018C193.925 165.947 194.103 165.802 194.352 165.688C194.6 165.575 194.827 165.548 194.854 165.618Z" fill="#FAFAFA"/>
<path d="M189 175.5C188.936 175.532 188.655 175.117 188.379 174.566C188.104 174.015 187.937 173.54 188.007 173.486C188.077 173.432 188.358 173.869 188.628 174.42C188.898 174.971 189.049 175.441 189 175.5Z" fill="#FAFAFA"/>
<path d="M198.542 174.582C198.472 174.544 198.596 174.182 198.812 173.767C199.028 173.351 199.271 173.048 199.352 173.086C199.433 173.124 199.298 173.486 199.077 173.902C198.855 174.317 198.607 174.62 198.542 174.582Z" fill="#FAFAFA"/>
<path d="M194.357 182.947C194.276 182.947 194.287 182.509 194.2 182.002C194.114 181.494 193.984 181.089 194.06 181.051C194.135 181.013 194.395 181.397 194.481 181.958C194.567 182.52 194.432 182.963 194.357 182.947Z" fill="#FAFAFA"/>
<path d="M189.875 187.726C189.821 187.78 189.551 187.574 189.276 187.272C189 186.97 188.822 186.683 188.882 186.629C188.941 186.575 189.206 186.781 189.481 187.083C189.756 187.385 189.935 187.672 189.875 187.726Z" fill="#FAFAFA"/>
<path d="M200.751 189.54C200.697 189.486 200.896 189.194 201.199 188.887C201.501 188.579 201.782 188.379 201.841 188.433C201.901 188.487 201.695 188.784 201.398 189.086C201.101 189.389 200.81 189.594 200.751 189.54Z" fill="#FAFAFA"/>
<path d="M194.497 196.695C194.422 196.695 194.422 196.268 194.497 195.772C194.573 195.275 194.692 194.886 194.773 194.897C194.854 194.908 194.848 195.318 194.773 195.815C194.697 196.312 194.573 196.706 194.497 196.695Z" fill="#FAFAFA"/>
<path d="M190.291 200.167C190.22 200.205 189.983 199.924 189.751 199.541C189.518 199.157 189.4 198.817 189.464 198.779C189.529 198.742 189.767 199.017 190.004 199.4C190.242 199.784 190.355 200.124 190.291 200.167Z" fill="#FAFAFA"/>
<path d="M200.427 204.547C200.475 204.611 200.2 204.887 199.811 205.162C199.422 205.438 199.082 205.61 199.033 205.546C198.985 205.481 199.266 205.205 199.649 204.93C200.032 204.655 200.383 204.487 200.427 204.547Z" fill="#FAFAFA"/>
<path d="M191.981 210.233C191.906 210.206 191.981 209.774 192.051 209.234C192.122 208.694 192.078 208.251 192.159 208.24C192.24 208.229 192.381 208.683 192.327 209.261C192.273 209.839 192.051 210.265 191.981 210.233Z" fill="#FAFAFA"/>
<path d="M195.356 218.398C195.291 218.446 195.064 218.263 194.843 217.987C194.622 217.712 194.497 217.447 194.557 217.399C194.616 217.35 194.843 217.534 195.064 217.809C195.286 218.084 195.415 218.349 195.356 218.398Z" fill="#FAFAFA"/>
<path d="M191.668 223.873C191.603 223.916 191.306 223.598 191.003 223.155C190.701 222.712 190.512 222.323 190.571 222.28C190.631 222.237 190.933 222.556 191.236 222.998C191.538 223.441 191.732 223.83 191.668 223.873Z" fill="#FAFAFA"/>
<path d="M201.825 216.999C201.755 216.972 201.76 216.772 201.825 216.556C201.89 216.34 202.036 216.178 202.111 216.205C202.187 216.232 202.176 216.432 202.111 216.653C202.046 216.875 201.901 217.031 201.825 216.999Z" fill="#FAFAFA"/>
<path d="M197.343 230.04C197.273 230.002 197.408 229.619 197.516 229.138C197.624 228.658 197.662 228.253 197.743 228.247C197.824 228.242 197.905 228.679 197.791 229.198C197.678 229.716 197.408 230.083 197.343 230.04Z" fill="#FAFAFA"/>
<path d="M200.259 146.588C200.189 146.621 200.016 146.405 199.876 146.102C199.736 145.8 199.676 145.53 199.746 145.498C199.817 145.465 199.989 145.681 200.13 145.984C200.27 146.286 200.34 146.556 200.259 146.588Z" fill="#FAFAFA"/>
<path d="M192.78 129.773C192.824 129.838 192.446 130.14 192.041 130.572C191.636 131.004 191.36 131.404 191.29 131.366C191.22 131.328 191.403 130.826 191.83 130.383C192.257 129.94 192.726 129.703 192.78 129.773Z" fill="#FAFAFA"/>
<path d="M199.438 129.6C199.357 129.6 199.233 129.292 199.044 128.925C198.855 128.558 198.682 128.255 198.742 128.201C198.801 128.147 199.093 128.385 199.282 128.795C199.471 129.206 199.509 129.557 199.438 129.6Z" fill="#FAFAFA"/>
<path d="M178.648 135.059C178.578 135.027 178.648 134.671 178.816 134.26C178.983 133.85 179.167 133.531 179.242 133.564C179.318 133.596 179.242 133.947 179.075 134.363C178.907 134.779 178.74 135.086 178.648 135.059Z" fill="#FAFAFA"/>
<path d="M179.323 143.213C179.269 143.273 178.961 143.1 178.632 142.825C178.303 142.549 178.092 142.285 178.124 142.22C178.157 142.155 178.486 142.333 178.816 142.609C179.145 142.884 179.372 143.154 179.323 143.213Z" fill="#FAFAFA"/>
<path d="M192.964 123.298C192.893 123.298 192.742 123.125 192.634 122.85C192.526 122.575 192.494 122.31 192.564 122.31C192.634 122.31 192.785 122.483 192.893 122.758C193.001 123.034 193.034 123.271 192.964 123.298Z" fill="#FAFAFA"/>
<path d="M206.026 127.283C205.951 127.283 205.956 126.943 206.026 126.56C206.097 126.176 206.237 125.874 206.313 125.89C206.388 125.906 206.383 126.236 206.313 126.619C206.242 127.003 206.102 127.3 206.026 127.283Z" fill="#FAFAFA"/>
<path d="M209.094 133.456C209.023 133.423 209.121 133.024 209.315 132.554C209.509 132.084 209.72 131.733 209.79 131.76C209.86 131.787 209.79 132.192 209.574 132.662C209.358 133.132 209.169 133.483 209.094 133.456Z" fill="#FAFAFA"/>
<path d="M206.907 138.434C206.836 138.467 206.577 138.094 206.329 137.603C206.08 137.111 205.94 136.674 206.01 136.642C206.08 136.609 206.334 136.982 206.583 137.473C206.831 137.965 206.977 138.397 206.907 138.434Z" fill="#FAFAFA"/>
<path d="M211.583 143.413C211.513 143.386 211.583 143.073 211.702 142.717C211.821 142.36 212.01 142.09 212.085 142.117C212.161 142.144 212.085 142.457 211.967 142.814C211.848 143.17 211.68 143.44 211.583 143.413Z" fill="#FAFAFA"/>
<path d="M207.403 148.289C207.339 148.333 207.171 148.187 207.036 147.971C206.901 147.755 206.836 147.539 206.907 147.496C206.977 147.452 207.133 147.598 207.274 147.82C207.414 148.041 207.468 148.252 207.403 148.289Z" fill="#FAFAFA"/>
<path d="M208.294 158.355C208.24 158.404 207.9 158.139 207.544 157.75C207.187 157.361 206.944 157.01 207.004 156.956C207.063 156.902 207.398 157.172 207.754 157.561C208.111 157.95 208.354 158.301 208.294 158.355Z" fill="#FAFAFA"/>
<path d="M213.775 152.572C213.716 152.62 213.419 152.35 213.117 151.961C212.814 151.573 212.62 151.227 212.679 151.178C212.739 151.13 213.036 151.405 213.338 151.789C213.64 152.172 213.84 152.528 213.775 152.572Z" fill="#FAFAFA"/>
<path d="M216.783 160.547C216.713 160.515 216.837 160.11 217.059 159.646C217.28 159.181 217.512 158.825 217.599 158.857C217.685 158.89 217.55 159.3 217.329 159.764C217.107 160.229 216.854 160.585 216.783 160.547Z" fill="#FAFAFA"/>
<path d="M210.39 167.114C210.319 167.152 210.071 166.855 209.725 166.536C209.38 166.217 209.061 165.996 209.094 165.915C209.126 165.834 209.536 165.98 209.914 166.331C210.292 166.682 210.454 167.076 210.39 167.114Z" fill="#FAFAFA"/>
<path d="M210.789 173.88C210.789 173.956 210.519 174.02 210.19 174.02C209.86 174.02 209.596 173.956 209.596 173.88C209.596 173.804 209.86 173.74 210.19 173.74C210.519 173.74 210.789 173.804 210.789 173.88Z" fill="#FAFAFA"/>
<path d="M217.361 171.99C217.291 171.952 217.431 171.612 217.534 171.191C217.636 170.77 217.679 170.402 217.76 170.397C217.841 170.392 217.928 170.786 217.809 171.256C217.69 171.725 217.42 172.033 217.361 171.99Z" fill="#FAFAFA"/>
<path d="M223.889 174.263C223.819 174.29 223.619 173.907 223.447 173.416C223.274 172.924 223.193 172.503 223.263 172.481C223.333 172.46 223.538 172.832 223.711 173.324C223.884 173.815 223.965 174.236 223.889 174.263Z" fill="#FAFAFA"/>
<path d="M222.847 183.551C222.783 183.514 222.95 183.06 223.22 182.536C223.49 182.012 223.76 181.618 223.841 181.656C223.922 181.694 223.744 182.147 223.468 182.666C223.193 183.184 222.918 183.6 222.847 183.551Z" fill="#FAFAFA"/>
<path d="M216.891 189C216.821 189.027 216.599 188.654 216.394 188.163C216.189 187.672 216.086 187.25 216.162 187.218C216.238 187.186 216.454 187.564 216.653 188.055C216.853 188.546 216.961 189 216.891 189Z" fill="#FAFAFA"/>
<path d="M210.292 191.111C210.292 191.187 210.066 191.252 209.79 191.252C209.515 191.252 209.293 191.187 209.293 191.111C209.293 191.036 209.52 190.971 209.79 190.971C210.06 190.971 210.292 191.036 210.292 191.111Z" fill="#FAFAFA"/>
<path d="M214.072 199.8C214.002 199.8 213.851 199.503 213.738 199.093C213.624 198.682 213.603 198.326 213.678 198.31C213.754 198.293 213.9 198.607 214.013 199.017C214.126 199.427 214.148 199.757 214.072 199.8Z" fill="#FAFAFA"/>
<path d="M209.293 196.884C209.228 196.846 209.293 196.592 209.471 196.317C209.65 196.042 209.828 195.853 209.893 195.89C209.957 195.928 209.893 196.187 209.714 196.463C209.536 196.738 209.363 196.927 209.293 196.884Z" fill="#FAFAFA"/>
<path d="M209.196 206.447C209.121 206.447 209.013 206.086 208.959 205.616C208.905 205.146 208.921 204.763 208.996 204.752C209.072 204.741 209.18 205.114 209.234 205.583C209.288 206.053 209.272 206.437 209.196 206.447Z" fill="#FAFAFA"/>
</svg>
