<svg width="500" height="500" viewBox="0 0 500 500" fill="none" xmlns="http://www.w3.org/2000/svg">
<path d="M205.629 68L110.439 191.67L366.439 128.03L223.849 63.43C220.743 62.0201 217.251 61.7044 213.942 62.5343C210.633 63.3643 207.703 65.2909 205.629 68Z" fill="#EBEBEB"/>
<path d="M109.09 192.55L205.21 67.69C207.353 64.8824 210.389 62.8882 213.817 62.0357C217.245 61.1833 220.861 61.5234 224.07 63L368.07 128.23L109.09 192.55ZM217.59 62.55C215.354 62.5515 213.149 63.0705 211.147 64.0663C209.144 65.0621 207.4 66.5077 206.05 68.29L111.78 190.8L364.84 127.89L223.64 63.89C221.738 63.0328 219.675 62.5929 217.59 62.6V62.55Z" fill="#E0E0E0"/>
<path d="M110.434 191.674L367.335 127.812L401.946 267.045C402.632 269.801 402.194 272.717 400.729 275.151C399.264 277.585 396.893 279.337 394.136 280.022L158.022 338.717C155.266 339.402 152.35 338.964 149.916 337.5C147.482 336.035 145.73 333.664 145.045 330.907L110.434 191.674Z" fill="#F0F0F0"/>
<path d="M351.519 135.44L262.519 226.37L127.999 196.09L112.609 124.74C111.757 121.06 112.386 117.192 114.36 113.971C116.333 110.749 119.493 108.433 123.159 107.52L317.759 59.15C319.594 58.6923 321.501 58.601 323.371 58.8812C325.241 59.1614 327.037 59.8076 328.657 60.7829C330.277 61.7582 331.688 63.0434 332.811 64.5649C333.934 66.0865 334.745 67.8144 335.199 69.65L351.519 135.44Z" fill="white"/>
<path d="M250.299 219.22L144.609 329.66C144.983 331.162 145.648 332.576 146.568 333.82C147.487 335.065 148.643 336.116 149.97 336.914C151.296 337.711 152.766 338.24 154.297 338.469C155.827 338.699 157.388 338.624 158.889 338.25L393.189 280C396.22 279.246 398.828 277.319 400.439 274.644C402.05 271.968 402.532 268.761 401.779 265.73L401.559 264.85L263.359 216.1C261.113 215.306 258.686 215.178 256.369 215.732C254.052 216.285 251.944 217.497 250.299 219.22Z" fill="#E0E0E0"/>
<path d="M216.534 118.054L140.404 136.993L142.338 144.766L218.468 125.827L216.534 118.054Z" fill="#E0E0E0"/>
<path d="M314.216 114.68L145.305 156.7L147.489 165.482L316.401 123.462L314.216 114.68Z" fill="#E0E0E0"/>
<path d="M319.558 136.136L150.646 178.156L152.831 186.938L321.743 144.918L319.558 136.136Z" fill="#E0E0E0"/>
<path d="M323.109 164.57L317.819 169.86L176.019 206.93L157.489 202.6L156.789 200.59L325.159 158.71L325.889 161.62L323.109 164.57Z" fill="#E0E0E0"/>
<path d="M286.84 201.52L222.96 217.4L203.43 212.94L298.9 189.19L286.84 201.52Z" fill="#E0E0E0"/>
<path d="M246.44 223.24C246.44 223.24 246.37 223.35 246.2 223.54L245.44 224.37L242.5 227.52L231.61 239.05C222.39 248.76 209.61 262.18 195.46 276.89C181.31 291.6 168.31 304.8 158.83 314.26C154.09 318.99 150.23 322.81 147.55 325.42L144.46 328.42L143.64 329.19C143.554 329.285 143.457 329.369 143.35 329.44C143.423 329.336 143.507 329.238 143.6 329.15L144.38 328.34L147.38 325.27L158.55 314C167.96 304.47 180.89 291.24 195.07 276.52C209.25 261.8 222.07 248.52 231.32 238.79L242.32 227.38L245.32 224.3L246.12 223.51C246.34 223.32 246.44 223.24 246.44 223.24Z" fill="#FAFAFA"/>
<path d="M401.56 264.83C401.51 264.97 372.04 254.74 335.74 241.98C299.44 229.22 270.05 218.76 270.1 218.62C270.15 218.48 299.62 228.7 335.92 241.46C372.22 254.22 401.61 264.68 401.56 264.83Z" fill="#FAFAFA"/>
<path d="M355.75 131.06C355.695 131.149 355.631 131.233 355.56 131.31L355 132L352.63 134.63L343.8 144.22C336.32 152.29 325.9 163.35 314.22 175.42C302.54 187.49 291.76 198.26 283.94 206L274.63 215.12L272.07 217.57L271.4 218.2C271.24 218.34 271.16 218.41 271.15 218.4C271.214 218.315 271.284 218.234 271.36 218.16L271.99 217.49L274.48 214.97L283.66 205.73C291.42 197.92 302.09 187.1 313.77 175.04C325.45 162.98 335.91 152 343.47 144L352.42 134.53L354.87 131.97L355.52 131.31C355.586 131.218 355.664 131.134 355.75 131.06Z" fill="#FAFAFA"/>
<path d="M246.439 223.24C246.321 223.233 246.203 223.213 246.089 223.18L245.089 222.94L241.089 221.94C237.669 221.08 232.699 219.87 226.549 218.43C214.259 215.52 197.209 211.77 178.369 207.69C159.529 203.61 142.489 199.8 130.219 196.79C124.079 195.29 119.119 194.03 115.709 193.11L111.779 192.04L110.779 191.75C110.661 191.725 110.547 191.685 110.439 191.63L110.789 191.7L111.789 191.93L115.789 192.93C119.219 193.79 124.189 194.99 130.339 196.44C142.629 199.35 159.669 203.1 178.519 207.18C197.369 211.26 214.399 215.07 226.669 218.08C232.809 219.58 237.769 220.83 241.179 221.76L245.099 222.83L246.099 223.12L246.439 223.24Z" fill="#FAFAFA"/>
<path d="M351.521 135.44C351.521 135.44 351.421 135.11 351.251 134.44L350.521 131.61C349.881 129.1 348.951 125.43 347.751 120.7L337.681 80.58C337.147 78.46 336.604 76.29 336.051 74.07C335.781 72.97 335.501 71.84 335.211 70.71C335.071 70.14 334.931 69.57 334.751 69.02C334.594 68.4585 334.393 67.9101 334.151 67.38C333.159 65.1366 331.6 63.1902 329.628 61.733C327.655 60.2757 325.336 59.3579 322.901 59.07C321.637 58.8951 320.354 58.8951 319.091 59.07C317.831 59.29 316.551 59.64 315.261 59.95L307.411 61.95L291.001 66L218.091 84.2L145.091 102.32L128.701 106.38L124.701 107.38C123.402 107.65 122.131 108.035 120.901 108.53C118.528 109.558 116.481 111.214 114.981 113.32C114.254 114.343 113.663 115.456 113.221 116.63C112.808 117.79 112.536 118.995 112.411 120.22C112.121 122.67 112.801 125.03 113.281 127.36C114.281 132.027 115.237 136.497 116.151 140.77C119.801 157.86 122.751 171.68 124.791 181.25C125.791 186.03 126.581 189.73 127.121 192.25C127.371 193.5 127.571 194.46 127.711 195.12C127.851 195.78 127.891 196.12 127.891 196.12C127.891 196.12 127.801 195.79 127.651 195.12C127.501 194.45 127.291 193.51 127.011 192.27C126.451 189.74 125.641 186.04 124.591 181.27C122.501 171.71 119.491 157.89 115.771 140.83C114.851 136.56 113.871 132.09 112.861 127.42C112.381 125.12 111.681 122.68 111.981 120.15C112.095 118.884 112.371 117.637 112.801 116.44C113.257 115.228 113.866 114.079 114.611 113.02C115.368 111.942 116.274 110.976 117.301 110.15C118.329 109.293 119.478 108.592 120.711 108.07C121.962 107.559 123.257 107.164 124.581 106.89L128.581 105.89L145.001 101.83L218.001 83.67L291.001 65.55L307.391 61.49L315.241 59.55C316.531 59.23 317.79 58.89 319.111 58.66C321.038 58.3721 323.004 58.4714 324.893 58.9522C326.781 59.433 328.555 60.2855 330.111 61.46C332.09 62.958 333.652 64.9375 334.651 67.21C334.901 67.7561 335.109 68.3212 335.271 68.9C335.451 69.47 335.591 70.04 335.731 70.61C336.011 71.74 336.281 72.87 336.561 73.98C337.111 76.2 337.641 78.37 338.171 80.49L348.071 120.68C349.221 125.42 350.121 129.1 350.731 131.61C351.031 132.86 351.261 133.81 351.411 134.46C351.561 135.11 351.521 135.44 351.521 135.44Z" fill="#E0E0E0"/>
<path d="M452 449C452 449.15 361.56 449.27 250 449.27C138.44 449.27 48 449.16 48 449C48 448.84 138.43 448.72 250 448.72C361.57 448.72 452 448.86 452 449Z" fill="#263238"/>
<path d="M239.71 82.66L229.82 90.19L230.3 104.57L221.25 97.38L216.25 101.66L197.25 78.2L239.71 82.66Z" fill="#DC3001"/>
<path d="M226.1 93.25C226.1 93.69 230.3 104.57 230.3 104.57L221.25 97.38L226.1 93.25Z" fill="#DC3001"/>
<g opacity="0.3">
<path d="M226.1 93.25C226.1 93.69 230.3 104.57 230.3 104.57L221.25 97.38L226.1 93.25Z" fill="black"/>
</g>
<path d="M197.25 78.2L226.1 93.25L230.3 104.57L229.82 90.19L197.25 78.2Z" fill="#DC3001"/>
<path opacity="0.1" d="M197.25 78.2L226.1 93.25L230.3 104.57L229.82 90.19L197.25 78.2Z" fill="black"/>
<path d="M277.249 272.22C275.471 272.161 273.725 271.736 272.119 270.97C273.897 271.029 275.644 271.454 277.249 272.22Z" fill="#263238"/>
<path d="M285.43 274.22C285.43 274.37 284.68 274.32 283.84 274.12C283 273.92 282.34 273.62 282.37 273.47C282.4 273.32 283.12 273.37 283.97 273.58C284.82 273.79 285.47 274.07 285.43 274.22Z" fill="#263238"/>
<path d="M251.669 102.69C250.782 102.703 249.899 102.564 249.059 102.28C248.178 102.172 247.324 101.904 246.539 101.49C247.431 101.373 248.337 101.462 249.189 101.75C250.079 101.859 250.93 102.182 251.669 102.69Z" fill="#263238"/>
<path d="M261.351 106.84C259.673 106.29 258.086 105.494 256.641 104.48C257.533 104.565 258.393 104.86 259.151 105.34C260.461 106 261.431 106.71 261.351 106.84Z" fill="#263238"/>
<path d="M269.739 113.2C269.629 113.31 268.739 112.56 267.619 111.62C266.499 110.68 265.619 109.88 265.749 109.75C266.602 110.051 267.372 110.548 267.999 111.2C269.089 112.16 269.849 113.1 269.739 113.2Z" fill="#263238"/>
<path d="M276.14 121.55C276 121.62 275.34 120.65 274.54 119.45C273.98 118.762 273.541 117.985 273.24 117.15C273.35 117.06 274.19 117.92 275 119.15C275.565 119.849 275.955 120.671 276.14 121.55Z" fill="#263238"/>
<path d="M279.77 131.42C279.341 130.644 279.043 129.803 278.89 128.93C278.556 128.106 278.369 127.229 278.34 126.34C278.88 127.06 279.246 127.895 279.41 128.78C279.746 129.617 279.87 130.524 279.77 131.42Z" fill="#263238"/>
<path d="M280.309 141.92C280.131 141.052 280.094 140.16 280.199 139.28C280.124 138.396 280.205 137.506 280.439 136.65C280.745 137.494 280.851 138.398 280.749 139.29C280.812 140.189 280.661 141.09 280.309 141.92Z" fill="#263238"/>
<path d="M277.58 152.06C277.688 151.182 277.938 150.328 278.32 149.53C278.524 148.673 278.861 147.853 279.32 147.1C279.369 148.001 279.186 148.899 278.79 149.71C278.586 150.581 278.171 151.388 277.58 152.06Z" fill="#263238"/>
<path d="M271.47 160.6C271.37 160.48 272.15 159.6 273.1 158.52C274.05 157.44 274.81 156.52 274.94 156.63C274.656 157.486 274.165 158.259 273.51 158.88C272.54 160 271.57 160.71 271.47 160.6Z" fill="#263238"/>
<path d="M262.65 166.28C263.326 165.709 264.089 165.249 264.91 164.92C265.649 164.43 266.463 164.065 267.32 163.84C266.739 164.532 265.998 165.071 265.16 165.41C264.408 165.903 263.546 166.201 262.65 166.28Z" fill="#263238"/>
<path d="M252.391 168.49C253.227 168.182 254.109 168.017 255.001 168C255.866 167.801 256.757 167.744 257.641 167.83C256.856 168.275 255.973 168.519 255.071 168.54C254.188 168.751 253.265 168.734 252.391 168.49Z" fill="#263238"/>
<path d="M242.09 166.54C243.8 166.896 245.473 167.408 247.09 168.07C246.194 168.182 245.284 168.058 244.45 167.71C243.574 167.534 242.76 167.13 242.09 166.54Z" fill="#263238"/>
<path d="M234.789 159.3C234.939 159.25 235.399 160.3 236.219 161.48C237.039 162.66 237.829 163.48 237.719 163.63C237.609 163.78 236.629 163.03 235.769 161.8C235.164 161.104 234.818 160.221 234.789 159.3Z" fill="#263238"/>
<path d="M239.229 151.11C239.229 151.27 238.139 151.62 236.999 152.43C235.859 153.24 235.249 154.25 235.109 154.17C234.969 154.09 235.409 152.89 236.679 151.99C237.386 151.383 238.298 151.068 239.229 151.11Z" fill="#263238"/>
<path d="M248.27 154.86C248.13 154.94 247.49 153.96 246.45 153C245.41 152.04 244.35 151.56 244.45 151.41C245.379 151.483 246.245 151.909 246.87 152.6C247.588 153.165 248.084 153.965 248.27 154.86Z" fill="#263238"/>
<path d="M248.609 165.07C248.684 164.199 248.848 163.337 249.099 162.5C249.174 161.626 249.338 160.761 249.589 159.92C249.858 160.793 249.858 161.727 249.589 162.6C249.521 163.504 249.179 164.365 248.609 165.07Z" fill="#263238"/>
<path d="M241.76 172.92C241.67 172.79 242.58 172.04 243.67 171.11C244.76 170.18 245.67 169.38 245.74 169.48C245.81 169.58 245.16 170.56 244.03 171.48C242.9 172.4 241.84 173.05 241.76 172.92Z" fill="#263238"/>
<path d="M232.41 177.78C233.072 177.181 233.847 176.722 234.69 176.43C235.459 175.977 236.314 175.687 237.2 175.58C235.774 176.639 234.143 177.388 232.41 177.78Z" fill="#263238"/>
<path d="M223.001 182.56C222.921 182.43 223.871 181.72 225.131 180.96C225.866 180.447 226.706 180.105 227.591 179.96C227.671 180.11 226.651 180.72 225.401 181.44C224.687 181.975 223.87 182.356 223.001 182.56Z" fill="#263238"/>
<path d="M215 189.44C214.89 189.34 215.58 188.36 216.63 187.33C217.209 186.644 217.938 186.1 218.76 185.74C218.86 185.86 218.05 186.74 217.02 187.74C215.99 188.74 215.16 189.54 215 189.44Z" fill="#263238"/>
<path d="M209 198.06C209.168 197.178 209.537 196.346 210.08 195.63C210.85 194.38 211.64 193.48 211.76 193.57C211.501 194.419 211.091 195.215 210.55 195.92C209.79 197.15 209.14 198.13 209 198.06Z" fill="#263238"/>
<path d="M205.159 207.86C205.108 206.964 205.273 206.069 205.639 205.25C205.828 204.37 206.222 203.548 206.789 202.85C206.497 204.588 205.947 206.273 205.159 207.85V207.86Z" fill="#263238"/>
<path d="M203.779 218.3C203.417 216.547 203.541 214.728 204.139 213.04C204.292 213.913 204.292 214.807 204.139 215.68C204.174 216.568 204.052 217.455 203.779 218.3Z" fill="#263238"/>
<path d="M205.16 228.73C204.711 227.957 204.428 227.099 204.33 226.21C204.036 225.359 203.96 224.448 204.11 223.56C204.497 224.361 204.754 225.218 204.87 226.1C205.147 226.947 205.246 227.843 205.16 228.73Z" fill="#263238"/>
<path d="M209.231 238.43C209.101 238.51 208.391 237.55 207.741 236.23C207.258 235.471 206.967 234.606 206.891 233.71C207.467 234.386 207.92 235.158 208.231 235.99C208.705 236.738 209.043 237.564 209.231 238.43Z" fill="#263238"/>
<path d="M215.549 246.86C215.449 246.96 214.549 246.2 213.549 245.08C212.905 244.452 212.413 243.686 212.109 242.84C212.239 242.74 213.029 243.62 213.969 244.72C214.909 245.82 215.659 246.75 215.549 246.86Z" fill="#263238"/>
<path d="M223.67 253.56C222.801 253.327 221.999 252.891 221.33 252.29C220.15 251.43 219.33 250.57 219.41 250.45C220.235 250.782 220.997 251.256 221.66 251.85C222.82 252.7 223.75 253.43 223.67 253.56Z" fill="#263238"/>
<path d="M233.169 258.1C232.27 258.094 231.384 257.871 230.589 257.45C229.722 257.208 228.928 256.754 228.279 256.13C229.155 256.259 230.003 256.533 230.789 256.94C231.639 257.198 232.443 257.589 233.169 258.1Z" fill="#263238"/>
<path d="M238.461 259.45C238.461 259.59 238.371 259.71 238.321 259.7C238.271 259.69 238.251 259.56 238.321 259.41C238.391 259.26 238.411 259.15 238.461 259.16C238.511 259.17 238.491 259.3 238.461 259.45Z" fill="#263238"/>
<path d="M230.814 233.262L219.879 229.671L217.645 236.473L228.58 240.065L230.814 233.262Z" fill="#DC3001"/>
<g opacity="0.3">
<path d="M230.814 233.262L219.879 229.671L217.645 236.473L228.58 240.065L230.814 233.262Z" fill="black"/>
</g>
<path d="M230.789 233.28C228.745 234.305 226.625 235.174 224.449 235.88L224.259 235.95L224.139 235.79L223.949 235.55C222.432 233.705 221.064 231.742 219.859 229.68C221.508 231.409 223.022 233.261 224.389 235.22L224.569 235.46L224.259 235.37C226.376 234.499 228.56 233.8 230.789 233.28Z" fill="#DC3001"/>
<g opacity="0.1">
<path d="M230.789 233.28C228.745 234.305 226.625 235.174 224.449 235.88L224.259 235.95L224.139 235.79L223.949 235.55C222.432 233.705 221.064 231.742 219.859 229.68C221.508 231.409 223.022 233.261 224.389 235.22L224.569 235.46L224.259 235.37C226.376 234.499 228.56 233.8 230.789 233.28Z" fill="black"/>
</g>
<path d="M222.999 233.85C222.247 234.527 221.375 235.059 220.429 235.42C219.558 235.936 218.604 236.298 217.609 236.49C218.369 235.817 219.243 235.285 220.189 234.92C221.058 234.406 222.009 234.044 222.999 233.85Z" fill="#DC3001"/>
<g opacity="0.1">
<path d="M222.999 233.85C222.247 234.527 221.375 235.059 220.429 235.42C219.558 235.936 218.604 236.298 217.609 236.49C218.369 235.817 219.243 235.285 220.189 234.92C221.058 234.406 222.009 234.044 222.999 233.85Z" fill="black"/>
</g>
<path d="M228.749 240.14C228.137 239.386 227.663 238.529 227.349 237.61C226.689 236.12 226.249 234.84 226.449 234.86C227.063 235.615 227.54 236.471 227.859 237.39C228.325 238.243 228.627 239.176 228.749 240.14Z" fill="#DC3001"/>
<g opacity="0.1">
<path d="M228.749 240.14C228.137 239.386 227.663 238.529 227.349 237.61C226.689 236.12 226.249 234.84 226.449 234.86C227.063 235.615 227.54 236.471 227.859 237.39C228.325 238.243 228.627 239.176 228.749 240.14Z" fill="black"/>
</g>
<path d="M275.406 259.91L247.283 250.675L241.536 268.175L269.658 277.41L275.406 259.91Z" fill="#DC3001"/>
<path d="M275.379 259.93C274.978 260.16 274.556 260.351 274.119 260.5L270.619 261.87C267.619 263 263.529 264.54 258.919 266.23L258.729 266.3L258.609 266.14L258.139 265.52C255.079 261.52 252.319 257.79 250.349 255.1L247.999 251.91C247.699 251.528 247.435 251.12 247.209 250.69C247.576 251.021 247.91 251.386 248.209 251.78L250.659 254.87C252.709 257.49 255.509 261.14 258.579 265.19L259.049 265.8L258.739 265.71C263.339 264.03 267.489 262.55 270.489 261.51L274.049 260.3C274.48 260.135 274.925 260.011 275.379 259.93Z" fill="#DC3001"/>
<g opacity="0.2">
<path d="M275.379 259.93C274.978 260.16 274.556 260.351 274.119 260.5L270.619 261.87C267.619 263 263.529 264.54 258.919 266.23L258.729 266.3L258.609 266.14L258.139 265.52C255.079 261.52 252.319 257.79 250.349 255.1L247.999 251.91C247.699 251.528 247.435 251.12 247.209 250.69C247.576 251.021 247.91 251.386 248.209 251.78L250.659 254.87C252.709 257.49 255.509 261.14 258.579 265.19L259.049 265.8L258.739 265.71C263.339 264.03 267.489 262.55 270.489 261.51L274.049 260.3C274.48 260.135 274.925 260.011 275.379 259.93Z" fill="black"/>
</g>
<path d="M255.38 261.42C253.193 262.786 250.914 263.999 248.56 265.05C246.284 266.257 243.929 267.306 241.51 268.19C243.688 266.812 245.964 265.595 248.32 264.55C250.593 263.335 252.953 262.289 255.38 261.42Z" fill="#DC3001"/>
<g opacity="0.2">
<path d="M255.38 261.42C253.193 262.786 250.914 263.999 248.56 265.05C246.284 266.257 243.929 267.306 241.51 268.19C243.688 266.812 245.964 265.595 248.32 264.55C250.593 263.335 252.953 262.289 255.38 261.42Z" fill="black"/>
</g>
<path d="M270.14 277.59C268.91 275.444 267.837 273.212 266.93 270.91C265.862 268.676 264.96 266.366 264.23 264C265.462 266.149 266.535 268.385 267.44 270.69C268.51 272.92 269.412 275.226 270.14 277.59Z" fill="#DC3001"/>
<g opacity="0.2">
<path d="M270.14 277.59C268.91 275.444 267.837 273.212 266.93 270.91C265.862 268.676 264.96 266.366 264.23 264C265.462 266.149 266.535 268.385 267.44 270.69C268.51 272.92 269.412 275.226 270.14 277.59Z" fill="black"/>
</g>
<path d="M248.799 255C248.1 255.514 247.263 255.808 246.396 255.846C245.529 255.884 244.67 255.665 243.927 255.215C243.185 254.765 242.592 254.105 242.225 253.318C241.858 252.532 241.732 251.654 241.863 250.796C241.994 249.938 242.377 249.138 242.963 248.498C243.549 247.857 244.312 247.405 245.155 247.197C245.998 246.99 246.883 247.038 247.699 247.333C248.515 247.629 249.225 248.161 249.739 248.86C250.081 249.325 250.328 249.852 250.466 250.413C250.603 250.973 250.629 251.555 250.542 252.125C250.455 252.695 250.256 253.242 249.957 253.736C249.658 254.229 249.265 254.659 248.799 255Z" fill="#263238"/>
<path d="M248.999 250.65C248.07 251.341 247.083 251.95 246.049 252.47L245.349 252.86L245.219 252.93L245.149 252.81C244.676 252.059 244.274 251.266 243.949 250.44C244.506 251.133 244.992 251.88 245.399 252.67L245.209 252.61L245.909 252.21C246.892 251.601 247.926 251.079 248.999 250.65Z" fill="white"/>
<path d="M257.341 236.33L242.605 231.491L239.595 240.659L254.33 245.498L257.341 236.33Z" fill="#DC3001"/>
<g opacity="0.2">
<path d="M257.343 236.33L242.607 231.491L239.597 240.659L254.332 245.498L257.343 236.33Z" fill="black"/>
</g>
<path d="M257.31 236.34C257.105 236.463 256.887 236.564 256.66 236.64L254.82 237.36C253.27 237.95 251.11 238.76 248.69 239.64H248.59L248.53 239.55L248.29 239.23C246.68 237.11 245.29 235.18 244.2 233.77L243 232.14C242.845 231.939 242.708 231.725 242.59 231.5C242.775 231.673 242.943 231.864 243.09 232.07L244.38 233.69C245.45 235.06 246.92 236.97 248.52 239.09L248.77 239.42H248.61C251.02 238.54 253.19 237.76 254.77 237.22L256.63 236.59C256.846 236.481 257.074 236.397 257.31 236.34Z" fill="#DC3001"/>
<g opacity="0.2">
<path d="M257.31 236.34C257.105 236.463 256.887 236.564 256.66 236.64L254.82 237.36C253.27 237.95 251.11 238.76 248.69 239.64H248.59L248.53 239.55L248.29 239.23C246.68 237.11 245.29 235.18 244.2 233.77L243 232.14C242.845 231.939 242.708 231.725 242.59 231.5C242.775 231.673 242.943 231.864 243.09 232.07L244.38 233.69C245.45 235.06 246.92 236.97 248.52 239.09L248.77 239.42H248.61C251.02 238.54 253.19 237.76 254.77 237.22L256.63 236.59C256.846 236.481 257.074 236.397 257.31 236.34Z" fill="#DC3001"/>
</g>
<path d="M246.84 237.12C245.694 237.833 244.502 238.467 243.27 239.02C242.076 239.653 240.84 240.205 239.57 240.67C240.712 239.947 241.905 239.308 243.14 238.76C244.333 238.125 245.569 237.577 246.84 237.12Z" fill="#DC3001"/>
<g opacity="0.2">
<path d="M246.84 237.12C245.694 237.833 244.502 238.467 243.27 239.02C242.076 239.653 240.84 240.205 239.57 240.67C240.712 239.947 241.905 239.308 243.14 238.76C244.333 238.125 245.569 237.577 246.84 237.12Z" fill="#DC3001"/>
</g>
<path d="M254.571 245.59C253.926 244.466 253.364 243.296 252.891 242.09C252.335 240.917 251.86 239.708 251.471 238.47C252.684 240.761 253.72 243.141 254.571 245.59Z" fill="#DC3001"/>
<g opacity="0.2">
<path d="M254.571 245.59C253.926 244.466 253.364 243.296 252.891 242.09C252.335 240.917 251.86 239.708 251.471 238.47C252.684 240.761 253.72 243.141 254.571 245.59Z" fill="#DC3001"/>
</g>
<path d="M139 121.57C137.983 125.572 135.802 129.183 132.733 131.946C129.664 134.709 125.845 136.5 121.758 137.092C117.671 137.685 113.501 137.052 109.773 135.274C106.046 133.496 102.93 130.653 100.819 127.104C98.7072 123.555 97.6954 119.46 97.9114 115.336C98.1273 111.213 99.5612 107.245 102.032 103.936C104.502 100.627 107.898 98.1254 111.791 96.7466C115.683 95.3677 119.897 95.174 123.9 96.19C129.267 97.555 133.872 100.995 136.704 105.754C139.535 110.513 140.361 116.202 139 121.57Z" fill="#DC3001"/>
<path d="M126.469 105.11C126.839 105.26 124.469 112.25 121.169 120.73C120.679 121.96 120.169 123.14 119.759 124.3L119.509 124.93L118.879 124.69C112.109 122.08 107.159 119.93 107.279 119.62C107.399 119.31 112.539 120.93 119.359 123.4L118.479 123.8C118.919 122.64 119.379 121.45 119.849 120.22C123.139 111.73 126.109 105 126.469 105.11Z" fill="white"/>
<path d="M395.65 417.09C399.391 415.333 403.597 414.821 407.65 415.63C409.83 415.99 412.1 416.63 413.59 418.27C415.08 419.91 415.35 422.79 413.65 424.2C412.55 424.936 411.229 425.272 409.91 425.15C406.73 425.15 403.21 424.55 400.67 426.46C399.22 427.55 398.26 429.36 396.53 429.9C395.665 430.097 394.759 430.009 393.948 429.649C393.137 429.288 392.464 428.675 392.03 427.9C391.206 426.309 391.024 424.462 391.52 422.74C391.726 421.543 392.205 420.41 392.922 419.43C393.638 418.45 394.572 417.649 395.65 417.09Z" fill="#DC3001"/>
<g opacity="0.2">
<path d="M395.65 417.09C399.391 415.333 403.597 414.821 407.65 415.63C409.83 415.99 412.1 416.63 413.59 418.27C415.08 419.91 415.35 422.79 413.65 424.2C412.55 424.936 411.229 425.272 409.91 425.15C406.73 425.15 403.21 424.55 400.67 426.46C399.22 427.55 398.26 429.36 396.53 429.9C395.665 430.097 394.759 430.009 393.948 429.649C393.137 429.288 392.464 428.675 392.03 427.9C391.206 426.309 391.024 424.462 391.52 422.74C391.726 421.543 392.205 420.41 392.922 419.43C393.638 418.45 394.572 417.649 395.65 417.09Z" fill="white"/>
</g>
<path d="M387.28 400.93C389.52 404.12 393.86 403.06 395.87 401.11C397.88 399.16 398.74 396.34 399.51 393.65C401.28 387.5 403.06 381.05 401.75 374.79C401.427 372.893 400.594 371.12 399.34 369.66C398.702 368.942 397.887 368.405 396.976 368.101C396.065 367.797 395.091 367.738 394.15 367.93C391.96 368.51 390.6 370.66 389.62 372.7C386.724 378.724 385.203 385.316 385.17 392C385.17 395.11 385.53 398.37 387.28 400.94" fill="#DC3001"/>
<path d="M381.15 405.51C383.57 402.63 384.03 398.43 382.95 394.82C381.725 391.239 379.538 388.063 376.63 385.64C373.318 382.715 369.47 380.46 365.3 379C363.683 378.346 361.943 378.05 360.2 378.13C359.33 378.182 358.486 378.445 357.74 378.896C356.994 379.347 356.37 379.973 355.92 380.72C354.73 382.99 355.87 385.72 357.11 388C359.291 391.968 361.778 395.76 364.55 399.34C366.78 402.21 369.34 405.05 372.74 406.34C376.14 407.63 379.67 407.49 381.47 405.13" fill="#DC3001"/>
<g opacity="0.1">
<path d="M381.15 405.51C383.57 402.63 384.03 398.43 382.95 394.82C381.725 391.239 379.538 388.063 376.63 385.64C373.318 382.715 369.47 380.46 365.3 379C363.683 378.346 361.943 378.05 360.2 378.13C359.33 378.182 358.486 378.445 357.74 378.896C356.994 379.347 356.37 379.973 355.92 380.72C354.73 382.99 355.87 385.72 357.11 388C359.291 391.968 361.778 395.76 364.55 399.34C366.78 402.21 369.34 405.05 372.74 406.34C376.14 407.63 379.67 407.49 381.47 405.13" fill="black"/>
</g>
<path d="M387.129 449.06C387.245 448.585 387.312 448.099 387.329 447.61C387.439 446.55 387.559 445.23 387.719 443.61C387.915 441.663 388.212 439.727 388.609 437.81C389.126 435.473 389.832 433.182 390.719 430.96C391.587 428.738 392.766 426.651 394.219 424.76C395.399 423.219 396.91 421.961 398.639 421.08C399.812 420.503 401.067 420.111 402.359 419.92C402.845 419.903 403.328 419.836 403.799 419.72C403.314 419.661 402.824 419.661 402.339 419.72C400.994 419.821 399.677 420.159 398.449 420.72C396.632 421.583 395.038 422.853 393.789 424.43C392.274 426.346 391.051 428.476 390.159 430.75C389.262 433.019 388.562 435.361 388.069 437.75C387.693 439.689 387.436 441.649 387.299 443.62C387.169 445.3 387.119 446.62 387.099 447.62C387.06 448.1 387.071 448.582 387.129 449.06Z" fill="#263238"/>
<path d="M387.4 446C387.43 445.778 387.43 445.552 387.4 445.33V443.41C387.4 441.74 387.4 439.32 387.48 436.34C387.63 430.34 388.14 422.13 389.14 413.08C390.14 404.03 391.46 395.88 392.67 390.08C392.95 388.62 393.24 387.3 393.51 386.15C393.78 385 393.99 383.99 394.2 383.15C394.41 382.31 394.53 381.77 394.65 381.28C394.718 381.063 394.758 380.837 394.77 380.61C394.668 380.81 394.591 381.022 394.54 381.24L393.98 383.09C393.73 383.89 393.48 384.88 393.19 386.03C392.9 387.18 392.57 388.49 392.25 389.96C390.618 397.569 389.393 405.26 388.58 413C387.58 422.07 387.14 430.33 387.1 436.31C387.1 439.31 387.1 441.72 387.2 443.39C387.246 444.17 387.286 444.81 387.32 445.31C387.324 445.542 387.351 445.773 387.4 446Z" fill="#263238"/>
<path d="M387.441 430.08C387.495 429.414 387.495 428.746 387.441 428.08C387.329 426.257 387.122 424.441 386.821 422.64C385.827 416.684 384.121 410.869 381.741 405.32C379.443 399.711 376.142 394.567 372.001 390.14C371.285 389.381 370.52 388.669 369.711 388.01C369.361 387.71 369.051 387.42 368.711 387.18L367.831 386.57C367.292 386.164 366.724 385.8 366.131 385.48C368.08 387.015 369.933 388.669 371.681 390.43C375.684 394.893 378.897 400.007 381.181 405.55C382.494 408.574 383.606 411.68 384.511 414.85C385.381 417.76 385.961 420.44 386.401 422.7C386.841 424.96 387.051 426.81 387.201 428.09C387.233 428.758 387.313 429.423 387.441 430.08Z" fill="#263238"/>
<path d="M235.35 298.25H277.22L293.8 251.93H291.48L275.04 295.99L235.35 296.22V298.25Z" fill="#455A64"/>
<path d="M216.852 304.1L218.402 449.19H222.662L220.932 303.03L216.852 304.1Z" fill="#263238"/>
<path d="M306.471 302.69C305.901 305.46 310.311 449.52 310.311 449.52H314.311L311.061 302.69H306.471Z" fill="#263238"/>
<path d="M355.421 298.25H177.391V305.59H192.081L182.521 448.72L186.701 448.95L196.271 305.59H340.441L347.431 449.01H351.621L344.631 305.59H355.421V298.25Z" fill="#263238"/>
<path d="M255 443.73V432.73L234.39 432.52L234.16 448.62L235.44 448.71C241.12 449.09 264.36 450.21 268.17 449.1C272.41 447.86 255 443.73 255 443.73Z" fill="#DC3001"/>
<path d="M241.62 448.53C241.336 446.788 240.417 445.213 239.04 444.11C237.688 443.015 235.977 442.462 234.24 442.56L234.18 448.32L241.62 448.53Z" fill="#F5F5F5"/>
<path d="M263.48 446.05C263.48 446.05 269.6 447.89 268.82 448.89C268.04 449.89 244.52 449.64 234.15 448.62V448.16L261.59 448.69C261.59 448.69 262.28 446.09 263.48 446.05Z" fill="#F5F5F5"/>
<path d="M233.869 448.14H234.219L235.219 448.22L238.959 448.42C242.119 448.57 246.489 448.71 251.319 448.77C256.149 448.83 260.529 448.77 263.689 448.7L267.439 448.59L268.439 448.54H268.789C268.673 448.525 268.555 448.525 268.439 448.54H267.439H263.689C260.529 448.54 256.149 448.54 251.329 448.54C246.509 448.54 242.129 448.36 238.969 448.26L235.219 448.14H234.219H233.869Z" fill="#263238"/>
<path d="M261.619 449C261.789 448.381 262.031 447.783 262.339 447.22C262.711 446.697 263.144 446.22 263.629 445.8C263.01 446.067 262.488 446.517 262.13 447.088C261.773 447.66 261.598 448.327 261.629 449H261.619Z" fill="#263238"/>
<path d="M255.57 445.86C255.63 445.86 255.93 445.54 256.23 445.07C256.53 444.6 256.74 444.19 256.68 444.15C256.62 444.11 256.33 444.47 256.02 444.94C255.805 445.21 255.652 445.524 255.57 445.86Z" fill="#263238"/>
<path d="M253.91 445C253.96 445.05 254.29 444.84 254.65 444.52C255.01 444.2 255.26 443.91 255.21 443.86C255.16 443.81 254.84 444.02 254.48 444.33C254.12 444.64 253.87 444.91 253.91 445Z" fill="#263238"/>
<path d="M252.879 443C253.219 443.132 253.585 443.184 253.949 443.15C254.312 443.197 254.681 443.163 255.029 443.05C254.689 442.918 254.322 442.866 253.959 442.9C253.596 442.854 253.227 442.888 252.879 443Z" fill="#263238"/>
<path d="M252.529 441.63C252.9 441.831 253.308 441.954 253.727 441.99C254.147 442.026 254.57 441.975 254.969 441.84C254.155 441.777 253.342 441.707 252.529 441.63Z" fill="#263238"/>
<path d="M256.289 444.07C256.729 444.146 257.179 444.146 257.619 444.07C258.097 444.02 258.57 443.922 259.029 443.78C259.311 443.701 259.582 443.591 259.839 443.45C259.918 443.409 259.988 443.352 260.044 443.283C260.101 443.215 260.143 443.135 260.169 443.05C260.191 442.951 260.185 442.848 260.151 442.753C260.118 442.657 260.058 442.573 259.979 442.51C259.477 442.262 258.905 442.194 258.358 442.318C257.812 442.442 257.325 442.75 256.979 443.19C256.768 443.448 256.615 443.748 256.529 444.07C256.529 444.3 256.529 444.43 256.529 444.43C256.661 444.022 256.868 443.642 257.139 443.31C257.439 442.96 257.836 442.706 258.279 442.58C258.538 442.497 258.811 442.465 259.082 442.488C259.353 442.51 259.617 442.586 259.859 442.71C260.069 442.87 259.979 443.11 259.749 443.25C259.51 443.378 259.259 443.482 258.999 443.56C258.552 443.709 258.094 443.822 257.629 443.9C256.799 444 256.289 444 256.289 444.07Z" fill="#263238"/>
<path d="M256.629 444.14C256.796 443.864 256.857 443.537 256.799 443.22C256.762 442.864 256.643 442.521 256.449 442.22C256.34 442.021 256.181 441.854 255.989 441.733C255.796 441.612 255.576 441.542 255.349 441.53C255.214 441.557 255.095 441.636 255.018 441.75C254.941 441.865 254.913 442.005 254.939 442.14C254.966 442.349 255.038 442.551 255.149 442.73C255.326 443.021 255.534 443.293 255.769 443.54C255.969 443.781 256.227 443.967 256.519 444.08C256.519 444.08 256.259 443.84 255.899 443.42C255.691 443.174 255.51 442.905 255.359 442.62C255.179 442.34 255.059 441.83 255.359 441.78C255.659 441.73 256.029 442.08 256.229 442.35C256.407 442.609 256.529 442.902 256.589 443.21C256.639 443.517 256.652 443.83 256.629 444.14Z" fill="#263238"/>
<path d="M234.35 442.51C234.35 442.51 234.94 442.46 235.87 442.58C237.081 442.734 238.226 443.218 239.18 443.98C240.107 444.779 240.799 445.816 241.18 446.98C241.48 447.86 241.51 448.46 241.55 448.45C241.59 448.44 241.55 448.3 241.55 448.04C241.515 447.661 241.445 447.286 241.34 446.92C240.98 445.707 240.263 444.63 239.281 443.831C238.3 443.031 237.101 442.547 235.84 442.44C235.461 442.397 235.078 442.397 234.7 442.44C234.58 442.441 234.461 442.465 234.35 442.51Z" fill="#263238"/>
<path d="M236.579 434C236.339 436.813 236.273 439.639 236.379 442.46C236.538 441.056 236.611 439.643 236.599 438.23C236.672 436.821 236.665 435.409 236.579 434Z" fill="#263238"/>
<path d="M244.24 446.55C245.221 446.793 246.23 446.904 247.24 446.88C248.245 446.945 249.254 446.875 250.24 446.67C250.24 446.6 248.89 446.67 247.24 446.67C245.59 446.67 244.25 446.48 244.24 446.55Z" fill="#263238"/>
<path d="M240.199 446.5C240.199 446.55 240.309 446.79 240.439 447.1C240.569 447.41 240.649 447.68 240.719 447.68C240.789 447.68 240.829 447.35 240.669 447C240.509 446.65 240.249 446.45 240.199 446.5Z" fill="#263238"/>
<path d="M238.699 444.59C238.699 444.64 238.779 444.85 238.989 445.07C239.199 445.29 239.409 445.43 239.459 445.38C239.509 445.33 239.379 445.12 239.169 444.9C238.959 444.68 238.749 444.54 238.699 444.59Z" fill="#263238"/>
<path d="M236.53 443.7C236.53 443.77 236.82 443.77 237.12 443.88C237.42 443.99 237.64 444.16 237.69 444.11C237.74 444.06 237.58 443.78 237.2 443.65C236.82 443.52 236.51 443.64 236.53 443.7Z" fill="#263238"/>
<path d="M235 443.28C235 443.34 235.09 443.45 235.26 443.52C235.43 443.59 235.59 443.59 235.61 443.52C235.63 443.45 235.52 443.35 235.35 443.28C235.18 443.21 235 443.21 235 443.28Z" fill="#263238"/>
<path d="M295.519 432.63L290.999 422.58L272.129 430.87L278.539 445.63L279.739 445.19C285.079 443.19 306.739 434.66 309.739 432.08C313.129 429.2 295.519 432.63 295.519 432.63Z" fill="#DC3001"/>
<path d="M285.35 442.48C284.377 440.996 282.887 439.927 281.17 439.48C279.49 439.044 277.708 439.247 276.17 440.05L278.48 445.32L285.35 442.48Z" fill="#F5F5F5"/>
<path d="M304.249 431.23C304.249 431.23 310.579 430.38 310.249 431.62C309.919 432.86 288.409 442.3 278.539 445.62L278.389 445.19L303.609 434.38C303.609 434.38 303.169 431.76 304.249 431.23Z" fill="#F5F5F5"/>
<path d="M278.109 445.32L278.449 445.21L279.449 444.86L282.949 443.5C285.889 442.33 289.949 440.67 294.359 438.73C298.769 436.79 302.749 434.96 305.599 433.58L308.969 431.94L309.879 431.47C309.989 431.426 310.093 431.369 310.189 431.3L309.859 431.43L308.929 431.85L305.529 433.43C302.659 434.75 298.679 436.57 294.259 438.5C289.839 440.43 285.799 442.13 282.879 443.34L279.419 444.77L278.479 445.16L278.109 445.32Z" fill="#263238"/>
<path d="M303.77 434.69C303.665 434.056 303.638 433.411 303.69 432.77C303.822 432.141 304.02 431.528 304.28 430.94C303.79 431.413 303.491 432.05 303.44 432.73C303.307 433.402 303.424 434.099 303.77 434.69Z" fill="#263238"/>
<path d="M296.999 434.3C297.069 434.3 297.189 433.87 297.279 433.3C297.369 432.73 297.379 432.3 297.279 432.3C297.179 432.3 297.089 432.73 296.999 433.3C296.917 433.628 296.917 433.972 296.999 434.3Z" fill="#263238"/>
<path d="M295.08 434.17C295.14 434.17 295.35 433.86 295.55 433.43C295.75 433 295.85 432.62 295.79 432.59C295.73 432.56 295.52 432.89 295.32 433.33C295.12 433.77 295 434.14 295.08 434.17Z" fill="#263238"/>
<path d="M293.33 432.81C293.681 432.776 294.021 432.671 294.33 432.5C294.88 432.27 295.33 432.03 295.27 431.97C295.21 431.91 294.78 432.04 294.27 432.27C293.76 432.5 293.3 432.74 293.33 432.81Z" fill="#263238"/>
<path d="M292.449 431.7C292.87 431.769 293.302 431.71 293.689 431.53C294.099 431.429 294.469 431.206 294.749 430.89C294.354 430.991 293.969 431.129 293.599 431.3C293.204 431.396 292.819 431.53 292.449 431.7Z" fill="#263238"/>
<path d="M296.88 432.38C297.31 432.269 297.719 432.086 298.09 431.84C298.501 431.592 298.889 431.308 299.25 430.99C299.475 430.803 299.679 430.591 299.86 430.36C299.965 430.212 300.011 430.03 299.99 429.85C299.972 429.752 299.925 429.662 299.856 429.59C299.786 429.519 299.697 429.47 299.6 429.45C299.238 429.435 298.877 429.501 298.544 429.642C298.21 429.784 297.913 429.998 297.672 430.269C297.432 430.54 297.255 430.861 297.154 431.209C297.053 431.557 297.031 431.923 297.09 432.28C297.101 432.403 297.139 432.522 297.2 432.63C297.164 432.201 297.197 431.768 297.3 431.35C297.431 430.909 297.688 430.517 298.04 430.22C298.448 429.855 298.983 429.665 299.53 429.69C299.79 429.74 299.81 430 299.65 430.23C299.485 430.443 299.301 430.641 299.1 430.82C298.75 431.135 298.379 431.425 297.99 431.69C297.32 432.14 296.86 432.34 296.88 432.38Z" fill="#263238"/>
<path d="M297.219 432.3C297.25 431.982 297.169 431.664 296.989 431.4C296.809 431.099 296.563 430.842 296.269 430.65C296.087 430.516 295.875 430.43 295.651 430.401C295.427 430.371 295.199 430.398 294.989 430.48C294.877 430.559 294.8 430.678 294.776 430.813C294.752 430.948 294.781 431.087 294.859 431.2C294.968 431.383 295.119 431.537 295.299 431.65C295.578 431.849 295.88 432.013 296.199 432.14C296.482 432.275 296.795 432.337 297.109 432.32C297.109 432.32 296.769 432.21 296.269 431.97C295.974 431.836 295.696 431.668 295.439 431.47C295.159 431.29 294.849 430.88 295.129 430.69C295.297 430.641 295.474 430.63 295.647 430.657C295.82 430.685 295.985 430.751 296.129 430.85C296.403 431.01 296.639 431.228 296.819 431.49C296.975 431.748 297.109 432.019 297.219 432.3Z" fill="#263238"/>
<path d="M276.239 440C276.239 440 276.749 439.71 277.649 439.44C278.814 439.074 280.059 439.046 281.24 439.36C282.421 439.673 283.488 440.315 284.319 441.21C284.959 441.9 285.229 442.43 285.269 442.4C285.231 442.266 285.173 442.138 285.099 442.02C284.916 441.691 284.698 441.382 284.449 441.1C283.626 440.134 282.532 439.437 281.309 439.1C280.084 438.785 278.794 438.837 277.599 439.25C277.249 439.378 276.914 439.542 276.599 439.74C276.339 439.88 276.229 440 276.239 440Z" fill="#263238"/>
<path d="M274.75 431.27C275.174 432.635 275.685 433.971 276.28 435.27C276.799 436.585 277.39 437.87 278.05 439.12C277.615 437.774 277.101 436.455 276.51 435.17C275.996 433.838 275.409 432.536 274.75 431.27Z" fill="#263238"/>
<path d="M286.91 439.6C287.906 439.41 288.874 439.094 289.79 438.66C290.738 438.307 291.633 437.826 292.45 437.23C292.45 437.17 291.22 437.78 289.69 438.43C288.16 439.08 286.89 439.53 286.91 439.6Z" fill="#263238"/>
<path d="M283.209 441.21C283.209 441.28 283.429 441.43 283.679 441.66C283.929 441.89 284.109 442.11 284.169 442.07C284.229 442.03 284.169 441.73 283.849 441.47C283.529 441.21 283.229 441.15 283.209 441.21Z" fill="#263238"/>
<path d="M281.059 440.09C281.059 440.16 281.239 440.3 281.519 440.41C281.799 440.52 282.049 440.56 282.079 440.5C282.109 440.44 281.899 440.29 281.619 440.18C281.339 440.07 281.079 440 281.059 440.09Z" fill="#263238"/>
<path d="M278.719 440.17C278.719 440.23 279.009 440.12 279.329 440.1C279.649 440.08 279.909 440.1 279.939 440.1C279.969 440.1 279.699 439.84 279.309 439.88C278.919 439.92 278.669 440.12 278.719 440.17Z" fill="#263238"/>
<path d="M277.129 440.42C277.129 440.49 277.289 440.54 277.469 440.53C277.649 440.52 277.799 440.46 277.799 440.39C277.799 440.32 277.639 440.27 277.459 440.28C277.279 440.29 277.129 440.35 277.129 440.42Z" fill="#263238"/>
<path d="M108.509 359.12L93.6295 247.93C93.5367 247.238 93.5996 246.534 93.8136 245.869C94.0276 245.205 94.3873 244.596 94.8664 244.088C95.3455 243.581 95.932 243.186 96.5831 242.934C97.2341 242.681 97.9332 242.578 98.6295 242.63L134.499 245.63C136.1 245.765 137.6 246.463 138.733 247.6C139.867 248.737 140.56 250.24 140.689 251.84L149.429 357.11L108.509 359.12Z" fill="#DC3001"/>
<g opacity="0.2">
<path d="M108.509 359.12L93.6295 247.93C93.5367 247.238 93.5996 246.534 93.8136 245.869C94.0276 245.205 94.3873 244.596 94.8664 244.088C95.3455 243.581 95.932 243.186 96.5831 242.934C97.2341 242.681 97.9332 242.578 98.6295 242.63L134.499 245.63C136.1 245.765 137.6 246.463 138.733 247.6C139.867 248.737 140.56 250.24 140.689 251.84L149.429 357.11L108.509 359.12Z" fill="black"/>
</g>
<path d="M143.11 195.71C142.81 191.47 141.7 187.34 141.11 183.14C140.52 178.94 140.4 174.52 142.06 170.61C143.076 168.43 144.512 166.473 146.286 164.849C148.061 163.226 150.138 161.969 152.4 161.15C156.941 159.538 161.791 158.984 166.58 159.53C167.445 159.556 168.297 159.75 169.09 160.1C169.481 160.281 169.818 160.561 170.069 160.911C170.319 161.262 170.475 161.671 170.52 162.1C170.529 162.313 170.495 162.525 170.419 162.724C170.343 162.923 170.227 163.104 170.077 163.256C169.928 163.408 169.749 163.528 169.552 163.608C169.354 163.687 169.142 163.726 168.93 163.72C170.756 163.907 172.557 164.292 174.3 164.87C175.008 165.071 175.623 165.513 176.04 166.12C176.208 166.5 176.275 166.918 176.233 167.332C176.191 167.746 176.041 168.142 175.8 168.48C175.302 169.15 174.689 169.726 173.99 170.18C174.204 170.138 174.424 170.138 174.638 170.181C174.852 170.224 175.055 170.309 175.236 170.431C175.417 170.552 175.573 170.709 175.693 170.89C175.814 171.072 175.898 171.276 175.94 171.49C176.004 171.927 175.975 172.373 175.856 172.798C175.738 173.224 175.531 173.619 175.25 173.96C174.74 174.68 174.08 175.27 173.55 175.96C171.39 178.83 171.81 182.82 172.33 186.38" fill="#263238"/>
<path d="M143.499 220.55L163.709 220.19C163.979 217.85 164.369 208.75 164.369 208.75C164.369 208.75 172.819 207.97 173.439 199.61C174.059 191.25 173.799 171.95 173.799 171.95C169.169 169.613 164 168.554 158.824 168.883C153.649 169.212 148.655 170.916 144.359 173.82L143.059 174.7L143.499 220.55Z" fill="#B78876"/>
<path d="M171 186.45C170.83 186.279 170.714 186.062 170.667 185.825C170.621 185.589 170.645 185.344 170.738 185.121C170.831 184.899 170.987 184.709 171.187 184.575C171.388 184.441 171.624 184.37 171.865 184.37C172.106 184.37 172.341 184.441 172.542 184.575C172.742 184.709 172.898 184.899 172.991 185.121C173.084 185.344 173.108 185.589 173.062 185.825C173.015 186.062 172.899 186.279 172.73 186.45C172.617 186.565 172.482 186.657 172.334 186.719C172.185 186.782 172.026 186.814 171.865 186.814C171.703 186.814 171.544 186.782 171.395 186.719C171.247 186.657 171.112 186.565 171 186.45Z" fill="#263238"/>
<path d="M173.129 184.42C172.989 184.56 172.209 183.88 171.059 183.8C169.909 183.72 169.059 184.27 168.909 184.11C168.759 183.95 168.999 183.79 169.379 183.53C169.895 183.211 170.499 183.064 171.104 183.109C171.709 183.154 172.285 183.389 172.749 183.78C173.089 184.09 173.199 184.36 173.129 184.42Z" fill="#263238"/>
<path d="M159.789 184.61C159.988 184.748 160.14 184.943 160.228 185.168C160.316 185.394 160.334 185.64 160.282 185.876C160.229 186.112 160.107 186.328 159.932 186.494C159.757 186.661 159.536 186.772 159.297 186.813C159.059 186.854 158.814 186.823 158.593 186.724C158.372 186.625 158.186 186.463 158.057 186.258C157.929 186.053 157.864 185.814 157.872 185.573C157.879 185.331 157.958 185.097 158.099 184.9C158.191 184.77 158.308 184.659 158.442 184.574C158.577 184.489 158.727 184.431 158.884 184.404C159.041 184.377 159.202 184.381 159.357 184.417C159.513 184.452 159.659 184.518 159.789 184.61Z" fill="#263238"/>
<path d="M160.549 184.67C160.409 184.8 159.629 184.12 158.479 184.04C157.329 183.96 156.479 184.51 156.339 184.36C156.199 184.21 156.419 184.03 156.809 183.78C157.322 183.456 157.926 183.305 158.53 183.351C159.135 183.396 159.71 183.634 160.169 184.03C160.509 184.33 160.619 184.61 160.549 184.67Z" fill="#263238"/>
<path d="M164.59 194.46C165.196 194.26 165.831 194.165 166.47 194.18C166.78 194.18 167.02 194.11 167.05 193.95C167.075 193.648 167.02 193.344 166.89 193.07C166.64 192.29 166.38 191.5 166.12 190.67C165.07 187.26 164.35 184.45 164.53 184.4C164.71 184.35 165.69 187.07 166.75 190.48C167 191.31 167.23 192.11 167.47 192.89C167.634 193.293 167.662 193.739 167.55 194.16C167.499 194.273 167.424 194.372 167.328 194.45C167.233 194.528 167.12 194.583 167 194.61C166.83 194.628 166.659 194.628 166.49 194.61C165.852 194.668 165.21 194.617 164.59 194.46Z" fill="#263238"/>
<path d="M160.76 195.5C159.61 194.71 163.96 197.5 166.31 197.5C165.88 198.077 165.267 198.49 164.571 198.671C163.875 198.853 163.137 198.793 162.48 198.5C160 197.45 160.76 195.5 160.76 195.5Z" fill="white"/>
<path d="M164.4 208.63C160.531 208.468 156.798 207.156 153.68 204.86C153.68 204.86 155.89 211.04 164.28 210.8L164.4 208.63Z" fill="#A36957"/>
<path d="M142.789 181L143.219 191.85C143.219 191.85 147.029 190.69 147.279 190.58C147.529 190.47 147.209 177.29 147.209 177.29C147.209 177.29 146.679 172.29 149.919 171.14C153.329 169.91 154.809 172.38 159.639 173.14C175.569 175.83 174.479 170.94 174.479 170.94C174.479 170.94 176.479 168.79 172.389 166.43C168.299 164.07 158.069 163.27 152.469 165.2C141.469 168.99 140.809 172.76 140.809 176.09C140.809 180.84 142.789 181 142.789 181Z" fill="#263238"/>
<path d="M144.66 182.12C144.48 182.05 138.46 181.27 139.03 188.38C139.6 195.49 146.59 192.57 146.59 192.38C146.59 192.19 144.66 182.12 144.66 182.12Z" fill="#B78876"/>
<path d="M144.21 190C144.21 190 144.09 190.1 143.89 190.21C143.603 190.359 143.27 190.391 142.96 190.3C142.475 190.051 142.067 189.675 141.78 189.211C141.492 188.748 141.337 188.215 141.33 187.67C141.261 187.059 141.329 186.441 141.53 185.86C141.583 185.637 141.689 185.43 141.839 185.256C141.988 185.082 142.177 184.946 142.39 184.86C142.529 184.812 142.681 184.813 142.82 184.864C142.958 184.916 143.075 185.013 143.15 185.14C143.26 185.33 143.22 185.48 143.26 185.49C143.3 185.5 143.4 185.35 143.32 185.07C143.271 184.895 143.161 184.742 143.01 184.64C142.799 184.516 142.55 184.473 142.31 184.52C142.022 184.599 141.76 184.752 141.548 184.962C141.336 185.172 141.182 185.433 141.1 185.72C140.848 186.355 140.755 187.041 140.83 187.72C140.99 189.15 141.83 190.43 142.83 190.65C143.026 190.69 143.228 190.685 143.421 190.637C143.615 190.588 143.796 190.497 143.95 190.37C144.21 190.22 144.23 190.05 144.21 190Z" fill="#A36957"/>
<path d="M224.08 278C224.08 278 234.08 277.52 236.08 278.43C239.54 279.94 249.84 296.09 249.32 296.09C247.76 296.09 244.55 296.09 244.55 296.09L228.55 290.02L224.78 290.97L224.08 278Z" fill="#B78876"/>
<path d="M267.079 324.37C267.079 324.37 296.999 428 297.069 427.49C297.139 426.98 270.249 440.42 270.249 440.42L252.109 365.48L267.079 324.37Z" fill="#263238"/>
<path d="M269.659 441.05L297.999 427.22L296.769 423.43L268.209 437.28L269.659 441.05Z" fill="#455A64"/>
<path d="M265.94 402.93C265.79 402.93 265.48 402.32 265.23 401.49C264.98 400.66 264.9 399.93 265.05 399.89C265.2 399.85 265.51 400.49 265.76 401.33C266.01 402.17 266.08 402.88 265.94 402.93Z" fill="#455A64"/>
<path d="M267.789 409C267.639 409 267.309 408.4 267.059 407.57C266.809 406.74 266.709 406.02 266.849 405.97C266.989 405.92 267.319 406.57 267.579 407.4C267.839 408.23 267.929 408.93 267.789 409Z" fill="#455A64"/>
<path d="M269.719 415C269.569 415.05 269.239 414.41 268.969 413.58C268.699 412.75 268.599 412.04 268.739 411.99C268.879 411.94 269.219 412.58 269.489 413.41C269.759 414.24 269.859 415 269.719 415Z" fill="#455A64"/>
<path d="M271.739 421C271.589 421.05 271.249 420.42 270.969 419.59C270.689 418.76 270.569 418.05 270.719 418C270.869 417.95 271.209 418.58 271.489 419.41C271.769 420.24 271.879 421 271.739 421Z" fill="#455A64"/>
<path d="M273.84 427C273.7 427 273.34 426.42 273.05 425.6C272.76 424.78 272.63 424.07 272.78 424.02C272.93 423.97 273.27 424.59 273.57 425.42C273.87 426.25 274 426.92 273.84 427Z" fill="#455A64"/>
<path d="M276 432.91C275.85 432.91 275.49 432.34 275.19 431.52C274.89 430.7 274.75 429.99 274.89 429.94C275.03 429.89 275.4 430.51 275.7 431.33C276 432.15 276.17 432.86 276 432.91Z" fill="#455A64"/>
<path d="M274.429 435.4C274.183 435.068 273.981 434.705 273.829 434.32C273.479 433.6 272.999 432.55 272.449 431.24C271.339 428.62 269.969 424.93 268.589 420.82C267.209 416.71 266.049 412.95 265.229 410.23C264.849 408.95 264.529 407.87 264.229 407C264.084 406.61 263.99 406.204 263.949 405.79C264.145 406.154 264.306 406.536 264.429 406.93C264.709 407.68 265.089 408.76 265.549 410.11L269.059 420.64C270.429 424.75 271.739 428.45 272.759 431.1L273.979 434.23C274.17 434.603 274.321 434.995 274.429 435.4Z" fill="#455A64"/>
<path d="M127.489 317.17C127.739 311.68 124.619 347.3 151.999 348.24C179.379 349.18 235.319 348.77 235.319 348.77L228.769 439.1H261.619L268.479 343C268.479 343 271.979 315.16 252.929 311.61C241.009 309.38 166.879 308.67 166.879 308.67L127.489 317.17Z" fill="#263238"/>
<path d="M228.02 439.29H262.61V433.91L228.02 433.96V439.29Z" fill="#455A64"/>
<path d="M173.91 344C174.026 343.985 174.144 343.985 174.26 344L175.26 343.94L179.26 343.76L194.11 343.19L244.2 341.47H244.52V341.79C244.07 345.47 243.69 349.36 243.37 353.31C242.93 358.96 242.51 364.47 242.1 369.79C241.69 375.11 241.1 380.23 240.59 385.11C239.59 394.85 238.65 403.63 237.87 411.02C237.09 418.41 236.44 424.33 235.99 428.48C235.76 430.48 235.58 432.12 235.45 433.23C235.39 433.75 235.34 434.16 235.3 434.46C235.288 434.602 235.264 434.742 235.23 434.88C235.215 434.74 235.215 434.6 235.23 434.46C235.23 434.15 235.29 433.74 235.33 433.22C235.43 432.1 235.58 430.5 235.77 428.46C236.17 424.31 236.77 418.34 237.48 410.98C238.19 403.62 239.1 394.81 240.08 385.05C240.56 380.17 241.08 375.05 241.55 369.74C242.02 364.43 242.38 358.91 242.81 353.27C243.13 349.27 243.51 345.42 243.97 341.72L244.25 342.03L194.15 343.56L179.3 343.97L175.3 344.05H174.3C174.168 344.053 174.037 344.036 173.91 344Z" fill="#455A64"/>
<path d="M177.07 340.09C177.07 340.24 176.37 340.38 175.49 340.4C174.61 340.42 173.91 340.32 173.91 340.17C173.91 340.02 174.61 339.87 175.48 339.85C176.35 339.83 177.07 339.94 177.07 340.09Z" fill="#455A64"/>
<path d="M183.399 339.94C183.399 340.09 182.699 340.23 181.819 340.25C180.939 340.27 180.239 340.17 180.229 340.02C180.219 339.87 180.939 339.73 181.809 339.7C182.679 339.67 183.399 339.79 183.399 339.94Z" fill="#455A64"/>
<path d="M189.729 339.79C189.729 339.95 189.029 340.08 188.149 340.11C187.269 340.14 186.569 340.02 186.559 339.87C186.549 339.72 187.269 339.58 188.139 339.56C189.009 339.54 189.729 339.64 189.729 339.79Z" fill="#455A64"/>
<path d="M196.059 339.64C196.059 339.8 195.359 339.94 194.479 339.96C193.599 339.98 192.899 339.87 192.889 339.72C192.879 339.57 193.599 339.43 194.469 339.41C195.339 339.39 196.059 339.49 196.059 339.64Z" fill="#455A64"/>
<path d="M202.389 339.5C202.389 339.65 201.689 339.79 200.809 339.81C199.929 339.83 199.229 339.72 199.219 339.57C199.209 339.42 199.929 339.28 200.799 339.26C201.669 339.24 202.389 339.34 202.389 339.5Z" fill="#455A64"/>
<path d="M208.719 339.35C208.719 339.5 208.019 339.64 207.139 339.66C206.259 339.68 205.559 339.57 205.549 339.42C205.539 339.27 206.259 339.13 207.129 339.11C207.999 339.09 208.709 339.2 208.719 339.35Z" fill="#455A64"/>
<path d="M215.049 339.2C215.049 339.35 214.349 339.49 213.469 339.51C212.589 339.53 211.889 339.42 211.879 339.27C211.869 339.12 212.579 338.98 213.459 338.96C214.339 338.94 214.999 339.05 215.049 339.2Z" fill="#455A64"/>
<path d="M221.379 339.05C221.379 339.2 220.679 339.34 219.799 339.36C218.919 339.38 218.219 339.28 218.209 339.12C218.199 338.96 218.909 338.83 219.789 338.81C220.669 338.79 221.369 338.9 221.379 339.05Z" fill="#455A64"/>
<path d="M227.709 338.9C227.709 339.05 227.009 339.19 226.129 339.21C225.249 339.23 224.549 339.13 224.539 338.98C224.529 338.83 225.239 338.68 226.119 338.66C226.999 338.64 227.699 338.75 227.709 338.9Z" fill="#455A64"/>
<path d="M234 338.75C234 338.9 233.29 339.04 232.42 339.06C231.55 339.08 230.84 338.98 230.83 338.83C230.82 338.68 231.53 338.53 232.41 338.51C233.29 338.49 234 338.6 234 338.75Z" fill="#455A64"/>
<path d="M240.369 338.6C240.369 338.75 239.659 338.89 238.789 338.91C237.919 338.93 237.209 338.83 237.199 338.68C237.189 338.53 237.899 338.39 238.779 338.37C239.659 338.35 240.359 338.45 240.369 338.6Z" fill="#455A64"/>
<path d="M246.699 338.45C246.699 338.61 245.989 338.75 245.119 338.77C244.249 338.79 243.529 338.68 243.529 338.53C243.529 338.38 244.229 338.24 245.109 338.22C245.989 338.2 246.689 338.3 246.699 338.45Z" fill="#455A64"/>
<path d="M246.69 344.19C246.53 344.19 246.48 343.46 246.57 342.59C246.66 341.72 246.84 341.03 246.99 341.04C247.14 341.05 247.2 341.77 247.11 342.64C247.02 343.51 246.84 344.21 246.69 344.19Z" fill="#455A64"/>
<path d="M246.069 350.49C245.919 350.49 245.859 349.76 245.949 348.89C246.039 348.02 246.229 347.33 246.379 347.34C246.529 347.35 246.579 348.07 246.499 348.94C246.419 349.81 246.219 350.51 246.069 350.49Z" fill="#455A64"/>
<path d="M245.449 356.79C245.299 356.79 245.239 356.06 245.329 355.19C245.419 354.32 245.609 353.63 245.759 353.64C245.909 353.65 245.959 354.38 245.879 355.25C245.799 356.12 245.599 356.81 245.449 356.79Z" fill="#455A64"/>
<path d="M244.83 363.09C244.68 363.09 244.63 362.36 244.71 361.49C244.79 360.62 244.99 359.93 245.14 359.94C245.29 359.95 245.34 360.68 245.26 361.55C245.18 362.42 245 363.11 244.83 363.09Z" fill="#455A64"/>
<path d="M244.209 369.4C244.059 369.4 244.009 368.66 244.089 367.79C244.169 366.92 244.369 366.23 244.519 366.25C244.669 366.27 244.729 366.98 244.639 367.85C244.549 368.72 244.359 369.41 244.209 369.4Z" fill="#455A64"/>
<path d="M243.59 375.7C243.44 375.7 243.39 374.96 243.48 374.09C243.57 373.22 243.75 372.53 243.9 372.55C244.05 372.57 244.11 373.28 244.02 374.15C243.93 375.02 243.75 375.71 243.59 375.7Z" fill="#455A64"/>
<path d="M243 382C242.84 382 242.79 381.27 242.88 380.4C242.97 379.53 243.15 378.83 243.31 378.85C243.47 378.87 243.51 379.58 243.42 380.45C243.33 381.32 243.13 382 243 382Z" fill="#455A64"/>
<path d="M242.36 388.3C242.21 388.3 242.15 387.57 242.24 386.7C242.33 385.83 242.52 385.13 242.67 385.15C242.82 385.17 242.87 385.88 242.79 386.75C242.71 387.62 242.51 388.31 242.36 388.3Z" fill="#455A64"/>
<path d="M241.74 394.6C241.59 394.6 241.54 393.87 241.62 393C241.7 392.13 241.9 391.44 242.05 391.45C242.2 391.46 242.25 392.18 242.17 393.05C242.09 393.92 241.89 394.62 241.74 394.6Z" fill="#455A64"/>
<path d="M241.119 400.9C240.969 400.9 240.919 400.17 240.999 399.3C241.079 398.43 241.279 397.74 241.429 397.75C241.579 397.76 241.629 398.48 241.549 399.35C241.469 400.22 241.269 400.92 241.119 400.9Z" fill="#455A64"/>
<path d="M240.5 407.2C240.35 407.2 240.3 406.47 240.38 405.6C240.46 404.73 240.66 404.04 240.81 404.05C240.96 404.06 241.02 404.78 240.93 405.65C240.84 406.52 240.65 407.22 240.5 407.2Z" fill="#455A64"/>
<path d="M239.889 413.5C239.729 413.5 239.679 412.77 239.769 411.9C239.859 411.03 240.039 410.34 240.189 410.35C240.339 410.36 240.399 411.09 240.309 411.96C240.219 412.83 239.999 413.52 239.889 413.5Z" fill="#455A64"/>
<path d="M239.27 419.8C239.12 419.8 239.06 419.07 239.15 418.2C239.24 417.33 239.42 416.64 239.58 416.65C239.74 416.66 239.78 417.39 239.69 418.26C239.6 419.13 239.42 419.82 239.27 419.8Z" fill="#455A64"/>
<path d="M238.649 426.11C238.499 426.11 238.439 425.37 238.529 424.5C238.619 423.63 238.809 422.94 238.959 422.96C239.109 422.98 239.159 423.69 239.079 424.56C238.999 425.43 238.799 426.12 238.649 426.11Z" fill="#455A64"/>
<path d="M238 432.41C237.85 432.41 237.8 431.68 237.88 430.81C237.96 429.94 238.16 429.24 238.31 429.26C238.46 429.28 238.51 429.99 238.43 430.86C238.35 431.73 238.18 432.42 238 432.41Z" fill="#455A64"/>
<path d="M237.7 435.75C237.55 435.75 237.43 435.68 237.44 435.63C237.45 435.58 237.57 435.54 237.72 435.56C237.87 435.58 237.99 435.63 237.99 435.68C237.99 435.73 237.85 435.76 237.7 435.75Z" fill="#455A64"/>
<path d="M239.799 344.56C239.225 345.462 238.497 346.258 237.649 346.91C236.92 347.693 236.065 348.349 235.119 348.85C236.422 347.163 238.005 345.711 239.799 344.56Z" fill="#263238"/>
<path d="M242.069 345.78C240.982 346.565 239.795 347.201 238.539 347.67C237.355 348.3 236.09 348.764 234.779 349.05C235.866 348.265 237.053 347.629 238.309 347.16C239.494 346.532 240.759 346.068 242.069 345.78Z" fill="#263238"/>
<path d="M175.27 274.1C175.27 274.1 171.92 238.21 165.97 222.5L167.15 221.61L165.38 215.42L143.12 212.72L143.46 217.55C140.175 219.03 137.492 221.583 135.85 224.79C127.85 241.73 131.85 261.51 127.56 298.16C127.56 298.16 122.56 315.35 127.72 320.73L176.29 309.41L174 298.33C195.2 297.93 230.06 294.03 230.06 294.03L229.06 273.97C229.06 273.97 176.97 274.28 175.27 274.1Z" fill="#455A64"/>
<path d="M165.339 215.39C166.046 216.649 166.587 217.993 166.949 219.39C167.167 219.936 167.315 220.507 167.389 221.09C167.404 221.392 167.304 221.688 167.109 221.92C166.949 222.109 166.742 222.254 166.509 222.34C165.669 222.6 165.189 222.42 165.189 222.34C165.189 222.26 165.709 222.25 166.339 221.95C166.508 221.875 166.651 221.751 166.749 221.594C166.847 221.437 166.896 221.255 166.889 221.07C166.776 220.542 166.622 220.024 166.429 219.52C165.895 218.194 165.529 216.807 165.339 215.39Z" fill="#E0E0E0"/>
<path d="M170.65 242.11C170.65 242.27 161.65 242.39 150.65 242.39C139.65 242.39 130.65 242.27 130.65 242.11C130.65 241.95 139.65 241.84 150.65 241.84C161.65 241.84 170.65 242 170.65 242.11Z" fill="#263238"/>
<path d="M168.559 232C168.559 232.15 160.619 232.28 150.839 232.28C141.059 232.28 133.119 232.15 133.119 232C133.119 231.85 141.049 231.73 150.839 231.73C160.629 231.73 168.559 231.85 168.559 232Z" fill="#263238"/>
<path d="M165.64 223.11C165.64 223.26 159.08 223.38 150.98 223.38C142.88 223.38 136.33 223.26 136.33 223.11C136.33 222.96 142.89 222.83 150.98 222.83C159.07 222.83 165.64 223 165.64 223.11Z" fill="#263238"/>
<path d="M165.349 216.83C161.612 217.113 157.864 217.206 154.119 217.11C150.373 217.206 146.625 217.113 142.889 216.83C142.889 216.68 147.889 216.56 154.119 216.56C160.349 216.56 165.349 216.68 165.349 216.83Z" fill="#263238"/>
<path d="M172.06 251.84C172.06 251.99 162.59 252.11 150.91 252.11C139.23 252.11 129.76 251.99 129.76 251.84C129.76 251.69 139.23 251.56 150.91 251.56C162.59 251.56 172.06 251.68 172.06 251.84Z" fill="#263238"/>
<path d="M173.779 261.61C173.779 261.76 163.929 261.88 151.779 261.88C139.629 261.88 129.779 261.76 129.779 261.61C129.779 261.46 139.629 261.33 151.779 261.33C163.929 261.33 173.779 261.46 173.779 261.61Z" fill="#263238"/>
<path d="M174.86 270.61C174.86 270.77 164.76 270.89 152.31 270.89C139.86 270.89 129.76 270.77 129.76 270.61C129.76 270.45 139.86 270.34 152.31 270.34C164.76 270.34 174.86 270.46 174.86 270.61Z" fill="#263238"/>
<path d="M224.08 280.46C224.08 280.61 202.78 280.73 176.51 280.73C150.24 280.73 128.93 280.61 128.93 280.46C128.93 280.31 150.23 280.18 176.51 280.18C202.79 280.18 224.08 280.31 224.08 280.46Z" fill="#263238"/>
<path d="M224.45 288.34C224.45 288.5 202.99 288.62 176.52 288.62C150.05 288.62 128.58 288.5 128.58 288.34C128.58 288.18 150.04 288.07 176.52 288.07C203 288.07 224.45 288.19 224.45 288.34Z" fill="#263238"/>
<path d="M173.24 298.06C173.24 298.22 162.99 298.34 150.34 298.34C137.69 298.34 127.43 298.22 127.43 298.06C127.43 297.9 137.68 297.79 150.34 297.79C163 297.79 173.24 297.91 173.24 298.06Z" fill="#263238"/>
<path d="M175.57 307.08C175.57 307.23 164.42 307.36 150.67 307.36C136.92 307.36 125.77 307.23 125.77 307.08C125.77 306.93 136.92 306.81 150.67 306.81C164.42 306.81 175.57 306.93 175.57 307.08Z" fill="#263238"/>
<path d="M133.169 309.47C133.009 309.47 132.889 291.98 132.889 270.41C132.889 248.84 133.009 231.35 133.169 231.35C133.329 231.35 133.439 248.84 133.439 270.41C133.439 291.98 133.319 309.47 133.169 309.47Z" fill="#263238"/>
<path d="M145.18 308.51C145.03 308.51 144.91 287.13 144.91 260.76C144.91 234.39 145 213 145.18 213C145.36 213 145.46 234.37 145.46 260.75C145.46 287.13 145.34 308.51 145.18 308.51Z" fill="#263238"/>
<path d="M158.45 307.08C158.3 307.08 158.18 286.47 158.18 261.08C158.18 235.69 158.3 215.08 158.45 215.08C158.6 215.08 158.73 235.69 158.73 261.08C158.73 286.47 158.61 307.08 158.45 307.08Z" fill="#263238"/>
<path d="M169.6 309.44C169.45 309.44 169.33 293.26 169.33 273.31C169.33 253.36 169.45 237.17 169.6 237.17C169.75 237.17 169.88 253.35 169.88 273.31C169.88 293.27 169.75 309.44 169.6 309.44Z" fill="#263238"/>
<path d="M181.409 274.05C181.539 275.219 181.576 276.396 181.519 277.57C181.519 279.74 181.519 282.73 181.399 286.03C181.279 289.33 181.219 292.33 181.119 294.49C181.11 295.665 181.017 296.838 180.839 298C180.709 296.835 180.672 295.661 180.729 294.49C180.729 292.32 180.729 289.33 180.849 286.02C180.969 282.71 181.029 279.72 181.129 277.55C181.126 276.378 181.22 275.207 181.409 274.05Z" fill="#263238"/>
<path d="M194 274.47C194.124 275.565 194.161 276.669 194.11 277.77C194.11 279.77 194.11 282.6 194.01 285.69C193.91 288.78 193.83 291.59 193.74 293.62C193.744 294.719 193.65 295.817 193.46 296.9C193.336 295.811 193.299 294.715 193.35 293.62C193.35 291.62 193.35 288.78 193.46 285.68C193.57 282.58 193.63 279.78 193.73 277.75C193.721 276.651 193.812 275.553 194 274.47Z" fill="#263238"/>
<path d="M206.519 274.25C206.656 275.307 206.696 276.375 206.639 277.44C206.639 279.44 206.639 282.13 206.539 285.13C206.439 288.13 206.369 290.85 206.269 292.81C206.279 293.879 206.189 294.947 205.999 296C205.874 294.945 205.834 293.882 205.879 292.82C205.879 290.82 205.879 288.13 205.989 285.13C206.099 282.13 206.159 279.4 206.249 277.44C206.252 276.371 206.342 275.304 206.519 274.25Z" fill="#263238"/>
<path d="M219.089 273.9C219.227 274.924 219.267 275.959 219.209 276.99C219.209 278.9 219.209 281.54 219.109 284.45C219.009 287.36 218.949 290 218.849 291.9C218.851 292.936 218.764 293.969 218.589 294.99C218.45 293.966 218.407 292.932 218.459 291.9C218.459 289.99 218.459 287.35 218.559 284.44C218.659 281.53 218.729 278.88 218.819 276.98C218.815 275.947 218.905 274.916 219.089 273.9Z" fill="#263238"/>
<path d="M170.91 278.57C171.815 276.347 173.462 274.506 175.57 273.36C174.836 274.267 174.045 275.125 173.2 275.93C172.493 276.857 171.728 277.739 170.91 278.57Z" fill="#263238"/>
<path d="M173.779 278.81C173.57 277.805 173.647 276.762 174 275.799C174.354 274.836 174.97 273.991 175.779 273.36C175.899 273.47 175.059 274.49 174.519 275.99C173.979 277.49 173.999 278.81 173.779 278.81Z" fill="#263238"/>
<path d="M225 293.92C224.439 290.747 224.059 287.546 223.86 284.33C223.48 281.127 223.279 277.905 223.26 274.68C223.833 277.854 224.217 281.06 224.41 284.28C224.79 287.479 224.987 290.698 225 293.92Z" fill="#263238"/>
<path d="M225.629 278.46C225.629 278.53 225.349 278.73 225.309 279.23C225.3 279.362 225.318 279.495 225.36 279.62C225.403 279.745 225.471 279.861 225.559 279.96C225.671 280.061 225.812 280.125 225.962 280.145C226.112 280.165 226.264 280.138 226.399 280.07C226.54 280.016 226.663 279.922 226.751 279.799C226.84 279.677 226.891 279.531 226.899 279.38C226.885 279.248 226.846 279.12 226.782 279.003C226.719 278.886 226.633 278.783 226.529 278.7C226.139 278.39 225.769 278.49 225.749 278.41C225.729 278.33 226.119 278.05 226.749 278.41C226.933 278.509 227.09 278.652 227.205 278.827C227.32 279.001 227.39 279.202 227.409 279.41C227.423 279.669 227.355 279.927 227.215 280.146C227.075 280.365 226.87 280.534 226.629 280.63C226.392 280.742 226.125 280.777 225.867 280.73C225.609 280.684 225.372 280.558 225.189 280.37C225.058 280.212 224.967 280.026 224.924 279.825C224.88 279.625 224.885 279.418 224.939 279.22C225.119 278.49 225.639 278.39 225.629 278.46Z" fill="#263238"/>
<path d="M175.21 274H175.46L176.19 274.06C176.84 274.13 177.8 274.19 179.06 274.23C181.58 274.33 185.28 274.38 189.99 274.34C199.4 274.28 212.85 273.93 228.99 273.34H229.22V273.57C229.54 279.8 229.88 286.57 230.22 293.75V293.98H230.01C227.45 294.46 224.86 294.66 222.21 294.93L214.13 295.63C208.64 296.08 202.99 296.5 197.24 296.91L176.1 298.33C169.97 297.94 164.02 295.74 159.86 291.7C157.815 289.751 156.209 287.389 155.15 284.77C154.155 282.298 153.363 279.75 152.78 277.15C150.31 267.15 148.78 258.04 147.53 250.48C146.93 246.7 146.42 243.29 145.99 240.31C145.534 237.774 145.237 235.213 145.1 232.64C145.018 231.007 145.363 229.38 146.1 227.92C146.352 227.421 146.691 226.971 147.1 226.59C146.749 227.021 146.438 227.483 146.17 227.97C145.487 229.428 145.185 231.034 145.29 232.64C145.47 235.201 145.804 237.749 146.29 240.27C146.76 243.27 147.29 246.65 147.91 250.43C149.17 257.97 150.77 267.02 153.26 277.03C153.85 279.605 154.642 282.13 155.63 284.58C156.671 287.134 158.246 289.435 160.25 291.33C164.25 295.26 170.14 297.41 176.16 297.8L197.29 296.36L214.17 295.09L222.25 294.4C224.88 294.13 227.52 293.93 229.97 293.47L229.77 293.74C229.43 286.59 229.11 279.79 228.77 273.55L229.02 273.78C212.89 274.37 199.44 274.65 190.02 274.63C185.31 274.63 181.61 274.54 179.09 274.39C177.83 274.32 176.86 274.24 176.21 274.14L175.48 274.05C175.388 274.046 175.297 274.029 175.21 274Z" fill="#263238"/>
<path d="M175.209 274C174.989 273.493 174.815 272.968 174.689 272.43C174.399 271.43 173.999 269.93 173.519 268.09C172.519 264.42 171.369 259.31 170.089 253.67C168.809 248.03 167.639 242.92 166.759 239.23L165.759 234.86C165.603 234.331 165.499 233.789 165.449 233.24C165.664 233.749 165.838 234.274 165.969 234.81C166.279 235.81 166.679 237.3 167.169 239.14C168.169 242.8 169.389 247.9 170.669 253.55C171.949 259.2 172.999 264.21 173.899 268C174.299 269.78 174.639 271.25 174.899 272.38C175.043 272.911 175.147 273.453 175.209 274Z" fill="#263238"/>
<path d="M165.409 215.81C165.418 216.18 165.381 216.549 165.299 216.91C165.199 217.62 165.039 218.63 164.819 219.91C164.724 220.608 164.583 221.3 164.399 221.98C164.338 222.206 164.225 222.414 164.069 222.587C163.912 222.761 163.717 222.896 163.499 222.98C163.06 223.096 162.599 223.096 162.159 222.98C160.509 222.64 158.709 222.2 156.829 221.69C153.079 220.69 149.739 219.58 147.309 218.83L144.439 217.93C144.091 217.842 143.755 217.711 143.439 217.54C143.809 217.551 144.176 217.611 144.529 217.72C145.229 217.88 146.229 218.12 147.459 218.46C149.919 219.11 153.279 220.13 157.019 221.16C158.889 221.67 160.669 222.16 162.309 222.49C162.661 222.605 163.036 222.629 163.399 222.56C163.549 222.506 163.683 222.416 163.79 222.3C163.898 222.183 163.977 222.043 164.019 221.89C164.239 221.25 164.329 220.51 164.479 219.89C164.739 218.65 164.969 217.65 165.129 216.95C165.167 216.558 165.262 216.174 165.409 215.81Z" fill="#263238"/>
<path d="M147.91 354.25L154.9 449.12L157.82 448.44L156.73 356.25L147.91 354.25Z" fill="#263238"/>
<path d="M118.289 357.55L97.0586 449.01H100.899L131.289 357.55H118.289Z" fill="#263238"/>
<path d="M174.439 357.55L203.399 449.01H206.499L183.489 357.55H174.439Z" fill="#263238"/>
<path d="M178.32 363.69L113.42 406.1V408.42L180.13 363.69H178.32Z" fill="#263238"/>
<path d="M123.25 363.69L193.57 411.01V407.39L125.31 361.62L123.25 363.69Z" fill="#263238"/>
<path d="M108.589 359.12L192.209 357.61C192.958 357.596 193.695 357.425 194.374 357.108C195.053 356.79 195.657 356.334 196.148 355.769C196.639 355.203 197.006 354.541 197.225 353.824C197.444 353.108 197.51 352.353 197.419 351.61C197.267 350.294 196.632 349.082 195.635 348.209C194.639 347.337 193.353 346.866 192.029 346.89L107.219 348.25L108.589 359.12Z" fill="#DC3001"/>
<g opacity="0.2">
<path d="M108.589 359.12L192.209 357.61C192.958 357.596 193.695 357.425 194.374 357.108C195.053 356.79 195.657 356.334 196.148 355.769C196.639 355.203 197.006 354.541 197.225 353.824C197.444 353.108 197.51 352.353 197.419 351.61C197.267 350.294 196.632 349.082 195.635 348.209C194.639 347.337 193.353 346.866 192.029 346.89L107.219 348.25L108.589 359.12Z" fill="black"/>
</g>
<path d="M100.069 294.48L108.509 359.12L174.439 357.55L174.269 318.29C174.292 316.747 173.991 315.217 173.384 313.798C172.777 312.38 171.879 311.105 170.747 310.056C169.615 309.007 168.276 308.208 166.815 307.711C165.354 307.214 163.806 307.03 162.269 307.17L111.999 311.71L105.379 243.2L98.699 242.63C98.0013 242.579 97.301 242.684 96.6492 242.938C95.9974 243.193 95.4105 243.589 94.9314 244.099C94.4523 244.608 94.0931 245.219 93.8799 245.885C93.6667 246.551 93.6049 247.257 93.699 247.95L100.069 294.48Z" fill="#DC3001"/>
</svg>
